<?xml version="1.0" encoding="utf-8"?>
<svg xmlns="http://www.w3.org/2000/svg" width="34" height="34" viewBox="0 0 34 34" fill="none">
<path d="M17 32C8.8 32 2 25.2 2 17C2 8.8 8.8 2 17 2C25.2 2 32 8.8 32 17C32 25.2 25.2 32 17 32ZM17 3.9C9.8 3.9 3.9 9.8 3.9 17C3.9 24.2 9.8 30.1 17 30.1C24.2 30.1 30.1 24.2 30.1 17C30.1 9.8 24.2 3.9 17 3.9Z" fill="white"/>
<path d="M7.59998 12.7H11V21.2H9.09998V14.3H7.59998V12.7Z" fill="white"/>
<path d="M13.8999 13.3C14.4999 12.8 15.1999 12.7 15.9999 12.7C16.7999 12.7 17.5999 12.9 18.0999 13.3C18.6999 13.8 18.8999 14.3 18.8999 15C18.8999 15.6 18.5999 16.2 18.1999 16.7C18.8999 17.3 19.1999 18 19.1999 18.8C19.1999 19.5 18.8999 20.2 18.2999 20.7C17.6999 21.3 16.8999 21.4 15.9999 21.4C15.0999 21.4 14.1999 21.1 13.6999 20.7C13.0999 20.2 12.7999 19.6 12.7999 18.8C12.7999 17.9 13.1999 17.2 13.7999 16.7C13.1999 16.2 13.0999 15.7 13.0999 15C12.9999 14.2 13.2999 13.7 13.8999 13.3ZM15.0999 19.5C15.3999 19.7 15.6999 19.8 15.9999 19.8C16.3999 19.8 16.5999 19.7 16.8999 19.5C17.1999 19.3 17.3999 19 17.3999 18.7C17.3999 18.3 17.2999 18.1 16.9999 17.9C16.6999 17.7 16.3999 17.6 16.0999 17.6C15.6999 17.6 15.4999 17.7 15.1999 17.9C14.8999 18.1 14.7999 18.4 14.7999 18.7C14.6999 19 14.7999 19.3 15.0999 19.5ZM15.0999 15.8C15.3999 16 15.5999 16.1 15.8999 16.1C16.1999 16.1 16.4999 16 16.6999 15.8C16.9999 15.6 17.0999 15.3 17.0999 15.1C17.0999 14.9 16.9999 14.5 16.6999 14.4C16.5999 14.1 16.3999 14 15.9999 14C15.6999 14 15.3999 14.1 15.1999 14.3C14.9999 14.5 14.7999 14.8 14.7999 15C14.8999 15.3 14.9999 15.6 15.0999 15.8Z" fill="white"/>
<path d="M22.6 20V17.8H20.5V16.3H22.6V14H24.3V16.2H26.4V17.7H24.3V20H22.6Z" fill="white"/>
</svg>