<?xml version="1.0" encoding="utf-8"?>
<svg xmlns="http://www.w3.org/2000/svg" xmlns:xlink="http://www.w3.org/1999/xlink" version="1.1" id="Layer_1" x="0px" y="0px" viewBox="0 0 90.492 34" style="enable-background:new 0 0 90.492 34;">
<style type="text/css">
	.st0{fill:#929497;}
	.st1{fill:#757676;}
	.st2{fill:#009345;}
	.st3{fill:#017B45;}
	.st4{fill:#FFFFFF;}
</style>
<g>
	<g>
		<path class="st0" d="M28.9,4.169c3.679,3.19,6.104,7.901,6.104,12.933c0,9.212-7.468,16.681-16.681,16.681&#xA;			c-3.12,0-6.892-1.008-9.006-2.564l4.743-6.97l0.907,0.002l3.358-4.613l3.249,4.598c0.01,0.007,3.988,0.01,3.988,0.01l-5.218-7.437&#xA;			l5.002-6.912l-0.748,0.004l4.089-5.913C28.891,4.152,28.9,4.169,28.9,4.169z"/>
		<path class="st1" d="M18.324,34c-3.294,0-7.05-1.072-9.135-2.606L9.02,31.27l4.926-7.238l0.911,0.002l3.471-4.768l3.36,4.756&#xA;			c0.43,0.004,2.116,0.006,3.455,0.008l-5.066-7.221l4.841-6.69l-0.737,0.004l4.459-6.448l0.182,0.146&#xA;			c0.136,0.108,0.198,0.162,0.23,0.195c3.92,3.404,6.168,8.173,6.168,13.088C35.222,26.42,27.641,34,18.324,34z M9.617,31.165&#xA;			c2.048,1.419,5.586,2.4,8.707,2.4c9.078,0,16.463-7.385,16.463-16.463c0-4.793-2.198-9.447-6.029-12.769L28.73,4.309l-3.715,5.372&#xA;			l0.759-0.004l-5.162,7.134l5.369,7.653h-0.419c-4.052-0.003-4.052-0.003-4.12-0.054l-0.046-0.048l-3.074-4.351l-3.245,4.457&#xA;			l-0.903-0.002L9.617,31.165z"/>
	</g>
	<g>
		<path class="st2" d="M7.321,29.831c-3.679-3.19-6.104-7.901-6.104-12.933c0-9.212,7.468-16.681,16.681-16.681&#xA;			c3.12,0,7.161,1.185,9.275,2.741l-5.011,6.793l-0.907-0.002l-3.358,4.613l-3.249-4.598c-0.01-0.007-3.988-0.01-3.988-0.01&#xA;			l5.218,7.437l-5.002,6.912l0.748-0.004l-4.089,5.913C7.33,29.848,7.321,29.831,7.321,29.831z"/>
		<path class="st3" d="M7.58,30.327l-0.182-0.146c-0.136-0.108-0.198-0.162-0.23-0.195C3.248,26.582,1,21.813,1,16.898&#xA;			C0.999,7.58,8.58,0,17.898,0c3.205,0,7.248,1.196,9.404,2.783l0.175,0.129l-5.206,7.057l-0.906-0.002l-3.471,4.768l-3.36-4.756&#xA;			c-0.43-0.004-2.116-0.006-3.455-0.008l5.066,7.221l-4.841,6.69l0.737-0.004L7.58,30.327z M17.898,0.435&#xA;			C8.82,0.435,1.435,7.82,1.435,16.898c0,4.793,2.198,9.447,6.029,12.769l0.028,0.024l3.715-5.372l-0.759,0.004l5.162-7.134&#xA;			l-5.369-7.653h0.419c4.052,0.003,4.052,0.003,4.12,0.054l0.046,0.048l3.074,4.351l3.245-4.457l0.908,0.002l4.815-6.526&#xA;			C24.763,1.555,20.884,0.435,17.898,0.435z"/>
	</g>
	<g>
		<g>
			<g>
				<path class="st4" d="M10.196,22.983h-3.7V12.611c0-0.754-0.406-1.13-1.216-1.13H4.488v-1.44h2.954&#xA;					c1.837,0,2.755,0.946,2.755,2.836L10.196,22.983L10.196,22.983z"/>
				<path class="st1" d="M10.278,23.064H6.414V12.611c0-0.706-0.371-1.049-1.135-1.049H4.405V9.959h3.036&#xA;					c1.883,0,2.837,0.982,2.837,2.918V23.064z M6.577,22.901h3.537V12.877c0-1.854-0.875-2.755-2.674-2.755H4.568v1.277h0.711&#xA;					c0.861,0,1.298,0.408,1.298,1.212C6.577,12.611,6.577,22.901,6.577,22.901z"/>
			</g>
		</g>
	</g>
	<g>
		<g>
			<g>
				<path class="st4" d="M33.242,22.997h-7.79v-3.349c0-0.701,0.412-1.431,1.237-2.19l2.3-1.782c0.882-0.73,1.324-1.288,1.324-1.674&#xA;					v-1.525c0-0.543-0.333-0.815-0.999-0.815c-0.579,0-0.868,0.257-0.868,0.773L28.43,13.59l-2.962,2.156l-0.017-2.538&#xA;					c0-2.075,1.287-3.113,3.862-3.113c2.618,0,3.928,0.801,3.928,2.404v1.911c0,0.658-0.42,1.338-1.259,2.039l-2.3,1.76&#xA;					c-0.824,0.716-1.237,1.404-1.237,2.062l0.009,0.913l4.774,0.01L33.242,22.997z"/>
				<path class="st1" d="M33.324,23.078h-7.953v-3.431c0-0.722,0.425-1.479,1.263-2.25l2.306-1.787&#xA;					c0.857-0.709,1.292-1.251,1.292-1.61v-1.525c0-0.494-0.3-0.734-0.917-0.734c-0.536,0-0.786,0.22-0.786,0.691l-0.016,1.197&#xA;					l-3.124,2.273l-0.018-2.697c0-2.12,1.327-3.195,3.944-3.195c2.66,0,4.009,0.836,4.009,2.486v1.911&#xA;					c0,0.68-0.433,1.387-1.288,2.102l-2.303,1.762c-0.798,0.694-1.205,1.367-1.205,1.997l0.008,0.831l4.774,0.01L33.324,23.078z&#xA;					 M25.534,22.915h7.626l-0.012-1.64l-4.773-0.01l-0.009-0.993c0-0.68,0.425-1.395,1.265-2.124l2.304-1.763&#xA;					c0.813-0.68,1.227-1.345,1.227-1.974V12.5c0-1.563-1.258-2.323-3.846-2.323c-2.544,0-3.781,0.991-3.781,3.031l0.015,2.379&#xA;					l2.801-2.038l0.015-1.114c0-0.389,0.165-0.853,0.949-0.853c0.893,0,1.08,0.488,1.08,0.897v1.525&#xA;					c0,0.415-0.443,0.984-1.353,1.737l-2.302,1.784c-0.798,0.735-1.205,1.451-1.205,2.125L25.534,22.915&#xA;					C25.535,22.915,25.534,22.915,25.534,22.915z"/>
			</g>
		</g>
	</g>
	<g>
		<g>
			<path class="st4" d="M46.555,18.023c0,1.636-0.331,2.976-1.305,3.829c-0.922,0.801-2.193,1.044-3.446,1.044&#xA;				c-1.131,0-2.298-0.226-3.063-0.644l0.522-2.019c0.54,0.313,1.462,0.644,2.471,0.644c1.253,0,2.211-0.661,2.211-2.245v-0.54H43.91&#xA;				c-0.505,0.696-1.323,1.096-2.298,1.096c-2.106,0-3.603-1.706-3.603-4.142c0-2.75,1.758-4.491,3.864-4.491&#xA;				c1.166,0,1.897,0.505,2.332,1.218h0.035l0.087-1.027h2.298c-0.035,0.557-0.07,1.271-0.07,2.541V18.023z M43.91,14.211&#xA;				c0-0.156-0.017-0.331-0.052-0.487c-0.191-0.696-0.696-1.166-1.427-1.166c-0.975,0-1.74,0.87-1.74,2.419&#xA;				c0,1.271,0.626,2.263,1.723,2.263c0.696,0,1.236-0.453,1.41-1.062c0.069-0.209,0.087-0.487,0.087-0.713L43.91,14.211&#xA;				C43.911,14.211,43.91,14.211,43.91,14.211z"/>
			<path class="st1" d="M41.804,22.978c-1.192,0-2.351-0.245-3.102-0.654l-0.056-0.031l0.565-2.184l0.093,0.054&#xA;				c0.527,0.306,1.442,0.633,2.43,0.633c0.795,0,2.129-0.281,2.129-2.163v-0.347c-0.531,0.637-1.323,0.985-2.251,0.985&#xA;				c-2.169,0-3.684-1.737-3.684-4.224c0-2.649,1.659-4.572,3.945-4.572c1.016,0,1.79,0.371,2.302,1.104l0.077-0.913h2.459&#xA;				l-0.006,0.087c-0.036,0.577-0.069,1.284-0.069,2.536v4.734c0,1.858-0.424,3.094-1.333,3.89&#xA;				C44.491,22.62,43.313,22.978,41.804,22.978z M38.836,22.21c0.729,0.379,1.832,0.604,2.968,0.604c1.468,0,2.61-0.345,3.393-1.024&#xA;				c0.871-0.763,1.277-1.96,1.277-3.767v-4.734c0-1.195,0.03-1.895,0.065-2.46h-2.136l-0.087,1.027H44.16l-0.024-0.039&#xA;				c-0.477-0.782-1.238-1.179-2.263-1.179c-2.192,0-3.782,1.854-3.782,4.409c0,2.391,1.448,4.061,3.521,4.061&#xA;				c0.942,0,1.735-0.377,2.231-1.063l0.024-0.034h0.158v0.621c0,1.479-0.835,2.326-2.292,2.326c-0.964,0-1.863-0.302-2.419-0.603&#xA;				L38.836,22.21z M42.414,17.321c-1.079,0-1.805-0.942-1.805-2.344c0-1.496,0.732-2.501,1.822-2.501&#xA;				c0.732,0,1.295,0.459,1.506,1.226c0.036,0.161,0.055,0.34,0.055,0.509v1.254c0,0.309-0.031,0.558-0.091,0.739&#xA;				C43.71,16.871,43.112,17.321,42.414,17.321z M42.431,12.639c-0.992,0-1.659,0.94-1.659,2.338c0,1.305,0.66,2.181,1.641,2.181&#xA;				c0.625,0,1.16-0.403,1.332-1.003c0.055-0.166,0.084-0.404,0.084-0.691V14.21c0-0.157-0.018-0.324-0.05-0.469&#xA;				C43.586,13.043,43.095,12.639,42.431,12.639z"/>
		</g>
		<g>
			<path class="st4" d="M54.457,17.205c0,0.801,0.035,1.584,0.139,2.054h-2.384l-0.157-0.853h-0.052&#xA;				c-0.557,0.679-1.427,1.044-2.437,1.044c-1.723,0-2.75-1.253-2.75-2.611c0-2.21,1.984-3.255,4.995-3.255V13.48&#xA;				c0-0.47-0.244-1.114-1.549-1.114c-0.87,0-1.793,0.296-2.35,0.644l-0.487-1.706c0.592-0.331,1.758-0.766,3.307-0.766&#xA;				c2.837,0,3.725,1.671,3.725,3.69V17.205z M51.898,15.238c-1.392,0-2.471,0.331-2.471,1.34c0,0.679,0.452,1.01,1.044,1.01&#xA;				c0.644,0,1.201-0.435,1.375-0.975c0.035-0.139,0.052-0.296,0.052-0.453C51.898,16.16,51.898,15.238,51.898,15.238z"/>
			<path class="st1" d="M49.566,19.532c-1.839,0-2.832-1.387-2.832-2.692c0-2.134,1.773-3.317,4.995-3.336V13.48&#xA;				c0-0.471-0.255-1.032-1.467-1.032c-0.895,0-1.804,0.317-2.307,0.631l-0.092,0.057l-0.535-1.872l0.057-0.031&#xA;				c0.326-0.182,1.53-0.776,3.347-0.776c2.49,0,3.806,1.304,3.806,3.771v2.977c0,0.927,0.047,1.631,0.137,2.036l0.022,0.099h-2.554&#xA;				l-0.147-0.801C51.426,19.18,50.568,19.532,49.566,19.532z M51.811,13.666c-3.169,0-4.914,1.127-4.914,3.173&#xA;				c0,1.257,0.917,2.529,2.669,2.529c0.994,0,1.837-0.36,2.374-1.015l0.024-0.03h0.159l0.157,0.853h2.217&#xA;				c-0.08-0.428-0.121-1.091-0.121-1.972v-2.977c0-2.394-1.226-3.608-3.643-3.608c-1.684,0-2.826,0.519-3.21,0.724l0.44,1.541&#xA;				c0.537-0.307,1.425-0.601,2.301-0.601c1.419,0,1.631,0.749,1.631,1.195v0.186h-0.084C51.811,13.664,51.811,13.666,51.811,13.666z&#xA;				 M50.471,17.669c-0.695,0-1.126-0.418-1.126-1.091c0-0.943,0.859-1.422,2.553-1.422h0.082v1.004c0,0.166-0.019,0.33-0.054,0.472&#xA;				C51.731,17.236,51.12,17.669,50.471,17.669z M51.816,15.32c-1.532,0.014-2.308,0.437-2.308,1.258c0,0.581,0.36,0.928,0.963,0.928&#xA;				c0.58,0,1.126-0.386,1.298-0.918c0.031-0.124,0.048-0.274,0.048-0.427V15.32H51.816z"/>
		</g>
		<g>
			<path class="st4" d="M55.257,13.463c0-1.061-0.035-1.949-0.069-2.715h2.245l0.105,1.149h0.052&#xA;				c0.365-0.557,1.131-1.358,2.576-1.358c1.114,0,1.967,0.574,2.332,1.462h0.035c0.331-0.453,0.696-0.801,1.114-1.044&#xA;				c0.47-0.261,0.992-0.418,1.619-0.418c1.636,0,2.872,1.149,2.872,3.707v5.013h-2.576v-4.63c0-1.236-0.4-1.95-1.253-1.95&#xA;				c-0.627,0-1.044,0.418-1.236,0.922c-0.052,0.191-0.087,0.453-0.087,0.679v4.978H60.41v-4.786c0-1.062-0.383-1.793-1.236-1.793&#xA;				c-0.679,0-1.079,0.522-1.236,0.94c-0.087,0.209-0.104,0.453-0.104,0.679v4.961h-2.576L55.257,13.463&#xA;				C55.258,13.463,55.257,13.463,55.257,13.463z"/>
			<path class="st1" d="M68.218,19.34h-2.739v-4.711c0-1.239-0.394-1.868-1.172-1.868c-0.749,0-1.06,0.608-1.16,0.87&#xA;				c-0.049,0.182-0.082,0.434-0.082,0.65v5.06h-2.739v-4.868c0-0.639-0.15-1.711-1.154-1.711c-0.61,0-0.999,0.458-1.159,0.887&#xA;				c-0.088,0.211-0.099,0.458-0.099,0.65v5.042h-2.739v-5.877c0-1.034-0.033-1.914-0.069-2.712l-0.004-0.085h2.405l0.097,1.065&#xA;				c0.437-0.608,1.221-1.274,2.561-1.274c1.077,0,1.953,0.525,2.364,1.411c0.327-0.43,0.68-0.752,1.076-0.983&#xA;				c0.519-0.289,1.061-0.429,1.66-0.429c1.849,0,2.953,1.416,2.953,3.789C68.218,14.246,68.218,19.34,68.218,19.34z M65.642,19.177&#xA;				h2.413v-4.931c0-2.304-1.017-3.625-2.79-3.625c-0.57,0-1.086,0.133-1.579,0.407c-0.4,0.233-0.757,0.567-1.088,1.021l-0.024,0.033&#xA;				h-0.131l-0.021-0.05c-0.364-0.884-1.208-1.411-2.257-1.411c-1.357,0-2.113,0.718-2.508,1.321l-0.024,0.037h-0.171l-0.105-1.149&#xA;				h-2.085c0.035,0.777,0.066,1.633,0.066,2.634v5.714h2.413v-4.879c0-0.207,0.013-0.475,0.111-0.71&#xA;				c0.179-0.477,0.618-0.99,1.311-0.99c0.837,0,1.317,0.683,1.317,1.874v4.705h2.413v-4.896c0-0.229,0.034-0.497,0.09-0.7&#xA;				c0.234-0.618,0.724-0.983,1.314-0.983c0.609,0,1.335,0.352,1.335,2.031C65.642,14.63,65.642,19.177,65.642,19.177z"/>
		</g>
		<g>
			<path class="st4" d="M71.652,8.381c0,0.731-0.54,1.323-1.427,1.323c-0.835,0-1.375-0.592-1.375-1.323&#xA;				c0-0.749,0.557-1.323,1.41-1.323C71.112,7.058,71.635,7.632,71.652,8.381z M68.919,19.259v-8.511h2.646v8.511H68.919z"/>
			<path class="st1" d="M71.647,19.34h-2.809v-8.674h2.809V19.34z M69.001,19.177h2.482v-8.348h-2.482V19.177z M70.225,9.785&#xA;				c-0.844,0-1.456-0.591-1.456-1.404c0-0.814,0.627-1.404,1.491-1.404c0.862,0,1.455,0.564,1.474,1.402&#xA;				C71.734,9.208,71.113,9.785,70.225,9.785z M70.26,7.14c-0.782,0-1.328,0.51-1.328,1.241c0,0.719,0.544,1.241,1.293,1.241&#xA;				c0.792,0,1.346-0.51,1.346-1.241C71.553,7.639,71.026,7.14,70.26,7.14z"/>
		</g>
		<g>
			<path class="st4" d="M72.383,13.463c0-1.061-0.035-1.949-0.069-2.715h2.297l0.122,1.184h0.052&#xA;				c0.348-0.557,1.201-1.375,2.628-1.375c1.74,0,3.046,1.166,3.046,3.672v5.03h-2.646v-4.717c0-1.097-0.383-1.845-1.34-1.845&#xA;				c-0.731,0-1.166,0.505-1.358,0.992c-0.07,0.174-0.087,0.418-0.087,0.661v4.908h-2.646L72.383,13.463&#xA;				C72.382,13.463,72.383,13.463,72.383,13.463z"/>
			<path class="st1" d="M80.54,19.34h-2.809v-4.798c0-1.17-0.423-1.763-1.259-1.763c-0.824,0-1.171,0.658-1.282,0.94&#xA;				c-0.055,0.137-0.081,0.343-0.081,0.631v4.99H72.3v-5.877c0-1.034-0.033-1.914-0.069-2.712l-0.004-0.085h2.456l0.113,1.1&#xA;				c0.298-0.418,1.103-1.291,2.615-1.291c1.958,0,3.127,1.403,3.127,3.754v5.111C80.538,19.34,80.54,19.34,80.54,19.34z&#xA;				 M77.895,19.177h2.482v-4.949c0-2.248-1.108-3.591-2.964-3.591c-1.599,0-2.363,1.023-2.559,1.337l-0.024,0.038h-0.171&#xA;				l-0.122-1.184h-2.138c0.035,0.777,0.066,1.633,0.066,2.634v5.714h2.482V14.35c0-0.314,0.03-0.533,0.093-0.692&#xA;				c0.256-0.653,0.792-1.043,1.433-1.043c0.93,0,1.422,0.666,1.422,1.927C77.895,14.542,77.895,19.177,77.895,19.177z"/>
		</g>
		<g>
			<path class="st4" d="M89.335,18.023c0,1.636-0.331,2.976-1.305,3.829c-0.922,0.801-2.193,1.044-3.446,1.044&#xA;				c-1.131,0-2.297-0.226-3.063-0.644l0.522-2.019c0.539,0.313,1.462,0.644,2.472,0.644c1.253,0,2.21-0.661,2.21-2.245v-0.54H86.69&#xA;				c-0.505,0.696-1.323,1.096-2.298,1.096c-2.106,0-3.603-1.706-3.603-4.142c0-2.75,1.758-4.491,3.864-4.491&#xA;				c1.166,0,1.897,0.505,2.332,1.218h0.035l0.087-1.027h2.298c-0.035,0.557-0.07,1.271-0.07,2.541&#xA;				C89.335,13.287,89.335,18.023,89.335,18.023z M86.69,14.211c0-0.156-0.017-0.331-0.052-0.487&#xA;				c-0.191-0.696-0.696-1.166-1.427-1.166c-0.975,0-1.741,0.87-1.741,2.419c0,1.271,0.627,2.263,1.723,2.263&#xA;				c0.696,0,1.236-0.453,1.41-1.062c0.07-0.209,0.087-0.487,0.087-0.713V14.211z"/>
			<path class="st1" d="M84.583,22.978c-1.191,0-2.351-0.245-3.102-0.654l-0.056-0.031l0.565-2.184l0.093,0.054&#xA;				c0.527,0.306,1.442,0.633,2.431,0.633c0.795,0,2.129-0.281,2.129-2.163v-0.347c-0.531,0.637-1.323,0.985-2.251,0.985&#xA;				c-2.169,0-3.684-1.737-3.684-4.224c0-2.649,1.659-4.572,3.946-4.572c1.016,0,1.79,0.371,2.302,1.104l0.077-0.913h2.459&#xA;				l-0.006,0.087c-0.036,0.577-0.069,1.284-0.069,2.536v4.734c0,1.858-0.424,3.095-1.333,3.89&#xA;				C87.27,22.62,86.092,22.978,84.583,22.978z M81.615,22.21c0.729,0.379,1.832,0.604,2.968,0.604c1.468,0,2.61-0.345,3.393-1.024&#xA;				c0.871-0.762,1.277-1.96,1.277-3.767v-4.734c0-1.195,0.03-1.895,0.065-2.46h-2.136l-0.087,1.027h-0.156l-0.024-0.039&#xA;				c-0.477-0.782-1.238-1.179-2.263-1.179c-2.192,0-3.782,1.854-3.782,4.409c0,2.391,1.448,4.061,3.521,4.061&#xA;				c0.942,0,1.735-0.377,2.231-1.063l0.024-0.034h0.158v0.621c0,1.479-0.835,2.326-2.292,2.326c-0.965,0-1.863-0.302-2.419-0.602&#xA;				L81.615,22.21z M85.193,17.321c-1.08,0-1.805-0.942-1.805-2.344c0-1.496,0.732-2.501,1.822-2.501&#xA;				c0.732,0,1.295,0.459,1.506,1.226c0.036,0.161,0.055,0.34,0.055,0.509v1.254c0,0.309-0.031,0.558-0.091,0.739&#xA;				C86.489,16.871,85.891,17.321,85.193,17.321z M85.21,12.639c-0.992,0-1.659,0.94-1.659,2.338c0,1.305,0.66,2.181,1.642,2.181&#xA;				c0.625,0,1.16-0.403,1.331-1.003c0.055-0.166,0.084-0.404,0.084-0.691V14.21c0-0.157-0.018-0.324-0.05-0.469&#xA;				C86.365,13.043,85.874,12.639,85.21,12.639z"/>
		</g>
	</g>
</g>
</svg>