<?xml version="1.0" encoding="utf-8"?>
<svg xmlns="http://www.w3.org/2000/svg" width="25" height="24" viewBox="0 0 25 24" fill="none">
<path fill-rule="evenodd" clip-rule="evenodd" d="M16.4402 1.29097L15.5014 3.02266C16.4443 3.50809 17.198 4.18415 17.7622 5.0523C18.3262 5.92112 18.6084 6.87037 18.6084 7.90162H6.37916C6.37916 6.87013 6.66132 5.92092 7.2254 5.0523C7.78947 4.18415 8.54758 3.50809 9.49947 3.02266L8.56071 1.29097C8.49887 1.17633 8.52079 1.08869 8.62667 1.0266C8.74109 0.97354 8.82919 1.00031 8.89105 1.10573L9.84294 2.85125C10.6802 2.48098 11.5661 2.29545 12.5005 2.29545C13.4346 2.29545 14.3204 2.48094 15.158 2.85125L16.1099 1.10573C16.1714 1.00031 16.2595 0.973297 16.3742 1.0266C16.4799 1.08842 16.5018 1.17633 16.4402 1.29097ZM9.71053 5.69382C9.85147 5.69382 9.97271 5.64318 10.0742 5.54142C10.1753 5.44014 10.2261 5.31912 10.2264 5.17796C10.2264 5.03702 10.1755 4.91625 10.0742 4.81449C9.97271 4.71322 9.85147 4.66258 9.71053 4.66258C9.56959 4.66258 9.45053 4.71322 9.35363 4.81449C9.25672 4.91601 9.20828 5.03701 9.20828 5.17796C9.20828 5.31937 9.25673 5.44014 9.35363 5.54142C9.45053 5.64318 9.56931 5.69382 9.71053 5.69382ZM15.2899 5.69382C15.4306 5.69382 15.5496 5.64318 15.6468 5.54142C15.7437 5.44014 15.7922 5.31912 15.7922 5.17796C15.7922 5.03702 15.7438 4.91625 15.6468 4.81449C15.5496 4.71322 15.4309 4.66258 15.2899 4.66258C15.1486 4.66258 15.0274 4.71322 14.9261 4.81449C14.8246 4.91601 14.774 5.03701 14.774 5.17796C14.774 5.31937 14.8246 5.44014 14.9261 5.54142C15.0274 5.64318 15.1486 5.69382 15.2899 5.69382Z" fill="white"/>
<path d="M3.58917 8.52271C3.85354 8.25833 4.17516 8.12614 4.55422 8.12614C4.9245 8.12614 5.24193 8.25833 5.50635 8.52271C5.77076 8.78708 5.90295 9.10428 5.90295 9.4746V15.1596C5.90295 15.5392 5.77271 15.8605 5.51295 16.125C5.25266 16.3894 4.93301 16.5215 4.55422 16.5215C4.17516 16.5215 3.85354 16.3893 3.58917 16.125C3.32475 15.8605 3.19257 15.5392 3.19257 15.1596V9.4746C3.19257 9.10432 3.3248 8.78708 3.58917 8.52271Z" fill="white"/>
<path d="M6.43184 17.1825C6.43184 17.5883 6.57278 17.9318 6.85469 18.2138C7.13685 18.4956 7.48038 18.6366 7.88594 18.6366H8.86436L8.87776 21.6381C8.87776 22.0171 9.00995 22.339 9.27432 22.6034C9.53869 22.8678 9.85618 23 10.2262 23C10.605 23 10.9268 22.8678 11.1913 22.6034C11.4557 22.339 11.5879 22.0172 11.5879 21.6381V18.6369H13.4123V21.6381C13.4123 22.0171 13.5445 22.339 13.8089 22.6034C14.0733 22.8678 14.3948 23 14.7739 23C15.1527 23 15.4746 22.8678 15.739 22.6034C16.0033 22.339 16.1355 22.0172 16.1355 21.6381V18.6369H17.1272C17.5237 18.6369 17.8628 18.4959 18.1452 18.2139C18.4271 17.9321 18.5682 17.5886 18.5682 17.1827V8.3771H6.43184V17.1825Z" fill="white"/>
<path d="M19.4938 8.51614C19.7583 8.25639 20.0755 8.12614 20.4458 8.12614C20.8247 8.12614 21.1464 8.25638 21.4109 8.51614C21.6753 8.77638 21.8074 9.09602 21.8074 9.4746V15.1596C21.8074 15.5392 21.6753 15.8605 21.4109 16.125C21.1464 16.3894 20.8247 16.5215 20.4458 16.5215C20.0757 16.5215 19.7583 16.3894 19.4938 16.125C19.2295 15.8605 19.0973 15.5392 19.0973 15.1596V9.4746C19.0973 9.09605 19.2295 8.77638 19.4938 8.51614Z" fill="white"/>
</svg>