<?xml version="1.0" encoding="utf-8"?>
<svg xmlns="http://www.w3.org/2000/svg" width="48" height="48" viewBox="0 0 48 48" fill="none">
<g id="astropay">
<rect y="0.00341797" width="48" height="48" rx="12" fill="#053634"/>
<g id="vector">
<path d="M38 32.9763L34.926 25.5439C33.6704 25.3383 32.3824 25.2315 31.0702 25.2315C21.9443 25.2315 13.9866 30.3984 10 38.0034H17.5064C20.7157 34.0631 25.5999 31.5473 31.0702 31.5473C33.5319 31.5473 35.8749 32.0568 38 32.9763Z" fill="#00DBBF"/>
<path d="M22.2611 24.5133C18.6946 25.7949 15.488 27.8325 12.8339 30.4332L21.2836 10.0034H28.4985L33.9323 23.1414C32.9924 23.0386 32.0374 22.9859 31.0702 22.9859C29.6568 22.9859 28.2698 23.0985 26.9175 23.3152L24.8554 18.3543L22.2611 24.5133Z" fill="white"/>
</g>
</g>
</svg>