<?xml version="1.0" encoding="utf-8"?>
<svg xmlns="http://www.w3.org/2000/svg" width="48" height="48" viewBox="0 0 48 48" fill="none">
<rect width="48" height="48" rx="12" fill="#006E90"/>
<path d="M12.6838 15.7264C12.2754 15.8628 12 16.2458 12 16.6772V17.9593C12 18.5129 12.4477 18.9616 13 18.9616H35C35.5523 18.9616 36 18.5129 36 17.9593V16.6772C36 16.2458 35.7246 15.8628 35.3162 15.7264L24.3162 12.0514C24.111 11.9829 23.889 11.9829 23.6838 12.0514L12.6838 15.7264Z" fill="white"/>
<path d="M13 32.9932C12.4477 32.9932 12 33.4419 12 33.9955V34.9977C12 35.5513 12.4477 36 13 36H35C35.5523 36 36 35.5513 36 34.9977V33.9955C36 33.4419 35.5523 32.9932 35 32.9932H13Z" fill="white"/>
<path fill-rule="evenodd" clip-rule="evenodd" d="M14 19.9639C13.4477 19.9639 13 20.4126 13 20.9661C13 21.5196 13.4477 21.9684 14 21.9684H15V29.9864H14C13.4477 29.9864 13 30.4352 13 30.9887C13 31.5422 13.4477 31.991 14 31.991H34C34.5523 31.991 35 31.5422 35 30.9887C35 30.4352 34.5523 29.9864 34 29.9864H33V21.9684H34C34.5523 21.9684 35 21.5196 35 20.9661C35 20.4126 34.5523 19.9639 34 19.9639H14ZM29 21.9684V29.9864H26V21.9684H29ZM22 21.9684V29.9864H19V21.9684H22Z" fill="white"/>
</svg>