<?xml version="1.0" encoding="utf-8"?>
<svg xmlns="http://www.w3.org/2000/svg" xmlns:xlink="http://www.w3.org/1999/xlink" version="1.1" id="Layer_1" x="0px" y="0px" viewBox="0 0 35.91 34" style="enable-background:new 0 0 35.91 34;">
<style type="text/css">
	.st0{fill:#FFFFFF;}
	.st1{fill:#6E6E6E;}
	.st2{fill:#CE2030;}
</style>
<g id="XMLID_674_">
	<g id="XMLID_515_">
		<path id="XMLID_16_" class="st0" d="M17.955,33.664c-9.164,0-16.628-7.455-16.628-16.628S8.782,0.408,17.955,0.408&#xA;			s16.628,7.455,16.628,16.628S27.119,33.664,17.955,33.664z"/>
		<path id="XMLID_13_" class="st1" d="M17.955,0.744c4.353,0,8.445,1.691,11.527,4.774c3.073,3.073,4.774,7.174,4.774,11.527&#xA;			s-1.691,8.445-4.774,11.527s-7.174,4.774-11.527,4.774s-8.454-1.7-11.527-4.783c-3.083-3.073-4.774-7.174-4.774-11.518&#xA;			S3.345,8.591,6.427,5.518C9.501,2.435,13.602,0.744,17.955,0.744 M17.955,0.09C8.585,0.09,1,7.675,1,17.045S8.585,34,17.955,34&#xA;			S34.91,26.415,34.91,17.045S27.315,0.09,17.955,0.09L17.955,0.09z"/>
	</g>
	<path id="XMLID_682_" class="st2" d="M11.836,18.4c-0.308-0.28-0.943-0.439-1.532-0.439H8.875v2.98c0,0,0.374,0.206,0.514,0.224&#xA;		c0.943,0.159,1.85,0.093,2.177-0.065c0.448-0.234,0.747-0.673,0.747-1.224C12.331,18.895,12.144,18.68,11.836,18.4z"/>
	<path id="XMLID_688_" class="st2" d="M9.66,15.905c1.028,0,1.962-0.084,1.962-0.962c0-0.467-0.075-0.831-0.411-1.084&#xA;		c-0.299-0.196-1.074-0.532-1.868-0.019c-0.234,0.149-0.42,0.458-0.467,0.654c-0.075,0.355,0,1.411,0,1.411&#xA;		S9.211,15.905,9.66,15.905z"/>
	<path id="XMLID_689_" class="st2" d="M8.24,29.348c2.261,1.784,5.026,2.961,8.043,3.27c-2.307-1.794-4.792-2.98-6.987-3.213&#xA;		C8.922,29.367,8.567,29.348,8.24,29.348z"/>
	<path id="XMLID_690_" class="st2" d="M25.961,27.087c-0.579-0.019-3.961,0.131-7.763-0.701c-0.598-0.131-2.924-0.402-4.325-0.523&#xA;		c1.476,0.336,2.971,0.85,4.521,1.373c2.513,0.859,5.119,1.71,7.669,1.831c0.598,0.028,1.27,0,1.934-0.047&#xA;		c0.99-0.831,1.868-1.794,2.625-2.84C29.305,26.667,27.586,27.153,25.961,27.087z"/>
	<path id="XMLID_691_" class="st2" d="M10.846,26.798c2.447,0.617,5.596,2.597,7.912,4.045c0.906,0.57,1.728,1.074,2.522,1.485&#xA;		c1.635-0.355,3.176-0.972,4.568-1.803c-2.653-0.177-5.577-1.177-8.052-2.018C15.339,27.676,13.051,26.863,10.846,26.798z"/>
	<path id="XMLID_658_" class="st2" d="M17.918,1.454c-8.632,0-15.619,6.997-15.619,15.619c0,3.456,1.121,6.642,3.017,9.229&#xA;		c0.962-0.402,3.008-1.158,4.951-1.233c2.56-0.093,5.054,0.243,7.165,0.542c3.568,0.495,9.192,1.812,13.723-0.234&#xA;		c1.513-2.41,2.391-5.25,2.391-8.305C33.537,8.451,26.54,1.454,17.918,1.454z M24.335,7.068l0.645-1.336l0.29,1.457l1.476,0.206&#xA;		l-1.308,0.701l0.271,1.485l-1.093-1.009l-1.308,0.701L23.943,7.9l-1.084-1L24.335,7.068z M16.955,4.836l0.953-2.877l0.953,2.877&#xA;		l3.036,0.028L19.44,6.629l0.934,2.933l-2.466-1.766l-2.466,1.766l0.934-2.933L13.91,4.873L16.955,4.836z M10.528,7.19l0.29-1.457&#xA;		l0.645,1.336l1.476-0.177L11.846,7.9l0.635,1.373l-1.308-0.701L10.08,9.581l0.271-1.485L9.043,7.395L10.528,7.19z M5.288,10.431&#xA;		l0.822-0.336L6.054,9.207l0.57,0.682l0.831-0.327L6.979,10.31l0.579,0.701l-0.859-0.215l-0.476,0.747l-0.065-0.897L5.288,10.431z&#xA;		 M14.882,21.594c-0.458,0.878-0.934,1.327-1.971,1.691c-0.915,0.318-2.177,0.318-3.475,0.318c-1.513,0-3.4-1.214-3.4-1.214V13.15&#xA;		c0,0,0.906-1.766,3.363-1.924c2.56-0.168,2.849,0.121,3.625,0.617c0.915,0.589,1.439,1.532,1.457,2.644&#xA;		c0.019,0.719-0.14,1.018-0.374,1.429c-0.196,0.336-0.439,0.56-0.831,0.757c-0.019,0.009-0.019,0.028,0,0.037&#xA;		c0.598,0.308,1.009,0.579,1.355,1.046c0.346,0.476,0.701,1.317,0.701,1.934C15.311,20.361,15.181,21.015,14.882,21.594z&#xA;		 M18.945,23.575h-2.522v-9.799h-1.532c-0.439-1.728-2.242-2.569-2.242-2.569h10.818c0,0-2.289,1.028-3.083,2.569h-1.439&#xA;		L18.945,23.575L18.945,23.575z M30.127,22.538c-1.541,1.037-3.774,1.242-4.512,1.242c-1.878,0-3.213-0.719-4.204-1.794&#xA;		c-0.99-1.074-1.485-2.606-1.485-4.605c0-1.943,0.57-3.466,1.719-4.549c1.149-1.093,2.644-1.635,4.68-1.635&#xA;		c1.579,0,2.307,0.57,3.41,1.298l-1.158,2.139c-0.719-0.663-1.71-1.186-2.718-1.112c-0.691,0.056-1.476,0.28-2.27,1&#xA;		c-0.514,0.467-0.953,1.653-0.953,2.905c0,1.308,0.262,2.317,0.831,2.999c0.504,0.607,1.429,1.056,2.317,1.037&#xA;		c0.887-0.019,1.196-0.112,1.672-0.383v-2.298h-1.513v-2.317h4.185V22.538z M29.651,10.646l-0.065,0.897l-0.476-0.747l-0.859,0.215&#xA;		l0.579-0.701l-0.476-0.747l0.831,0.327l0.57-0.682l-0.056,0.887l0.822,0.336L29.651,10.646z"/>
</g>
</svg>