<?xml version="1.0" encoding="utf-8"?>
<svg xmlns="http://www.w3.org/2000/svg" width="48" height="48" viewBox="0 0 48 48" fill="none">
<rect y="0.00390625" width="48" height="48" rx="12" fill="#F7931A"/>
<path d="M34.5789 20.5848C35.0567 17.3914 32.6249 15.6746 29.2998 14.5294L30.3784 10.2034L27.7449 9.54719L26.6948 13.7591C26.0025 13.5866 25.2914 13.4239 24.5848 13.2626L25.6424 9.02294L23.0104 8.3667L21.931 12.6912C21.358 12.5607 20.7954 12.4317 20.2493 12.2959L20.2523 12.2824L16.6205 11.3757L15.9199 14.1881C15.9199 14.1881 17.8738 14.6359 17.8326 14.6636C18.8992 14.9299 19.092 15.6356 19.0597 16.1951L17.8311 21.1233C17.9046 21.1421 17.9999 21.1691 18.1049 21.2111C18.0171 21.1893 17.9233 21.1653 17.8266 21.1421L16.1044 28.0458C15.9739 28.3697 15.6431 28.8557 14.8975 28.6712C14.9238 28.7095 12.9833 28.1935 12.9833 28.1935L11.6759 31.2077L15.103 32.062C15.7406 32.2217 16.3654 32.389 16.9805 32.5465L15.8906 36.9219L18.5212 37.5782L19.6005 33.2492C20.3191 33.4442 21.0167 33.6242 21.6992 33.7937L20.6236 38.1024L23.2572 38.7586L24.347 34.3914C28.8378 35.2412 32.2146 34.8984 33.636 30.8372C34.7814 27.5673 33.579 25.681 31.2163 24.451C32.9369 24.0543 34.2331 22.9226 34.5789 20.5848ZM28.5617 29.0215C27.7479 32.2915 22.2416 30.5237 20.4564 30.0805L21.9025 24.2838C23.6877 24.7293 29.4123 25.6113 28.5617 29.0215ZM29.3763 20.5376C28.6337 23.512 24.0507 22.0008 22.5641 21.6303L23.8752 16.3729C25.3619 16.7434 30.1496 17.4349 29.3763 20.5376Z" fill="white"/>
</svg>