<?xml version="1.0" encoding="utf-8"?>
<svg xmlns="http://www.w3.org/2000/svg" xmlns:xlink="http://www.w3.org/1999/xlink" version="1.1" id="Layer_1" x="0px" y="0px" viewBox="0 0 114.4 34" style="enable-background:new 0 0 114.4 34;">
<style type="text/css">
	.st0{fill:url(#XMLID_3_);}
	.st1{fill:url(#XMLID_4_);}
	.st2{fill:url(#XMLID_5_);}
	.st3{fill:url(#XMLID_6_);}
	.st4{fill:#FFFFFF;}
</style>
<g>
	<g id="blue">
		
			<linearGradient id="XMLID_3_" gradientUnits="userSpaceOnUse" x1="8.312" y1="-4350" x2="8.312" y2="-4370.5205" gradientTransform="matrix(1 0 0 -1 0 -4350.0005)">
			<stop offset="0" style="stop-color:#4793CF"/>
			<stop offset="1" style="stop-color:#56C8E7"/>
		</linearGradient>
		<path id="XMLID_846_" class="st0" d="M4.9,6.7c1-1.6,2.5-2.4,4.5-2.4c4.2,0.2,6.2,2.9,6.2,8.3c0,5.2-2.4,7.9-7.3,8&#xA;			c-4.9,0-7.3-2.3-7.3-7.1V0h2c1.3,0,2,0.7,2,2V6.7z M8.3,7.8c-2.1,0-3.2,1.5-3.3,4.5c0,3.2,1.1,4.8,3.3,4.8s3.3-1.6,3.3-4.8&#xA;			C11.5,9.3,10.4,7.8,8.3,7.8z"/>
		
			<linearGradient id="XMLID_4_" gradientUnits="userSpaceOnUse" x1="18.678" y1="-4350" x2="18.678" y2="-4370.2739" gradientTransform="matrix(1 0 0 -1 0 -4350.0005)">
			<stop offset="0" style="stop-color:#4793CF"/>
			<stop offset="1" style="stop-color:#56C8E7"/>
		</linearGradient>
		<path id="XMLID_852_" class="st1" d="M18.7,0c0.5,0,1,0.2,1.3,0.5c0.4,0.4,0.6,0.8,0.6,1.4v18.4h-3.9V0H18.7z"/>
		
			<linearGradient id="XMLID_5_" gradientUnits="userSpaceOnUse" x1="28.7615" y1="-4354.4873" x2="28.7615" y2="-4370.5708" gradientTransform="matrix(1 0 0 -1 0 -4350.0005)">
			<stop offset="0" style="stop-color:#4793CF"/>
			<stop offset="1" style="stop-color:#56C8E7"/>
		</linearGradient>
		<path id="XMLID_854_" class="st2" d="M35.4,14c0,2.7-0.7,4.5-2.1,5.4c-1.4,0.8-2.9,1.2-4.6,1.2c-1.6,0-3.1-0.4-4.5-1.3&#xA;			c-1.4-0.9-2-2.6-2-5.2V4.5h3.9v10.3c0,1.7,0.9,2.6,2.7,2.6s2.7-0.9,2.7-2.6V6.5c0-1.3,0.6-2,1.9-2h2L35.4,14L35.4,14z"/>
		
			<linearGradient id="XMLID_6_" gradientUnits="userSpaceOnUse" x1="43.3391" y1="-4354.2773" x2="43.3391" y2="-4370.6431" gradientTransform="matrix(1 0 0 -1 0 -4350.0005)">
			<stop offset="0" style="stop-color:#4793CF"/>
			<stop offset="1" style="stop-color:#56C8E7"/>
		</linearGradient>
		<path id="XMLID_856_" class="st3" d="M50.2,15.5c-0.5,1.8-1.2,3.1-2.3,3.9c-1.3,0.9-2.8,1.3-4.5,1.3c-4.7-0.2-7.1-2.9-7.1-8.3&#xA;			s2.4-8.1,7.2-8.1c5,0,7.3,3.1,7,9.3H40.3c0.2,2.4,1.2,3.6,3.1,3.6c0.9,0,1.8-0.4,2.5-1.1c0.4-0.4,0.8-0.6,1.3-0.6L50.2,15.5&#xA;			L50.2,15.5z M46.2,10.7C46,8.6,45,7.5,43.4,7.5c-1.7,0-2.7,1.1-3,3.2H46.2z"/>
	</g>
	<path id="XMLID_1_" class="st4" d="M55.7,24.5c0,1.3-0.7,2-2,2h-2V11.4c0.2-4.7,2.6-7.1,7.3-7.1c4.9,0,7.3,2.7,7.3,8&#xA;		c0,5.4-2.1,8.1-6.2,8.3c-2,0-3.4-0.8-4.5-2.4C55.7,18.1,55.7,24.5,55.7,24.5z M62.3,12.5c0-3.2-1.1-4.8-3.3-4.8s-3.3,1.6-3.3,4.8&#xA;		c0.1,3,1.2,4.5,3.3,4.5S62.2,15.5,62.3,12.5z M67.5,12.1c0.1-5.1,2.8-7.6,8-7.6h0.6v4.1h-1.3c-2.2,0-3.3,1.1-3.3,3.4v8.2h-4V12.1z&#xA;		 M79.8,0c1.3,0,2,0.6,1.9,1.9v1.2h-3.9V0H79.8L79.8,0z M79.8,4.5c1.3,0,1.9,0.6,1.9,1.9v13.9h-3.9V4.5H79.8z M94.6,20.3&#xA;		c-1.3-0.1-2-0.7-2-2v-8.1c-0.1-1.6-1-2.4-2.7-2.4c-1.7,0-2.6,0.8-2.7,2.4v10.1h-4V11c0-4.5,2.2-6.8,6.7-6.8s6.7,2.3,6.6,6.8v9.3&#xA;		H94.6z M99.9,20.1c-1.5-0.1-2.2-1.1-2.2-2.8V0h2c0.5,0,0.9,0.2,1.3,0.6c0.4,0.4,0.6,0.9,0.6,1.4v2.5h2.4v0.9c0,0.6-0.2,1.1-0.6,1.4&#xA;		c-0.4,0.4-0.8,0.5-1.4,0.5h-0.4v8.7c0,0.7,0.4,1,1.2,1h1.2v3C102.7,20.2,101.4,20.2,99.9,20.1z M70.3,31.9l-0.6,1.7h-2l3-9h2.4&#xA;		l3.1,9h-2l-0.6-1.7C73.7,31.9,70.3,31.9,70.3,31.9z M71.5,28.8L71,30.3h2l-0.5-1.4L72,27.7h0L71.5,28.8z M77.8,27.7h-0.1l0.1,1.4&#xA;		v4.5H76v-8.9h2.3l2.2,5.3l2.2-5.3h2.3v8.9h-1.8v-4.5l0-1.4h-0.1L82.8,29l-1.5,4.5h-1.5L78.3,29L77.8,27.7z M87.8,24.7v8.9H86v-8.9&#xA;		H87.8z M93.7,30l0.7,1.8l0.1,0l-0.3-2.3v-4.8H96v8.9h-2.3L91,28.3l-0.7-1.9l-0.1,0l0.3,2.4v4.8h-1.8v-8.9h2.3L93.7,30z M68.6,28.9&#xA;		h-5.6v1.5h3.4c-0.4,1-1.4,1.7-2.4,1.7c-1.5,0-2.7-1.3-2.7-3c0-1.6,1.2-3,2.7-3c0.8,0,1.5,0.4,2.1,1h2.2c-0.7-1.7-2.3-2.9-4.2-2.9&#xA;		c-2.6,0-4.6,2.2-4.6,4.8S61.5,34,64,34s4.6-2.2,4.6-4.8C68.6,29.1,68.6,29,68.6,28.9z M105.5,28.9h-5.6v1.5h3.4&#xA;		c-0.4,1-1.4,1.7-2.4,1.7c-1.5,0-2.7-1.3-2.7-3c0-1.6,1.2-3,2.7-3c0.8,0,1.5,0.4,2.1,1h2.2c-0.7-1.7-2.3-2.9-4.2-2.9&#xA;		c-2.6,0-4.6,2.2-4.6,4.8s2.1,4.8,4.6,4.8s4.6-2.2,4.6-4.8C105.5,29.1,105.5,29,105.5,28.9z M109.6,24.8h-0.7v2.4h-0.7v-2.4h-0.7&#xA;		v-0.5h2.2L109.6,24.8L109.6,24.8z M110.6,24.9L110.6,24.9l0.1,0.8v1.5H110v-3h0.9l0.8,1.7l0.8-1.7h0.9v3h-0.7v-1.5l0.1-0.8h0&#xA;		l-0.3,0.8l-0.6,1.1h-0.5l-0.6-1.1L110.6,24.9z"/>
</g>
</svg>