<?xml version="1.0" encoding="utf-8"?>
<svg xmlns="http://www.w3.org/2000/svg" xmlns:xlink="http://www.w3.org/1999/xlink" version="1.1" id="Layer_1" x="0px" y="0px" viewBox="0 0 104 34" style="enable-background:new 0 0 104 34;">
<style type="text/css">
	.st0{fill-rule:evenodd;clip-rule:evenodd;fill:#FFFFFF;}
	.st1{fill-rule:evenodd;clip-rule:evenodd;fill:#E91C24;}
</style>
<g>
	<path class="st0" d="M63.5,18.8v14.9h-3v-9.4l-0.1,0c-1,1.8-1.9,3.7-2.9,5.5c-0.2,0.5-0.5,0.9-0.7,1.4c-0.3,0.7-0.8,1.1-1.6,1.1&#xA;		c-0.8,0-1.3-0.4-1.7-1.1c-1.1-2.1-2.2-4.2-3.2-6.3c-0.1-0.3-0.3-0.5-0.5-0.9v9.8h-3V18.8c1,0,2.1-0.1,3.1,0c0.3,0,0.6,0.5,0.8,0.8&#xA;		c1.5,2.9,3,5.8,4.5,8.8c1.2-2.3,2.4-4.7,3.5-7c1.4-2.7,1.4-2.7,4.4-2.6C63.1,18.8,63.2,18.8,63.5,18.8z"/>
	<path class="st1" d="M27.2,6c-0.7-0.7-1.4-1.4-2.1-2c-2.9-2.6-7.3-1.2-8.1,2.6c-0.4,1.9,0.2,3.5,1.7,4.7c1.4,1.2,3.1,1.5,4.8,0.6&#xA;		c2-1,3.5-2.4,4.9-4.1c1.4-1.6,2.7-3.2,4.1-4.8c2.8-3.4,7.2-4,10.8-1.2c0.2,0.1,0.3,0.2,0.5,0.4L45,1.3C45.2,3.2,45.4,5,45.6,7&#xA;		l-5.1-2.4l1-0.8c-1.1-1.2-3.3-1.6-5-0.7c-0.7,0.4-1.3,0.8-1.8,1.4c-1.9,2.1-3.5,4.3-5.5,6.3c-1.3,1.3-2.8,2.3-4.3,3.3&#xA;		c-3.9,2.4-9.4-0.2-10.4-5c-0.9-4.6,2.3-8.8,7-9c2.2-0.1,4.2,0.7,5.7,2.3C28.9,4.2,28.9,4.2,27.2,6C27.2,6,27.1,6.1,27.2,6z"/>
	<path class="st1" d="M61.9,5.6c-0.2,0.3-0.4,0.6-0.5,0.9c-1,2-2.1,4-3.1,6c-0.3,0.7-0.8,1.1-1.6,1.1c-0.8,0-1.3-0.4-1.6-1.1&#xA;		c-1.1-2.1-2.2-4.2-3.3-6.3c-0.1-0.3-0.3-0.5-0.5-0.7v9.5h-2.9V0.2c1,0,2.1,0,3.2,0c0.2,0,0.5,0.5,0.7,0.8c1.4,2.8,2.9,5.7,4.3,8.5&#xA;		c0,0.1,0.1,0.2,0.2,0.3c0.8-1.5,1.5-2.9,2.2-4.4c0.8-1.5,1.5-3,2.3-4.5c0.3-0.5,0.6-0.8,1.2-0.8c0.8,0,1.7,0,2.6,0v14.9h-2.9V5.7&#xA;		L61.9,5.6z"/>
	<path class="st1" d="M12.5,10.3c-0.1-1.5-1-2.3-2.3-2.7c-0.1,0-0.2-0.1-0.4-0.2c1.1-0.5,1.9-1.1,2.3-2.2C12.7,3,11.5,0.8,9,0.5&#xA;		C6.4,0.1,3.7,0.2,1,0.1v15c0.1,0,0.2,0.1,0.3,0.1c2.1,0,4.2,0.1,6.3,0c1.1-0.1,2.1-0.5,3.1-1C12.1,13.2,12.6,11.9,12.5,10.3z&#xA;		 M4.4,6.6V2.6c1.1,0.1,2.2,0.1,3.2,0.2C8.5,3,8.7,3.7,8.7,4.5c0,1-0.3,1.6-1.1,1.8C6.6,6.5,5.6,6.5,4.4,6.6L4.4,6.6z M9.1,10.7&#xA;		c-0.1,1-0.6,1.7-1.6,1.8c-1,0.1-2,0-3.1,0l0,0V8.9c1.2,0,2.3-0.1,3.4,0C8.7,9,9.2,9.7,9.1,10.7z"/>
	<path class="st1" d="M84.5,0.2c0.9,0,1.6,0,2.4,0c0.2,0,0.3,0,0.5,0v14.8c-1.3,0.2-2.5,0.2-3.5-1.1C82.1,11.3,80,8.9,78,6.3&#xA;		c-0.1-0.2-0.3-0.4-0.6-0.6v9.4h-2.9V0.3C75.8,0.2,77,0,78,1.3c1.9,2.6,3.9,5.1,5.9,7.6c0.2,0.2,0.3,0.4,0.6,0.7L84.5,0.2L84.5,0.2z"/>
	<path class="st0" d="M26.6,28.6c-2.3-0.2-2.3-0.2-2.1-2.6h5.3c0,2,0,4,0,6c0,0.2-0.1,0.4-0.3,0.5c-3.7,2.5-11.1,1.9-12.7-4&#xA;		c-1.4-5.2,1.7-9.9,7.3-9.9c2.6,0,4.5,0.7,5.8,2.1c-0.3,0.4-0.6,0.9-0.9,1.3c-0.5,0.7-0.9,0.8-1.7,0.4c-1.2-0.7-2.4-1-3.8-0.8&#xA;		c-2.1,0.3-3.2,1.6-3.5,3.9c-0.3,2.3,0.4,5.1,3.5,5.7c0.2,0.1,0.5,0.1,0.7,0.1C27.2,31.2,26.7,31,26.6,28.6z"/>
	<path class="st1" d="M103,2c-0.1,0.2-0.2,0.3-0.2,0.4c-1.3,2-1.2,1.8-3.1,0.9c-3-1.4-6.6,0-6.6,4.2c0,1.2,0.2,2.4,0.9,3.4&#xA;		c1.1,1.6,3.6,2.3,5.4,1.5c0.2-0.1,0.3-0.3,0.4-0.5c0.1-0.6,0-1.2,0-1.9c-0.5,0-0.9-0.1-1.3-0.1c-0.6,0-0.9-0.2-0.8-0.9&#xA;		c0-0.5,0-1,0-1.6h5.2c0,0.2,0.1,0.5,0.1,0.7c0,1.3,0,2.6,0,3.9c0,1.9,0,1.9-1.8,2.6c-3.5,1.4-7.6,0.5-9.9-2.2&#xA;		c-1.9-2.3-2.1-5-1.2-7.7c0.9-2.6,2.8-4.1,5.4-4.6c2.5-0.5,4.8-0.2,7,1.3C102.6,1.7,102.8,1.8,103,2z"/>
	<path class="st0" d="M45.3,33.5c-1.8-4.7-3.6-9.5-5.5-14.2c-0.1-0.2-0.5-0.5-0.8-0.5c-0.8-0.1-1.5,0-2.3,0c-0.5,0-0.7,0.2-0.9,0.7&#xA;		c-1.1,2.9-2.2,5.7-3.3,8.6c-0.7,1.9-1.5,3.8-2.2,5.8c0.9,0,1.8,0,2.6,0c0.7,0,1.1-0.3,1.3-1c0.2-0.8,0.5-1.6,0.8-2.3h5.7&#xA;		c0.3,0.8,0.5,1.6,0.8,2.3c0.2,0.4,0.6,0.9,1,0.9c0.9,0.1,1.9,0,2.8,0C45.3,33.7,45.3,33.6,45.3,33.5z M35.8,28.1l2-6&#xA;		c0.7,2.1,1.4,4,2,6C39.9,28.1,35.8,28.1,35.8,28.1z"/>
	<polygon class="st0" points="76,33.8 66.4,33.8 66.4,18.8 76,18.8 76,21.5 69.9,21.5 69.9,24.9 74.5,24.9 74.5,27.6 69.9,27.6 &#xA;		69.9,31.1 76,31.1 76,33.8"/>
	<path class="st0" d="M87.4,20.2c-0.2,0.4-0.4,0.8-0.7,1.2c-0.6,1.1-0.8,1.2-1.9,0.6c-0.8-0.4-1.7-0.7-2.6-0.6&#xA;		c-0.7,0.1-1.2,0.5-1.3,1.3c-0.1,0.8,0.3,1.2,1,1.5c0.8,0.3,1.6,0.6,2.3,0.8c2.7,1,3.5,2.1,3.3,4.7c-0.1,2.1-1.7,3.7-4.1,4.2&#xA;		c-2.1,0.4-4.8-0.4-6.4-1.9c0.3-0.5,0.6-1,0.9-1.5c0.4-0.7,0.9-0.7,1.6-0.4c0.8,0.4,1.7,0.8,2.6,1c1,0.2,1.8-0.3,2.1-1&#xA;		c0.3-0.9,0-1.7-0.8-2.1c-0.9-0.4-1.8-0.6-2.7-0.9c-2.1-0.8-3.1-2.1-3.1-4.1c0-1.9,1.2-3.5,3.1-4.2C83.1,18.2,85.3,18.7,87.4,20.2z"/>
	<polygon class="st1" points="71.5,15.1 68.1,15.1 68.1,0.3 71.5,0.3 71.5,15.1"/>
	<path class="st1" d="M43.3,8.5l2.3,1.1c-0.9,2.8-2.7,4.5-5.5,5.2c-3.5,0.8-6.1-0.8-8.4-3.3c0.6-0.6,1.1-1.3,1.7-1.9&#xA;		c0.6,0.6,1.2,1.1,1.8,1.6c3.2,2.6,7.1,0.7,7.9-2.4C43.2,8.7,43.2,8.6,43.3,8.5z"/>
</g>
</svg>