<?xml version="1.0" encoding="utf-8"?>
<svg xmlns="http://www.w3.org/2000/svg" xmlns:xlink="http://www.w3.org/1999/xlink" version="1.1" id="Layer_1" x="0px" y="0px" viewBox="0 0 143.431 34" style="enable-background:new 0 0 143.431 34;">
<style type="text/css">
	.st0{fill:url(#SVGID_1_);}
	.st1{fill:url(#SVGID_2_);}
	.st2{fill:url(#SVGID_3_);}
	.st3{fill:url(#SVGID_4_);}
	.st4{fill:url(#SVGID_5_);}
	.st5{fill:url(#SVGID_6_);}
	.st6{fill:url(#SVGID_7_);}
	.st7{fill:url(#SVGID_8_);}
	.st8{fill:url(#SVGID_9_);}
	.st9{fill:url(#SVGID_10_);}
</style>
<g>
	<g>
		
			<linearGradient id="SVGID_1_" gradientUnits="userSpaceOnUse" x1="39.3432" y1="5206.7563" x2="142.7145" y2="5207.189" gradientTransform="matrix(1 0 0 1 0 -5188.5327)">
			<stop offset="0" style="stop-color:#20FC36"/>
			<stop offset="1" style="stop-color:#17FCCB"/>
		</linearGradient>
		<path class="st0" d="M62.296,10.585c1.23-0.035,2.044,1.188,1.605,2.32c-0.375,1.011-1.619,0.912-2.475,1.223&#xA;			c-1.032,0.233-1.662,1.11-2.1,2.001c-0.926,2.008-0.424,4.809,1.457,6.089c0.82,0.431,1.86,0.446,2.666,0.905&#xA;			c0.877,0.728,0.707,2.171-0.276,2.716c-0.813,0.389-1.938,0.177-2.779-0.042c-3.345-1.04-5.65-4.512-5.332-8.012&#xA;			C55.211,14.021,58.414,10.528,62.296,10.585z"/>
		
			<linearGradient id="SVGID_2_" gradientUnits="userSpaceOnUse" x1="39.3436" y1="5206.6592" x2="142.7149" y2="5207.0918" gradientTransform="matrix(1 0 0 1 0 -5188.5327)">
			<stop offset="0" style="stop-color:#20FC36"/>
			<stop offset="1" style="stop-color:#17FCCB"/>
		</linearGradient>
		<path class="st1" d="M84.99,10.648c3.133-0.368,6.096,2.015,7.164,4.851c0.877,2.489,0.559,5.594-1.16,7.666&#xA;			c-1.457,1.839-3.628,3.119-6.039,2.822c-1.266-0.269-1.626-1.938-0.764-2.807c0.827-0.53,2.037-0.467,2.864-1.025&#xA;			c2.355-1.782,2.383-5.954-0.007-7.722c-0.856-0.566-2.058-0.453-2.892-1.004C83.328,12.543,83.71,10.889,84.99,10.648z"/>
		
			<linearGradient id="SVGID_3_" gradientUnits="userSpaceOnUse" x1="39.344" y1="5206.5571" x2="142.7153" y2="5206.9897" gradientTransform="matrix(1 0 0 1 0 -5188.5327)">
			<stop offset="0" style="stop-color:#20FC36"/>
			<stop offset="1" style="stop-color:#17FCCB"/>
		</linearGradient>
		<path class="st2" d="M97.789,10.832c0.53,0.311,0.912,0.905,1.301,1.372c1.117-0.905,2.235-1.648,3.727-1.662&#xA;			c2.716-0.212,5.367,1.924,5.615,4.653c0.134,1.725,0.021,3.472,0.049,5.205c-0.021,1.4,0.113,2.85-0.085,4.236&#xA;			c-0.332,1.301-1.966,1.824-3.02,0.99c-0.651-0.509-0.629-1.216-0.679-1.973c-0.057-2.489,0.085-4.986-0.021-7.475&#xA;			c-0.049-1.57-1.634-2.822-3.161-2.659c-1.337,0.141-2.525,1.259-2.525,2.645c-0.134,2.708,0.12,5.438-0.085,8.14&#xA;			c-0.085,1.464-1.817,2.206-2.991,1.386c-0.82-0.552-0.7-1.506-0.743-2.369c0.014-3.246,0.021-6.492,0-9.738&#xA;			c0.021-0.622-0.014-1.329,0.198-1.924C95.76,10.761,96.934,10.486,97.789,10.832z"/>
		
			<linearGradient id="SVGID_4_" gradientUnits="userSpaceOnUse" x1="39.3539" y1="5204.1963" x2="142.7252" y2="5204.6289" gradientTransform="matrix(1 0 0 1 0 -5188.5327)">
			<stop offset="0" style="stop-color:#20FC36"/>
			<stop offset="1" style="stop-color:#17FCCB"/>
		</linearGradient>
		<path class="st3" d="M53.499,17.147c-0.276-3.317-2.942-6.669-6.471-6.64c-1.832-0.078-3.196,0.792-4.54,1.909&#xA;			c0-1.86,0.163-3.769-0.064-5.622c-0.184-1.273-1.704-1.846-2.779-1.238c-0.983,0.488-0.898,1.577-0.941,2.51&#xA;			c0.021,5.085,0.021,10.169,0,15.254c0.028,0.672,0,1.492,0.431,2.044c0.651,0.799,1.938,0.877,2.708,0.212&#xA;			c0.375-0.431,0.587-1.025,0.827-1.535c1.733,1.626,3.96,2.305,6.258,1.492C52.255,24.24,53.931,20.584,53.499,17.147z&#xA;			 M48.047,22.076c-1.011,0.962-2.638,0.933-3.628-0.042c-2.263-2.058-2.03-6.831,0.813-8.267c1.103-0.509,2.327-0.12,3.097,0.778&#xA;			C50.126,16.546,50.055,20.237,48.047,22.076z"/>
		
			<linearGradient id="SVGID_5_" gradientUnits="userSpaceOnUse" x1="39.3321" y1="5209.4165" x2="142.7034" y2="5209.8491" gradientTransform="matrix(1 0 0 1 0 -5188.5327)">
			<stop offset="0" style="stop-color:#20FC36"/>
			<stop offset="1" style="stop-color:#17FCCB"/>
		</linearGradient>
		<path class="st4" d="M125.454,12.6c0.064-1.287-1.252-2.256-2.461-1.86c-0.728,0.184-1.082,0.997-1.471,1.57&#xA;			c-1.386-1.16-2.906-1.931-4.766-1.74c-3.274,0.233-5.636,3.352-6.018,6.435c-0.354,2.751,0.509,5.594,2.624,7.447&#xA;			c1.577,1.45,3.946,1.867,5.94,1.124c0.926-0.361,1.669-0.983,2.461-1.563c-0.106,1.061,0.099,2.447-0.693,3.274&#xA;			c-1.117,1.337-2.977,1.86-4.611,1.223c-1.202-0.474-1.867-1.725-2.914-2.426c-1.139-0.248-2.228,0.601-2.136,1.789&#xA;			c0.134,0.941,1.011,1.768,1.718,2.341c2.815,2.291,7.27,2.221,9.978-0.219c1.506-1.273,2.419-3.041,2.362-5.035&#xA;			C125.447,20.839,125.503,16.709,125.454,12.6z M118.997,22.621c-1.945,0.877-3.614-0.856-4.151-2.581&#xA;			c-0.658-2.178-0.028-5.459,2.355-6.322c1.322-0.389,2.51,0.311,3.211,1.414C121.953,17.366,121.564,21.291,118.997,22.621z"/>
		
			<linearGradient id="SVGID_6_" gradientUnits="userSpaceOnUse" x1="39.3446" y1="5206.4214" x2="142.7159" y2="5206.854" gradientTransform="matrix(1 0 0 1 0 -5188.5327)">
			<stop offset="0" style="stop-color:#20FC36"/>
			<stop offset="1" style="stop-color:#17FCCB"/>
		</linearGradient>
		<path class="st5" d="M137.299,10.917c-1.428-0.474-3.027-0.488-4.469-0.085c-3.288,0.976-5.523,4.208-5.417,7.616&#xA;			c-0.021,4.038,3.451,7.694,7.538,7.581c4.024,0.12,7.574-3.607,7.468-7.581C142.617,15.146,140.403,11.992,137.299,10.917z&#xA;			 M135.962,22.727c-1.923,0.75-3.6-0.644-4.257-2.383c-0.842-2.284-0.17-5.721,2.39-6.591c0.771-0.233,1.605-0.12,2.291,0.304&#xA;			C139.293,15.973,139.18,21.185,135.962,22.727z"/>
		
			<linearGradient id="SVGID_7_" gradientUnits="userSpaceOnUse" x1="39.3435" y1="5206.6768" x2="142.7148" y2="5207.1094" gradientTransform="matrix(1 0 0 1 0 -5188.5327)">
			<stop offset="0" style="stop-color:#20FC36"/>
			<stop offset="1" style="stop-color:#17FCCB"/>
		</linearGradient>
		<path class="st6" d="M76.249,10.917c-1.428-0.474-3.027-0.488-4.469-0.085c-3.288,0.976-5.523,4.208-5.417,7.616&#xA;			c-0.021,4.038,3.451,7.694,7.538,7.581c4.024,0.12,7.574-3.607,7.468-7.581C81.567,15.146,79.346,11.992,76.249,10.917z&#xA;			 M74.912,22.727c-1.924,0.75-3.6-0.644-4.257-2.383c-0.842-2.284-0.17-5.721,2.39-6.591c0.771-0.233,1.605-0.12,2.291,0.304&#xA;			C78.243,15.973,78.13,21.185,74.912,22.727z"/>
	</g>
	<g>
		
			<linearGradient id="SVGID_8_" gradientUnits="userSpaceOnUse" x1="2.8562" y1="5191.6558" x2="24.9145" y2="5219.1206" gradientTransform="matrix(1 0 0 1 0 -5188.5327)">
			<stop offset="0" style="stop-color:#09FC1D"/>
			<stop offset="1" style="stop-color:#17FCCB"/>
		</linearGradient>
		<path class="st7" d="M19.753,0.939c4.363,1.549,8.012,5.049,9.9,9.264c1.959,4.483,1.839,10.12-0.396,14.49&#xA;			c-2.185,4.137-6.131,7.56-10.685,8.769c-2.037,0.559-4.137,0.601-6.237,0.488c-4.109-0.255-8.097-2.291-10.841-5.339&#xA;			c-0.983-1.188-0.113-2.85,1.428-2.758c0.842,0.339,1.52,1.167,2.213,1.74c2.419,2.164,5.58,3.203,8.804,3.203&#xA;			c5.664,0.12,10.869-3.628,12.934-8.825c1.174-3.076,1.181-6.591,0.078-9.681c-1.817-4.929-6.704-8.825-12.036-8.988&#xA;			c-2.914-0.177-5.82,0.396-8.295,2.001C5.405,6.03,4.507,7.084,3.403,7.94C2.47,8.654,1.112,7.855,1.013,6.752&#xA;			C0.907,5.953,1.466,5.394,1.968,4.864c2.574-2.475,5.813-4.215,9.377-4.689C14.124-0.186,17.094-0.016,19.753,0.939z"/>
		
			<linearGradient id="SVGID_9_" gradientUnits="userSpaceOnUse" x1="1.5744" y1="5192.6851" x2="23.6328" y2="5220.1499" gradientTransform="matrix(1 0 0 1 0 -5188.5327)">
			<stop offset="0" style="stop-color:#09FC1D"/>
			<stop offset="1" style="stop-color:#17FCCB"/>
		</linearGradient>
		<path class="st8" d="M12.307,8.06c0.198,1.853,0.042,3.748,0.057,5.615c2.32-0.764,4.66-0.87,6.711,0.629&#xA;			c2.723,1.909,3.543,5.58,2.206,8.564c-1.124,2.277-3.444,3.904-6.025,3.889c-1.641,0-3.345,0.092-4.971-0.149&#xA;			c-1.351-0.396-1.535-2.383-0.191-2.921c1.938-0.495,4.109-0.042,6.075-0.467c0.941-0.276,1.697-1.223,2.03-2.114&#xA;			c0.658-1.888-0.339-4.066-2.249-4.696c-1.782-0.403-3.769,0.028-5.58-0.219c-0.672-0.134-1.082-0.707-1.146-1.365&#xA;			c-0.141-1.379-0.042-2.786-0.071-4.165c0.021-0.983-0.085-2.051,0.163-3.005C9.74,6.313,12.229,6.54,12.307,8.06z"/>
		
			<linearGradient id="SVGID_10_" gradientUnits="userSpaceOnUse" x1="0.124" y1="5193.8501" x2="22.1823" y2="5221.3145" gradientTransform="matrix(1 0 0 1 0 -5188.5327)">
			<stop offset="0" style="stop-color:#09FC1D"/>
			<stop offset="1" style="stop-color:#17FCCB"/>
		</linearGradient>
		<path class="st9" d="M10.829,18.576c1.068-0.757,2.567-0.12,2.701,1.188c0.134,1.287-1.365,2.298-2.496,1.619&#xA;			C9.98,20.796,9.867,19.304,10.829,18.576z"/>
	</g>
</g>
</svg>