<?xml version="1.0" encoding="utf-8"?>
<svg xmlns="http://www.w3.org/2000/svg" xmlns:xlink="http://www.w3.org/1999/xlink" version="1.1" id="Layer_1" x="0px" y="0px" viewBox="0 0 118.77 34" style="enable-background:new 0 0 118.77 34;">
<style type="text/css">
	.st0{fill-rule:evenodd;clip-rule:evenodd;fill:#FFFFFF;}
	.st1{opacity:0.8;}
	.st2{fill:#FFFFFF;filter:url(#Adobe_OpacityMaskFilter);}
	.st3{fill-rule:evenodd;clip-rule:evenodd;}
	.st4{mask:url(#h_2_);fill:none;stroke:#FFFFFF;stroke-width:0.6;}
	.st5{fill-rule:evenodd;clip-rule:evenodd;fill:url(#SVGID_1_);}
	.st6{fill:#FFFFFF;filter:url(#Adobe_OpacityMaskFilter_1_);}
	.st7{mask:url(#i_2_);}
	.st8{fill-rule:evenodd;clip-rule:evenodd;fill:url(#SVGID_2_);}
	.st9{fill:#FFFFFF;filter:url(#Adobe_OpacityMaskFilter_2_);}
	.st10{mask:url(#j_2_);}
	.st11{fill:url(#SVGID_3_);}
	.st12{fill:#FFFFFF;filter:url(#Adobe_OpacityMaskFilter_3_);}
	.st13{mask:url(#k_2_);}
	.st14{fill-rule:evenodd;clip-rule:evenodd;fill:url(#SVGID_4_);}
	.st15{fill:#FFFFFF;filter:url(#Adobe_OpacityMaskFilter_4_);}
	.st16{mask:url(#l_2_);}
	.st17{fill:url(#SVGID_5_);}
</style>
<g>
	<path class="st0" d="M39.172,12.367c0-2.729,0.839-4.955,2.516-6.679c1.678-1.724,3.831-2.586,6.462-2.586&#xA;		c2.242,0,4.148,0.619,5.716,1.858c1.568,1.239,2.538,2.913,2.908,5.022h-3.262c-0.304-1.239-0.932-2.21-1.884-2.913&#xA;		c-0.953-0.703-2.112-1.055-3.477-1.055c-1.787,0-3.191,0.573-4.211,1.72c-1.02,1.147-1.53,2.691-1.53,4.633s0.51,3.49,1.53,4.645&#xA;		c1.02,1.155,2.424,1.733,4.211,1.733c1.366,0,2.525-0.352,3.477-1.055c0.953-0.703,1.581-1.674,1.884-2.913h3.262&#xA;		c-0.371,2.109-1.34,3.783-2.908,5.022c-1.568,1.239-3.473,1.858-5.716,1.858c-2.63,0-4.784-0.862-6.462-2.586&#xA;		C40.01,17.347,39.172,15.112,39.172,12.367z M67.754,15.179l-3.49,0.527c-1.635,0.251-2.453,0.87-2.453,1.858&#xA;		c0,1.138,0.776,1.707,2.327,1.707c1.163,0,2.057-0.31,2.681-0.929c0.624-0.619,0.936-1.398,0.936-2.335L67.754,15.179z&#xA;		 M63.53,21.607c-1.551,0-2.706-0.36-3.465-1.08c-0.759-0.72-1.138-1.674-1.138-2.862c0-2.277,1.678-3.649,5.033-4.118l3.794-0.527&#xA;		v-0.201c0-1.59-0.936-2.385-2.807-2.385c-1.635,0-2.563,0.644-2.782,1.933h-2.934c0.135-1.272,0.67-2.323,1.606-3.151&#xA;		c0.936-0.829,2.331-1.243,4.186-1.243c1.872,0,3.284,0.427,4.236,1.281c0.953,0.854,1.429,2.051,1.429,3.591v6.001&#xA;		c0,1.055,0.126,1.875,0.379,2.461h-2.858c-0.017,0-0.038-0.063-0.063-0.188c-0.025-0.126-0.051-0.331-0.076-0.615&#xA;		c-0.025-0.285-0.038-0.586-0.038-0.904C67.138,20.937,65.638,21.607,63.53,21.607L63.53,21.607z M77.369,21.305h-3.01V2.474h3.01&#xA;		V21.305z M93.205,15.656h-9.99c0.118,1.038,0.498,1.862,1.139,2.473c0.641,0.611,1.484,0.917,2.529,0.917&#xA;		c0.691,0,1.315-0.167,1.871-0.502c0.556-0.335,0.953-0.787,1.189-1.356h3.035c-0.405,1.322-1.16,2.39-2.263,3.201&#xA;		c-1.105,0.812-2.407,1.218-3.907,1.218c-1.956,0-3.537-0.644-4.742-1.933c-1.205-1.289-1.809-2.921-1.809-4.896&#xA;		c0-1.925,0.607-3.54,1.821-4.846c1.214-1.306,2.782-1.958,4.704-1.958c1.922,0,3.478,0.64,4.666,1.921&#xA;		c1.189,1.281,1.783,2.892,1.783,4.833L93.205,15.656z M86.781,10.408c-0.944,0-1.728,0.276-2.352,0.829&#xA;		c-0.623,0.552-1.011,1.289-1.163,2.21h6.981c-0.135-0.921-0.506-1.657-1.113-2.21C88.526,10.684,87.742,10.408,86.781,10.408z&#xA;		 M101.984,18.644v2.586c-0.371,0.1-0.893,0.151-1.568,0.151c-2.563,0-3.844-1.28-3.844-3.842v-6.88h-1.998V8.274h1.998v-3.39h3.009&#xA;		v3.39h2.454v2.385h-2.454v6.579c0,1.021,0.49,1.532,1.467,1.532L101.984,18.644z M112.636,15.179l-3.49,0.527&#xA;		c-1.636,0.251-2.454,0.87-2.454,1.858c0,1.138,0.776,1.707,2.327,1.707c1.164,0,2.057-0.31,2.681-0.929&#xA;		c0.624-0.619,0.936-1.398,0.936-2.335L112.636,15.179z M108.412,21.607c-1.551,0-2.706-0.36-3.464-1.08s-1.139-1.674-1.139-2.862&#xA;		c0-2.277,1.678-3.649,5.033-4.118l3.794-0.527v-0.201c0-1.59-0.936-2.385-2.807-2.385c-1.636,0-2.563,0.644-2.782,1.933h-2.934&#xA;		c0.135-1.272,0.67-2.323,1.606-3.151c0.935-0.829,2.33-1.243,4.186-1.243c1.871,0,3.283,0.427,4.236,1.281&#xA;		c0.953,0.854,1.429,2.051,1.429,3.591v6.001c0,1.055,0.126,1.875,0.379,2.461h-2.858c-0.017,0-0.038-0.063-0.063-0.188&#xA;		c-0.026-0.126-0.05-0.331-0.076-0.615c-0.025-0.285-0.038-0.586-0.038-0.904C112.02,20.937,110.52,21.607,108.412,21.607&#xA;		L108.412,21.607z"/>
	<g class="st1">
		<path class="st0" d="M42.427,26.829l1.896,2.424l1.903-2.424h0.487v5.2h-0.538v-4.292l-1.837,2.314h-0.029l-1.829-2.314v4.292&#xA;			H41.94v-5.2H42.427z M50.728,30.118l-1.247,0.168c-0.344,0.044-0.591,0.126-0.741,0.245c-0.15,0.12-0.225,0.277-0.225,0.472&#xA;			c0,0.244,0.084,0.419,0.251,0.524s0.374,0.157,0.62,0.157c0.418,0,0.746-0.116,0.985-0.348c0.239-0.232,0.358-0.494,0.358-0.787&#xA;			V30.118z M49.327,32.117c-0.438,0-0.768-0.099-0.992-0.297c-0.224-0.198-0.336-0.47-0.336-0.817c0-0.63,0.472-1.006,1.416-1.128&#xA;			l1.313-0.168v-0.102c0-0.63-0.354-0.945-1.062-0.945c-0.6,0-0.949,0.247-1.047,0.74h-0.524c0.054-0.361,0.21-0.649,0.468-0.864&#xA;			c0.258-0.215,0.633-0.322,1.125-0.322c0.521,0,0.912,0.126,1.173,0.377c0.261,0.251,0.391,0.592,0.391,1.022v1.633&#xA;			c0,0.366,0.037,0.627,0.111,0.784h-0.516c-0.054-0.146-0.081-0.359-0.081-0.637C50.48,31.875,50,32.117,49.327,32.117z&#xA;			 M55.26,28.301h0.701l-1.556,1.538l1.674,2.19H55.43l-1.394-1.838l-0.848,0.82v1.018h-0.524v-5.493h0.524v3.837L55.26,28.301z&#xA;			 M57.167,27.379c-0.113,0-0.204-0.033-0.273-0.099c-0.069-0.066-0.103-0.153-0.103-0.26s0.034-0.196,0.103-0.267&#xA;			c0.069-0.071,0.16-0.106,0.273-0.106c0.108,0,0.198,0.035,0.269,0.106c0.071,0.071,0.107,0.16,0.107,0.267&#xA;			s-0.036,0.194-0.107,0.26C57.365,27.346,57.275,27.379,57.167,27.379z M56.901,32.029v-3.728h0.524v3.728H56.901z M59.375,28.301&#xA;			v0.571c0.089-0.166,0.236-0.317,0.443-0.454c0.207-0.137,0.472-0.205,0.797-0.205c0.452,0,0.803,0.132,1.051,0.395&#xA;			c0.248,0.264,0.373,0.61,0.373,1.04v2.38h-0.524v-2.278c0-0.347-0.082-0.614-0.247-0.802c-0.165-0.188-0.412-0.282-0.741-0.282&#xA;			c-0.329,0-0.6,0.1-0.811,0.3c-0.211,0.2-0.317,0.481-0.317,0.842v2.219h-0.524v-3.728H59.375z M66.349,28.982v-0.681h0.502v3.544&#xA;			c0,0.527-0.151,0.957-0.454,1.289c-0.302,0.332-0.736,0.498-1.302,0.498c-0.492,0-0.881-0.117-1.169-0.352&#xA;			c-0.288-0.234-0.468-0.513-0.542-0.835h0.538c0.074,0.22,0.215,0.394,0.424,0.524c0.209,0.129,0.463,0.194,0.763,0.194&#xA;			c0.379,0,0.676-0.111,0.893-0.333c0.216-0.222,0.325-0.511,0.325-0.868v-0.696c-0.29,0.503-0.755,0.754-1.394,0.754&#xA;			c-0.541,0-0.971-0.186-1.291-0.557s-0.479-0.82-0.479-1.347c0-0.527,0.16-0.976,0.479-1.347c0.32-0.371,0.75-0.557,1.291-0.557&#xA;			C65.587,28.214,66.059,28.47,66.349,28.982z M65.988,31.15c0.241-0.273,0.361-0.618,0.361-1.033c0-0.415-0.119-0.758-0.358-1.029&#xA;			c-0.238-0.271-0.559-0.406-0.963-0.406c-0.403,0-0.727,0.137-0.97,0.41c-0.243,0.273-0.365,0.615-0.365,1.025&#xA;			c0,0.41,0.122,0.753,0.365,1.029c0.243,0.276,0.567,0.414,0.97,0.414C65.432,31.56,65.752,31.424,65.988,31.15z M70.862,28.975&#xA;			c0.285-0.508,0.752-0.762,1.401-0.762c0.556,0,0.991,0.189,1.306,0.568c0.315,0.378,0.472,0.841,0.472,1.388&#xA;			c0,0.542-0.157,1.002-0.472,1.38c-0.315,0.378-0.75,0.568-1.306,0.568c-0.659,0-1.133-0.259-1.424-0.776v0.688h-0.502v-5.493&#xA;			h0.524L70.862,28.975z M70.848,30.169c0,0.42,0.118,0.771,0.354,1.055c0.236,0.283,0.558,0.425,0.966,0.425&#xA;			s0.734-0.142,0.977-0.425c0.243-0.283,0.365-0.635,0.365-1.055c0-0.425-0.122-0.779-0.365-1.062&#xA;			c-0.243-0.283-0.569-0.425-0.977-0.425s-0.73,0.14-0.966,0.421C70.966,29.384,70.848,29.739,70.848,30.169z M78.567,30.315h-3.12&#xA;			c0.025,0.391,0.157,0.71,0.398,0.959c0.241,0.249,0.553,0.374,0.937,0.374c0.28,0,0.526-0.072,0.738-0.216&#xA;			s0.359-0.333,0.443-0.568h0.545c-0.113,0.371-0.322,0.673-0.626,0.904c-0.305,0.232-0.674,0.348-1.107,0.348&#xA;			c-0.57,0-1.021-0.189-1.353-0.568c-0.332-0.378-0.498-0.841-0.498-1.388c0-0.537,0.171-0.996,0.513-1.377s0.786-0.571,1.331-0.571&#xA;			c0.546,0,0.984,0.182,1.313,0.546c0.33,0.364,0.495,0.817,0.495,1.359L78.567,30.315z M76.766,28.682&#xA;			c-0.353,0-0.649,0.113-0.885,0.341s-0.376,0.516-0.42,0.868h2.589c-0.035-0.366-0.165-0.659-0.395-0.879&#xA;			C77.427,28.792,77.13,28.682,76.766,28.682z M81.262,31.538v0.469c-0.088,0.024-0.221,0.037-0.398,0.037&#xA;			c-0.649,0-0.974-0.339-0.974-1.018v-2.285h-0.716v-0.439h0.716V27.24h0.523v1.062h0.863v0.439h-0.863v2.248&#xA;			c0,0.391,0.172,0.586,0.517,0.586L81.262,31.538z M83.721,31.538v0.469c-0.089,0.024-0.221,0.037-0.399,0.037&#xA;			c-0.649,0-0.973-0.339-0.973-1.018v-2.285h-0.716v-0.439h0.716V27.24h0.523v1.062h0.863v0.439h-0.863v2.248&#xA;			c0,0.391,0.172,0.586,0.517,0.586L83.721,31.538z M88.018,30.315h-3.12c0.025,0.391,0.157,0.71,0.399,0.959&#xA;			c0.241,0.249,0.553,0.374,0.936,0.374c0.28,0,0.526-0.072,0.738-0.216c0.212-0.144,0.359-0.333,0.443-0.568h0.546&#xA;			c-0.114,0.371-0.323,0.673-0.627,0.904c-0.305,0.232-0.674,0.348-1.106,0.348c-0.571,0-1.022-0.189-1.354-0.568&#xA;			c-0.332-0.378-0.499-0.841-0.499-1.388c0-0.537,0.171-0.996,0.513-1.377c0.342-0.381,0.786-0.571,1.332-0.571&#xA;			c0.546,0,0.984,0.182,1.313,0.546c0.329,0.364,0.494,0.817,0.494,1.359L88.018,30.315z M86.218,28.682&#xA;			c-0.354,0-0.649,0.113-0.885,0.341c-0.236,0.227-0.377,0.516-0.42,0.868h2.589c-0.035-0.366-0.166-0.659-0.395-0.879&#xA;			C86.878,28.792,86.582,28.682,86.218,28.682z M91.016,28.272v0.491c-0.059-0.005-0.12-0.007-0.184-0.007&#xA;			c-0.335,0-0.605,0.099-0.811,0.297c-0.207,0.198-0.31,0.485-0.31,0.86v2.116h-0.524v-3.728h0.502v0.579&#xA;			c0.089-0.161,0.234-0.304,0.435-0.428c0.202-0.124,0.457-0.187,0.767-0.187L91.016,28.272z M96.916,28.982v-0.681h0.502v3.544&#xA;			c0,0.527-0.151,0.957-0.453,1.289c-0.303,0.332-0.737,0.498-1.302,0.498c-0.492,0-0.881-0.117-1.169-0.352&#xA;			c-0.288-0.234-0.468-0.513-0.542-0.835h0.538c0.074,0.22,0.215,0.394,0.424,0.524c0.209,0.129,0.463,0.194,0.763,0.194&#xA;			c0.378,0,0.676-0.111,0.893-0.333c0.217-0.222,0.324-0.511,0.324-0.868v-0.696c-0.29,0.503-0.754,0.754-1.393,0.754&#xA;			c-0.541,0-0.972-0.186-1.291-0.557s-0.48-0.82-0.48-1.347c0-0.527,0.16-0.976,0.48-1.347c0.32-0.371,0.75-0.557,1.291-0.557&#xA;			C96.153,28.214,96.626,28.47,96.916,28.982z M96.554,31.15c0.241-0.273,0.362-0.618,0.362-1.033c0-0.415-0.12-0.758-0.358-1.029&#xA;			c-0.238-0.271-0.559-0.406-0.963-0.406s-0.726,0.137-0.97,0.41c-0.244,0.273-0.365,0.615-0.365,1.025&#xA;			c0,0.41,0.121,0.753,0.365,1.029c0.244,0.276,0.567,0.414,0.97,0.414C95.998,31.56,96.318,31.424,96.554,31.15z M101.301,30.118&#xA;			l-1.247,0.168c-0.344,0.044-0.591,0.126-0.741,0.245c-0.15,0.12-0.225,0.277-0.225,0.472c0,0.244,0.083,0.419,0.251,0.524&#xA;			c0.167,0.105,0.374,0.157,0.619,0.157c0.418,0,0.747-0.116,0.985-0.348c0.238-0.232,0.358-0.494,0.358-0.787V30.118z&#xA;			 M99.899,32.117c-0.438,0-0.769-0.099-0.992-0.297c-0.224-0.198-0.336-0.47-0.336-0.817c0-0.63,0.472-1.006,1.417-1.128&#xA;			l1.313-0.168v-0.102c0-0.63-0.354-0.945-1.063-0.945c-0.6,0-0.949,0.247-1.048,0.74h-0.523c0.054-0.361,0.21-0.649,0.468-0.864&#xA;			c0.258-0.215,0.633-0.322,1.125-0.322c0.521,0,0.912,0.126,1.172,0.377c0.261,0.251,0.391,0.592,0.391,1.022v1.633&#xA;			c0,0.366,0.037,0.627,0.111,0.784h-0.516c-0.054-0.146-0.081-0.359-0.081-0.637C101.053,31.875,100.573,32.117,99.899,32.117&#xA;			L99.899,32.117z M106.305,29.854v2.175h-0.524v-2.278c0-0.337-0.077-0.602-0.232-0.795c-0.155-0.193-0.392-0.289-0.711-0.289&#xA;			c-0.315,0-0.573,0.103-0.775,0.308c-0.202,0.205-0.303,0.483-0.303,0.835v2.219h-0.523v-3.728h0.502v0.571&#xA;			c0.241-0.439,0.637-0.659,1.187-0.659c0.596,0,1.003,0.239,1.225,0.718c0.118-0.2,0.29-0.37,0.516-0.509&#xA;			c0.226-0.139,0.494-0.209,0.804-0.209c0.438,0,0.776,0.136,1.014,0.406c0.238,0.271,0.358,0.614,0.358,1.029v2.38h-0.524v-2.278&#xA;			c0-0.332-0.077-0.596-0.232-0.791s-0.39-0.293-0.704-0.293c-0.31,0-0.567,0.103-0.771,0.308&#xA;			C106.407,29.18,106.305,29.473,106.305,29.854L106.305,29.854z M113.618,30.315h-3.121c0.025,0.391,0.158,0.71,0.399,0.959&#xA;			c0.241,0.249,0.553,0.374,0.937,0.374c0.28,0,0.526-0.072,0.738-0.216c0.211-0.144,0.359-0.333,0.442-0.568h0.546&#xA;			c-0.113,0.371-0.322,0.673-0.627,0.904c-0.305,0.232-0.673,0.348-1.106,0.348c-0.571,0-1.022-0.189-1.354-0.568&#xA;			c-0.332-0.378-0.498-0.841-0.498-1.388c0-0.537,0.171-0.996,0.513-1.377c0.341-0.381,0.785-0.571,1.331-0.571&#xA;			c0.546,0,0.984,0.182,1.313,0.546c0.329,0.364,0.494,0.817,0.494,1.359L113.618,30.315z M111.818,28.682&#xA;			c-0.354,0-0.649,0.113-0.885,0.34c-0.236,0.227-0.376,0.516-0.42,0.868h2.589c-0.035-0.366-0.166-0.659-0.395-0.879&#xA;			C112.478,28.792,112.182,28.682,111.818,28.682L111.818,28.682z M115.989,32.117c-0.507,0-0.884-0.118-1.132-0.355&#xA;			c-0.248-0.237-0.385-0.536-0.409-0.897h0.531c0.02,0.249,0.114,0.444,0.284,0.586c0.17,0.142,0.412,0.212,0.727,0.212&#xA;			c0.31,0,0.552-0.057,0.726-0.172c0.174-0.115,0.262-0.267,0.262-0.458c0-0.195-0.08-0.34-0.24-0.436&#xA;			c-0.159-0.095-0.353-0.16-0.579-0.194c-0.226-0.034-0.453-0.076-0.682-0.125c-0.229-0.049-0.423-0.151-0.583-0.308&#xA;			c-0.16-0.156-0.24-0.376-0.24-0.659c0-0.303,0.126-0.561,0.376-0.776c0.251-0.215,0.59-0.322,1.018-0.322&#xA;			c0.472,0,0.821,0.12,1.048,0.359c0.226,0.239,0.354,0.513,0.384,0.82h-0.523c-0.025-0.215-0.114-0.389-0.266-0.524&#xA;			c-0.152-0.134-0.371-0.201-0.656-0.201c-0.28,0-0.495,0.059-0.645,0.176c-0.15,0.117-0.225,0.266-0.225,0.447&#xA;			c0,0.161,0.058,0.288,0.174,0.381c0.115,0.093,0.259,0.153,0.431,0.179c0.172,0.027,0.358,0.062,0.557,0.106&#xA;			c0.199,0.044,0.385,0.093,0.557,0.146c0.171,0.054,0.316,0.159,0.431,0.315c0.116,0.156,0.174,0.356,0.174,0.601&#xA;			c0,0.303-0.129,0.561-0.387,0.776C116.841,32.009,116.47,32.117,115.989,32.117z"/>
		<defs>
			<filter id="Adobe_OpacityMaskFilter" filterUnits="userSpaceOnUse" x="41.64" y="26.236" width="76.169" height="7.696">
				<feColorMatrix type="matrix" values="1 0 0 0 0  0 1 0 0 0  0 0 1 0 0  0 0 0 1 0"/>
			</filter>
		</defs>
		<mask maskUnits="userSpaceOnUse" x="41.64" y="26.236" width="76.169" height="7.696" id="h_2_">
			<path class="st2" d="M41.188,25.784h76.703v8.272H41.188L41.188,25.784z"/>
			<path class="st3" d="M42.427,26.829l1.896,2.424l1.903-2.424h0.487v5.2h-0.538v-4.292l-1.837,2.314h-0.029l-1.829-2.314v4.292&#xA;				H41.94v-5.2H42.427z M50.728,30.118l-1.247,0.168c-0.344,0.044-0.591,0.126-0.741,0.245c-0.15,0.12-0.225,0.277-0.225,0.472&#xA;				c0,0.244,0.084,0.419,0.251,0.524s0.374,0.157,0.62,0.157c0.418,0,0.746-0.116,0.985-0.348c0.239-0.232,0.358-0.494,0.358-0.787&#xA;				V30.118z M49.327,32.117c-0.438,0-0.768-0.099-0.992-0.297c-0.224-0.198-0.336-0.47-0.336-0.817c0-0.63,0.472-1.006,1.416-1.128&#xA;				l1.313-0.168v-0.102c0-0.63-0.354-0.945-1.062-0.945c-0.6,0-0.949,0.247-1.047,0.74h-0.524c0.054-0.361,0.21-0.649,0.468-0.864&#xA;				c0.258-0.215,0.633-0.322,1.125-0.322c0.521,0,0.912,0.126,1.173,0.377c0.261,0.251,0.391,0.592,0.391,1.022v1.633&#xA;				c0,0.366,0.037,0.627,0.111,0.784h-0.516c-0.054-0.146-0.081-0.359-0.081-0.637C50.48,31.875,50,32.117,49.327,32.117z&#xA;				 M55.26,28.301h0.701l-1.556,1.538l1.674,2.19H55.43l-1.394-1.838l-0.848,0.82v1.018h-0.524v-5.493h0.524v3.837L55.26,28.301z&#xA;				 M57.167,27.379c-0.113,0-0.204-0.033-0.273-0.099c-0.069-0.066-0.103-0.153-0.103-0.26s0.034-0.196,0.103-0.267&#xA;				c0.069-0.071,0.16-0.106,0.273-0.106c0.108,0,0.198,0.035,0.269,0.106c0.071,0.071,0.107,0.16,0.107,0.267&#xA;				s-0.036,0.194-0.107,0.26C57.365,27.346,57.275,27.379,57.167,27.379z M56.901,32.029v-3.728h0.524v3.728H56.901z M59.375,28.301&#xA;				v0.571c0.089-0.166,0.236-0.317,0.443-0.454c0.207-0.137,0.472-0.205,0.797-0.205c0.452,0,0.803,0.132,1.051,0.395&#xA;				c0.248,0.264,0.373,0.61,0.373,1.04v2.38h-0.524v-2.278c0-0.347-0.082-0.614-0.247-0.802c-0.165-0.188-0.412-0.282-0.741-0.282&#xA;				c-0.329,0-0.6,0.1-0.811,0.3c-0.211,0.2-0.317,0.481-0.317,0.842v2.219h-0.524v-3.728H59.375z M66.349,28.982v-0.681h0.502v3.544&#xA;				c0,0.527-0.151,0.957-0.454,1.289c-0.302,0.332-0.736,0.498-1.302,0.498c-0.492,0-0.881-0.117-1.169-0.352&#xA;				c-0.288-0.234-0.468-0.513-0.542-0.835h0.538c0.074,0.22,0.215,0.394,0.424,0.524c0.209,0.129,0.463,0.194,0.763,0.194&#xA;				c0.379,0,0.676-0.111,0.893-0.333c0.216-0.222,0.325-0.511,0.325-0.868v-0.696c-0.29,0.503-0.755,0.754-1.394,0.754&#xA;				c-0.541,0-0.971-0.186-1.291-0.557s-0.479-0.82-0.479-1.347c0-0.527,0.16-0.976,0.479-1.347c0.32-0.371,0.75-0.557,1.291-0.557&#xA;				C65.587,28.214,66.059,28.47,66.349,28.982z M65.988,31.15c0.241-0.273,0.361-0.618,0.361-1.033c0-0.415-0.119-0.758-0.358-1.029&#xA;				c-0.238-0.271-0.559-0.406-0.963-0.406c-0.403,0-0.727,0.137-0.97,0.41c-0.243,0.273-0.365,0.615-0.365,1.025&#xA;				c0,0.41,0.122,0.753,0.365,1.029c0.243,0.276,0.567,0.414,0.97,0.414C65.432,31.56,65.752,31.424,65.988,31.15z M70.862,28.975&#xA;				c0.285-0.508,0.752-0.762,1.401-0.762c0.556,0,0.991,0.189,1.306,0.568c0.315,0.378,0.472,0.841,0.472,1.388&#xA;				c0,0.542-0.157,1.002-0.472,1.38c-0.315,0.378-0.75,0.568-1.306,0.568c-0.659,0-1.133-0.259-1.424-0.776v0.688h-0.502v-5.493&#xA;				h0.524L70.862,28.975z M70.848,30.169c0,0.42,0.118,0.771,0.354,1.055c0.236,0.283,0.558,0.425,0.966,0.425&#xA;				s0.734-0.142,0.977-0.425c0.243-0.283,0.365-0.635,0.365-1.055c0-0.425-0.122-0.779-0.365-1.062&#xA;				c-0.243-0.283-0.569-0.425-0.977-0.425s-0.73,0.14-0.966,0.421C70.966,29.384,70.848,29.739,70.848,30.169z M78.567,30.315h-3.12&#xA;				c0.025,0.391,0.157,0.71,0.398,0.959c0.241,0.249,0.553,0.374,0.937,0.374c0.28,0,0.526-0.072,0.738-0.216&#xA;				s0.359-0.333,0.443-0.568h0.545c-0.113,0.371-0.322,0.673-0.626,0.904c-0.305,0.232-0.674,0.348-1.107,0.348&#xA;				c-0.57,0-1.021-0.189-1.353-0.568c-0.332-0.378-0.498-0.841-0.498-1.388c0-0.537,0.171-0.996,0.513-1.377&#xA;				s0.786-0.571,1.331-0.571c0.546,0,0.984,0.182,1.313,0.546c0.33,0.364,0.495,0.817,0.495,1.359L78.567,30.315z M76.766,28.682&#xA;				c-0.353,0-0.649,0.113-0.885,0.341s-0.376,0.516-0.42,0.868h2.589c-0.035-0.366-0.165-0.659-0.395-0.879&#xA;				C77.427,28.792,77.13,28.682,76.766,28.682z M81.262,31.538v0.469c-0.088,0.024-0.221,0.037-0.398,0.037&#xA;				c-0.649,0-0.974-0.339-0.974-1.018v-2.285h-0.716v-0.439h0.716V27.24h0.523v1.062h0.863v0.439h-0.863v2.248&#xA;				c0,0.391,0.172,0.586,0.517,0.586L81.262,31.538z M83.721,31.538v0.469c-0.089,0.024-0.221,0.037-0.399,0.037&#xA;				c-0.649,0-0.973-0.339-0.973-1.018v-2.285h-0.716v-0.439h0.716V27.24h0.523v1.062h0.863v0.439h-0.863v2.248&#xA;				c0,0.391,0.172,0.586,0.517,0.586L83.721,31.538z M88.018,30.315h-3.12c0.025,0.391,0.157,0.71,0.399,0.959&#xA;				c0.241,0.249,0.553,0.374,0.936,0.374c0.28,0,0.526-0.072,0.738-0.216c0.212-0.144,0.359-0.333,0.443-0.568h0.546&#xA;				c-0.114,0.371-0.323,0.673-0.627,0.904c-0.305,0.232-0.674,0.348-1.106,0.348c-0.571,0-1.022-0.189-1.354-0.568&#xA;				c-0.332-0.378-0.499-0.841-0.499-1.388c0-0.537,0.171-0.996,0.513-1.377c0.342-0.381,0.786-0.571,1.332-0.571&#xA;				c0.546,0,0.984,0.182,1.313,0.546c0.329,0.364,0.494,0.817,0.494,1.359L88.018,30.315z M86.218,28.682&#xA;				c-0.354,0-0.649,0.113-0.885,0.341c-0.236,0.227-0.377,0.516-0.42,0.868h2.589c-0.035-0.366-0.166-0.659-0.395-0.879&#xA;				C86.878,28.792,86.582,28.682,86.218,28.682z M91.016,28.272v0.491c-0.059-0.005-0.12-0.007-0.184-0.007&#xA;				c-0.335,0-0.605,0.099-0.811,0.297c-0.207,0.198-0.31,0.485-0.31,0.86v2.116h-0.524v-3.728h0.502v0.579&#xA;				c0.089-0.161,0.234-0.304,0.435-0.428c0.202-0.124,0.457-0.187,0.767-0.187L91.016,28.272z M96.916,28.982v-0.681h0.502v3.544&#xA;				c0,0.527-0.151,0.957-0.453,1.289c-0.303,0.332-0.737,0.498-1.302,0.498c-0.492,0-0.881-0.117-1.169-0.352&#xA;				c-0.288-0.234-0.468-0.513-0.542-0.835h0.538c0.074,0.22,0.215,0.394,0.424,0.524c0.209,0.129,0.463,0.194,0.763,0.194&#xA;				c0.378,0,0.676-0.111,0.893-0.333c0.217-0.222,0.324-0.511,0.324-0.868v-0.696c-0.29,0.503-0.754,0.754-1.393,0.754&#xA;				c-0.541,0-0.972-0.186-1.291-0.557s-0.48-0.82-0.48-1.347c0-0.527,0.16-0.976,0.48-1.347c0.32-0.371,0.75-0.557,1.291-0.557&#xA;				C96.153,28.214,96.626,28.47,96.916,28.982z M96.554,31.15c0.241-0.273,0.362-0.618,0.362-1.033c0-0.415-0.12-0.758-0.358-1.029&#xA;				c-0.238-0.271-0.559-0.406-0.963-0.406s-0.726,0.137-0.97,0.41c-0.244,0.273-0.365,0.615-0.365,1.025&#xA;				c0,0.41,0.121,0.753,0.365,1.029c0.244,0.276,0.567,0.414,0.97,0.414C95.998,31.56,96.318,31.424,96.554,31.15z M101.301,30.118&#xA;				l-1.247,0.168c-0.344,0.044-0.591,0.126-0.741,0.245c-0.15,0.12-0.225,0.277-0.225,0.472c0,0.244,0.083,0.419,0.251,0.524&#xA;				c0.167,0.105,0.374,0.157,0.619,0.157c0.418,0,0.747-0.116,0.985-0.348c0.238-0.232,0.358-0.494,0.358-0.787V30.118z&#xA;				 M99.899,32.117c-0.438,0-0.769-0.099-0.992-0.297c-0.224-0.198-0.336-0.47-0.336-0.817c0-0.63,0.472-1.006,1.417-1.128&#xA;				l1.313-0.168v-0.102c0-0.63-0.354-0.945-1.063-0.945c-0.6,0-0.949,0.247-1.048,0.74h-0.523c0.054-0.361,0.21-0.649,0.468-0.864&#xA;				c0.258-0.215,0.633-0.322,1.125-0.322c0.521,0,0.912,0.126,1.172,0.377c0.261,0.251,0.391,0.592,0.391,1.022v1.633&#xA;				c0,0.366,0.037,0.627,0.111,0.784h-0.516c-0.054-0.146-0.081-0.359-0.081-0.637C101.053,31.875,100.573,32.117,99.899,32.117&#xA;				L99.899,32.117z M106.305,29.854v2.175h-0.524v-2.278c0-0.337-0.077-0.602-0.232-0.795c-0.155-0.193-0.392-0.289-0.711-0.289&#xA;				c-0.315,0-0.573,0.103-0.775,0.308c-0.202,0.205-0.303,0.483-0.303,0.835v2.219h-0.523v-3.728h0.502v0.571&#xA;				c0.241-0.439,0.637-0.659,1.187-0.659c0.596,0,1.003,0.239,1.225,0.718c0.118-0.2,0.29-0.37,0.516-0.509&#xA;				c0.226-0.139,0.494-0.209,0.804-0.209c0.438,0,0.776,0.136,1.014,0.406c0.238,0.271,0.358,0.614,0.358,1.029v2.38h-0.524v-2.278&#xA;				c0-0.332-0.077-0.596-0.232-0.791s-0.39-0.293-0.704-0.293c-0.31,0-0.567,0.103-0.771,0.308&#xA;				C106.407,29.18,106.305,29.473,106.305,29.854L106.305,29.854z M113.618,30.315h-3.121c0.025,0.391,0.158,0.71,0.399,0.959&#xA;				c0.241,0.249,0.553,0.374,0.937,0.374c0.28,0,0.526-0.072,0.738-0.216c0.211-0.144,0.359-0.333,0.442-0.568h0.546&#xA;				c-0.113,0.371-0.322,0.673-0.627,0.904c-0.305,0.232-0.673,0.348-1.106,0.348c-0.571,0-1.022-0.189-1.354-0.568&#xA;				c-0.332-0.378-0.498-0.841-0.498-1.388c0-0.537,0.171-0.996,0.513-1.377c0.341-0.381,0.785-0.571,1.331-0.571&#xA;				c0.546,0,0.984,0.182,1.313,0.546c0.329,0.364,0.494,0.817,0.494,1.359L113.618,30.315z M111.818,28.682&#xA;				c-0.354,0-0.649,0.113-0.885,0.34c-0.236,0.227-0.376,0.516-0.42,0.868h2.589c-0.035-0.366-0.166-0.659-0.395-0.879&#xA;				C112.478,28.792,112.182,28.682,111.818,28.682L111.818,28.682z M115.989,32.117c-0.507,0-0.884-0.118-1.132-0.355&#xA;				c-0.248-0.237-0.385-0.536-0.409-0.897h0.531c0.02,0.249,0.114,0.444,0.284,0.586c0.17,0.142,0.412,0.212,0.727,0.212&#xA;				c0.31,0,0.552-0.057,0.726-0.172c0.174-0.115,0.262-0.267,0.262-0.458c0-0.195-0.08-0.34-0.24-0.436&#xA;				c-0.159-0.095-0.353-0.16-0.579-0.194c-0.226-0.034-0.453-0.076-0.682-0.125c-0.229-0.049-0.423-0.151-0.583-0.308&#xA;				c-0.16-0.156-0.24-0.376-0.24-0.659c0-0.303,0.126-0.561,0.376-0.776c0.251-0.215,0.59-0.322,1.018-0.322&#xA;				c0.472,0,0.821,0.12,1.048,0.359c0.226,0.239,0.354,0.513,0.384,0.82h-0.523c-0.025-0.215-0.114-0.389-0.266-0.524&#xA;				c-0.152-0.134-0.371-0.201-0.656-0.201c-0.28,0-0.495,0.059-0.645,0.176c-0.15,0.117-0.225,0.266-0.225,0.447&#xA;				c0,0.161,0.058,0.288,0.174,0.381c0.115,0.093,0.259,0.153,0.431,0.179c0.172,0.027,0.358,0.062,0.557,0.106&#xA;				c0.199,0.044,0.385,0.093,0.557,0.146c0.171,0.054,0.316,0.159,0.431,0.315c0.116,0.156,0.174,0.356,0.174,0.601&#xA;				c0,0.303-0.129,0.561-0.387,0.776C116.841,32.009,116.47,32.117,115.989,32.117z"/>
		</mask>
		<path class="st4" d="M42.427,26.829l1.896,2.424l1.903-2.424h0.487v5.2h-0.538v-4.292l-1.837,2.314h-0.029l-1.829-2.314v4.292&#xA;			H41.94v-5.2H42.427z M50.728,30.118l-1.247,0.168c-0.344,0.044-0.591,0.126-0.741,0.245c-0.15,0.12-0.225,0.277-0.225,0.472&#xA;			c0,0.244,0.084,0.419,0.251,0.524s0.374,0.157,0.62,0.157c0.418,0,0.746-0.116,0.985-0.348c0.239-0.232,0.358-0.494,0.358-0.787&#xA;			V30.118z M49.327,32.117c-0.438,0-0.768-0.099-0.992-0.297c-0.224-0.198-0.336-0.47-0.336-0.817c0-0.63,0.472-1.006,1.416-1.128&#xA;			l1.313-0.168v-0.102c0-0.63-0.354-0.945-1.062-0.945c-0.6,0-0.949,0.247-1.047,0.74h-0.524c0.054-0.361,0.21-0.649,0.468-0.864&#xA;			c0.258-0.215,0.633-0.322,1.125-0.322c0.521,0,0.912,0.126,1.173,0.377c0.261,0.251,0.391,0.592,0.391,1.022v1.633&#xA;			c0,0.366,0.037,0.627,0.111,0.784h-0.516c-0.054-0.146-0.081-0.359-0.081-0.637C50.48,31.875,50,32.117,49.327,32.117z&#xA;			 M55.26,28.301h0.701l-1.556,1.538l1.674,2.19H55.43l-1.394-1.838l-0.848,0.82v1.018h-0.524v-5.493h0.524v3.837L55.26,28.301z&#xA;			 M57.167,27.379c-0.113,0-0.204-0.033-0.273-0.099c-0.069-0.066-0.103-0.153-0.103-0.26s0.034-0.196,0.103-0.267&#xA;			c0.069-0.071,0.16-0.106,0.273-0.106c0.108,0,0.198,0.035,0.269,0.106c0.071,0.071,0.107,0.16,0.107,0.267&#xA;			s-0.036,0.194-0.107,0.26C57.365,27.346,57.275,27.379,57.167,27.379z M56.901,32.029v-3.728h0.524v3.728H56.901z M59.375,28.301&#xA;			v0.571c0.089-0.166,0.236-0.317,0.443-0.454c0.207-0.137,0.472-0.205,0.797-0.205c0.452,0,0.803,0.132,1.051,0.395&#xA;			c0.248,0.264,0.373,0.61,0.373,1.04v2.38h-0.524v-2.278c0-0.347-0.082-0.614-0.247-0.802c-0.165-0.188-0.412-0.282-0.741-0.282&#xA;			c-0.329,0-0.6,0.1-0.811,0.3c-0.211,0.2-0.317,0.481-0.317,0.842v2.219h-0.524v-3.728H59.375z M66.349,28.982v-0.681h0.502v3.544&#xA;			c0,0.527-0.151,0.957-0.454,1.289c-0.302,0.332-0.736,0.498-1.302,0.498c-0.492,0-0.881-0.117-1.169-0.352&#xA;			c-0.288-0.234-0.468-0.513-0.542-0.835h0.538c0.074,0.22,0.215,0.394,0.424,0.524c0.209,0.129,0.463,0.194,0.763,0.194&#xA;			c0.379,0,0.676-0.111,0.893-0.333c0.216-0.222,0.325-0.511,0.325-0.868v-0.696c-0.29,0.503-0.755,0.754-1.394,0.754&#xA;			c-0.541,0-0.971-0.186-1.291-0.557s-0.479-0.82-0.479-1.347c0-0.527,0.16-0.976,0.479-1.347c0.32-0.371,0.75-0.557,1.291-0.557&#xA;			C65.587,28.214,66.059,28.47,66.349,28.982z M65.988,31.15c0.241-0.273,0.361-0.618,0.361-1.033c0-0.415-0.119-0.758-0.358-1.029&#xA;			c-0.238-0.271-0.559-0.406-0.963-0.406c-0.403,0-0.727,0.137-0.97,0.41c-0.243,0.273-0.365,0.615-0.365,1.025&#xA;			c0,0.41,0.122,0.753,0.365,1.029c0.243,0.276,0.567,0.414,0.97,0.414C65.432,31.56,65.752,31.424,65.988,31.15z M70.862,28.975&#xA;			c0.285-0.508,0.752-0.762,1.401-0.762c0.556,0,0.991,0.189,1.306,0.568c0.315,0.378,0.472,0.841,0.472,1.388&#xA;			c0,0.542-0.157,1.002-0.472,1.38c-0.315,0.378-0.75,0.568-1.306,0.568c-0.659,0-1.133-0.259-1.424-0.776v0.688h-0.502v-5.493&#xA;			h0.524L70.862,28.975z M70.848,30.169c0,0.42,0.118,0.771,0.354,1.055c0.236,0.283,0.558,0.425,0.966,0.425&#xA;			s0.734-0.142,0.977-0.425c0.243-0.283,0.365-0.635,0.365-1.055c0-0.425-0.122-0.779-0.365-1.062&#xA;			c-0.243-0.283-0.569-0.425-0.977-0.425s-0.73,0.14-0.966,0.421C70.966,29.384,70.848,29.739,70.848,30.169z M78.567,30.315h-3.12&#xA;			c0.025,0.391,0.157,0.71,0.398,0.959c0.241,0.249,0.553,0.374,0.937,0.374c0.28,0,0.526-0.072,0.738-0.216&#xA;			s0.359-0.333,0.443-0.568h0.545c-0.113,0.371-0.322,0.673-0.626,0.904c-0.305,0.232-0.674,0.348-1.107,0.348&#xA;			c-0.57,0-1.021-0.189-1.353-0.568c-0.332-0.378-0.498-0.841-0.498-1.388c0-0.537,0.171-0.996,0.513-1.377s0.786-0.571,1.331-0.571&#xA;			c0.546,0,0.984,0.182,1.313,0.546c0.33,0.364,0.495,0.817,0.495,1.359L78.567,30.315z M76.766,28.682&#xA;			c-0.353,0-0.649,0.113-0.885,0.341s-0.376,0.516-0.42,0.868h2.589c-0.035-0.366-0.165-0.659-0.395-0.879&#xA;			C77.427,28.792,77.13,28.682,76.766,28.682z M81.262,31.538v0.469c-0.088,0.024-0.221,0.037-0.398,0.037&#xA;			c-0.649,0-0.974-0.339-0.974-1.018v-2.285h-0.716v-0.439h0.716V27.24h0.523v1.062h0.863v0.439h-0.863v2.248&#xA;			c0,0.391,0.172,0.586,0.517,0.586L81.262,31.538z M83.721,31.538v0.469c-0.089,0.024-0.221,0.037-0.399,0.037&#xA;			c-0.649,0-0.973-0.339-0.973-1.018v-2.285h-0.716v-0.439h0.716V27.24h0.523v1.062h0.863v0.439h-0.863v2.248&#xA;			c0,0.391,0.172,0.586,0.517,0.586L83.721,31.538z M88.018,30.315h-3.12c0.025,0.391,0.157,0.71,0.399,0.959&#xA;			c0.241,0.249,0.553,0.374,0.936,0.374c0.28,0,0.526-0.072,0.738-0.216c0.212-0.144,0.359-0.333,0.443-0.568h0.546&#xA;			c-0.114,0.371-0.323,0.673-0.627,0.904c-0.305,0.232-0.674,0.348-1.106,0.348c-0.571,0-1.022-0.189-1.354-0.568&#xA;			c-0.332-0.378-0.499-0.841-0.499-1.388c0-0.537,0.171-0.996,0.513-1.377c0.342-0.381,0.786-0.571,1.332-0.571&#xA;			c0.546,0,0.984,0.182,1.313,0.546c0.329,0.364,0.494,0.817,0.494,1.359L88.018,30.315z M86.218,28.682&#xA;			c-0.354,0-0.649,0.113-0.885,0.341c-0.236,0.227-0.377,0.516-0.42,0.868h2.589c-0.035-0.366-0.166-0.659-0.395-0.879&#xA;			C86.878,28.792,86.582,28.682,86.218,28.682z M91.016,28.272v0.491c-0.059-0.005-0.12-0.007-0.184-0.007&#xA;			c-0.335,0-0.605,0.099-0.811,0.297c-0.207,0.198-0.31,0.485-0.31,0.86v2.116h-0.524v-3.728h0.502v0.579&#xA;			c0.089-0.161,0.234-0.304,0.435-0.428c0.202-0.124,0.457-0.187,0.767-0.187L91.016,28.272z M96.916,28.982v-0.681h0.502v3.544&#xA;			c0,0.527-0.151,0.957-0.453,1.289c-0.303,0.332-0.737,0.498-1.302,0.498c-0.492,0-0.881-0.117-1.169-0.352&#xA;			c-0.288-0.234-0.468-0.513-0.542-0.835h0.538c0.074,0.22,0.215,0.394,0.424,0.524c0.209,0.129,0.463,0.194,0.763,0.194&#xA;			c0.378,0,0.676-0.111,0.893-0.333c0.217-0.222,0.324-0.511,0.324-0.868v-0.696c-0.29,0.503-0.754,0.754-1.393,0.754&#xA;			c-0.541,0-0.972-0.186-1.291-0.557s-0.48-0.82-0.48-1.347c0-0.527,0.16-0.976,0.48-1.347c0.32-0.371,0.75-0.557,1.291-0.557&#xA;			C96.153,28.214,96.626,28.47,96.916,28.982z M96.554,31.15c0.241-0.273,0.362-0.618,0.362-1.033c0-0.415-0.12-0.758-0.358-1.029&#xA;			c-0.238-0.271-0.559-0.406-0.963-0.406s-0.726,0.137-0.97,0.41c-0.244,0.273-0.365,0.615-0.365,1.025&#xA;			c0,0.41,0.121,0.753,0.365,1.029c0.244,0.276,0.567,0.414,0.97,0.414C95.998,31.56,96.318,31.424,96.554,31.15z M101.301,30.118&#xA;			l-1.247,0.168c-0.344,0.044-0.591,0.126-0.741,0.245c-0.15,0.12-0.225,0.277-0.225,0.472c0,0.244,0.083,0.419,0.251,0.524&#xA;			c0.167,0.105,0.374,0.157,0.619,0.157c0.418,0,0.747-0.116,0.985-0.348c0.238-0.232,0.358-0.494,0.358-0.787V30.118z&#xA;			 M99.899,32.117c-0.438,0-0.769-0.099-0.992-0.297c-0.224-0.198-0.336-0.47-0.336-0.817c0-0.63,0.472-1.006,1.417-1.128&#xA;			l1.313-0.168v-0.102c0-0.63-0.354-0.945-1.063-0.945c-0.6,0-0.949,0.247-1.048,0.74h-0.523c0.054-0.361,0.21-0.649,0.468-0.864&#xA;			c0.258-0.215,0.633-0.322,1.125-0.322c0.521,0,0.912,0.126,1.172,0.377c0.261,0.251,0.391,0.592,0.391,1.022v1.633&#xA;			c0,0.366,0.037,0.627,0.111,0.784h-0.516c-0.054-0.146-0.081-0.359-0.081-0.637C101.053,31.875,100.573,32.117,99.899,32.117&#xA;			L99.899,32.117z M106.305,29.854v2.175h-0.524v-2.278c0-0.337-0.077-0.602-0.232-0.795c-0.155-0.193-0.392-0.289-0.711-0.289&#xA;			c-0.315,0-0.573,0.103-0.775,0.308c-0.202,0.205-0.303,0.483-0.303,0.835v2.219h-0.523v-3.728h0.502v0.571&#xA;			c0.241-0.439,0.637-0.659,1.187-0.659c0.596,0,1.003,0.239,1.225,0.718c0.118-0.2,0.29-0.37,0.516-0.509&#xA;			c0.226-0.139,0.494-0.209,0.804-0.209c0.438,0,0.776,0.136,1.014,0.406c0.238,0.271,0.358,0.614,0.358,1.029v2.38h-0.524v-2.278&#xA;			c0-0.332-0.077-0.596-0.232-0.791s-0.39-0.293-0.704-0.293c-0.31,0-0.567,0.103-0.771,0.308&#xA;			C106.407,29.18,106.305,29.473,106.305,29.854L106.305,29.854z M113.618,30.315h-3.121c0.025,0.391,0.158,0.71,0.399,0.959&#xA;			c0.241,0.249,0.553,0.374,0.937,0.374c0.28,0,0.526-0.072,0.738-0.216c0.211-0.144,0.359-0.333,0.442-0.568h0.546&#xA;			c-0.113,0.371-0.322,0.673-0.627,0.904c-0.305,0.232-0.673,0.348-1.106,0.348c-0.571,0-1.022-0.189-1.354-0.568&#xA;			c-0.332-0.378-0.498-0.841-0.498-1.388c0-0.537,0.171-0.996,0.513-1.377c0.341-0.381,0.785-0.571,1.331-0.571&#xA;			c0.546,0,0.984,0.182,1.313,0.546c0.329,0.364,0.494,0.817,0.494,1.359L113.618,30.315z M111.818,28.682&#xA;			c-0.354,0-0.649,0.113-0.885,0.34c-0.236,0.227-0.376,0.516-0.42,0.868h2.589c-0.035-0.366-0.166-0.659-0.395-0.879&#xA;			C112.478,28.792,112.182,28.682,111.818,28.682L111.818,28.682z M115.989,32.117c-0.507,0-0.884-0.118-1.132-0.355&#xA;			c-0.248-0.237-0.385-0.536-0.409-0.897h0.531c0.02,0.249,0.114,0.444,0.284,0.586c0.17,0.142,0.412,0.212,0.727,0.212&#xA;			c0.31,0,0.552-0.057,0.726-0.172c0.174-0.115,0.262-0.267,0.262-0.458c0-0.195-0.08-0.34-0.24-0.436&#xA;			c-0.159-0.095-0.353-0.16-0.579-0.194c-0.226-0.034-0.453-0.076-0.682-0.125c-0.229-0.049-0.423-0.151-0.583-0.308&#xA;			c-0.16-0.156-0.24-0.376-0.24-0.659c0-0.303,0.126-0.561,0.376-0.776c0.251-0.215,0.59-0.322,1.018-0.322&#xA;			c0.472,0,0.821,0.12,1.048,0.359c0.226,0.239,0.354,0.513,0.384,0.82h-0.523c-0.025-0.215-0.114-0.389-0.266-0.524&#xA;			c-0.152-0.134-0.371-0.201-0.656-0.201c-0.28,0-0.495,0.059-0.645,0.176c-0.15,0.117-0.225,0.266-0.225,0.447&#xA;			c0,0.161,0.058,0.288,0.174,0.381c0.115,0.093,0.259,0.153,0.431,0.179c0.172,0.027,0.358,0.062,0.557,0.106&#xA;			c0.199,0.044,0.385,0.093,0.557,0.146c0.171,0.054,0.316,0.159,0.431,0.315c0.116,0.156,0.174,0.356,0.174,0.601&#xA;			c0,0.303-0.129,0.561-0.387,0.776C116.841,32.009,116.47,32.117,115.989,32.117z"/>
	</g>
	
		<linearGradient id="SVGID_1_" gradientUnits="userSpaceOnUse" x1="35.3084" y1="16.923" x2="13.1569" y2="19.8496" gradientTransform="matrix(1 0 0 -1 0 35.2912)">
		<stop offset="0" style="stop-color:#000056"/>
		<stop offset="1" style="stop-color:#1010CB"/>
	</linearGradient>
	<path class="st5" d="M23.188,0.257c-3.155,0-6.577,0.731-9.249,1.82c-3.104,1.265-6.59,3.118-9.085,5.5&#xA;		c1.119-0.696,2.47-1.345,4.068-1.883c2.413-0.812,7.062-2.647,9.767-0.469c2.705,2.178,2.615,7.102,1.968,10.804&#xA;		c-0.647,3.703-1.97,8.513-5.546,9.663c-3.576,1.15-7.335-1.944-9.706-4.294c-0.81-0.802-1.697-1.678-2.49-2.627&#xA;		c1.897,3.069,5.228,5.624,7.208,7.274c6.765,5.634,10.28,8.006,12.998,6.898c5.193-2.116,7.076-8.472,8.186-13.529&#xA;		c1.11-5.057,2.731-12.946-0.484-16.604c-1.606-1.827-4.487-2.555-7.636-2.555C23.188,0.257,23.188,0.257,23.188,0.257z"/>
</g>
<defs>
	<filter id="Adobe_OpacityMaskFilter_1_" filterUnits="userSpaceOnUse" x="-11.949" y="-15.313" width="71.14" height="59.879">
		<feColorMatrix type="matrix" values="1 0 0 0 0  0 1 0 0 0  0 0 1 0 0  0 0 0 1 0"/>
	</filter>
</defs>
<mask maskUnits="userSpaceOnUse" x="-11.949" y="-15.313" width="71.14" height="59.879" id="i_2_">
	<path class="st6" d="M14.567,1.795c2.17-0.712,5.14-1.538,8.038-1.538c0.22,0,0.44,0.005,0.659,0.015&#xA;		c-0.753,0.115-1.489,0.25-2.184,0.367c-3.251,0.547-7.97,1.865-9.087,5.48c-1.117,3.615,2.031,7.467,4.666,10.125&#xA;		c2.636,2.659,6.583,5.557,9.903,4.571c3.32-0.986,4.497-5.88,5.222-8.339c0.551-1.873,0.797-3.561,0.827-5.025&#xA;		c0.107,0.391,0.189,0.806,0.246,1.25c0.378,2.951-0.356,7.123-1.014,9.995c-1.295,5.659-3.721,12.971-9.33,14.453&#xA;		c-5.609,1.482-11.16-3.598-14.63-7.416c-3.47-3.818-7.92-8.663-6.66-14.168C1.884,8.682,6.21,4.537,14.567,1.795z"/>
</mask>
<g class="st7">
	
		<linearGradient id="SVGID_2_" gradientUnits="userSpaceOnUse" x1="19.8134" y1="1.3063" x2="41.2863" y2="110.4663" gradientTransform="matrix(1 0 0 -1 0 35.2912)">
		<stop offset="0" style="stop-color:#01F5FC"/>
		<stop offset="1" style="stop-color:#1010CB"/>
	</linearGradient>
	<path class="st8" d="M45.635,44.566l-57.583-11.054L1.608-15.313L59.191-4.259L45.635,44.566z"/>
</g>
<defs>
	<filter id="Adobe_OpacityMaskFilter_2_" filterUnits="userSpaceOnUse" x="-0.871" y="-3.153" width="40.95" height="38.791">
		<feColorMatrix type="matrix" values="1 0 0 0 0  0 1 0 0 0  0 0 1 0 0  0 0 0 1 0"/>
	</filter>
</defs>
<mask maskUnits="userSpaceOnUse" x="-0.871" y="-3.153" width="40.95" height="38.791" id="j_2_">
	<path class="st9" d="M14.567,1.795c2.17-0.712,5.14-1.538,8.038-1.538c0.22,0,0.44,0.005,0.659,0.015&#xA;		c-0.753,0.115-1.489,0.25-2.184,0.367c-3.251,0.547-7.97,1.865-9.087,5.48c-1.117,3.615,2.031,7.467,4.666,10.125&#xA;		c2.636,2.659,6.583,5.557,9.903,4.571c3.32-0.986,4.497-5.88,5.222-8.339c0.551-1.873,0.797-3.561,0.827-5.025&#xA;		c0.107,0.391,0.189,0.806,0.246,1.25c0.378,2.951-0.356,7.123-1.014,9.995c-1.295,5.659-3.721,12.971-9.33,14.453&#xA;		c-5.609,1.482-11.16-3.598-14.63-7.416c-3.47-3.818-7.92-8.663-6.66-14.168C1.884,8.682,6.21,4.537,14.567,1.795z"/>
</mask>
<g class="st10">
	
		<linearGradient id="SVGID_3_" gradientUnits="userSpaceOnUse" x1="19.604" y1="34.6307" x2="19.604" y2="-0.3469" gradientTransform="matrix(1 0 0 -1 0 35.2912)">
		<stop offset="0" style="stop-color:#01F5FC"/>
		<stop offset="1" style="stop-color:#1010CB"/>
	</linearGradient>
	<path class="st11" d="M-0.871-3.153v38.791h40.95V-3.153H-0.871z"/>
</g>
<defs>
	<filter id="Adobe_OpacityMaskFilter_3_" filterUnits="userSpaceOnUse" x="-16.429" y="-18.924" width="80.1" height="67.1">
		<feColorMatrix type="matrix" values="1 0 0 0 0  0 1 0 0 0  0 0 1 0 0  0 0 0 1 0"/>
	</filter>
</defs>
<mask maskUnits="userSpaceOnUse" x="-16.429" y="-18.924" width="80.1" height="67.1" id="k_2_">
	<path class="st12" d="M24.253,20.937c0.835,3.994,0.615,8.037-2.467,10.754c-0.767,0.676-1.638,1.21-2.585,1.625&#xA;		c-4.415-0.651-8.534-4.523-11.316-7.584c-1.516-1.668-3.22-3.533-4.552-5.562c0.587,0.134,1.165,0.252,1.723,0.359&#xA;		c4.388,0.843,10.273,1.189,13.05-1.412c0.298-0.279,0.542-0.583,0.739-0.906C20.512,19.538,22.409,20.647,24.253,20.937z"/>
</mask>
<g class="st13">
	
		<linearGradient id="SVGID_4_" gradientUnits="userSpaceOnUse" x1="29.5957" y1="0.106" x2="-1.7253" y2="107.8872" gradientTransform="matrix(1 0 0 -1 0 35.2912)">
		<stop offset="0" style="stop-color:#00FFFD"/>
		<stop offset="1" style="stop-color:#1010CB"/>
	</linearGradient>
	<path class="st14" d="M63.671,31.184L4.321,48.176l-20.75-50.108l59.35-16.993L63.671,31.184z"/>
</g>
<defs>
	<filter id="Adobe_OpacityMaskFilter_4_" filterUnits="userSpaceOnUse" x="-0.871" y="3.521" width="25.542" height="31.04">
		<feColorMatrix type="matrix" values="1 0 0 0 0  0 1 0 0 0  0 0 1 0 0  0 0 0 1 0"/>
	</filter>
</defs>
<mask maskUnits="userSpaceOnUse" x="-0.871" y="3.521" width="25.542" height="31.04" id="l_2_">
	<path class="st15" d="M24.253,20.937c4.527,0.575,3.081,9.259,0,11.975c-0.767,0.676-3.431,1.921-5.051,0.404&#xA;		c-4.415-0.651-8.534-4.523-11.316-7.584c-1.516-1.668-3.22-3.533-4.552-5.562c0.587,0.133,1.015-1.412,1.572-1.305&#xA;		c4.389,0.842,5.181,0.167,7.958-2.434c0.298-0.279,5.784,2.104,5.981,1.78C20.512,19.538,22.409,20.647,24.253,20.937z"/>
</mask>
<g class="st16">
	
		<linearGradient id="SVGID_5_" gradientUnits="userSpaceOnUse" x1="-12.0174" y1="23.9685" x2="28.8008" y2="8.8068" gradientTransform="matrix(1 0 0 -1 0 35.2912)">
		<stop offset="0" style="stop-color:#00FFFD"/>
		<stop offset="1" style="stop-color:#1010CB"/>
	</linearGradient>
	<path class="st17" d="M-0.871,4.958v0.449C-0.684,5.264-0.5,5.126-0.32,4.993c0.638-0.469,1.306-0.975,2.005-1.472&#xA;		C0.794,3.939-0.061,4.428-0.871,4.958z M18.162,9.293c0.819,2.463,2.719,7.224-0.057,9.825c-2.776,2.601-8.661,2.254-13.05,1.412&#xA;		c-1.892-0.363-4.023-0.863-5.927-1.607v13.596c1.009,0.25,2.004,0.479,2.957,0.698c5.979,1.377,14.892,2.713,19.699-1.525&#xA;		c4.808-4.239,2.651-11.707,0.387-17.176c-1.15-2.776-3.045-6.691-5.306-8.983c-0.34-0.345-0.689-0.651-1.046-0.925&#xA;		C16.718,5.86,17.538,7.417,18.162,9.293z"/>
</g>
</svg>