<?xml version="1.0" encoding="utf-8"?>
<svg xmlns="http://www.w3.org/2000/svg" width="81" height="80" viewBox="0 0 81 80" fill="none">
<path d="M40.6667 8.25C25.9665 8.25 13.5968 18.2413 9.98388 31.8056C9.80619 32.4727 9.12136 32.8694 8.45426 32.6918C7.78716 32.5141 7.39042 31.8292 7.5681 31.1621C11.4653 16.5306 24.8054 5.75 40.6667 5.75C59.5824 5.75 74.9167 21.0842 74.9167 40C74.9167 58.9158 59.5824 74.25 40.6667 74.25C22.5431 74.25 7.70729 60.1732 6.49647 42.3568L3.62693 45.8002C3.18498 46.3306 2.39677 46.4022 1.86643 45.9603C1.33608 45.5183 1.26443 44.7301 1.70638 44.1998L6.70638 38.1998C6.93727 37.9227 7.27659 37.7589 7.63715 37.7503C7.99772 37.7418 8.34439 37.8895 8.5881 38.1553L14.0881 44.1553C14.5546 44.6642 14.5202 45.455 14.0113 45.9214C13.5024 46.3879 12.7117 46.3536 12.2452 45.8447L8.99892 42.3032C10.1789 58.7631 23.9062 71.75 40.6667 71.75C58.2017 71.75 72.4167 57.535 72.4167 40C72.4167 22.465 58.2017 8.25 40.6667 8.25Z" fill="url(#paint0_linear_1189_20112)"/>
<path d="M52.5505 29.8839L30.5505 51.8839C30.0624 52.372 29.2709 52.372 28.7828 51.8839C28.2946 51.3957 28.2946 50.6043 28.7828 50.1161L50.7828 28.1161C51.2709 27.628 52.0624 27.628 52.5505 28.1161C53.0387 28.6043 53.0387 29.3957 52.5505 29.8839Z" fill="url(#paint1_linear_1189_20112)"/>
<path fill-rule="evenodd" clip-rule="evenodd" d="M33.6667 37C35.8758 37 37.6667 35.2091 37.6667 33C37.6667 30.7909 35.8758 29 33.6667 29C31.4575 29 29.6667 30.7909 29.6667 33C29.6667 35.2091 31.4575 37 33.6667 37ZM33.6667 34.5C34.4951 34.5 35.1667 33.8284 35.1667 33C35.1667 32.1716 34.4951 31.5 33.6667 31.5C32.8382 31.5 32.1667 32.1716 32.1667 33C32.1667 33.8284 32.8382 34.5 33.6667 34.5Z" fill="url(#paint2_linear_1189_20112)"/>
<path fill-rule="evenodd" clip-rule="evenodd" d="M51.6667 47C51.6667 49.2091 49.8758 51 47.6667 51C45.4575 51 43.6667 49.2091 43.6667 47C43.6667 44.7909 45.4575 43 47.6667 43C49.8758 43 51.6667 44.7909 51.6667 47ZM49.1667 47C49.1667 47.8284 48.4951 48.5 47.6667 48.5C46.8382 48.5 46.1667 47.8284 46.1667 47C46.1667 46.1716 46.8382 45.5 47.6667 45.5C48.4951 45.5 49.1667 46.1716 49.1667 47Z" fill="url(#paint3_linear_1189_20112)"/>
<defs>
<linearGradient id="paint0_linear_1189_20112" x1="1.41663" y1="5.75" x2="79.2576" y2="11.101" gradientUnits="userSpaceOnUse">
<stop stop-color="#FFDC86"/>
<stop offset="0.550621" stop-color="#FFAD7B"/>
<stop offset="1" stop-color="#FFD492"/>
</linearGradient>
<linearGradient id="paint1_linear_1189_20112" x1="1.41663" y1="5.75" x2="79.2576" y2="11.101" gradientUnits="userSpaceOnUse">
<stop stop-color="#FFDC86"/>
<stop offset="0.550621" stop-color="#FFAD7B"/>
<stop offset="1" stop-color="#FFD492"/>
</linearGradient>
<linearGradient id="paint2_linear_1189_20112" x1="1.41663" y1="5.75" x2="79.2576" y2="11.101" gradientUnits="userSpaceOnUse">
<stop stop-color="#FFDC86"/>
<stop offset="0.550621" stop-color="#FFAD7B"/>
<stop offset="1" stop-color="#FFD492"/>
</linearGradient>
<linearGradient id="paint3_linear_1189_20112" x1="1.41663" y1="5.75" x2="79.2576" y2="11.101" gradientUnits="userSpaceOnUse">
<stop stop-color="#FFDC86"/>
<stop offset="0.550621" stop-color="#FFAD7B"/>
<stop offset="1" stop-color="#FFD492"/>
</linearGradient>
</defs>
</svg>