<?xml version="1.0" encoding="utf-8"?>
<svg xmlns="http://www.w3.org/2000/svg" width="25" height="24" viewBox="0 0 25 24" fill="none">
<g clip-path="url(#clip0_4052_1875)">
<path d="M8.5 14.5C9.05228 14.5 9.5 14.9477 9.5 15.5C9.5 16.8807 8.38071 18 7 18C6.44772 18 6 17.5523 6 17C6 16.4477 6.44772 16 7 16C7.27614 16 7.5 15.7761 7.5 15.5C7.5 14.9477 7.94772 14.5 8.5 14.5Z" fill="#000000"/>
<path d="M20.5 17.5C20.5 16.9477 20.0523 16.5 19.5 16.5C18.9477 16.5 18.5 16.9477 18.5 17.5C18.5 17.7761 18.2761 18 18 18C17.4477 18 17 18.4477 17 19C17 19.5523 17.4477 20 18 20C19.3807 20 20.5 18.8807 20.5 17.5Z" fill="#000000"/>
<path fill-rule="evenodd" clip-rule="evenodd" d="M14.3829 1.08351C14.3716 1.0844 14.3604 1.08528 14.3491 1.08616C14.2337 1.0952 14.1211 1.10403 14.0121 1.11211C13.3759 1.15923 12.8542 1.18184 12.4293 1.13185C12.0061 1.08206 11.8162 0.974653 11.7234 0.879588C11.6445 0.79879 11.5 0.58793 11.5 0H9.5C9.5 0.91207 9.73049 1.70121 10.2922 2.27666C10.4415 2.42957 10.6033 2.55604 10.7726 2.66065C9.92285 3.21014 9.23502 3.82595 8.67887 4.47341C7.25219 6.13432 6.77833 7.90617 6.57033 9.01398C3.18078 9.23517 0.5 12.0545 0.5 15.5C0.5 19.0899 3.41015 22 7 22C8.95797 22 10.7137 21.1343 11.9054 19.7647C12.8248 22.238 15.2066 24 18 24C21.5899 24 24.5 21.0899 24.5 17.5C24.5 14.2621 22.1326 11.5772 19.0343 11.0818C19.0267 10.8154 18.9862 10.5534 18.9379 10.3168C18.8442 9.85732 18.6896 9.35142 18.5176 8.84337C18.3636 8.38856 18.2025 7.9476 18.0417 7.50756C17.8177 6.89421 17.5942 6.2825 17.3916 5.63768C17.0485 4.546 16.8815 3.68533 16.9532 3.11742C16.9857 2.86019 17.0583 2.74282 17.1144 2.68449C17.1659 2.63093 17.2925 2.53373 17.6242 2.49228L17.4965 1.47082L17.3831 0.506849C16.2763 0.637057 15.2799 0.833439 14.3829 1.08351ZM14.736 3.06231C14.8082 3.05677 14.8797 3.05138 14.9507 3.04623C14.8719 4.04807 15.1588 5.20375 15.4836 6.23732C15.6895 6.89247 15.9534 7.61821 16.1968 8.28772C16.3546 8.7219 16.5039 9.13245 16.6232 9.48475C16.7871 9.96889 16.9098 10.381 16.9782 10.7164C17.0076 10.8604 17.0243 10.978 17.0315 11.0717C15.4677 11.3053 14.0859 12.0959 13.0946 13.2353C12.3538 11.2425 10.6636 9.71152 8.5738 9.19183C8.76691 8.25742 9.16587 6.97586 10.196 5.77659C11.0742 4.75418 12.468 3.72722 14.736 3.06231ZM7 20C9.48528 20 11.5 17.9853 11.5 15.5C11.5 13.0147 9.48528 11 7 11C4.51472 11 2.5 13.0147 2.5 15.5C2.5 17.9853 4.51472 20 7 20ZM18 22C20.4853 22 22.5 19.9853 22.5 17.5C22.5 15.0147 20.4853 13 18 13C15.5147 13 13.5 15.0147 13.5 17.5C13.5 19.9853 15.5147 22 18 22Z" fill="#000000"/>
</g>
<defs>
<clipPath id="clip0_4052_1875">
<rect width="24" height="24" fill="#000000" transform="translate(0.5)"/>
</clipPath>
</defs>
</svg>