<?xml version="1.0" encoding="utf-8"?>
<svg xmlns="http://www.w3.org/2000/svg" width="113" height="32" viewBox="0 0 113 32" fill="none">
<g clip-path="url(#clip0_1222_3684)">
<path d="M40.9283 6.61073V4H43.4645V6.61073H40.9283Z" fill="white"/>
<path d="M41.0029 22.4616V9.22147H43.5391V22.4616H41.0029Z" fill="white"/>
<path fill-rule="evenodd" clip-rule="evenodd" d="M26.271 15.8788C26.271 13.7902 26.7931 12.1306 27.9121 10.8625C29.0309 9.59442 30.4482 8.99768 32.257 8.99768C32.8538 8.99768 33.376 9.07227 33.8235 9.22146C34.3457 9.37064 34.7186 9.51982 35.0169 9.74358C35.1538 9.84622 35.2749 9.94885 35.3876 10.0443C35.5206 10.1569 35.6417 10.2596 35.7629 10.3403C35.9867 10.5641 36.1359 10.7133 36.2105 10.8625L36.285 11.0863H36.3596C36.3596 10.9886 36.3454 10.8767 36.3294 10.7506C36.3087 10.5878 36.285 10.4013 36.285 10.1912V4.05594H38.8212V22.4616H36.4342V20.2984H36.3596C36.3596 20.373 36.285 20.4476 36.2105 20.5222C36.1644 20.5682 36.09 20.6711 35.9871 20.8132C35.9233 20.9014 35.8485 21.0047 35.7629 21.1189C35.5391 21.4173 35.2408 21.6411 34.9423 21.8648C34.644 22.0887 34.1964 22.3124 33.6743 22.4616C33.1521 22.6108 32.5555 22.6853 31.9587 22.6853C30.1685 22.6853 28.7512 22.0887 27.6882 20.8205C26.7931 19.6271 26.271 17.9115 26.271 15.8788ZM28.8072 15.8788C28.8072 17.296 29.1801 18.415 29.8515 19.3101C30.5228 20.2052 31.4179 20.5781 32.5368 20.5781C33.581 20.5781 34.5507 20.2052 35.2221 19.3847C35.968 18.5641 36.3409 17.4453 36.3409 15.7856C36.3409 14.5175 36.0426 13.3986 35.3712 12.5035C34.7 11.6084 33.8049 11.0863 32.6114 11.0863C31.5671 11.0863 30.5974 11.5338 29.926 12.3543C29.1801 13.2681 28.8072 14.387 28.8072 15.8788Z" fill="white"/>
<path fill-rule="evenodd" clip-rule="evenodd" d="M50.9609 25.7623C49.6742 25.7623 48.4808 25.4639 47.3619 24.8672L46.5227 26.8811C47.9586 27.6271 49.4505 28 51.0169 28C51.912 28 52.7325 27.8508 53.4785 27.6271C54.2244 27.4033 54.9704 27.0303 55.7162 26.5082C56.313 26.0606 56.8351 25.4639 57.2081 24.6434C57.5064 23.8229 57.7303 22.9278 57.7303 21.8834V9.24009H55.3433V10.8811H55.2687L55.1195 10.732C55.045 10.5829 54.8961 10.4339 54.6728 10.2106C54.4957 10.0336 54.3178 9.90239 54.1038 9.7448L54.1022 9.74366C54.0462 9.70244 53.9877 9.65934 53.926 9.61305C53.6277 9.38928 53.2547 9.24009 52.7325 9.09092C52.2104 8.94173 51.6883 8.86713 51.0915 8.86713C49.2826 8.86713 47.8654 9.53847 46.8211 10.732C45.7768 12.0187 45.2547 13.5851 45.2547 15.5245C45.2547 17.4825 45.7768 19.1235 46.8211 20.3917C47.884 21.6597 49.3013 22.331 51.0915 22.331C52.9004 22.331 54.1684 21.5851 54.989 20.2425H55.0635V22.0327C55.0635 23.3007 54.6906 24.2704 53.9447 24.8672C53.1988 25.4639 52.2291 25.7623 50.9609 25.7623ZM54.2244 19.0304C53.5531 19.7016 52.7325 20.0746 51.6883 20.0746C50.5693 20.0746 49.5996 19.7016 48.9097 18.9371C48.2383 18.1166 47.8654 16.9977 47.8654 15.5804C47.8654 14.2378 48.2383 13.1189 48.8351 12.373C49.4319 11.5525 50.327 11.1795 51.4458 11.1795C53.926 11.1795 55.1941 12.6154 55.1941 15.5991C55.1941 17.1656 54.8957 18.2844 54.2244 19.0304Z" fill="white"/>
<path d="M59.7815 6.61073V4H62.3176V6.61073H59.7815Z" fill="white"/>
<path d="M59.8561 22.4616V9.22147H62.3922V22.4616H59.8561Z" fill="white"/>
<path d="M66.1965 10.9371C64.8538 12.2797 64.1825 13.9395 64.1825 15.8788C64.1825 17.8369 64.8538 19.4779 66.2711 20.7087C67.6137 21.9768 69.2734 22.6481 71.362 22.6481C72.0333 22.6481 72.6301 22.5735 73.2268 22.4243C73.7523 22.2929 74.2199 22.1038 74.5788 21.9586L74.7186 21.9022C75.0913 21.6785 75.4648 21.4544 75.7629 21.2309C76.1359 21.007 76.3597 20.7833 76.4342 20.7087L76.658 20.4849L75.6137 18.6201L75.1662 19.0676C74.8678 19.3661 74.3457 19.6644 73.6744 19.9627C73.003 20.2612 72.3316 20.4103 71.5857 20.4103C70.2431 20.4103 69.1242 19.9627 68.2291 19.0676C67.334 18.1725 66.8864 17.0537 66.8864 15.711C66.8864 14.3684 67.2595 13.2495 68.1546 12.3543C69.0497 11.4592 70.0939 11.0117 71.4365 11.0117C72.1079 11.0117 72.7792 11.1609 73.376 11.4592C74.0473 11.7576 74.4203 11.9814 74.644 12.1306L75.0916 12.5782L76.2851 10.788L75.7629 10.3404C75.39 10.042 74.7932 9.669 73.9727 9.37066C73.1522 9.0723 72.2571 8.92311 71.2874 8.92311C69.1801 8.92311 67.5391 9.59444 66.1965 10.9371Z" fill="white"/>
<path fill-rule="evenodd" clip-rule="evenodd" d="M76.8259 15.8788C76.8259 13.7903 77.4225 12.1306 78.6907 10.8625C79.9587 9.59444 81.5251 8.9977 83.4086 8.9977C85.1988 8.9977 86.616 9.59444 87.6045 10.7134C88.5745 11.9068 89.0962 13.3241 89.0962 15.1329L89.0218 16.2518H79.3806C79.4552 17.669 79.9028 18.7133 80.7979 19.4592C81.693 20.2052 82.7373 20.5782 83.9307 20.5782C84.6021 20.5782 85.2734 20.4289 85.9448 20.2052C86.616 19.9814 87.0636 19.6831 87.3622 19.4592L87.8096 19.0863L88.8539 20.9511C88.7868 21.018 88.705 21.0848 88.6149 21.1584C88.5042 21.2489 88.3804 21.35 88.2569 21.4733C87.9584 21.6971 87.3622 21.9954 86.5415 22.2937C85.6463 22.6667 84.7512 22.8159 83.7816 22.8159C81.7676 22.8159 80.0333 22.1446 78.7652 20.8765C77.4972 19.4779 76.8259 17.8369 76.8259 15.8788ZM79.5112 14.3124H86.5415C86.5415 13.1935 86.1685 12.373 85.5718 11.8508C84.9751 11.2541 84.2292 10.9557 83.334 10.9557C82.3644 10.9557 81.4693 11.2541 80.7979 11.8508C80.1079 12.4476 79.7349 13.2681 79.5112 14.3124Z" fill="white"/>
<path d="M90.9608 9.22148V22.4616L93.4969 22.3684V16.9791C93.4969 16.084 93.5722 15.2635 93.7954 14.5921C94.0939 13.697 94.6156 12.8765 95.2871 12.3544C95.9585 11.8322 96.7044 11.5339 97.5255 11.5339C97.8231 11.5339 98.0472 11.5339 98.2714 11.6085V9.14689L97.5999 9.0723C96.5556 9.0723 95.7353 9.37067 94.9895 10.042C94.2427 10.6388 93.721 11.5339 93.4225 12.5036H93.3481L93.4225 11.5339V9.22148H90.9608Z" fill="white"/>
<path d="M101.497 17.6131V11.4779H99.7812V9.4639H101.571V5.64106H104.033V9.4639H107.241V11.4779H104.033V17.3147C104.033 17.8369 104.108 18.2844 104.257 18.6574C104.406 19.0304 104.556 19.3287 104.779 19.5525C105.001 19.7745 105.224 19.923 105.445 20.071L105.45 20.0746C105.749 20.2238 105.973 20.2984 106.196 20.2984C106.308 20.2984 106.421 20.3171 106.533 20.3358C106.644 20.3544 106.756 20.3731 106.868 20.3731L107.465 20.2984V22.5362C107.367 22.5362 107.255 22.5504 107.128 22.5664C106.966 22.5871 106.779 22.6108 106.569 22.6108C106.122 22.6108 105.749 22.6108 105.376 22.5362L105.274 22.5161C104.923 22.4471 104.516 22.367 104.108 22.1633C103.586 21.9394 103.213 21.7157 102.84 21.3427C102.467 20.9697 102.168 20.5222 101.945 19.9255C101.647 19.1795 101.497 18.5082 101.497 17.6131Z" fill="white"/>
<path fill-rule="evenodd" clip-rule="evenodd" d="M109.348 5.19347V8.10257H109.796V6.98369H110.393L110.989 8.10257H111.436L110.84 6.98369C110.84 6.90909 110.766 6.8345 110.766 6.8345C110.914 6.7599 111.063 6.68531 111.139 6.53612C111.213 6.46153 111.287 6.23776 111.287 6.08857C111.287 5.8648 111.213 5.71561 111.139 5.56643C111.063 5.41725 110.914 5.34265 110.766 5.26806C110.69 5.19347 110.467 5.19347 110.243 5.19347H109.348ZM110.411 6.53612H109.814L109.889 5.49184H110.336C110.485 5.49184 110.635 5.49184 110.709 5.56643C110.858 5.64102 110.933 5.79021 110.933 6.01398C110.933 6.16317 110.858 6.31235 110.784 6.38695C110.709 6.46154 110.561 6.53612 110.411 6.53612Z" fill="white"/>
<path fill-rule="evenodd" clip-rule="evenodd" d="M107.651 6.61073C107.651 5.11888 108.845 4 110.262 4C111.679 4 112.872 5.19348 112.872 6.61073C112.872 8.02799 111.679 9.22146 110.262 9.22146C108.77 9.22146 107.651 8.02799 107.651 6.61073ZM108.173 6.61073C108.173 7.80421 109.143 8.69931 110.262 8.69931C111.455 8.69931 112.351 7.72961 112.351 6.61073C112.351 5.41726 111.381 4.52215 110.262 4.52215C109.068 4.52215 108.173 5.49184 108.173 6.61073Z" fill="white"/>
<path fill-rule="evenodd" clip-rule="evenodd" d="M24.3316 17.7623C24.0262 14.205 21.9709 11.6102 19.9566 9.06703C19.5105 8.50389 19.0665 7.94329 18.6439 7.37534C19.5905 5.99189 21.6742 6.38536 23.2475 6.68244L23.3619 6.70402C21.3478 5.28677 18.9423 4.46625 16.4061 4.24248C11.539 4.16788 7.66022 7.00238 4.0611 10.1539C2.52627 9.67758 2.83148 8.37511 3.1383 7.06581C3.2639 6.5298 3.38978 5.99263 3.38978 5.51054C1.52497 8.04667 0.928228 10.8998 1.00282 13.8089C1.07742 16.4196 2.1963 18.9745 3.68814 21.2868L3.70488 21.3059C4.74359 22.493 5.78231 23.6802 6.82101 24.8859C5.91412 26.3758 4.21961 26.0092 2.75128 25.6916C2.52884 25.6435 2.31159 25.5965 2.10306 25.5572C4.63919 27.422 7.49236 28.0188 10.4014 27.9442C13.0122 27.8696 15.567 26.7507 17.8047 25.2589C18.9982 24.2145 20.1917 23.1702 21.4038 22.126C22.4481 23.3194 22.6718 25.3335 22.0752 26.8439C23.8654 24.2705 24.5553 21.119 24.3316 17.7623ZM20.8816 17.9115C19.9865 19.0304 18.8677 20.3731 18.8677 20.3731C18.0054 21.3503 17.2318 21.9288 16.7174 22.3134C16.5643 22.4279 16.4342 22.5252 16.3315 22.6108C14.8397 23.7297 12.9749 24.4011 11.0915 24.4757H10.6439L8.48074 22.3124C8.22213 21.9964 7.97459 21.7467 7.7168 21.4867C7.30536 21.0718 6.86782 20.6305 6.31752 19.8509C5.19864 18.2845 4.52731 16.4942 4.45272 14.6108V13.9395L6.54127 12.0747C9.00283 9.91145 11.7068 7.95343 15.0635 7.95343H15.2127L16.8537 10.1166C17.1516 10.528 17.469 10.9373 17.7898 11.351C19.1561 13.1129 20.5841 14.9544 20.8257 17.3707C20.8147 17.3817 20.8363 17.5435 20.8559 17.6889C20.8693 17.7889 20.8816 17.8811 20.8816 17.9115Z" fill="white"/>
</g>
<defs>
<clipPath id="clip0_1222_3684">
<rect width="112" height="32" fill="white" transform="translate(0.996704)"/>
</clipPath>
</defs>
</svg>