<?xml version="1.0" encoding="utf-8"?>
<svg xmlns="http://www.w3.org/2000/svg" width="126" height="48" viewBox="0 0 126 48" fill="none">
<path d="M52.935 42.1307C52.0228 41.1405 46.9707 35.4685 46.6932 34.6944C46.5148 34.1963 46.678 32.9412 47.6621 32.1045C48.646 31.2677 49.7119 31.0601 50.0554 31.2708C50.9694 31.8322 55.1672 35.7606 55.4586 36.0658C55.7501 36.3709 55.9754 36.3864 56.1647 35.9762C57.572 32.9273 60.5457 27.8475 62.3679 24.9515C63.8037 22.6698 66.8447 18.1115 72.2196 14.1105C74.4849 12.4241 77.1383 11.9473 78.0927 11.9628C78.844 11.9749 79.1392 12.405 78.5884 12.804C77.2714 13.7579 75.3129 15.7429 73.6679 17.8091C71.0862 21.0519 68.8671 24.5399 66.7884 28.1171C64.8518 31.4499 60.1384 39.818 58.881 41.9228C58.1613 43.0593 54.3532 43.5489 52.935 42.1307Z" fill="#798291"/>
<path d="M19.9889 19.0441H19.1063V24.0006H19.9211C21.0752 24.0006 22.0259 23.797 22.6368 23.3897C23.2478 23.0501 23.5873 22.3711 23.5873 21.4884C23.5873 19.8591 22.3651 19.0441 19.9889 19.0441Z" fill="#D3D8E1"/>
<path fill-rule="evenodd" clip-rule="evenodd" d="M44.8132 33.97C44.7791 34.427 44.8247 34.8821 44.9773 35.3082C45.091 35.6249 45.2305 36.0113 47.1924 38.3434L16.4212 48L0 3.29839L59.1577 0L66.6102 16.5944C63.4531 19.8041 61.5863 22.769 60.8252 23.9784C60.6478 24.2605 60.4553 24.5699 60.2514 24.9012V15.1054H53.1223V31.4302C52.2346 30.6475 51.4224 29.968 51.0106 29.715C50.7689 29.5667 50.497 29.4707 50.2027 29.4178V28.413C49.3896 28.7884 48.5763 28.9906 47.8165 29.1795C47.7514 29.1956 47.6867 29.2117 47.6225 29.2278C46.8079 29.4318 45.925 29.4996 45.1104 29.4996C44.2958 29.4996 43.5487 29.3636 42.802 29.16C42.0548 28.9564 41.4439 28.6169 40.9008 28.2096C40.3577 27.8021 39.9504 27.2588 39.6108 26.6479C39.2713 25.969 39.1355 25.2222 39.1355 24.4073C39.1355 22.7101 39.6106 21.4879 40.6291 20.6052C41.6476 19.7906 42.9376 19.3153 44.5669 19.3153C45.5177 19.3153 46.4681 19.4509 47.3508 19.7226C48.2332 19.9262 49.048 20.2657 49.727 20.673V15.7166C49.335 15.566 49.117 15.4823 48.8948 15.4119C48.6165 15.3238 48.3316 15.2568 47.69 15.1057C46.5359 14.9021 45.246 14.8343 43.888 14.8343C42.123 14.8343 40.4932 15.0379 38.9996 15.5132C37.5058 15.9887 36.2158 16.6674 35.1295 17.4822C34.0432 18.3649 33.2284 19.3831 32.6174 20.5375C32.0065 21.7596 31.7347 23.0496 31.7347 24.4753C31.7347 25.9012 32.0065 27.1912 32.5496 28.4132C33.0928 29.5676 33.9077 30.5858 34.9939 31.4008C36.0803 32.2156 37.3702 32.8265 38.9318 33.3019C40.4255 33.7772 42.1907 33.9809 44.1596 33.9809C44.3831 33.9809 44.5994 33.9763 44.8132 33.97ZM56.7204 5.19288C55.4983 5.19288 54.4801 5.53238 53.6652 6.27917C52.8506 7.02596 52.4434 7.9767 52.443 9.26664C52.443 10.4885 52.8504 11.507 53.6652 12.186C54.4798 12.9328 55.4983 13.2724 56.7204 13.2724C57.9426 13.2724 58.9608 12.8647 59.7757 12.186C60.5905 11.5073 60.9978 10.4888 60.9978 9.26664C60.9978 7.9767 60.5905 6.95819 59.7757 6.27917C58.9612 5.53238 57.9426 5.19288 56.7204 5.19288ZM27.5935 26.4443C28.4762 25.9012 29.1548 25.1544 29.6303 24.3395C30.1056 23.4569 30.377 22.5061 30.377 21.4201C30.377 19.3153 29.4944 17.6858 27.7291 16.6674C25.9638 15.6488 23.5198 15.1057 20.3964 15.1057H12.113V33.641H19.1746V28.0738H20.2609C21.8222 28.0738 23.1803 27.9382 24.4025 27.6665C25.6246 27.3948 26.7109 26.9875 27.5935 26.4443Z" fill="#D3D8E1"/>
<path d="M68.3654 29.0333C67.8862 29.8578 67.2278 31.0071 66.498 32.2861L72.7715 30.3174L70.5618 25.3969C69.849 26.5276 69.1201 27.7345 68.3654 29.0333Z" fill="#D3D8E1"/>
<path d="M104.841 10.6246C106.746 10.6246 107.344 11.865 107.455 12.5959L110.601 11.7096C110.268 9.87141 108.784 7.52344 104.864 7.52344C101.851 7.52344 99.2374 9.60515 99.2374 12.5735C99.2374 14.8992 100.854 16.6712 103.512 17.1806L105.661 17.5794C106.702 17.7788 107.344 18.3547 107.344 19.1524C107.344 20.1268 106.503 20.7914 105.129 20.7914C102.981 20.7914 102.006 19.5286 101.873 18.0892L98.6613 18.8645C98.8829 21.0793 100.744 23.8924 105.085 23.8924C108.829 23.8924 110.888 21.3896 110.888 18.9307C110.888 16.6937 109.338 14.7667 106.348 14.2129L104.244 13.8142C103.158 13.6147 102.693 13.0613 102.693 12.3078C102.693 11.444 103.534 10.6246 104.841 10.6246Z" fill="#798291"/>
<path fill-rule="evenodd" clip-rule="evenodd" d="M83.7351 7.85625V23.5607H89.4053C94.1455 23.5607 97.3129 20.5705 97.3129 15.7195C97.3129 10.8686 94.1455 7.85625 89.4277 7.85625H83.7351ZM93.6583 15.7195C93.6583 18.8648 91.6866 20.2602 89.2724 20.2602H87.2347V11.1565H89.2724C91.6869 11.1565 93.6583 12.5743 93.6583 15.7195Z" fill="#798291"/>
<path d="M120.944 12.5959C120.834 11.865 120.235 10.6246 118.331 10.6246C117.024 10.6246 116.182 11.444 116.182 12.3078C116.182 13.0613 116.647 13.6147 117.733 13.8142L119.837 14.2129C122.827 14.7667 124.378 16.6937 124.378 18.9307C124.378 21.3896 122.318 23.8924 118.574 23.8924C114.233 23.8924 112.373 21.0793 112.151 18.8645L115.363 18.0892C115.496 19.5286 116.47 20.7914 118.619 20.7914C119.992 20.7914 120.834 20.1268 120.834 19.1524C120.834 18.3547 120.191 17.7788 119.15 17.5794L117.002 17.1806C114.344 16.6712 112.727 14.8992 112.727 12.5735C112.727 9.60515 115.341 7.52344 118.353 7.52344C122.274 7.52344 123.757 9.87141 124.09 11.7096L120.944 12.5959Z" fill="#798291"/>
<path d="M85.9094 28.1203C84.5468 28.1203 83.3906 29.1525 83.3906 30.6738C83.3906 32.1947 84.5195 33.2065 85.9233 33.2065C87.4376 33.2065 88.0844 32.1743 88.2428 31.4995L87.2036 31.2035C87.1073 31.5548 86.7698 32.1189 85.9233 32.1189C85.1939 32.1189 84.5195 31.5893 84.5195 30.6738C84.5195 29.6483 85.2559 29.1801 85.9094 29.1801C86.7698 29.1801 87.0795 29.7516 87.1553 30.0887L88.1808 29.7653C88.0224 29.0634 87.3753 28.1203 85.9094 28.1203Z" fill="#798291"/>
<path fill-rule="evenodd" clip-rule="evenodd" d="M91.2012 28.1203C92.5707 28.1203 93.7339 29.1181 93.7339 30.6671C93.7339 32.2086 92.5707 33.2065 91.2012 33.2065C89.8245 33.2065 88.6617 32.2086 88.6617 30.6671C88.6617 29.1181 89.8245 28.1203 91.2012 28.1203ZM91.2012 32.133C91.8756 32.133 92.6051 31.6786 92.6051 30.6597C92.6051 29.6412 91.8756 29.1801 91.2012 29.1801C90.5197 29.1801 89.7902 29.6416 89.7902 30.6597C89.7906 31.6786 90.5197 32.133 91.2012 32.133Z" fill="#798291"/>
<path d="M98.97 29.8696V33.1042L100.037 33.1044V28.2246H98.5435L97.2707 31.5215L95.9285 28.2246H94.5105V33.1044H95.543V29.9108L96.816 33.1044H97.6968L98.97 29.8696Z" fill="#798291"/>
<path fill-rule="evenodd" clip-rule="evenodd" d="M102.182 31.3494V33.1042H101.094V28.2246H102.932C103.923 28.2246 104.604 28.8784 104.604 29.7872C104.604 30.7093 103.923 31.3494 102.932 31.3494H102.182ZM102.822 30.4133C103.235 30.4133 103.517 30.1723 103.517 29.7938C103.517 29.4014 103.235 29.1674 102.822 29.1674H102.189V30.4133H102.822Z" fill="#798291"/>
<path d="M105.278 28.2246V33.1042L108.471 33.1044V32.0652H106.365V28.2246H105.278Z" fill="#798291"/>
<path d="M109.172 33.1042V28.2246H110.273V33.1044L109.172 33.1042Z" fill="#798291"/>
<path fill-rule="evenodd" clip-rule="evenodd" d="M112.356 32.1133H114.242L114.594 33.1044H115.777L113.96 28.2246H112.701L110.863 33.1044H112.005L112.356 32.1133ZM113.898 31.1221H112.714L113.313 29.4359L113.898 31.1221Z" fill="#798291"/>
<path d="M119.467 33.1042L117.457 29.8969V33.1042H116.377V28.2246H117.698L119.529 31.1911V28.2246H120.617V33.1044L119.467 33.1042Z" fill="#798291"/>
<path d="M123.856 33.1044V29.2638H125.363V28.2246H121.268V29.2638H122.768V33.1044H123.856Z" fill="#798291"/>
</svg>