<?xml version="1.0" encoding="utf-8"?>
<svg xmlns="http://www.w3.org/2000/svg" width="48" height="48" viewBox="0 0 48 48" fill="none">
<path fill-rule="evenodd" clip-rule="evenodd" d="M5.18548 18.2868C5.18548 18.2868 -0.794552 13.8041 3.40833 8C3.40833 8 9.08778 11.6423 5.18548 18.2868ZM5.13092 24.9123C5.13092 24.9123 -1.87191 22.4099 0.484694 15.6052C0.484694 15.6052 6.95933 17.3935 5.13092 24.9123ZM7.56273 31.3115C7.56273 31.3115 0.143221 31.2725 0.200861 24.0555C0.200861 24.0555 6.89319 23.5949 7.56273 31.3115ZM11.9542 36.471C11.9542 36.471 4.96909 39.0244 2.60482 32.2224C2.60482 32.2224 8.73921 29.4534 11.9542 36.471ZM17.5481 39.8689C17.5481 39.8689 11.758 44.6042 7.35283 38.9585C7.35283 38.9585 12.2698 34.302 17.5481 39.8689ZM23.9757 41.2422C23.9757 41.2422 19.9027 47.5719 14.0038 43.5919C14.0038 43.5919 17.2702 37.6125 23.9757 41.2422ZM24 43.0366C23.9854 42.993 23.9765 42.9696 23.9765 42.9696C20.1567 44.6105 21.7262 47.9998 21.7262 47.9998C23.0154 47.5901 23.6808 46.8588 24 46.0785C24.3193 46.8588 24.9847 47.5901 26.2739 47.9998C26.2739 47.9998 27.8434 44.6105 24.0236 42.9696C24.0236 42.9696 24.0147 42.993 24 43.0366ZM42.8145 18.2868C42.8145 18.2868 48.7946 13.8041 44.5917 8C44.5917 8 38.9122 11.6423 42.8145 18.2868ZM42.8691 24.9123C42.8691 24.9123 49.8719 22.4099 47.5153 15.6052C47.5153 15.6052 41.0407 17.3935 42.8691 24.9123ZM40.4373 31.3115C40.4373 31.3115 47.8568 31.2725 47.7992 24.0555C47.7992 24.0555 41.1069 23.5949 40.4373 31.3115ZM36.0458 36.471C36.0458 36.471 43.0309 39.0244 45.3952 32.2224C45.3952 32.2224 39.2608 29.4534 36.0458 36.471ZM30.452 39.8689C30.452 39.8689 36.2421 44.6042 40.6472 38.9585C40.6472 38.9585 35.7303 34.302 30.452 39.8689ZM24.0243 41.2422C24.0243 41.2422 28.0973 47.5719 33.9962 43.5919C33.9962 43.5919 30.7298 37.6125 24.0243 41.2422Z" fill="url(#paint0_linear_12576_1458)"/>
<path d="M19.1807 13H14.9424V5.86133H19.1807V7.40918H16.8711V8.53223H19.0098V10.0801H16.8711V11.4277H19.1807V13ZM23.2969 8.82031H26.3779V12.668C26.0101 12.7949 25.5885 12.8991 25.1133 12.9805C24.638 13.0586 24.14 13.0977 23.6191 13.0977C22.9323 13.0977 22.3301 12.9642 21.8125 12.6973C21.2949 12.4303 20.8913 12.0251 20.6016 11.4814C20.3118 10.9346 20.167 10.2445 20.167 9.41113C20.167 8.66243 20.3102 8.01628 20.5967 7.47266C20.8831 6.92578 21.3047 6.50423 21.8613 6.20801C22.4212 5.90853 23.1064 5.75879 23.917 5.75879C24.363 5.75879 24.7861 5.80111 25.1865 5.88574C25.5869 5.97038 25.9352 6.0778 26.2314 6.20801L25.6211 7.72168C25.3639 7.59473 25.097 7.50033 24.8203 7.43848C24.5436 7.37337 24.2458 7.34082 23.9268 7.34082C23.5003 7.34082 23.1569 7.43685 22.8965 7.62891C22.6393 7.82096 22.4521 8.07812 22.335 8.40039C22.2178 8.7194 22.1592 9.07259 22.1592 9.45996C22.1592 9.90267 22.221 10.277 22.3447 10.583C22.4717 10.8857 22.6556 11.1169 22.8965 11.2764C23.1406 11.4326 23.4352 11.5107 23.7803 11.5107C23.8942 11.5107 24.0326 11.5026 24.1953 11.4863C24.3613 11.4701 24.4867 11.4505 24.5713 11.4277V10.3096H23.2969V8.82031ZM30.1719 5.86133C30.8197 5.86133 31.3584 5.94108 31.7881 6.10059C32.2178 6.25684 32.54 6.49121 32.7549 6.80371C32.973 7.11621 33.082 7.50521 33.082 7.9707C33.082 8.26042 33.0332 8.52409 32.9355 8.76172C32.8379 8.99935 32.6979 9.21257 32.5156 9.40137C32.3366 9.58691 32.1217 9.74967 31.8711 9.88965L33.9512 13H31.7637L30.25 10.4023H29.7617V13H27.833V5.86133H30.1719ZM30.1426 7.32129H29.7617V8.95215H30.123C30.4193 8.95215 30.6618 8.88704 30.8506 8.75684C31.0394 8.62663 31.1338 8.39388 31.1338 8.05859C31.1338 7.82747 31.0557 7.64681 30.8994 7.5166C30.7432 7.38639 30.4909 7.32129 30.1426 7.32129Z" fill="url(#paint1_linear_12576_1458)"/>
<path d="M16.1831 17.0029L14.9526 22H13.3564L12.8779 19.8228C12.8688 19.7817 12.854 19.7122 12.8335 19.6143C12.8153 19.5163 12.7936 19.4046 12.7686 19.2793C12.7458 19.154 12.7241 19.0309 12.7036 18.9102C12.6854 18.7871 12.6717 18.6834 12.6626 18.5991C12.6535 18.6834 12.6387 18.7871 12.6182 18.9102C12.5977 19.0309 12.5749 19.154 12.5498 19.2793C12.527 19.4046 12.5042 19.5163 12.4814 19.6143C12.4609 19.7122 12.4461 19.7817 12.437 19.8228L11.9551 22H10.3589L9.12158 17.0029H10.4238L10.9673 19.5083C10.981 19.5698 10.9992 19.6576 11.022 19.7715C11.047 19.8831 11.0721 20.0062 11.0972 20.1406C11.1245 20.2728 11.1496 20.4004 11.1724 20.5234C11.1951 20.6465 11.2111 20.749 11.2202 20.8311C11.2384 20.6898 11.2624 20.5291 11.292 20.3491C11.3239 20.1691 11.3581 19.9868 11.3945 19.8022C11.4333 19.6154 11.4697 19.4422 11.5039 19.2827C11.5381 19.1232 11.5677 18.9933 11.5928 18.8931L12.0337 17.0029H13.2847L13.7119 18.8931C13.7347 18.991 13.7632 19.1209 13.7974 19.2827C13.8338 19.4422 13.8703 19.6154 13.9067 19.8022C13.9455 19.9891 13.9808 20.1737 14.0127 20.356C14.0446 20.536 14.0685 20.6943 14.0845 20.8311C14.0981 20.7171 14.1209 20.5736 14.1528 20.4004C14.1847 20.2249 14.2166 20.0552 14.2485 19.8911C14.2827 19.7248 14.3089 19.5994 14.3271 19.5151L14.8809 17.0029H16.1831ZM16.8291 22V17.0029H18.186V22H16.8291ZM24.0273 22H22.2568L20.4316 18.4795H20.4009C20.4123 18.5866 20.4225 18.7153 20.4316 18.8657C20.4408 19.0161 20.4487 19.1699 20.4556 19.3271C20.4624 19.4821 20.4658 19.6222 20.4658 19.7476V22H19.2695V17.0029H21.0332L22.8516 20.4756H22.8721C22.8652 20.3662 22.8584 20.2397 22.8516 20.0962C22.8447 19.9504 22.8379 19.8034 22.8311 19.6553C22.8265 19.5072 22.8242 19.3761 22.8242 19.2622V17.0029H24.0273V22ZM29.8652 22H28.0947L26.2695 18.4795H26.2388C26.2502 18.5866 26.2604 18.7153 26.2695 18.8657C26.2786 19.0161 26.2866 19.1699 26.2935 19.3271C26.3003 19.4821 26.3037 19.6222 26.3037 19.7476V22H25.1074V17.0029H26.8711L28.6895 20.4756H28.71C28.7031 20.3662 28.6963 20.2397 28.6895 20.0962C28.6826 19.9504 28.6758 19.8034 28.6689 19.6553C28.6644 19.5072 28.6621 19.3761 28.6621 19.2622V17.0029H29.8652V22ZM33.9121 22H30.9453V17.0029H33.9121V18.0864H32.2954V18.8726H33.7925V19.9561H32.2954V20.8994H33.9121V22ZM36.4243 17.0029C36.8778 17.0029 37.2549 17.0588 37.5557 17.1704C37.8564 17.2798 38.082 17.4438 38.2324 17.6626C38.3851 17.8813 38.4614 18.1536 38.4614 18.4795C38.4614 18.6823 38.4272 18.8669 38.3589 19.0332C38.2905 19.1995 38.1925 19.3488 38.0649 19.481C37.9396 19.6108 37.7892 19.7248 37.6138 19.8228L39.0698 22H37.5386L36.479 20.1816H36.1372V22H34.7871V17.0029H36.4243ZM36.4038 18.0249H36.1372V19.1665H36.3901C36.5975 19.1665 36.7673 19.1209 36.8994 19.0298C37.0316 18.9386 37.0977 18.7757 37.0977 18.541C37.0977 18.3792 37.043 18.2528 36.9336 18.1616C36.8242 18.0705 36.6476 18.0249 36.4038 18.0249Z" fill="url(#paint2_linear_12576_1458)"/>
<path d="M19.5078 32H15.3633V30.9844L16.7578 29.5742C17.0469 29.2721 17.2708 29.0299 17.4297 28.8477C17.5911 28.6654 17.7044 28.5104 17.7695 28.3828C17.8346 28.2552 17.8672 28.1224 17.8672 27.9844C17.8672 27.8151 17.8125 27.6927 17.7031 27.6172C17.5938 27.5417 17.4648 27.5039 17.3164 27.5039C17.1367 27.5039 16.9544 27.556 16.7695 27.6602C16.5872 27.7617 16.3802 27.9128 16.1484 28.1133L15.3008 27.1211C15.4727 26.9674 15.6549 26.8216 15.8477 26.6836C16.0404 26.543 16.2682 26.4284 16.5312 26.3398C16.7943 26.2513 17.1146 26.207 17.4922 26.207C17.8802 26.207 18.2161 26.2747 18.5 26.4102C18.7865 26.5456 19.0078 26.7318 19.1641 26.9688C19.3203 27.2031 19.3984 27.4701 19.3984 27.7695C19.3984 28.1003 19.3372 28.3958 19.2148 28.6562C19.0951 28.9141 18.9141 29.1732 18.6719 29.4336C18.4297 29.6914 18.1276 29.9844 17.7656 30.3125L17.3477 30.6875V30.7266H19.5078V32ZM24.2188 29.1523C24.2188 29.6107 24.1823 30.0208 24.1094 30.3828C24.0365 30.7422 23.9193 31.0482 23.7578 31.3008C23.599 31.5534 23.388 31.7461 23.125 31.8789C22.862 32.0117 22.5391 32.0781 22.1562 32.0781C21.6797 32.0781 21.2891 31.9622 20.9844 31.7305C20.6797 31.4961 20.4544 31.1615 20.3086 30.7266C20.1654 30.2891 20.0938 29.7643 20.0938 29.1523C20.0938 28.5352 20.1589 28.0078 20.2891 27.5703C20.4219 27.1302 20.6393 26.793 20.9414 26.5586C21.2435 26.3242 21.6484 26.207 22.1562 26.207C22.6328 26.207 23.0221 26.3242 23.3242 26.5586C23.6289 26.7904 23.8542 27.1263 24 27.5664C24.1458 28.0039 24.2188 28.5326 24.2188 29.1523ZM21.6289 29.1523C21.6289 29.5247 21.6419 29.8372 21.668 30.0898C21.6966 30.3424 21.7487 30.5326 21.8242 30.6602C21.9023 30.7852 22.013 30.8477 22.1562 30.8477C22.2995 30.8477 22.4089 30.7852 22.4844 30.6602C22.5599 30.5326 22.612 30.3438 22.6406 30.0938C22.6693 29.8411 22.6836 29.5273 22.6836 29.1523C22.6836 28.7747 22.6693 28.4596 22.6406 28.207C22.612 27.9544 22.5599 27.7643 22.4844 27.6367C22.4089 27.5065 22.2995 27.4414 22.1562 27.4414C22.013 27.4414 21.9023 27.5065 21.8242 27.6367C21.7487 27.7643 21.6966 27.9544 21.668 28.207C21.6419 28.4596 21.6289 28.7747 21.6289 29.1523ZM28.8828 32H24.7383V30.9844L26.1328 29.5742C26.4219 29.2721 26.6458 29.0299 26.8047 28.8477C26.9661 28.6654 27.0794 28.5104 27.1445 28.3828C27.2096 28.2552 27.2422 28.1224 27.2422 27.9844C27.2422 27.8151 27.1875 27.6927 27.0781 27.6172C26.9688 27.5417 26.8398 27.5039 26.6914 27.5039C26.5117 27.5039 26.3294 27.556 26.1445 27.6602C25.9622 27.7617 25.7552 27.9128 25.5234 28.1133L24.6758 27.1211C24.8477 26.9674 25.0299 26.8216 25.2227 26.6836C25.4154 26.543 25.6432 26.4284 25.9062 26.3398C26.1693 26.2513 26.4896 26.207 26.8672 26.207C27.2552 26.207 27.5911 26.2747 27.875 26.4102C28.1615 26.5456 28.3828 26.7318 28.5391 26.9688C28.6953 27.2031 28.7734 27.4701 28.7734 27.7695C28.7734 28.1003 28.7122 28.3958 28.5898 28.6562C28.4701 28.9141 28.2891 29.1732 28.0469 29.4336C27.8047 29.6914 27.5026 29.9844 27.1406 30.3125L26.7227 30.6875V30.7266H28.8828V32ZM33.3789 27.5273C33.3789 27.7982 33.3203 28.0326 33.2031 28.2305C33.0885 28.4258 32.9349 28.5859 32.7422 28.7109C32.5521 28.8359 32.3438 28.9297 32.1172 28.9922V29.0156C32.5729 29.0729 32.9245 29.2122 33.1719 29.4336C33.4219 29.6523 33.5469 29.9635 33.5469 30.3672C33.5469 30.6797 33.4635 30.9661 33.2969 31.2266C33.1302 31.4844 32.8711 31.6914 32.5195 31.8477C32.168 32.0013 31.7161 32.0781 31.1641 32.0781C30.7943 32.0781 30.4792 32.0508 30.2188 31.9961C29.9583 31.9414 29.7057 31.8659 29.4609 31.7695V30.4883C29.7083 30.6159 29.9622 30.7109 30.2227 30.7734C30.4857 30.8333 30.7253 30.8633 30.9414 30.8633C31.3164 30.8633 31.5716 30.8099 31.707 30.7031C31.8451 30.5964 31.9141 30.4531 31.9141 30.2734C31.9141 30.1432 31.8815 30.0326 31.8164 29.9414C31.7513 29.8503 31.6302 29.7799 31.4531 29.7305C31.2786 29.681 31.0273 29.6562 30.6992 29.6562H30.3477V28.4961H30.707C30.9987 28.4961 31.2292 28.4701 31.3984 28.418C31.5703 28.3659 31.694 28.2956 31.7695 28.207C31.8451 28.1159 31.8828 28.0117 31.8828 27.8945C31.8828 27.7435 31.8242 27.6315 31.707 27.5586C31.5898 27.4857 31.4349 27.4492 31.2422 27.4492C31.0703 27.4492 30.9089 27.4727 30.7578 27.5195C30.6068 27.5664 30.4753 27.6185 30.3633 27.6758C30.2513 27.7331 30.1667 27.7799 30.1094 27.8164L29.4688 26.7852C29.7057 26.6237 29.9766 26.487 30.2812 26.375C30.5885 26.263 30.9896 26.207 31.4844 26.207C32.0729 26.207 32.5352 26.3242 32.8711 26.5586C33.2096 26.793 33.3789 27.1159 33.3789 27.5273Z" fill="url(#paint3_linear_12576_1458)"/>
<defs>
<linearGradient id="paint0_linear_12576_1458" x1="1.52588e-05" y1="8" x2="50.7751" y2="11.9036" gradientUnits="userSpaceOnUse">
<stop stop-color="#FFDC86"/>
<stop offset="0.550621" stop-color="#FFAD7B"/>
<stop offset="1" stop-color="#FFD492"/>
</linearGradient>
<linearGradient id="paint1_linear_12576_1458" x1="14" y1="4" x2="34.9376" y2="6.68276" gradientUnits="userSpaceOnUse">
<stop stop-color="#FFDC86"/>
<stop offset="0.550621" stop-color="#FFAD7B"/>
<stop offset="1" stop-color="#FFD492"/>
</linearGradient>
<linearGradient id="paint2_linear_12576_1458" x1="9" y1="14" x2="39.7848" y2="19.9167" gradientUnits="userSpaceOnUse">
<stop stop-color="#FFDC86"/>
<stop offset="0.550621" stop-color="#FFAD7B"/>
<stop offset="1" stop-color="#FFD492"/>
</linearGradient>
<linearGradient id="paint3_linear_12576_1458" x1="15" y1="24" x2="34.9221" y2="26.425" gradientUnits="userSpaceOnUse">
<stop stop-color="#FFDC86"/>
<stop offset="0.550621" stop-color="#FFAD7B"/>
<stop offset="1" stop-color="#FFD492"/>
</linearGradient>
</defs>
</svg>