<?xml version="1.0" encoding="utf-8"?>
<svg xmlns="http://www.w3.org/2000/svg" xmlns:xlink="http://www.w3.org/1999/xlink" version="1.1" id="Layer_1" x="0px" y="0px" viewBox="0 0 88.638 34" style="enable-background:new 0 0 88.638 34;">
<style type="text/css">
	.st0{fill:#FFFFFF;}
</style>
<path class="st0" d="M28.658,2.761v4.773H11.063c0,0-0.528-0.033-0.848,0.322C9.913,8.192,9.939,8.652,9.939,8.652L9.937,9.307&#xA;	h18.686v4.67H9.931l0.005,0.641c0,0,0.016,0.472,0.299,0.721c0.39,0.345,0.748,0.309,0.748,0.309h17.676v4.773H8.459&#xA;	c0,0-2.127,0.158-3.469-1.261c-1.302-1.377-1.263-3.114-1.263-3.114L3.73,7.329c0,0-0.131-1.925,1.256-3.43&#xA;	c1.115-1.21,3.142-1.144,3.142-1.144L28.658,2.761L28.658,2.761z M5.562,34c1.657,0,2.265-0.921,2.265-1.804&#xA;	c0-2.293-3.636-1.501-3.636-2.882c0-0.579,0.534-0.975,1.261-0.975c0.672,0,1.316,0.221,1.776,0.736l0.46-0.561&#xA;	c-0.515-0.543-1.243-0.865-2.172-0.865c-1.215,0-2.117,0.7-2.117,1.712c0,2.191,3.636,1.307,3.636,2.89&#xA;	c0,0.479-0.35,1.068-1.445,1.068c-0.001,0-0.001,0-0.002,0c-0.767,0-1.455-0.341-1.919-0.88l-0.003-0.003l-0.46,0.589&#xA;	C3.712,33.594,4.503,34,5.562,34L5.562,34z M18.559,33.889v-5.458h1.951v-0.682h-4.657v0.682h1.942v5.458H18.559z M31.391,34&#xA;	c1.666,0,2.513-0.976,2.513-2.504V27.75H33.13v3.737c0,1.123-0.608,1.832-1.74,1.832c-1.132,0-1.731-0.708-1.731-1.832v-3.737&#xA;	h-0.773v3.756C28.887,33.015,29.733,34,31.391,34L31.391,34z M44.802,33.208h-1.335V28.43h1.335c1.519,0,2.357,1.068,2.357,2.394&#xA;	C47.158,32.14,46.293,33.208,44.802,33.208L44.802,33.208z M44.802,33.889c1.915,0,3.148-1.316,3.148-3.065&#xA;	c0-1.74-1.233-3.075-3.148-3.075h-2.098v6.14H44.802z"/>
<path class="st0" d="M56.51,33.889h0.764V27.75H56.51V33.889z M68.872,33.318c-1.381,0-2.255-1.068-2.255-2.495&#xA;	c0-1.435,0.874-2.494,2.255-2.494c1.372,0,2.265,1.059,2.265,2.495C71.137,32.251,70.244,33.319,68.872,33.318L68.872,33.318z&#xA;	 M68.872,33.999c1.813,0,3.056-1.362,3.056-3.175c0-1.813-1.243-3.176-3.056-3.176s-3.047,1.363-3.047,3.176&#xA;	S67.059,33.999,68.872,33.999L68.872,33.999z M82.468,34c1.657,0,2.265-0.921,2.265-1.804c0-2.293-3.636-1.501-3.636-2.882&#xA;	c0-0.579,0.534-0.975,1.261-0.975c0.672,0,1.316,0.221,1.776,0.736l0.46-0.561c-0.515-0.543-1.243-0.865-2.172-0.865&#xA;	c-1.215,0-2.117,0.7-2.117,1.712c0,2.191,3.636,1.307,3.636,2.89c0,0.479-0.35,1.068-1.445,1.068c-0.001,0-0.001,0-0.002,0&#xA;	c-0.767,0-1.455-0.341-1.919-0.88l-0.003-0.003l-0.46,0.589C80.618,33.594,81.409,34,82.468,34L82.468,34z M30.102,2.726h6.171&#xA;	v12.887h18.955v4.807H30.102L30.102,2.726z M72.615,2.829h7.364l-10.432,8.625l10.602,8.898H72.41l-9.974-8.353l-0.016,8.353h-6.035&#xA;	V2.829h6.035l-0.035,7.329L72.615,2.829z"/>
<path class="st0" d="M63.795,14.914l-0.013,6.801h-7.191l-26.57,0.069H8.497c-0.052,0.003-0.13,0.005-0.231,0.005&#xA;	c-0.801,0-2.82-0.165-4.266-1.692c-1.601-1.692-1.64-3.747-1.636-4.061l0.004-8.671c-0.02-0.44-0.027-2.606,1.617-4.39&#xA;	c1.353-1.469,3.471-1.584,4.087-1.584l29.565-0.028V14.25h17.388V1.466h8.767l-0.029,6.03l8.415-6.03h11.59l-12.09,9.996&#xA;	l12.218,10.253H71.915L63.795,14.914L63.795,14.914z M73.806,11.47L87.554,0.103H71.739l-6.601,4.73l0.023-4.73h-11.5v12.784H38.998&#xA;	V0L8.071,0.028c-0.756,0-3.36,0.146-5.09,2.023c-1.933,2.1-2.007,4.578-1.977,5.342l-0.004,8.635&#xA;	c-0.005,0.499,0.076,2.962,2.009,5.006c1.809,1.912,4.278,2.119,5.256,2.119l23.118-0.006l33.758-0.068l0.01-5.249l6.267,5.249&#xA;	h16.219L73.806,11.47L73.806,11.47z"/>
<path class="st0" d="M28.658,2.761v4.773H11.063c0,0-0.528-0.033-0.848,0.322C9.913,8.192,9.939,8.652,9.939,8.652L9.937,9.307&#xA;	h18.686v4.67H9.931l0.005,0.641c0,0,0.016,0.472,0.299,0.721c0.39,0.345,0.748,0.309,0.748,0.309h17.676v4.773H8.459&#xA;	c0,0-2.127,0.158-3.469-1.261c-1.302-1.377-1.263-3.114-1.263-3.114L3.73,7.329c0,0-0.131-1.925,1.256-3.43&#xA;	c1.115-1.21,3.142-1.144,3.142-1.144L28.658,2.761L28.658,2.761z M30.102,2.726h6.171v12.887h18.955v4.807H30.102L30.102,2.726z&#xA;	 M72.615,2.829h7.364l-10.432,8.625l10.602,8.898H72.41l-9.974-8.353l-0.016,8.353h-6.035V2.829h6.035l-0.035,7.329L72.615,2.829z"/>
</svg>