<?xml version="1.0" encoding="utf-8"?>
<svg xmlns="http://www.w3.org/2000/svg" xmlns:xlink="http://www.w3.org/1999/xlink" version="1.1" id="Layer_1" x="0px" y="0px" viewBox="0 0 177 34" style="enable-background:new 0 0 177 34;">
<style type="text/css">
	.st0{fill:#FFFFFF;}
</style>
<g>
	<g>
		<path class="st0" d="M29.5,3H49v4.4H34.6v6.5h9.6v4.4h-9.6v7.2h14.9v4.4h-20V3z"/>
		<path class="st0" d="M48.1,10.9h5.2l4.6,13.4l4.2-13.4h5l-7,19.2h-4.7L48.1,10.9z"/>
		<path class="st0" d="M66.3,20.5c0-5.9,4.1-10,9.9-10c5.8,0,9.8,4.1,9.8,10c0,5.8-4.2,9.9-10,9.9C70.3,30.4,66.3,26.4,66.3,20.5z&#xA;			 M80.9,20.6v-0.2c0-3.7-1.8-5.9-4.7-5.9c-3,0-4.8,2.2-4.8,5.9v0.2c0,3.6,1.7,5.7,4.7,5.7C79.1,26.3,80.9,24.2,80.9,20.6z"/>
		<path class="st0" d="M88.3,2.7h5.1v27.4h-5.1V2.7z"/>
		<path class="st0" d="M96.3,22.4V10.9h5v11.2c0,2.6,1.2,4.1,3.5,4.1c2.6,0,3.7-2.2,3.7-5.5v-9.8h5v19.2h-5v-2.7&#xA;			c-1,2-2.8,3.1-5.2,3.1C99,30.4,96.3,27.3,96.3,22.4z"/>
		<path class="st0" d="M118.3,25v-10h-2.7v-4.1h2.7V7.2l4.9-2.8v6.4h3.8v4.1h-3.8v9.6c0,0.9,0.4,1.3,1.4,1.4h2.2v4.2h-3.9&#xA;			C119.2,29.9,118.3,28.1,118.3,25z"/>
		<path class="st0" d="M129.3,3.1h5.2V8h-5.2V3.1z M129.3,10.9h5.1v19.2h-5.1V10.9z"/>
		<path class="st0" d="M136.7,20.5c0-5.9,4.1-10,9.9-10c5.8,0,9.8,4.1,9.8,10c0,5.8-4.1,9.9-10,9.9&#xA;			C140.7,30.4,136.7,26.4,136.7,20.5z M151.3,20.6v-0.2c0-3.7-1.8-5.9-4.7-5.9c-3,0-4.8,2.2-4.8,5.9v0.2c0,3.6,1.7,5.7,4.7,5.7&#xA;			C149.5,26.3,151.3,24.2,151.3,20.6z"/>
		<path class="st0" d="M158.7,10.9h5V14c1-2.2,2.9-3.5,5.6-3.5c4.2,0,6.7,2.8,6.7,8.1v11.5h-5V18.8c0-2.7-1-4.1-3.4-4.1&#xA;			c-2.4,0-3.9,2-3.9,5.5v9.8h-5L158.7,10.9L158.7,10.9z"/>
	</g>
	<path class="st0" d="M22.3,33.6c-0.9,0-1.6-0.7-1.6-1.6c0-0.9,0.7-1.6,1.6-1.6c0.9,0,1.6,0.7,1.6,1.6&#xA;		C23.9,32.9,23.2,33.6,22.3,33.6 M22.3,30.1c-1.1,0-2,0.9-2,2c0,1.1,0.9,2,2,2c1.1,0,2-0.9,2-2C24.3,30.9,23.4,30.1,22.3,30.1"/>
	<g>
		<path class="st0" d="M19.1,15.6c1.6,0.1,3.3,0,5.2-0.1c-0.3-3.8-1.5-7-3.4-9.5C21,6.7,21,7.4,21,8.1C21,10.8,20.3,13.4,19.1,15.6z"/>
		<path class="st0" d="M18.4,16.7c-2.8,4.2-7.6,7-13,7c-0.4,0-0.8,0-1.2,0C2.9,25.8,2,28.1,1,30.3c9.7,5.2,22.3-0.3,23.3-13.5&#xA;			C22.1,16.6,20.2,16.6,18.4,16.7z"/>
		<path class="st0" d="M1,1.9C3.7,8,5.7,15.2,19.1,15.6c1.2-2.2,1.9-4.8,1.9-7.5c0-0.7,0-1.4-0.1-2.1C16.3,0,7.9-1.8,1,1.9z"/>
		<path class="st0" d="M18.4,16.7c-8,0.4-11.8,3.3-14.2,6.9c0.4,0,0.8,0,1.2,0C10.9,23.7,15.6,20.9,18.4,16.7z"/>
	</g>
	<g>
		<path class="st0" d="M21.5,31.7h-0.3v-0.2h0.8v0.2h-0.3v0.8h-0.2C21.5,32.5,21.5,31.7,21.5,31.7z"/>
		<path class="st0" d="M22.2,31.5h0.4l0.2,0.7l0.2-0.7h0.4v1h-0.2v-0.8l-0.3,0.8h-0.2l-0.2-0.8v0.8h-0.2L22.2,31.5L22.2,31.5z"/>
	</g>
</g>
</svg>