<?xml version="1.0" encoding="utf-8"?>
<svg xmlns="http://www.w3.org/2000/svg" xmlns:xlink="http://www.w3.org/1999/xlink" version="1.1" id="Layer_1" x="0px" y="0px" viewBox="0 0 209.643 34" style="enable-background:new 0 0 209.643 34;">
<style type="text/css">
	.st0{clip-path:url(#SVGID_2_);}
	.st1{fill:#0099FA;}
	.st2{fill:#FFFFFF;}
</style>
<g>
	<defs>
		<rect id="SVGID_1_" x="1.688" width="206.267" height="34"/>
	</defs>
	<clipPath id="SVGID_2_">
		<use xlink:href="#SVGID_1_" style="overflow:visible;"/>
	</clipPath>
	<g class="st0">
		<path class="st1" d="M1.688,26.812V34H21.9l3.059-7.188H1.688z"/>
		<path class="st1" d="M1.688,18.118v7.302l25.401-3.56l3.308-7.781L1.688,18.118z"/>
		<path class="st1" d="M1.688,9.15v7.53l31.02-7.987L36.402,0L1.688,9.15z"/>
		<path class="st1" d="M20.382,22.271c0.219-0.035,0.418-0.147,0.562-0.316c0.144-0.169,0.223-0.385,0.223-0.608&#xA;			c0-0.223-0.079-0.438-0.223-0.608c-0.144-0.169-0.343-0.282-0.562-0.316c-0.219,0.035-0.418,0.147-0.562,0.316&#xA;			c-0.144,0.169-0.223,0.385-0.223,0.608c0,0.223,0.079,0.438,0.223,0.608C19.964,22.124,20.163,22.237,20.382,22.271z"/>
		<path class="st2" d="M51.493,20.994h6.798l2.221-5.34h-9.018v-3.697h10.582l2.402-5.705L64.5,6.207H44.854v24.416h19.668v-5.75&#xA;			H51.493V20.994z"/>
		<path class="st2" d="M128.829,6.207h-10.401v24.416h6.798V23.64h3.354c2.701,0.14,5.367-0.667,7.546-2.282&#xA;			c0.955-0.773,1.715-1.764,2.216-2.89c0.5-1.127,0.726-2.357,0.662-3.59c0.061-1.2-0.153-2.398-0.624-3.502&#xA;			c-0.471-1.104-1.188-2.084-2.094-2.865C134.156,6.861,131.508,6.042,128.829,6.207z M131.094,17.479&#xA;			c-0.798,0.569-1.766,0.844-2.742,0.776h-3.195v-6.367h3.15c1.017-0.057,2.022,0.233,2.855,0.821&#xA;			c0.329,0.279,0.59,0.63,0.767,1.024c0.177,0.395,0.263,0.825,0.253,1.258c0.036,0.466-0.036,0.934-0.214,1.367&#xA;			c-0.177,0.432-0.453,0.816-0.806,1.121H131.094z"/>
		<path class="st2" d="M147.975,6.207h-6.73v24.416h14.864l2.493-5.933h-10.627V6.207z"/>
		<path class="st2" d="M170.045,6.024l-8.678,20.674l-1.632,3.925h7.07l1.723-4.358h9.358l1.767,4.358h7.206L176.525,6.024H170.045z&#xA;			 M170.498,20.994l2.742-6.846l2.696,6.846H170.498z"/>
		<path class="st2" d="M200.432,6.207l-5.03,8.899l-4.986-8.899h-7.658l9.222,15.266v9.15h6.752v-9.242l9.222-15.175H200.432z"/>
		<path class="st2" d="M84.372,6.207l-5.506,15.448L73.359,6.207h-7.523l9.834,24.599h6.231l9.857-24.599H84.372z"/>
		<path class="st2" d="M103.109,5.773c-2.492,0-4.928,0.744-6.999,2.138c-2.072,1.394-3.687,3.376-4.64,5.694&#xA;			c-0.953,2.318-1.203,4.869-0.717,7.33c0.486,2.461,1.686,4.722,3.448,6.496c1.762,1.774,4.007,2.983,6.451,3.472&#xA;			c2.444,0.49,4.977,0.238,7.279-0.722c2.302-0.96,4.27-2.586,5.654-4.673c1.384-2.086,2.124-4.539,2.124-7.049&#xA;			c0-3.365-1.328-6.592-3.69-8.971C109.655,7.11,106.451,5.773,103.109,5.773z M103.109,25.123c-1.309,0-2.588-0.391-3.676-1.123&#xA;			c-1.088-0.732-1.936-1.773-2.437-2.99c-0.501-1.218-0.632-2.557-0.377-3.85c0.255-1.292,0.885-2.48,1.811-3.412&#xA;			c0.925-0.932,2.104-1.566,3.388-1.824c1.284-0.257,2.614-0.125,3.823,0.379c1.209,0.504,2.242,1.358,2.969,2.454&#xA;			c0.727,1.096,1.115,2.384,1.115,3.702c-0.006,1.763-0.706,3.452-1.946,4.697c-1.24,1.245-2.92,1.943-4.671,1.943V25.123z"/>
	</g>
</g>
</svg>