<?xml version="1.0" encoding="utf-8"?>
<svg xmlns="http://www.w3.org/2000/svg" xmlns:xlink="http://www.w3.org/1999/xlink" version="1.1" id="Layer_1" x="0px" y="0px" viewBox="0 0 91.777 34" style="enable-background:new 0 0 91.777 34;">
<style type="text/css">
	.st0{fill:#F72442;}
</style>
<g>
	<path class="st0" d="M86.964,7.708c2.078,0,3.854-1.776,3.854-3.854C90.818,1.776,89.042,0,86.964,0&#xA;		c-2.116,0-3.892,1.776-3.892,3.854C83.072,5.932,84.847,7.708,86.964,7.708"/>
	<path d="M77.087,26.593h5.658V9.653h-5.658V26.593z M65.428,20.866c-1.954,0-2.983-1.577-2.983-3.463&#xA;		c0-1.818,1.029-3.326,2.983-3.326c1.097,0,2.229,0.446,3.087,1.338v4.081C67.657,20.386,66.525,20.866,65.428,20.866 M65.359,34&#xA;		c6.001,0,8.813-2.949,8.813-7.956V9.653h-5.658v0.96c-1.029-0.96-2.538-1.509-4.218-1.509c-4.629,0-7.681,3.463-7.681,8.299&#xA;		c0,4.904,3.052,8.436,7.681,8.436c1.681,0,3.189-0.686,4.218-1.509v1.715c0,1.852-1.063,2.812-3.498,2.812&#xA;		c-1.955,0-4.595-0.755-6.859-2.332v5.487C59.598,32.937,62.479,34,65.359,34 M44.064,27.142c2.092,0,3.532-0.789,4.561-1.783v1.234&#xA;		h5.589V9.653h-5.658v10.836c-0.652,0.926-1.577,1.509-2.64,1.509c-1.372,0-2.298-0.926-2.298-2.401V9.653H37.96v11.351&#xA;		C37.96,24.947,40.909,27.142,44.064,27.142 M19.751,26.593h15.638v-4.732H27.33l7.887-7.682V9.653H19.888v4.63h7.75l-7.888,7.681&#xA;		V26.593z M0.959,26.593h16.735v-5.487H6.789v-3.875h9.842v-5.315H6.789V7.904h10.905V2.588H0.959V26.593z"/>
	<g>
		<defs>
			<path id="SVGID_1_" d="M77.087,26.593h5.658V9.653h-5.658V26.593z M65.428,20.866c-1.954,0-2.983-1.577-2.983-3.463&#xA;				c0-1.818,1.029-3.326,2.983-3.326c1.097,0,2.229,0.446,3.087,1.338v4.081C67.657,20.386,66.525,20.866,65.428,20.866 M65.359,34&#xA;				c6.001,0,8.813-2.949,8.813-7.956V9.653h-5.658v0.96c-1.029-0.96-2.538-1.509-4.218-1.509c-4.629,0-7.681,3.463-7.681,8.299&#xA;				c0,4.904,3.052,8.436,7.681,8.436c1.681,0,3.189-0.686,4.218-1.509v1.715c0,1.852-1.063,2.812-3.498,2.812&#xA;				c-1.955,0-4.595-0.755-6.859-2.332v5.487C59.598,32.937,62.479,34,65.359,34 M44.064,27.142c2.092,0,3.532-0.789,4.561-1.783&#xA;				v1.234h5.589V9.653h-5.658v10.836c-0.652,0.926-1.577,1.509-2.64,1.509c-1.372,0-2.298-0.926-2.298-2.401V9.653H37.96v11.351&#xA;				C37.96,24.947,40.909,27.142,44.064,27.142 M19.751,26.593h15.638v-4.732H27.33l7.887-7.682V9.653H19.888v4.63h7.75l-7.888,7.681&#xA;				V26.593z M0.959,26.593h16.735v-5.487H6.789v-3.875h9.842v-5.315H6.789V7.904h10.905V2.588H0.959V26.593z"/>
		</defs>
		<use xlink:href="#SVGID_1_" style="overflow:visible;fill:#FFFFFF;"/>
		<clipPath id="SVGID_00000135681085248899432600000014398866962731948444_">
			<use xlink:href="#SVGID_1_" style="overflow:visible;"/>
		</clipPath>
	</g>
</g>
</svg>