<?xml version="1.0" encoding="utf-8"?>
<svg xmlns="http://www.w3.org/2000/svg" xmlns:xlink="http://www.w3.org/1999/xlink" version="1.1" id="Layer_1" x="0px" y="0px" viewBox="0 0 95.5 34" style="enable-background:new 0 0 95.5 34;">
<style type="text/css">
	.st0{fill:#FFFFFF;}
</style>
<g>
	<path class="st0" d="M94,4.3c0.4,0.2,0.5,0.9,0.1,1.2c-0.2,0.2-0.4,0.2-0.6,0.1c-0.2-0.1-0.2-0.3-0.1-0.6c0.1-0.3,0.1-0.4-0.2-0.5&#xA;		c-0.4-0.1-0.8,0-0.9,0.3c-0.2,0.4,0,0.8,0.3,1C92.7,5.9,92.8,6,92.9,6c0.2,0.1,0.3,0.1,0.5,0.2c1,0.3,1.4,1.2,1,2.2&#xA;		C94,9.3,92.8,9.8,92,9.6c-0.7-0.2-1.1-0.9-0.8-1.5c0.1-0.3,0.4-0.5,0.7-0.5c0.4,0.1,0.6,0.3,0.6,0.6S92.3,8.6,92,8.6&#xA;		c0,0.4,0.3,0.7,0.7,0.7c0.4,0,0.7-0.3,0.9-0.6c0.2-0.5,0-1.1-0.5-1.4C93,7.2,92.8,7.1,92.7,7C92.6,7,92.4,7,92.3,6.9&#xA;		c-0.8-0.3-1-0.6-1-1.2c0-0.8,0.4-1.4,1.1-1.6C92.7,4,92.9,4,93.2,4C93.3,4,93.7,4.1,94,4.3z"/>
	<path class="st0" d="M85.6,33.9c-0.5-0.3-1.1-0.4-1.6-0.6c-0.3-0.1-0.4-0.3-0.3-0.6c1.2-4.6,1.6-9.3,1.7-14c0-0.5,0.2-1.2-0.7-1&#xA;		c-0.2,0.1-0.3-0.2-0.3-0.4c-0.1-0.5-0.1-1.1-0.3-1.6c-0.1-0.5,0.1-0.6,0.5-0.7c2.7-0.4,5.3-0.8,8-1.3c0.3-0.1,0.5,0,0.5,0.4&#xA;		c0,0.2,0.1,0.3,0.1,0.5c0.1,0.9,0.1,1-0.8,1.3c-0.4,0.1-0.4,0.4-0.4,0.7c0.1,2,0.2,4.1,0.4,6.1c0.3,3.1,0.7,6.3,1.7,9.3&#xA;		c0.3,1,0.3,1-0.7,1.2c-0.6,0.1-1.2,0.5-1.7,0.3c-0.4-0.3-0.3-1-0.4-1.6c-0.3-1.6-0.5-3.2-0.7-4.7c-0.1-0.5-0.2-0.8-0.8-0.6&#xA;		c-0.7,0.2-1.4,0.2-2.1,0.3c-0.3,0-0.5,0.1-0.6,0.5c-0.4,2.2-0.8,4.3-1.2,6.5C85.8,34,85.7,34,85.6,33.9z M90,20.7&#xA;		c0,0,0.2-2.8-0.3-3c-0.6-0.2-1.3,0.1-2,0.2c-0.4,0.1-0.5,0.3-0.5,0.7c0,1.6,0.1,3.2,0.1,4.8c0,0.4,0.1,0.6,0.5,0.5&#xA;		c0.5-0.1,1.1-0.1,1.6-0.2c0.6,0,0.6-0.3,0.6-0.8C90,22.2,90,21.4,90,20.7z"/>
	<path class="st0" d="M80,9.9c-0.2-0.1-0.3-0.1-0.5-0.2c-0.1,0-0.1-0.1-0.1-0.2c0.4-1.4,0.5-2.8,0.5-4.3c0-0.1,0.1-0.4-0.2-0.3&#xA;		c-0.1,0-0.1-0.1-0.1-0.1c0-0.2,0-0.3-0.1-0.5c0-0.1,0-0.2,0.1-0.2c0.8-0.1,1.6-0.3,2.4-0.4c0.1,0,0.1,0,0.2,0.1c0,0.1,0,0.1,0,0.2&#xA;		c0,0.3,0,0.3-0.2,0.4c-0.1,0-0.1,0.1-0.1,0.2C82,5.3,82,5.9,82,6.5c0.1,1,0.2,1.9,0.5,2.8c0.1,0.3,0.1,0.3-0.2,0.4&#xA;		c-0.2,0-0.4,0.2-0.5,0.1c-0.1-0.1-0.1-0.3-0.1-0.5c-0.1-0.5-0.2-1-0.2-1.5c0-0.2-0.1-0.2-0.3-0.2c-0.2,0.1-0.4,0.1-0.6,0.1&#xA;		c-0.1,0-0.1,0-0.2,0.1C80.3,8.6,80.2,9.2,80,9.9C80.1,9.9,80,9.9,80,9.9z M81.4,5.8c0,0,0.1-0.9-0.1-0.9c-0.2-0.1-0.4,0-0.6,0.1&#xA;		c-0.1,0-0.2,0.1-0.2,0.2c0,0.5,0,1,0,1.5c0,0.1,0,0.2,0.2,0.2c0.2,0,0.3,0,0.5-0.1c0.2,0,0.2-0.1,0.2-0.2&#xA;		C81.4,6.3,81.4,6.1,81.4,5.8z"/>
	<path class="st0" d="M49.4,33.9c-0.5-0.3-1.1-0.4-1.6-0.6c-0.3-0.1-0.4-0.3-0.3-0.6c1.2-4.6,1.6-9.3,1.7-14c0-0.5,0.2-1.2-0.7-1&#xA;		c-0.2,0.1-0.3-0.2-0.3-0.4c-0.1-0.5-0.1-1.1-0.3-1.6c-0.1-0.5,0.1-0.6,0.5-0.7c2.7-0.4,5.3-0.8,8-1.3c0.3-0.1,0.5,0,0.5,0.4&#xA;		c0,0.2,0.1,0.3,0.1,0.5c0.1,0.9,0.1,1-0.8,1.3c-0.4,0.1-0.4,0.4-0.4,0.7c0.1,2,0.2,4.1,0.4,6.1c0.3,3.1,0.7,6.3,1.7,9.3&#xA;		c0.3,1,0.3,1-0.7,1.2c-0.6,0.1-1.2,0.5-1.7,0.3c-0.4-0.3-0.3-1-0.4-1.6c-0.3-1.6-0.5-3.2-0.7-4.7c-0.1-0.5-0.2-0.8-0.8-0.6&#xA;		c-0.7,0.2-1.4,0.2-2.1,0.3c-0.3,0-0.5,0.1-0.6,0.5c-0.4,2.2-0.8,4.3-1.2,6.5C49.6,34,49.5,34,49.4,33.9z M53.8,20.7&#xA;		c0,0,0.2-2.8-0.3-3c-0.6-0.2-1.3,0.1-2,0.2c-0.4,0.1-0.5,0.3-0.5,0.7c0,1.6,0.1,3.2,0.1,4.8c0,0.4,0.1,0.6,0.5,0.5&#xA;		c0.5-0.1,1.1-0.1,1.6-0.2c0.6,0,0.6-0.3,0.6-0.8C53.8,22.2,53.8,21.4,53.8,20.7z"/>
	<path class="st0" d="M12.7,33.9c-0.5-0.3-1.1-0.4-1.6-0.6c-0.3-0.1-0.4-0.3-0.3-0.6c1.2-4.6,1.6-9.3,1.7-14c0-0.5,0.2-1.2-0.7-1&#xA;		c-0.2,0.1-0.3-0.2-0.3-0.4c-0.1-0.5-0.1-1.1-0.3-1.6c-0.1-0.5,0.1-0.6,0.5-0.7c2.7-0.4,5.3-0.8,8-1.3c0.3-0.1,0.5,0,0.5,0.4&#xA;		c0,0.2,0.1,0.3,0.1,0.5c0.1,0.9,0.1,1-0.8,1.3C19,16.1,19,16.4,19,16.7c0.1,2,0.2,4.1,0.4,6.1c0.3,3.1,0.7,6.3,1.7,9.3&#xA;		c0.3,1,0.3,1-0.7,1.2c-0.6,0.1-1.2,0.5-1.7,0.3c-0.4-0.3-0.3-1-0.4-1.6c-0.3-1.6-0.5-3.2-0.7-4.7c-0.1-0.5-0.2-0.8-0.8-0.6&#xA;		c-0.7,0.2-1.4,0.2-2.1,0.3c-0.3,0-0.5,0.1-0.6,0.5c-0.4,2.2-0.8,4.3-1.2,6.5C13,34.1,12.8,34,12.7,33.9z M17.2,20.7&#xA;		c0,0,0.2-2.8-0.3-3c-0.6-0.2-1.3,0.1-2,0.2c-0.4,0.1-0.5,0.3-0.5,0.7c0,1.6,0.1,3.2,0.1,4.8c0,0.4,0.1,0.6,0.5,0.5&#xA;		c0.5-0.1,1.1-0.1,1.6-0.2c0.6,0,0.6-0.3,0.6-0.8C17.1,22.2,17.2,21.4,17.2,20.7z"/>
	<path class="st0" d="M69.2,6.1c0.3,0.3,0.4,0.6,0.5,0.9c0.5,1.5,0.7,3.1,0.9,4.6c0.1,1.1,0.2,1.1,1.4,1.4c-0.1-1-0.2-2-0.3-2.9&#xA;		c-0.2-1.4-0.3-2.7-0.5-4.1c-0.3-2.4-2-3.2-4.1-1.9c-1.5,0.9-3,1.4-4.8,1.1c-1.4-0.2-2.5-1.1-3.5-2c-0.7-0.6-1.3-1.2-2.1-1.6&#xA;		c-2-1.2-4.1-1.3-6.2-0.4c-1.9,0.7-3,2.5-3.5,4.4c-0.3,1.3-0.5,2.7-0.7,4c-0.2,1.3-0.6,1.6-1.9,1.8c-2.6,0.3-5.2,0.4-7.8,0.8&#xA;		c-1,0.1-2,0.5-2.9,0.9c1-0.8,2.3-1.2,3.6-1.4c2.2-0.3,4.4-0.4,6.5-0.9c1.7-0.4,1.9-0.7,2.2-2.5c0.2-1.1,0.3-2.2,0.7-3.3&#xA;		c0.9-2.5,2.5-4.4,5.3-4.9c2.7-0.4,5.1,0,7,2.3c0.9,1.1,2.1,1.8,3.4,2.3C63.3,5,64,4.9,64.7,4.7c0.8-0.2,1.5-0.6,2.2-1&#xA;		c0.6-0.4,1.3-0.6,2-0.7c1.5-0.1,2.5,0.7,2.9,2.2c0.5,2,0.4,4,0.5,6c0,0.7,0,1.5,0.3,2c0.5,0.9,0.6,1.9,0.8,2.9&#xA;		c0.7,3.1,1.3,6.2,1.9,9.2c0,0.1,0.1,0.2,0.1,0.4c0.3-0.4,0.4-0.9,0.6-1.3c1.2-3.4,1.8-6.9,2.5-10.4c0.2-1,0.2-1,1.1-1.1&#xA;		c0.7-0.1,1.3-0.1,2-0.1c-1.4,4.5-0.8,9.1-0.3,13.7c0.2,1.9,0.6,3.7,1.1,5.6c-1.2-0.1-2.2-0.2-3.3-0.3c-0.3,0-0.2-0.3-0.1-0.5&#xA;		c0.2-1.9,0.3-3.9,0.2-5.8c-0.1-1.2-0.3-2.4-0.9-3.6c-0.9,3.4-1.7,6.8-2.6,10.3c0,0.1-0.1,0.1-0.2,0c-1-3.3-2.1-6.5-3.1-9.8&#xA;		c-0.2-0.6-0.2-0.8-0.2,0c0,0.7,0,1.4,0,2c0,2.8,0,5.6,0.5,8.4c0.1,0.3,0,0.3-0.3,0.3c-0.8,0-1.6,0-2.4,0.1c-0.5,0-0.4-0.3-0.3-0.6&#xA;		c0.5-4.8,0.9-9.5,0.7-14.3c-0.1-2-0.3-3.9-0.9-5.8c-0.1-0.2-0.4-0.5,0.2-0.5c0.3,0,0.1-0.3,0.1-0.5c-0.1-1.8-0.3-3.5-0.7-5.3&#xA;		C69.2,6.4,69.2,6.3,69.2,6.1z"/>
	<path class="st0" d="M65,6.8c0.9,2.3,1.3,4.6,1.5,7c0.1,0.7,0.2,1.3,0.9,1.8c1.4,0.8,1.5,2.8,0.4,3.9c-0.6,0.6-1.4,0.7-2,0.3&#xA;		s-0.7-1-0.3-1.8c0.4-0.8,0.2-1.2-0.6-1.5c-1.4-0.4-2.5,0-3,1.1c-0.5,1.1-0.1,2.6,1.1,3.3c0.3,0.2,0.7,0.4,1.1,0.5&#xA;		c0.5,0.2,1,0.3,1.5,0.5c3.2,1.1,4.5,3.9,3.2,7c-1.2,2.9-5,4.7-7.8,3.8c-2.3-0.7-3.5-2.9-2.7-5c0.4-1.1,1.4-1.7,2.4-1.5&#xA;		c1.2,0.2,1.9,1,1.9,2.1c0,1-0.5,1.4-1.5,1.3c0,1.2,1.1,2.2,2.4,2.2c1.3-0.1,2.4-0.9,2.8-2.1c0.6-1.6-0.1-3.6-1.5-4.5&#xA;		c-0.4-0.3-0.9-0.5-1.4-0.7c-0.4-0.2-0.8-0.3-1.3-0.5c-2.5-0.9-3.2-1.8-3.2-3.9c0.1-2.7,1.3-4.6,3.6-5.3c0.8-0.2,1.6-0.3,2.4-0.2&#xA;		c0.6,0.1,0.7,0,0.7-0.7c-0.1-2.3-0.2-4.5-0.7-6.8C64.8,7,64.8,6.9,65,6.8z"/>
	<path class="st0" d="M25.1,22.8c-0.1,2.9-0.6,5.6-0.3,8.3c0.1,0.4,0,0.6-0.5,0.4c-0.6-0.2-1.3-0.4-1.9-0.5&#xA;		c-0.5-0.1-0.6-0.3-0.5-0.8c0.7-3.8,1.3-7.6,1.2-11.5c0-0.9-0.1-1.9-0.1-2.8c0-0.4,0.1-0.6,0.5-0.5c0.6,0,1.3-0.2,1.8,0.1&#xA;		c0.5,0.2,0.4,1,0.6,1.6c1,2.9,2.2,5.7,3.9,8.3c0.2,0.3,0.6,1,0.8,1c0.1,0,0.1-0.6,0.1-0.8c-0.1-3.7-0.1-7.4-0.2-11&#xA;		c0-0.6,0.1-0.8,0.7-0.9c1.5-0.3,1.5-0.3,1.4,1.1c-0.3,4.9-0.1,9.8,0.2,14.8c0.1,0.8,0.1,1.6,0.1,2.4c0,0.2,0.1,0.4-0.1,0.4&#xA;		c-0.4,0-0.9,0-1.3,0c-0.6,0.1-0.7-0.4-0.9-0.7c-1.7-2.8-3.4-5.7-5.1-8.5C25.3,23.1,25.2,23,25.1,22.8z"/>
	<path class="st0" d="M46.1,13.4c0.2,0,0.4,0.1,0.4,0.3c0.1,0.6,0.1,1.3,0.1,1.9c0,0.4-0.4,0.3-0.6,0.4c-1.2,0.3-2.5,0.5-3.7,0.7&#xA;		c-1,0.2-1,0.3-1,1.3c0,4.4,0.2,8.8,1.1,13.2c0.1,0.5,0.3,1,0.4,1.5c0.1,0.4,0,0.5-0.3,0.5c-0.5,0-1.1,0-1.6,0&#xA;		c-1.2,0-1.1,0.2-1.1-1.1c0-2.1,0-4.3-0.1-6.4c-0.1-2.4-0.3-4.9-0.9-7.3c-0.2-0.6-0.4-0.8-1-0.7c-1,0.2-1.9,0.3-2.9,0.5&#xA;		c-0.3,0.1-0.5-0.1-0.5-0.4c-0.1-1-0.2-1.9-0.3-2.9c0-0.4,0.1-0.5,0.5-0.5C38.4,14.6,42.3,14.2,46.1,13.4z"/>
	<path class="st0" d="M7.3,20.8c0.1,1.2-0.1,2.4-0.1,3.8c-0.7-0.9-1.6-1-2.5-0.7C4.1,24,4,24.1,4,24.6c-0.1,2.7,0.3,5.4,1.2,7.9&#xA;		c0.2,0.7,0.2,0.7-0.5,0.7c-0.7,0-1.4,0-2.1,0c-0.5,0-0.7-0.1-0.6-0.6c0.1-1.8,0.2-3.7,0.2-5.5c0-4.3-0.1-8.5-1.1-12.7&#xA;		c-0.1-0.2-0.1-0.4,0.3-0.4c2.6,0.1,5.1-0.7,7.6-1.2c0.4-0.1,0.9-0.1,1.3-0.2c0.3-0.1,0.5,0,0.4,0.4c-0.2,1.1-0.4,2.1-0.8,3.1&#xA;		c-0.1,0.3-0.2,0.3-0.5,0.2c-1.6-1-3.2-0.7-4.8-0.2c-0.2,0.1-0.3,0.2-0.4,0.5c-0.3,1.4-0.4,2.8-0.3,4.3c0,0.5,0.2,0.8,0.8,0.8&#xA;		C5.6,21.5,6.4,21.2,7.3,20.8z"/>
	<path class="st0" d="M53.8,13.3c-1,0-1.8-0.4-2.6-0.9c-1.1-0.7-2-1.6-2.7-2.6c-0.3-0.3-0.4-0.7-0.2-1.1c0.2-0.4,0.7-0.4,1.1-0.4&#xA;		c0.8,0.1,1.6,0.2,2.4,0.3c0.8,0.1,1.6,0,2.2-0.5c1.1-0.9,2.3-1.7,3.4-2.6c0.3-0.2,0.6-0.5,1-0.7c0.5-0.3,0.8-0.1,0.8,0.4&#xA;		c0.1,0.5,0,1.1-0.3,1.6c-0.8,1.8-1.8,3.6-2.7,5.3C55.6,12.9,54.9,13.4,53.8,13.3z"/>
	<path class="st0" d="M83.1,3.3c0.7,0.1,1.1,0.4,1.2,1.1c0.1,1,0.4,1.9,0.6,3.1c0.5-1.2,0.7-2.2,0.9-3.2c0.2-0.8,0.1-0.8,1-0.7&#xA;		c-0.4,1.8-0.2,3.6,0.2,5.4c0,0.2,0.1,0.4,0,0.5c-0.2,0.1-0.5,0-0.7,0C86,9.3,86,9.1,86.1,8.9c0-0.8,0.1-1.6-0.3-2.6&#xA;		c-0.3,1.1-0.5,2.1-0.8,3c0,0.1-0.1,0.1-0.1,0c-0.3-0.9-0.6-1.8-0.9-2.6c-0.2,0.8-0.2,1.6-0.1,2.4c0,0.2,0.2,0.5-0.1,0.6&#xA;		c-0.2,0.1-0.5,0.1-0.6,0c-0.3-0.1-0.1-0.4-0.1-0.6C83.3,7.2,83.6,5.3,83.1,3.3z"/>
	<path class="st0" d="M78.4,9.1c-1,1.3-2.2,1.1-2.7-0.3c-0.6-1.4-0.4-2.8,0.3-4.2c0.2-0.4,0.6-0.7,1-0.8c0.7-0.2,1.4,0,1.7,0.6&#xA;		C79,5,78.9,6.1,78.5,6.5c-0.3,0.2-0.6,0.3-0.8,0.1c-0.3-0.3-0.3-0.6-0.1-1c0.2-0.3,0.5-0.1,0.7,0.4c0.2-0.7,0-1.2-0.5-1.4&#xA;		c-0.5-0.2-1,0.1-1.3,0.7C76,6.5,76,7.7,76.6,8.9c0.1,0.3,0.4,0.6,0.8,0.5c0.4-0.1,0.5-0.6,0.5-0.9c0-0.3-0.2-0.2-0.4-0.2&#xA;		C77.3,8.2,77,8.4,77,8c-0.1-0.4,0.2-0.4,0.5-0.4c0.5-0.1,1-0.3,1.5-0.4c0.2,0,0.4-0.3,0.5,0.1c0,0.2,0.2,0.6-0.1,0.7&#xA;		c-0.5,0.1-0.4,0.5-0.4,0.8c0,0.3,0.1,0.7,0.1,1c0,0.1,0.1,0.4-0.1,0.4c-0.2,0-0.4-0.1-0.4-0.3C78.4,9.6,78.4,9.4,78.4,9.1z"/>
	<path class="st0" d="M49.1,5.1c0-0.6,0.1-1.1,0.5-1.6c0.6-0.8,1.6-0.9,2.2,0c0.6,0.9,0.7,1.9,0.3,2.8c-0.2,0.6-0.7,1-1.4,1&#xA;		c-0.7,0-1.1-0.4-1.3-0.9C49.1,6,49.1,5.6,49.1,5.1z"/>
	<path class="st0" d="M90.4,8.5c0.1,0,0.2,0,0.2,0.1c0.1,0.6-0.2,0.8-0.9,0.8c-0.6,0-1.2,0.1-1.8,0.1c-0.4,0-0.5-0.1-0.5-0.5&#xA;		c0.3-1.5,0.3-2.9,0.1-4.4c-0.1-0.6,0.1-0.8,0.7-0.7c0.3,0,0.7-0.1,1-0.1c0.2,0,0.6-0.3,0.6,0.2c0,0.4-0.1,0.7-0.6,0.6&#xA;		c-0.3,0-0.8-0.3-0.9,0.4c-0.1,0.9,0,1.1,0.9,0.9c0.3-0.1,0.4,0.1,0.4,0.3c0,0.3-0.1,0.3-0.4,0.3c-0.9,0-1,0.1-1,1&#xA;		c0,1.2,0.1,1.2,1.3,1C89.9,8.6,90.2,8.6,90.4,8.5z"/>
	<path class="st0" d="M57.9,3.2c0,0.3-0.2,0.3-0.5,0.3c-0.4,0-0.8,0.1-1.2,0.1c-0.7,0.1-1.4,0.3-1.9,0.9c-0.1,0.1-0.2,0.3-0.4,0.2&#xA;		c-0.1-0.1-0.1-0.2-0.1-0.4c0.2-1.4,2.4-2.5,3.6-1.7C57.7,2.8,57.8,3,57.9,3.2z"/>
</g>
</svg>