<?xml version="1.0" encoding="utf-8"?>
<svg xmlns="http://www.w3.org/2000/svg" xmlns:xlink="http://www.w3.org/1999/xlink" version="1.1" id="Layer_1" x="0px" y="0px" viewBox="0 0 58.3 34" style="enable-background:new 0 0 58.3 34;">
<style type="text/css">
	.st0{fill:#FFFFFF;}
</style>
<g>
	<g>
		<path class="st0" d="M19.6,25.6h-1.5c-0.1,0-0.2,0-0.3,0.1c-0.1,0.1-0.1,0.2-0.1,0.3v7.6c0,0.1,0,0.2,0.1,0.3&#xA;			C17.9,34,18,34,18.1,34h1.5c0.1,0,0.2-0.1,0.2-0.2v-0.4c0,0,0-0.1-0.1-0.1c0,0-0.1-0.1-0.1-0.1h-1.1v-3h1.1c0.1,0,0.1,0,0.1-0.1&#xA;			s0.1-0.1,0.1-0.1v-0.4c0-0.1-0.1-0.2-0.2-0.2h-1.1v-3h1.1c0.1,0,0.2-0.1,0.2-0.2v-0.4c0,0,0-0.1-0.1-0.1&#xA;			C19.7,25.7,19.7,25.6,19.6,25.6z M22.8,26.1c-0.1-0.1-0.3-0.2-0.5-0.3c-0.2-0.1-0.4-0.1-0.6-0.1s-0.4,0-0.6,0.1&#xA;			c-0.2,0.1-0.3,0.2-0.5,0.3c-0.1,0.1-0.2,0.3-0.3,0.5c-0.1,0.2-0.1,0.4-0.1,0.6v0.6c0,0.1,0,0.2,0,0.2s0,0.1,0,0.2&#xA;			c0,0,0,0.1,0.1,0.2c0,0.1,0.1,0.1,0.1,0.3l1.8,3.2c0,0,0,0.1,0,0.1c0,0,0,0.1,0,0.1v0.6c0,0.2-0.1,0.3-0.2,0.5&#xA;			c-0.1,0.1-0.3,0.2-0.5,0.2s-0.3-0.1-0.5-0.2c-0.1-0.1-0.2-0.3-0.2-0.5v-0.4c0-0.1,0-0.1-0.1-0.1c0,0-0.1-0.1-0.1-0.1h-0.4&#xA;			c-0.1,0-0.1,0-0.1,0.1c0,0-0.1,0.1-0.1,0.1v0.4c0,0.2,0,0.4,0.1,0.6s0.2,0.3,0.3,0.5c0.1,0.1,0.3,0.2,0.5,0.3&#xA;			c0.2,0.1,0.4,0.1,0.6,0.1s0.4,0,0.6-0.1c0.2-0.1,0.3-0.2,0.5-0.3c0.1-0.1,0.2-0.3,0.3-0.5c0.1-0.2,0.1-0.4,0.1-0.6v-0.6&#xA;			c0-0.1,0-0.2,0-0.2c0-0.1,0-0.1,0-0.2c0,0,0-0.1-0.1-0.2c0-0.1-0.1-0.1-0.1-0.3l-1.8-3.2c0,0,0-0.1,0-0.1c0,0,0-0.1,0-0.1v-0.6&#xA;			c0-0.2,0.1-0.3,0.2-0.5c0.1-0.1,0.3-0.2,0.5-0.2s0.3,0.1,0.5,0.2c0.1,0.1,0.2,0.3,0.2,0.5v0.4c0,0.1,0.1,0.2,0.2,0.2h0.4&#xA;			c0.1,0,0.2-0.1,0.2-0.2v-0.4c0-0.2,0-0.4-0.1-0.6C23.1,26.4,23,26.2,22.8,26.1z M25.8,25.6h-1.9c-0.1,0-0.1,0-0.1,0.1&#xA;			s-0.1,0.1-0.1,0.1v0.4c0,0.1,0.1,0.2,0.2,0.2h0.6v7.3c0,0.1,0.1,0.2,0.2,0.2H25c0.1,0,0.2-0.1,0.2-0.2v-7.3h0.6&#xA;			c0.1,0,0.2-0.1,0.2-0.2v-0.4c0,0,0-0.1-0.1-0.1C25.9,25.7,25.9,25.6,25.8,25.6z M31.2,26.1c-0.1-0.1-0.3-0.2-0.5-0.3&#xA;			c-0.2-0.1-0.4-0.1-0.6-0.1c-0.2,0-0.4,0-0.6,0.1c-0.2,0.1-0.3,0.2-0.5,0.3c-0.1,0.1-0.2,0.3-0.3,0.5c-0.1,0.2-0.1,0.4-0.1,0.6v0.4&#xA;			c0,0.1,0.1,0.2,0.2,0.2h0.4c0.1,0,0.2-0.1,0.2-0.2v-0.4c0-0.2,0.1-0.3,0.2-0.5c0.1-0.1,0.3-0.2,0.5-0.2c0.2,0,0.3,0.1,0.5,0.2&#xA;			c0.1,0.1,0.2,0.3,0.2,0.5v0.6c0,0.1,0,0.1,0,0.1c0,0,0,0,0,0.1L29,31.1c-0.1,0.1-0.1,0.2-0.1,0.3c0,0.1-0.1,0.1-0.1,0.2&#xA;			c0,0,0,0.1,0,0.2c0,0.1,0,0.1,0,0.2v1.8c0,0.1,0.1,0.2,0.2,0.2h2.5c0,0,0.1,0,0.1-0.1c0,0,0.1-0.1,0.1-0.1v-0.4c0,0,0-0.1-0.1-0.1&#xA;			c0,0-0.1-0.1-0.1-0.1h-1.9V32c0-0.1,0-0.1,0-0.1c0,0,0,0,0-0.1l1.8-3.2c0.1-0.1,0.1-0.2,0.1-0.3c0-0.1,0.1-0.1,0.1-0.2&#xA;			c0-0.1,0-0.1,0-0.2c0-0.1,0-0.1,0-0.2v-0.6c0-0.2,0-0.4-0.1-0.6C31.4,26.4,31.3,26.2,31.2,26.1z M35.1,26.1&#xA;			c-0.1-0.1-0.3-0.2-0.5-0.3c-0.2-0.1-0.4-0.1-0.6-0.1c-0.2,0-0.4,0-0.6,0.1c-0.2,0.1-0.3,0.2-0.5,0.3c-0.1,0.1-0.2,0.3-0.3,0.5&#xA;			c-0.1,0.2-0.1,0.4-0.1,0.6v5.5c0,0.2,0,0.4,0.1,0.6s0.2,0.3,0.3,0.5c0.1,0.1,0.3,0.2,0.5,0.3c0.2,0.1,0.4,0.1,0.6,0.1&#xA;			c0.2,0,0.4,0,0.6-0.1s0.3-0.2,0.5-0.3c0.1-0.1,0.2-0.3,0.3-0.5c0.1-0.2,0.1-0.4,0.1-0.6v-5.5c0-0.2,0-0.4-0.1-0.6&#xA;			C35.4,26.4,35.3,26.2,35.1,26.1z M34.8,32.6c0,0.2-0.1,0.3-0.2,0.5c-0.1,0.1-0.3,0.2-0.5,0.2s-0.3-0.1-0.5-0.2&#xA;			c-0.1-0.1-0.2-0.3-0.2-0.5V32c0-0.1,0-0.1,0-0.1c0,0,0,0,0-0.1l1.2-2.2L34.8,32.6L34.8,32.6z M34.8,27.9&#xA;			C34.8,27.9,34.8,27.9,34.8,27.9l-1.3,2.3v-3.1c0-0.2,0.1-0.3,0.2-0.5c0.1-0.1,0.3-0.2,0.5-0.2s0.3,0.1,0.5,0.2&#xA;			c0.1,0.1,0.2,0.3,0.2,0.5L34.8,27.9L34.8,27.9z M37.5,25.6h-1.1c-0.1,0-0.1,0-0.1,0.1c0,0-0.1,0.1-0.1,0.1v0.4&#xA;			c0,0.1,0.1,0.2,0.2,0.2h0.7v7.3c0,0.1,0.1,0.2,0.2,0.2h0.4c0.1,0,0.1,0,0.1-0.1s0.1-0.1,0.1-0.1V26c0-0.1,0-0.2-0.1-0.3&#xA;			C37.7,25.7,37.6,25.6,37.5,25.6z M41,26.1c-0.1-0.1-0.3-0.2-0.5-0.3c-0.2-0.1-0.4-0.1-0.6-0.1s-0.4,0-0.6,0.1&#xA;			c-0.2,0.1-0.3,0.2-0.5,0.3c-0.1,0.1-0.2,0.3-0.3,0.5s-0.1,0.4-0.1,0.6v0.4c0,0.1,0.1,0.2,0.2,0.2h0.4c0.1,0,0.2-0.1,0.2-0.2v-0.4&#xA;			c0-0.2,0.1-0.3,0.2-0.5c0.1-0.1,0.3-0.2,0.5-0.2c0.2,0,0.3,0.1,0.5,0.2c0.1,0.1,0.2,0.3,0.2,0.5v1.7c0,0.2-0.1,0.3-0.2,0.5&#xA;			c-0.1,0.1-0.3,0.2-0.5,0.2c-0.1,0-0.2,0.1-0.2,0.2V30c0,0.1,0.1,0.2,0.2,0.2c0.2,0,0.3,0.1,0.5,0.2c0.1,0.1,0.2,0.3,0.2,0.5v1.7&#xA;			c0,0.2-0.1,0.3-0.2,0.5c-0.1,0.1-0.3,0.2-0.5,0.2c-0.2,0-0.3-0.1-0.5-0.2c-0.1-0.1-0.2-0.3-0.2-0.5v-0.4c0-0.1-0.1-0.2-0.2-0.2&#xA;			h-0.4c-0.1,0-0.2,0.1-0.2,0.2v0.4c0,0.2,0,0.4,0.1,0.6s0.2,0.3,0.3,0.5c0.1,0.1,0.3,0.2,0.5,0.3C39.6,34,39.8,34,40,34&#xA;			s0.4,0,0.6-0.1s0.3-0.2,0.5-0.3c0.1-0.1,0.2-0.3,0.3-0.5c0.1-0.2,0.1-0.4,0.1-0.6v-1.7c0-0.2,0-0.4-0.1-0.6&#xA;			c-0.1-0.2-0.2-0.3-0.3-0.5c0.1-0.1,0.3-0.3,0.3-0.5s0.1-0.4,0.1-0.6v-1.7c0-0.2,0-0.4-0.1-0.6C41.3,26.4,41.2,26.2,41,26.1z&#xA;			 M1,28.4h10v-1.1H1V28.4z M1,30.7h10v-1.1H1V30.7z M1,32.9h10v-1.1H1V32.9z M47.3,27.3v1.1h10v-1.1H47.3z M47.3,30.7h10v-1.1h-10&#xA;			V30.7z M47.3,32.9h10v-1.1h-10V32.9z M13,12.9l2.5-0.9c0.2-0.1,0.3-0.2,0.2-0.5l-0.8-2.2c-0.1-0.2-0.2-0.3-0.5-0.2L12,10l-1.3-3.6&#xA;			l2.8-1c0.2-0.1,0.3-0.2,0.2-0.5l-0.8-2.2c-0.1-0.2-0.2-0.3-0.5-0.2L7,4.5C6.8,4.6,6.7,4.8,6.8,5l6.1,16.6c0.1,0.2,0.2,0.3,0.5,0.2&#xA;			l2.2-0.8c0.2-0.1,0.3-0.2,0.2-0.5L13,12.9z M28.5,15.6c0-0.2-0.2-0.4-0.4-0.3l-3,0.3l-0.6-5.4l2.6-0.3c0.2,0,0.4-0.2,0.3-0.4&#xA;			l-0.2-2.3c0-0.2-0.2-0.4-0.4-0.3l-2.6,0.3l-0.4-3.8l3-0.3c0.2,0,0.4-0.2,0.3-0.4l-0.2-2.3c0-0.2-0.2-0.4-0.4-0.3l-5.7,0.6&#xA;			c-0.2,0-0.4,0.2-0.3,0.4l1.9,17.6c0,0.2,0.2,0.4,0.4,0.3l5.7-0.6c0.2,0,0.4-0.2,0.3-0.4L28.5,15.6z M35.1,18.8L35.1,18.8&#xA;			L35.1,18.8l3.6,0.5c0.2,0,0.4-0.1,0.4-0.3l0.3-2.3c0-0.2-0.1-0.4-0.3-0.4l-3.2-0.5L38.1,1c0-0.2-0.1-0.4-0.3-0.4l-2.3-0.3&#xA;			c-0.2,0-0.4,0.1-0.4,0.3l-2.5,17.6c0,0.2,0.1,0.4,0.3,0.4L35.1,18.8z M52.4,7.8c0.2,0.1,0.4,0,0.5-0.2l0.8-2.2&#xA;			c0.1-0.2,0-0.4-0.2-0.5l-6.4-2.4c-0.2-0.1-0.4,0-0.5,0.2l-0.8,2.2c-0.1,0.2,0,0.4,0.2,0.5l1.7,0.7l-5.3,14.1c0,0.1,0,0.2,0,0.3&#xA;			s0.1,0.2,0.2,0.2l2.2,0.8c0.2,0.1,0.4,0,0.5-0.2l5.3-14.1L52.4,7.8z"/>
	</g>
</g>
</svg>