<?xml version="1.0" encoding="utf-8"?>
<svg xmlns="http://www.w3.org/2000/svg" xmlns:xlink="http://www.w3.org/1999/xlink" version="1.1" id="Layer_1" x="0px" y="0px" viewBox="0 0 165 34" style="enable-background:new 0 0 165 34;">
<style type="text/css">
	.st0{fill-rule:evenodd;clip-rule:evenodd;fill:#FFFFFF;}
	.st1{fill:#FFFFFF;}
</style>
<g>
	<path class="st0" d="M149.5,18.8c-2.2,0-4.3,0-6.5,0c-0.9,0-1.8-0.2-2.6-0.4c-1.5-0.3-2.5-1.7-2.2-3.2c0.6-3.8,1.2-7.6,2-11.3&#xA;		c0.5-2.3,2.7-3.6,5.7-3.6c4.6-0.1,9.3-0.1,13.9,0c3.5,0.1,4.7,1.7,4.2,5.1c-0.5,2.9-1,5.8-1.5,8.7c-0.6,3.1-2.6,4.7-6.1,4.8&#xA;		C154,18.8,151.7,18.8,149.5,18.8z M149.9,16c2.2,0,4.3,0,6.5,0c1.2,0.2,2.3-0.7,2.4-1.8c0,0,0,0,0,0c0.5-3,1.1-6.1,1.6-9.2&#xA;		c0.2-1.5-0.2-2-1.7-2c-4.3,0-8.6,0-12.9,0c-1.2-0.1-2.3,0.7-2.4,1.9c0,0,0,0.1,0,0.1c-0.5,3-1.1,6-1.6,9c-0.2,1.4,0.2,2,1.8,2&#xA;		C145.7,16,147.8,16,149.9,16z"/>
	<path class="st0" d="M109.8,18.6c0.1-0.8,0.3-1.6,0.5-2.6h3.1c4.3,0,8.7,0,13,0c2.1,0,2.6-0.5,3-2.5c0.5-3,0.3-3.3-2.8-3.3&#xA;		c-3.4,0-6.8,0-10.2,0c-0.8,0-1.7-0.1-2.5-0.3c-1.7-0.3-2.8-1.9-2.5-3.6c0.3-3.8,2.1-5.9,5.9-6c5.6-0.2,11.1,0,16.7,0&#xA;		c0.2,2.6,0,2.8-2.4,2.8c-4.6,0-9.2,0-13.7,0c-1.2,0-2.2,0.2-2.6,1.5c-0.7,2.2-0.2,3,2.2,3c3.9,0,7.9,0,11.8,0.1&#xA;		c3.2,0.1,4.3,1.8,3.8,4.9c-0.1,0.3-0.1,0.7-0.2,1c-0.6,3.4-2.3,5.2-5.9,5.2c-5.6,0.1-11.1,0-16.7,0&#xA;		C110.1,18.7,109.9,18.7,109.8,18.6z"/>
	<path class="st0" d="M77.5,8.6c-0.5,2.5-0.8,4.9-1.4,7.1c-0.6,1.6-2.1,2.7-3.9,2.7c-2.1,0.2-4.2,0.3-6.3,0.3&#xA;		c-2.6,0.1-5.2,0-7.8-0.3c-2.8-0.3-3.7-1.7-3.2-4.5c0.6-3.2,1.2-6.4,1.7-9.6c0.2-1.6,1.2-3,2.8-3.5c1.2-0.4,2.4-0.7,3.7-0.8&#xA;		c4.9-0.1,9.8,0,14.8,0c0.2,0,0.5,0,0.7,0.1c-0.2,2.7-0.2,2.7-2.9,2.7c-4.1,0-8.3,0-12.4,0c-2.6,0-3,0.4-3.4,2.8&#xA;		c-0.5,2.7-0.9,5.4-1.4,8.1c-0.3,1.6,0.1,2.1,1.7,2.1c3.4,0.1,6.9,0.1,10.3,0c1.8,0,2.3-0.5,2.6-2.3c0.3-1.2,0.5-2.4,0.6-3.6&#xA;		c0.1-1.2,0.6-1.5,1.7-1.4C76,8.6,76.6,8.6,77.5,8.6z"/>
	<path class="st0" d="M28.2,0.2h3.4c-0.5,2.9-1,5.7-1.5,8.5c-0.3,1.8-0.6,3.6-1,5.4c-0.3,0.7,0.1,1.5,0.8,1.8&#xA;		c0.2,0.1,0.4,0.1,0.7,0.1c4.3,0,8.6,0,12.8,0c1.3,0,1.8-0.9,2-2.1c0.7-4.1,1.4-8.1,2.1-12.2c0.1-0.5,0.2-0.9,0.3-1.4h3.5&#xA;		c-0.7,4.1-1.4,8.1-2.1,12.1c-0.1,0.6-0.2,1.3-0.3,1.9c-0.7,3.3-2.2,4.6-5.6,4.6c-4.4,0-8.8,0.1-13.1,0c-4-0.1-5.3-2-4.6-5.4&#xA;		C26.7,9.2,27.3,5,28,0.8C28.1,0.6,28.1,0.4,28.2,0.2z"/>
	<path class="st0" d="M5.9,11.1c-0.5,2.7-0.9,5.2-1.4,7.7H1C2.1,12.5,3.2,6.3,4.3,0.2h19.2c-0.5,3.2,0.2,2.7-2.9,2.7&#xA;		c-3.8,0-7.7,0-11.5,0H7.3C7,4.7,6.7,6.4,6.4,8.3H21l-0.4,2.8H5.9z"/>
	<path class="st0" d="M106.4,18.8c-1.1,0.1-2.2,0-3.3,0c-0.4-0.1-0.9-0.6-1.1-1c-2-4-3.9-8.1-5.8-12.1c-0.2-0.5-0.5-1-0.8-1.6&#xA;		c-2.3,2.7-4.5,5.3-6.7,8c-1.5,1.7-3,3.4-4.3,5.2c-0.7,1.2-2.1,1.8-3.5,1.6c-0.6,0-1.1,0-1.7,0c0.3-0.4,0.5-0.7,0.7-1&#xA;		C84.6,12.2,89.3,6.6,94,1.1c0.7-1,2-1.4,3.1-0.7C97.5,0.6,97.9,1,98,1.5c2.7,5.5,5.3,11,8,16.4C106.2,18.1,106.2,18.4,106.4,18.8z"/>
	<path class="st1" d="M21.6,15.3c-0.2-0.3-0.5-0.5-0.9-0.5c-0.2,0-0.4,0-0.5,0.1c-0.1,0.1-0.2,0.2-0.3,0.3c-0.2,0.3-0.2,0.6-0.1,0.9&#xA;		c0,0.1,0.1,0.1,0.1,0.2c0,0,0,0.1-0.1,0.1c0,0.1-0.1,0.1-0.1,0.2c-0.1,0.2-0.3,0.5-0.5,0.7c-0.1,0.1-0.2,0.2-0.3,0.3l0,0&#xA;		c0,0-0.1,0-0.1,0c-0.1,0-0.2-0.1-0.3-0.2c-0.1-0.1-0.2-0.2-0.2-0.3l-0.1-0.1c0-0.1-0.1-0.2-0.1-0.2c0-0.1-0.1-0.2-0.1-0.3&#xA;		c0.1-0.1,0.1-0.2,0.2-0.3c0.1-0.1,0.1-0.3,0.1-0.4c0-0.2-0.1-0.4-0.2-0.6c-0.2-0.2-0.4-0.3-0.7-0.4c-0.2,0-0.5,0-0.7,0.1&#xA;		c-0.2,0.1-0.4,0.4-0.4,0.6c0,0.1,0,0.2,0,0.4c0,0.1,0.1,0.2,0.1,0.3l0,0c0.1,0.1,0.1,0.2,0.3,0.3c0,0.1,0,0.2-0.1,0.3&#xA;		c-0.1,0.2-0.1,0.3-0.2,0.5l0,0.1c0,0.1-0.1,0.2-0.2,0.3c0,0-0.1,0.1-0.1,0.1l0,0c0,0,0,0-0.1,0c-0.1,0-0.2,0-0.2,0&#xA;		c-0.1-0.1-0.3-0.1-0.4-0.3c-0.2-0.1-0.3-0.3-0.5-0.5c-0.3-0.3-0.5-0.5-0.6-0.7c-0.1-0.1-0.2-0.2-0.2-0.3l0-0.1&#xA;		c0-0.1,0.1-0.2,0.1-0.2c0.1-0.3,0-0.5-0.1-0.8c-0.2-0.2-0.4-0.4-0.7-0.4c-0.2,0-0.3,0-0.5,0.1c0,0-0.1,0-0.1,0.1l0,0&#xA;		c-0.1,0-0.2,0.1-0.2,0.2c-0.1,0.1-0.2,0.3-0.3,0.5c0,0.2,0,0.3,0,0.5c0.1,0.2,0.2,0.4,0.4,0.5c0.1,0.1,0.2,0.1,0.4,0.2&#xA;		c0,0,0,0,0,0.1l0,0.1c0,0.1,0.1,0.2,0.1,0.4c0,0.3,0.1,0.5,0.1,0.7c0,0.4,0.1,0.7,0,1.1c0,0.1,0,0.2-0.1,0.3c0,0.1-0.1,0.1-0.1,0.2&#xA;		l0,0c-0.1,0-0.2,0-0.3,0c0,0-0.1,0-0.2,0c0,0-0.1,0-0.2,0c-0.2,0-0.3-0.1-0.5-0.2c-0.1-0.1-0.2-0.1-0.3-0.2c0-0.2,0-0.3-0.1-0.5&#xA;		c0-0.1-0.1-0.2-0.2-0.3c-0.1-0.1-0.1-0.2-0.2-0.2c-0.1-0.1-0.2-0.1-0.3-0.1c-0.2-0.1-0.5,0-0.7,0.1c-0.3,0.2-0.5,0.5-0.5,0.9&#xA;		c0,0.3,0.1,0.5,0.3,0.7c0.1,0.2,0.3,0.3,0.5,0.3c0.1,0,0.2,0,0.3,0c0,0.1,0.1,0.1,0.1,0.2c0,0.1,0.1,0.1,0.1,0.2l0,0.1c0,0,0,0,0,0&#xA;		c0,0,0,0.1,0,0.1c0,0.1,0,0.1,0,0.2c0,0.1,0,0.2,0,0.3c0,0.1,0,0.1-0.1,0.2c0,0-0.1,0.1-0.2,0.1c0,0-0.1,0-0.1,0c0,0-0.1,0-0.1,0&#xA;		c-0.3,0-0.5,0-0.7,0c-0.2,0-0.4,0-0.6-0.1c0,0,0-0.1,0-0.1c-0.1-0.2-0.2-0.4-0.4-0.5c-0.2-0.2-0.6-0.2-0.8-0.2&#xA;		c-0.2,0.1-0.4,0.2-0.6,0.5c-0.1,0.2-0.1,0.4-0.1,0.6c0,0.2,0.1,0.3,0.2,0.4c0.2,0.2,0.4,0.4,0.6,0.4c0.2,0,0.4,0,0.6-0.1l0.4,0.3&#xA;		l0.1,0.1C9.3,23,9.4,23,9.4,23.1c0.1,0.1,0.2,0.1,0.2,0.2l0.2,0.2l0.1,0.1c0.1,0.1,0.1,0.1,0.2,0.2c0.1,0.1,0.1,0.1,0.2,0.2&#xA;		l0.2,0.1l0.2,0.2c0.1,0.1,0.2,0.1,0.2,0.2c0.1,0.1,0.2,0.2,0.3,0.3l0.2,0.2c0.1,0.1,0.1,0.1,0.2,0.2c0.1,0.1,0.1,0.1,0.2,0.2&#xA;		c0.1,0.1,0.1,0.1,0.2,0.2l0.1,0.1l0.2,0.2c0.1,0.1,0.2,0.2,0.3,0.2c0,0,0.1,0.1,0.1,0.1l0.1,0.1c0.1,0.1,0.3,0.2,0.4,0.1&#xA;		c0,0,0.1,0,0.1-0.1l0,0c0,0,0.1-0.1,0.1-0.1c0.1,0,0.1-0.1,0.2-0.1c0.1-0.1,0.3-0.2,0.4-0.3c0.1-0.1,0.3-0.2,0.5-0.3l0.1-0.1&#xA;		c0.1-0.1,0.2-0.2,0.4-0.2c0.1-0.1,0.3-0.2,0.4-0.2c0.1-0.1,0.2-0.1,0.4-0.2l0.1,0c0.1,0,0.2-0.1,0.3-0.1l0.1,0&#xA;		c0.1-0.1,0.3-0.1,0.4-0.2l0.1,0c0.2-0.1,0.3-0.1,0.5-0.2l0.2-0.1l0.1,0c0.2-0.1,0.4-0.2,0.5-0.2c0,0,0.1,0,0.1,0l0.1,0l0.3-0.1&#xA;		l0.2-0.1l0.1-0.1c0,0,0.1,0,0.1,0c0.1,0,0.1,0,0.2-0.1l0.2-0.1c0,0,0.1,0,0.1,0c0,0,0.1,0,0.1,0c0.1,0,0.1,0,0.2-0.1l0.1,0l0.1,0&#xA;		c0.1,0,0.1,0,0.2-0.1c0.1,0,0.2-0.1,0.4-0.1c0.1,0,0.3-0.1,0.4-0.1c0.1,0,0.1,0,0.2,0l0.4-0.1l0-0.4l0-0.2l0-0.3c0-0.2,0-0.5,0-0.8&#xA;		c0-0.3,0-0.7,0-1c0-0.4,0-0.7,0-1.1c0-0.3,0-0.6,0-0.9c0-0.3,0-0.6,0-0.9c0-0.1,0-0.2,0-0.4l0-0.1c0.1-0.1,0.2-0.1,0.3-0.2&#xA;		c0.1-0.1,0.2-0.3,0.3-0.5C21.9,15.8,21.8,15.5,21.6,15.3z M13.3,16L13.3,16L13.3,16L13.3,16C13.3,16.1,13.3,16,13.3,16L13.3,16z&#xA;		 M20.6,16.9c0,0.1,0,0.3,0,0.4c0,0.3,0,0.6,0,0.9c0,0.3,0,0.6,0,1c0,0.4,0,0.7,0,1.1c0,0.3,0,0.7,0,1c0,0.3,0,0.5,0,0.8l0,0.2&#xA;		c-0.1,0-0.3,0.1-0.4,0.1c-0.1,0-0.3,0.1-0.4,0.1c-0.1,0-0.1,0-0.2,0.1l-0.1,0l-0.1,0c-0.1,0-0.1,0-0.2,0.1c0,0-0.1,0-0.1,0&#xA;		c0,0-0.1,0-0.1,0c-0.1,0-0.1,0-0.2,0.1c-0.1,0-0.1,0-0.2,0.1c-0.1,0-0.1,0-0.2,0.1l-0.1,0.1L18.2,23l-0.3,0.1l-0.1,0&#xA;		c0,0-0.1,0-0.1,0.1c-0.2,0.1-0.4,0.2-0.5,0.2l-0.1,0l-0.2,0.1c-0.2,0.1-0.3,0.1-0.5,0.2l-0.1,0c-0.1,0.1-0.3,0.1-0.4,0.2l-0.1,0&#xA;		c-0.1,0-0.2,0.1-0.3,0.1l-0.1,0c-0.1,0.1-0.2,0.1-0.4,0.2c-0.2,0.1-0.3,0.2-0.5,0.3c-0.1,0.1-0.2,0.1-0.4,0.2L14.2,25&#xA;		c-0.2,0.1-0.3,0.2-0.5,0.3c-0.2,0.1-0.3,0.2-0.4,0.3l-0.1,0.1l-0.1-0.1c-0.1-0.1-0.2-0.2-0.3-0.2c-0.1-0.1-0.1-0.1-0.2-0.2L12.5,25&#xA;		c-0.1-0.1-0.1-0.1-0.2-0.2c-0.1-0.1-0.1-0.1-0.2-0.2c-0.1,0-0.1-0.1-0.2-0.1c-0.1-0.1-0.1-0.1-0.2-0.2c-0.1-0.1-0.2-0.2-0.3-0.3&#xA;		c-0.1-0.1-0.2-0.1-0.2-0.2l-0.2-0.2l-0.2-0.1c-0.1-0.1-0.2-0.1-0.2-0.2c-0.1-0.1-0.1-0.1-0.2-0.2c0,0-0.1-0.1-0.1-0.1&#xA;		c-0.1-0.1-0.1-0.1-0.2-0.2c-0.1-0.1-0.2-0.1-0.2-0.2c-0.1-0.1-0.1-0.1-0.2-0.2l-0.1-0.1l-0.2-0.2c0.2,0,0.3,0.1,0.5,0.1&#xA;		c0.2,0,0.4,0,0.7,0c0.1,0,0.2,0,0.3-0.1c0,0,0.1,0,0.1,0c0.1,0,0.2-0.1,0.3-0.2c0.2-0.2,0.3-0.4,0.3-0.6c0-0.2,0-0.4-0.1-0.6&#xA;		c0-0.1,0-0.1,0-0.2c0,0,0-0.1,0-0.1c0-0.1,0-0.1,0-0.1l0-0.1c0-0.1-0.1-0.2-0.1-0.3c0,0,0.1,0,0.1,0.1c0.2,0.1,0.4,0.2,0.7,0.2&#xA;		c0,0,0.1,0,0.1,0c0.1,0,0.1,0,0.2,0c0.2,0,0.5,0,0.7-0.1c0.2-0.1,0.4-0.3,0.5-0.5c0.1-0.2,0.1-0.4,0.2-0.5c0-0.4,0-0.8,0-1.3&#xA;		c0-0.3-0.1-0.5-0.1-0.7c0-0.1,0-0.2-0.1-0.3c0,0,0.1,0.1,0.1,0.1c0.2,0.2,0.4,0.5,0.6,0.8c0.2,0.2,0.4,0.4,0.6,0.6&#xA;		c0.2,0.2,0.4,0.3,0.6,0.4c0.2,0.1,0.4,0.1,0.6,0.1c0.1,0,0.1,0,0.2-0.1l0,0c0.1-0.1,0.2-0.1,0.3-0.2c0.2-0.2,0.3-0.3,0.4-0.5l0-0.1&#xA;		c0.1-0.2,0.1-0.4,0.2-0.5c0-0.1,0.1-0.2,0.1-0.3c0,0.1,0.1,0.1,0.1,0.2c0,0.1,0.1,0.2,0.2,0.3l0,0.1c0.1,0.2,0.2,0.3,0.3,0.5&#xA;		c0.2,0.2,0.5,0.3,0.8,0.4c0.1,0,0.3,0,0.4-0.1c0,0,0.1,0,0.1,0c0.2-0.1,0.4-0.3,0.6-0.4c0.2-0.2,0.4-0.5,0.6-0.8&#xA;		C20.5,17,20.5,16.9,20.6,16.9L20.6,16.9L20.6,16.9z"/>
	<path class="st1" d="M19.3,31.1l0.2-0.3c0.1-0.1,0.1-0.3,0.1-0.5l0.4-4.2l0-0.2c0-0.1,0-0.2,0-0.3c0-0.1-0.1-0.2-0.1-0.3h3.5&#xA;		l-0.1,1.1c-0.1-0.2-0.3-0.4-0.5-0.5c-0.3-0.1-0.6-0.2-0.9-0.1h-0.9l-0.2,2l0.7,0H22l0.3-0.1c0.1,0,0.2-0.1,0.3-0.2&#xA;		c0.1-0.1,0.1-0.1,0.2-0.2l-0.1,1.3c-0.1-0.2-0.2-0.3-0.4-0.4c-0.2-0.1-0.5-0.1-0.7-0.1l-0.7,0l-0.2,2.1v0.2c0,0.1,0,0.2,0.1,0.3&#xA;		l0.2,0.3L19.3,31.1z"/>
	<path class="st1" d="M26.8,30.5l-0.3,0.3c-0.4,0.3-0.9,0.5-1.4,0.5c-0.4,0-0.7-0.1-1-0.3c-0.2-0.2-0.4-0.4-0.4-0.7&#xA;		c0-0.1,0-0.2,0-0.3s0-0.2,0.1-0.5l0.4-2.4l0-0.3c0-0.2-0.1-0.3-0.1-0.5h1.1l-0.5,3l-0.1,0.4l0,0.3c0,0.5,0.3,0.8,0.9,0.8&#xA;		c0.2,0,0.4,0,0.6-0.1c0.2-0.1,0.3-0.2,0.5-0.3c0.1-0.1,0.2-0.2,0.2-0.3c0.1-0.2,0.1-0.4,0.1-0.6l0.4-2.3l0-0.3&#xA;		c0-0.2-0.1-0.3-0.1-0.5h1.1l-0.6,4.1l0,0.3c0,0.1,0.1,0.3,0.1,0.4h-1.1L26.8,30.5z"/>
	<path class="st1" d="M30.7,30.9c-0.3,0.2-0.6,0.3-0.9,0.3c-0.2,0-0.4-0.1-0.6-0.2c-0.2-0.1-0.2-0.3-0.2-0.5l0.1-0.6l0.5-3.2l-0.4,0&#xA;		l0.2-0.5l0.3,0l0.2-1l1-0.3l-0.2,1.3l0.9,0l-0.2,0.5l-0.8,0l-0.5,3.2l0,0.4c0,0.2,0.1,0.4,0.3,0.4c0.2,0,0.5-0.2,0.6-0.3L30.7,30.9&#xA;		z"/>
	<path class="st1" d="M34.6,30.5l-0.3,0.3c-0.4,0.3-0.9,0.5-1.4,0.5c-0.4,0-0.7-0.1-1-0.3c-0.2-0.2-0.4-0.4-0.4-0.7&#xA;		c0-0.1,0-0.2,0-0.3s0-0.2,0.1-0.5L32,27l0-0.3c0-0.2-0.1-0.3-0.1-0.5H33l-0.5,3l-0.1,0.4l0,0.3c0,0.5,0.3,0.8,0.9,0.8&#xA;		c0.2,0,0.4,0,0.6-0.1c0.2-0.1,0.3-0.2,0.5-0.3c0.1-0.1,0.2-0.2,0.2-0.3c0.1-0.2,0.1-0.4,0.1-0.6l0.4-2.3l0-0.3&#xA;		c0-0.2-0.1-0.3-0.1-0.5h1.1l-0.6,4.1l0,0.3c0,0.1,0.1,0.3,0.1,0.4h-1.1L34.6,30.5z"/>
	<path class="st1" d="M36.5,31.1c0.1-0.1,0.2-0.2,0.2-0.3c0.1-0.1,0.1-0.3,0.1-0.4l0.5-3.3l0-0.3c0-0.2,0-0.3-0.1-0.5h1.1l-0.1,0.7&#xA;		l0.4-0.3l0.4-0.2l0.4-0.1c0.2,0,0.3-0.1,0.5-0.1l-0.2,1.3c-0.1-0.2-0.1-0.3-0.3-0.4c-0.1-0.1-0.2-0.1-0.3-0.1&#xA;		c-0.2,0-0.5,0.1-0.6,0.3c-0.2,0.2-0.3,0.5-0.3,0.8l-0.4,2.3l0,0.4c0,0.1,0,0.1,0,0.2l0.1,0.2L36.5,31.1z"/>
	<path class="st1" d="M44.2,28.1h-3.5l-0.1,0.6l0,0.5c0,1,0.4,1.6,1.3,1.6c0.4,0,0.8-0.1,1.2-0.4l0.4-0.2c0.1-0.1,0.2-0.2,0.3-0.3&#xA;		l-0.3,0.8l-0.3,0.2c-0.5,0.3-1,0.4-1.5,0.5c-0.6,0-1.1-0.2-1.5-0.6c-0.4-0.4-0.6-1-0.5-1.5c0-0.8,0.3-1.6,0.8-2.1&#xA;		c0.5-0.6,1.3-0.9,2-0.9c0.5,0,0.9,0.1,1.3,0.4c0.3,0.3,0.5,0.7,0.5,1.2V28.1L44.2,28.1z M41.4,26.9c-0.1,0.1-0.2,0.2-0.3,0.3&#xA;		l-0.2,0.5H43c0.1,0,0.2,0,0.2-0.1c0.1-0.1,0.1-0.2,0.1-0.3c0-0.2-0.1-0.4-0.3-0.6c-0.2-0.2-0.4-0.2-0.7-0.2&#xA;		C42,26.5,41.7,26.7,41.4,26.9z"/>
	<path class="st1" d="M52.5,25.4l-0.1,1.3c-0.1-0.1-0.2-0.3-0.3-0.4C52.1,26.1,52,26,52,26c-0.3-0.2-0.7-0.4-1.1-0.3&#xA;		c-0.6,0-1.2,0.3-1.5,0.8c-0.4,0.6-0.6,1.4-0.6,2.2c0,0.6,0.1,1.1,0.4,1.6c0.3,0.4,0.7,0.6,1.2,0.6c0.2,0,0.3,0,0.5-0.1&#xA;		c0.2-0.1,0.4-0.1,0.5-0.2l0.2-1.8l0-0.2c0-0.1,0-0.2,0-0.3L51.3,28h1.5c-0.1,0.1-0.2,0.2-0.2,0.4c0,0.1-0.1,0.3-0.1,0.4l-0.1,1.7&#xA;		l0,0.1c0,0.1,0,0.2,0.1,0.3L52,30.9c-0.3,0.1-0.6,0.2-1,0.2c-0.3,0-0.6,0.1-0.9,0.1c-0.7,0-1.3-0.2-1.8-0.7&#xA;		c-0.5-0.5-0.7-1.2-0.7-1.9c0-0.9,0.3-1.7,0.9-2.4c0.5-0.6,1.3-1,2.2-1h0.4l0.4,0.1l0.4,0.1l0.2,0L52.5,25.4z"/>
	<path class="st1" d="M58.4,26.4c0,0.1-0.1,0.1-0.1,0.1c0,0.1-0.1,0.1-0.1,0.2l-0.1,0.5l-0.5,3.3v0.4c0,0,0,0,0,0.1&#xA;		c0,0,0,0.1,0.1,0.1h-0.9l-0.1-0.3c0-0.1,0-0.2,0-0.3l-0.2,0.2l-0.1,0.1c-0.2,0.2-0.4,0.3-0.6,0.4c-0.1,0-0.2,0.1-0.3,0.1&#xA;		c-0.1,0-0.2,0-0.4,0c-0.4,0-0.9-0.2-1.1-0.5c-0.3-0.4-0.5-0.9-0.4-1.4c-0.1-1.7,1.3-3.1,2.9-3.1c0.1,0,0.1,0,0.2,0&#xA;		c0.2,0,0.5,0,0.7,0.1l0.6,0.1L58.4,26.4z M56.5,30.2c0.1-0.1,0.2-0.2,0.2-0.4c0.1-0.2,0.1-0.4,0.1-0.6l0.3-1.9l0-0.3&#xA;		c0-0.4-0.2-0.6-0.7-0.6c-0.6,0-1.1,0.3-1.4,0.8c-0.4,0.5-0.6,1.2-0.6,1.9c0,0.4,0.1,0.8,0.3,1.1c0.2,0.3,0.5,0.4,0.8,0.4&#xA;		C55.9,30.6,56.2,30.5,56.5,30.2z"/>
	<path class="st1" d="M58.5,31.1c0,0,0.1-0.1,0.1-0.1c0.1-0.1,0.1-0.1,0.1-0.2c0-0.1,0.1-0.3,0.1-0.4l0.5-3.3l0-0.4&#xA;		c0-0.1-0.1-0.3-0.1-0.4h1.1l-0.1,0.5l0.4-0.3c0.4-0.2,0.8-0.4,1.3-0.4c0.2,0,0.4,0,0.6,0.1c0.1,0,0.3,0.1,0.4,0.2&#xA;		c0.1,0.1,0.2,0.3,0.3,0.5l0.3-0.3c0.4-0.3,0.9-0.5,1.5-0.5c0.3,0,0.7,0.1,1,0.3c0.2,0.1,0.4,0.4,0.4,0.7l-0.1,0.6l-0.4,2.6l0,0.3&#xA;		c0,0.2,0.1,0.3,0.2,0.4h-1.3l0.2-0.8l0.1-0.6l0.3-1.7l0.1-0.5c0-0.2-0.1-0.4-0.2-0.6c-0.2-0.1-0.4-0.2-0.6-0.2&#xA;		c-0.7,0-1.4,0.5-1.4,1.2l-0.4,2.5l0,0.3l0,0.2l0.1,0.2l-1.2,0l0.3-1.3l0.3-1.7l0.1-0.7c0-0.5-0.3-0.8-0.8-0.8c-0.4,0-0.7,0.1-1,0.3&#xA;		c-0.1,0.1-0.2,0.2-0.3,0.3c-0.1,0.2-0.1,0.4-0.1,0.6l-0.4,2.4l0,0.3c0,0.1,0,0.1,0,0.2l0.1,0.2L58.5,31.1z"/>
	<path class="st1" d="M66.8,31.1c0.2-0.2,0.4-0.5,0.4-0.8l0.5-3.3l0-0.4c0-0.1,0-0.1,0-0.2c0-0.1-0.1-0.2-0.1-0.2h1.1l-0.6,4.1&#xA;		l-0.1,0.4c0,0.1,0.1,0.3,0.1,0.4L66.8,31.1z M68,24.7c0-0.2,0.1-0.3,0.2-0.4c0.1-0.1,0.3-0.2,0.4-0.2c0.1,0,0.3,0.1,0.4,0.2&#xA;		c0.1,0.1,0.2,0.3,0.2,0.4c0,0.2-0.1,0.3-0.2,0.4c-0.1,0.1-0.1,0.1-0.2,0.1c-0.1,0-0.2,0-0.3,0c-0.1,0-0.3-0.1-0.4-0.2&#xA;		C68,25,68,24.8,68,24.7z"/>
	<path class="st1" d="M68.9,31.1c0.1-0.1,0.2-0.2,0.2-0.4c0.1-0.1,0.1-0.3,0.1-0.4l0.5-3.3l0-0.4c0-0.1,0-0.3-0.1-0.4h1.1l-0.1,0.6&#xA;		l0.3-0.2c0.4-0.3,0.9-0.4,1.4-0.4c0.4,0,0.7,0.1,1,0.3c0.2,0.2,0.4,0.4,0.4,0.7l-0.1,0.5l-0.4,2.7l0,0.3c0,0.1,0,0.1,0,0.2l0.1,0.2&#xA;		h-1.2l0.2-0.6c0.1-0.2,0.1-0.5,0.2-0.8l0.3-1.7l0.1-0.6c0-0.5-0.3-0.7-0.9-0.7h-0.3l-0.3,0.1l-0.3,0.1c-0.1,0-0.1,0.1-0.2,0.1&#xA;		c-0.1,0.1-0.2,0.2-0.3,0.4c-0.1,0.2-0.1,0.4-0.2,0.6l-0.4,2.3l0,0.4c0,0.1,0.1,0.3,0.1,0.4H68.9z"/>
	<path class="st1" d="M74.2,33.2l0.8-0.7c0,0.6,0.3,0.9,0.9,0.9c0.4,0,0.7-0.2,1-0.4c0.3-0.3,0.5-0.7,0.6-1.1l0.3-1.5l-0.3,0.3&#xA;		c-0.4,0.3-0.8,0.5-1.3,0.5c-0.4,0-0.9-0.2-1.1-0.5c-0.3-0.4-0.5-0.9-0.4-1.4c-0.1-1.7,1.3-3.1,2.9-3.1c0.1,0,0.2,0,0.2,0&#xA;		c0.2,0,0.5,0,0.7,0.1l0.6,0.1l0.4,0.1l-0.2,0.3L79,27.3l-0.7,4.2c-0.1,0.7-0.4,1.3-0.9,1.8c-0.6,0.6-1.5,0.9-2.3,0.6&#xA;		c-0.1,0-0.2-0.1-0.3-0.1c-0.1,0-0.2-0.1-0.2-0.1C74.4,33.6,74.3,33.4,74.2,33.2z M77.5,30.2c0.1-0.1,0.2-0.2,0.3-0.4&#xA;		c0.1-0.2,0.1-0.4,0.1-0.6l0.3-1.9l0-0.3c0-0.4-0.2-0.6-0.7-0.6c-0.6,0-1.1,0.3-1.5,0.8c-0.4,0.5-0.6,1.2-0.6,1.9&#xA;		c0,0.4,0.1,0.8,0.3,1.1c0.2,0.3,0.5,0.4,0.8,0.4C76.9,30.6,77.2,30.5,77.5,30.2z"/>
	<path class="st1" d="M82.4,30.8l0.1-1.2c0,0.1,0.1,0.2,0.1,0.3c0,0.1,0.1,0.1,0.1,0.2c0.1,0.1,0.1,0.2,0.2,0.3&#xA;		c0.2,0.2,0.5,0.4,0.9,0.4c0.3,0,0.6-0.1,0.9-0.3c0.2-0.2,0.3-0.5,0.3-0.8c0-0.2-0.1-0.5-0.2-0.6l-0.2-0.2l-0.2-0.2L84,28.3&#xA;		c-0.3-0.2-0.6-0.5-0.8-0.8C83,27.3,83,27,83,26.7c0-0.4,0.2-0.8,0.5-1.1c0.4-0.3,0.8-0.5,1.3-0.5c0.2,0,0.4,0,0.5,0.1l0.5,0.1h0.2&#xA;		c0.1,0,0.2,0,0.2-0.1L86,26.6c-0.1-0.6-0.6-1-1.1-1c-0.2,0-0.5,0.1-0.7,0.2C84.1,26,84,26.2,84,26.5c0,0.2,0.1,0.4,0.2,0.5&#xA;		c0.2,0.2,0.4,0.5,0.7,0.6l0.5,0.3c0.2,0.2,0.4,0.4,0.6,0.6c0.1,0.2,0.2,0.5,0.2,0.7c0,0.5-0.2,1-0.6,1.3c-0.4,0.4-1,0.6-1.5,0.6&#xA;		c-0.2,0-0.4,0-0.6-0.1L82.9,31L82.4,30.8z"/>
	<path class="st1" d="M86.9,28.7c0.1-0.7,0.5-1.4,1-1.8c0.3-0.2,0.6-0.4,0.9-0.6c0.3-0.1,0.7-0.2,1.1-0.2c0.6,0,1.1,0.2,1.6,0.6&#xA;		c0.4,0.4,0.6,1,0.6,1.5c0,0.8-0.3,1.5-0.9,2.1c-0.6,0.6-1.3,0.9-2.1,0.9c-0.6,0-1.2-0.2-1.6-0.6c-0.4-0.4-0.6-1-0.6-1.6L86.9,28.7z&#xA;		 M87.9,29.1v0.3c0,0.4,0.2,0.8,0.4,1.1c0.2,0.3,0.5,0.4,0.9,0.4c0.5,0,1.1-0.3,1.4-0.7c0.4-0.5,0.6-1.1,0.6-1.8&#xA;		c0-0.5-0.1-1-0.3-1.4c-0.2-0.3-0.6-0.5-0.9-0.5c-0.6,0-1.1,0.3-1.4,0.7C88.1,27.8,87.9,28.5,87.9,29.1z"/>
	<path class="st1" d="M92.4,31.1c0.1-0.1,0.2-0.2,0.2-0.3c0.1-0.1,0.1-0.3,0.1-0.5l1-6l0-0.4c0-0.1,0-0.1,0-0.2&#xA;		c0-0.1-0.1-0.2-0.1-0.3h1.1l-1.1,6.8l0,0.3c0,0.1,0,0.3,0.1,0.4H92.4z"/>
	<path class="st1" d="M98.1,30.5l-0.3,0.3c-0.4,0.3-0.9,0.5-1.4,0.5c-0.4,0-0.7-0.1-1-0.3c-0.2-0.2-0.4-0.4-0.4-0.7&#xA;		c0-0.1,0-0.2,0-0.3s0-0.2,0.1-0.5l0.4-2.4l0-0.3c0-0.2-0.1-0.3-0.1-0.5h1.1l-0.5,3l-0.1,0.4l0,0.3c0,0.5,0.3,0.8,0.9,0.8&#xA;		c0.2,0,0.4,0,0.6-0.1c0.2-0.1,0.3-0.2,0.5-0.3c0.1-0.1,0.2-0.2,0.2-0.3c0.1-0.2,0.1-0.4,0.1-0.6l0.4-2.3l0-0.3&#xA;		c0-0.2-0.1-0.3-0.1-0.5h1.1L99,30.3l0,0.3c0,0.1,0.1,0.3,0.1,0.4H98L98.1,30.5z"/>
	<path class="st1" d="M102,30.9c-0.3,0.2-0.6,0.3-0.9,0.3c-0.2,0-0.4-0.1-0.6-0.2c-0.2-0.1-0.2-0.3-0.2-0.5l0.1-0.6l0.5-3.2l-0.4,0&#xA;		l0.2-0.5l0.3,0l0.2-1l1-0.3l-0.2,1.3l0.9,0l-0.2,0.5l-0.8,0l-0.5,3.2l0,0.4c0,0.2,0.1,0.4,0.3,0.4c0.2,0,0.5-0.2,0.6-0.3L102,30.9z"/>
	<path class="st1" d="M102.4,31.1c0.2-0.2,0.4-0.5,0.4-0.8l0.5-3.3l0-0.4c0-0.1,0-0.1,0-0.2c0-0.1-0.1-0.2-0.1-0.2h1.1l-0.6,4.1&#xA;		l-0.1,0.4c0,0.1,0.1,0.3,0.1,0.4L102.4,31.1z M103.6,24.7c0-0.2,0.1-0.3,0.2-0.4c0.1-0.1,0.3-0.2,0.4-0.2c0.1,0,0.3,0.1,0.4,0.2&#xA;		c0.1,0.1,0.2,0.3,0.2,0.4c0,0.2-0.1,0.3-0.2,0.4c-0.1,0.1-0.1,0.1-0.2,0.1c-0.1,0-0.2,0-0.3,0c-0.1,0-0.3-0.1-0.4-0.2&#xA;		C103.6,25,103.5,24.8,103.6,24.7L103.6,24.7z"/>
	<path class="st1" d="M104.8,28.7c0.1-0.7,0.5-1.4,1-1.8c0.3-0.2,0.6-0.4,0.9-0.6c0.3-0.1,0.7-0.2,1.1-0.2c0.6,0,1.1,0.2,1.6,0.6&#xA;		c0.4,0.4,0.6,1,0.6,1.5c0,0.8-0.3,1.5-0.9,2.1c-0.6,0.6-1.3,0.9-2.1,0.9c-0.6,0-1.2-0.2-1.6-0.6c-0.4-0.4-0.6-1-0.6-1.6L104.8,28.7&#xA;		z M105.8,29.1v0.3c0,0.4,0.2,0.8,0.4,1.1c0.2,0.3,0.5,0.4,0.9,0.4c0.5,0,1.1-0.3,1.4-0.7c0.4-0.5,0.6-1.1,0.6-1.8&#xA;		c0-0.5-0.1-1-0.3-1.4c-0.2-0.3-0.6-0.5-0.9-0.5c-0.6,0-1.1,0.3-1.4,0.7C106,27.8,105.8,28.5,105.8,29.1z"/>
	<path class="st1" d="M110.3,31.1c0.1-0.1,0.2-0.2,0.2-0.4c0.1-0.1,0.1-0.3,0.1-0.4l0.5-3.3l0-0.4c0-0.1,0-0.3-0.1-0.4h1.1l-0.1,0.6&#xA;		l0.3-0.2c0.4-0.3,0.9-0.4,1.4-0.4c0.4,0,0.7,0.1,1,0.3c0.2,0.2,0.4,0.4,0.4,0.7l-0.1,0.5l-0.4,2.7l0,0.3c0,0.1,0,0.1,0,0.2l0.1,0.2&#xA;		h-1.2l0.2-0.6c0.1-0.2,0.1-0.5,0.2-0.8l0.3-1.7l0.1-0.6c0-0.5-0.3-0.7-0.9-0.7h-0.3l-0.3,0.1l-0.3,0.1c-0.1,0-0.1,0.1-0.2,0.1&#xA;		c-0.1,0.1-0.2,0.2-0.3,0.4c-0.1,0.2-0.1,0.4-0.2,0.6l-0.4,2.3l0,0.4c0,0.1,0.1,0.3,0.1,0.4H110.3z"/>
	<path class="st1" d="M115.6,30.9l0.2-1.2c0.1,0.3,0.3,0.6,0.5,0.9c0.2,0.2,0.4,0.3,0.7,0.3c0.3,0,0.5-0.1,0.7-0.3&#xA;		c0.2-0.2,0.3-0.4,0.3-0.7c0-0.2,0-0.3-0.1-0.4c-0.1-0.1-0.1-0.1-0.2-0.2l-0.4-0.3c-0.3-0.2-0.6-0.4-0.8-0.6&#xA;		c-0.2-0.2-0.3-0.4-0.3-0.7c0-0.4,0.2-0.8,0.5-1.1c0.4-0.3,0.9-0.5,1.4-0.4h0.2c0.1,0,0.2,0,0.3,0c0.1,0,0.2,0,0.3,0.1&#xA;		c0.1,0,0.2,0.1,0.3,0.1l-0.2,1c-0.1-0.2-0.2-0.4-0.3-0.6c-0.2-0.2-0.4-0.3-0.7-0.3c-0.2,0-0.5,0.1-0.7,0.3&#xA;		c-0.2,0.2-0.3,0.4-0.3,0.6c0,0.1,0,0.3,0.1,0.4c0.1,0.1,0.3,0.3,0.5,0.4l0.3,0.2c0.3,0.1,0.5,0.3,0.7,0.6c0.1,0.2,0.2,0.4,0.2,0.6&#xA;		c0,0.5-0.2,1-0.6,1.3c-0.4,0.3-0.9,0.5-1.4,0.5c-0.2,0-0.4,0-0.6-0.1C116.1,31.1,115.8,31,115.6,30.9z"/>
	<path class="st1" d="M149.5,18.8c-2.2,0-4.3,0-6.5,0c-0.9,0-1.8-0.2-2.6-0.4c-1.5-0.3-2.5-1.7-2.2-3.2c0.6-3.8,1.2-7.6,2-11.3&#xA;		c0.5-2.3,2.7-3.6,5.7-3.6c4.6-0.1,9.3-0.1,13.9,0c3.5,0.1,4.7,1.7,4.2,5.1c-0.5,2.9-1,5.8-1.5,8.7c-0.6,3.1-2.6,4.7-6.1,4.8&#xA;		C154,18.8,151.7,18.8,149.5,18.8z M149.9,16c2.2,0,4.3,0,6.5,0c1.2,0.2,2.3-0.7,2.4-1.8c0,0,0,0,0,0c0.5-3,1.1-6.1,1.6-9.2&#xA;		c0.2-1.5-0.2-2-1.7-2c-4.3,0-8.6,0-12.9,0c-1.2-0.1-2.3,0.7-2.4,1.9c0,0,0,0.1,0,0.1c-0.5,3-1.1,6-1.6,9c-0.2,1.4,0.2,2,1.8,2&#xA;		C145.7,16,147.8,16,149.9,16z"/>
	<path class="st1" d="M149.5,18.8c-2.2,0-4.3,0-6.5,0c-0.9,0-1.8-0.2-2.6-0.4c-1.5-0.3-2.5-1.7-2.2-3.2c0.6-3.8,1.2-7.6,2-11.3&#xA;		c0.5-2.3,2.7-3.6,5.7-3.6c4.6-0.1,9.3-0.1,13.9,0c3.5,0.1,4.7,1.7,4.2,5.1c-0.5,2.9-1,5.8-1.5,8.7c-0.6,3.1-2.6,4.7-6.1,4.8&#xA;		C154,18.8,151.7,18.8,149.5,18.8z M149.9,16c2.2,0,4.3,0,6.5,0c1.2,0.2,2.3-0.7,2.4-1.8c0,0,0,0,0,0c0.5-3,1.1-6.1,1.6-9.2&#xA;		c0.2-1.5-0.2-2-1.7-2c-4.3,0-8.6,0-12.9,0c-1.2-0.1-2.3,0.7-2.4,1.9c0,0,0,0.1,0,0.1c-0.5,3-1.1,6-1.6,9c-0.2,1.4,0.2,2,1.8,2&#xA;		C145.7,16,147.8,16,149.9,16z"/>
	<path class="st1" d="M109.8,18.6c0.1-0.8,0.3-1.6,0.5-2.6h3.1c4.3,0,8.7,0,13,0c2.1,0,2.6-0.5,3-2.5c0.5-3,0.3-3.3-2.8-3.3&#xA;		c-3.4,0-6.8,0-10.2,0c-0.8,0-1.7-0.1-2.5-0.3c-1.7-0.3-2.8-1.9-2.5-3.6c0.3-3.8,2.1-5.9,5.9-6c5.6-0.2,11.1,0,16.7,0&#xA;		c0.2,2.6,0,2.8-2.4,2.8c-4.6,0-9.2,0-13.7,0c-1.2,0-2.2,0.2-2.6,1.5c-0.7,2.2-0.2,3,2.2,3c3.9,0,7.9,0,11.8,0.1&#xA;		c3.2,0.1,4.3,1.8,3.8,4.9c-0.1,0.3-0.1,0.7-0.2,1c-0.6,3.4-2.3,5.2-5.9,5.2c-5.6,0.1-11.1,0-16.7,0&#xA;		C110.1,18.7,109.9,18.7,109.8,18.6z"/>
	<path class="st1" d="M109.8,18.6c0.1-0.8,0.3-1.6,0.5-2.6h3.1c4.3,0,8.7,0,13,0c2.1,0,2.6-0.5,3-2.5c0.5-3,0.3-3.3-2.8-3.3&#xA;		c-3.4,0-6.8,0-10.2,0c-0.8,0-1.7-0.1-2.5-0.3c-1.7-0.3-2.8-1.9-2.5-3.6c0.3-3.8,2.1-5.9,5.9-6c5.6-0.2,11.1,0,16.7,0&#xA;		c0.2,2.6,0,2.8-2.4,2.8c-4.6,0-9.2,0-13.7,0c-1.2,0-2.2,0.2-2.6,1.5c-0.7,2.2-0.2,3,2.2,3c3.9,0,7.9,0,11.8,0.1&#xA;		c3.2,0.1,4.3,1.8,3.8,4.9c-0.1,0.3-0.1,0.7-0.2,1c-0.6,3.4-2.3,5.2-5.9,5.2c-5.6,0.1-11.1,0-16.7,0&#xA;		C110.1,18.7,109.9,18.7,109.8,18.6z"/>
	<path class="st1" d="M77.5,8.6c-0.5,2.5-0.8,4.9-1.4,7.1c-0.6,1.6-2.1,2.7-3.9,2.7c-2.1,0.2-4.2,0.3-6.3,0.3&#xA;		c-2.6,0.1-5.2,0-7.8-0.3c-2.8-0.3-3.7-1.7-3.2-4.5c0.6-3.2,1.2-6.4,1.7-9.6c0.2-1.6,1.2-3,2.8-3.5c1.2-0.4,2.4-0.7,3.7-0.8&#xA;		c4.9-0.1,9.8,0,14.8,0c0.2,0,0.5,0,0.7,0.1c-0.2,2.7-0.2,2.7-2.9,2.7c-4.1,0-8.3,0-12.4,0c-2.6,0-3,0.4-3.4,2.8&#xA;		c-0.5,2.7-0.9,5.4-1.4,8.1c-0.3,1.6,0.1,2.1,1.7,2.1c3.4,0.1,6.9,0.1,10.3,0c1.8,0,2.3-0.5,2.6-2.3c0.3-1.2,0.5-2.4,0.6-3.6&#xA;		c0.1-1.2,0.6-1.5,1.7-1.4C76,8.6,76.6,8.6,77.5,8.6z"/>
	<path class="st1" d="M77.5,8.6c-0.5,2.5-0.8,4.9-1.4,7.1c-0.6,1.6-2.1,2.7-3.9,2.7c-2.1,0.2-4.2,0.3-6.3,0.3&#xA;		c-2.6,0.1-5.2,0-7.8-0.3c-2.8-0.3-3.7-1.7-3.2-4.5c0.6-3.2,1.2-6.4,1.7-9.6c0.2-1.6,1.2-3,2.8-3.5c1.2-0.4,2.4-0.7,3.7-0.8&#xA;		c4.9-0.1,9.8,0,14.8,0c0.2,0,0.5,0,0.7,0.1c-0.2,2.7-0.2,2.7-2.9,2.7c-4.1,0-8.3,0-12.4,0c-2.6,0-3,0.4-3.4,2.8&#xA;		c-0.5,2.7-0.9,5.4-1.4,8.1c-0.3,1.6,0.1,2.1,1.7,2.1c3.4,0.1,6.9,0.1,10.3,0c1.8,0,2.3-0.5,2.6-2.3c0.3-1.2,0.5-2.4,0.6-3.6&#xA;		c0.1-1.2,0.6-1.5,1.7-1.4C76,8.6,76.6,8.6,77.5,8.6z"/>
	<path class="st1" d="M28.2,0.2h3.4c-0.5,2.9-1,5.7-1.5,8.5c-0.3,1.8-0.6,3.6-1,5.4c-0.3,0.7,0.1,1.5,0.8,1.8&#xA;		c0.2,0.1,0.4,0.1,0.7,0.1c4.3,0,8.6,0,12.8,0c1.3,0,1.8-0.9,2-2.1c0.7-4.1,1.4-8.1,2.1-12.2c0.1-0.5,0.2-0.9,0.3-1.4h3.5&#xA;		c-0.7,4.1-1.4,8.1-2.1,12.1c-0.1,0.6-0.2,1.3-0.3,1.9c-0.7,3.3-2.2,4.6-5.6,4.6c-4.4,0-8.8,0.1-13.1,0c-4-0.1-5.3-2-4.6-5.4&#xA;		C26.7,9.2,27.3,5,28,0.8C28.1,0.6,28.1,0.4,28.2,0.2z"/>
	<path class="st1" d="M28.2,0.2h3.4c-0.5,2.9-1,5.7-1.5,8.5c-0.3,1.8-0.6,3.6-1,5.4c-0.3,0.7,0.1,1.5,0.8,1.8&#xA;		c0.2,0.1,0.4,0.1,0.7,0.1c4.3,0,8.6,0,12.8,0c1.3,0,1.8-0.9,2-2.1c0.7-4.1,1.4-8.1,2.1-12.2c0.1-0.5,0.2-0.9,0.3-1.4h3.5&#xA;		c-0.7,4.1-1.4,8.1-2.1,12.1c-0.1,0.6-0.2,1.3-0.3,1.9c-0.7,3.3-2.2,4.6-5.6,4.6c-4.4,0-8.8,0.1-13.1,0c-4-0.1-5.3-2-4.6-5.4&#xA;		C26.7,9.2,27.3,5,28,0.8C28.1,0.6,28.1,0.4,28.2,0.2z"/>
	<path class="st1" d="M5.9,11.1c-0.5,2.7-0.9,5.2-1.4,7.7H1C2.1,12.5,3.2,6.3,4.3,0.2h19.2c-0.5,3.2,0.2,2.7-2.9,2.7&#xA;		c-3.8,0-7.7,0-11.5,0H7.3C7,4.7,6.7,6.4,6.4,8.3H21l-0.4,2.8H5.9z"/>
	<path class="st1" d="M5.9,11.1c-0.5,2.7-0.9,5.2-1.4,7.7H1C2.1,12.5,3.2,6.3,4.3,0.2h19.2c-0.5,3.2,0.2,2.7-2.9,2.7&#xA;		c-3.8,0-7.7,0-11.5,0H7.3C7,4.7,6.7,6.4,6.4,8.3H21l-0.4,2.8H5.9z"/>
	<path class="st1" d="M106.4,18.8c-1.1,0.1-2.2,0-3.3,0c-0.4-0.1-0.9-0.6-1.1-1c-2-4-3.9-8.1-5.8-12.1c-0.2-0.5-0.5-1-0.8-1.6&#xA;		c-2.3,2.7-4.5,5.3-6.7,8c-1.5,1.7-3,3.4-4.3,5.2c-0.7,1.2-2.1,1.8-3.5,1.6c-0.6,0-1.1,0-1.7,0c0.3-0.4,0.5-0.7,0.7-1&#xA;		C84.6,12.2,89.3,6.6,94,1.1c0.7-1,2-1.4,3.1-0.7C97.5,0.6,97.9,1,98,1.5c2.7,5.5,5.3,11,8,16.4C106.2,18.1,106.2,18.4,106.4,18.8z"/>
	<path class="st1" d="M106.4,18.8c-1.1,0.1-2.2,0-3.3,0c-0.4-0.1-0.9-0.6-1.1-1c-2-4-3.9-8.1-5.8-12.1c-0.2-0.5-0.5-1-0.8-1.6&#xA;		c-2.3,2.7-4.5,5.3-6.7,8c-1.5,1.7-3,3.4-4.3,5.2c-0.7,1.2-2.1,1.8-3.5,1.6c-0.6,0-1.1,0-1.7,0c0.3-0.4,0.5-0.7,0.7-1&#xA;		C84.6,12.2,89.3,6.6,94,1.1c0.7-1,2-1.4,3.1-0.7C97.5,0.6,97.9,1,98,1.5c2.7,5.5,5.3,11,8,16.4C106.2,18.1,106.2,18.4,106.4,18.8z"/>
	<path class="st1" d="M21.6,15.3c-0.2-0.3-0.5-0.5-0.9-0.5c-0.2,0-0.4,0-0.5,0.1c-0.1,0.1-0.2,0.2-0.3,0.3c-0.2,0.3-0.2,0.6-0.1,0.9&#xA;		c0,0.1,0.1,0.1,0.1,0.2c0,0,0,0.1-0.1,0.1c0,0.1-0.1,0.1-0.1,0.2c-0.1,0.2-0.3,0.5-0.5,0.7c-0.1,0.1-0.2,0.2-0.3,0.3l0,0&#xA;		c0,0-0.1,0-0.1,0c-0.1,0-0.2-0.1-0.3-0.2c-0.1-0.1-0.2-0.2-0.2-0.3l-0.1-0.1c0-0.1-0.1-0.2-0.1-0.2c0-0.1-0.1-0.2-0.1-0.3&#xA;		c0.1-0.1,0.1-0.2,0.2-0.3c0.1-0.1,0.1-0.3,0.1-0.4c0-0.2-0.1-0.4-0.2-0.6c-0.2-0.2-0.4-0.3-0.7-0.4c-0.2,0-0.5,0-0.7,0.1&#xA;		c-0.2,0.1-0.4,0.4-0.4,0.6c0,0.1,0,0.2,0,0.4c0,0.1,0.1,0.2,0.1,0.3l0,0c0.1,0.1,0.1,0.2,0.3,0.3c0,0.1,0,0.2-0.1,0.3&#xA;		c-0.1,0.2-0.1,0.3-0.2,0.5l0,0.1c0,0.1-0.1,0.2-0.2,0.3c0,0-0.1,0.1-0.1,0.1l0,0c0,0,0,0-0.1,0c-0.1,0-0.2,0-0.2,0&#xA;		c-0.1-0.1-0.3-0.1-0.4-0.3c-0.2-0.1-0.3-0.3-0.5-0.5c-0.3-0.3-0.5-0.5-0.6-0.7c-0.1-0.1-0.2-0.2-0.2-0.3l0-0.1&#xA;		c0-0.1,0.1-0.2,0.1-0.2c0.1-0.3,0-0.5-0.1-0.8c-0.2-0.2-0.4-0.4-0.7-0.4c-0.2,0-0.3,0-0.5,0.1c0,0-0.1,0-0.1,0.1l0,0&#xA;		c-0.1,0-0.2,0.1-0.2,0.2c-0.1,0.1-0.2,0.3-0.3,0.5c0,0.2,0,0.3,0,0.5c0.1,0.2,0.2,0.4,0.4,0.5c0.1,0.1,0.2,0.1,0.4,0.2&#xA;		c0,0,0,0,0,0.1l0,0.1c0,0.1,0.1,0.2,0.1,0.4c0,0.3,0.1,0.5,0.1,0.7c0,0.4,0.1,0.7,0,1.1c0,0.1,0,0.2-0.1,0.3c0,0.1-0.1,0.1-0.1,0.2&#xA;		l0,0c-0.1,0-0.2,0-0.3,0c0,0-0.1,0-0.2,0c0,0-0.1,0-0.2,0c-0.2,0-0.3-0.1-0.5-0.2c-0.1-0.1-0.2-0.1-0.3-0.2c0-0.2,0-0.3-0.1-0.5&#xA;		c0-0.1-0.1-0.2-0.2-0.3c-0.1-0.1-0.1-0.2-0.2-0.2c-0.1-0.1-0.2-0.1-0.3-0.1c-0.2-0.1-0.5,0-0.7,0.1c-0.3,0.2-0.5,0.5-0.5,0.9&#xA;		c0,0.3,0.1,0.5,0.3,0.7c0.1,0.2,0.3,0.3,0.5,0.3c0.1,0,0.2,0,0.3,0c0,0.1,0.1,0.1,0.1,0.2c0,0.1,0.1,0.1,0.1,0.2l0,0.1c0,0,0,0,0,0&#xA;		c0,0,0,0.1,0,0.1c0,0.1,0,0.1,0,0.2c0,0.1,0,0.2,0,0.3c0,0.1,0,0.1-0.1,0.2c0,0-0.1,0.1-0.2,0.1c0,0-0.1,0-0.1,0c0,0-0.1,0-0.1,0&#xA;		c-0.3,0-0.5,0-0.7,0c-0.2,0-0.4,0-0.6-0.1c0,0,0-0.1,0-0.1c-0.1-0.2-0.2-0.4-0.4-0.5c-0.2-0.2-0.6-0.2-0.8-0.2&#xA;		c-0.2,0.1-0.4,0.2-0.6,0.5c-0.1,0.2-0.1,0.4-0.1,0.6c0,0.2,0.1,0.3,0.2,0.4c0.2,0.2,0.4,0.4,0.6,0.4c0.2,0,0.4,0,0.6-0.1l0.4,0.3&#xA;		l0.1,0.1C9.3,23,9.4,23,9.4,23.1c0.1,0.1,0.2,0.1,0.2,0.2l0.2,0.2l0.1,0.1c0.1,0.1,0.1,0.1,0.2,0.2c0.1,0.1,0.1,0.1,0.2,0.2&#xA;		l0.2,0.1l0.2,0.2c0.1,0.1,0.2,0.1,0.2,0.2c0.1,0.1,0.2,0.2,0.3,0.3l0.2,0.2c0.1,0.1,0.1,0.1,0.2,0.2c0.1,0.1,0.1,0.1,0.2,0.2&#xA;		c0.1,0.1,0.1,0.1,0.2,0.2l0.1,0.1l0.2,0.2c0.1,0.1,0.2,0.2,0.3,0.2c0,0,0.1,0.1,0.1,0.1l0.1,0.1c0.1,0.1,0.3,0.2,0.4,0.1&#xA;		c0,0,0.1,0,0.1-0.1l0,0c0,0,0.1-0.1,0.1-0.1c0.1,0,0.1-0.1,0.2-0.1c0.1-0.1,0.3-0.2,0.4-0.3c0.1-0.1,0.3-0.2,0.5-0.3l0.1-0.1&#xA;		c0.1-0.1,0.2-0.2,0.4-0.2c0.1-0.1,0.3-0.2,0.4-0.2c0.1-0.1,0.2-0.1,0.4-0.2l0.1,0c0.1,0,0.2-0.1,0.3-0.1l0.1,0&#xA;		c0.1-0.1,0.3-0.1,0.4-0.2l0.1,0c0.2-0.1,0.3-0.1,0.5-0.2l0.2-0.1l0.1,0c0.2-0.1,0.4-0.2,0.5-0.2c0,0,0.1,0,0.1,0l0.1,0l0.3-0.1&#xA;		l0.2-0.1l0.1-0.1c0,0,0.1,0,0.1,0c0.1,0,0.1,0,0.2-0.1l0.2-0.1c0,0,0.1,0,0.1,0c0,0,0.1,0,0.1,0c0.1,0,0.1,0,0.2-0.1l0.1,0l0.1,0&#xA;		c0.1,0,0.1,0,0.2-0.1c0.1,0,0.2-0.1,0.4-0.1c0.1,0,0.3-0.1,0.4-0.1c0.1,0,0.1,0,0.2,0l0.4-0.1l0-0.4l0-0.2l0-0.3c0-0.2,0-0.5,0-0.8&#xA;		c0-0.3,0-0.7,0-1c0-0.4,0-0.7,0-1.1c0-0.3,0-0.6,0-0.9c0-0.3,0-0.6,0-0.9c0-0.1,0-0.2,0-0.4l0-0.1c0.1-0.1,0.2-0.1,0.3-0.2&#xA;		c0.1-0.1,0.2-0.3,0.3-0.5C21.9,15.8,21.8,15.5,21.6,15.3z M13.3,16L13.3,16L13.3,16L13.3,16C13.3,16.1,13.3,16,13.3,16L13.3,16z&#xA;		 M20.6,16.9c0,0.1,0,0.3,0,0.4c0,0.3,0,0.6,0,0.9c0,0.3,0,0.6,0,1c0,0.4,0,0.7,0,1.1c0,0.3,0,0.7,0,1c0,0.3,0,0.5,0,0.8l0,0.2&#xA;		c-0.1,0-0.3,0.1-0.4,0.1c-0.1,0-0.3,0.1-0.4,0.1c-0.1,0-0.1,0-0.2,0.1l-0.1,0l-0.1,0c-0.1,0-0.1,0-0.2,0.1c0,0-0.1,0-0.1,0&#xA;		c0,0-0.1,0-0.1,0c-0.1,0-0.1,0-0.2,0.1c-0.1,0-0.1,0-0.2,0.1c-0.1,0-0.1,0-0.2,0.1l-0.1,0.1L18.2,23l-0.3,0.1l-0.1,0&#xA;		c0,0-0.1,0-0.1,0.1c-0.2,0.1-0.4,0.2-0.5,0.2l-0.1,0l-0.2,0.1c-0.2,0.1-0.3,0.1-0.5,0.2l-0.1,0c-0.1,0.1-0.3,0.1-0.4,0.2l-0.1,0&#xA;		c-0.1,0-0.2,0.1-0.3,0.1l-0.1,0c-0.1,0.1-0.2,0.1-0.4,0.2c-0.2,0.1-0.3,0.2-0.5,0.3c-0.1,0.1-0.2,0.1-0.4,0.2L14.2,25&#xA;		c-0.2,0.1-0.3,0.2-0.5,0.3c-0.2,0.1-0.3,0.2-0.4,0.3l-0.1,0.1l-0.1-0.1c-0.1-0.1-0.2-0.2-0.3-0.2c-0.1-0.1-0.1-0.1-0.2-0.2L12.5,25&#xA;		c-0.1-0.1-0.1-0.1-0.2-0.2c-0.1-0.1-0.1-0.1-0.2-0.2c-0.1,0-0.1-0.1-0.2-0.1c-0.1-0.1-0.1-0.1-0.2-0.2c-0.1-0.1-0.2-0.2-0.3-0.3&#xA;		c-0.1-0.1-0.2-0.1-0.2-0.2l-0.2-0.2l-0.2-0.1c-0.1-0.1-0.2-0.1-0.2-0.2c-0.1-0.1-0.1-0.1-0.2-0.2c0,0-0.1-0.1-0.1-0.1&#xA;		c-0.1-0.1-0.1-0.1-0.2-0.2c-0.1-0.1-0.2-0.1-0.2-0.2c-0.1-0.1-0.1-0.1-0.2-0.2l-0.1-0.1l-0.2-0.2c0.2,0,0.3,0.1,0.5,0.1&#xA;		c0.2,0,0.4,0,0.7,0c0.1,0,0.2,0,0.3-0.1c0,0,0.1,0,0.1,0c0.1,0,0.2-0.1,0.3-0.2c0.2-0.2,0.3-0.4,0.3-0.6c0-0.2,0-0.4-0.1-0.6&#xA;		c0-0.1,0-0.1,0-0.2c0,0,0-0.1,0-0.1c0-0.1,0-0.1,0-0.1l0-0.1c0-0.1-0.1-0.2-0.1-0.3c0,0,0.1,0,0.1,0.1c0.2,0.1,0.4,0.2,0.7,0.2&#xA;		c0,0,0.1,0,0.1,0c0.1,0,0.1,0,0.2,0c0.2,0,0.5,0,0.7-0.1c0.2-0.1,0.4-0.3,0.5-0.5c0.1-0.2,0.1-0.4,0.2-0.5c0-0.4,0-0.8,0-1.3&#xA;		c0-0.3-0.1-0.5-0.1-0.7c0-0.1,0-0.2-0.1-0.3c0,0,0.1,0.1,0.1,0.1c0.2,0.2,0.4,0.5,0.6,0.8c0.2,0.2,0.4,0.4,0.6,0.6&#xA;		c0.2,0.2,0.4,0.3,0.6,0.4c0.2,0.1,0.4,0.1,0.6,0.1c0.1,0,0.1,0,0.2-0.1l0,0c0.1-0.1,0.2-0.1,0.3-0.2c0.2-0.2,0.3-0.3,0.4-0.5l0-0.1&#xA;		c0.1-0.2,0.1-0.4,0.2-0.5c0-0.1,0.1-0.2,0.1-0.3c0,0.1,0.1,0.1,0.1,0.2c0,0.1,0.1,0.2,0.2,0.3l0,0.1c0.1,0.2,0.2,0.3,0.3,0.5&#xA;		c0.2,0.2,0.5,0.3,0.8,0.4c0.1,0,0.3,0,0.4-0.1c0,0,0.1,0,0.1,0c0.2-0.1,0.4-0.3,0.6-0.4c0.2-0.2,0.4-0.5,0.6-0.8&#xA;		C20.5,17,20.5,16.9,20.6,16.9L20.6,16.9L20.6,16.9z"/>
	<path class="st1" d="M21.6,15.3c-0.2-0.3-0.5-0.5-0.9-0.5c-0.2,0-0.4,0-0.5,0.1c-0.1,0.1-0.2,0.2-0.3,0.3c-0.2,0.3-0.2,0.6-0.1,0.9&#xA;		c0,0.1,0.1,0.1,0.1,0.2c0,0,0,0.1-0.1,0.1c0,0.1-0.1,0.1-0.1,0.2c-0.1,0.2-0.3,0.5-0.5,0.7c-0.1,0.1-0.2,0.2-0.3,0.3l0,0&#xA;		c0,0-0.1,0-0.1,0c-0.1,0-0.2-0.1-0.3-0.2c-0.1-0.1-0.2-0.2-0.2-0.3l-0.1-0.1c0-0.1-0.1-0.2-0.1-0.2c0-0.1-0.1-0.2-0.1-0.3&#xA;		c0.1-0.1,0.1-0.2,0.2-0.3c0.1-0.1,0.1-0.3,0.1-0.4c0-0.2-0.1-0.4-0.2-0.6c-0.2-0.2-0.4-0.3-0.7-0.4c-0.2,0-0.5,0-0.7,0.1&#xA;		c-0.2,0.1-0.4,0.4-0.4,0.6c0,0.1,0,0.2,0,0.4c0,0.1,0.1,0.2,0.1,0.3l0,0c0.1,0.1,0.1,0.2,0.3,0.3c0,0.1,0,0.2-0.1,0.3&#xA;		c-0.1,0.2-0.1,0.3-0.2,0.5l0,0.1c0,0.1-0.1,0.2-0.2,0.3c0,0-0.1,0.1-0.1,0.1l0,0c0,0,0,0-0.1,0c-0.1,0-0.2,0-0.2,0&#xA;		c-0.1-0.1-0.3-0.1-0.4-0.3c-0.2-0.1-0.3-0.3-0.5-0.5c-0.3-0.3-0.5-0.5-0.6-0.7c-0.1-0.1-0.2-0.2-0.2-0.3l0-0.1&#xA;		c0-0.1,0.1-0.2,0.1-0.2c0.1-0.3,0-0.5-0.1-0.8c-0.2-0.2-0.4-0.4-0.7-0.4c-0.2,0-0.3,0-0.5,0.1c0,0-0.1,0-0.1,0.1l0,0&#xA;		c-0.1,0-0.2,0.1-0.2,0.2c-0.1,0.1-0.2,0.3-0.3,0.5c0,0.2,0,0.3,0,0.5c0.1,0.2,0.2,0.4,0.4,0.5c0.1,0.1,0.2,0.1,0.4,0.2&#xA;		c0,0,0,0,0,0.1l0,0.1c0,0.1,0.1,0.2,0.1,0.4c0,0.3,0.1,0.5,0.1,0.7c0,0.4,0.1,0.7,0,1.1c0,0.1,0,0.2-0.1,0.3c0,0.1-0.1,0.1-0.1,0.2&#xA;		l0,0c-0.1,0-0.2,0-0.3,0c0,0-0.1,0-0.2,0c0,0-0.1,0-0.2,0c-0.2,0-0.3-0.1-0.5-0.2c-0.1-0.1-0.2-0.1-0.3-0.2c0-0.2,0-0.3-0.1-0.5&#xA;		c0-0.1-0.1-0.2-0.2-0.3c-0.1-0.1-0.1-0.2-0.2-0.2c-0.1-0.1-0.2-0.1-0.3-0.1c-0.2-0.1-0.5,0-0.7,0.1c-0.3,0.2-0.5,0.5-0.5,0.9&#xA;		c0,0.3,0.1,0.5,0.3,0.7c0.1,0.2,0.3,0.3,0.5,0.3c0.1,0,0.2,0,0.3,0c0,0.1,0.1,0.1,0.1,0.2c0,0.1,0.1,0.1,0.1,0.2l0,0.1c0,0,0,0,0,0&#xA;		c0,0,0,0.1,0,0.1c0,0.1,0,0.1,0,0.2c0,0.1,0,0.2,0,0.3c0,0.1,0,0.1-0.1,0.2c0,0-0.1,0.1-0.2,0.1c0,0-0.1,0-0.1,0c0,0-0.1,0-0.1,0&#xA;		c-0.3,0-0.5,0-0.7,0c-0.2,0-0.4,0-0.6-0.1c0,0,0-0.1,0-0.1c-0.1-0.2-0.2-0.4-0.4-0.5c-0.2-0.2-0.6-0.2-0.8-0.2&#xA;		c-0.2,0.1-0.4,0.2-0.6,0.5c-0.1,0.2-0.1,0.4-0.1,0.6c0,0.2,0.1,0.3,0.2,0.4c0.2,0.2,0.4,0.4,0.6,0.4c0.2,0,0.4,0,0.6-0.1l0.4,0.3&#xA;		l0.1,0.1C9.3,23,9.4,23,9.4,23.1c0.1,0.1,0.2,0.1,0.2,0.2l0.2,0.2l0.1,0.1c0.1,0.1,0.1,0.1,0.2,0.2c0.1,0.1,0.1,0.1,0.2,0.2&#xA;		l0.2,0.1l0.2,0.2c0.1,0.1,0.2,0.1,0.2,0.2c0.1,0.1,0.2,0.2,0.3,0.3l0.2,0.2c0.1,0.1,0.1,0.1,0.2,0.2c0.1,0.1,0.1,0.1,0.2,0.2&#xA;		c0.1,0.1,0.1,0.1,0.2,0.2l0.1,0.1l0.2,0.2c0.1,0.1,0.2,0.2,0.3,0.2c0,0,0.1,0.1,0.1,0.1l0.1,0.1c0.1,0.1,0.3,0.2,0.4,0.1&#xA;		c0,0,0.1,0,0.1-0.1l0,0c0,0,0.1-0.1,0.1-0.1c0.1,0,0.1-0.1,0.2-0.1c0.1-0.1,0.3-0.2,0.4-0.3c0.1-0.1,0.3-0.2,0.5-0.3l0.1-0.1&#xA;		c0.1-0.1,0.2-0.2,0.4-0.2c0.1-0.1,0.3-0.2,0.4-0.2c0.1-0.1,0.2-0.1,0.4-0.2l0.1,0c0.1,0,0.2-0.1,0.3-0.1l0.1,0&#xA;		c0.1-0.1,0.3-0.1,0.4-0.2l0.1,0c0.2-0.1,0.3-0.1,0.5-0.2l0.2-0.1l0.1,0c0.2-0.1,0.4-0.2,0.5-0.2c0,0,0.1,0,0.1,0l0.1,0l0.3-0.1&#xA;		l0.2-0.1l0.1-0.1c0,0,0.1,0,0.1,0c0.1,0,0.1,0,0.2-0.1l0.2-0.1c0,0,0.1,0,0.1,0c0,0,0.1,0,0.1,0c0.1,0,0.1,0,0.2-0.1l0.1,0l0.1,0&#xA;		c0.1,0,0.1,0,0.2-0.1c0.1,0,0.2-0.1,0.4-0.1c0.1,0,0.3-0.1,0.4-0.1c0.1,0,0.1,0,0.2,0l0.4-0.1l0-0.4l0-0.2l0-0.3c0-0.2,0-0.5,0-0.8&#xA;		c0-0.3,0-0.7,0-1c0-0.4,0-0.7,0-1.1c0-0.3,0-0.6,0-0.9c0-0.3,0-0.6,0-0.9c0-0.1,0-0.2,0-0.4l0-0.1c0.1-0.1,0.2-0.1,0.3-0.2&#xA;		c0.1-0.1,0.2-0.3,0.3-0.5C21.9,15.8,21.8,15.5,21.6,15.3z M13.3,16L13.3,16L13.3,16L13.3,16C13.3,16.1,13.3,16,13.3,16L13.3,16z&#xA;		 M20.6,16.9c0,0.1,0,0.3,0,0.4c0,0.3,0,0.6,0,0.9c0,0.3,0,0.6,0,1c0,0.4,0,0.7,0,1.1c0,0.3,0,0.7,0,1c0,0.3,0,0.5,0,0.8l0,0.2&#xA;		c-0.1,0-0.3,0.1-0.4,0.1c-0.1,0-0.3,0.1-0.4,0.1c-0.1,0-0.1,0-0.2,0.1l-0.1,0l-0.1,0c-0.1,0-0.1,0-0.2,0.1c0,0-0.1,0-0.1,0&#xA;		c0,0-0.1,0-0.1,0c-0.1,0-0.1,0-0.2,0.1c-0.1,0-0.1,0-0.2,0.1c-0.1,0-0.1,0-0.2,0.1l-0.1,0.1L18.2,23l-0.3,0.1l-0.1,0&#xA;		c0,0-0.1,0-0.1,0.1c-0.2,0.1-0.4,0.2-0.5,0.2l-0.1,0l-0.2,0.1c-0.2,0.1-0.3,0.1-0.5,0.2l-0.1,0c-0.1,0.1-0.3,0.1-0.4,0.2l-0.1,0&#xA;		c-0.1,0-0.2,0.1-0.3,0.1l-0.1,0c-0.1,0.1-0.2,0.1-0.4,0.2c-0.2,0.1-0.3,0.2-0.5,0.3c-0.1,0.1-0.2,0.1-0.4,0.2L14.2,25&#xA;		c-0.2,0.1-0.3,0.2-0.5,0.3c-0.2,0.1-0.3,0.2-0.4,0.3l-0.1,0.1l-0.1-0.1c-0.1-0.1-0.2-0.2-0.3-0.2c-0.1-0.1-0.1-0.1-0.2-0.2L12.5,25&#xA;		c-0.1-0.1-0.1-0.1-0.2-0.2c-0.1-0.1-0.1-0.1-0.2-0.2c-0.1,0-0.1-0.1-0.2-0.1c-0.1-0.1-0.1-0.1-0.2-0.2c-0.1-0.1-0.2-0.2-0.3-0.3&#xA;		c-0.1-0.1-0.2-0.1-0.2-0.2l-0.2-0.2l-0.2-0.1c-0.1-0.1-0.2-0.1-0.2-0.2c-0.1-0.1-0.1-0.1-0.2-0.2c0,0-0.1-0.1-0.1-0.1&#xA;		c-0.1-0.1-0.1-0.1-0.2-0.2c-0.1-0.1-0.2-0.1-0.2-0.2c-0.1-0.1-0.1-0.1-0.2-0.2l-0.1-0.1l-0.2-0.2c0.2,0,0.3,0.1,0.5,0.1&#xA;		c0.2,0,0.4,0,0.7,0c0.1,0,0.2,0,0.3-0.1c0,0,0.1,0,0.1,0c0.1,0,0.2-0.1,0.3-0.2c0.2-0.2,0.3-0.4,0.3-0.6c0-0.2,0-0.4-0.1-0.6&#xA;		c0-0.1,0-0.1,0-0.2c0,0,0-0.1,0-0.1c0-0.1,0-0.1,0-0.1l0-0.1c0-0.1-0.1-0.2-0.1-0.3c0,0,0.1,0,0.1,0.1c0.2,0.1,0.4,0.2,0.7,0.2&#xA;		c0,0,0.1,0,0.1,0c0.1,0,0.1,0,0.2,0c0.2,0,0.5,0,0.7-0.1c0.2-0.1,0.4-0.3,0.5-0.5c0.1-0.2,0.1-0.4,0.2-0.5c0-0.4,0-0.8,0-1.3&#xA;		c0-0.3-0.1-0.5-0.1-0.7c0-0.1,0-0.2-0.1-0.3c0,0,0.1,0.1,0.1,0.1c0.2,0.2,0.4,0.5,0.6,0.8c0.2,0.2,0.4,0.4,0.6,0.6&#xA;		c0.2,0.2,0.4,0.3,0.6,0.4c0.2,0.1,0.4,0.1,0.6,0.1c0.1,0,0.1,0,0.2-0.1l0,0c0.1-0.1,0.2-0.1,0.3-0.2c0.2-0.2,0.3-0.3,0.4-0.5l0-0.1&#xA;		c0.1-0.2,0.1-0.4,0.2-0.5c0-0.1,0.1-0.2,0.1-0.3c0,0.1,0.1,0.1,0.1,0.2c0,0.1,0.1,0.2,0.2,0.3l0,0.1c0.1,0.2,0.2,0.3,0.3,0.5&#xA;		c0.2,0.2,0.5,0.3,0.8,0.4c0.1,0,0.3,0,0.4-0.1c0,0,0.1,0,0.1,0c0.2-0.1,0.4-0.3,0.6-0.4c0.2-0.2,0.4-0.5,0.6-0.8&#xA;		C20.5,17,20.5,16.9,20.6,16.9L20.6,16.9L20.6,16.9z"/>
	<path class="st1" d="M19.3,31.1l0.2-0.3c0.1-0.1,0.1-0.3,0.1-0.5l0.4-4.2l0-0.2c0-0.1,0-0.2,0-0.3c0-0.1-0.1-0.2-0.1-0.3h3.5&#xA;		l-0.1,1.1c-0.1-0.2-0.3-0.4-0.5-0.5c-0.3-0.1-0.6-0.2-0.9-0.1h-0.9l-0.2,2l0.7,0H22l0.3-0.1c0.1,0,0.2-0.1,0.3-0.2&#xA;		c0.1-0.1,0.1-0.1,0.2-0.2l-0.1,1.3c-0.1-0.2-0.2-0.3-0.4-0.4c-0.2-0.1-0.5-0.1-0.7-0.1l-0.7,0l-0.2,2.1v0.2c0,0.1,0,0.2,0.1,0.3&#xA;		l0.2,0.3L19.3,31.1z"/>
	<path class="st1" d="M26.8,30.5l-0.3,0.3c-0.4,0.3-0.9,0.5-1.4,0.5c-0.4,0-0.7-0.1-1-0.3c-0.2-0.2-0.4-0.4-0.4-0.7&#xA;		c0-0.1,0-0.2,0-0.3s0-0.2,0.1-0.5l0.4-2.4l0-0.3c0-0.2-0.1-0.3-0.1-0.5h1.1l-0.5,3l-0.1,0.4l0,0.3c0,0.5,0.3,0.8,0.9,0.8&#xA;		c0.2,0,0.4,0,0.6-0.1c0.2-0.1,0.3-0.2,0.5-0.3c0.1-0.1,0.2-0.2,0.2-0.3c0.1-0.2,0.1-0.4,0.1-0.6l0.4-2.3l0-0.3&#xA;		c0-0.2-0.1-0.3-0.1-0.5h1.1l-0.6,4.1l0,0.3c0,0.1,0.1,0.3,0.1,0.4h-1.1L26.8,30.5z"/>
	<path class="st1" d="M30.7,30.9c-0.3,0.2-0.6,0.3-0.9,0.3c-0.2,0-0.4-0.1-0.6-0.2c-0.2-0.1-0.2-0.3-0.2-0.5l0.1-0.6l0.5-3.2l-0.4,0&#xA;		l0.2-0.5l0.3,0l0.2-1l1-0.3l-0.2,1.3l0.9,0l-0.2,0.5l-0.8,0l-0.5,3.2l0,0.4c0,0.2,0.1,0.4,0.3,0.4c0.2,0,0.5-0.2,0.6-0.3L30.7,30.9&#xA;		z"/>
	<path class="st1" d="M34.6,30.5l-0.3,0.3c-0.4,0.3-0.9,0.5-1.4,0.5c-0.4,0-0.7-0.1-1-0.3c-0.2-0.2-0.4-0.4-0.4-0.7&#xA;		c0-0.1,0-0.2,0-0.3s0-0.2,0.1-0.5L32,27l0-0.3c0-0.2-0.1-0.3-0.1-0.5H33l-0.5,3l-0.1,0.4l0,0.3c0,0.5,0.3,0.8,0.9,0.8&#xA;		c0.2,0,0.4,0,0.6-0.1c0.2-0.1,0.3-0.2,0.5-0.3c0.1-0.1,0.2-0.2,0.2-0.3c0.1-0.2,0.1-0.4,0.1-0.6l0.4-2.3l0-0.3&#xA;		c0-0.2-0.1-0.3-0.1-0.5h1.1l-0.6,4.1l0,0.3c0,0.1,0.1,0.3,0.1,0.4h-1.1L34.6,30.5z"/>
	<path class="st1" d="M36.5,31.1c0.1-0.1,0.2-0.2,0.2-0.3c0.1-0.1,0.1-0.3,0.1-0.4l0.5-3.3l0-0.3c0-0.2,0-0.3-0.1-0.5h1.1l-0.1,0.7&#xA;		l0.4-0.3l0.4-0.2l0.4-0.1c0.2,0,0.3-0.1,0.5-0.1l-0.2,1.3c-0.1-0.2-0.1-0.3-0.3-0.4c-0.1-0.1-0.2-0.1-0.3-0.1&#xA;		c-0.2,0-0.5,0.1-0.6,0.3c-0.2,0.2-0.3,0.5-0.3,0.8l-0.4,2.3l0,0.4c0,0.1,0,0.1,0,0.2l0.1,0.2L36.5,31.1z"/>
	<path class="st1" d="M44.2,28.1h-3.5l-0.1,0.6l0,0.5c0,1,0.4,1.6,1.3,1.6c0.4,0,0.8-0.1,1.2-0.4l0.4-0.2c0.1-0.1,0.2-0.2,0.3-0.3&#xA;		l-0.3,0.8l-0.3,0.2c-0.5,0.3-1,0.4-1.5,0.5c-0.6,0-1.1-0.2-1.5-0.6c-0.4-0.4-0.6-1-0.5-1.5c0-0.8,0.3-1.6,0.8-2.1&#xA;		c0.5-0.6,1.3-0.9,2-0.9c0.5,0,0.9,0.1,1.3,0.4c0.3,0.3,0.5,0.7,0.5,1.2V28.1L44.2,28.1z M41.4,26.9c-0.1,0.1-0.2,0.2-0.3,0.3&#xA;		l-0.2,0.5H43c0.1,0,0.2,0,0.2-0.1c0.1-0.1,0.1-0.2,0.1-0.3c0-0.2-0.1-0.4-0.3-0.6c-0.2-0.2-0.4-0.2-0.7-0.2&#xA;		C42,26.5,41.7,26.7,41.4,26.9z"/>
	<path class="st1" d="M52.5,25.4l-0.1,1.3c-0.1-0.1-0.2-0.3-0.3-0.4C52.1,26.1,52,26,52,26c-0.3-0.2-0.7-0.4-1.1-0.3&#xA;		c-0.6,0-1.2,0.3-1.5,0.8c-0.4,0.6-0.6,1.4-0.6,2.2c0,0.6,0.1,1.1,0.4,1.6c0.3,0.4,0.7,0.6,1.2,0.6c0.2,0,0.3,0,0.5-0.1&#xA;		c0.2-0.1,0.4-0.1,0.5-0.2l0.2-1.8l0-0.2c0-0.1,0-0.2,0-0.3L51.3,28h1.5c-0.1,0.1-0.2,0.2-0.2,0.4c0,0.1-0.1,0.3-0.1,0.4l-0.1,1.7&#xA;		l0,0.1c0,0.1,0,0.2,0.1,0.3L52,30.9c-0.3,0.1-0.6,0.2-1,0.2c-0.3,0-0.6,0.1-0.9,0.1c-0.7,0-1.3-0.2-1.8-0.7&#xA;		c-0.5-0.5-0.7-1.2-0.7-1.9c0-0.9,0.3-1.7,0.9-2.4c0.5-0.6,1.3-1,2.2-1h0.4l0.4,0.1l0.4,0.1l0.2,0L52.5,25.4z"/>
	<path class="st1" d="M58.4,26.4c0,0.1-0.1,0.1-0.1,0.1c0,0.1-0.1,0.1-0.1,0.2l-0.1,0.5l-0.5,3.3v0.4c0,0,0,0,0,0.1&#xA;		c0,0,0,0.1,0.1,0.1h-0.9l-0.1-0.3c0-0.1,0-0.2,0-0.3l-0.2,0.2l-0.1,0.1c-0.2,0.2-0.4,0.3-0.6,0.4c-0.1,0-0.2,0.1-0.3,0.1&#xA;		c-0.1,0-0.2,0-0.4,0c-0.4,0-0.9-0.2-1.1-0.5c-0.3-0.4-0.5-0.9-0.4-1.4c-0.1-1.7,1.3-3.1,2.9-3.1c0.1,0,0.1,0,0.2,0&#xA;		c0.2,0,0.5,0,0.7,0.1l0.6,0.1L58.4,26.4z M56.5,30.2c0.1-0.1,0.2-0.2,0.2-0.4c0.1-0.2,0.1-0.4,0.1-0.6l0.3-1.9l0-0.3&#xA;		c0-0.4-0.2-0.6-0.7-0.6c-0.6,0-1.1,0.3-1.4,0.8c-0.4,0.5-0.6,1.2-0.6,1.9c0,0.4,0.1,0.8,0.3,1.1c0.2,0.3,0.5,0.4,0.8,0.4&#xA;		C55.9,30.6,56.2,30.5,56.5,30.2z"/>
	<path class="st1" d="M58.5,31.1c0,0,0.1-0.1,0.1-0.1c0.1-0.1,0.1-0.1,0.1-0.2c0-0.1,0.1-0.3,0.1-0.4l0.5-3.3l0-0.4&#xA;		c0-0.1-0.1-0.3-0.1-0.4h1.1l-0.1,0.5l0.4-0.3c0.4-0.2,0.8-0.4,1.3-0.4c0.2,0,0.4,0,0.6,0.1c0.1,0,0.3,0.1,0.4,0.2&#xA;		c0.1,0.1,0.2,0.3,0.3,0.5l0.3-0.3c0.4-0.3,0.9-0.5,1.5-0.5c0.3,0,0.7,0.1,1,0.3c0.2,0.1,0.4,0.4,0.4,0.7l-0.1,0.6l-0.4,2.6l0,0.3&#xA;		c0,0.2,0.1,0.3,0.2,0.4h-1.3l0.2-0.8l0.1-0.6l0.3-1.7l0.1-0.5c0-0.2-0.1-0.4-0.2-0.6c-0.2-0.1-0.4-0.2-0.6-0.2&#xA;		c-0.7,0-1.4,0.5-1.4,1.2l-0.4,2.5l0,0.3l0,0.2l0.1,0.2l-1.2,0l0.3-1.3l0.3-1.7l0.1-0.7c0-0.5-0.3-0.8-0.8-0.8c-0.4,0-0.7,0.1-1,0.3&#xA;		c-0.1,0.1-0.2,0.2-0.3,0.3c-0.1,0.2-0.1,0.4-0.1,0.6l-0.4,2.4l0,0.3c0,0.1,0,0.1,0,0.2l0.1,0.2L58.5,31.1z"/>
	<path class="st1" d="M66.8,31.1c0.2-0.2,0.4-0.5,0.4-0.8l0.5-3.3l0-0.4c0-0.1,0-0.1,0-0.2c0-0.1-0.1-0.2-0.1-0.2h1.1l-0.6,4.1&#xA;		l-0.1,0.4c0,0.1,0.1,0.3,0.1,0.4L66.8,31.1z M68,24.7c0-0.2,0.1-0.3,0.2-0.4c0.1-0.1,0.3-0.2,0.4-0.2c0.1,0,0.3,0.1,0.4,0.2&#xA;		c0.1,0.1,0.2,0.3,0.2,0.4c0,0.2-0.1,0.3-0.2,0.4c-0.1,0.1-0.1,0.1-0.2,0.1c-0.1,0-0.2,0-0.3,0c-0.1,0-0.3-0.1-0.4-0.2&#xA;		C68,25,68,24.8,68,24.7z"/>
	<path class="st1" d="M68.9,31.1c0.1-0.1,0.2-0.2,0.2-0.4c0.1-0.1,0.1-0.3,0.1-0.4l0.5-3.3l0-0.4c0-0.1,0-0.3-0.1-0.4h1.1l-0.1,0.6&#xA;		l0.3-0.2c0.4-0.3,0.9-0.4,1.4-0.4c0.4,0,0.7,0.1,1,0.3c0.2,0.2,0.4,0.4,0.4,0.7l-0.1,0.5l-0.4,2.7l0,0.3c0,0.1,0,0.1,0,0.2l0.1,0.2&#xA;		h-1.2l0.2-0.6c0.1-0.2,0.1-0.5,0.2-0.8l0.3-1.7l0.1-0.6c0-0.5-0.3-0.7-0.9-0.7h-0.3l-0.3,0.1l-0.3,0.1c-0.1,0-0.1,0.1-0.2,0.1&#xA;		c-0.1,0.1-0.2,0.2-0.3,0.4c-0.1,0.2-0.1,0.4-0.2,0.6l-0.4,2.3l0,0.4c0,0.1,0.1,0.3,0.1,0.4H68.9z"/>
	<path class="st1" d="M74.2,33.2l0.8-0.7c0,0.6,0.3,0.9,0.9,0.9c0.4,0,0.7-0.2,1-0.4c0.3-0.3,0.5-0.7,0.6-1.1l0.3-1.5l-0.3,0.3&#xA;		c-0.4,0.3-0.8,0.5-1.3,0.5c-0.4,0-0.9-0.2-1.1-0.5c-0.3-0.4-0.5-0.9-0.4-1.4c-0.1-1.7,1.3-3.1,2.9-3.1c0.1,0,0.2,0,0.2,0&#xA;		c0.2,0,0.5,0,0.7,0.1l0.6,0.1l0.4,0.1l-0.2,0.3L79,27.3l-0.7,4.2c-0.1,0.7-0.4,1.3-0.9,1.8c-0.6,0.6-1.5,0.9-2.3,0.6&#xA;		c-0.1,0-0.2-0.1-0.3-0.1c-0.1,0-0.2-0.1-0.2-0.1C74.4,33.6,74.3,33.4,74.2,33.2z M77.5,30.2c0.1-0.1,0.2-0.2,0.3-0.4&#xA;		c0.1-0.2,0.1-0.4,0.1-0.6l0.3-1.9l0-0.3c0-0.4-0.2-0.6-0.7-0.6c-0.6,0-1.1,0.3-1.5,0.8c-0.4,0.5-0.6,1.2-0.6,1.9&#xA;		c0,0.4,0.1,0.8,0.3,1.1c0.2,0.3,0.5,0.4,0.8,0.4C76.9,30.6,77.2,30.5,77.5,30.2z"/>
	<path class="st1" d="M82.4,30.8l0.1-1.2c0,0.1,0.1,0.2,0.1,0.3c0,0.1,0.1,0.1,0.1,0.2c0.1,0.1,0.1,0.2,0.2,0.3&#xA;		c0.2,0.2,0.5,0.4,0.9,0.4c0.3,0,0.6-0.1,0.9-0.3c0.2-0.2,0.3-0.5,0.3-0.8c0-0.2-0.1-0.5-0.2-0.6l-0.2-0.2l-0.2-0.2L84,28.3&#xA;		c-0.3-0.2-0.6-0.5-0.8-0.8C83,27.3,83,27,83,26.7c0-0.4,0.2-0.8,0.5-1.1c0.4-0.3,0.8-0.5,1.3-0.5c0.2,0,0.4,0,0.5,0.1l0.5,0.1h0.2&#xA;		c0.1,0,0.2,0,0.2-0.1L86,26.6c-0.1-0.6-0.6-1-1.1-1c-0.2,0-0.5,0.1-0.7,0.2C84.1,26,84,26.2,84,26.5c0,0.2,0.1,0.4,0.2,0.5&#xA;		c0.2,0.2,0.4,0.5,0.7,0.6l0.5,0.3c0.2,0.2,0.4,0.4,0.6,0.6c0.1,0.2,0.2,0.5,0.2,0.7c0,0.5-0.2,1-0.6,1.3c-0.4,0.4-1,0.6-1.5,0.6&#xA;		c-0.2,0-0.4,0-0.6-0.1L82.9,31L82.4,30.8z"/>
	<path class="st1" d="M86.9,28.7c0.1-0.7,0.5-1.4,1-1.8c0.3-0.2,0.6-0.4,0.9-0.6c0.3-0.1,0.7-0.2,1.1-0.2c0.6,0,1.1,0.2,1.6,0.6&#xA;		c0.4,0.4,0.6,1,0.6,1.5c0,0.8-0.3,1.5-0.9,2.1c-0.6,0.6-1.3,0.9-2.1,0.9c-0.6,0-1.2-0.2-1.6-0.6c-0.4-0.4-0.6-1-0.6-1.6L86.9,28.7z&#xA;		 M87.9,29.1v0.3c0,0.4,0.2,0.8,0.4,1.1c0.2,0.3,0.5,0.4,0.9,0.4c0.5,0,1.1-0.3,1.4-0.7c0.4-0.5,0.6-1.1,0.6-1.8&#xA;		c0-0.5-0.1-1-0.3-1.4c-0.2-0.3-0.6-0.5-0.9-0.5c-0.6,0-1.1,0.3-1.4,0.7C88.1,27.8,87.9,28.5,87.9,29.1z"/>
	<path class="st1" d="M92.4,31.1c0.1-0.1,0.2-0.2,0.2-0.3c0.1-0.1,0.1-0.3,0.1-0.5l1-6l0-0.4c0-0.1,0-0.1,0-0.2&#xA;		c0-0.1-0.1-0.2-0.1-0.3h1.1l-1.1,6.8l0,0.3c0,0.1,0,0.3,0.1,0.4H92.4z"/>
	<path class="st1" d="M98.1,30.5l-0.3,0.3c-0.4,0.3-0.9,0.5-1.4,0.5c-0.4,0-0.7-0.1-1-0.3c-0.2-0.2-0.4-0.4-0.4-0.7&#xA;		c0-0.1,0-0.2,0-0.3s0-0.2,0.1-0.5l0.4-2.4l0-0.3c0-0.2-0.1-0.3-0.1-0.5h1.1l-0.5,3l-0.1,0.4l0,0.3c0,0.5,0.3,0.8,0.9,0.8&#xA;		c0.2,0,0.4,0,0.6-0.1c0.2-0.1,0.3-0.2,0.5-0.3c0.1-0.1,0.2-0.2,0.2-0.3c0.1-0.2,0.1-0.4,0.1-0.6l0.4-2.3l0-0.3&#xA;		c0-0.2-0.1-0.3-0.1-0.5h1.1L99,30.3l0,0.3c0,0.1,0.1,0.3,0.1,0.4H98L98.1,30.5z"/>
	<path class="st1" d="M102,30.9c-0.3,0.2-0.6,0.3-0.9,0.3c-0.2,0-0.4-0.1-0.6-0.2c-0.2-0.1-0.2-0.3-0.2-0.5l0.1-0.6l0.5-3.2l-0.4,0&#xA;		l0.2-0.5l0.3,0l0.2-1l1-0.3l-0.2,1.3l0.9,0l-0.2,0.5l-0.8,0l-0.5,3.2l0,0.4c0,0.2,0.1,0.4,0.3,0.4c0.2,0,0.5-0.2,0.6-0.3L102,30.9z"/>
	<path class="st1" d="M102.4,31.1c0.2-0.2,0.4-0.5,0.4-0.8l0.5-3.3l0-0.4c0-0.1,0-0.1,0-0.2c0-0.1-0.1-0.2-0.1-0.2h1.1l-0.6,4.1&#xA;		l-0.1,0.4c0,0.1,0.1,0.3,0.1,0.4L102.4,31.1z M103.6,24.7c0-0.2,0.1-0.3,0.2-0.4c0.1-0.1,0.3-0.2,0.4-0.2c0.1,0,0.3,0.1,0.4,0.2&#xA;		c0.1,0.1,0.2,0.3,0.2,0.4c0,0.2-0.1,0.3-0.2,0.4c-0.1,0.1-0.1,0.1-0.2,0.1c-0.1,0-0.2,0-0.3,0c-0.1,0-0.3-0.1-0.4-0.2&#xA;		C103.6,25,103.5,24.8,103.6,24.7L103.6,24.7z"/>
	<path class="st1" d="M104.8,28.7c0.1-0.7,0.5-1.4,1-1.8c0.3-0.2,0.6-0.4,0.9-0.6c0.3-0.1,0.7-0.2,1.1-0.2c0.6,0,1.1,0.2,1.6,0.6&#xA;		c0.4,0.4,0.6,1,0.6,1.5c0,0.8-0.3,1.5-0.9,2.1c-0.6,0.6-1.3,0.9-2.1,0.9c-0.6,0-1.2-0.2-1.6-0.6c-0.4-0.4-0.6-1-0.6-1.6L104.8,28.7&#xA;		z M105.8,29.1v0.3c0,0.4,0.2,0.8,0.4,1.1c0.2,0.3,0.5,0.4,0.9,0.4c0.5,0,1.1-0.3,1.4-0.7c0.4-0.5,0.6-1.1,0.6-1.8&#xA;		c0-0.5-0.1-1-0.3-1.4c-0.2-0.3-0.6-0.5-0.9-0.5c-0.6,0-1.1,0.3-1.4,0.7C106,27.8,105.8,28.5,105.8,29.1z"/>
	<path class="st1" d="M110.3,31.1c0.1-0.1,0.2-0.2,0.2-0.4c0.1-0.1,0.1-0.3,0.1-0.4l0.5-3.3l0-0.4c0-0.1,0-0.3-0.1-0.4h1.1l-0.1,0.6&#xA;		l0.3-0.2c0.4-0.3,0.9-0.4,1.4-0.4c0.4,0,0.7,0.1,1,0.3c0.2,0.2,0.4,0.4,0.4,0.7l-0.1,0.5l-0.4,2.7l0,0.3c0,0.1,0,0.1,0,0.2l0.1,0.2&#xA;		h-1.2l0.2-0.6c0.1-0.2,0.1-0.5,0.2-0.8l0.3-1.7l0.1-0.6c0-0.5-0.3-0.7-0.9-0.7h-0.3l-0.3,0.1l-0.3,0.1c-0.1,0-0.1,0.1-0.2,0.1&#xA;		c-0.1,0.1-0.2,0.2-0.3,0.4c-0.1,0.2-0.1,0.4-0.2,0.6l-0.4,2.3l0,0.4c0,0.1,0.1,0.3,0.1,0.4H110.3z"/>
	<path class="st1" d="M115.6,30.9l0.2-1.2c0.1,0.3,0.3,0.6,0.5,0.9c0.2,0.2,0.4,0.3,0.7,0.3c0.3,0,0.5-0.1,0.7-0.3&#xA;		c0.2-0.2,0.3-0.4,0.3-0.7c0-0.2,0-0.3-0.1-0.4c-0.1-0.1-0.1-0.1-0.2-0.2l-0.4-0.3c-0.3-0.2-0.6-0.4-0.8-0.6&#xA;		c-0.2-0.2-0.3-0.4-0.3-0.7c0-0.4,0.2-0.8,0.5-1.1c0.4-0.3,0.9-0.5,1.4-0.4h0.2c0.1,0,0.2,0,0.3,0c0.1,0,0.2,0,0.3,0.1&#xA;		c0.1,0,0.2,0.1,0.3,0.1l-0.2,1c-0.1-0.2-0.2-0.4-0.3-0.6c-0.2-0.2-0.4-0.3-0.7-0.3c-0.2,0-0.5,0.1-0.7,0.3&#xA;		c-0.2,0.2-0.3,0.4-0.3,0.6c0,0.1,0,0.3,0.1,0.4c0.1,0.1,0.3,0.3,0.5,0.4l0.3,0.2c0.3,0.1,0.5,0.3,0.7,0.6c0.1,0.2,0.2,0.4,0.2,0.6&#xA;		c0,0.5-0.2,1-0.6,1.3c-0.4,0.3-0.9,0.5-1.4,0.5c-0.2,0-0.4,0-0.6-0.1C116.1,31.1,115.8,31,115.6,30.9z"/>
	<path class="st1" d="M19.3,31.1l0.2-0.3c0.1-0.1,0.1-0.3,0.1-0.5l0.4-4.2l0-0.2c0-0.1,0-0.2,0-0.3c0-0.1-0.1-0.2-0.1-0.3h3.5&#xA;		l-0.1,1.1c-0.1-0.2-0.3-0.4-0.5-0.5c-0.3-0.1-0.6-0.2-0.9-0.1h-0.9l-0.2,2l0.7,0H22l0.3-0.1c0.1,0,0.2-0.1,0.3-0.2&#xA;		c0.1-0.1,0.1-0.1,0.2-0.2l-0.1,1.3c-0.1-0.2-0.2-0.3-0.4-0.4c-0.2-0.1-0.5-0.1-0.7-0.1l-0.7,0l-0.2,2.1v0.2c0,0.1,0,0.2,0.1,0.3&#xA;		l0.2,0.3L19.3,31.1z"/>
	<path class="st1" d="M26.8,30.5l-0.3,0.3c-0.4,0.3-0.9,0.5-1.4,0.5c-0.4,0-0.7-0.1-1-0.3c-0.2-0.2-0.4-0.4-0.4-0.7&#xA;		c0-0.1,0-0.2,0-0.3s0-0.2,0.1-0.5l0.4-2.4l0-0.3c0-0.2-0.1-0.3-0.1-0.5h1.1l-0.5,3l-0.1,0.4l0,0.3c0,0.5,0.3,0.8,0.9,0.8&#xA;		c0.2,0,0.4,0,0.6-0.1c0.2-0.1,0.3-0.2,0.5-0.3c0.1-0.1,0.2-0.2,0.2-0.3c0.1-0.2,0.1-0.4,0.1-0.6l0.4-2.3l0-0.3&#xA;		c0-0.2-0.1-0.3-0.1-0.5h1.1l-0.6,4.1l0,0.3c0,0.1,0.1,0.3,0.1,0.4h-1.1L26.8,30.5z"/>
	<path class="st1" d="M30.7,30.9c-0.3,0.2-0.6,0.3-0.9,0.3c-0.2,0-0.4-0.1-0.6-0.2c-0.2-0.1-0.2-0.3-0.2-0.5l0.1-0.6l0.5-3.2l-0.4,0&#xA;		l0.2-0.5l0.3,0l0.2-1l1-0.3l-0.2,1.3l0.9,0l-0.2,0.5l-0.8,0l-0.5,3.2l0,0.4c0,0.2,0.1,0.4,0.3,0.4c0.2,0,0.5-0.2,0.6-0.3L30.7,30.9&#xA;		z"/>
	<path class="st1" d="M34.6,30.5l-0.3,0.3c-0.4,0.3-0.9,0.5-1.4,0.5c-0.4,0-0.7-0.1-1-0.3c-0.2-0.2-0.4-0.4-0.4-0.7&#xA;		c0-0.1,0-0.2,0-0.3s0-0.2,0.1-0.5L32,27l0-0.3c0-0.2-0.1-0.3-0.1-0.5H33l-0.5,3l-0.1,0.4l0,0.3c0,0.5,0.3,0.8,0.9,0.8&#xA;		c0.2,0,0.4,0,0.6-0.1c0.2-0.1,0.3-0.2,0.5-0.3c0.1-0.1,0.2-0.2,0.2-0.3c0.1-0.2,0.1-0.4,0.1-0.6l0.4-2.3l0-0.3&#xA;		c0-0.2-0.1-0.3-0.1-0.5h1.1l-0.6,4.1l0,0.3c0,0.1,0.1,0.3,0.1,0.4h-1.1L34.6,30.5z"/>
	<path class="st1" d="M36.5,31.1c0.1-0.1,0.2-0.2,0.2-0.3c0.1-0.1,0.1-0.3,0.1-0.4l0.5-3.3l0-0.3c0-0.2,0-0.3-0.1-0.5h1.1l-0.1,0.7&#xA;		l0.4-0.3l0.4-0.2l0.4-0.1c0.2,0,0.3-0.1,0.5-0.1l-0.2,1.3c-0.1-0.2-0.1-0.3-0.3-0.4c-0.1-0.1-0.2-0.1-0.3-0.1&#xA;		c-0.2,0-0.5,0.1-0.6,0.3c-0.2,0.2-0.3,0.5-0.3,0.8l-0.4,2.3l0,0.4c0,0.1,0,0.1,0,0.2l0.1,0.2L36.5,31.1z"/>
	<path class="st1" d="M44.2,28.1h-3.5l-0.1,0.6l0,0.5c0,1,0.4,1.6,1.3,1.6c0.4,0,0.8-0.1,1.2-0.4l0.4-0.2c0.1-0.1,0.2-0.2,0.3-0.3&#xA;		l-0.3,0.8l-0.3,0.2c-0.5,0.3-1,0.4-1.5,0.5c-0.6,0-1.1-0.2-1.5-0.6c-0.4-0.4-0.6-1-0.5-1.5c0-0.8,0.3-1.6,0.8-2.1&#xA;		c0.5-0.6,1.3-0.9,2-0.9c0.5,0,0.9,0.1,1.3,0.4c0.3,0.3,0.5,0.7,0.5,1.2V28.1L44.2,28.1z M41.4,26.9c-0.1,0.1-0.2,0.2-0.3,0.3&#xA;		l-0.2,0.5H43c0.1,0,0.2,0,0.2-0.1c0.1-0.1,0.1-0.2,0.1-0.3c0-0.2-0.1-0.4-0.3-0.6c-0.2-0.2-0.4-0.2-0.7-0.2&#xA;		C42,26.5,41.7,26.7,41.4,26.9z"/>
	<path class="st1" d="M52.5,25.4l-0.1,1.3c-0.1-0.1-0.2-0.3-0.3-0.4C52.1,26.1,52,26,52,26c-0.3-0.2-0.7-0.4-1.1-0.3&#xA;		c-0.6,0-1.2,0.3-1.5,0.8c-0.4,0.6-0.6,1.4-0.6,2.2c0,0.6,0.1,1.1,0.4,1.6c0.3,0.4,0.7,0.6,1.2,0.6c0.2,0,0.3,0,0.5-0.1&#xA;		c0.2-0.1,0.4-0.1,0.5-0.2l0.2-1.8l0-0.2c0-0.1,0-0.2,0-0.3L51.3,28h1.5c-0.1,0.1-0.2,0.2-0.2,0.4c0,0.1-0.1,0.3-0.1,0.4l-0.1,1.7&#xA;		l0,0.1c0,0.1,0,0.2,0.1,0.3L52,30.9c-0.3,0.1-0.6,0.2-1,0.2c-0.3,0-0.6,0.1-0.9,0.1c-0.7,0-1.3-0.2-1.8-0.7&#xA;		c-0.5-0.5-0.7-1.2-0.7-1.9c0-0.9,0.3-1.7,0.9-2.4c0.5-0.6,1.3-1,2.2-1h0.4l0.4,0.1l0.4,0.1l0.2,0L52.5,25.4z"/>
	<path class="st1" d="M58.4,26.4c0,0.1-0.1,0.1-0.1,0.1c0,0.1-0.1,0.1-0.1,0.2l-0.1,0.5l-0.5,3.3v0.4c0,0,0,0,0,0.1&#xA;		c0,0,0,0.1,0.1,0.1h-0.9l-0.1-0.3c0-0.1,0-0.2,0-0.3l-0.2,0.2l-0.1,0.1c-0.2,0.2-0.4,0.3-0.6,0.4c-0.1,0-0.2,0.1-0.3,0.1&#xA;		c-0.1,0-0.2,0-0.4,0c-0.4,0-0.9-0.2-1.1-0.5c-0.3-0.4-0.5-0.9-0.4-1.4c-0.1-1.7,1.3-3.1,2.9-3.1c0.1,0,0.1,0,0.2,0&#xA;		c0.2,0,0.5,0,0.7,0.1l0.6,0.1L58.4,26.4z M56.5,30.2c0.1-0.1,0.2-0.2,0.2-0.4c0.1-0.2,0.1-0.4,0.1-0.6l0.3-1.9l0-0.3&#xA;		c0-0.4-0.2-0.6-0.7-0.6c-0.6,0-1.1,0.3-1.4,0.8c-0.4,0.5-0.6,1.2-0.6,1.9c0,0.4,0.1,0.8,0.3,1.1c0.2,0.3,0.5,0.4,0.8,0.4&#xA;		C55.9,30.6,56.2,30.5,56.5,30.2z"/>
	<path class="st1" d="M58.5,31.1c0,0,0.1-0.1,0.1-0.1c0.1-0.1,0.1-0.1,0.1-0.2c0-0.1,0.1-0.3,0.1-0.4l0.5-3.3l0-0.4&#xA;		c0-0.1-0.1-0.3-0.1-0.4h1.1l-0.1,0.5l0.4-0.3c0.4-0.2,0.8-0.4,1.3-0.4c0.2,0,0.4,0,0.6,0.1c0.1,0,0.3,0.1,0.4,0.2&#xA;		c0.1,0.1,0.2,0.3,0.3,0.5l0.3-0.3c0.4-0.3,0.9-0.5,1.5-0.5c0.3,0,0.7,0.1,1,0.3c0.2,0.1,0.4,0.4,0.4,0.7l-0.1,0.6l-0.4,2.6l0,0.3&#xA;		c0,0.2,0.1,0.3,0.2,0.4h-1.3l0.2-0.8l0.1-0.6l0.3-1.7l0.1-0.5c0-0.2-0.1-0.4-0.2-0.6c-0.2-0.1-0.4-0.2-0.6-0.2&#xA;		c-0.7,0-1.4,0.5-1.4,1.2l-0.4,2.5l0,0.3l0,0.2l0.1,0.2l-1.2,0l0.3-1.3l0.3-1.7l0.1-0.7c0-0.5-0.3-0.8-0.8-0.8c-0.4,0-0.7,0.1-1,0.3&#xA;		c-0.1,0.1-0.2,0.2-0.3,0.3c-0.1,0.2-0.1,0.4-0.1,0.6l-0.4,2.4l0,0.3c0,0.1,0,0.1,0,0.2l0.1,0.2L58.5,31.1z"/>
	<path class="st1" d="M66.8,31.1c0.2-0.2,0.4-0.5,0.4-0.8l0.5-3.3l0-0.4c0-0.1,0-0.1,0-0.2c0-0.1-0.1-0.2-0.1-0.2h1.1l-0.6,4.1&#xA;		l-0.1,0.4c0,0.1,0.1,0.3,0.1,0.4L66.8,31.1z M68,24.7c0-0.2,0.1-0.3,0.2-0.4c0.1-0.1,0.3-0.2,0.4-0.2c0.1,0,0.3,0.1,0.4,0.2&#xA;		c0.1,0.1,0.2,0.3,0.2,0.4c0,0.2-0.1,0.3-0.2,0.4c-0.1,0.1-0.1,0.1-0.2,0.1c-0.1,0-0.2,0-0.3,0c-0.1,0-0.3-0.1-0.4-0.2&#xA;		C68,25,68,24.8,68,24.7z"/>
	<path class="st1" d="M68.9,31.1c0.1-0.1,0.2-0.2,0.2-0.4c0.1-0.1,0.1-0.3,0.1-0.4l0.5-3.3l0-0.4c0-0.1,0-0.3-0.1-0.4h1.1l-0.1,0.6&#xA;		l0.3-0.2c0.4-0.3,0.9-0.4,1.4-0.4c0.4,0,0.7,0.1,1,0.3c0.2,0.2,0.4,0.4,0.4,0.7l-0.1,0.5l-0.4,2.7l0,0.3c0,0.1,0,0.1,0,0.2l0.1,0.2&#xA;		h-1.2l0.2-0.6c0.1-0.2,0.1-0.5,0.2-0.8l0.3-1.7l0.1-0.6c0-0.5-0.3-0.7-0.9-0.7h-0.3l-0.3,0.1l-0.3,0.1c-0.1,0-0.1,0.1-0.2,0.1&#xA;		c-0.1,0.1-0.2,0.2-0.3,0.4c-0.1,0.2-0.1,0.4-0.2,0.6l-0.4,2.3l0,0.4c0,0.1,0.1,0.3,0.1,0.4H68.9z"/>
	<path class="st1" d="M74.2,33.2l0.8-0.7c0,0.6,0.3,0.9,0.9,0.9c0.4,0,0.7-0.2,1-0.4c0.3-0.3,0.5-0.7,0.6-1.1l0.3-1.5l-0.3,0.3&#xA;		c-0.4,0.3-0.8,0.5-1.3,0.5c-0.4,0-0.9-0.2-1.1-0.5c-0.3-0.4-0.5-0.9-0.4-1.4c-0.1-1.7,1.3-3.1,2.9-3.1c0.1,0,0.2,0,0.2,0&#xA;		c0.2,0,0.5,0,0.7,0.1l0.6,0.1l0.4,0.1l-0.2,0.3L79,27.3l-0.7,4.2c-0.1,0.7-0.4,1.3-0.9,1.8c-0.6,0.6-1.5,0.9-2.3,0.6&#xA;		c-0.1,0-0.2-0.1-0.3-0.1c-0.1,0-0.2-0.1-0.2-0.1C74.4,33.6,74.3,33.4,74.2,33.2z M77.5,30.2c0.1-0.1,0.2-0.2,0.3-0.4&#xA;		c0.1-0.2,0.1-0.4,0.1-0.6l0.3-1.9l0-0.3c0-0.4-0.2-0.6-0.7-0.6c-0.6,0-1.1,0.3-1.5,0.8c-0.4,0.5-0.6,1.2-0.6,1.9&#xA;		c0,0.4,0.1,0.8,0.3,1.1c0.2,0.3,0.5,0.4,0.8,0.4C76.9,30.6,77.2,30.5,77.5,30.2z"/>
	<path class="st1" d="M82.4,30.8l0.1-1.2c0,0.1,0.1,0.2,0.1,0.3c0,0.1,0.1,0.1,0.1,0.2c0.1,0.1,0.1,0.2,0.2,0.3&#xA;		c0.2,0.2,0.5,0.4,0.9,0.4c0.3,0,0.6-0.1,0.9-0.3c0.2-0.2,0.3-0.5,0.3-0.8c0-0.2-0.1-0.5-0.2-0.6l-0.2-0.2l-0.2-0.2L84,28.3&#xA;		c-0.3-0.2-0.6-0.5-0.8-0.8C83,27.3,83,27,83,26.7c0-0.4,0.2-0.8,0.5-1.1c0.4-0.3,0.8-0.5,1.3-0.5c0.2,0,0.4,0,0.5,0.1l0.5,0.1h0.2&#xA;		c0.1,0,0.2,0,0.2-0.1L86,26.6c-0.1-0.6-0.6-1-1.1-1c-0.2,0-0.5,0.1-0.7,0.2C84.1,26,84,26.2,84,26.5c0,0.2,0.1,0.4,0.2,0.5&#xA;		c0.2,0.2,0.4,0.5,0.7,0.6l0.5,0.3c0.2,0.2,0.4,0.4,0.6,0.6c0.1,0.2,0.2,0.5,0.2,0.7c0,0.5-0.2,1-0.6,1.3c-0.4,0.4-1,0.6-1.5,0.6&#xA;		c-0.2,0-0.4,0-0.6-0.1L82.9,31L82.4,30.8z"/>
	<path class="st1" d="M86.9,28.7c0.1-0.7,0.5-1.4,1-1.8c0.3-0.2,0.6-0.4,0.9-0.6c0.3-0.1,0.7-0.2,1.1-0.2c0.6,0,1.1,0.2,1.6,0.6&#xA;		c0.4,0.4,0.6,1,0.6,1.5c0,0.8-0.3,1.5-0.9,2.1c-0.6,0.6-1.3,0.9-2.1,0.9c-0.6,0-1.2-0.2-1.6-0.6c-0.4-0.4-0.6-1-0.6-1.6L86.9,28.7z&#xA;		 M87.9,29.1v0.3c0,0.4,0.2,0.8,0.4,1.1c0.2,0.3,0.5,0.4,0.9,0.4c0.5,0,1.1-0.3,1.4-0.7c0.4-0.5,0.6-1.1,0.6-1.8&#xA;		c0-0.5-0.1-1-0.3-1.4c-0.2-0.3-0.6-0.5-0.9-0.5c-0.6,0-1.1,0.3-1.4,0.7C88.1,27.8,87.9,28.5,87.9,29.1z"/>
	<path class="st1" d="M92.4,31.1c0.1-0.1,0.2-0.2,0.2-0.3c0.1-0.1,0.1-0.3,0.1-0.5l1-6l0-0.4c0-0.1,0-0.1,0-0.2&#xA;		c0-0.1-0.1-0.2-0.1-0.3h1.1l-1.1,6.8l0,0.3c0,0.1,0,0.3,0.1,0.4H92.4z"/>
	<path class="st1" d="M98.1,30.5l-0.3,0.3c-0.4,0.3-0.9,0.5-1.4,0.5c-0.4,0-0.7-0.1-1-0.3c-0.2-0.2-0.4-0.4-0.4-0.7&#xA;		c0-0.1,0-0.2,0-0.3s0-0.2,0.1-0.5l0.4-2.4l0-0.3c0-0.2-0.1-0.3-0.1-0.5h1.1l-0.5,3l-0.1,0.4l0,0.3c0,0.5,0.3,0.8,0.9,0.8&#xA;		c0.2,0,0.4,0,0.6-0.1c0.2-0.1,0.3-0.2,0.5-0.3c0.1-0.1,0.2-0.2,0.2-0.3c0.1-0.2,0.1-0.4,0.1-0.6l0.4-2.3l0-0.3&#xA;		c0-0.2-0.1-0.3-0.1-0.5h1.1L99,30.3l0,0.3c0,0.1,0.1,0.3,0.1,0.4H98L98.1,30.5z"/>
	<path class="st1" d="M102,30.9c-0.3,0.2-0.6,0.3-0.9,0.3c-0.2,0-0.4-0.1-0.6-0.2c-0.2-0.1-0.2-0.3-0.2-0.5l0.1-0.6l0.5-3.2l-0.4,0&#xA;		l0.2-0.5l0.3,0l0.2-1l1-0.3l-0.2,1.3l0.9,0l-0.2,0.5l-0.8,0l-0.5,3.2l0,0.4c0,0.2,0.1,0.4,0.3,0.4c0.2,0,0.5-0.2,0.6-0.3L102,30.9z"/>
	<path class="st1" d="M102.4,31.1c0.2-0.2,0.4-0.5,0.4-0.8l0.5-3.3l0-0.4c0-0.1,0-0.1,0-0.2c0-0.1-0.1-0.2-0.1-0.2h1.1l-0.6,4.1&#xA;		l-0.1,0.4c0,0.1,0.1,0.3,0.1,0.4L102.4,31.1z M103.6,24.7c0-0.2,0.1-0.3,0.2-0.4c0.1-0.1,0.3-0.2,0.4-0.2c0.1,0,0.3,0.1,0.4,0.2&#xA;		c0.1,0.1,0.2,0.3,0.2,0.4c0,0.2-0.1,0.3-0.2,0.4c-0.1,0.1-0.1,0.1-0.2,0.1c-0.1,0-0.2,0-0.3,0c-0.1,0-0.3-0.1-0.4-0.2&#xA;		C103.6,25,103.5,24.8,103.6,24.7L103.6,24.7z"/>
	<path class="st1" d="M104.8,28.7c0.1-0.7,0.5-1.4,1-1.8c0.3-0.2,0.6-0.4,0.9-0.6c0.3-0.1,0.7-0.2,1.1-0.2c0.6,0,1.1,0.2,1.6,0.6&#xA;		c0.4,0.4,0.6,1,0.6,1.5c0,0.8-0.3,1.5-0.9,2.1c-0.6,0.6-1.3,0.9-2.1,0.9c-0.6,0-1.2-0.2-1.6-0.6c-0.4-0.4-0.6-1-0.6-1.6L104.8,28.7&#xA;		z M105.8,29.1v0.3c0,0.4,0.2,0.8,0.4,1.1c0.2,0.3,0.5,0.4,0.9,0.4c0.5,0,1.1-0.3,1.4-0.7c0.4-0.5,0.6-1.1,0.6-1.8&#xA;		c0-0.5-0.1-1-0.3-1.4c-0.2-0.3-0.6-0.5-0.9-0.5c-0.6,0-1.1,0.3-1.4,0.7C106,27.8,105.8,28.5,105.8,29.1z"/>
	<path class="st1" d="M110.3,31.1c0.1-0.1,0.2-0.2,0.2-0.4c0.1-0.1,0.1-0.3,0.1-0.4l0.5-3.3l0-0.4c0-0.1,0-0.3-0.1-0.4h1.1l-0.1,0.6&#xA;		l0.3-0.2c0.4-0.3,0.9-0.4,1.4-0.4c0.4,0,0.7,0.1,1,0.3c0.2,0.2,0.4,0.4,0.4,0.7l-0.1,0.5l-0.4,2.7l0,0.3c0,0.1,0,0.1,0,0.2l0.1,0.2&#xA;		h-1.2l0.2-0.6c0.1-0.2,0.1-0.5,0.2-0.8l0.3-1.7l0.1-0.6c0-0.5-0.3-0.7-0.9-0.7h-0.3l-0.3,0.1l-0.3,0.1c-0.1,0-0.1,0.1-0.2,0.1&#xA;		c-0.1,0.1-0.2,0.2-0.3,0.4c-0.1,0.2-0.1,0.4-0.2,0.6l-0.4,2.3l0,0.4c0,0.1,0.1,0.3,0.1,0.4H110.3z"/>
	<path class="st1" d="M115.6,30.9l0.2-1.2c0.1,0.3,0.3,0.6,0.5,0.9c0.2,0.2,0.4,0.3,0.7,0.3c0.3,0,0.5-0.1,0.7-0.3&#xA;		c0.2-0.2,0.3-0.4,0.3-0.7c0-0.2,0-0.3-0.1-0.4c-0.1-0.1-0.1-0.1-0.2-0.2l-0.4-0.3c-0.3-0.2-0.6-0.4-0.8-0.6&#xA;		c-0.2-0.2-0.3-0.4-0.3-0.7c0-0.4,0.2-0.8,0.5-1.1c0.4-0.3,0.9-0.5,1.4-0.4h0.2c0.1,0,0.2,0,0.3,0c0.1,0,0.2,0,0.3,0.1&#xA;		c0.1,0,0.2,0.1,0.3,0.1l-0.2,1c-0.1-0.2-0.2-0.4-0.3-0.6c-0.2-0.2-0.4-0.3-0.7-0.3c-0.2,0-0.5,0.1-0.7,0.3&#xA;		c-0.2,0.2-0.3,0.4-0.3,0.6c0,0.1,0,0.3,0.1,0.4c0.1,0.1,0.3,0.3,0.5,0.4l0.3,0.2c0.3,0.1,0.5,0.3,0.7,0.6c0.1,0.2,0.2,0.4,0.2,0.6&#xA;		c0,0.5-0.2,1-0.6,1.3c-0.4,0.3-0.9,0.5-1.4,0.5c-0.2,0-0.4,0-0.6-0.1C116.1,31.1,115.8,31,115.6,30.9z"/>
	<path class="st1" d="M19.3,31.1l0.2-0.3c0.1-0.1,0.1-0.3,0.1-0.5l0.4-4.2l0-0.2c0-0.1,0-0.2,0-0.3c0-0.1-0.1-0.2-0.1-0.3h3.5&#xA;		l-0.1,1.1c-0.1-0.2-0.3-0.4-0.5-0.5c-0.3-0.1-0.6-0.2-0.9-0.1h-0.9l-0.2,2l0.7,0H22l0.3-0.1c0.1,0,0.2-0.1,0.3-0.2&#xA;		c0.1-0.1,0.1-0.1,0.2-0.2l-0.1,1.3c-0.1-0.2-0.2-0.3-0.4-0.4c-0.2-0.1-0.5-0.1-0.7-0.1l-0.7,0l-0.2,2.1v0.2c0,0.1,0,0.2,0.1,0.3&#xA;		l0.2,0.3L19.3,31.1z"/>
	<path class="st1" d="M26.8,30.5l-0.3,0.3c-0.4,0.3-0.9,0.5-1.4,0.5c-0.4,0-0.7-0.1-1-0.3c-0.2-0.2-0.4-0.4-0.4-0.7&#xA;		c0-0.1,0-0.2,0-0.3s0-0.2,0.1-0.5l0.4-2.4l0-0.3c0-0.2-0.1-0.3-0.1-0.5h1.1l-0.5,3l-0.1,0.4l0,0.3c0,0.5,0.3,0.8,0.9,0.8&#xA;		c0.2,0,0.4,0,0.6-0.1c0.2-0.1,0.3-0.2,0.5-0.3c0.1-0.1,0.2-0.2,0.2-0.3c0.1-0.2,0.1-0.4,0.1-0.6l0.4-2.3l0-0.3&#xA;		c0-0.2-0.1-0.3-0.1-0.5h1.1l-0.6,4.1l0,0.3c0,0.1,0.1,0.3,0.1,0.4h-1.1L26.8,30.5z"/>
	<path class="st1" d="M30.7,30.9c-0.3,0.2-0.6,0.3-0.9,0.3c-0.2,0-0.4-0.1-0.6-0.2c-0.2-0.1-0.2-0.3-0.2-0.5l0.1-0.6l0.5-3.2l-0.4,0&#xA;		l0.2-0.5l0.3,0l0.2-1l1-0.3l-0.2,1.3l0.9,0l-0.2,0.5l-0.8,0l-0.5,3.2l0,0.4c0,0.2,0.1,0.4,0.3,0.4c0.2,0,0.5-0.2,0.6-0.3L30.7,30.9&#xA;		z"/>
	<path class="st1" d="M34.6,30.5l-0.3,0.3c-0.4,0.3-0.9,0.5-1.4,0.5c-0.4,0-0.7-0.1-1-0.3c-0.2-0.2-0.4-0.4-0.4-0.7&#xA;		c0-0.1,0-0.2,0-0.3s0-0.2,0.1-0.5L32,27l0-0.3c0-0.2-0.1-0.3-0.1-0.5H33l-0.5,3l-0.1,0.4l0,0.3c0,0.5,0.3,0.8,0.9,0.8&#xA;		c0.2,0,0.4,0,0.6-0.1c0.2-0.1,0.3-0.2,0.5-0.3c0.1-0.1,0.2-0.2,0.2-0.3c0.1-0.2,0.1-0.4,0.1-0.6l0.4-2.3l0-0.3&#xA;		c0-0.2-0.1-0.3-0.1-0.5h1.1l-0.6,4.1l0,0.3c0,0.1,0.1,0.3,0.1,0.4h-1.1L34.6,30.5z"/>
	<path class="st1" d="M36.5,31.1c0.1-0.1,0.2-0.2,0.2-0.3c0.1-0.1,0.1-0.3,0.1-0.4l0.5-3.3l0-0.3c0-0.2,0-0.3-0.1-0.5h1.1l-0.1,0.7&#xA;		l0.4-0.3l0.4-0.2l0.4-0.1c0.2,0,0.3-0.1,0.5-0.1l-0.2,1.3c-0.1-0.2-0.1-0.3-0.3-0.4c-0.1-0.1-0.2-0.1-0.3-0.1&#xA;		c-0.2,0-0.5,0.1-0.6,0.3c-0.2,0.2-0.3,0.5-0.3,0.8l-0.4,2.3l0,0.4c0,0.1,0,0.1,0,0.2l0.1,0.2L36.5,31.1z"/>
	<path class="st1" d="M44.2,28.1h-3.5l-0.1,0.6l0,0.5c0,1,0.4,1.6,1.3,1.6c0.4,0,0.8-0.1,1.2-0.4l0.4-0.2c0.1-0.1,0.2-0.2,0.3-0.3&#xA;		l-0.3,0.8l-0.3,0.2c-0.5,0.3-1,0.4-1.5,0.5c-0.6,0-1.1-0.2-1.5-0.6c-0.4-0.4-0.6-1-0.5-1.5c0-0.8,0.3-1.6,0.8-2.1&#xA;		c0.5-0.6,1.3-0.9,2-0.9c0.5,0,0.9,0.1,1.3,0.4c0.3,0.3,0.5,0.7,0.5,1.2V28.1L44.2,28.1z M41.4,26.9c-0.1,0.1-0.2,0.2-0.3,0.3&#xA;		l-0.2,0.5H43c0.1,0,0.2,0,0.2-0.1c0.1-0.1,0.1-0.2,0.1-0.3c0-0.2-0.1-0.4-0.3-0.6c-0.2-0.2-0.4-0.2-0.7-0.2&#xA;		C42,26.5,41.7,26.7,41.4,26.9z"/>
	<path class="st1" d="M52.5,25.4l-0.1,1.3c-0.1-0.1-0.2-0.3-0.3-0.4C52.1,26.1,52,26,52,26c-0.3-0.2-0.7-0.4-1.1-0.3&#xA;		c-0.6,0-1.2,0.3-1.5,0.8c-0.4,0.6-0.6,1.4-0.6,2.2c0,0.6,0.1,1.1,0.4,1.6c0.3,0.4,0.7,0.6,1.2,0.6c0.2,0,0.3,0,0.5-0.1&#xA;		c0.2-0.1,0.4-0.1,0.5-0.2l0.2-1.8l0-0.2c0-0.1,0-0.2,0-0.3L51.3,28h1.5c-0.1,0.1-0.2,0.2-0.2,0.4c0,0.1-0.1,0.3-0.1,0.4l-0.1,1.7&#xA;		l0,0.1c0,0.1,0,0.2,0.1,0.3L52,30.9c-0.3,0.1-0.6,0.2-1,0.2c-0.3,0-0.6,0.1-0.9,0.1c-0.7,0-1.3-0.2-1.8-0.7&#xA;		c-0.5-0.5-0.7-1.2-0.7-1.9c0-0.9,0.3-1.7,0.9-2.4c0.5-0.6,1.3-1,2.2-1h0.4l0.4,0.1l0.4,0.1l0.2,0L52.5,25.4z"/>
	<path class="st1" d="M58.4,26.4c0,0.1-0.1,0.1-0.1,0.1c0,0.1-0.1,0.1-0.1,0.2l-0.1,0.5l-0.5,3.3v0.4c0,0,0,0,0,0.1&#xA;		c0,0,0,0.1,0.1,0.1h-0.9l-0.1-0.3c0-0.1,0-0.2,0-0.3l-0.2,0.2l-0.1,0.1c-0.2,0.2-0.4,0.3-0.6,0.4c-0.1,0-0.2,0.1-0.3,0.1&#xA;		c-0.1,0-0.2,0-0.4,0c-0.4,0-0.9-0.2-1.1-0.5c-0.3-0.4-0.5-0.9-0.4-1.4c-0.1-1.7,1.3-3.1,2.9-3.1c0.1,0,0.1,0,0.2,0&#xA;		c0.2,0,0.5,0,0.7,0.1l0.6,0.1L58.4,26.4z M56.5,30.2c0.1-0.1,0.2-0.2,0.2-0.4c0.1-0.2,0.1-0.4,0.1-0.6l0.3-1.9l0-0.3&#xA;		c0-0.4-0.2-0.6-0.7-0.6c-0.6,0-1.1,0.3-1.4,0.8c-0.4,0.5-0.6,1.2-0.6,1.9c0,0.4,0.1,0.8,0.3,1.1c0.2,0.3,0.5,0.4,0.8,0.4&#xA;		C55.9,30.6,56.2,30.5,56.5,30.2z"/>
	<path class="st1" d="M58.5,31.1c0,0,0.1-0.1,0.1-0.1c0.1-0.1,0.1-0.1,0.1-0.2c0-0.1,0.1-0.3,0.1-0.4l0.5-3.3l0-0.4&#xA;		c0-0.1-0.1-0.3-0.1-0.4h1.1l-0.1,0.5l0.4-0.3c0.4-0.2,0.8-0.4,1.3-0.4c0.2,0,0.4,0,0.6,0.1c0.1,0,0.3,0.1,0.4,0.2&#xA;		c0.1,0.1,0.2,0.3,0.3,0.5l0.3-0.3c0.4-0.3,0.9-0.5,1.5-0.5c0.3,0,0.7,0.1,1,0.3c0.2,0.1,0.4,0.4,0.4,0.7l-0.1,0.6l-0.4,2.6l0,0.3&#xA;		c0,0.2,0.1,0.3,0.2,0.4h-1.3l0.2-0.8l0.1-0.6l0.3-1.7l0.1-0.5c0-0.2-0.1-0.4-0.2-0.6c-0.2-0.1-0.4-0.2-0.6-0.2&#xA;		c-0.7,0-1.4,0.5-1.4,1.2l-0.4,2.5l0,0.3l0,0.2l0.1,0.2l-1.2,0l0.3-1.3l0.3-1.7l0.1-0.7c0-0.5-0.3-0.8-0.8-0.8c-0.4,0-0.7,0.1-1,0.3&#xA;		c-0.1,0.1-0.2,0.2-0.3,0.3c-0.1,0.2-0.1,0.4-0.1,0.6l-0.4,2.4l0,0.3c0,0.1,0,0.1,0,0.2l0.1,0.2L58.5,31.1z"/>
	<path class="st1" d="M66.8,31.1c0.2-0.2,0.4-0.5,0.4-0.8l0.5-3.3l0-0.4c0-0.1,0-0.1,0-0.2c0-0.1-0.1-0.2-0.1-0.2h1.1l-0.6,4.1&#xA;		l-0.1,0.4c0,0.1,0.1,0.3,0.1,0.4L66.8,31.1z M68,24.7c0-0.2,0.1-0.3,0.2-0.4c0.1-0.1,0.3-0.2,0.4-0.2c0.1,0,0.3,0.1,0.4,0.2&#xA;		c0.1,0.1,0.2,0.3,0.2,0.4c0,0.2-0.1,0.3-0.2,0.4c-0.1,0.1-0.1,0.1-0.2,0.1c-0.1,0-0.2,0-0.3,0c-0.1,0-0.3-0.1-0.4-0.2&#xA;		C68,25,68,24.8,68,24.7z"/>
	<path class="st1" d="M68.9,31.1c0.1-0.1,0.2-0.2,0.2-0.4c0.1-0.1,0.1-0.3,0.1-0.4l0.5-3.3l0-0.4c0-0.1,0-0.3-0.1-0.4h1.1l-0.1,0.6&#xA;		l0.3-0.2c0.4-0.3,0.9-0.4,1.4-0.4c0.4,0,0.7,0.1,1,0.3c0.2,0.2,0.4,0.4,0.4,0.7l-0.1,0.5l-0.4,2.7l0,0.3c0,0.1,0,0.1,0,0.2l0.1,0.2&#xA;		h-1.2l0.2-0.6c0.1-0.2,0.1-0.5,0.2-0.8l0.3-1.7l0.1-0.6c0-0.5-0.3-0.7-0.9-0.7h-0.3l-0.3,0.1l-0.3,0.1c-0.1,0-0.1,0.1-0.2,0.1&#xA;		c-0.1,0.1-0.2,0.2-0.3,0.4c-0.1,0.2-0.1,0.4-0.2,0.6l-0.4,2.3l0,0.4c0,0.1,0.1,0.3,0.1,0.4H68.9z"/>
	<path class="st1" d="M74.2,33.2l0.8-0.7c0,0.6,0.3,0.9,0.9,0.9c0.4,0,0.7-0.2,1-0.4c0.3-0.3,0.5-0.7,0.6-1.1l0.3-1.5l-0.3,0.3&#xA;		c-0.4,0.3-0.8,0.5-1.3,0.5c-0.4,0-0.9-0.2-1.1-0.5c-0.3-0.4-0.5-0.9-0.4-1.4c-0.1-1.7,1.3-3.1,2.9-3.1c0.1,0,0.2,0,0.2,0&#xA;		c0.2,0,0.5,0,0.7,0.1l0.6,0.1l0.4,0.1l-0.2,0.3L79,27.3l-0.7,4.2c-0.1,0.7-0.4,1.3-0.9,1.8c-0.6,0.6-1.5,0.9-2.3,0.6&#xA;		c-0.1,0-0.2-0.1-0.3-0.1c-0.1,0-0.2-0.1-0.2-0.1C74.4,33.6,74.3,33.4,74.2,33.2z M77.5,30.2c0.1-0.1,0.2-0.2,0.3-0.4&#xA;		c0.1-0.2,0.1-0.4,0.1-0.6l0.3-1.9l0-0.3c0-0.4-0.2-0.6-0.7-0.6c-0.6,0-1.1,0.3-1.5,0.8c-0.4,0.5-0.6,1.2-0.6,1.9&#xA;		c0,0.4,0.1,0.8,0.3,1.1c0.2,0.3,0.5,0.4,0.8,0.4C76.9,30.6,77.2,30.5,77.5,30.2z"/>
	<path class="st1" d="M82.4,30.8l0.1-1.2c0,0.1,0.1,0.2,0.1,0.3c0,0.1,0.1,0.1,0.1,0.2c0.1,0.1,0.1,0.2,0.2,0.3&#xA;		c0.2,0.2,0.5,0.4,0.9,0.4c0.3,0,0.6-0.1,0.9-0.3c0.2-0.2,0.3-0.5,0.3-0.8c0-0.2-0.1-0.5-0.2-0.6l-0.2-0.2l-0.2-0.2L84,28.3&#xA;		c-0.3-0.2-0.6-0.5-0.8-0.8C83,27.3,83,27,83,26.7c0-0.4,0.2-0.8,0.5-1.1c0.4-0.3,0.8-0.5,1.3-0.5c0.2,0,0.4,0,0.5,0.1l0.5,0.1h0.2&#xA;		c0.1,0,0.2,0,0.2-0.1L86,26.6c-0.1-0.6-0.6-1-1.1-1c-0.2,0-0.5,0.1-0.7,0.2C84.1,26,84,26.2,84,26.5c0,0.2,0.1,0.4,0.2,0.5&#xA;		c0.2,0.2,0.4,0.5,0.7,0.6l0.5,0.3c0.2,0.2,0.4,0.4,0.6,0.6c0.1,0.2,0.2,0.5,0.2,0.7c0,0.5-0.2,1-0.6,1.3c-0.4,0.4-1,0.6-1.5,0.6&#xA;		c-0.2,0-0.4,0-0.6-0.1L82.9,31L82.4,30.8z"/>
	<path class="st1" d="M86.9,28.7c0.1-0.7,0.5-1.4,1-1.8c0.3-0.2,0.6-0.4,0.9-0.6c0.3-0.1,0.7-0.2,1.1-0.2c0.6,0,1.1,0.2,1.6,0.6&#xA;		c0.4,0.4,0.6,1,0.6,1.5c0,0.8-0.3,1.5-0.9,2.1c-0.6,0.6-1.3,0.9-2.1,0.9c-0.6,0-1.2-0.2-1.6-0.6c-0.4-0.4-0.6-1-0.6-1.6L86.9,28.7z&#xA;		 M87.9,29.1v0.3c0,0.4,0.2,0.8,0.4,1.1c0.2,0.3,0.5,0.4,0.9,0.4c0.5,0,1.1-0.3,1.4-0.7c0.4-0.5,0.6-1.1,0.6-1.8&#xA;		c0-0.5-0.1-1-0.3-1.4c-0.2-0.3-0.6-0.5-0.9-0.5c-0.6,0-1.1,0.3-1.4,0.7C88.1,27.8,87.9,28.5,87.9,29.1z"/>
	<path class="st1" d="M92.4,31.1c0.1-0.1,0.2-0.2,0.2-0.3c0.1-0.1,0.1-0.3,0.1-0.5l1-6l0-0.4c0-0.1,0-0.1,0-0.2&#xA;		c0-0.1-0.1-0.2-0.1-0.3h1.1l-1.1,6.8l0,0.3c0,0.1,0,0.3,0.1,0.4H92.4z"/>
	<path class="st1" d="M98.1,30.5l-0.3,0.3c-0.4,0.3-0.9,0.5-1.4,0.5c-0.4,0-0.7-0.1-1-0.3c-0.2-0.2-0.4-0.4-0.4-0.7&#xA;		c0-0.1,0-0.2,0-0.3s0-0.2,0.1-0.5l0.4-2.4l0-0.3c0-0.2-0.1-0.3-0.1-0.5h1.1l-0.5,3l-0.1,0.4l0,0.3c0,0.5,0.3,0.8,0.9,0.8&#xA;		c0.2,0,0.4,0,0.6-0.1c0.2-0.1,0.3-0.2,0.5-0.3c0.1-0.1,0.2-0.2,0.2-0.3c0.1-0.2,0.1-0.4,0.1-0.6l0.4-2.3l0-0.3&#xA;		c0-0.2-0.1-0.3-0.1-0.5h1.1L99,30.3l0,0.3c0,0.1,0.1,0.3,0.1,0.4H98L98.1,30.5z"/>
	<path class="st1" d="M102,30.9c-0.3,0.2-0.6,0.3-0.9,0.3c-0.2,0-0.4-0.1-0.6-0.2c-0.2-0.1-0.2-0.3-0.2-0.5l0.1-0.6l0.5-3.2l-0.4,0&#xA;		l0.2-0.5l0.3,0l0.2-1l1-0.3l-0.2,1.3l0.9,0l-0.2,0.5l-0.8,0l-0.5,3.2l0,0.4c0,0.2,0.1,0.4,0.3,0.4c0.2,0,0.5-0.2,0.6-0.3L102,30.9z"/>
	<path class="st1" d="M102.4,31.1c0.2-0.2,0.4-0.5,0.4-0.8l0.5-3.3l0-0.4c0-0.1,0-0.1,0-0.2c0-0.1-0.1-0.2-0.1-0.2h1.1l-0.6,4.1&#xA;		l-0.1,0.4c0,0.1,0.1,0.3,0.1,0.4L102.4,31.1z M103.6,24.7c0-0.2,0.1-0.3,0.2-0.4c0.1-0.1,0.3-0.2,0.4-0.2c0.1,0,0.3,0.1,0.4,0.2&#xA;		c0.1,0.1,0.2,0.3,0.2,0.4c0,0.2-0.1,0.3-0.2,0.4c-0.1,0.1-0.1,0.1-0.2,0.1c-0.1,0-0.2,0-0.3,0c-0.1,0-0.3-0.1-0.4-0.2&#xA;		C103.6,25,103.5,24.8,103.6,24.7L103.6,24.7z"/>
	<path class="st1" d="M104.8,28.7c0.1-0.7,0.5-1.4,1-1.8c0.3-0.2,0.6-0.4,0.9-0.6c0.3-0.1,0.7-0.2,1.1-0.2c0.6,0,1.1,0.2,1.6,0.6&#xA;		c0.4,0.4,0.6,1,0.6,1.5c0,0.8-0.3,1.5-0.9,2.1c-0.6,0.6-1.3,0.9-2.1,0.9c-0.6,0-1.2-0.2-1.6-0.6c-0.4-0.4-0.6-1-0.6-1.6L104.8,28.7&#xA;		z M105.8,29.1v0.3c0,0.4,0.2,0.8,0.4,1.1c0.2,0.3,0.5,0.4,0.9,0.4c0.5,0,1.1-0.3,1.4-0.7c0.4-0.5,0.6-1.1,0.6-1.8&#xA;		c0-0.5-0.1-1-0.3-1.4c-0.2-0.3-0.6-0.5-0.9-0.5c-0.6,0-1.1,0.3-1.4,0.7C106,27.8,105.8,28.5,105.8,29.1z"/>
	<path class="st1" d="M110.3,31.1c0.1-0.1,0.2-0.2,0.2-0.4c0.1-0.1,0.1-0.3,0.1-0.4l0.5-3.3l0-0.4c0-0.1,0-0.3-0.1-0.4h1.1l-0.1,0.6&#xA;		l0.3-0.2c0.4-0.3,0.9-0.4,1.4-0.4c0.4,0,0.7,0.1,1,0.3c0.2,0.2,0.4,0.4,0.4,0.7l-0.1,0.5l-0.4,2.7l0,0.3c0,0.1,0,0.1,0,0.2l0.1,0.2&#xA;		h-1.2l0.2-0.6c0.1-0.2,0.1-0.5,0.2-0.8l0.3-1.7l0.1-0.6c0-0.5-0.3-0.7-0.9-0.7h-0.3l-0.3,0.1l-0.3,0.1c-0.1,0-0.1,0.1-0.2,0.1&#xA;		c-0.1,0.1-0.2,0.2-0.3,0.4c-0.1,0.2-0.1,0.4-0.2,0.6l-0.4,2.3l0,0.4c0,0.1,0.1,0.3,0.1,0.4H110.3z"/>
	<path class="st1" d="M115.6,30.9l0.2-1.2c0.1,0.3,0.3,0.6,0.5,0.9c0.2,0.2,0.4,0.3,0.7,0.3c0.3,0,0.5-0.1,0.7-0.3&#xA;		c0.2-0.2,0.3-0.4,0.3-0.7c0-0.2,0-0.3-0.1-0.4c-0.1-0.1-0.1-0.1-0.2-0.2l-0.4-0.3c-0.3-0.2-0.6-0.4-0.8-0.6&#xA;		c-0.2-0.2-0.3-0.4-0.3-0.7c0-0.4,0.2-0.8,0.5-1.1c0.4-0.3,0.9-0.5,1.4-0.4h0.2c0.1,0,0.2,0,0.3,0c0.1,0,0.2,0,0.3,0.1&#xA;		c0.1,0,0.2,0.1,0.3,0.1l-0.2,1c-0.1-0.2-0.2-0.4-0.3-0.6c-0.2-0.2-0.4-0.3-0.7-0.3c-0.2,0-0.5,0.1-0.7,0.3&#xA;		c-0.2,0.2-0.3,0.4-0.3,0.6c0,0.1,0,0.3,0.1,0.4c0.1,0.1,0.3,0.3,0.5,0.4l0.3,0.2c0.3,0.1,0.5,0.3,0.7,0.6c0.1,0.2,0.2,0.4,0.2,0.6&#xA;		c0,0.5-0.2,1-0.6,1.3c-0.4,0.3-0.9,0.5-1.4,0.5c-0.2,0-0.4,0-0.6-0.1C116.1,31.1,115.8,31,115.6,30.9z"/>
</g>
</svg>