<?xml version="1.0" encoding="utf-8"?>
<svg xmlns="http://www.w3.org/2000/svg" xmlns:xlink="http://www.w3.org/1999/xlink" version="1.1" id="Layer_1" x="0px" y="0px" viewBox="0 0 158.3 34" style="enable-background:new 0 0 158.3 34;">
<style type="text/css">
	.st0{fill:#505758;}
	.st1{fill:#FDFDFD;}
	.st2{fill:#9CA2A9;}
	.st3{fill:#F6F6F7;}
	.st4{fill:#FBFBFB;}
	.st5{fill:#F9F9F9;}
	.st6{fill:#F5F6F7;}
	.st7{fill:#F9F9FA;}
	.st8{fill:#FEFEFE;}
	.st9{fill:#E92D2E;}
	.st10{fill:#E82D2E;}
	.st11{fill:#9EA3A8;}
	.st12{fill:#E42C2D;}
	.st13{fill:#9EA3AA;}
	.st14{fill:#9DA2A9;}
	.st15{fill:#020202;}
	.st16{fill:#020000;}
	.st17{fill:#010000;}
	.st18{fill:#794826;}
	.st19{fill:#744C29;}
	.st20{fill:#963528;}
	.st21{fill:#03693D;}
	.st22{fill:#010101;}
	.st23{fill:#030303;}
	.st24{fill:#CF8C41;}
	.st25{fill:#885932;}
	.st26{fill:#92613B;}
	.st27{fill:#95643D;}
	.st28{fill:#8E5E37;}
	.st29{fill:#8B5B35;}
	.st30{fill:#A9322E;}
	.st31{fill:#CF8D43;}
	.st32{fill:#D8372A;}
	.st33{fill:#8CC041;}
	.st34{fill:#01944B;}
	.st35{fill:#8CBE40;}
	.st36{fill:#C0D230;}
	.st37{fill:#A4C338;}
	.st38{fill:#E8B877;}
	.st39{fill:#E2A96A;}
	.st40{fill:#DF9F62;}
	.st41{fill:#E4AD6F;}
	.st42{fill:#E6B273;}
	.st43{fill:#E1A366;}
	.st44{fill:#A6784D;}
	.st45{fill:#DF9F63;}
	.st46{fill:#E2A769;}
	.st47{fill:#E6B374;}
	.st48{fill:#ECC380;}
	.st49{fill:#E8B676;}
	.st50{fill:#E4AD6E;}
	.st51{fill:#E5B172;}
	.st52{fill:#E3AA6B;}
	.st53{fill:#EABE7D;}
	.st54{fill:#E0A366;}
	.st55{fill:#E0A568;}
	.st56{fill:#E6B172;}
	.st57{fill:#EFD7B8;}
	.st58{fill:#EFD7BA;}
	.st59{fill:#F6EBDE;}
	.st60{fill:#EDCDA3;}
	.st61{fill:#FAF3E7;}
	.st62{fill:#E9C599;}
	.st63{fill:#E0A970;}
	.st64{fill:#FAF2E7;}
	.st65{fill:#DC9F68;}
	.st66{fill:#DA995F;}
	.st67{fill:#F9F1E3;}
	.st68{fill:#DDA470;}
	.st69{fill:#E8807B;}
	.st70{fill:#DD4E40;}
	.st71{fill:#DF584B;}
	.st72{fill:#E77A74;}
	.st73{fill:#E36A61;}
	.st74{fill:#E5746C;}
	.st75{fill:#E05E52;}
	.st76{fill:#E26359;}
	.st77{fill:#DA4434;}
	.st78{fill:#D83E2D;}
	.st79{fill:#DB4939;}
	.st80{fill:#E46E66;}
	.st81{fill:#D0D82B;}
	.st82{fill:#D1D82B;}
	.st83{fill:#C2D32F;}
	.st84{fill:#9EC738;}
	.st85{fill:#BAD032;}
	.st86{fill:#CCD62C;}
	.st87{fill:#241F20;}
	.st88{fill:#F3DEC5;}
	.st89{fill:#D7915A;}
	.st90{fill:#242021;}
	.st91{fill:#E3AA6C;}
	.st92{fill:#E4AE6F;}
	.st93{fill:#DA9960;}
	.st94{fill:#EBBF7D;}
	.st95{fill:#DB9C63;}
	.st96{fill:#EABC7B;}
	.st97{fill:#F0D9B2;}
	.st98{fill:#DA9B62;}
	.st99{fill:#DDA067;}
	.st100{fill:#EACD9E;}
	.st101{fill:#EECEA4;}
	.st102{fill:#DA9961;}
	.st103{fill:#F9EFE0;}
	.st104{fill:#DC9E65;}
	.st105{fill:#F1D8B4;}
	.st106{fill:#E9C995;}
	.st107{fill:#F7E8D7;}
	.st108{fill:#F0D6B3;}
	.st109{fill:#DAD9D9;}
	.st110{fill:#D7D6D6;}
	.st111{fill:#F3D6A5;}
	.st112{fill:#D69158;}
	.st113{fill:#F6E6D0;}
	.st114{fill:#E4B382;}
	.st115{fill:#EECFA4;}
	.st116{fill:#FCCA24;}
</style>
<g>
	<g>
		<path class="st0" d="M141.442,34H16.909C8.18,34,1.037,26.858,1.037,18.128v-2.257C1.037,7.142,8.18,0,16.909,0l124.532,0&#xA;			c8.729,0,15.872,7.142,15.872,15.872v2.257C157.313,26.858,150.171,34,141.442,34z"/>
	</g>
	<g>
		<path d="M18.277,0c41.191,0,82.382,0,123.572,0c1.35,0.154,2.698,0.266,3.997,0.744c4.983,1.834,8.477,5.168,10.504,10.007&#xA;			c0.113,0.269,0.195,0.55,0.22,0.844c0.589,2.612,0.729,5.232,0.186,7.87c-1.481,7.193-7.587,12.749-14.971,13.617&#xA;			c-0.401,0.047-0.804,0.042-1.206,0.042c-38.871,0-77.742,0.001-116.613-0.006c-0.494,0-1.277,0.197-1.394-0.268&#xA;			c-0.125-0.498,0.685-0.589,1.104-0.814c5.538-2.981,8.795-7.479,9.35-13.738c0.791-8.925-5.747-16.239-13.457-17.73&#xA;			C19.114,0.481,18.526,0.588,18.277,0z"/>
	</g>
	<g>
		<circle class="st0" cx="17.987" cy="17" r="17"/>
	</g>
	<g>
		<path class="st1" d="M45.991,19.418c-3.467,0.217-6.106-2.289-6.269-5.986c-0.103-2.328,0.524-4.395,2.613-5.669&#xA;			c2.169-1.324,4.493-1.381,6.822-0.36c0.458,0.201,0.869,0.504,1.157,0.938c0.376,0.567,0.402,1.141-0.011,1.69&#xA;			c-0.394,0.523-0.957,0.54-1.51,0.355c-0.622-0.208-1.203-0.544-1.83-0.729c-1.958-0.579-3.535,0.332-3.931,2.302&#xA;			c-0.222,1.104-0.134,2.209,0.419,3.234c0.746,1.381,2.393,1.902,3.815,1.21c0.398-0.194,0.676-0.492,0.868-0.886&#xA;			c0.447-0.919,0.339-1.097-0.675-1.09c-0.185,0.001-0.371,0.006-0.556,0.006c-1.271-0.002-1.816-0.731-1.444-1.952&#xA;			c0.128-0.421,0.439-0.657,0.877-0.68c1.108-0.058,2.216-0.147,3.324-0.138c1.414,0.01,1.885,0.517,1.934,1.919&#xA;			C51.712,16.944,49.549,19.195,45.991,19.418z"/>
		<path class="st2" d="M45.585,19.589c-1.501,0-2.892-0.514-3.955-1.468c-1.25-1.123-1.984-2.786-2.068-4.682&#xA;			c-0.121-2.733,0.759-4.634,2.689-5.811c2.167-1.323,4.512-1.447,6.969-0.369c0.529,0.232,0.941,0.567,1.225,0.995&#xA;			c0.427,0.644,0.421,1.292-0.017,1.873c-0.384,0.51-0.967,0.652-1.687,0.41c-0.293-0.098-0.579-0.225-0.855-0.347&#xA;			c-0.315-0.14-0.641-0.284-0.969-0.381c-0.934-0.276-1.783-0.208-2.455,0.198c-0.652,0.393-1.093,1.079-1.275,1.983&#xA;			c-0.232,1.151-0.096,2.203,0.403,3.127c0.707,1.308,2.257,1.799,3.606,1.143c0.352-0.171,0.612-0.437,0.794-0.812&#xA;			c0.081-0.168,0.298-0.612,0.218-0.74c-0.08-0.126-0.584-0.123-0.748-0.122c-0.078,0.001-0.157,0.002-0.235,0.003&#xA;			c-0.107,0.002-0.211,0.001-0.322,0.003c-0.677-0.001-1.184-0.203-1.466-0.584c-0.282-0.381-0.327-0.925-0.13-1.573&#xA;			c0.147-0.484,0.51-0.765,1.021-0.792c0.262-0.014,0.524-0.029,0.786-0.045c0.834-0.049,1.697-0.1,2.547-0.094&#xA;			c1.473,0.011,2.04,0.573,2.092,2.073c0.121,3.47-2.083,5.769-5.752,5.998C45.862,19.585,45.723,19.589,45.585,19.589z&#xA;			 M45.981,19.259l0.01,0.159L45.981,19.259c3.479-0.217,5.569-2.39,5.454-5.67c-0.047-1.344-0.462-1.756-1.777-1.766&#xA;			c-0.841-0.007-1.697,0.044-2.526,0.093c-0.263,0.015-0.525,0.031-0.788,0.045c-0.373,0.02-0.626,0.216-0.733,0.567&#xA;			c-0.167,0.548-0.139,0.994,0.081,1.291c0.22,0.297,0.639,0.455,1.211,0.455c0.106,0,0.211-0.002,0.317-0.003&#xA;			c0.079-0.001,0.159-0.002,0.238-0.003c0.536-0.004,0.874,0.039,1.02,0.27c0.146,0.232,0.037,0.56-0.201,1.048&#xA;			c-0.215,0.442-0.523,0.756-0.941,0.959c-1.505,0.732-3.235,0.183-4.025-1.278c-0.535-0.991-0.682-2.115-0.435-3.341&#xA;			c0.2-0.994,0.692-1.753,1.422-2.193c0.751-0.453,1.688-0.532,2.71-0.23c0.348,0.103,0.684,0.251,1.008,0.395&#xA;			c0.269,0.119,0.548,0.242,0.827,0.336c0.595,0.199,1.03,0.101,1.332-0.3c0.36-0.477,0.362-0.97,0.006-1.506&#xA;			c-0.25-0.377-0.616-0.673-1.088-0.88c-2.357-1.033-4.602-0.915-6.676,0.35c-1.822,1.112-2.652,2.919-2.537,5.526&#xA;			c0.08,1.81,0.777,3.394,1.963,4.46C42.939,18.869,44.409,19.357,45.981,19.259z"/>
	</g>
	<g>
		<path class="st3" d="M126.222,11.785c0.608,0,1.22-0.039,1.824,0.01c0.681,0.055,1.157,0.478,1.233,1.141&#xA;			c0.243,2.133-0.209,4.08-1.922,5.513c-1.668,1.395-3.619,1.596-5.587,0.813c-2.24-0.892-3.244-2.782-3.506-5.069&#xA;			c-0.159-1.391-0.086-2.79,0.441-4.133c1.318-3.359,5.812-4.7,8.761-2.598c0.628,0.447,1.106,0.984,1.044,1.829&#xA;			c-0.072,0.998-0.869,1.495-1.773,1.094c-0.648-0.288-1.219-0.726-1.926-0.904c-1.372-0.344-2.582,0.171-3.138,1.453&#xA;			c-0.618,1.424-0.595,2.887,0.03,4.301c0.543,1.229,1.681,1.75,3.006,1.474c0.489-0.102,0.88-0.364,1.139-0.789&#xA;			c0.22-0.36,0.507-0.781,0.332-1.174c-0.174-0.39-0.664-0.179-1.011-0.19c-1.354-0.042-1.703-0.344-1.665-1.513&#xA;			c0.033-0.998,0.27-1.245,1.288-1.29c0.475-0.021,0.952-0.004,1.429-0.004C126.222,11.762,126.222,11.774,126.222,11.785z"/>
		<path class="st2" d="M124.006,19.878c-0.742,0-1.511-0.155-2.296-0.468c-2.093-0.833-3.305-2.582-3.605-5.199&#xA;			c-0.182-1.594-0.035-2.97,0.451-4.209c0.647-1.648,2.058-2.902,3.872-3.441c1.815-0.54,3.685-0.258,5.13,0.772&#xA;			c0.555,0.395,1.183,0.977,1.111,1.97c-0.039,0.543-0.275,0.971-0.664,1.204c-0.38,0.228-0.852,0.236-1.332,0.023&#xA;			c-0.243-0.108-0.476-0.237-0.701-0.361c-0.396-0.219-0.77-0.426-1.199-0.533c-1.335-0.335-2.438,0.175-2.953,1.362&#xA;			c-0.597,1.376-0.587,2.78,0.029,4.173c0.5,1.13,1.557,1.647,2.828,1.383c0.455-0.095,0.804-0.335,1.036-0.716l0.043-0.069&#xA;			c0.202-0.327,0.41-0.666,0.28-0.957c-0.072-0.162-0.223-0.161-0.548-0.12c-0.107,0.014-0.217,0.027-0.323,0.024&#xA;			c-0.811-0.025-1.249-0.149-1.511-0.429c-0.236-0.251-0.328-0.625-0.307-1.249c0.036-1.085,0.345-1.395,1.439-1.444&#xA;			c0.331-0.015,0.667-0.011,0.992-0.007c0.148,0.002,0.296,0.003,0.444,0.003h0.159v0.034c0.132-0.001,0.265-0.004,0.398-0.006&#xA;			c0.419-0.008,0.853-0.017,1.28,0.018c0.767,0.062,1.295,0.553,1.378,1.282c0.276,2.422-0.39,4.324-1.978,5.653&#xA;			C126.419,19.44,125.251,19.878,124.006,19.878z M124.244,6.611c-0.569,0-1.15,0.084-1.725,0.255&#xA;			c-1.719,0.511-3.056,1.697-3.666,3.253c-0.466,1.189-0.608,2.516-0.431,4.057c0.285,2.491,1.431,4.153,3.407,4.939&#xA;			c1.988,0.791,3.864,0.519,5.426-0.787c1.522-1.273,2.133-3.031,1.866-5.373c-0.066-0.577-0.472-0.951-1.087-1.001&#xA;			c-0.411-0.033-0.836-0.025-1.248-0.017c-0.188,0.004-0.375,0.007-0.563,0.007h-0.159v-0.035c-0.096-0.001-0.193-0.002-0.289-0.003&#xA;			c-0.32-0.004-0.651-0.008-0.974,0.007c-0.925,0.041-1.106,0.222-1.136,1.137c-0.017,0.531,0.049,0.837,0.221,1.021&#xA;			c0.198,0.211,0.572,0.306,1.289,0.328c0.08,0.003,0.174-0.009,0.274-0.022c0.296-0.037,0.701-0.088,0.877,0.306&#xA;			c0.199,0.445-0.077,0.894-0.299,1.254l-0.042,0.068c-0.276,0.452-0.706,0.75-1.243,0.861c-1.428,0.297-2.619-0.289-3.184-1.566&#xA;			c-0.653-1.478-0.664-2.968-0.03-4.428c0.573-1.323,1.846-1.915,3.322-1.544c0.469,0.117,0.879,0.344,1.275,0.564&#xA;			c0.22,0.121,0.446,0.247,0.676,0.349c0.382,0.169,0.75,0.167,1.039-0.005c0.298-0.178,0.479-0.517,0.511-0.955&#xA;			c0.048-0.661-0.245-1.166-0.978-1.688C126.465,6.944,125.377,6.611,124.244,6.611z"/>
	</g>
	<g>
		<path class="st4" d="M111.657,14.967c-0.053,1.156-0.096,2.178-0.149,3.199c-0.048,0.93-0.296,1.189-1.167,1.249&#xA;			c-1.048,0.072-1.411-0.176-1.563-1.109c-0.047-0.285-0.049-0.579-0.05-0.869c-0.003-2.701-0.004-5.402-0.002-8.103&#xA;			c0.002-2.08,0.386-2.483,2.432-2.462c0.976,0.01,1.953-0.088,2.927,0.126c1.731,0.382,2.914,1.511,3.122,3.057&#xA;			c0.258,1.916-0.401,3.343-2.005,4.171c-0.401,0.207-0.39,0.321-0.122,0.605c0.491,0.52,0.961,1.058,1.44,1.589&#xA;			c0.358,0.396,0.662,0.829,0.796,1.352c0.161,0.631-0.041,1.168-0.565,1.53c-0.507,0.35-1.067,0.323-1.546-0.064&#xA;			c-0.325-0.263-0.61-0.586-0.871-0.916c-0.818-1.038-1.616-2.093-2.423-3.14C111.882,15.142,111.836,15.115,111.657,14.967z"/>
		<path class="st2" d="M116.017,19.706c-0.314,0-0.625-0.116-0.911-0.346c-0.288-0.233-0.573-0.532-0.896-0.942&#xA;			c-0.561-0.712-1.121-1.443-1.663-2.15c-0.248-0.324-0.497-0.648-0.746-0.972l-0.032,0.711c-0.034,0.752-0.065,1.459-0.102,2.166&#xA;			c-0.052,1.006-0.36,1.333-1.315,1.399c-1.131,0.078-1.566-0.235-1.732-1.242c-0.047-0.287-0.051-0.575-0.052-0.895&#xA;			c-0.004-2.701-0.004-5.402-0.002-8.103c0.001-1.013,0.086-1.725,0.507-2.141c0.417-0.412,1.108-0.489,2.086-0.479&#xA;			c0.248,0.002,0.502-0.002,0.748-0.007c0.723-0.013,1.47-0.027,2.212,0.137c1.817,0.4,3.03,1.593,3.245,3.191&#xA;			c0.268,1.991-0.454,3.489-2.09,4.333c-0.2,0.103-0.225,0.15-0.228,0.158c0.001,0.007,0.013,0.053,0.149,0.196&#xA;			c0.343,0.364,0.682,0.742,1.009,1.109c0.144,0.161,0.288,0.322,0.433,0.483c0.453,0.501,0.709,0.939,0.832,1.419&#xA;			c0.177,0.694-0.046,1.297-0.629,1.7C116.576,19.615,116.295,19.706,116.017,19.706z M111.513,14.641l0.246,0.204&#xA;			c0.071,0.059,0.121,0.099,0.157,0.127c0.06,0.047,0.093,0.073,0.122,0.112c0.254,0.33,0.508,0.661,0.761,0.992&#xA;			c0.541,0.706,1.101,1.436,1.66,2.147c0.308,0.39,0.576,0.673,0.846,0.891c0.427,0.345,0.909,0.366,1.355,0.057&#xA;			c0.472-0.326,0.646-0.796,0.502-1.359c-0.109-0.427-0.343-0.824-0.76-1.284c-0.145-0.161-0.29-0.322-0.434-0.484&#xA;			c-0.326-0.365-0.663-0.741-1.004-1.102c-0.133-0.141-0.26-0.293-0.23-0.469c0.028-0.165,0.178-0.274,0.395-0.386&#xA;			c1.526-0.788,2.173-2.136,1.92-4.008c-0.197-1.46-1.318-2.553-2.999-2.923c-0.706-0.156-1.434-0.142-2.138-0.129&#xA;			c-0.248,0.005-0.504,0.009-0.757,0.007c-1.045-0.01-1.567,0.098-1.859,0.387c-0.296,0.293-0.411,0.83-0.412,1.916&#xA;			c-0.002,2.701-0.002,5.402,0.002,8.102c0,0.305,0.004,0.579,0.047,0.843c0.138,0.842,0.425,1.044,1.396,0.976&#xA;			c0.794-0.055,0.975-0.25,1.019-1.098c0.037-0.706,0.068-1.413,0.102-2.164L111.513,14.641z"/>
	</g>
	<g>
		<path class="st5" d="M141.236,15.106c0,1.023,0.02,2.047-0.006,3.07c-0.024,0.919-0.297,1.182-1.169,1.242&#xA;			c-1.041,0.071-1.422-0.183-1.565-1.109c-0.06-0.388-0.05-0.79-0.05-1.185c-0.004-2.644-0.008-5.288,0-7.931&#xA;			c0.005-1.91,0.431-2.338,2.329-2.323c1.08,0.009,2.166-0.096,3.238,0.158c1.574,0.373,2.738,1.582,2.924,3.068&#xA;			c0.238,1.902-0.42,3.33-1.966,4.111c-0.408,0.206-0.468,0.317-0.145,0.648c0.48,0.491,0.929,1.013,1.384,1.528&#xA;			c0.333,0.376,0.626,0.772,0.788,1.264c0.229,0.701,0.034,1.272-0.541,1.665c-0.569,0.389-1.182,0.289-1.667-0.178&#xA;			c-0.416-0.401-0.772-0.867-1.13-1.324c-0.713-0.909-1.408-1.83-2.111-2.746C141.445,15.078,141.341,15.092,141.236,15.106z"/>
		<path class="st2" d="M145.728,19.71c-0.367,0-0.73-0.156-1.049-0.462c-0.389-0.375-0.727-0.807-1.055-1.225l-0.09-0.115&#xA;			c-0.504-0.642-1.007-1.301-1.493-1.939c-0.187-0.245-0.375-0.491-0.563-0.736l-0.084,0.011c0,0.264,0.002,0.528,0.004,0.792&#xA;			c0.004,0.702,0.009,1.428-0.01,2.143c-0.026,0.991-0.346,1.33-1.317,1.397c-1.126,0.076-1.579-0.248-1.733-1.243&#xA;			c-0.054-0.349-0.053-0.706-0.052-1.051l0-0.158c-0.004-2.582-0.008-5.252,0-7.932c0.003-0.903,0.09-1.588,0.506-2&#xA;			c0.414-0.41,1.095-0.49,1.984-0.482c0.258,0.003,0.516-0.002,0.774-0.007c0.818-0.014,1.665-0.028,2.499,0.169&#xA;			c1.655,0.393,2.851,1.65,3.045,3.203c0.249,1.991-0.46,3.469-2.052,4.273c-0.225,0.114-0.26,0.162-0.265,0.177&#xA;			c0,0.004,0.003,0.055,0.162,0.217c0.395,0.404,0.774,0.835,1.14,1.251l0.249,0.283c0.304,0.344,0.64,0.771,0.82,1.32&#xA;			c0.247,0.756,0.033,1.411-0.603,1.845C146.284,19.622,146.005,19.71,145.728,19.71z M141.619,14.894l0.056,0.073&#xA;			c0.207,0.27,0.413,0.54,0.619,0.81c0.486,0.637,0.989,1.295,1.491,1.935l0.09,0.115c0.32,0.409,0.652,0.833,1.025,1.192&#xA;			c0.449,0.432,0.984,0.491,1.467,0.161c0.524-0.357,0.685-0.857,0.48-1.484c-0.162-0.494-0.473-0.888-0.756-1.208l-0.25-0.283&#xA;			c-0.363-0.413-0.739-0.841-1.129-1.239c-0.146-0.15-0.278-0.313-0.248-0.492c0.032-0.19,0.224-0.302,0.435-0.408&#xA;			c1.461-0.738,2.111-2.104,1.88-3.95c-0.178-1.42-1.278-2.571-2.803-2.933c-0.795-0.189-1.621-0.175-2.42-0.161&#xA;			c-0.261,0.005-0.521,0.009-0.782,0.007c-0.96-0.008-1.47,0.105-1.758,0.39c-0.289,0.286-0.409,0.8-0.411,1.775&#xA;			c-0.008,2.68-0.004,5.349,0,7.931l0,0.159c-0.001,0.333-0.002,0.677,0.048,1.002c0.129,0.831,0.429,1.042,1.397,0.974&#xA;			c0.799-0.055,0.999-0.268,1.02-1.088c0.018-0.71,0.014-1.433,0.01-2.133c-0.002-0.311-0.004-0.622-0.004-0.933v-0.139&#xA;			L141.619,14.894z"/>
	</g>
	<g>
		<path class="st6" d="M107.38,11.518c-0.024,1.475,0.171,2.962-0.172,4.424c-0.582,2.478-2.497,3.84-5.233,3.72&#xA;			c-2.403-0.105-4.243-1.759-4.559-4.155c-0.33-2.501-0.133-5.017-0.126-7.526c0.003-0.989,0.467-1.301,1.512-1.275&#xA;			c0.928,0.023,1.241,0.317,1.291,1.317c0.107,2.166-0.077,4.337,0.109,6.502c0.143,1.664,1.153,2.485,2.698,2.197&#xA;			c1.005-0.187,1.632-1.076,1.658-2.477c0.033-1.771,0.013-3.544,0.016-5.316c0.001-0.264-0.002-0.529,0.01-0.793&#xA;			c0.065-1.369,0.773-1.64,2.152-1.323c0.483,0.111,0.639,0.521,0.642,0.977C107.384,9.032,107.38,10.275,107.38,11.518z"/>
		<path class="st2" d="M102.309,19.828c-0.113,0-0.227-0.002-0.342-0.008c-2.493-0.109-4.385-1.834-4.709-4.293&#xA;			c-0.244-1.85-0.201-3.734-0.159-5.555c0.015-0.653,0.03-1.329,0.032-1.992c0.001-0.495,0.118-0.849,0.355-1.08&#xA;			c0.268-0.261,0.675-0.37,1.32-0.354c1.028,0.025,1.393,0.395,1.446,1.468c0.047,0.959,0.038,1.932,0.029,2.874&#xA;			c-0.012,1.189-0.024,2.419,0.08,3.622c0.068,0.798,0.348,1.404,0.807,1.754c0.427,0.325,1.016,0.428,1.703,0.3&#xA;			c0.947-0.177,1.504-1.024,1.528-2.324c0.023-1.222,0.02-2.466,0.018-3.67c-0.001-0.548-0.003-1.096-0.002-1.644V8.793&#xA;			c0-0.218,0-0.442,0.01-0.665c0.031-0.653,0.207-1.092,0.538-1.343c0.381-0.289,0.939-0.328,1.809-0.127&#xA;			c0.49,0.113,0.762,0.515,0.765,1.131c0.005,0.89,0.004,1.779,0.003,2.669l-0.001,1.063c-0.007,0.424,0.005,0.857,0.016,1.276&#xA;			c0.028,1.044,0.056,2.123-0.192,3.181C106.784,18.439,104.951,19.828,102.309,19.828z M98.689,6.864&#xA;			c-0.483,0-0.797,0.085-0.982,0.265c-0.175,0.171-0.258,0.442-0.259,0.853c-0.002,0.666-0.017,1.343-0.032,1.998&#xA;			c-0.041,1.809-0.084,3.68,0.157,5.506c0.303,2.3,2.075,3.914,4.408,4.017c2.66,0.117,4.507-1.195,5.072-3.597&#xA;			c0.239-1.019,0.211-2.077,0.184-3.1c-0.011-0.422-0.023-0.859-0.016-1.288l0.001-1.059c0.001-0.889,0.002-1.778-0.003-2.667&#xA;			c-0.004-0.705-0.391-0.794-0.519-0.823c-0.76-0.175-1.25-0.152-1.545,0.071c-0.251,0.19-0.386,0.552-0.412,1.104&#xA;			c-0.01,0.215-0.01,0.436-0.01,0.65v0.136c-0.001,0.547,0,1.095,0.002,1.642c0.003,1.205,0.006,2.451-0.018,3.676&#xA;			c-0.027,1.443-0.696,2.427-1.788,2.63c-0.779,0.145-1.454,0.021-1.954-0.36c-0.533-0.405-0.855-1.09-0.931-1.98&#xA;			c-0.105-1.219-0.093-2.456-0.081-3.653c0.009-0.937,0.019-1.905-0.028-2.855c-0.045-0.905-0.278-1.145-1.136-1.166&#xA;			C98.761,6.864,98.725,6.864,98.689,6.864z"/>
	</g>
	<g>
		<path class="st7" d="M51.778,18.004c0.004-0.264,0.033-0.517,0.123-0.775c1.031-2.927,2.041-5.861,3.075-8.787&#xA;			c0.301-0.852,0.777-1.581,1.769-1.728c1.092-0.162,1.862,0.368,2.294,1.614c0.862,2.486,1.694,4.982,2.535,7.475&#xA;			c0.202,0.599,0.423,1.193,0.577,1.804c0.224,0.888-0.163,1.57-0.966,1.804c-0.798,0.233-1.466-0.141-1.78-1.011&#xA;			c-0.08-0.221-0.105-0.463-0.184-0.684c-0.176-0.489-0.491-0.797-1.057-0.783c-0.846,0.02-1.694,0.036-2.54,0.021&#xA;			c-0.539-0.009-0.837,0.266-0.998,0.732c-0.094,0.273-0.126,0.568-0.234,0.834c-0.264,0.65-0.73,1.041-1.467,0.944&#xA;			C52.183,19.367,51.78,18.828,51.778,18.004z"/>
		<path class="st2" d="M53.141,19.638c-0.077,0-0.156-0.005-0.238-0.016c-0.814-0.107-1.283-0.696-1.285-1.617v-0.003&#xA;			c0.005-0.323,0.045-0.578,0.133-0.826c0.475-1.349,0.945-2.699,1.416-4.049c0.541-1.554,1.101-3.16,1.659-4.738&#xA;			c0.248-0.703,0.715-1.657,1.895-1.832c1.181-0.174,2.012,0.403,2.468,1.719c0.666,1.921,1.325,3.881,1.963,5.776l0.572,1.7&#xA;			c0.044,0.13,0.089,0.26,0.133,0.39c0.16,0.463,0.325,0.942,0.447,1.426c0.241,0.952-0.182,1.735-1.076,1.996&#xA;			c-0.878,0.256-1.634-0.169-1.974-1.11c-0.043-0.12-0.071-0.243-0.098-0.361c-0.026-0.114-0.05-0.222-0.087-0.323&#xA;			c-0.173-0.48-0.45-0.688-0.904-0.678c-0.769,0.018-1.663,0.036-2.546,0.021c-0.431-0.01-0.693,0.185-0.845,0.625&#xA;			c-0.04,0.115-0.068,0.235-0.098,0.362c-0.037,0.159-0.076,0.323-0.14,0.48C54.257,19.276,53.776,19.638,53.141,19.638z&#xA;			 M58.199,16.774c0.565,0,0.959,0.299,1.172,0.889c0.043,0.12,0.071,0.242,0.098,0.361c0.026,0.114,0.05,0.222,0.087,0.323&#xA;			c0.285,0.791,0.863,1.123,1.585,0.913c0.737-0.215,1.057-0.818,0.856-1.612c-0.119-0.471-0.282-0.944-0.439-1.401&#xA;			c-0.045-0.131-0.09-0.261-0.134-0.392l-0.573-1.7c-0.637-1.894-1.296-3.853-1.962-5.773c-0.404-1.167-1.098-1.66-2.121-1.509&#xA;			c-0.779,0.115-1.286,0.616-1.642,1.624c-0.558,1.577-1.117,3.183-1.659,4.736c-0.471,1.351-0.941,2.701-1.416,4.05&#xA;			c-0.075,0.213-0.11,0.436-0.115,0.723c0.002,0.754,0.36,1.216,1.008,1.301c0.61,0.08,1.036-0.196,1.299-0.846&#xA;			c0.055-0.135,0.089-0.28,0.125-0.433c0.03-0.129,0.061-0.263,0.107-0.393c0.196-0.566,0.584-0.849,1.151-0.839&#xA;			c0.877,0.015,1.768-0.003,2.533-0.021C58.173,16.774,58.186,16.774,58.199,16.774z"/>
	</g>
	<g>
		<path class="st8" d="M130.318,13.12c-0.001-1.508-0.016-3.016,0.004-4.523c0.017-1.21,0.544-1.714,1.769-1.726&#xA;			c1.244-0.012,2.488-0.014,3.732,0.002c1.136,0.015,1.809,1.294,1.195,2.269c-0.163,0.26-0.44,0.356-0.751,0.371&#xA;			c-0.819,0.039-1.637,0.124-2.455,0.129c-0.721,0.004-0.884,0.372-0.879,1.008c0.005,0.648,0.217,1.009,0.914,0.992&#xA;			c0.582-0.014,1.165-0.019,1.747,0.004c0.963,0.037,1.303,0.412,1.308,1.396c0.005,0.995-0.325,1.349-1.306,1.377&#xA;			c-0.503,0.014-1.006,0.007-1.509,0.006c-0.642-0.001-0.97,0.282-0.974,0.958c-0.004,0.697,0.256,1.128,0.99,1.151&#xA;			c0.688,0.021,1.376,0.01,2.064,0.016c0.709,0.006,1.052,0.364,1.082,1.074c0.048,1.137-0.112,1.502-0.928,1.598&#xA;			c-1.579,0.185-3.168,0.177-4.748,0.001c-0.904-0.1-1.235-0.498-1.249-1.421C130.302,16.242,130.319,14.681,130.318,13.12z"/>
		<path class="st2" d="M133.97,19.517c-0.797,0-1.604-0.045-2.414-0.135c-0.973-0.108-1.375-0.565-1.39-1.577&#xA;			c-0.016-1.087-0.013-2.192-0.009-3.261c0.001-0.474,0.003-0.949,0.003-1.423l0,0c0-0.442-0.002-0.884-0.003-1.327&#xA;			c-0.004-1.048-0.007-2.132,0.007-3.199c0.018-1.29,0.612-1.87,1.926-1.883c1.396-0.013,2.618-0.013,3.736,0.002&#xA;			c0.583,0.008,1.1,0.321,1.382,0.839c0.29,0.533,0.27,1.159-0.054,1.674c-0.173,0.276-0.469,0.426-0.878,0.445&#xA;			c-0.295,0.014-0.591,0.034-0.886,0.054c-0.516,0.035-1.048,0.071-1.575,0.074c-0.264,0.002-0.444,0.055-0.551,0.164&#xA;			c-0.12,0.122-0.173,0.333-0.17,0.684c0.002,0.339,0.064,0.555,0.193,0.679c0.114,0.111,0.296,0.16,0.558,0.155&#xA;			c0.691-0.017,1.249-0.016,1.757,0.004c1.046,0.04,1.456,0.476,1.461,1.554c0.005,1.089-0.39,1.506-1.46,1.537&#xA;			c-0.396,0.011-0.798,0.009-1.187,0.008l-0.327-0.001c-0.002,0-0.003,0-0.005,0c-0.572,0-0.807,0.232-0.81,0.8&#xA;			c-0.004,0.676,0.246,0.973,0.836,0.991c0.446,0.014,0.903,0.014,1.343,0.014c0.239,0,0.479,0,0.718,0.002&#xA;			c0.788,0.007,1.205,0.419,1.239,1.227c0.048,1.127-0.095,1.649-1.068,1.763C135.563,19.471,134.771,19.517,133.97,19.517z&#xA;			 M133.984,7.021c-0.596,0-1.224,0.003-1.892,0.009c-1.144,0.011-1.596,0.451-1.611,1.569c-0.015,1.064-0.011,2.146-0.007,3.193&#xA;			c0.001,0.443,0.003,0.885,0.003,1.328l0,0c0,0.475-0.001,0.95-0.003,1.424c-0.003,1.067-0.006,2.171,0.009,3.255&#xA;			c0.013,0.856,0.292,1.175,1.107,1.266c1.602,0.178,3.187,0.178,4.712-0.001c0.654-0.077,0.837-0.274,0.788-1.434&#xA;			c-0.027-0.633-0.312-0.917-0.925-0.922c-0.238-0.002-0.477-0.002-0.715-0.002c-0.442,0-0.901,0-1.353-0.014&#xA;			c-0.764-0.024-1.149-0.465-1.144-1.311c0.004-0.741,0.384-1.116,1.129-1.116c0.002,0,0.003,0,0.005,0l0.328,0.001&#xA;			c0.386,0.002,0.785,0.004,1.176-0.007c0.887-0.026,1.156-0.31,1.151-1.217c-0.005-0.903-0.285-1.204-1.155-1.238&#xA;			c-0.501-0.019-1.052-0.02-1.737-0.004c-0.347,0.011-0.608-0.071-0.787-0.244c-0.194-0.188-0.286-0.476-0.289-0.905&#xA;			c-0.002-0.298,0.025-0.67,0.261-0.91c0.17-0.172,0.423-0.256,0.776-0.258c0.517-0.003,1.045-0.039,1.556-0.074&#xA;			c0.298-0.02,0.595-0.041,0.893-0.055c0.304-0.015,0.508-0.112,0.624-0.297c0.262-0.416,0.278-0.922,0.043-1.353&#xA;			c-0.226-0.415-0.64-0.667-1.106-0.673C135.24,7.024,134.631,7.021,133.984,7.021z"/>
	</g>
	<g>
		<path class="st2" d="M72.777,13.326c-0.28,1.069-0.551,2.105-0.824,3.14c-0.195,0.742-0.44,1.463-0.777,2.158&#xA;			c-0.318,0.654-0.813,0.93-1.522,0.916c-0.724-0.014-1.22-0.357-1.456-1.02c-0.468-1.319-0.895-2.652-1.354-3.974&#xA;			c-0.101-0.29-0.112-0.627-0.472-0.944c-0.217,1.284-0.428,2.489-0.621,3.696c-0.071,0.446-0.152,0.887-0.335,1.301&#xA;			c-0.302,0.681-0.811,1.065-1.573,0.906c-0.746-0.156-1.111-0.681-1.125-1.431c-0.018-0.931,0.195-1.839,0.318-2.755&#xA;			c0.3-2.227,0.602-4.454,0.933-6.677c0.187-1.251,0.847-1.901,1.909-1.978c1.254-0.091,1.84,0.361,2.286,1.707&#xA;			c0.506,1.53,1.037,3.051,1.555,4.576c0.05,0.149,0.081,0.305,0.3,0.402c0.392-0.995,0.522-2.045,0.796-3.056&#xA;			c0.173-0.637,0.299-1.287,0.469-1.925c0.341-1.278,0.99-1.774,2.198-1.706c1.145,0.064,1.971,0.814,2.108,1.993&#xA;			c0.285,2.443,0.54,4.89,0.803,7.335c0.071,0.657,0.157,1.315,0.177,1.975c0.026,0.84-0.443,1.421-1.176,1.552&#xA;			c-0.743,0.133-1.372-0.23-1.568-1.112c-0.32-1.442-0.519-2.911-0.769-4.369C73.02,13.806,73.061,13.551,72.777,13.326z"/>
	</g>
	<g>
		<path class="st2" d="M77.562,13.512c0-1.711-0.02-3.114,0.005-4.515c0.032-1.744,0.499-2.181,2.253-2.183&#xA;			c1.112-0.002,2.223-0.011,3.335,0.005c1.052,0.015,1.358,0.309,1.402,1.283c0.052,1.154-0.164,1.438-1.29,1.535&#xA;			c-0.711,0.062-1.428,0.054-2.142,0.064c-0.572,0.008-0.788,0.29-0.783,0.85c0.005,0.56,0.076,1.023,0.776,1.035&#xA;			c0.662,0.011,1.325-0.015,1.985,0.021c0.873,0.048,1.199,0.456,1.204,1.427c0.005,0.989-0.302,1.376-1.187,1.428&#xA;			c-0.581,0.034-1.164,0.014-1.746,0.027c-0.643,0.014-0.86,0.372-0.844,0.984c0.016,0.607,0.258,0.962,0.882,0.982&#xA;			c0.74,0.024,1.481,0.013,2.22,0.043c0.779,0.032,1.015,0.534,1.033,1.231c0.027,1.056-0.156,1.484-0.93,1.558&#xA;			c-1.658,0.159-3.327,0.166-4.987-0.012c-0.702-0.075-1.053-0.546-1.12-1.237C77.473,16.429,77.616,14.814,77.562,13.512z"/>
	</g>
	<g>
		<path class="st9" d="M92.093,24.783c0-0.606-0.005-1.213,0.002-1.819c0.004-0.385,0.139-0.685,0.583-0.689&#xA;			c0.632-0.006,1.274-0.058,1.895,0.031c1.276,0.182,2.029,1.195,2.028,2.606c-0.001,1.439-0.725,2.387-2.006,2.629&#xA;			c-2.192,0.414-2.532,0.137-2.514-2.046c0.002-0.237,0-0.475,0-0.712C92.085,24.783,92.089,24.783,92.093,24.783z"/>
	</g>
	<g>
		<path class="st9" d="M109.767,22.294c1.503,0.007,2.516,1.102,2.486,2.686c-0.03,1.596-1.059,2.686-2.53,2.681&#xA;			c-1.469-0.005-2.486-1.119-2.482-2.718C107.244,23.34,108.248,22.287,109.767,22.294z"/>
	</g>
	<g>
		<path class="st10" d="M83.08,24.257c0-0.477-0.007-0.953,0.002-1.43c0.008-0.404,0.245-0.541,0.628-0.532&#xA;			c0.38,0.008,0.506,0.207,0.512,0.552c0.015,0.847,0.031,1.694,0.064,2.54c0.026,0.662,0.284,1.14,1.045,1.112&#xA;			c0.72-0.026,0.935-0.507,0.95-1.127c0.02-0.794,0.01-1.588,0.031-2.382c0.011-0.403,0.117-0.729,0.644-0.696&#xA;			c0.482,0.031,0.544,0.346,0.545,0.713c0.004,0.821,0.027,1.643-0.014,2.462c-0.07,1.381-0.92,2.202-2.214,2.194&#xA;			c-1.323-0.007-2.165-0.883-2.197-2.294c-0.008-0.37-0.001-0.741-0.001-1.112C83.077,24.257,83.078,24.257,83.08,24.257z"/>
	</g>
	<g>
		<path class="st10" d="M68.756,22.274c0.432-0.001,0.848,0.061,1.196,0.343c0.228,0.185,0.327,0.426,0.196,0.703&#xA;			c-0.123,0.261-0.368,0.273-0.617,0.229c-0.459-0.081-1.102-0.515-1.287,0.154c-0.162,0.584,0.622,0.582,1.009,0.785&#xA;			c0.827,0.434,1.196,0.966,1.106,1.737c-0.085,0.724-0.632,1.234-1.504,1.411c-0.63,0.129-1.209-0.027-1.757-0.321&#xA;			c-0.303-0.163-0.517-0.415-0.357-0.777c0.147-0.333,0.463-0.315,0.758-0.239c0.281,0.072,0.55,0.196,0.832,0.259&#xA;			c0.308,0.069,0.598,0.001,0.722-0.328c0.125-0.333-0.053-0.562-0.339-0.71c-0.187-0.097-0.387-0.17-0.582-0.253&#xA;			c-1.022-0.437-1.367-0.921-1.203-1.69C67.105,22.744,67.776,22.266,68.756,22.274z"/>
	</g>
	<g>
		<path class="st10" d="M118.524,22.275c0.403-0.008,0.794,0.043,1.136,0.276c0.264,0.18,0.414,0.427,0.285,0.746&#xA;			c-0.125,0.311-0.404,0.299-0.675,0.239c-0.417-0.092-0.989-0.45-1.189,0.084c-0.25,0.669,0.53,0.641,0.9,0.829&#xA;			c0.916,0.466,1.288,1.012,1.156,1.85c-0.115,0.729-0.725,1.24-1.637,1.364c-0.572,0.077-1.103-0.073-1.596-0.35&#xA;			c-0.287-0.161-0.545-0.395-0.378-0.765c0.166-0.367,0.508-0.321,0.827-0.233c0.254,0.07,0.497,0.182,0.753,0.239&#xA;			c0.301,0.067,0.601,0.036,0.726-0.303c0.133-0.36-0.027-0.612-0.367-0.76c-0.193-0.084-0.389-0.163-0.583-0.247&#xA;			c-1.038-0.453-1.326-0.918-1.118-1.8C116.936,22.72,117.607,22.274,118.524,22.275z"/>
	</g>
	<g>
		<path class="st11" d="M93.918,12.335c1.365,0.483,2.259,1.318,2.357,2.805c0.156,2.367-1.16,3.953-3.531,4.238&#xA;			c-1.529,0.184-3.067,0.193-4.603,0.155c-1.068-0.027-1.585-0.442-1.623-1.449c-0.121-3.2-0.205-6.403-0.243-9.605&#xA;			c-0.013-1.067,0.566-1.6,1.628-1.671c1.479-0.099,2.962-0.223,4.44,0.016c2.14,0.345,3.304,2.163,2.662,4.117&#xA;			C94.814,11.521,94.411,11.924,93.918,12.335z"/>
	</g>
	<g>
		<path class="st10" d="M75.973,25.431c0-0.344,0.001-0.689,0.028-1.031c0.047-0.574,0.048-1.063-0.754-1.047&#xA;			c-0.316,0.006-0.551-0.224-0.516-0.577c0.031-0.303,0.25-0.469,0.548-0.47c0.9-0.003,1.799,0.002,2.699,0.027&#xA;			c0.29,0.008,0.502,0.174,0.522,0.493c0.023,0.367-0.223,0.579-0.527,0.566c-0.752-0.031-0.783,0.423-0.775,0.976&#xA;			c0.012,0.793-0.011,1.587-0.014,2.381c-0.002,0.438,0.015,0.896-0.606,0.901c-0.672,0.005-0.64-0.484-0.633-0.949&#xA;			C75.951,26.278,75.973,25.855,75.973,25.431C75.99,25.431,75.956,25.431,75.973,25.431z"/>
	</g>
	<g>
		<path class="st12" d="M102.296,24.987c0,0.66-0.002,1.32,0.001,1.98c0.002,0.411-0.164,0.641-0.609,0.645&#xA;			c-0.423,0.004-0.566-0.246-0.571-0.598c-0.017-1.346-0.028-2.692-0.014-4.038c0.003-0.331,0.153-0.637,0.564-0.633&#xA;			c0.42,0.005,0.617,0.258,0.62,0.663c0.005,0.66,0.001,1.32,0.001,1.98C102.292,24.987,102.294,24.987,102.296,24.987z"/>
	</g>
	<g>
		<path d="M17.979,32.583C9.335,32.567,2.446,25.625,2.46,16.945C2.474,8.312,9.434,1.407,18.103,1.425&#xA;			c8.585,0.018,15.592,7.058,15.499,15.685C33.504,26.122,26.147,32.698,17.979,32.583z"/>
	</g>
	<g>
		<path class="st13" d="M112.874,9.375c1.105,0.02,1.696,0.602,1.679,1.653c-0.017,1.038-0.718,1.689-1.799,1.67&#xA;			c-0.869-0.016-1.388-0.695-1.363-1.784C111.417,9.855,111.896,9.357,112.874,9.375z"/>
	</g>
	<g>
		<path class="st14" d="M144.277,10.979c0,1.04-0.682,1.708-1.753,1.716c-0.88,0.007-1.405-0.643-1.404-1.737&#xA;			c0.001-1.055,0.481-1.585,1.434-1.581C143.672,9.381,144.277,9.943,144.277,10.979z"/>
	</g>
	<g>
		<path class="st15" d="M56.94,14.178c-1.132,0.009-1.392-0.346-1-1.37c0.216-0.564,0.437-1.126,0.654-1.69&#xA;			c0.067-0.174,0.123-0.356,0.361-0.358c0.191-0.001,0.3,0.137,0.352,0.276c0.282,0.764,0.582,1.524,0.799,2.307&#xA;			C58.24,13.83,57.721,14.172,56.94,14.178z"/>
		<path class="st2" d="M56.899,14.337c-0.627,0-0.988-0.116-1.168-0.375c-0.18-0.259-0.161-0.632,0.06-1.211&#xA;			c0.129-0.338,0.26-0.675,0.391-1.012c0.088-0.226,0.176-0.452,0.263-0.678l0.011-0.028c0.065-0.171,0.164-0.429,0.498-0.431&#xA;			c0.001,0,0.002,0,0.003,0c0.224,0,0.41,0.142,0.498,0.38c0.05,0.135,0.1,0.27,0.151,0.406c0.232,0.621,0.472,1.263,0.652,1.914&#xA;			c0.059,0.213,0.022,0.415-0.107,0.586c-0.212,0.281-0.653,0.445-1.21,0.45l0,0C56.927,14.337,56.913,14.337,56.899,14.337z&#xA;			 M56.957,10.92c0,0-0.001,0-0.001,0c-0.105,0.001-0.134,0.046-0.202,0.227l-0.011,0.029c-0.087,0.226-0.175,0.453-0.263,0.679&#xA;			c-0.131,0.337-0.262,0.673-0.391,1.01c-0.175,0.457-0.206,0.757-0.096,0.916c0.114,0.165,0.424,0.242,0.946,0.238l0,0&#xA;			c0.444-0.004,0.811-0.127,0.959-0.323c0.069-0.092,0.087-0.193,0.055-0.31c-0.176-0.637-0.414-1.273-0.643-1.887&#xA;			c-0.051-0.136-0.101-0.271-0.151-0.407C57.115,10.977,57.048,10.92,56.957,10.92z"/>
	</g>
	<g>
		<path class="st8" d="M76.237,17.557c0.025,1.04-0.332,1.565-0.992,1.642c-0.584,0.069-1.07-0.378-1.215-1.216&#xA;			c-0.244-1.404-0.443-2.816-0.666-4.224c-0.053-0.333-0.051-0.78-0.476-0.809c-0.439-0.03-0.485,0.432-0.565,0.749&#xA;			c-0.312,1.229-0.572,2.471-1,3.668c-0.133,0.372-0.293,0.735-0.447,1.1c-0.222,0.526-0.632,0.754-1.194,0.745&#xA;			c-0.568-0.009-0.978-0.275-1.162-0.799c-0.473-1.346-0.9-2.708-1.378-4.052c-0.15-0.421-0.124-1.14-0.694-1.109&#xA;			c-0.567,0.031-0.475,0.718-0.554,1.169c-0.212,1.195-0.391,2.397-0.641,3.585c-0.134,0.64-0.411,1.253-1.24,1.184&#xA;			c-0.678-0.056-1.076-0.664-0.956-1.57c0.4-3.036,0.825-6.069,1.27-9.098c0.137-0.933,0.734-1.463,1.566-1.53&#xA;			c1.043-0.083,1.546,0.249,1.899,1.284c0.537,1.576,1.066,3.155,1.593,4.735c0.102,0.306,0.179,0.66,0.583,0.643&#xA;			c0.391-0.016,0.477-0.354,0.551-0.675c0.321-1.389,0.651-2.776,0.97-4.166c0.309-1.348,0.783-1.831,1.812-1.829&#xA;			c1.037,0.003,1.821,0.585,1.945,1.614C75.614,11.64,75.923,14.688,76.237,17.557z"/>
	</g>
	<g>
		<path class="st8" d="M81.335,7.151c0.688,0.001,1.377-0.008,2.065,0.003c0.551,0.009,0.827,0.303,0.803,0.856&#xA;			c-0.023,0.523,0.191,1.136-0.678,1.26c-0.794,0.114-1.584,0.066-2.376,0.103c-0.84,0.039-1.107,0.319-1.116,1.186&#xA;			c-0.01,0.981,0.262,1.319,1.129,1.351c0.608,0.022,1.218,0.008,1.827,0.011c0.768,0.004,1.002,0.494,0.993,1.148&#xA;			c-0.008,0.657-0.249,1.122-1.033,1.082c-0.528-0.027-1.06-0.018-1.588,0.008c-0.697,0.034-1.142,0.332-1.155,1.115&#xA;			c-0.016,0.935,0.248,1.405,1.041,1.497c0.68,0.079,1.375,0.06,2.062,0.041c0.698-0.019,1.023,0.278,1.034,0.981&#xA;			c0.014,0.862-0.196,1.215-0.965,1.238c-1.376,0.041-2.755,0.047-4.13-0.002c-0.942-0.034-1.238-0.321-1.287-1.252&#xA;			c-0.166-3.17-0.18-6.342,0.015-9.512c0.046-0.745,0.531-1.071,1.214-1.105C79.903,7.123,80.62,7.151,81.335,7.151z"/>
	</g>
	<g>
		<path class="st16" d="M93.266,24.993c0.001-0.21,0.001-0.42,0.001-0.63c0-0.345-0.023-0.728,0.365-0.878&#xA;			c0.383-0.149,0.782-0.086,1.126,0.157c0.806,0.568,0.688,2.267-0.185,2.734c-0.754,0.403-1.284,0.099-1.307-0.751&#xA;			C93.26,25.413,93.265,25.203,93.266,24.993z"/>
	</g>
	<g>
		<path class="st17" d="M108.504,25c0.002-0.941,0.541-1.595,1.294-1.572c0.717,0.022,1.225,0.677,1.219,1.571&#xA;			c-0.005,0.87-0.614,1.549-1.37,1.529C108.957,26.51,108.502,25.901,108.504,25z"/>
	</g>
	<g>
		<path class="st8" d="M86.541,11.59c0-1.006-0.015-2.012,0.004-3.018c0.021-1.074,0.397-1.509,1.48-1.556&#xA;			c1.322-0.057,2.652-0.082,3.972-0.007c2.016,0.116,3.199,1.652,2.846,3.568c-0.111,0.605-0.421,1.076-0.932,1.414&#xA;			c-0.45,0.297-0.398,0.486,0.102,0.645c1.879,0.598,2.377,2.374,1.91,4.047c-0.366,1.313-1.333,2.026-2.588,2.316&#xA;			c-1.765,0.409-3.575,0.302-5.365,0.236c-0.986-0.036-1.236-0.389-1.24-1.378C86.722,15.767,86.486,13.683,86.541,11.59z"/>
	</g>
	<g>
		<path class="st18" d="M6.748,22.087c-1.604-0.889-1.84-1.912-0.77-3.338c0.234-0.071,0.409,0.06,0.579,0.183&#xA;			c1.148,0.833,2.473,1.156,3.846,1.332c0.346,0.044,0.672,0.111,0.965,0.318c1.639,1.158,3.467,1.164,5.316,0.768&#xA;			c0.668-0.143,1.26-0.141,1.93-0.006c1.81,0.366,3.623,0.46,5.26-0.667c0.299-0.206,0.638-0.244,0.985-0.238&#xA;			c1.7,0.027,3.218-0.489,4.565-1.521c0.148-0.113,0.3-0.218,0.499-0.211c0.314,0.681-0.242,1.002-0.617,1.333&#xA;			c-0.947,0.836-2.083,1.291-3.334,1.462c-1.149,0.099-2.272,0.279-3.314,0.827c-0.342,0.18-0.736,0.268-1.133,0.291&#xA;			c-1.025,0.256-2.039,0.136-3.038-0.121c-0.574-0.148-1.136-0.187-1.711-0.044c-1.455,0.267-2.9,0.291-4.325-0.169&#xA;			c-1.459-0.937-3.167-1.064-4.947-1.464c1.448,1.311,3.142,1.595,4.855,1.832c1.584,0.136,3.162,0.349,4.757,0.305&#xA;			c1.446-0.033,2.897,0.07,4.336-0.142c1.576,0,3.122-0.236,4.651-0.592c1.39-0.323,2.736-0.747,3.755-1.826&#xA;			c0.636-0.674,0.673-0.991,0.272-1.737c-0.089-0.251,0.014-0.366,0.267-0.373c0.787,0.905,0.808,1.731,0.002,2.755&#xA;			c-0.305,0.388-0.712,0.696-1.072,1.041c-0.191,0.241-0.413,0.447-0.693,0.583c-1.805,0.829-3.723,1.195-5.683,1.391&#xA;			c-3.953,0.397-7.878,0.078-11.791-0.487c-1.26-0.182-2.498-0.469-3.696-0.911C7.164,22.545,6.923,22.356,6.748,22.087z"/>
	</g>
	<g>
		<path class="st19" d="M6.438,14.131c-0.293-1.863,0.564-3.356,1.657-4.699c4.85-5.962,13.999-6.27,19.255-0.662&#xA;			c1.017,1.085,1.84,2.309,2.191,3.802c0.138,0.587,0.144,1.145-0.039,1.712c0.079,0.434-0.288,0.611-0.504,0.877&#xA;			c-1.216,0.96-2.688,1.177-4.148,1.408c-3.491,0.552-7.013,0.396-10.518,0.3c-2.067-0.057-4.159-0.298-6.127-1.078&#xA;			c-0.471-0.187-0.919-0.404-1.273-0.779C6.728,14.741,6.358,14.562,6.438,14.131z"/>
	</g>
	<g>
		<path class="st20" d="M29.008,14.913c0.165-0.21,0.33-0.42,0.495-0.629c0.935,0.597,0.975,0.783,0.439,2.068&#xA;			c0.041,0.221-0.075,0.389-0.185,0.559c-0.073,0.12-0.138,0.245-0.207,0.367c-0.099,0.17-0.224,0.316-0.383,0.433&#xA;			c-1.54,1.086-3.346,1.3-5.136,1.556c-0.284,0.041-0.572,0.057-0.851,0.135c-4.945,0.471-9.848,0.3-14.678-0.966&#xA;			c-0.612-0.161-1.22-0.334-1.796-0.602c-0.202-0.109-0.367-0.26-0.495-0.452c-0.121-0.231-0.215-0.468-0.123-0.735&#xA;			c-0.093-0.275-0.172-0.557-0.283-0.824c-0.319-0.767-0.143-1.339,0.634-1.692c0.163,0.21,0.325,0.42,0.488,0.63&#xA;			c-0.022,0.037-0.044,0.075-0.066,0.113C6.433,15.38,6.722,16.58,7.39,17.041c0.286,0.197,0.611,0.311,0.945,0.4&#xA;			c2.206,0.582,4.46,0.818,6.73,0.929c0.79,0.039,1.593,0.133,2.366,0.105c2.002-0.071,4.009-0.028,6.008-0.184&#xA;			c1.315-0.103,2.619-0.261,3.901-0.609c1.07-0.29,1.62-1.004,1.95-1.991c0.105-0.313,0.033-0.501-0.22-0.663&#xA;			C29.049,14.989,29.028,14.951,29.008,14.913z"/>
	</g>
	<g>
		<path class="st19" d="M6.748,22.087c0.224,0.109,0.447,0.218,0.671,0.327c0.113,0.238,0.308,0.436,0.363,0.701&#xA;			c0.237,1.133,1.04,1.724,2.026,2.158c1.815,0.8,3.744,1.157,5.693,1.326c2.743,0.238,5.483,0.149,8.19-0.447&#xA;			c2.237-0.493,4.332-1.161,4.997-3.744c0.224-0.085,0.361-0.341,0.637-0.323c-0.112,2.067-1.128,3.425-3.093,4.146&#xA;			c-1.877,0.688-3.812,1.094-5.787,1.211c-3.415,0.201-6.796,0.005-10.094-1.08C8.226,25.661,6.904,24.392,6.748,22.087z"/>
	</g>
	<g>
		<path class="st21" d="M29.656,16.839c0.095-0.162,0.191-0.325,0.286-0.487c0.82,0.489,0.709,1.196,0.453,1.937&#xA;			c-0.084,0.098-0.168,0.197-0.252,0.295c-0.018,0.097-0.076,0.16-0.17,0.191c-1.554,1.317-3.341,1.971-5.385,1.898&#xA;			c-0.215-0.008-0.403,0.03-0.593,0.161c-1.778,1.233-3.723,1.147-5.692,0.649c-0.456-0.115-0.84-0.107-1.292,0.005&#xA;			c-2.06,0.512-4.076,0.571-5.87-0.832c-0.416-0.325-0.919-0.189-1.371-0.261c-1.417-0.227-2.692-0.719-3.793-1.644&#xA;			c-0.671-1.195-0.652-1.546,0.11-2.102c0.071,0.203,0.141,0.407,0.212,0.61c-0.013,0.08-0.031,0.158-0.053,0.236&#xA;			c-0.003,0.539,0.33,0.858,0.731,1.142c1.048,0.743,2.251,1.03,3.498,1.149c0.544,0.052,0.999,0.196,1.455,0.523&#xA;			c1.482,1.067,3.159,0.928,4.8,0.546c0.676-0.157,1.255-0.164,1.922,0c1.68,0.413,3.354,0.45,4.881-0.564&#xA;			c0.423-0.281,0.88-0.333,1.363-0.323c1.483,0.032,2.803-0.468,4.015-1.276C29.726,18.148,29.886,17.705,29.656,16.839z"/>
	</g>
	<g>
		<path class="st15" d="M114.23,10.998c-0.006,0.875-0.553,1.378-1.482,1.363c-0.663-0.011-1.014-0.503-1.012-1.418&#xA;			c0.002-0.844,0.341-1.238,1.076-1.247C113.74,9.685,114.236,10.14,114.23,10.998z"/>
	</g>
	<g>
		<path class="st22" d="M141.459,10.966c-0.009-0.847,0.326-1.249,1.054-1.268c0.925-0.024,1.437,0.43,1.443,1.28&#xA;			c0.006,0.868-0.533,1.378-1.464,1.383C141.821,12.364,141.469,11.889,141.459,10.966z"/>
	</g>
	<g>
		<path class="st22" d="M91.009,16.874c-1.13-0.013-1.349-0.26-1.346-1.514c0.003-1.005,0.278-1.26,1.35-1.257&#xA;			c1.229,0.004,1.9,0.43,1.962,1.244C93.054,16.395,92.416,16.89,91.009,16.874z"/>
		<path class="st2" d="M91.074,17.034c-0.022,0-0.045,0-0.067,0l0,0c-1.226-0.014-1.507-0.327-1.503-1.673&#xA;			c0.002-0.584,0.096-0.909,0.325-1.122c0.226-0.21,0.571-0.294,1.185-0.293c1.666,0.006,2.072,0.76,2.12,1.392&#xA;			c0.037,0.493-0.077,0.885-0.34,1.166C92.458,16.859,91.895,17.034,91.074,17.034z M91.011,16.715&#xA;			c0.752,0.009,1.275-0.136,1.55-0.431c0.202-0.216,0.286-0.518,0.255-0.924c-0.055-0.724-0.662-1.093-1.804-1.097&#xA;			c-0.521-0.002-0.808,0.06-0.967,0.208c-0.155,0.144-0.222,0.411-0.223,0.891C89.819,16.526,89.974,16.703,91.011,16.715&#xA;			L91.011,16.715z"/>
	</g>
	<g>
		<path class="st23" d="M90.672,11.65c-0.98-0.005-1.288-0.311-1.277-1.266c0.01-0.827,0.271-1.058,1.192-1.056&#xA;			c0.929,0.002,1.503,0.424,1.526,1.121C92.135,11.169,91.552,11.654,90.672,11.65z"/>
		<path class="st2" d="M90.684,11.809c-0.005,0-0.009,0-0.014,0c-0.559-0.003-0.907-0.105-1.129-0.33&#xA;			c-0.218-0.222-0.312-0.56-0.306-1.096c0.011-0.917,0.336-1.213,1.338-1.213c0.004,0,0.009,0,0.013,0&#xA;			c1.013,0.003,1.659,0.491,1.684,1.275c0.011,0.354-0.106,0.668-0.341,0.909C91.644,11.647,91.202,11.809,90.684,11.809z&#xA;			 M90.571,9.487c-0.818,0-1.008,0.17-1.017,0.899c-0.005,0.445,0.061,0.713,0.215,0.869c0.158,0.16,0.436,0.233,0.904,0.235h0&#xA;			c0.004,0,0.008,0,0.012,0c0.431,0,0.792-0.127,1.018-0.359c0.173-0.177,0.26-0.411,0.251-0.677&#xA;			c-0.02-0.604-0.531-0.965-1.367-0.967C90.581,9.487,90.576,9.487,90.571,9.487z"/>
	</g>
	<g>
		<path class="st24" d="M28.688,22.407c-0.104,1.563-0.935,2.561-2.363,3.155c-1.775,0.739-3.637,1.115-5.53,1.26&#xA;			c-3.166,0.244-6.32,0.136-9.403-0.757c-0.661-0.191-1.294-0.447-1.93-0.708c-1.335-0.546-1.894-1.596-2.044-2.945&#xA;			c2.055,0.73,4.194,1.039,6.35,1.261c2.396,0.247,4.799,0.417,7.206,0.297C23.618,23.839,26.241,23.539,28.688,22.407z"/>
	</g>
	<g>
		<path class="st25" d="M12.167,22.876c-1.504-0.261-2.993-0.561-4.3-1.425c-0.353-0.234-0.552-0.533-0.65-1.067&#xA;			c1.682,0.85,3.659,0.437,5.109,1.7C12.389,22.371,12.381,22.644,12.167,22.876z"/>
	</g>
	<g>
		<path class="st26" d="M26.314,22.398c-1.564,0.4-3.148,0.655-4.769,0.638c-0.168-0.21-0.169-0.42,0.001-0.63&#xA;			c0.509-0.024,1.016-0.173,1.421-0.426c0.946-0.591,2.005-0.53,3.029-0.685C26.065,21.674,26.36,21.987,26.314,22.398z"/>
	</g>
	<g>
		<path class="st27" d="M26.314,22.398c-0.168-0.35-0.632-0.615-0.318-1.104c1.638-0.349,3.191-0.831,3.978-2.521&#xA;			c0.056-0.063,0.113-0.127,0.169-0.19c0.788,0.295,0.536,0.878,0.293,1.344c-0.524,1.006-1.475,1.536-2.48,1.95&#xA;			C27.428,22.096,26.863,22.228,26.314,22.398z"/>
	</g>
	<g>
		<path class="st28" d="M21.547,22.406c0,0.21,0,0.42-0.001,0.63c-1.477,0.265-2.967,0.129-4.452,0.156&#xA;			c-0.351-0.234-0.528-0.526-0.317-0.948c0.708-0.307,1.373-0.036,2.061,0.119C19.73,22.563,20.64,22.637,21.547,22.406z"/>
	</g>
	<g>
		<path class="st29" d="M16.777,22.245c0.106,0.316,0.211,0.632,0.317,0.948c-1.653,0.062-3.287-0.182-4.927-0.317&#xA;			c0.037-0.267-0.106-0.57,0.159-0.792C13.798,22.434,15.281,22.523,16.777,22.245z"/>
	</g>
	<g>
		<path class="st24" d="M25.371,7.914c1.783,1.262,3.089,2.878,3.613,5.031c0.215,0.882-0.12,1.438-1.048,1.898&#xA;			c-1.399,0.693-2.928,0.876-4.451,1.037c-2.745,0.289-5.501,0.192-8.252,0.16c-2.011-0.023-4.002-0.264-5.951-0.788&#xA;			c-0.127-0.034-0.252-0.077-0.378-0.118c-1.962-0.643-2.38-1.545-1.481-3.41c1.54-3.196,4.189-5.061,7.538-5.937&#xA;			c3.177-0.831,6.239-0.38,9.122,1.207c0.135,0.074,0.244,0.196,0.366,0.296c-0.047,0.065-0.11,0.108-0.185,0.134&#xA;			c-0.457,0.057-0.791-0.268-1.193-0.382c-0.215-0.073-0.424-0.162-0.634-0.246c-0.448-0.205-0.944-0.258-1.396-0.451&#xA;			c-0.246-0.116-0.514-0.098-0.775-0.124c-0.232-0.018-0.449-0.118-0.684-0.123c-0.195-0.01-0.391-0.01-0.586-0.009&#xA;			c-0.391,0.011-0.786-0.044-1.172,0.067c-0.076,0.023-0.154,0.038-0.232,0.05c-0.157,0.022-0.314,0.028-0.472,0.024&#xA;			c-0.115-0.001-0.23-0.014-0.343-0.035c-0.212-0.047-0.421-0.115-0.642-0.115c-0.274-0.008-0.548-0.028-0.815,0.057&#xA;			c-0.06,0.027-0.121,0.054-0.179,0.086c-0.214,0.106-0.151,0.36-0.273,0.514c-0.221,0.184-0.46,0.321-0.76,0.313&#xA;			c-0.156-0.055-0.289-0.173-0.467-0.174c-0.25-0.016-0.498-0.021-0.737,0.065c-0.184,0.072-0.331,0.195-0.456,0.344&#xA;			c-0.178,0.299,0.221,0.341,0.245,0.55c-0.039,0.411-0.412,0.542-0.653,0.784c-0.909,0.82-1.676,1.753-2.196,2.865&#xA;			c-0.649,1.389-0.36,2.14,1.09,2.615c2.022,0.662,4.12,0.832,6.24,0.77c0.969-0.092,1.937,0.194,2.906,0.009&#xA;			c1.96,0.044,3.906-0.08,5.826-0.495c0.775-0.167,1.546-0.366,2.099-1.004c0.191-0.351,0.204-0.717,0.095-1.094&#xA;			c-0.07-0.318-0.134-0.639-0.294-0.929c-0.125-0.295-0.286-0.569-0.476-0.827c-0.281-0.401-0.548-0.812-0.905-1.152&#xA;			c-0.137-0.104-0.303-0.141-0.464-0.19c-0.065-0.025-0.124-0.061-0.177-0.106c-0.123-0.166-0.216-0.351-0.347-0.512&#xA;			c-0.061-0.086-0.112-0.176-0.152-0.274c-0.021-0.068-0.029-0.137-0.025-0.208C25.277,8.016,25.314,7.958,25.371,7.914z"/>
	</g>
	<g>
		<path class="st30" d="M6.926,14.761c1.331,1.145,2.993,1.344,4.629,1.6c3.409,0.535,6.847,0.355,10.27,0.283&#xA;			c1.877-0.04,3.778-0.24,5.585-0.884c0.577-0.205,1.12-0.462,1.599-0.847c0,0,0.011,0.024,0.011,0.024&#xA;			c0.34,0.586,0.272,0.849-0.381,1.132c-0.803,0.349-1.662,0.521-2.519,0.678c-2.315,0.424-4.649,0.599-7.004,0.669&#xA;			c-3.018,0.09-6.001-0.09-8.958-0.672c-1.009-0.199-2.028-0.402-2.954-0.88c-0.6-0.309-0.649-0.557-0.291-1.078L6.926,14.761z"/>
	</g>
	<g>
		<path class="st31" d="M24.227,7.318c0.073-0.009,0.146-0.019,0.22-0.029c0.377,0.106,0.692,0.303,0.923,0.624&#xA;			c-0.005,0.067-0.01,0.134-0.015,0.201C24.791,8.116,24.378,7.904,24.227,7.318z"/>
	</g>
	<g>
		<path class="st32" d="M6.911,14.787c-0.312,0.491-0.026,0.719,0.39,0.896c1.468,0.627,3.031,0.873,4.586,1.16&#xA;			c1.847,0.341,3.726,0.318,5.588,0.431c1.488,0.09,2.995-0.149,4.494-0.228c1.66-0.088,3.299-0.33,4.92-0.688&#xA;			c0.564-0.125,1.116-0.309,1.669-0.48c0.476-0.147,0.714-0.428,0.462-0.94c0.536-0.013,0.695,0.183,0.528,0.735&#xA;			c-0.367,1.217-1.09,1.991-2.362,2.281c-1.699,0.388-3.416,0.596-5.154,0.631c-1.317,0.027-2.644,0.156-3.945,0.105&#xA;			c-1.598-0.063-3.205-0.051-4.806-0.229c-1.727-0.192-3.443-0.399-5.126-0.832c-1.144-0.295-1.84-1.178-1.858-2.33&#xA;			C6.289,14.875,6.531,14.747,6.911,14.787z"/>
	</g>
	<g>
		<path class="st33" d="M6.626,17.608c4.927,1.67,9.995,2.041,15.147,1.653c0.5-0.038,1.003-0.029,1.505-0.043&#xA;			c0.228-0.105,0.44-0.132,0.589,0.128c0.106,0.591-0.299,0.878-0.716,1.113c-1.447,0.816-2.988,0.862-4.533,0.381&#xA;			c-0.638-0.199-1.181-0.24-1.828-0.01c-1.313,0.466-2.662,0.37-3.979-0.051c-0.773-0.247-1.166-0.64-1.341-1.233&#xA;			c-0.68,0.279-1.354,0.355-2.022-0.034C9.42,19.42,9.45,19.351,9.536,19.306c0.102-0.037,0.206-0.038,0.18-0.045&#xA;			c-0.791-0.095-1.657-0.387-2.467-0.845c-0.296-0.167-0.634-0.3-0.687-0.706C6.584,17.676,6.605,17.642,6.626,17.608z"/>
	</g>
	<g>
		<path class="st34" d="M9.433,19.4c0.637,0.197,1.308,0.005,1.907,0.089c0.508,0.072,0.832,0.868,1.47,1.073&#xA;			c1.424,0.458,2.842,0.529,4.247-0.036c0.442-0.178,0.812-0.177,1.272,0.004c1.511,0.595,3.039,0.562,4.522-0.127&#xA;			c0.425-0.198,0.859-0.434,0.937-0.985c0.867,0.332,1.734,0.255,2.601,0.002c0.321-0.086,0.645-0.165,0.941-0.326&#xA;			c0.683-0.321,1.304-0.733,1.841-1.265c0.215-0.181,0.36-0.394,0.323-0.693c0.054-0.099,0.108-0.199,0.161-0.298&#xA;			c0.549,0.578,0.559,0.934-0.092,1.586c-0.862,0.862-1.967,1.294-3.129,1.591c-0.127,0.032-0.259,0.061-0.389,0.062&#xA;			c-1.247,0.011-2.361,0.414-3.509,0.906c-1.297,0.556-2.735,0.487-4.102,0.025c-0.52-0.176-0.974-0.118-1.518,0.01&#xA;			c-1.903,0.448-3.799,0.619-5.466-0.807c-0.522-0.446-1.269-0.171-1.908-0.328c-1.011-0.249-2.003-0.522-2.818-1.176&#xA;			c-0.401-0.322-1.013-0.666-0.561-1.38c0.169,0.181,0.266,0.411,0.411,0.609c0.586,0.623,1.353,0.914,2.141,1.165&#xA;			C8.954,19.205,9.257,19.153,9.433,19.4z"/>
	</g>
	<g>
		<path class="st35" d="M26.483,19.548c-0.638,0.302-1.322,0.288-2.006,0.319c-0.377,0.017-0.464-0.295-0.688-0.448&#xA;			c-0.111-0.218-0.319-0.188-0.51-0.2c1.076-0.202,2.154-0.398,3.229-0.607c0.964-0.188,1.857-0.558,2.676-1.102&#xA;			c0.053,0.068,0.072,0.143,0.055,0.228c-1.088,1.368-2.613,1.676-4.241,1.731c0.35,0.024,0.683-0.098,1.03-0.081&#xA;			C26.197,19.392,26.366,19.394,26.483,19.548z"/>
	</g>
	<g>
		<path class="st36" d="M29.184,17.64c-0.001-0.044-0.001-0.087-0.001-0.131c0.104-0.124,0.207-0.248,0.311-0.372&#xA;			c0.243,0.324,0.091,0.569-0.161,0.793C29.208,17.872,29.266,17.72,29.184,17.64z"/>
	</g>
	<g>
		<path class="st37" d="M6.407,18.005c-0.186-0.189-0.245-0.422-0.243-0.678c0.051-0.011,0.096-0.034,0.135-0.069&#xA;			c0.109,0.116,0.218,0.233,0.327,0.35c0,0-0.038,0.046-0.038,0.046C6.529,17.771,6.583,17.947,6.407,18.005z"/>
	</g>
	<g>
		<path class="st38" d="M22.342,24.477c1.379-0.18,2.76-0.344,4.116-0.662c0.144-0.034,0.319-0.181,0.432-0.014&#xA;			c0.126,0.186-0.034,0.341-0.152,0.485c-0.812,0.988-1.995,1.078-3.127,1.293c-0.346-0.099-0.672-0.246-0.968-0.447&#xA;			C22.424,24.983,22.126,24.84,22.342,24.477z"/>
	</g>
	<g>
		<path class="st39" d="M15.825,24.624c1.111,0.003,2.222,0.007,3.333,0.01c-0.13,0.583-0.695,0.179-1.015,0.47&#xA;			c0.086,0.402,0.319,0.667,0.764,0.741c0.205,0.034,0.429,0.024,0.578,0.213c-1.115,0.249-2.231,0.246-3.346,0.002&#xA;			c-0.331-0.286-0.499-0.661-0.557-1.082C15.559,24.816,15.519,24.587,15.825,24.624z"/>
	</g>
	<g>
		<path class="st40" d="M14.074,25.893c-1.059-0.181-2.157-0.266-2.897-1.215c-0.144-0.185-0.341-0.336-0.308-0.715&#xA;			c1.022,0.169,2.034,0.336,3.047,0.503C14.041,24.933,14.362,25.379,14.074,25.893z"/>
	</g>
	<g>
		<path class="st41" d="M19.485,26.059c-0.597,0.015-1.211,0.096-1.504-0.638c-0.161-0.403-0.261-0.692,0.367-0.645&#xA;			c0.269,0.02,0.578,0.109,0.811-0.142c0.267,0,0.534,0.001,0.802,0.001c0.531,0.361,0.978,0.817,1.432,1.265&#xA;			C20.778,26.214,20.119,25.987,19.485,26.059z"/>
	</g>
	<g>
		<path class="st42" d="M21.392,25.9c-0.667-0.208-1.099-0.68-1.432-1.265c0.794-0.053,1.588-0.105,2.383-0.158&#xA;			c0.005,0.4,0.348,0.464,0.606,0.613c0.24,0.138,0.54,0.194,0.664,0.49C22.89,25.807,22.15,25.917,21.392,25.9z"/>
	</g>
	<g>
		<path class="st43" d="M14.074,25.893c0.06-0.488-0.42-0.917-0.158-1.427c0.634,0.077,1.294-0.16,1.908,0.158&#xA;			c-0.28,0.563,0.314,0.935,0.314,1.436C15.445,26.077,14.753,26.061,14.074,25.893z"/>
	</g>
	<g>
		<path class="st44" d="M30.162,19.298c-0.075,0.979-1.404,1.946-2.781,1.954C28.612,20.813,29.428,20.12,30.162,19.298z"/>
	</g>
	<g>
		<path class="st45" d="M17.094,15.094c-2.109,0.026-4.199-0.125-6.218-0.784c-1.621-0.529-1.971-1.358-1.243-2.886&#xA;			c0.561-1.177,1.333-2.198,2.373-3.003c0.049,0.054,0.078,0.116,0.085,0.189c-0.033,0.29-0.239,0.483-0.391,0.702&#xA;			c0.152,0.325,0.533-0.036,0.7,0.234c0.182,0.492,0.686,0.883,0.477,1.5c0.09-0.026,0.134-0.171,0.262-0.102&#xA;			c0.2,0.223,0.12,0.496,0.13,0.75c0.022,0.565,0.214,1.072,0.515,1.541c0.561,0.876,1.368,0.923,2.264,0.662&#xA;			C16.258,14.416,17.023,14.453,17.094,15.094z"/>
	</g>
	<g>
		<path class="st46" d="M28.229,13.347c-0.196,0.607-0.738,0.79-1.252,0.958c-2.231,0.727-4.54,0.828-6.862,0.79&#xA;			c-0.992-0.3-2.02-0.492-2.939-1.005c-0.318-0.177-0.671-0.317-0.733-0.744c-0.016-0.255-0.02-0.506,0.229-0.671&#xA;			c0.493,0.03,0.844,0.388,1.276,0.561c0.606,0.242,1.191,0.551,1.874,0.501c0.533,0.269,1.113,0.31,1.694,0.344&#xA;			c1.633,0.348,3.203-0.004,4.762-0.432c0.382-0.105,0.754-0.249,1.132-0.37C27.689,13.191,27.974,13.103,28.229,13.347z"/>
	</g>
	<g>
		<path class="st47" d="M17.568,6.05c0.056-0.008,0.112-0.016,0.167-0.023c0.324-0.094,0.643-0.137,0.941,0.077&#xA;			c0.052,0.063,0.077,0.137,0.075,0.219c-0.073,0.289-0.305,0.489-0.429,0.752c-0.485,1.026-0.354,1.938,0.406,2.78&#xA;			c0.354,0.393,0.774,0.717,1.133,1.106c0.106,0.403-0.1,0.702-0.333,0.992c-0.068,0.048-0.144,0.078-0.226,0.093&#xA;			c-1.367-0.101-3.123-2.153-2.944-3.387c0.107-0.236,0.358-0.26,0.551-0.368c0.198-0.11,0.349-0.229,0.148-0.464&#xA;			C16.758,7.218,16.933,6.615,17.568,6.05z"/>
	</g>
	<g>
		<path class="st48" d="M24.227,7.318c0.307,0.363,0.735,0.556,1.129,0.797c0.003,0.05,0.008,0.099,0.015,0.148&#xA;			c-0.226,0.166-0.405,0.374-0.542,0.62c-0.85,0.735-1.816,0.87-2.864,0.543c-0.334-0.104-0.609-0.3-0.765-0.628&#xA;			c-0.185-0.291,0.369-0.515,0.072-0.817c-0.345-0.48-0.203-0.928,0.342-1.093c0.235-0.071,0.462,0.001,0.691,0.038&#xA;			c0.272-0.021,0.563,0.151,0.816-0.077C23.49,7.005,23.859,7.162,24.227,7.318z"/>
	</g>
	<g>
		<path class="st49" d="M26.475,9.218c0.444,0.325,0.749,0.756,0.961,1.257c0.064,0.476-0.322,0.634-0.619,0.818&#xA;			c-1.246,0.769-2.62,1.063-4.073,1.032c-0.287-0.138-0.332-0.447-0.483-0.683c-0.04-0.116-0.049-0.235-0.031-0.356&#xA;			c0.042-0.194,0.085-0.389,0.176-0.569c0.214-0.289,0.545-0.307,0.856-0.371c0.404-0.026,0.731,0.218,1.102,0.308&#xA;			c0.368,0.096,0.752,0.27,0.997-0.213c0.197-0.379,0.641-0.534,0.829-0.921C26.266,9.402,26.341,9.282,26.475,9.218z"/>
	</g>
	<g>
		<path class="st50" d="M22.378,11.598c0.255,0.14,0.298,0.374,0.282,0.635c0.142,0.576,0.548,0.615,1.045,0.551&#xA;			c1.514-0.196,2.94-0.623,4.203-1.509c0.294,0.254,0.33,0.595,0.322,0.951c0.054,0.253-0.095,0.415-0.284,0.515&#xA;			c-1.892,0.99-3.87,1.547-6.029,1.172c-0.085-0.067-0.171-0.168-0.129-0.261C22.083,12.995,22.114,12.263,22.378,11.598z"/>
	</g>
	<g>
		<path class="st51" d="M27.907,11.275c-0.134,0.461-0.557,0.592-0.919,0.779c-1.181,0.61-2.457,0.872-3.769,0.969&#xA;			c-0.579,0.043-0.889-0.161-0.56-0.79c1.009-0.234,2.072-0.176,3.047-0.613c0.645-0.289,1.3-0.54,1.73-1.145&#xA;			C27.733,10.66,27.85,10.95,27.907,11.275z"/>
	</g>
	<g>
		<path class="st52" d="M21.809,13.803c2.033,0.136,3.976-0.203,5.809-1.109c0.231-0.114,0.501-0.191,0.611-0.468&#xA;			c0.237,0.374,0.245,0.748,0,1.121c-1.104,0.092-2.063,0.72-3.154,0.857c-1.034,0.13-2.065,0.303-3.114,0.256&#xA;			c-0.257-0.011-0.462-0.077-0.575-0.325C21.357,13.808,21.576,13.797,21.809,13.803z"/>
	</g>
	<g>
		<path class="st52" d="M14.075,6.995c0.264-0.108,0.529-0.216,0.793-0.324c0.354-0.294,0.747-0.234,1.144-0.127&#xA;			c0.293,0.524-0.303,0.795-0.349,1.223c-0.089,0.115-0.204,0.202-0.325,0.279c-0.215,0.112-0.184,0.326-0.209,0.517&#xA;			c-0.055,0.232-0.106,0.465-0.331,0.604c-0.42,0.109-0.836,0.332-1.268,0.038c-0.262-0.577-0.177-1.171-0.088-1.765&#xA;			C13.557,7.158,13.752,6.986,14.075,6.995z"/>
	</g>
	<g>
		<path class="st53" d="M22.446,7.089c-0.215,0.081-0.405-0.054-0.607-0.069c-0.335-0.025-0.534,0.228-0.664,0.468&#xA;			c-0.199,0.368,0.318,0.234,0.372,0.447c-0.171,0.423-0.452,0.696-0.939,0.686c-0.055-0.05-0.09-0.112-0.105-0.184&#xA;			c-0.01-0.255-0.146-0.284-0.358-0.206c-0.188,0.069-0.376,0.163-0.589,0.093c-0.367-0.365-0.101-0.729,0.023-1.075&#xA;			c0.096-0.267,0.265-0.507,0.415-0.751c0.115-0.179,0.279-0.294,0.476-0.366c0.199-0.001,0.404-0.061,0.593,0.054&#xA;			c0.473,0.181,1.01,0.169,1.439,0.481C22.522,6.812,22.525,6.956,22.446,7.089z"/>
	</g>
	<g>
		<path class="st54" d="M16.585,13.283c0.304,0.697,1.039,0.725,1.595,1.033c0.614,0.34,1.431,0.172,1.935,0.779&#xA;			c-1.007,0.233-2.014-0.112-3.021-0.001c-0.121-0.294-0.418-0.351-0.657-0.487c-0.264-0.149-0.464-0.324-0.311-0.665&#xA;			C16.086,13.588,16.22,13.355,16.585,13.283z"/>
	</g>
	<g>
		<path class="st55" d="M13.598,7.316c0.002,0.638,0.003,1.276,0.005,1.914c0.078,0.251-0.121,0.392-0.223,0.572&#xA;			c-0.23,0.296-0.234,0.636-0.19,0.986c-0.006,0.075-0.042,0.132-0.103,0.175c-0.064,0.106-0.129,0.212-0.333,0.549&#xA;			c0.241-0.907-0.47-1.321-0.429-1.979c-0.088-0.12-0.296-0.03-0.355-0.202c0.097-0.358,0.496-0.323,0.754-0.604&#xA;			c-0.27-0.018-0.537,0.065-0.715-0.142c-0.001-0.055-0.001-0.11-0.002-0.164c0.19-0.235,0.524-0.324,0.64-0.634&#xA;			C12.908,7.516,13.169,7.247,13.598,7.316z"/>
	</g>
	<g>
		<path class="st56" d="M15.506,7.759c0.211-0.362,0.079-0.924,0.635-1.085c0.047-0.096,0.127-0.161,0.216-0.216&#xA;			c0.06-0.037,0.123-0.069,0.187-0.098c0.195-0.091,0.38-0.198,0.557-0.32c0.156,0.003,0.311,0.006,0.467,0.01&#xA;			c-0.166,0.384-0.301,0.786-0.507,1.148c-0.176,0.309,0.06,0.417,0.193,0.59c0.118,0.148,0.094,0.267-0.071,0.358&#xA;			c-0.214-0.021-0.378-0.185-0.591-0.21c-0.328-0.156-0.684-0.007-1.018-0.095C15.551,7.814,15.528,7.787,15.506,7.759z"/>
	</g>
	<g>
		<path class="st31" d="M13.598,7.316c-0.315,0.162-0.566,0.451-0.951,0.471c-0.253-0.139-0.951-0.046-0.334-0.64&#xA;			c0.329,0.207,0.606-0.029,0.901-0.108c0.193-0.099,0.388-0.194,0.532-0.363c0.213-0.001,0.321,0.107,0.329,0.318&#xA;			C13.916,7.102,13.757,7.209,13.598,7.316z"/>
	</g>
	<g>
		<path class="st57" d="M10.243,9.485c-0.115,0.338-0.372,0.595-0.695,0.774c-0.159,0.088-0.259-0.062-0.22-0.2&#xA;			c0.105-0.375,0.388-0.613,0.724-0.777C10.157,9.23,10.237,9.328,10.243,9.485z"/>
	</g>
	<g>
		<path class="st58" d="M13.287,7.167c-0.326,0.071-0.662,0.582-0.975-0.02c0.156-0.112,0.211-0.372,0.476-0.325&#xA;			c0.217-0.088,0.454-0.15,0.631,0.035C13.518,6.96,13.382,7.082,13.287,7.167z"/>
	</g>
	<g>
		<path class="st59" d="M15.154,6.027c0.296-0.243,0.643-0.098,0.967-0.129c0.285,0.479,0.183,0.579-0.604,0.593&#xA;			C15.288,6.42,15.114,6.307,15.154,6.027z"/>
	</g>
	<g>
		<path class="st56" d="M15.503,6.365c0.214-0.146,0.87,0.293,0.618-0.467c0.242-0.064,0.447,0.043,0.655,0.14&#xA;			c0.235,0.383-0.172,0.342-0.315,0.475l-0.006,0.004c-0.289,0.146-0.594,0.054-0.893,0.061C15.472,6.526,15.453,6.456,15.503,6.365&#xA;			z"/>
	</g>
	<g>
		<path class="st60" d="M18.714,6.335c-0.002-0.041-0.009-0.081-0.021-0.119c-0.11-0.223,0.062-0.224,0.198-0.252&#xA;			c0.249,0.034,0.509,0.186,0.737-0.059c0.209,0.047,0.417,0.094,0.626,0.141c0.076,0.07,0.079,0.142,0.009,0.218&#xA;			c-0.395,0.393-0.87,0.322-1.349,0.235C18.83,6.465,18.763,6.41,18.714,6.335z"/>
	</g>
	<g>
		<path class="st31" d="M15.505,6.518c0.317-0.001,0.634-0.001,0.951-0.002c-0.067,0.127-0.188,0.149-0.314,0.158&#xA;			c-0.424-0.001-0.849-0.002-1.273-0.003c-0.162-0.261-0.175-0.487,0.147-0.637C15.145,6.229,15.306,6.393,15.505,6.518z"/>
	</g>
	<g>
		<path class="st61" d="M22.446,7.089c-0.105-0.157-0.132-0.304,0.056-0.423c0.206,0.061,0.413,0.122,0.619,0.183&#xA;			C23.039,7.331,22.697,7.082,22.446,7.089z"/>
	</g>
	<g>
		<path class="st62" d="M13.287,7.167c0.16-0.586-0.325-0.241-0.499-0.345c0.288-0.253,0.636-0.115,0.957-0.146&#xA;			C13.763,6.999,13.572,7.127,13.287,7.167z"/>
	</g>
	<g>
		<path class="st63" d="M25.857,9.058c0.051-0.012,0.102-0.016,0.154-0.012c0.106,0.146,0.133,0.298,0.039,0.461&#xA;			c-0.4,0.169-0.613-0.04-0.764-0.376C25.282,9,25.329,8.9,25.457,8.85C25.634,8.835,25.739,8.959,25.857,9.058z"/>
	</g>
	<g>
		<path class="st64" d="M19.629,5.904c-0.125,0.585-0.397,0.291-0.651,0.108c-0.037-0.068-0.015-0.107,0.058-0.121&#xA;			C19.234,5.896,19.431,5.9,19.629,5.904z"/>
	</g>
	<g>
		<path class="st31" d="M19.036,5.891c-0.016,0.042-0.036,0.082-0.058,0.121c-0.133,0.013-0.238,0.068-0.285,0.202&#xA;			c-0.286-0.232-0.629-0.171-0.958-0.188C18.143,5.731,18.603,5.937,19.036,5.891z"/>
	</g>
	<g>
		<path class="st65" d="M24.885,8.738c-0.325-0.656,0.221-0.422,0.486-0.475c0.049,0.054,0.098,0.108,0.146,0.162&#xA;			c-0.038,0.045-0.079,0.087-0.122,0.127c-0.095,0.073-0.137,0.199-0.25,0.256C25.046,8.832,24.957,8.816,24.885,8.738z"/>
	</g>
	<g>
		<path class="st66" d="M26.001,9.529c0.003-0.161,0.007-0.322,0.011-0.483c0.171,0.012,0.358-0.018,0.464,0.172&#xA;			c-0.002,0.133-0.034,0.252-0.162,0.322C26.206,9.629,26.102,9.617,26.001,9.529z"/>
	</g>
	<g>
		<path class="st67" d="M25.369,8.432c0.05-0.005,0.099-0.007,0.149-0.007c0.189,0.17,0.436,0.31,0.339,0.633&#xA;			c-0.134-0.003-0.271,0.003-0.361-0.126C25.353,8.791,25.19,8.655,25.369,8.432z"/>
	</g>
	<g>
		<path class="st31" d="M16.461,6.512c0.106-0.157,0.353-0.222,0.315-0.475c0.108,0.001,0.216,0.002,0.324,0.003&#xA;			C16.975,6.315,16.835,6.572,16.461,6.512z"/>
	</g>
	<g>
		<path class="st31" d="M20.261,6.196c0.005-0.051,0.003-0.101-0.006-0.151c0.273,0.027,0.575-0.111,0.809,0.141&#xA;			c-0.209,0.005-0.418,0.01-0.627,0.015C20.376,6.268,20.318,6.263,20.261,6.196z"/>
	</g>
	<g>
		<path class="st68" d="M15.505,6.518c-0.302-0.02-0.482-0.165-0.49-0.484c0.046-0.004,0.093-0.007,0.14-0.008&#xA;			c0.058,0.173,0.2,0.259,0.349,0.338C15.504,6.416,15.504,6.467,15.505,6.518z"/>
	</g>
	<g>
		<path class="st69" d="M26.31,17.018c0.704-0.195,1.408-0.39,2.109-0.584c-0.11,0.869-0.753,1.237-2.42,1.377&#xA;			C25.698,17.387,25.883,17.155,26.31,17.018z"/>
	</g>
	<g>
		<path class="st70" d="M13.438,17.476c0.847,0.084,1.715-0.17,2.547,0.157c-0.25,0.231-0.715,0.193-0.798,0.634&#xA;			c-0.649,0.108-1.265-0.194-1.908-0.157c-0.267-0.154-0.365-0.359-0.198-0.646C13.203,17.394,13.322,17.381,13.438,17.476z"/>
	</g>
	<g>
		<path class="st71" d="M15.187,18.267c-0.405-1.054,0.502-0.46,0.797-0.634c0.37,0.002,0.74,0.004,1.11,0.005&#xA;			c0.168,0.212,0.167,0.423-0.001,0.634C16.458,18.271,15.823,18.269,15.187,18.267z"/>
	</g>
	<g>
		<path class="st72" d="M26.31,17.018c-0.28,0.195-0.359,0.469-0.311,0.792c-0.34,0.252-0.733,0.111-1.102,0.15&#xA;			c-0.644,0.162-0.742-0.098-0.489-0.63C25.043,17.226,25.676,17.122,26.31,17.018z"/>
	</g>
	<g>
		<path class="st73" d="M21.706,18.257c-0.53,0.005-1.061,0.01-1.591,0.014c-0.168-0.212-0.169-0.424,0-0.635&#xA;			c0.74-0.049,1.48-0.098,2.22-0.147C22.265,17.86,21.84,17.939,21.706,18.257z"/>
	</g>
	<g>
		<path class="st74" d="M24.409,17.33c-0.028,0.358,0.002,0.67,0.488,0.63c-0.508,0.289-1.063,0.103-1.594,0.158&#xA;			c-0.127,0.094-0.253,0.084-0.377-0.006c-0.142-0.223-0.111-0.432,0.05-0.63C23.462,17.499,23.915,17.226,24.409,17.33z"/>
	</g>
	<g>
		<path class="st75" d="M17.094,18.273c0-0.211,0.001-0.423,0.001-0.634c0.477,0.001,0.954,0.002,1.431,0.003&#xA;			c0.182,0.179,0.208,0.397,0.163,0.634C18.157,18.68,17.626,18.182,17.094,18.273z"/>
	</g>
	<g>
		<path class="st76" d="M18.689,18.275c-0.236-0.165-0.144-0.414-0.163-0.634c0.53-0.002,1.059-0.003,1.589-0.005&#xA;			c0,0.212,0,0.423,0,0.635C19.64,18.273,19.164,18.274,18.689,18.275z"/>
	</g>
	<g>
		<path class="st77" d="M12.007,17.952c-0.583-0.106-1.166-0.211-1.748-0.317c-0.201-0.518,0.012-0.623,0.476-0.476&#xA;			c0.377,0.012,0.766-0.061,1.113,0.159C12.013,17.501,12.132,17.696,12.007,17.952z"/>
	</g>
	<g>
		<path class="st78" d="M10.735,17.159c-0.352-0.034-0.513,0.123-0.476,0.476c-0.625-0.191-1.24-0.398-1.746-1.106&#xA;			C9.345,16.765,10.04,16.962,10.735,17.159z"/>
	</g>
	<g>
		<path class="st79" d="M12.007,17.952c-0.109-0.197-0.184-0.403-0.159-0.634c0.159,0,0.318,0,0.477,0.001&#xA;			c0.237,0.195,0.558-0.031,0.796,0.159c-0.026,0.23,0.049,0.436,0.158,0.632C12.855,18.058,12.431,18.005,12.007,17.952z"/>
	</g>
	<g>
		<path class="st80" d="M22.977,17.481c0.001,0.209,0.002,0.417,0.002,0.626c-0.349,0.209-0.759-0.036-1.111,0.151&#xA;			c-0.054,0-0.108,0-0.163,0c-0.148-0.549,0.318-0.596,0.63-0.768C22.549,17.487,22.763,17.484,22.977,17.481z"/>
	</g>
	<g>
		<path class="st73" d="M21.869,18.258c0.339-0.283,0.743-0.084,1.111-0.151c0.108,0.003,0.216,0.007,0.324,0.01&#xA;			C22.848,18.398,22.348,18.224,21.869,18.258z"/>
	</g>
	<g>
		<path class="st77" d="M13.121,17.478c-0.268-0.04-0.573,0.105-0.796-0.159c0.37,0.059,0.778-0.145,1.113,0.157&#xA;			C13.332,17.476,13.227,17.477,13.121,17.478z"/>
	</g>
	<g>
		<path class="st81" d="M18.589,19.883c1.592,0.159,3.129,0.381,4.659-0.362C22.646,20.89,19.892,21.075,18.589,19.883z"/>
	</g>
	<g>
		<path class="st82" d="M16.929,20.172c-1.701,0.863-3.711,0.616-4.548-0.671c1.423,0.678,2.82,0.664,4.229,0.51&#xA;			C16.785,19.93,16.945,19.876,16.929,20.172z"/>
	</g>
	<g>
		<path class="st83" d="M6.407,18.005c0.034-0.131,0.036-0.278,0.181-0.352c0.619,0.702,1.477,0.96,2.321,1.237&#xA;			c0.395,0.13,0.798,0.236,1.222,0.361c-0.158,0.211-0.344,0.081-0.498,0.112c-0.305-0.165-0.665,0.048-0.966-0.139&#xA;			C7.798,19.032,6.982,18.742,6.407,18.005z"/>
	</g>
	<g>
		<path class="st84" d="M8.667,19.225c0.325,0.027,0.671-0.096,0.966,0.139c-0.067,0.012-0.133,0.024-0.2,0.036&#xA;			C9.171,19.371,8.887,19.436,8.667,19.225z"/>
	</g>
	<g>
		<path class="st85" d="M16.929,20.172c-0.067-0.131-0.192-0.148-0.319-0.161c0.15-0.171,0.36-0.229,0.513-0.083&#xA;			C17.214,20.016,17.041,20.122,16.929,20.172z"/>
	</g>
	<g>
		<path class="st86" d="M29.184,17.64c0.12,0.061,0.145,0.171,0.149,0.291c-0.533,0.574-1.151,1.026-1.89,1.3&#xA;			c-0.468,0.165-0.963,0.203-1.445,0.304c-0.364,0-0.728,0-1.091,0C26.429,19.098,28.093,19.027,29.184,17.64z"/>
	</g>
	<g>
		<path class="st36" d="M25.998,19.535c0.459-0.208,0.942-0.303,1.445-0.304c-0.288,0.202-0.618,0.278-0.96,0.317&#xA;			C26.321,19.543,26.16,19.539,25.998,19.535z"/>
	</g>
	<g>
		<path class="st87" d="M13.087,10.963c0.006-0.055,0.011-0.111,0.017-0.166c-0.142-0.322,0.116-0.55,0.191-0.821&#xA;			c0.519-0.705,1.246-0.709,2.009-0.599c1.046,0.602,1.488,1.574,1.66,2.712c0.003,0.222-0.006,0.44-0.204,0.593&#xA;			c-0.058,0.2-0.117,0.401-0.175,0.601c-0.153,0.22-0.306,0.44-0.458,0.659c-1.372,0.688-2.645-0.011-3.002-1.647&#xA;			C13.029,11.853,13.057,11.409,13.087,10.963z"/>
	</g>
	<g>
		<path class="st88" d="M12.009,8.585c0.329,0.131,0.855-0.356,0.954,0.057c0.093,0.388-0.527,0.448-0.852,0.626&#xA;			c-0.044,0.024-0.081,0.064-0.121,0.096c-0.209,0.132-0.403,0.218-0.449-0.148C11.697,9.006,11.853,8.795,12.009,8.585z"/>
	</g>
	<g>
		<path class="st89" d="M11.541,9.216c0.102,0.195,0.288,0.134,0.449,0.148c0.132,0.016,0.263,0.034,0.335,0.169&#xA;			c-0.245,0.052-0.489,0.115-0.736,0.152c-0.12,0.018-0.28,0.012-0.307-0.146C11.252,9.359,11.4,9.281,11.541,9.216z"/>
	</g>
	<g>
		<path class="st90" d="M21.809,13.803c-0.141,0.111-0.282,0.221-0.424,0.332c-0.6,0.257-1.123,0.12-1.591-0.306&#xA;			c-0.592-0.516-0.685-1.038-0.341-1.914c0.119-0.317,0.238-0.634,0.356-0.951c0.021-0.501,0.475-0.547,0.783-0.749&#xA;			c0.152-0.053,0.309-0.074,0.469-0.076c0.161-0.001,0.319,0.02,0.472,0.071c0.472,0.208,0.805,0.518,0.778,1.084&#xA;			c0.022,0.101,0.044,0.203,0.067,0.304C22.509,12.416,22.28,13.141,21.809,13.803z"/>
	</g>
	<g>
		<path class="st91" d="M19.453,11.915c-0.031,0.664-0.049,1.325,0.341,1.914c-0.192,0.225-0.416,0.152-0.642,0.069&#xA;			c-0.846-0.31-1.747-0.512-2.392-1.217c0.008-0.202,0.016-0.405,0.024-0.607c0.272-0.21,0.497-0.022,0.717,0.099&#xA;			c0.275,0.151,0.547,0.307,0.822,0.459c0.452,0.249,0.801,0.313,0.826-0.373c0.005-0.135,0.075-0.248,0.17-0.344&#xA;			C19.364,11.915,19.408,11.915,19.453,11.915z"/>
	</g>
	<g>
		<path class="st38" d="M20.61,10.382c-0.267,0.194-0.534,0.387-0.801,0.581c-2.013-1.07-2.712-3.204-1.096-4.628&#xA;			c0.038,0.004,0.076,0.008,0.114,0.012c0.406,0.234,0.879-0.047,1.288,0.169c-0.059,0.524-0.532,0.882-0.564,1.424&#xA;			c-0.008,0.143-0.019,0.248,0.11,0.328c0.035,0.051,0.042,0.105,0.026,0.163c-0.023,0.051-0.045,0.102-0.062,0.154&#xA;			c0.112,0.221,0.412,0.118,0.537,0.314c0.09,0.275,0.206,0.533,0.39,0.763C20.728,9.881,20.79,10.126,20.61,10.382z"/>
	</g>
	<g>
		<path class="st92" d="M19.32,11.916c-0.004,1.44,0.002,1.427-1.288,0.796c-0.42-0.205-0.748-0.592-1.248-0.638&#xA;			c-0.122-1.059-0.672-1.876-1.449-2.564c-0.15-0.155-0.519-0.078-0.468-0.444c-0.021-0.233,0.049-0.444,0.161-0.644&#xA;			c0.192-0.121,0.402-0.047,0.605-0.057c0.288,0.024,0.599-0.036,0.827,0.217C16.738,10.273,17.714,11.365,19.32,11.916z"/>
	</g>
	<g>
		<path class="st93" d="M16.459,8.583c-0.318-0.002-0.636-0.004-0.954-0.006c0.153-0.564,0.688-0.249,1.004-0.438&#xA;			c0.191-0.05,0.381-0.144,0.583-0.039c0.132-0.064,0.157-0.183,0.162-0.313c0.314,0.14,0.284,0.316,0.045,0.5&#xA;			C17.053,8.476,16.78,8.6,16.459,8.583z"/>
	</g>
	<g>
		<path class="st94" d="M20.61,10.382c0.018-0.336-0.116-0.602-0.375-0.808C20,9.385,19.925,9.171,20.117,8.908&#xA;			c0.04-0.064,0.093-0.115,0.159-0.152c0.32-0.041,0.61-0.252,0.952-0.17c0.679,0.832,1.761,1.06,2.756,0.612&#xA;			c0.309-0.139,0.535-0.436,0.901-0.459c0.1-0.003,0.199-0.007,0.299-0.01c0.113,0.081,0.104,0.199,0.097,0.317&#xA;			c0.082,0.532-0.364,0.722-0.656,1.012c-0.246,0.152-0.552,0.144-0.796,0.303c-0.165,0.084-0.405-0.151-0.526,0.124&#xA;			c-0.232,0.199-0.597,0.067-0.806,0.324c-0.442-0.019-0.5-0.613-0.944-0.628c-0.175-0.012-0.353-0.037-0.487,0.119&#xA;			C20.914,10.327,20.762,10.355,20.61,10.382z"/>
	</g>
	<g>
		<path class="st95" d="M21.228,8.585c-0.319,0.102-0.638,0.204-0.957,0.307c-0.053-0.05-0.08-0.111-0.086-0.183&#xA;			c0.012-0.071,0.044-0.132,0.096-0.181c0.104-0.046,0.202-0.041,0.294,0.032c0.414-0.068,0.645-0.419,0.972-0.624&#xA;			C21.857,8.355,21.388,8.395,21.228,8.585z"/>
	</g>
	<g>
		<path class="st96" d="M24.555,10.04c0.032-0.456,0.697-0.5,0.656-1.005c0.048-0.056,0.095-0.057,0.14,0.004&#xA;			c0.117,0.296,0.406,0.363,0.65,0.49c0.104,0.003,0.209,0.007,0.313,0.01c0.005,0.542-0.625,0.554-0.794,0.95&#xA;			c-0.114,0.059-0.248-0.018-0.361,0.055c-0.135,0.006-0.255-0.042-0.371-0.103C24.644,10.345,24.509,10.244,24.555,10.04z"/>
	</g>
	<g>
		<path class="st97" d="M21.547,10.014c0.555-0.021,0.66,0.497,0.95,0.794c-0.006,0.184,0.018,0.378-0.186,0.486&#xA;			c-0.225-0.338-0.411-0.71-0.781-0.927C21.451,10.245,21.45,10.127,21.547,10.014z"/>
	</g>
	<g>
		<path class="st98" d="M23.303,10.484c-0.063-0.139-0.173-0.292,0.032-0.398c0.257-0.133,0.257,0.203,0.42,0.248&#xA;			c0.141-0.018,0.274,0.013,0.404,0.064c0.162,0.068,0.343,0.105,0.444,0.271c-0.015,0.121-0.048,0.214-0.199,0.138&#xA;			C23.988,10.867,23.692,10.515,23.303,10.484z"/>
	</g>
	<g>
		<path class="st99" d="M24.404,10.807c0.053-0.048,0.107-0.096,0.16-0.143c0.156-0.259,0.433-0.079,0.634-0.175&#xA;			c0.108-0.175,0.214-0.016,0.321,0.002C25.315,11.183,24.866,11.016,24.404,10.807z"/>
	</g>
	<g>
		<path class="st100" d="M14.866,9.067c0.156,0.148,0.312,0.296,0.468,0.444c-0.708,0.028-1.472-0.113-1.937,0.645&#xA;			c-0.324-0.082-0.198-0.28-0.12-0.466c0.108-0.153,0.217-0.307,0.325-0.46C14.025,9.185,14.427,8.981,14.866,9.067z"/>
	</g>
	<g>
		<path class="st101" d="M17.092,8.1c-0.161,0.059-0.322,0.119-0.483,0.178C16.286,8.4,15.95,8.321,15.62,8.337&#xA;			c-0.257,0.012-0.466-0.057-0.411-0.389c0.099-0.063,0.198-0.126,0.297-0.189c0,0,0.003,0.051,0.003,0.051&#xA;			c0.38,0.18,0.752,0.114,1.122-0.036C16.857,7.781,17.089,7.779,17.092,8.1z"/>
	</g>
	<g>
		<path class="st102" d="M15.209,7.948c0.353,0.592,0.936,0.208,1.4,0.33c-0.305,0.332-0.805-0.055-1.104,0.299&#xA;			c-0.159-0.052-0.319-0.103-0.478-0.155C14.93,8.204,14.778,7.964,15.209,7.948z"/>
	</g>
	<g>
		<path class="st103" d="M19.658,8.421c-0.006-0.051-0.005-0.103,0.003-0.154c0.258-0.13,0.498-0.308,0.801-0.315&#xA;			c0.147-0.003,0.357-0.05,0.362,0.171c0.002,0.094-0.157,0.192-0.243,0.289C20.275,8.526,19.968,8.697,19.658,8.421z"/>
	</g>
	<g>
		<path class="st104" d="M20.115,6.516c-0.427-0.075-0.894,0.162-1.287-0.169c0.481-0.021,0.978,0.118,1.433-0.151&#xA;			c0.058,0.001,0.117,0.003,0.176,0.004C20.33,6.305,20.223,6.411,20.115,6.516z"/>
	</g>
	<g>
		<path class="st105" d="M19.658,8.421c0.308-0.003,0.616-0.006,0.923-0.008c0.006,0.049,0.004,0.098-0.006,0.147&#xA;			c-0.098,0.01-0.196,0.021-0.294,0.032c-0.244,0.171-0.499,0.182-0.765,0.059c-0.083-0.067-0.093-0.144-0.029-0.229&#xA;			C19.544,8.42,19.601,8.421,19.658,8.421z"/>
	</g>
	<g>
		<path class="st106" d="M13.278,9.69c0.009,0.163-0.031,0.339,0.12,0.466c-0.098,0.214-0.196,0.428-0.294,0.642&#xA;			C12.813,10.373,12.983,10.022,13.278,9.69z"/>
	</g>
	<g>
		<path class="st107" d="M16.631,7.775c-0.358,0.531-0.732,0.521-1.122,0.036C15.879,7.679,16.249,7.552,16.631,7.775z"/>
	</g>
	<g>
		<path class="st108" d="M25.351,9.039c0,0-0.07,0.002-0.07,0.002s-0.07-0.006-0.07-0.006c-0.009-0.103-0.018-0.205-0.027-0.307&#xA;			c-0.075-0.184-0.108-0.342,0.184-0.296c0.043,0.167,0.085,0.333,0.128,0.5C25.448,8.968,25.399,9.004,25.351,9.039z"/>
	</g>
	<g>
		<path class="st109" d="M15.113,11.338c-0.062,0.408-0.27,0.696-0.717,0.685c-0.4-0.009-0.648-0.255-0.649-0.657&#xA;			c-0.001-0.437,0.257-0.702,0.696-0.695C14.843,10.678,15.054,10.94,15.113,11.338z"/>
	</g>
	<g>
		<path class="st110" d="M21.751,11.704c-0.046,0.356-0.229,0.561-0.57,0.552c-0.34-0.008-0.543-0.217-0.527-0.557&#xA;			c0.015-0.331,0.22-0.539,0.562-0.532C21.56,11.174,21.724,11.392,21.751,11.704z"/>
	</g>
	<g>
		<path class="st111" d="M21.547,10.014c-0.006,0.118-0.012,0.235-0.017,0.353c-0.154-0.023-0.309-0.045-0.463-0.068&#xA;			C20.962,9.758,21.391,10.115,21.547,10.014z"/>
	</g>
	<g>
		<path class="st112" d="M19.487,8.42c0,0.046,0.003,0.092,0.01,0.137c0.216,0.245,0.549-0.019,0.776,0.179&#xA;			c0,0.052,0,0.104-0.002,0.155c-0.052,0.004-0.103,0.01-0.155,0.016c-0.208-0.009-0.429,0.025-0.62-0.037&#xA;			C19.132,8.755,19.194,8.578,19.487,8.42z"/>
	</g>
	<g>
		<path class="st113" d="M24.094,10.482c-0.113-0.049-0.226-0.099-0.339-0.148c0.103-0.541,0.508-0.265,0.8-0.294&#xA;			c0.102,0.1,0.204,0.2,0.306,0.3C24.67,10.739,24.371,10.549,24.094,10.482z"/>
	</g>
	<g>
		<path class="st114" d="M20.274,8.737c-0.262-0.045-0.576,0.132-0.776-0.179c0.261,0.011,0.522,0.022,0.784,0.033&#xA;			C20.277,8.639,20.275,8.688,20.274,8.737z"/>
	</g>
	<g>
		<path class="st115" d="M24.094,10.482c0.257-0.04,0.551,0.119,0.767-0.142c0.112,0.049,0.225,0.099,0.337,0.148&#xA;			c-0.16,0.245-0.42,0.126-0.634,0.175C24.398,10.629,24.202,10.668,24.094,10.482z"/>
	</g>
	<g>
		<polygon class="st116" points="63.601,23.732 61.322,24.085 60.236,21.943 59.868,24.31 57.588,24.663 59.65,25.713 &#xA;			59.292,28.013 60.981,26.41 63.014,27.426 61.978,25.381"/>
	</g>
	<g>
		<polygon class="st116" points="123.363,23.732 125.642,24.085 126.727,21.943 127.096,24.31 129.376,24.663 127.314,25.713 &#xA;			127.672,28.013 125.983,26.41 123.95,27.426 124.986,25.381"/>
	</g>
</g>
</svg>