<?xml version="1.0" encoding="utf-8"?>
<svg xmlns="http://www.w3.org/2000/svg" xmlns:xlink="http://www.w3.org/1999/xlink" version="1.1" id="Layer_1" x="0px" y="0px" viewBox="0 0 266.8 34" style="enable-background:new 0 0 266.8 34;">
<style type="text/css">
	.st0{fill:#FFFFFF;}
</style>
<g id="XMLID_2312_">
	<path id="XMLID_2766_" class="st0" d="M226.5,0.9c0,2.5,0,5,0,7.6c5.2,0,10.4,0,15.5,0c0,8.5,0,17,0,25.5c2.8,0,5.5,0,8.2,0&#xA;		c0-8.5,0-17,0-25.5c5.2,0,10.4,0,15.5,0c0-2.5,0-5,0-7.6C252.8,0.9,239.6,0.9,226.5,0.9z"/>
	<path id="XMLID_2845_" class="st0" d="M51.6,20.2c3.8,0,7.6,0,11.5,0c-1.9-2.8-3.9-5.6-5.8-8.5C55.4,14.5,53.5,17.4,51.6,20.2z"/>
	<path id="XMLID_2850_" class="st0" d="M1,0c0,11.3,0,22.7,0,34c46.6,0,93.2,0,139.9,0c1.3-1.9,2.6-3.8,3.9-5.8c7.3,0,14.7,0,22,0&#xA;		c1.3,1.9,2.6,3.8,4,5.8c3.1,0,6.2,0,9.4,0c-7.8-11.3-15.5-22.7-23.4-34C104.8,0,52.9,0,1,0z M21.1,29.5c-3.7-0.3-7.5-1.3-10.3-3.7&#xA;		c-4.9-4.2-5-12.7-0.3-17c2.8-2.7,6.8-3.8,10.6-4.1c5.5-0.4,11.3,0.3,15.8,3.8c-1,1.2-1.9,2.4-2.8,3.6c-3.8-3.2-9-3.5-13.6-3&#xA;		c-2.6,0.3-5.3,1.3-6.8,3.6c-2.4,3.7-1.2,9.9,3.4,11.5c5,1.6,10.7,1.4,15.4-0.9c0-1.2,0-2.5,0-3.7c-3.8,0-7.6,0-11.4,0&#xA;		c0-1.5,0-3,0-4.5c5.4,0,10.8,0,16.2,0c0,3.5,0,7,0,10.4C32.8,29.1,26.7,29.9,21.1,29.5z M69.2,29.1c-1-1.5-2-3-3-4.4&#xA;		c-5.9,0-11.8,0-17.6,0c-1,1.5-2,3-3,4.5c-1.8,0-3.7,0-5.5,0C45.8,20.7,51.2,12,57.3,3.7c6.1,8.3,11.8,17,17.6,25.4&#xA;		C73,29.1,71.1,29.1,69.2,29.1z M112.1,29.1c-1.7,0-3.4,0-5.2,0c0-4.8,0-9.7,0-14.5c-3.6,3.4-7.1,7-10.9,10.2&#xA;		c-3.8-3.4-7.5-6.9-11.3-10.3c0,4.8,0,9.7,0,14.5c-1.8,0-3.5,0-5.2,0c0-8.2,0-16.5,0-24.8c1.1,0.3,2,0.8,2.8,1.6&#xA;		c4.5,4.2,9.1,8.4,13.7,12.6c4.5-4.2,8.9-8.5,13.3-12.7c0.7-0.8,1.7-1.2,2.6-1.5C112.1,12.5,112.1,20.8,112.1,29.1z M145.7,9.5&#xA;		c-6.7,0-13.4,0-20.1,0c0,1.6,0,3.2,0,4.9c5.6,0,11.3,0,16.9,0c-1,1.5-2,3-3,4.5c-4.6,0-9.3,0-13.9,0c0,1.8,0,3.7,0,5.5&#xA;		c3.4,0,6.9,0,10.3,0c-1,1.6-2,3.1-3.1,4.7c-4.2,0-8.3,0-12.5,0c0-8.1,0-16.2,0-24.2c9.5,0,18.9,0,28.4,0&#xA;		C147.8,6.4,146.8,8,145.7,9.5z M149.7,20.9c2-3,4-5.9,5.9-8.8c2,2.9,4,5.9,6,8.8C157.7,20.9,153.7,20.9,149.7,20.9z"/>
	<path id="XMLID_2864_" class="st0" d="M219,18.8c4.4-3.6,4.4-11.5-0.2-14.9c-3.5-2.6-8.1-2.9-12.4-3c-7.5,0-15,0-22.6,0&#xA;		c0,11,0,22,0,33c2.8,0,5.5,0,8.2,0c0-3.9,0-7.8,0-11.8c4,0,8,0,11.9,0c3.6,3.9,7.1,7.9,10.7,11.8c3.5,0,7,0,10.4,0&#xA;		c-3.8-4.2-7.5-8.4-11.4-12.5C215.5,20.7,217.5,20.1,219,18.8z M210.6,15L192,15V8.4l18.5,0c1.8,0,3.3,1.5,3.3,3.3&#xA;		S212.4,15,210.6,15z"/>
</g>
</svg>