<?xml version="1.0" encoding="utf-8"?>
<svg xmlns="http://www.w3.org/2000/svg" width="114" height="32" viewBox="0 0 114 32" fill="none">
<g clip-path="url(#clip0_1291_32575)">
<path d="M43.9045 12.1833C43.9249 12.2315 43.9348 12.2835 43.9335 12.3358C43.9323 12.3881 43.9199 12.4396 43.8973 12.4868C43.8746 12.5339 43.8422 12.5758 43.8022 12.6095C43.7621 12.6432 43.7154 12.668 43.665 12.6822L41.5447 13.3108C41.2852 13.3857 41.1505 13.3108 41.0458 13.0514C40.9239 12.5369 40.6197 12.084 40.1894 11.7767C39.7592 11.4693 39.2321 11.3284 38.7059 11.3801C36.7102 11.3801 36.0267 12.5625 36.0267 14.154V17.816C36.0267 19.4075 36.7003 20.5899 38.7059 20.5899C40.3573 20.5899 41.2004 19.8216 41.2004 18.1503V17.6513H39.0451C39.0038 17.6548 38.9623 17.6489 38.9236 17.634C38.885 17.6192 38.8502 17.5957 38.8218 17.5655C38.7935 17.5352 38.7724 17.499 38.7601 17.4594C38.7478 17.4198 38.7446 17.378 38.7508 17.337V15.3514C38.7456 15.3106 38.7494 15.2691 38.7621 15.23C38.7747 15.1908 38.7959 15.155 38.824 15.1249C38.8521 15.0949 38.8865 15.0715 38.9247 15.0563C38.963 15.0411 39.0041 15.0345 39.0451 15.0371H43.8446C43.8856 15.0309 43.9274 15.0341 43.967 15.0464C44.0066 15.0587 44.0428 15.0798 44.0731 15.1081C44.1033 15.1364 44.1268 15.1712 44.1416 15.2099C44.1565 15.2486 44.1624 15.2901 44.1589 15.3314V18.3598C44.1589 21.2535 42.0336 23.4337 38.7308 23.4337C34.8144 23.4337 32.9834 21.1138 32.9834 17.9457V14.0742C32.9834 10.8861 34.8144 8.58618 38.7308 8.58618C41.8989 8.58618 43.3308 10.3922 43.9045 12.2033V12.1833ZM54.6809 15.8054V22.9048C54.6831 22.9441 54.6769 22.9833 54.6629 23.02C54.6489 23.0567 54.6273 23.09 54.5995 23.1178C54.5717 23.1456 54.5384 23.1672 54.5017 23.1812C54.465 23.1952 54.4258 23.2014 54.3866 23.1992H52.2213C52.1807 23.2035 52.1396 23.1991 52.1008 23.1861C52.0621 23.1731 52.0266 23.1519 51.9967 23.124C51.9669 23.0961 51.9435 23.062 51.928 23.0242C51.9125 22.9864 51.9053 22.9457 51.907 22.9048V21.7424C51.5995 22.26 51.1607 22.6871 50.635 22.9806C50.1093 23.2741 49.5155 23.4235 48.9135 23.4137C46.868 23.4137 45.5459 22.0966 45.5459 20.071C45.5459 18.0455 46.7882 16.9229 49.8166 16.7084C50.4708 16.6585 51.128 16.6585 51.7823 16.7084V15.9002C51.7823 14.8375 51.2335 14.4035 50.2855 14.4035C49.9571 14.3572 49.6231 14.4334 49.3472 14.6173C49.0712 14.8013 48.8725 15.0803 48.7888 15.4013C48.689 15.6358 48.6142 15.6757 48.3947 15.6158L46.2294 15.067C46.0149 15.0071 45.9949 14.8874 46.0348 14.7327C46.3292 13.1761 47.806 12.0336 50.4003 12.0336C53.1343 12.0336 54.6709 13.3358 54.6709 15.7754L54.6809 15.8054ZM51.7773 19.4923V18.4995C51.1995 18.4786 50.621 18.4986 50.0461 18.5594C48.9485 18.6941 48.3548 19.0283 48.3548 19.8765C48.3548 20.6398 48.8537 21.0539 49.7118 21.0539C50.1771 21.0635 50.6325 20.9183 51.0063 20.6411C51.3802 20.3639 51.6513 19.9703 51.7773 19.5222V19.4923ZM62.4938 12.0636C63.1001 12.0525 63.693 12.2422 64.1803 12.6031C64.6676 12.9641 65.0218 13.476 65.1879 14.0592C65.9961 12.8768 66.979 12.0636 68.356 12.0636C70.2618 12.0636 71.3494 13.5603 71.3494 15.8403V22.9048C71.3463 22.9478 71.3346 22.9896 71.315 23.0278C71.2953 23.0661 71.2681 23.1 71.235 23.1275C71.2019 23.155 71.1637 23.1755 71.1224 23.1878C71.0812 23.2001 71.0379 23.204 70.9952 23.1992H68.7352C68.6924 23.204 68.6491 23.2001 68.6079 23.1878C68.5667 23.1755 68.5284 23.155 68.4953 23.1275C68.4623 23.1 68.4351 23.0661 68.4154 23.0278C68.3958 22.9896 68.384 22.9478 68.3809 22.9048V16.3542C68.3809 15.3564 67.9469 14.7776 67.1786 14.7776C66.4102 14.7776 65.7816 15.4512 65.4873 16.4739V22.9048C65.49 22.9425 65.485 22.9804 65.4724 23.016C65.4598 23.0516 65.4401 23.0843 65.4143 23.1119C65.3885 23.1395 65.3574 23.1616 65.3227 23.1766C65.288 23.1916 65.2506 23.1993 65.2129 23.1992H62.7682C62.5936 23.1992 62.5138 23.0795 62.5138 22.9048V16.3542C62.5138 15.3564 62.0797 14.7776 61.3114 14.7776C60.5431 14.7776 59.8945 15.4861 59.6201 16.4939V22.9048C59.624 22.9445 59.619 22.9844 59.6056 23.0219C59.5922 23.0594 59.5706 23.0934 59.5425 23.1216C59.5143 23.1497 59.4803 23.1713 59.4428 23.1847C59.4053 23.1981 59.3654 23.2031 59.3257 23.1992H56.926C56.8864 23.2031 56.8464 23.1981 56.8089 23.1847C56.7715 23.1713 56.7374 23.1497 56.7093 23.1216C56.6811 23.0934 56.6596 23.0594 56.6461 23.0219C56.6327 22.9844 56.6278 22.9445 56.6316 22.9048V12.5774C56.6315 12.5397 56.6392 12.5023 56.6543 12.4676C56.6693 12.433 56.6913 12.4018 56.7189 12.376C56.7466 12.3502 56.7792 12.3305 56.8149 12.3179C56.8505 12.3054 56.8883 12.3003 56.926 12.303H59.226C59.2638 12.2995 59.302 12.304 59.3379 12.3163C59.3739 12.3286 59.4069 12.3483 59.4347 12.3742C59.4625 12.4001 59.4845 12.4316 59.4993 12.4667C59.514 12.5017 59.5212 12.5394 59.5203 12.5774V13.8147C60.1739 12.9117 61.1168 12.0636 62.5138 12.0636H62.4938ZM83.7224 12.303C83.7822 12.5575 83.7224 12.7521 83.4679 12.802L81.3825 13.4106C81.3355 13.4332 81.2839 13.4442 81.2318 13.4429C81.1798 13.4416 81.1288 13.428 81.083 13.4032C81.0372 13.3783 80.998 13.343 80.9685 13.3001C80.9391 13.2571 80.9202 13.2078 80.9135 13.1562C80.6142 12.1584 80.1053 11.3851 78.6485 11.3851C76.8574 11.3851 76.2886 12.5675 76.2886 14.159V17.821C76.2886 19.4125 76.9372 20.5949 78.6485 20.5949C80.1851 20.5949 80.7738 19.7268 81.0083 18.6442C81.0136 18.5913 81.0318 18.5406 81.0613 18.4964C81.0909 18.4522 81.1308 18.416 81.1776 18.3908C81.2244 18.3657 81.2767 18.3525 81.3298 18.3523C81.3829 18.3521 81.4353 18.3649 81.4823 18.3897L83.5727 19.0682C83.6231 19.0829 83.6699 19.1077 83.7104 19.1411C83.7508 19.1745 83.784 19.2159 83.8078 19.2626C83.8317 19.3094 83.8457 19.3605 83.849 19.4129C83.8523 19.4653 83.8449 19.5178 83.8271 19.5672C83.3282 21.6925 81.8016 23.4187 78.6135 23.4187C75.0364 23.4187 73.2253 21.0988 73.2253 17.9307V14.0742C73.2253 10.8861 75.0713 8.58618 78.6135 8.58618C81.7217 8.58618 83.1785 10.2376 83.7273 12.323L83.7224 12.303ZM94.1944 15.8054V22.9048C94.1966 22.9441 94.1905 22.9833 94.1764 23.02C94.1624 23.0567 94.1408 23.09 94.113 23.1178C94.0853 23.1456 94.0519 23.1672 94.0152 23.1812C93.9785 23.1952 93.9393 23.2014 93.9001 23.1992H91.7348C91.6942 23.2035 91.6531 23.1991 91.6143 23.1861C91.5756 23.1731 91.5401 23.1519 91.5103 23.124C91.4804 23.0961 91.457 23.062 91.4415 23.0242C91.426 22.9864 91.4188 22.9457 91.4205 22.9048V21.7424C91.113 22.26 90.6742 22.6871 90.1485 22.9806C89.6229 23.2741 89.029 23.4235 88.4271 23.4137C86.3815 23.4137 85.0644 22.0966 85.0644 20.071C85.0644 18.0455 86.3017 16.9229 89.3301 16.7084C89.986 16.6584 90.6448 16.6584 91.3008 16.7084V15.9002C91.3008 14.8375 90.747 14.4035 89.8041 14.4035C89.4759 14.3595 89.143 14.4365 88.8675 14.6201C88.5921 14.8038 88.3929 15.0815 88.3073 15.4013C88.2125 15.6358 88.1327 15.6757 87.9132 15.6158L85.7529 15.067C85.5334 15.0071 85.5134 14.8874 85.5533 14.7327C85.8477 13.1761 87.3245 12.0336 89.9238 12.0336C92.6578 12.0336 94.1894 13.3358 94.1894 15.7754L94.1944 15.8054ZM91.3008 19.4923V18.4995C90.723 18.4784 90.1445 18.4984 89.5696 18.5594C88.467 18.6941 87.8783 19.0283 87.8783 19.8765C87.8783 20.6398 88.3772 21.0539 89.2353 21.0539C89.7004 21.0627 90.1553 20.9171 90.529 20.64C90.9027 20.3629 91.1741 19.9699 91.3008 19.5222V19.4923ZM102.621 12.4976V14.603C102.621 14.8575 102.521 14.9572 102.267 14.9572H101.947C100.376 14.9572 99.4529 15.6657 99.1386 16.8481V22.9048C99.1413 22.9413 99.1367 22.9779 99.1251 23.0126C99.1134 23.0472 99.095 23.0792 99.0708 23.1066C99.0467 23.134 99.0173 23.1563 98.9844 23.1722C98.9514 23.1881 98.9157 23.1973 98.8792 23.1992H96.3846C96.3481 23.1973 96.3124 23.1881 96.2795 23.1722C96.2466 23.1563 96.2172 23.134 96.193 23.1066C96.1688 23.0792 96.1504 23.0472 96.1387 23.0126C96.1271 22.9779 96.1225 22.9413 96.1252 22.9048V12.5774C96.1235 12.5392 96.1301 12.5011 96.1446 12.4657C96.1591 12.4303 96.1811 12.3984 96.2091 12.3723C96.2371 12.3462 96.2704 12.3265 96.3067 12.3146C96.3431 12.3026 96.3816 12.2987 96.4196 12.303H98.6646C98.8991 12.303 98.959 12.4577 98.959 12.6174V14.0742C99.2472 13.4792 99.7018 12.9806 100.268 12.6388C100.833 12.297 101.486 12.1267 102.147 12.1484C102.541 12.1484 102.646 12.2083 102.646 12.4827L102.621 12.4976ZM106.483 18.6342V19.0483C106.483 20.1908 107.076 20.994 108.478 20.994C109.88 20.994 110.209 20.4951 110.564 19.8366C110.738 19.5422 110.818 19.5023 111.132 19.637L112.684 20.4253C113.003 20.5849 113.023 20.7396 112.884 21.0339C112.215 22.5307 110.544 23.4137 108.458 23.4137C105.31 23.4137 103.659 21.5478 103.659 18.9884V16.4939C103.659 13.9993 105.21 12.0636 108.438 12.0636C111.507 12.0636 113.003 14.0143 113.003 16.434V18.1652C113.003 18.4596 112.903 18.6641 112.504 18.6641L106.483 18.6342ZM106.483 16.3342V16.7084H110.279V16.3342C110.303 16.0804 110.271 15.8245 110.184 15.5846C110.098 15.3448 109.96 15.1269 109.78 14.9464C109.6 14.7659 109.382 14.6272 109.143 14.5403C108.903 14.4534 108.647 14.4203 108.393 14.4434C108.138 14.42 107.881 14.4526 107.64 14.5391C107.399 14.6256 107.18 14.7637 106.998 14.9439C106.816 15.124 106.675 15.3418 106.586 15.582C106.497 15.8222 106.462 16.0789 106.483 16.3342Z" fill="white"/>
<path d="M14.6019 3.11853e-05H1.40082C1.34799 -0.000629271 1.29555 0.00920683 1.24655 0.0289689C1.19755 0.048731 1.15296 0.0780257 1.11536 0.115154C1.07777 0.152282 1.04793 0.196505 1.02756 0.245257C1.00719 0.29401 0.9967 0.346321 0.996704 0.399158V19.5971C0.998027 22.887 2.30586 26.0417 4.63264 28.3676C6.95942 30.6934 10.1146 32 13.4045 32H14.6019C17.8914 32 21.0461 30.6933 23.3721 28.3673C25.6981 26.0413 27.0048 22.8866 27.0048 19.5971V12.4029C27.0048 9.11345 25.6981 5.95873 23.3721 3.63274C21.0461 1.30676 17.8914 3.11853e-05 14.6019 3.11853e-05ZM23.0185 19.8067C23.0185 24.4765 19.591 28.0037 14.2527 28.0037C7.93153 28.0037 4.97799 24.252 4.97799 19.1332V12.8818C4.97799 7.73311 7.93153 3.98631 14.2427 3.98631C19.3565 3.98631 21.6764 6.90991 22.5994 9.83351C22.6351 9.91111 22.6536 9.99549 22.6537 10.0809C22.6538 10.1663 22.6354 10.2507 22.5999 10.3284C22.5644 10.4061 22.5125 10.4752 22.4479 10.531C22.3832 10.5868 22.3073 10.6279 22.2252 10.6517L18.7928 11.6495C18.3837 11.7743 18.1591 11.6495 18.0344 11.2354C17.4906 9.48926 16.3481 8.53635 14.2527 8.53635C11.0098 8.53635 9.93215 10.4422 9.93215 13.0265V18.9486C9.93215 21.5229 11.0098 23.4387 14.2527 23.4387C16.9219 23.4387 18.3188 22.1965 18.3188 19.4974V18.7241H14.7416C14.674 18.7331 14.6052 18.7264 14.5405 18.7045C14.4759 18.6827 14.4171 18.6462 14.3689 18.5979C14.3206 18.5497 14.2841 18.4909 14.2622 18.4263C14.2404 18.3616 14.2337 18.2928 14.2427 18.2251V14.9473C14.2375 14.8805 14.2468 14.8133 14.27 14.7504C14.2932 14.6874 14.3298 14.6303 14.3772 14.5829C14.4246 14.5355 14.4817 14.4989 14.5447 14.4757C14.6076 14.4525 14.6748 14.4432 14.7416 14.4484H22.5096C22.575 14.4401 22.6414 14.4464 22.704 14.4669C22.7666 14.4874 22.8238 14.5216 22.8716 14.567C22.9194 14.6123 22.9564 14.6678 22.9801 14.7292C23.0038 14.7907 23.0135 14.8567 23.0085 14.9224L23.0185 19.8067Z" fill="white"/>
</g>
<defs>
<clipPath id="clip0_1291_32575">
<rect width="112.007" height="32" fill="white" transform="translate(0.996704)"/>
</clipPath>
</defs>
</svg>