<?xml version="1.0" encoding="utf-8"?>
<svg xmlns="http://www.w3.org/2000/svg" xmlns:xlink="http://www.w3.org/1999/xlink" version="1.1" id="Layer_1" x="0px" y="0px" viewBox="0 0 273.737 34" style="enable-background:new 0 0 273.737 34;">
<style type="text/css">
	.st0{fill:#A6C843;}
</style>
<g>
	<path class="st0" d="M34.572,13.186H17.956v7.449h6.511c-1.283,2.311-3.683,3.859-6.511,3.859c-4.108,0-7.45-3.344-7.45-7.456&#xA;		c0.004-4.113,3.337-7.446,7.45-7.45c1.114,0,2.227,0.259,3.169,0.686l4.369-8.477C23.181,0.686,20.698,0,17.956,0&#xA;		C8.62,0.083,1,7.616,1,17.038S8.62,34,17.956,34c9.419,0,16.956-7.627,16.956-16.962C35,15.756,34.829,14.468,34.572,13.186z&#xA;		 M140.162,23.721c-3.688-0.005-6.676-2.995-6.68-6.683c0.006-3.687,2.993-6.674,6.68-6.681c3.688,0.007,6.676,2.993,6.684,6.681&#xA;		C146.839,20.727,143.85,23.716,140.162,23.721z M140.162,0.083c-9.415,0-16.956,7.62-16.956,16.956&#xA;		C123.207,26.463,130.83,34,140.162,34c9.422,0,16.957-7.627,16.957-16.962c0.02-4.503-1.761-8.828-4.946-12.011&#xA;		C148.989,1.843,144.665,0.063,140.162,0.083z M164.745,1.282h10.957l6.765,11.047l6.77-11.047h10.951v31.512h-10.445V17.211&#xA;		l-7.279,11.217h-0.171l-7.279-11.217v15.583H164.74V1.282H164.745z M80.131,1.282h10.963l6.764,11.047l6.763-11.047h10.962v31.512&#xA;		h-10.448V17.211l-7.279,11.217h-0.172l-7.28-11.217v15.583H80.129V1.282H80.131z M252.863,10.191h-9.245V1.282h29.12v8.909h-9.249&#xA;		v22.605h-10.536V10.191H252.863z M227.086,21.151l-2.823-7.62l-2.825,7.62H227.086z M219.21,1.282h10.363l13.187,31.43h-11.39&#xA;		l-1.628-4.195h-10.954l-1.629,4.195h-11.135L219.21,1.282z M58.721,21.151l-2.828-7.621l-2.823,7.621H58.721z M50.757,1.282h10.361&#xA;		l13.188,31.43H63.002l-1.626-4.195H50.414l-1.628,4.195H37.654L50.757,1.282z"/>
</g>
</svg>