<?xml version="1.0" encoding="utf-8"?>
<svg xmlns="http://www.w3.org/2000/svg" width="42" height="24" fill="none" viewBox="0 0 42 24">
  <g clip-path="url(#a)">
    <path fill="#fff" d="m11.856 5.152 1.13-3.392a.46.46 0 0 0-.209-.557C11.864.713 10.022 0 7.893 0 4.855 0 .01 1.725.01 8.171c0 6.447 4.968 8.13 7.883 8.13 2.637 0 4.333-.638 5.636-1.702.263-.215.4-.543.4-.883V6.939a.492.492 0 0 0-.492-.492H7.563a.493.493 0 0 0-.492.53l.213 2.792c.02.257.234.455.491.455h2.048v1.19c-.137.179-.648.535-1.601.535-1.19 0-3.49-1.068-3.49-3.778s2.217-3.695 3.161-3.695c.865 0 2.52.24 3.582.817.143.077.33.014.381-.14Zm15.839-3.396a.245.245 0 0 0-.09-.312C26.805.934 25.21 0 22.964 0c-3.039 0-7.884 1.725-7.884 8.171 0 6.447 4.804 8.192 7.72 8.192 2.453 0 3.918-.8 4.712-1.298a.496.496 0 0 0 .176-.644l-1.527-3.02c-.055-.108-.229-.148-.338-.096-.51.245-1.755.644-2.53.644-1.192 0-3.491-1.068-3.491-3.778s2.217-3.695 3.162-3.695c.87 0 1.88.07 2.835.626a.26.26 0 0 0 .367-.107l1.53-3.239Z"/>
    <path fill="#fff" fill-rule="evenodd" d="M28.953 15.444c-.036-4.482-.082-12.494-.018-14.593a.455.455 0 0 1 .466-.44h6.742c2.525 0 4.886 1.396 4.886 4.229 0 2.266-1.259 3.216-1.888 3.408.739 0 2.217 1.026 2.217 3.634 0 3.153-2.772 4.25-4.476 4.25h-7.436a.492.492 0 0 1-.493-.488ZM33.68 4.476h1.437a1.027 1.027 0 0 1 0 2.053H33.68V4.476Zm1.847 5.338H33.68v2.053h1.847a1.027 1.027 0 0 0 0-2.053ZM23.62 22.748v-3.942c0-.046.037-.082.082-.082h1.047c.045 0 .082.037.082.082v.985c.115-.115.349-.157.452-.164h.266c.76 0 1.438.616 1.438 1.643 0 1.026-.616 1.642-1.438 1.642-.615 0-.873-.23-.963-.312-.03-.027-.042-.037-.042-.017 0 .066-.083.192-.124.247h-.718a.082.082 0 0 1-.082-.082Zm1.19-1.15v-.534c0-.144.165-.431.432-.431s.472.349.472.678c0 .328-.165.615-.472.615-.247 0-.39-.219-.432-.328Z" clip-rule="evenodd"/>
    <path fill="#fff" d="M23.065 20.759c.02-.11.048-.245.082-.29a2.75 2.75 0 0 0 .181-.383c.028-.066.009-.141-.052-.178-.187-.113-.554-.26-1.052-.26-.76 0-1.684.451-1.684 1.622 0 1.17.924 1.662 1.684 1.662a1.83 1.83 0 0 0 1.057-.313c.058-.042.07-.12.037-.183l-.232-.448-.024-.143a.084.084 0 0 0-.114-.063c-.178.071-.445.165-.58.165-.206 0-.637-.103-.637-.677 0-.575.493-.657.636-.657.174 0 .42.121.572.205a.085.085 0 0 0 .126-.06Zm7.925-.29c-.034.045-.063.18-.083.29a.085.085 0 0 1-.125.06c-.151-.085-.398-.206-.572-.206-.144 0-.637.082-.637.657 0 .574.432.677.637.677.136 0 .403-.094.58-.165.05-.02.106.01.115.063l.023.143.233.448c.032.063.02.141-.037.183a1.83 1.83 0 0 1-1.058.313c-.76 0-1.683-.492-1.683-1.662s.924-1.622 1.683-1.622c.499 0 .865.147 1.053.26.06.037.08.112.052.178a3.03 3.03 0 0 1-.18.383Zm-14.7 2.443c.284 0 .514-.22.514-.493a.503.503 0 0 0-.514-.493.503.503 0 0 0-.513.493c0 .272.23.493.513.493Zm-2.669-3.202h.308v-.602c0-.043.034-.079.077-.082l1.026-.07a.082.082 0 0 1 .088.082v.671h.402c.048 0 .086.042.081.09l-.064.617a.082.082 0 0 1-.082.073h-.337v2.28a.082.082 0 0 1-.082.081h-1.027a.082.082 0 0 1-.082-.082V20.49h-.308a.082.082 0 0 1-.082-.082v-.616c0-.045.037-.082.082-.082Zm-5.872 1.049c.02-.11.049-.245.083-.29.038-.051.12-.238.18-.383.028-.066.01-.141-.051-.178-.188-.113-.555-.26-1.053-.26-.76 0-1.684.451-1.684 1.622 0 1.17.924 1.662 1.684 1.662a1.83 1.83 0 0 0 1.058-.313c.058-.042.07-.12.036-.183l-.232-.448-.024-.143a.084.084 0 0 0-.114-.063c-.177.071-.444.165-.58.165-.206 0-.637-.103-.637-.677 0-.575.493-.657.637-.657.173 0 .42.121.572.205a.086.086 0 0 0 .125-.06Z"/>
    <path fill="#fff" fill-rule="evenodd" d="M11.178 21.598c.02-.062.062-.214.062-.328v-.011c0-.194.008-1.611-1.54-1.611-1.58 0-1.642 1.519-1.642 1.622 0 .102.02 1.662 1.642 1.662.774 0 1.116-.221 1.238-.33.038-.035.046-.088.03-.137l-.216-.649a.08.08 0 0 0-.1-.051l-.094.03c-.208.07-.457.152-.776.152-.226 0-.451-.144-.451-.35h1.847Zm-1.108-.636h-.76c.027-.117.144-.35.39-.35.246 0 .35.233.37.35Z" clip-rule="evenodd"/>
    <path fill="#fff" d="M12.243 19.71h-.654a.082.082 0 0 0-.082.081v2.977c0 .046.037.082.082.082h1.006a.082.082 0 0 0 .082-.082V20.88a.908.908 0 0 1 .601-.272c.051-.001.097-.04.097-.091v-.725a.082.082 0 0 0-.082-.082h-.267c-.329 0-.595.329-.595.329a1.439 1.439 0 0 0-.121-.291.076.076 0 0 0-.067-.038Z"/>
    <path fill="#fff" fill-rule="evenodd" d="M20.253 22.727V19.71h-.822c.055.144.111.386-.102.206-.267-.226-.41-.267-.965-.267-.596 0-1.355.328-1.355 1.56s.842 1.52 1.355 1.52.657-.186.657-.186c.02.37-.144.534-.554.534-.329 0-.726-.178-.883-.287h-.206l-.246.78s.205.431 1.335.431c1.314 0 1.786-.842 1.786-1.273Zm-1.232-1.65v.424c-.036.087-.16.261-.373.261-.265 0-.407-.228-.407-.489 0-.26.177-.537.407-.537.231 0 .373.228.373.342Z" clip-rule="evenodd"/>
    <path fill="#fff" d="M27.705 22.912c.284 0 .514-.22.514-.493a.503.503 0 0 0-.514-.493.503.503 0 0 0-.513.493c0 .272.23.493.513.493Zm4.52-.161-.927-3.021h1.335l.287 1.17.328-1.17h1.068l.308 1.17.287-1.17h1.335l-.947 3.022a.082.082 0 0 1-.078.057h-.967a.082.082 0 0 1-.079-.059l-.413-1.398-.414 1.398a.082.082 0 0 1-.079.06h-.966a.082.082 0 0 1-.078-.059Z"/>
  </g>
  <defs>
    <clipPath id="a">
      <path fill="#fff" d="M.005 0h42v24h-42z"/>
    </clipPath>
  </defs>
</svg>