<?xml version="1.0" encoding="utf-8"?>
<svg xmlns="http://www.w3.org/2000/svg" width="24" height="24" viewBox="0 0 24 24" fill="none">
<path fill-rule="evenodd" clip-rule="evenodd" d="M23 12C23 5.92487 18.0751 1 12 1C5.92487 1 1 5.92487 1 12C1 18.0751 5.92487 23 12 23C18.0751 23 23 18.0751 23 12ZM13.7148 18.9506C12.871 20.8069 12.1142 21 12 21C11.8858 21 11.129 20.8069 10.2852 18.9506C9.61503 17.4762 9.12927 15.3982 9.02219 13H14.9778C14.8707 15.3982 14.385 17.4762 13.7148 18.9506ZM14.9778 11H9.02219C9.12927 8.60176 9.61503 6.52381 10.2852 5.04943C11.129 3.19311 11.8858 3 12 3C12.1142 3 12.871 3.19311 13.7148 5.04943C14.385 6.52381 14.8707 8.60176 14.9778 11ZM16.9796 13C16.8582 15.9638 16.2025 18.5886 15.2259 20.4046C18.3052 19.2219 20.5697 16.3956 20.9451 13H16.9796ZM20.9451 11H16.9796C16.8582 8.03621 16.2025 5.4114 15.2259 3.59542C18.3052 4.77809 20.5697 7.60437 20.9451 11ZM7.02038 11C7.14178 8.03621 7.79753 5.4114 8.77407 3.59542C5.69476 4.77809 3.4303 7.60437 3.05493 11H7.02038ZM3.05493 13C3.4303 16.3956 5.69476 19.2219 8.77407 20.4046C7.79754 18.5886 7.14178 15.9638 7.02038 13H3.05493Z" fill="white"/>
</svg>