<?xml version="1.0" encoding="utf-8"?>
<svg xmlns="http://www.w3.org/2000/svg" xmlns:xlink="http://www.w3.org/1999/xlink" version="1.1" id="Layer_1" x="0px" y="0px" viewBox="0 0 51.3 34" style="enable-background:new 0 0 51.3 34;">
<style type="text/css">
	.st0{fill:#FCE7A6;}
	.st1{fill:#FCDD78;}
	.st2{fill:#FBC401;}
	.st3{fill:#F8B203;}
	.st4{fill:#FBE7A6;}
	.st5{fill:#FCC401;}
	.st6{fill:#FBC402;}
	.st7{fill:#FCDD77;}
	.st8{fill:#F8B204;}
	.st9{fill:#212F53;}
	.st10{fill:#202F53;}
</style>
<g>
	<path class="st0" d="M25.161,12.857c1.082-0.317,2.184-0.543,3.292-0.745c1.177-0.214,2.353-0.443,3.56-0.409&#xA;		c0.907,0.025,1.797,0.13,2.625,0.528c1.191,0.572,1.761,1.542,1.789,2.848c-0.824-0.117-1.648-0.234-2.494-0.354&#xA;		c0.439,0.77,0.501,1.142,0.315,1.813c-0.144,0.522-0.404,0.984-0.744,1.402c-0.842,1.033-1.944,1.712-3.125,2.282&#xA;		c-0.045,0.024-0.089,0.047-0.134,0.071c-0.961,0.446-1.958,0.792-2.975,1.085c-0.101-0.116,0.028-0.169,0.075-0.227&#xA;		c0.615-0.745,1.235-1.485,1.854-2.227c0.418-0.179,0.806-0.412,1.188-0.655c0.49-0.312,0.949-0.662,1.318-1.117&#xA;		c0.227-0.28,0.384-0.588,0.365-0.962c0.442-0.362,0.886-0.722,1.327-1.086c0.548-0.452,0.544-0.483-0.113-0.817&#xA;		c-0.643-0.326-1.338-0.428-2.047-0.46c-1.283-0.058-2.549,0.09-3.805,0.341c-0.535-0.249-1.031-0.571-1.543-0.861&#xA;		C25.642,13.166,25.37,13.061,25.161,12.857z"/>
	<path class="st1" d="M5.879,32.029c-0.118-0.013-0.087-0.115-0.102-0.182c-0.783-3.642-1.563-7.284-2.344-10.927&#xA;		c-0.307-1.431-0.615-2.862-0.917-4.293c-0.02-0.096-0.1-0.197-0.021-0.303c0.845,0.156,1.689,0.311,2.534,0.467&#xA;		c0.352,1.766,0.7,3.532,1.057,5.297c0.154,0.759,0.279,1.524,0.472,2.275C6.551,24.397,6.54,24.43,6.568,24.46&#xA;		c0.186,0.942,0.373,1.885,0.558,2.827c0.168,0.858,0.333,1.717,0.5,2.575C7.044,30.585,6.462,31.307,5.879,32.029z"/>
	<path class="st2" d="M13.652,13.276c0.119,0.383,0.12,0.783,0.167,1.175c0.454,3.772,1.047,7.52,1.94,11.217&#xA;		c0.18,0.745,0.353,1.492,0.597,2.22c0.034,0.316,0.068,0.633,0.103,0.949l-0.018,0.001c0,0-0.017-0.004-0.017-0.004&#xA;		c-0.761-0.158-1.526-0.288-2.297-0.381c-0.014-0.085-0.024-0.171-0.043-0.254c-0.395-1.717-0.787-3.434-1.189-5.149&#xA;		c-0.089-0.379-0.135-0.769-0.291-1.131c-0.003-0.078,0.003-0.157-0.011-0.233c-0.289-1.57-0.584-3.138-0.868-4.708&#xA;		c-0.093-0.515-0.233-1.022-0.252-1.549c0.441-0.432,0.885-0.862,1.322-1.298c0.27-0.27,0.566-0.514,0.798-0.82&#xA;		c0,0-0.004,0.003-0.004,0.003C13.61,13.3,13.631,13.288,13.652,13.276z"/>
	<path class="st1" d="M16.459,28.837c-0.034-0.316-0.068-0.633-0.103-0.949c-0.094-0.887-0.186-1.775-0.283-2.662&#xA;		c-0.213-1.938-0.429-3.876-0.642-5.814c-0.186-1.697-0.37-3.394-0.553-5.091c-0.012-0.116-0.01-0.233-0.015-0.35&#xA;		c0.396,0.233,0.788,0.475,1.191,0.696c0.457,0.251,0.875,0.57,1.36,0.771c0,0.117-0.008,0.235,0.002,0.351&#xA;		c0.104,1.16,0.212,2.32,0.319,3.48c0.048,0.522,0.097,1.043,0.142,1.565c0.008,0.096,0.026,0.158,0.138,0.095&#xA;		c0.001,0.025,0.002,0.05,0.003,0.075c-0.031,0.022-0.062,0.045-0.092,0.067c0.002,0.125-0.005,0.25,0.006,0.374&#xA;		c0.17,1.881,0.342,3.762,0.515,5.643c0.006,0.065-0.022,0.148,0.076,0.174c0.003,0.02,0.007,0.04,0.01,0.06&#xA;		c-0.224,0.167-0.355,0.412-0.517,0.63c-0.461,0.62-0.949,1.219-1.375,1.864c-0.113-0.041-0.069-0.143-0.081-0.219&#xA;		C16.521,29.345,16.491,29.091,16.459,28.837z"/>
	<path class="st2" d="M43.236,12.689c1.646,0.085,2.952,0.817,3.938,2.114c1.321,1.736,1.865,3.709,1.725,5.879&#xA;		c-0.062,0.956-0.201,1.897-0.497,2.811c-0.024,0.073-0.056,0.144-0.085,0.216c-0.154-0.097-0.259-0.246-0.393-0.364&#xA;		c-0.442-0.392-0.834-0.838-1.31-1.192c-0.005-0.014-0.009-0.028-0.012-0.042c0.259-0.838,0.341-1.698,0.3-2.57&#xA;		c-0.082-1.749-0.804-3.159-2.241-4.182c-0.163-0.116-0.324-0.249-0.54-0.263c0.001-0.008,0.002-0.016,0.004-0.025&#xA;		c0.016-0.116-0.047-0.211-0.086-0.311C43.773,14.068,43.504,13.378,43.236,12.689z"/>
	<path class="st3" d="M46.614,22.152c0.476,0.354,0.868,0.8,1.31,1.192c0.134,0.119,0.239,0.267,0.393,0.364&#xA;		c-0.119,0.449-0.313,0.869-0.527,1.277c-0.614,1.174-1.344,2.265-2.371,3.124c-1.146,0.959-2.447,1.506-3.969,1.429&#xA;		c-0.085-0.004-0.169-0.026-0.253-0.039c-0.133-0.34-0.273-0.678-0.398-1.021c-0.176-0.48-0.409-0.939-0.536-1.438&#xA;		c0.063,0.004,0.125,0.007,0.188,0.012c2.308,0.201,4.077-0.667,5.279-2.659C46.151,23.696,46.42,22.939,46.614,22.152z"/>
	<path class="st0" d="M43.236,12.689c0.268,0.69,0.537,1.379,0.803,2.07c0.039,0.1,0.101,0.195,0.086,0.311&#xA;		c-0.806-0.334-1.622-0.295-2.434-0.043c-2.205,0.686-3.905,2.923-4.068,5.335c-0.011,0.002-0.022,0.005-0.032,0.009&#xA;		c-0.121-0.01-0.225,0.047-0.334,0.086c-0.524,0.189-1.048,0.377-1.573,0.565c0.027-0.885,0.245-1.732,0.54-2.559&#xA;		c0.573-1.606,1.415-3.051,2.673-4.22c1.133-1.051,2.466-1.637,4.039-1.594C43.037,12.654,43.141,12.642,43.236,12.689z"/>
	<path class="st1" d="M25.161,12.857c0.209,0.205,0.481,0.309,0.729,0.45c0.512,0.291,1.008,0.612,1.543,0.861&#xA;		c-0.002,0.014-0.002,0.028,0,0.042c-0.112,1.326-0.126,2.657-0.188,3.985c-0.046,0.985-0.063,1.971-0.093,2.956&#xA;		c-0.003,0.086-0.011,0.173,0.039,0.251c-0.009,0.015-0.019,0.03-0.028,0.045c-0.007,0.218-0.017,0.435-0.022,0.653&#xA;		c-0.021,0.972-0.041,1.945-0.061,2.917c-0.101-0.018-0.157-0.098-0.221-0.164c-0.44-0.452-0.878-0.905-1.315-1.359&#xA;		c-0.07-0.073-0.133-0.151-0.2-0.227c0.011-1.9,0.036-3.8,0.004-5.699c-0.026-1.516-0.067-3.032-0.217-4.543&#xA;		C25.125,12.97,25.085,12.9,25.161,12.857z"/>
	<path class="st1" d="M35.684,21.023c0.524-0.188,1.049-0.376,1.573-0.565c0.109-0.039,0.213-0.096,0.334-0.086&#xA;		c-0.041,0.373-0.093,0.745-0.122,1.119c-0.085,1.086-0.051,2.162,0.355,3.192c0.455,1.154,1.229,1.987,2.443,2.36l-0.003-0.002&#xA;		c0.127,0.499,0.36,0.958,0.536,1.438c0.126,0.343,0.265,0.681,0.398,1.021c-1.529-0.09-2.763-0.767-3.772-1.893&#xA;		c-0.362-0.404-0.632-0.871-0.911-1.332c-0.021-0.042-0.041-0.084-0.062-0.125c-0.346-0.769-0.588-1.57-0.732-2.402&#xA;		C35.606,22.841,35.558,21.933,35.684,21.023z"/>
	<path class="st2" d="M6.559,24.363c-0.193-0.751-0.318-1.516-0.472-2.275c-0.357-1.765-0.705-3.531-1.057-5.297&#xA;		c0.704-0.72,1.408-1.441,2.112-2.161c0.12,0.232,0.108,0.491,0.143,0.738c0.312,2.251,0.617,4.502,0.924,6.754&#xA;		c-0.532,0.73-1.063,1.461-1.594,2.192c-0.018,0.017-0.035,0.033-0.053,0.05L6.559,24.363z"/>
	<path class="st1" d="M30.246,20.292c0.045-0.024,0.089-0.047,0.134-0.071c-0.002,0.017-0.005,0.033-0.007,0.05&#xA;		c0.03,0.153,0.142,0.258,0.228,0.377c1.219,1.678,2.441,3.354,3.661,5.03c-0.17,0.737-0.347,1.473-0.507,2.213&#xA;		c-0.064,0.295-0.184,0.582-0.169,0.892c0,0,0.002-0.003,0.002-0.003c-0.015,0.014-0.031,0.027-0.046,0.041&#xA;		c-0.104-0.026-0.128-0.128-0.178-0.201c-1.342-1.954-2.682-3.91-4.022-5.865c-0.044-0.064-0.095-0.124-0.142-0.185&#xA;		c-0.002-0.09,0.044-0.164,0.081-0.24c0.291-0.593,0.582-1.185,0.873-1.778C30.193,20.469,30.25,20.392,30.246,20.292z"/>
	<path class="st3" d="M16.64,29.817c0.426-0.645,0.915-1.244,1.375-1.864c0.162-0.218,0.293-0.462,0.517-0.63&#xA;		c0.053-0.011,0.108-0.019,0.16-0.033c2.679-0.703,5.358-1.408,8.037-2.109c0.102-0.027,0.204-0.089,0.318-0.045l-0.001-0.001&#xA;		c-0.602,0.795-1.204,1.59-1.806,2.385c-2.449,0.484-4.851,1.151-7.233,1.893C17.554,29.555,17.108,29.723,16.64,29.817z"/>
	<path class="st4" d="M11.012,12.461c-0.911,0.306-1.829,0.352-2.74,0.022c-0.88-0.319-1.446-0.975-1.716-1.843&#xA;		C5.993,8.829,6.018,7.022,6.821,5.279c0.686-1.488,2.095-2.318,3.665-2.212c0.702,0.047,1.321,0.311,1.829,0.81&#xA;		c0.037,0.036,0.091,0.066,0.082,0.132c-0.448,0.077-0.897,0.154-1.345,0.231C9.609,3.98,8.495,4.463,7.848,5.702&#xA;		C7.255,6.837,7.063,8.076,7.26,9.332c0.266,1.693,2.063,3.028,3.72,2.105c0,0-0.005-0.002-0.005-0.002&#xA;		C11.038,11.775,10.986,12.119,11.012,12.461z"/>
	<path class="st0" d="M27.047,25.137c-0.114-0.044-0.215,0.018-0.318,0.045c-2.679,0.701-5.358,1.406-8.037,2.109&#xA;		c-0.053,0.014-0.107,0.022-0.16,0.033c-0.003-0.02-0.007-0.04-0.01-0.06c0.603-0.93,1.207-1.861,1.81-2.791&#xA;		c1.238-0.295,2.477-0.589,3.715-0.886c0.433-0.104,0.865-0.213,1.297-0.32c0.066,0.076,0.13,0.155,0.2,0.227&#xA;		c0.437,0.454,0.876,0.907,1.315,1.359c0.064,0.066,0.12,0.146,0.221,0.164C27.069,25.057,27.058,25.097,27.047,25.137z"/>
	<path class="st1" d="M11.472,15.427c0.019,0.527,0.159,1.035,0.252,1.549c0.283,1.571,0.579,3.139,0.868,4.708&#xA;		c0.014,0.076,0.008,0.155,0.011,0.233c-0.018,0.002-0.037,0.005-0.055,0.007c0,0,0.011-0.004,0.011-0.004&#xA;		c-0.081-0.071-0.187-0.071-0.283-0.097c-0.659-0.18-1.332-0.305-1.981-0.523c-0.327-1.504-0.658-3.007-0.979-4.512&#xA;		c-0.127-0.595-0.282-1.184-0.367-1.787c0.329,0.057,0.657,0.117,0.986,0.171C10.447,15.257,10.949,15.407,11.472,15.427z"/>
	<path class="st1" d="M12.548,21.925c0.018-0.003,0.037-0.005,0.055-0.008c0.156,0.362,0.203,0.752,0.291,1.131&#xA;		c0.401,1.715,0.794,3.433,1.189,5.149c0.019,0.084,0.029,0.169,0.043,0.254c-0.354,0.436-0.714,0.868-1.061,1.31&#xA;		c-0.235,0.299-0.508,0.569-0.692,0.907c0,0,0.001-0.006,0.001-0.006c-0.02,0.016-0.04,0.032-0.059,0.047&#xA;		c-0.089-0.041-0.072-0.131-0.087-0.203c-0.416-1.952-0.831-3.904-1.246-5.856c0.452-0.757,0.907-1.512,1.353-2.272&#xA;		C12.419,22.237,12.553,22.112,12.548,21.925z"/>
	<path class="st0" d="M17.414,15.438c-0.485-0.201-0.904-0.52-1.36-0.771c-0.403-0.222-0.794-0.463-1.191-0.696&#xA;		c0.094-0.101,0.228-0.084,0.345-0.11c2.762-0.606,5.524-1.209,8.287-1.809c0.068-0.015,0.143-0.08,0.217-0.008&#xA;		c-0.393,0.753-0.785,1.506-1.178,2.259c-0.137,0.031-0.275,0.061-0.412,0.092c-1.558,0.35-3.115,0.7-4.673,1.051&#xA;		C17.439,15.441,17.427,15.438,17.414,15.438z"/>
	<path class="st5" d="M34.262,25.678c-1.221-1.676-2.442-3.353-3.661-5.03c-0.086-0.119-0.198-0.223-0.228-0.377&#xA;		c0.125,0.003,0.25-0.001,0.374,0.01c0.804,0.071,1.606,0.174,2.415,0.179c-0.01,0.051,0.016,0.09,0.044,0.129&#xA;		c0.795,1.088,1.644,2.132,2.517,3.158c0.143,0.831,0.385,1.632,0.732,2.402c-0.094,0.002-0.185-0.013-0.277-0.035&#xA;		C35.539,25.966,34.9,25.823,34.262,25.678z"/>
	<path class="st6" d="M39.1,7.803c-0.088,0.817-0.146,1.636-0.169,2.458c-0.002,0.084,0.045,0.192-0.074,0.245&#xA;		c-0.038-0.092-0.124-0.133-0.197-0.189c-0.28-0.217-0.597-0.384-0.849-0.636c-0.013-0.315,0.124-0.617,0.08-0.935&#xA;		c0.01-0.044,0.019-0.088,0.029-0.132c0.014-0.052,0.033-0.103,0.04-0.156c0.118-0.843,0.237-1.686,0.352-2.529&#xA;		c0.155-1.137,0.306-2.275,0.459-3.413c0.433-0.328,0.873-0.649,1.283-1.006c0.104,0.299,0.069,0.614,0.108,0.921&#xA;		c0.15,1.172,0.313,2.341,0.574,3.493c0.064,0.281,0.141,0.561,0.283,0.817c0.193,0.757,0.388,1.514,0.574,2.273&#xA;		c0.029,0.119,0.158,0.288,0.022,0.361c-0.146,0.078-0.228-0.123-0.312-0.219c-0.776-0.879-1.254-1.919-1.602-3.025&#xA;		c-0.108-0.343-0.198-0.691-0.296-1.037c-0.061,0.222-0.086,0.439-0.107,0.656C39.232,6.435,39.166,7.119,39.1,7.803z"/>
	<path class="st3" d="M33.162,20.46c-0.809-0.006-1.611-0.108-2.415-0.179c-0.124-0.011-0.249-0.007-0.374-0.01&#xA;		c0.002-0.017,0.005-0.033,0.007-0.05c1.181-0.57,2.283-1.249,3.125-2.282c0.34-0.417,0.599-0.879,0.744-1.402&#xA;		c0.185-0.671,0.123-1.042-0.315-1.813c0.846,0.12,1.67,0.237,2.494,0.354c0.055,0.659-0.05,1.299-0.276,1.913&#xA;		C35.59,18.52,34.541,19.634,33.162,20.46z"/>
	<path class="st6" d="M10.98,11.436c-1.657,0.924-3.454-0.412-3.72-2.105c-0.197-1.255-0.005-2.494,0.588-3.63&#xA;		C8.495,4.463,9.609,3.98,11.053,4.24c0.058,0.482,0.175,0.95,0.33,1.409c-0.083,0.089-0.123-0.019-0.168-0.046&#xA;		c-0.704-0.428-1.388-0.363-1.916,0.27c-0.859,1.03-1.16,2.206-0.728,3.508c0.309,0.93,0.951,1.266,1.972,1.078&#xA;		C10.691,10.784,10.879,11.091,10.98,11.436z"/>
	<path class="st7" d="M39.1,7.803c0.066-0.684,0.131-1.368,0.198-2.051c0.021-0.217,0.047-0.433,0.107-0.656&#xA;		c0.098,0.346,0.189,0.694,0.296,1.037c0.348,1.106,0.826,2.146,1.602,3.025c0.084,0.095,0.166,0.297,0.312,0.219&#xA;		c0.136-0.073,0.007-0.242-0.022-0.361c-0.186-0.759-0.382-1.516-0.574-2.273c0.062-0.536,0.127-1.071,0.185-1.607&#xA;		c0.102-0.95,0.198-1.9,0.302-2.85c0.008-0.072-0.015-0.16,0.065-0.213c0.416,0.197,0.832,0.395,1.248,0.592&#xA;		c-0.046,0.262-0.089,0.524-0.138,0.785c-0.388,2.037-0.696,4.085-0.921,6.146c-0.359,0.36-0.718,0.72-1.076,1.08&#xA;		c-0.166-0.15-0.233-0.361-0.334-0.548c-0.38-0.707-0.749-1.419-1.124-2.129C39.19,7.93,39.143,7.868,39.1,7.803z"/>
	<path class="st5" d="M27.047,25.137c0.011-0.04,0.021-0.08,0.032-0.12c0.02-0.972,0.04-1.945,0.061-2.917&#xA;		c0.005-0.218,0.014-0.435,0.022-0.653c0.09-0.001,0.165,0.043,0.239,0.085c0.461,0.257,0.923,0.513,1.379,0.777&#xA;		c0.138,0.08,0.312,0.115,0.39,0.28c0.01,1.316,0.018,2.631,0.085,3.946c0.02,0.383,0.037,0.766,0.055,1.149&#xA;		c0.004,0.034,0.008,0.068,0.011,0.102c0.024,0.079,0.035,0.158,0.013,0.239c-0.312-0.141-0.62-0.292-0.937-0.422&#xA;		c-0.409-0.169-0.79-0.406-1.222-0.519c0.014-0.554-0.041-1.106-0.067-1.659C27.105,25.329,27.129,25.218,27.047,25.137&#xA;		L27.047,25.137z"/>
	<path class="st5" d="M7.626,29.863c-0.167-0.858-0.332-1.717-0.5-2.575c-0.185-0.943-0.372-1.885-0.558-2.827&#xA;		c0.099-0.013,0.182,0.032,0.266,0.074c0.524,0.259,1.05,0.516,1.573,0.777c0.157,0.079,0.347,0.105,0.457,0.266&#xA;		c0.306,1.122,0.615,2.243,0.915,3.367c0.102,0.383,0.239,0.758,0.289,1.154c-0.274,0.008-0.543-0.048-0.814-0.075&#xA;		C8.711,29.97,8.169,29.916,7.626,29.863z"/>
	<path class="st3" d="M17.45,15.446c1.558-0.35,3.115-0.701,4.673-1.051c0.137-0.031,0.275-0.061,0.412-0.092&#xA;		c0.705,0.564,1.409,1.127,2.114,1.691c-0.048,0.084-0.139,0.063-0.209,0.075c-1.552,0.25-3.087,0.583-4.621,0.919&#xA;		c-0.643-0.401-1.289-0.797-1.927-1.205C17.736,15.683,17.556,15.611,17.45,15.446z"/>
	<path class="st4" d="M9.698,7.762c0.012-0.12,0.124-0.105,0.195-0.133c1.123-0.438,2.246-0.875,3.373-1.301&#xA;		c0.154-0.058,0.215-0.137,0.233-0.298c0.091-0.817,0.311-1.599,0.717-2.317c0.542-0.961,1.342-1.55,2.463-1.657&#xA;		c0.242,0.384,0.485,0.768,0.727,1.151c-0.555-0.075-1.057,0.069-1.517,0.377c-0.598,0.401-1.021,0.938-1.267,1.618&#xA;		c-0.191,0.528-0.205,1.073-0.184,1.623c-0.089,0.009-0.154,0.068-0.23,0.106c-0.254,0.127-0.457,0.348-0.747,0.409&#xA;		c0-0.307,0-0.615,0-0.922c-0.241,0.324-0.425,0.657-0.611,0.989c-0.064,0.114-0.123,0.234-0.246,0.301&#xA;		c-0.672,0.225-1.343,0.451-2.015,0.676C10.294,8.173,10.021,7.931,9.698,7.762z"/>
	<path class="st7" d="M20.774,10.776c-0.105-0.07-0.064-0.181-0.071-0.274c-0.057-0.728-0.107-1.456-0.161-2.185&#xA;		c-0.003-0.045-0.02-0.09-0.031-0.135c0.012-0.314-0.04-0.623-0.064-0.934c-0.064-0.912-0.127-1.823-0.191-2.735&#xA;		c-0.011-0.03-0.021-0.06-0.032-0.09l0.004,0.007c0-0.633-0.087-1.261-0.12-1.893c-0.007-0.124-0.043-0.247-0.005-0.371&#xA;		c0.096,0.028,0.192,0.057,0.289,0.083c0.342,0.094,0.661,0.262,1.019,0.302c-0.002,0.117-0.014,0.235-0.006,0.351&#xA;		c0.074,1.054,0.154,2.107,0.227,3.161c0.07,0.991,0.134,1.983,0.201,2.975c0.005,0.069,0,0.145,0.083,0.178&#xA;		c0.002,0.027,0.004,0.053,0.006,0.08C21.492,9.754,21.139,10.27,20.774,10.776z"/>
	<path class="st1" d="M31.493,10.47c0.023-0.9,0.047-1.8,0.07-2.7c0.011-0.438,0.023-0.876,0.034-1.315&#xA;		c0.02-0.424,0.039-0.848,0.059-1.272c-0.024-0.377,0.043-0.754,0-1.131c0.05-0.069,0.032-0.149,0.035-0.226&#xA;		c0.021-0.644,0.04-1.289,0.063-1.933c0.002-0.063-0.036-0.142,0.043-0.19c0.414,0.334,0.828,0.668,1.242,1.002&#xA;		c0,0.025-0.001,0.051-0.001,0.076c-0.07,1.396-0.142,2.792-0.209,4.189c-0.036,0.749-0.108,1.496-0.09,2.247&#xA;		c0.004,0.015,0.005,0.03,0.002,0.045c-0.075,0.069-0.151,0.137-0.224,0.207C32.174,9.801,31.86,10.162,31.493,10.47z"/>
	<path class="st4" d="M31.656,4.052c0.043,0.377-0.024,0.754,0,1.131c-0.083,0.016-0.166,0.03-0.248,0.048&#xA;		c-0.254,0.058-0.493,0.178-0.758,0.191c-0.033-0.002-0.066-0.004-0.099-0.007c-0.009-0.07-0.019-0.139-0.027-0.209&#xA;		c-0.138-1.287-0.922-2.177-2.181-2.474c-0.655-0.154-1.317-0.143-1.981-0.071c-0.127-0.045-0.227-0.131-0.332-0.212&#xA;		c-0.307-0.237-0.592-0.505-0.927-0.706c0.116-0.145,0.295-0.122,0.447-0.154c1.003-0.212,2.011-0.29,3.026-0.086&#xA;		C30.059,1.8,31.116,2.615,31.656,4.052z"/>
	<path class="st6" d="M41.76,9.595c0.225-2.061,0.533-4.11,0.921-6.146c0.05-0.261,0.092-0.523,0.138-0.785&#xA;		c0.149-0.083,0.294-0.172,0.446-0.248c0.275-0.137,0.511-0.348,0.814-0.431c-0.059,0.56-0.205,1.104-0.306,1.657&#xA;		c-0.39,2.134-0.689,4.278-0.762,6.449c-0.003,0.096,0.09,0.264-0.113,0.298c-0.012-0.102-0.101-0.135-0.17-0.18&#xA;		C42.407,10.002,42.083,9.799,41.76,9.595z"/>
	<path class="st5" d="M20.332,24.472c-0.603,0.93-1.207,1.861-1.81,2.791c-0.098-0.026-0.07-0.109-0.076-0.174&#xA;		c-0.173-1.881-0.345-3.762-0.515-5.643c-0.011-0.124-0.005-0.249-0.006-0.374c0.276,0.163,0.55,0.331,0.829,0.488&#xA;		c0.483,0.272,0.939,0.592,1.44,0.833C20.24,23.087,20.286,23.78,20.332,24.472z"/>
	<path class="st5" d="M17.45,15.446c0.106,0.166,0.287,0.238,0.441,0.337c0.638,0.408,1.284,0.804,1.927,1.205&#xA;		c0.015,0.743,0.03,1.487,0.045,2.23c-0.616,0.571-1.232,1.141-1.849,1.712c-0.112,0.063-0.129,0.001-0.138-0.095&#xA;		c-0.045-0.522-0.094-1.043-0.142-1.565c-0.107-1.16-0.214-2.32-0.319-3.48c-0.01-0.116-0.002-0.234-0.002-0.351&#xA;		C17.427,15.438,17.439,15.441,17.45,15.446z"/>
	<path class="st3" d="M8.864,25.577c-0.11-0.161-0.299-0.187-0.457-0.266c-0.523-0.262-1.048-0.518-1.573-0.777&#xA;		c-0.084-0.042-0.167-0.086-0.266-0.074c-0.029-0.03-0.017-0.064-0.009-0.097c0,0,0.001,0,0.001,0c0.05,0.008,0.095,0,0.135-0.033&#xA;		c1.955-0.803,3.909-1.607,5.864-2.41c0,0-0.011,0.004-0.011,0.004c0.005,0.187-0.129,0.312-0.213,0.455&#xA;		c-0.446,0.76-0.901,1.515-1.353,2.272c-0.653,0.268-1.307,0.535-1.96,0.804C8.96,25.482,8.883,25.493,8.864,25.577z"/>
	<path class="st7" d="M25.102,1.744c0.335,0.201,0.619,0.469,0.927,0.706c0.105,0.081,0.205,0.167,0.332,0.212&#xA;		c-0.006,0.024-0.012,0.049-0.017,0.073c-0.015,0.61,0.021,1.218,0.034,1.827c0.029,1.367,0.045,2.735,0.069,4.102&#xA;		c0.002,0.128-0.016,0.266,0.083,0.376c0,0.028,0.001,0.055,0.001,0.083c-0.046,0.028-0.102,0.047-0.136,0.086&#xA;		c-0.354,0.406-0.704,0.815-1.054,1.223c-0.085-0.248-0.015-0.508-0.054-0.759c0.09-0.118,0.183-0.234,0.27-0.355&#xA;		c0.24-0.333,0.544-0.618,0.738-0.985c-0.014-0.113-0.103-0.167-0.18-0.233c-0.293-0.254-0.603-0.49-0.869-0.775&#xA;		c-0.029-0.993-0.062-1.985-0.088-2.978C25.137,3.479,25.121,2.612,25.102,1.744z"/>
	<path class="st7" d="M38.772,2.516c-0.153,1.138-0.304,2.276-0.459,3.413c-0.115,0.843-0.234,1.686-0.352,2.529&#xA;		c-0.007,0.053-0.026,0.104-0.04,0.156c-0.387-0.305-0.675-0.705-1.008-1.061c0.138-1.363,0.274-2.727,0.415-4.09&#xA;		c0.061-0.591,0.132-1.18,0.198-1.771C37.967,1.928,38.37,2.222,38.772,2.516z"/>
	<path class="st3" d="M20.194,22.394c-0.501-0.241-0.957-0.561-1.44-0.833c-0.279-0.157-0.553-0.325-0.829-0.488&#xA;		c0.031-0.022,0.062-0.045,0.092-0.067c0.644-0.127,1.288-0.255,1.933-0.382c0.851-0.168,1.702-0.335,2.553-0.503&#xA;		c0.414,0.221,0.775,0.521,1.155,0.791c0.181,0.128,0.4,0.216,0.519,0.422C22.85,21.687,21.522,22.04,20.194,22.394z"/>
	<path class="st6" d="M25.341,10.432c0.351-0.408,0.701-0.817,1.054-1.223c0.034-0.039,0.09-0.058,0.136-0.086&#xA;		c0.694-0.037,1.362-0.188,1.997-0.468c1.295-0.571,2.014-1.54,2.029-2.982c0.001-0.097,0.004-0.187,0.091-0.25&#xA;		c0.266-0.013,0.504-0.133,0.758-0.191c0.082-0.019,0.165-0.032,0.248-0.048c-0.02,0.424-0.039,0.848-0.059,1.272&#xA;		c-0.482,1.357-1.428,2.315-2.648,3.018C27.836,10.113,26.626,10.421,25.341,10.432z"/>
	<path class="st6" d="M21.916,9.218c-0.083-0.033-0.078-0.109-0.083-0.178c-0.067-0.992-0.132-1.983-0.201-2.975&#xA;		c-0.074-1.054-0.153-2.107-0.227-3.161c-0.008-0.116,0.003-0.234,0.006-0.351c0.382-0.321,0.764-0.641,1.146-0.962&#xA;		c0.036,0.359-0.001,0.718-0.003,1.077c-0.01,1.724,0.021,3.447,0.179,5.165C22.46,8.295,22.188,8.757,21.916,9.218z"/>
	<path class="st3" d="M20.447,7.249c0.024,0.311,0.075,0.621,0.064,0.934c-0.185,0.614-0.421,1.205-0.78,1.742&#xA;		c-0.491,0.734-1.155,1.214-2.027,1.389c-0.091,0.018-0.185,0.018-0.278,0.026c-0.258-0.408-0.516-0.816-0.774-1.224&#xA;		c0,0-0.002,0.002-0.002,0.002c1.186-0.127,2.085-0.669,2.579-1.791c0.218-0.494,0.3-1.017,0.335-1.55&#xA;		c0.086,0.036,0.178,0.062,0.257,0.109C20.027,7.011,20.218,7.162,20.447,7.249z"/>
	<path class="st0" d="M12.559,21.921c-1.955,0.803-3.909,1.607-5.864,2.41c-0.027-0.006-0.054-0.012-0.082-0.017&#xA;		c0.531-0.731,1.063-1.461,1.594-2.192c0.703-0.256,1.402-0.523,2.088-0.821c0.649,0.218,1.322,0.343,1.981,0.523&#xA;		C12.372,21.85,12.478,21.85,12.559,21.921z"/>
	<path class="st0" d="M22.503,20.12c-0.851,0.168-1.702,0.335-2.553,0.503c-0.644,0.127-1.289,0.254-1.933,0.382&#xA;		c-0.001-0.025-0.002-0.05-0.003-0.075c0.616-0.571,1.232-1.141,1.849-1.712c1.148-0.308,2.295-0.617,3.444-0.923&#xA;		c0.069-0.018,0.14-0.085,0.217-0.016C23.184,18.893,22.844,19.506,22.503,20.12z"/>
	<path class="st7" d="M16.651,10.116c0.258,0.408,0.516,0.816,0.774,1.224c-1.008,0.133-1.859-0.193-2.588-0.88&#xA;		c-0.416-0.392-0.693-0.88-0.953-1.38c-0.133-0.386-0.262-0.773-0.351-1.172c-0.023-0.19-0.047-0.379-0.07-0.569&#xA;		c0.29-0.061,0.492-0.282,0.747-0.409c0.076-0.038,0.141-0.096,0.23-0.106c0.015,0.06,0.037,0.12,0.043,0.181&#xA;		c0.05,0.493,0.15,0.976,0.338,1.434C15.165,9.284,15.686,9.944,16.651,10.116z"/>
	<path class="st6" d="M20.447,7.249c-0.229-0.087-0.42-0.237-0.627-0.362c-0.079-0.048-0.171-0.074-0.257-0.109&#xA;		c0.019-0.646-0.022-1.285-0.277-1.888c-0.362-0.855-0.968-1.446-1.884-1.686l0.003,0.004c-0.242-0.384-0.485-0.768-0.727-1.151&#xA;		c0.844-0.119,1.576,0.142,2.22,0.674c0.525,0.434,0.943,0.957,1.241,1.572c0.022,0.046,0.025,0.109,0.088,0.129&#xA;		c0,0-0.004-0.007-0.004-0.007c0.011,0.03,0.021,0.06,0.032,0.09C20.319,5.426,20.383,6.337,20.447,7.249z"/>
	<path class="st6" d="M32.739,9.217c-0.018-0.751,0.054-1.498,0.09-2.247c0.067-1.396,0.139-2.792,0.209-4.189&#xA;		c0.065-0.001,0.118,0.025,0.167,0.069c0.233,0.204,0.474,0.399,0.7,0.61c0.118,0.11,0.315,0.167,0.298,0.384&#xA;		c-0.036,0.366-0.071,0.732-0.107,1.098c-0.376,0.265-0.753,0.53-1.129,0.795c-0.015,0.023-0.03,0.045-0.045,0.068&#xA;		c0.06,0.06,0.115,0.126,0.18,0.18c0.3,0.251,0.603,0.498,0.906,0.747C33.989,7.104,33.97,7.477,33.95,7.85&#xA;		C33.547,8.305,33.143,8.761,32.739,9.217z"/>
	<path class="st8" d="M31.493,10.47c0.367-0.307,0.681-0.669,1.025-1c0.073-0.071,0.149-0.138,0.224-0.207&#xA;		c0.039,0,0.079,0.005,0.117,0c1.571-0.179,3.142-0.36,4.714-0.537c0.103-0.012,0.215-0.068,0.312,0.025&#xA;		c-0.435,0.35-0.816,0.758-1.232,1.129c-1.398,0.071-2.786,0.238-4.17,0.445C32.152,10.374,31.83,10.475,31.493,10.47z"/>
	<path class="st0" d="M37.884,8.751c-0.097-0.093-0.209-0.036-0.312-0.025C36,8.903,34.429,9.084,32.858,9.263&#xA;		c-0.039,0.004-0.078,0-0.117,0c0.003-0.015,0.002-0.031-0.002-0.045c0.404-0.456,0.808-0.912,1.211-1.367&#xA;		c0.988-0.099,1.975-0.198,2.963-0.296c0.333,0.357,0.621,0.756,1.008,1.061c-0.01,0.044-0.019,0.088-0.029,0.132&#xA;		C37.892,8.747,37.884,8.751,37.884,8.751z"/>
	<path class="st8" d="M13.532,7.908c0.089,0.399,0.218,0.786,0.351,1.172c-0.126,0.484-0.294,0.953-0.533,1.394&#xA;		c-0.522,0.964-1.262,1.674-2.338,1.987c-0.027-0.342,0.026-0.686-0.037-1.027c0.843-0.356,1.367-0.99,1.632-1.856&#xA;		c0.185-0.604,0.154-1.222,0.125-1.84c0.076-0.092,0.156-0.021,0.231-0.002C13.155,7.786,13.324,7.912,13.532,7.908z"/>
	<path class="st8" d="M26.296,8.334c-0.194,0.367-0.498,0.652-0.738,0.985c-0.087,0.121-0.18,0.237-0.27,0.355&#xA;		c-1.429,0.249-2.829,0.616-4.219,1.026c-0.097,0.029-0.196,0.052-0.294,0.077c0.365-0.506,0.718-1.022,1.148-1.478&#xA;		C23.38,8.977,24.838,8.655,26.296,8.334z"/>
	<path class="st0" d="M26.296,8.334c-1.458,0.322-2.916,0.643-4.374,0.965c-0.002-0.027-0.004-0.053-0.006-0.08&#xA;		c0.272-0.462,0.544-0.923,0.816-1.385c0.839-0.169,1.677-0.339,2.516-0.508c0.265,0.285,0.575,0.521,0.869,0.775&#xA;		C26.193,8.167,26.282,8.22,26.296,8.334z"/>
	<path class="st4" d="M33.04,2.706c-0.414-0.334-0.828-0.668-1.242-1.002c0.495-0.084,0.997-0.088,1.495-0.13&#xA;		c1.053-0.088,2.108-0.162,3.162-0.236c0.092-0.006,0.198-0.064,0.281,0.031c-0.272,0.374-0.543,0.748-0.815,1.121&#xA;		C34.96,2.562,34,2.634,33.04,2.706z"/>
	<path class="st3" d="M34.262,25.678c0.638,0.145,1.277,0.288,1.914,0.436c0.092,0.021,0.183,0.037,0.277,0.035&#xA;		c0.021,0.042,0.041,0.084,0.062,0.125c-0.908,0.786-1.817,1.573-2.726,2.358c-0.064,0.055-0.136,0.101-0.204,0.152&#xA;		c-0.015-0.311,0.106-0.597,0.169-0.892C33.915,27.152,34.092,26.416,34.262,25.678z"/>
	<path class="st1" d="M27.046,25.136c0.082,0.083,0.058,0.193,0.063,0.289c0.026,0.553,0.081,1.105,0.067,1.659&#xA;		c-0.661,0.644-1.295,1.315-1.925,1.989c-0.091-0.063-0.043-0.156-0.042-0.233c0.006-0.44,0.02-0.88,0.031-1.319&#xA;		C25.842,26.726,26.444,25.931,27.046,25.136z"/>
	<path class="st6" d="M24.649,15.994c-0.705-0.564-1.409-1.128-2.114-1.691c0.393-0.753,0.785-1.506,1.178-2.259&#xA;		c0.225,0.745,0.377,1.509,0.556,2.266C24.402,14.869,24.564,15.423,24.649,15.994z"/>
	<path class="st4" d="M7.141,14.63c-0.704,0.72-1.408,1.441-2.112,2.161c-0.845-0.156-1.689-0.311-2.534-0.467&#xA;		c0.805-0.3,1.609-0.604,2.416-0.898C5.653,15.155,6.398,14.895,7.141,14.63z"/>
	<path class="st4" d="M11.472,15.427c-0.523-0.02-1.025-0.17-1.537-0.254c-0.329-0.054-0.658-0.114-0.986-0.171&#xA;		c0.266-0.167,0.571-0.234,0.86-0.341c1.185-0.438,2.373-0.868,3.561-1.299c0.071-0.026,0.139-0.076,0.223-0.053&#xA;		c-0.232,0.306-0.529,0.55-0.798,0.82C12.357,14.565,11.913,14.995,11.472,15.427z"/>
	<path class="st8" d="M25.252,29.073c0.63-0.674,1.264-1.344,1.925-1.989c0.433,0.113,0.813,0.35,1.222,0.518&#xA;		c0.317,0.13,0.625,0.281,0.937,0.422c-0.026,0.049-0.078,0.046-0.122,0.057c-1.282,0.326-2.564,0.651-3.846,0.976&#xA;		C25.33,29.068,25.29,29.068,25.252,29.073z"/>
	<path class="st8" d="M33.04,2.706C34,2.634,34.96,2.562,35.921,2.49c0.338,0.347,0.676,0.694,1.014,1.041&#xA;		c0,0-0.003-0.007-0.003-0.007c-0.002,0.014-0.004,0.028-0.007,0.042c-0.6,0.035-1.2,0.069-1.8,0.106&#xA;		c-0.242,0.015-0.483,0.04-0.726,0.049c-0.098,0.004-0.164,0.03-0.197,0.124c0.017-0.217-0.18-0.274-0.298-0.384&#xA;		c-0.226-0.211-0.467-0.406-0.7-0.61c-0.049-0.043-0.102-0.069-0.167-0.069C33.039,2.756,33.039,2.731,33.04,2.706z"/>
	<path class="st0" d="M12.733,7.739c0.029,0.618,0.06,1.235-0.125,1.84c-0.265,0.865-0.789,1.5-1.632,1.856&#xA;		c0,0,0.005,0.002,0.005,0.002c-0.102-0.345-0.29-0.652-0.438-0.976c0.904-0.271,1.342-0.909,1.432-1.819&#xA;		c0.21-0.293,0.421-0.586,0.631-0.88C12.645,7.737,12.682,7.698,12.733,7.739z"/>
	<path class="st8" d="M12.374,30.67c0.184-0.338,0.458-0.608,0.692-0.907c0.347-0.442,0.706-0.874,1.061-1.31&#xA;		c0.771,0.093,1.537,0.223,2.297,0.381c-0.986,0.456-1.97,0.915-2.958,1.365C13.105,30.363,12.757,30.558,12.374,30.67z"/>
	<path class="st8" d="M7.626,29.863c0.542,0.054,1.085,0.108,1.627,0.161c0.271,0.027,0.54,0.082,0.814,0.075&#xA;		c-0.019,0.063-0.081,0.069-0.128,0.091c-1.302,0.6-2.604,1.199-3.906,1.797c-0.049,0.022-0.095,0.058-0.154,0.043&#xA;		C6.462,31.307,7.044,30.585,7.626,29.863z"/>
	<path class="st3" d="M29.17,22.589c-0.078-0.165-0.252-0.2-0.39-0.28c-0.457-0.264-0.919-0.52-1.379-0.777&#xA;		c-0.074-0.041-0.149-0.085-0.239-0.085c0.01-0.015,0.019-0.03,0.028-0.045c0.027-0.008,0.054-0.016,0.081-0.025&#xA;		c1.017-0.293,2.014-0.638,2.975-1.085c0.004,0.099-0.053,0.177-0.093,0.26c-0.29,0.593-0.582,1.186-0.873,1.778&#xA;		c-0.038,0.076-0.083,0.15-0.081,0.24C29.192,22.581,29.183,22.587,29.17,22.589z"/>
	<path class="st8" d="M34.008,6.732c-0.302-0.249-0.605-0.496-0.906-0.747c-0.065-0.054-0.12-0.12-0.18-0.18&#xA;		c0.017-0.007,0.035-0.014,0.052-0.021c0.841-0.052,1.683-0.104,2.524-0.157c0.124,0.179,0.283,0.322,0.452,0.458&#xA;		c0.117,0.094,0.261,0.174,0.268,0.354c-0.645,0.081-1.29,0.162-1.935,0.245C34.193,6.696,34.101,6.716,34.008,6.732z"/>
	<path class="st6" d="M22.503,20.12c0.341-0.614,0.681-1.227,1.022-1.841c0.225,0.957,0.45,1.914,0.672,2.871&#xA;		c0.014,0.06,0.077,0.132-0.02,0.183c-0.119-0.206-0.338-0.293-0.519-0.422C23.278,20.641,22.918,20.341,22.503,20.12z"/>
	<path class="st4" d="M35.5,5.627c-0.841,0.052-1.683,0.104-2.524,0.157c-0.003-0.015-0.005-0.031-0.008-0.047&#xA;		c0.376-0.265,0.753-0.53,1.129-0.795c0.597-0.071,1.195-0.143,1.792-0.21c0.087-0.01,0.181-0.066,0.267,0.011&#xA;		C35.922,5.026,35.703,5.321,35.5,5.627z"/>
	<g>
		<polygon class="st9" points="33.585,28.784 33.587,28.783 33.587,28.781"/>
		<path class="st9" d="M49.95,17.373c-0.554-1.775-1.446-3.346-2.924-4.529c-0.701-0.561-1.493-0.947-2.362-1.168&#xA;			c-0.177-0.045-0.232-0.111-0.232-0.297c0.006-2.588,0.351-5.138,0.842-7.672c0.104-0.538,0.219-1.074,0.33-1.61&#xA;			c0.162-0.783-0.39-1.461-1.19-1.429c-0.885,0.034-1.769,0.091-2.653,0.146c-0.157,0.01-0.252-0.003-0.307-0.186&#xA;			C41.368,0.34,41.102,0.19,40.791,0.21c-0.813,0.051-1.627,0.103-2.44,0.159c-0.147,0.01-0.262,0.018-0.338-0.157&#xA;			c-0.071-0.163-0.237-0.215-0.417-0.201c-1.735,0.132-3.469,0.264-5.204,0.395c-0.563,0.043-1.126,0.083-1.688,0.125&#xA;			c-0.148,0.011-0.301,0.003-0.394,0.159c-0.042,0.07-0.109,0.041-0.168,0.016c-1.366-0.585-2.79-0.587-4.229-0.406&#xA;			c-0.482,0.061-0.959,0.151-1.433,0.26c-0.371,0.086-0.442,0.17-0.445,0.539c-0.014,1.676-0.027,3.353-0.043,5.029&#xA;			c-0.001,0.083,0.03,0.182-0.055,0.24c-0.083,0.056-0.176,0.123-0.281,0.081c-0.098-0.039-0.077-0.146-0.079-0.228&#xA;			c-0.045-1.895-0.092-3.79-0.03-5.686c0.013-0.394-0.068-0.465-0.448-0.375c-1.357,0.32-2.714,0.638-4.069,0.963&#xA;			c-0.175,0.042-0.326,0.031-0.496-0.035c-1.871-0.726-4.029-0.079-5.255,1.581c-0.132,0.179-0.206,0.205-0.393,0.063&#xA;			C11.231,1.471,8.862,1.534,7.12,2.877C6.026,3.72,5.385,4.862,5.013,6.162c-0.593,2.072-0.39,4.06,0.715,5.931&#xA;			c0.249,0.421,0.597,0.764,0.945,1.104c0.173,0.169,0.174,0.184-0.053,0.267c-1.434,0.525-2.86,1.07-4.305,1.563&#xA;			c-0.676,0.231-1.186,0.577-1.375,1.295c0,0.172,0,0.345,0,0.517c0.169,0.446,0.228,0.918,0.328,1.38&#xA;			c1.062,4.938,2.121,9.877,3.174,14.817c0.101,0.474,0.347,0.793,0.824,0.919C5.284,33.961,5.298,33.985,5.314,34&#xA;			c0.11,0,0.22,0,0.329,0c1.683-0.772,3.367-1.542,5.049-2.317c0.138-0.063,0.188-0.039,0.226,0.11&#xA;			c0.195,0.761,0.799,1.044,1.514,0.717c0.855-0.39,1.71-0.779,2.562-1.174c0.138-0.064,0.207-0.07,0.28,0.096&#xA;			c0.151,0.344,0.476,0.459,0.868,0.338c1.212-0.375,2.421-0.758,3.635-1.126c1.199-0.364,2.402-0.713,3.621-1.004&#xA;			c0.198-0.047,0.286-0.044,0.3,0.208c0.04,0.715,0.694,1.195,1.389,1.023c1.589-0.393,3.175-0.795,4.759-1.205&#xA;			c0.638-0.165,1.008-0.75,0.95-1.438c-0.009-0.103-0.087-0.257,0.027-0.301c0.136-0.052,0.168,0.127,0.229,0.213&#xA;			c0.408,0.584,0.807,1.175,1.213,1.761c0.538,0.774,1.489,0.9,2.209,0.29c0.538-0.456,1.072-0.916,1.604-1.38&#xA;			c0.107-0.093,0.175-0.124,0.281,0.007c2.341,2.892,6.952,3.325,9.967,0.626c2.223-1.989,3.541-4.473,3.915-7.441&#xA;			C50.438,20.443,50.423,18.888,49.95,17.373z M6.556,10.64C5.993,8.829,6.018,7.022,6.821,5.279&#xA;			c0.686-1.488,2.095-2.318,3.665-2.212c0.702,0.047,1.321,0.311,1.829,0.81c0.037,0.036,0.091,0.066,0.082,0.132&#xA;			c-0.308,0.565-0.647,1.112-1.016,1.641c-0.083,0.089-0.123-0.019-0.168-0.046c-0.704-0.428-1.388-0.363-1.916,0.27&#xA;			c-0.859,1.03-1.16,2.206-0.728,3.508c0.309,0.93,0.951,1.266,1.972,1.078c0.904-0.271,1.342-0.909,1.432-1.819&#xA;			c-0.58,0.249-1.16,0.499-1.741,0.747c-0.078,0.033-0.16,0.058-0.241,0.087C9.879,9.223,9.885,8.947,9.835,8.682&#xA;			C9.779,8.378,9.743,8.069,9.698,7.762c0.012-0.12,0.124-0.105,0.195-0.133c1.123-0.438,2.246-0.875,3.373-1.301&#xA;			c0.154-0.058,0.215-0.137,0.233-0.298c0.091-0.817,0.311-1.598,0.717-2.317c0.542-0.961,1.342-1.55,2.463-1.657&#xA;			c0.844-0.119,1.576,0.142,2.22,0.674c0.525,0.434,0.943,0.957,1.241,1.572c0.022,0.046,0.025,0.109,0.088,0.129&#xA;			c0-0.633-0.087-1.261-0.12-1.893c-0.007-0.124-0.043-0.247-0.005-0.371c0.617-0.199,1.256-0.306,1.884-0.463&#xA;			c0.187-0.047,0.372-0.115,0.569-0.113c0.036,0.359-0.001,0.718-0.003,1.077c-0.01,1.724,0.021,3.447,0.179,5.165&#xA;			c0.839-0.169,1.677-0.339,2.516-0.508c-0.03-0.993-0.062-1.985-0.088-2.978c-0.023-0.868-0.039-1.735-0.058-2.603&#xA;			c0.116-0.145,0.295-0.122,0.447-0.154c1.003-0.212,2.011-0.29,3.026-0.086c1.484,0.297,2.54,1.112,3.08,2.549&#xA;			c0.05-0.069,0.032-0.149,0.035-0.226c0.021-0.644,0.04-1.289,0.063-1.933c0.002-0.063-0.036-0.142,0.043-0.19&#xA;			c0.495-0.084,0.997-0.088,1.495-0.13c1.053-0.088,2.108-0.162,3.162-0.236c0.092-0.006,0.198-0.064,0.281,0.031&#xA;			c0.091,0.719,0.16,1.439,0.199,2.163l-0.003-0.007c0.004,0.011,0.008,0.023,0.011,0.035c0,0.001-0.011,0.005-0.017,0.007&#xA;			c-0.6,0.035-1.2,0.069-1.8,0.106c-0.242,0.015-0.483,0.04-0.726,0.049c-0.098,0.004-0.164,0.03-0.197,0.123&#xA;			c-0.036,0.366-0.071,0.732-0.107,1.098c0.597-0.071,1.195-0.143,1.792-0.21c0.087-0.01,0.181-0.066,0.267,0.011&#xA;			c0.047,0.524,0.095,1.047,0.141,1.571c0.005,0.058,0.029,0.133-0.077,0.126c-0.645,0.081-1.29,0.162-1.934,0.245&#xA;			c-0.093,0.012-0.185,0.031-0.277,0.047C33.989,7.104,33.97,7.477,33.95,7.85c0.988-0.099,1.975-0.198,2.963-0.297&#xA;			c0.138-1.363,0.274-2.727,0.415-4.09c0.061-0.591,0.132-1.18,0.198-1.771c0.089-0.09,0.207-0.052,0.309-0.058&#xA;			c0.74-0.044,1.478-0.119,2.22-0.125c0.104,0.299,0.069,0.614,0.108,0.921c0.15,1.172,0.313,2.341,0.574,3.493&#xA;			c0.064,0.281,0.141,0.561,0.283,0.817c0.062-0.536,0.127-1.071,0.185-1.607c0.102-0.95,0.198-1.9,0.302-2.85&#xA;			c0.008-0.072-0.015-0.16,0.065-0.213c0.835-0.069,1.67-0.127,2.508-0.135c0.008,0.013,0.017,0.026,0.025,0.039&#xA;			c-0.008,0.003-0.017,0.007-0.025,0.01c-0.059,0.56-0.205,1.104-0.306,1.656c-0.39,2.134-0.689,4.278-0.762,6.449&#xA;			c-0.003,0.096,0.09,0.264-0.113,0.298c-0.736,0.112-1.474,0.216-2.216,0.287c-0.166-0.15-0.233-0.361-0.334-0.548&#xA;			c-0.38-0.707-0.749-1.419-1.124-2.129C39.19,7.93,39.143,7.868,39.1,7.803c-0.088,0.817-0.146,1.636-0.169,2.458&#xA;			c-0.002,0.084,0.045,0.192-0.074,0.245c-0.735,0.105-1.47,0.21-2.205,0.313c-0.02,0.003-0.042-0.013-0.064-0.021&#xA;			c-0.021-0.309,0.067-0.611,0.063-0.919c-1.398,0.071-2.786,0.238-4.17,0.445c-0.329,0.049-0.652,0.15-0.989,0.144&#xA;			c0.023-0.9,0.047-1.8,0.07-2.7c0.011-0.438,0.023-0.876,0.034-1.315c-0.482,1.357-1.428,2.315-2.648,3.017&#xA;			c-1.112,0.64-2.322,0.949-3.607,0.959c-0.085-0.248-0.015-0.508-0.054-0.759c-1.429,0.249-2.829,0.617-4.219,1.026&#xA;			c-0.097,0.029-0.196,0.052-0.294,0.077c-0.105-0.07-0.064-0.181-0.072-0.274c-0.057-0.728-0.107-1.456-0.161-2.185&#xA;			c-0.003-0.045-0.02-0.09-0.031-0.135c-0.185,0.614-0.421,1.205-0.781,1.742c-0.491,0.734-1.155,1.214-2.027,1.389&#xA;			c-0.091,0.018-0.185,0.018-0.278,0.026c-1.008,0.133-1.859-0.193-2.589-0.88c-0.416-0.392-0.693-0.88-0.953-1.38&#xA;			c-0.126,0.484-0.294,0.953-0.533,1.394c-0.522,0.964-1.262,1.674-2.338,1.987c-0.911,0.306-1.829,0.352-2.74,0.022&#xA;			C7.392,12.165,6.826,11.508,6.556,10.64z M39.324,12.251c0.006,0.085-0.043,0.111-0.091,0.139&#xA;			c-0.562,0.332-1.073,0.73-1.541,1.185c-0.105,0.102-0.164,0.089-0.219-0.046c-0.123-0.297-0.28-0.577-0.468-0.838&#xA;			c-0.093-0.128-0.078-0.193,0.084-0.215c0.69-0.093,1.38-0.188,2.07-0.282C39.23,12.184,39.301,12.174,39.324,12.251z&#xA;			 M48.899,20.682c-0.062,0.956-0.201,1.897-0.497,2.811c-0.024,0.073-0.056,0.144-0.085,0.216&#xA;			c-0.119,0.449-0.313,0.869-0.527,1.277c-0.614,1.174-1.344,2.265-2.371,3.124c-1.146,0.959-2.447,1.506-3.969,1.429&#xA;			c-0.085-0.004-0.169-0.026-0.253-0.039c-1.529-0.09-2.763-0.767-3.772-1.893c-0.362-0.404-0.632-0.871-0.911-1.332&#xA;			c-0.909,0.786-1.817,1.573-2.726,2.358c-0.063,0.055-0.135,0.101-0.203,0.15c-0.003,0.027-0.017,0.042-0.046,0.039&#xA;			c-0.104-0.026-0.128-0.128-0.178-0.201c-1.342-1.954-2.682-3.91-4.022-5.865c-0.044-0.064-0.095-0.124-0.142-0.185&#xA;			c-0.007,0.01-0.016,0.016-0.028,0.018c0.01,1.316,0.018,2.631,0.085,3.946c0.02,0.383,0.037,0.766,0.055,1.149&#xA;			c0.004,0.034,0.008,0.068,0.011,0.102c0.024,0.079,0.035,0.158,0.013,0.239c-0.026,0.049-0.078,0.046-0.122,0.057&#xA;			c-1.282,0.326-2.564,0.651-3.846,0.976c-0.038,0.01-0.077,0.01-0.116,0.015c-0.091-0.063-0.043-0.156-0.042-0.233&#xA;			c0.006-0.44,0.02-0.88,0.031-1.319c-2.449,0.484-4.851,1.151-7.233,1.893c-0.454,0.141-0.9,0.31-1.368,0.404&#xA;			c-0.113-0.041-0.069-0.143-0.081-0.219c-0.038-0.253-0.068-0.507-0.101-0.761l-0.018,0.001l-0.017-0.004&#xA;			c-0.986,0.456-1.97,0.915-2.958,1.365c-0.361,0.164-0.708,0.36-1.092,0.471c-0.001,0.037-0.03,0.039-0.059,0.041&#xA;			c-0.089-0.041-0.072-0.131-0.087-0.203c-0.416-1.952-0.831-3.904-1.246-5.856c-0.653,0.268-1.307,0.535-1.96,0.804&#xA;			c-0.062,0.026-0.139,0.036-0.158,0.121c0.306,1.122,0.615,2.243,0.915,3.367c0.102,0.383,0.239,0.758,0.289,1.154&#xA;			c-0.019,0.063-0.081,0.069-0.128,0.091c-1.302,0.6-2.604,1.199-3.906,1.797c-0.049,0.022-0.095,0.058-0.154,0.043&#xA;			c-0.118-0.013-0.087-0.115-0.102-0.182c-0.783-3.642-1.563-7.284-2.344-10.927c-0.307-1.431-0.615-2.862-0.917-4.293&#xA;			c-0.02-0.096-0.1-0.197-0.021-0.303c0.805-0.3,1.609-0.604,2.416-0.898c0.741-0.27,1.486-0.531,2.229-0.796&#xA;			c0.12,0.232,0.108,0.491,0.143,0.738c0.312,2.251,0.617,4.502,0.924,6.754c0.703-0.256,1.402-0.523,2.088-0.821&#xA;			c-0.327-1.504-0.658-3.007-0.979-4.512c-0.127-0.595-0.282-1.184-0.367-1.787c0.266-0.167,0.571-0.234,0.86-0.341&#xA;			c1.185-0.438,2.373-0.868,3.561-1.299c0.07-0.026,0.137-0.074,0.22-0.053c0.005-0.037,0.033-0.036,0.062-0.033&#xA;			c0.119,0.383,0.12,0.783,0.167,1.175c0.454,3.772,1.047,7.52,1.94,11.217c0.18,0.745,0.353,1.492,0.597,2.22&#xA;			c-0.094-0.887-0.186-1.775-0.283-2.662c-0.213-1.938-0.429-3.876-0.642-5.814c-0.186-1.697-0.37-3.394-0.553-5.091&#xA;			c-0.012-0.116-0.01-0.233-0.015-0.35c0.094-0.101,0.228-0.084,0.345-0.11c2.762-0.606,5.524-1.209,8.287-1.809&#xA;			c0.068-0.015,0.143-0.08,0.217-0.008c0.225,0.745,0.377,1.509,0.556,2.266c0.133,0.56,0.294,1.114,0.379,1.685&#xA;			c-0.048,0.084-0.139,0.063-0.209,0.075c-1.552,0.25-3.087,0.583-4.621,0.919c0.015,0.743,0.03,1.487,0.045,2.23&#xA;			c1.148-0.308,2.295-0.617,3.444-0.923c0.069-0.018,0.14-0.085,0.217-0.016c0.225,0.957,0.45,1.914,0.672,2.871&#xA;			c0.014,0.06,0.077,0.132-0.02,0.183c-1.328,0.354-2.656,0.707-3.983,1.061c0.046,0.693,0.092,1.386,0.138,2.079&#xA;			c1.238-0.295,2.477-0.589,3.715-0.886c0.433-0.104,0.865-0.213,1.297-0.32c0.011-1.9,0.036-3.8,0.004-5.699&#xA;			c-0.026-1.516-0.067-3.032-0.217-4.543c-0.006-0.055-0.046-0.124,0.03-0.168c1.082-0.317,2.184-0.543,3.292-0.745&#xA;			c1.177-0.214,2.353-0.443,3.56-0.409c0.907,0.025,1.797,0.13,2.625,0.528c1.191,0.572,1.761,1.542,1.789,2.848&#xA;			c0.055,0.659-0.05,1.299-0.276,1.913c-0.561,1.527-1.61,2.642-2.989,3.468c-0.01,0.051,0.016,0.09,0.044,0.129&#xA;			c0.795,1.088,1.644,2.132,2.517,3.158c-0.116-0.907-0.164-1.814-0.038-2.724c0.027-0.885,0.245-1.732,0.54-2.559&#xA;			c0.573-1.606,1.415-3.051,2.673-4.22c1.133-1.051,2.466-1.637,4.039-1.594c0.1,0.003,0.204-0.009,0.3,0.038&#xA;			c1.646,0.085,2.952,0.817,3.938,2.114C48.495,16.539,49.039,18.511,48.899,20.682z"/>
		<polygon class="st9" points="44.076,1.987 44.08,1.985 44.08,1.985"/>
		<polygon class="st9" points="12.374,30.67 12.374,30.67 12.374,30.664"/>
		<polygon class="st9" points="13.593,13.309 13.59,13.309 13.589,13.312"/>
	</g>
	<path class="st8" d="M12.605,7.761c-0.21,0.293-0.421,0.587-0.631,0.88c-0.58,0.249-1.16,0.499-1.741,0.747&#xA;		c-0.078,0.033-0.16,0.058-0.24,0.087c0.199-0.364,0.398-0.728,0.597-1.091c0.672-0.225,1.343-0.451,2.015-0.676&#xA;		C12.604,7.725,12.605,7.743,12.605,7.761z"/>
	<path class="st4" d="M38.772,2.516c-0.402-0.295-0.805-0.588-1.246-0.823c0.089-0.09,0.207-0.052,0.309-0.058&#xA;		c0.74-0.044,1.478-0.118,2.22-0.125C39.645,1.868,39.205,2.188,38.772,2.516z"/>
	<path class="st8" d="M37.812,9.681c0.253,0.253,0.57,0.419,0.849,0.636c0.073,0.057,0.159,0.097,0.197,0.189&#xA;		c-0.735,0.105-1.47,0.21-2.205,0.313c-0.02,0.003-0.042-0.013-0.064-0.021C36.997,10.426,37.404,10.054,37.812,9.681z"/>
	<path class="st8" d="M41.76,9.595c0.323,0.204,0.647,0.407,0.969,0.614c0.07,0.045,0.159,0.077,0.17,0.18&#xA;		c-0.736,0.112-1.474,0.216-2.216,0.287C41.043,10.315,41.401,9.955,41.76,9.595z"/>
	<path class="st7" d="M37.812,9.681c-0.408,0.373-0.815,0.745-1.223,1.118c-0.021-0.309,0.067-0.611,0.063-0.919&#xA;		c0.416-0.371,0.797-0.779,1.232-1.129c0,0,0.009-0.005,0.009-0.005C37.936,9.064,37.799,9.366,37.812,9.681z"/>
	<path class="st8" d="M11.382,5.65c-0.154-0.459-0.271-0.928-0.33-1.409c0.448-0.077,0.897-0.154,1.345-0.231&#xA;		C12.089,4.574,11.751,5.121,11.382,5.65z"/>
	<path class="st6" d="M36.935,3.531c-0.338-0.347-0.676-0.694-1.014-1.041c0.272-0.374,0.543-0.748,0.815-1.121&#xA;		C36.826,2.087,36.895,2.808,36.935,3.531z"/>
	<path class="st4" d="M22.556,1.591c-0.382,0.321-0.764,0.641-1.146,0.962c-0.358-0.04-0.677-0.209-1.019-0.302&#xA;		c-0.097-0.026-0.192-0.055-0.289-0.083c0.617-0.199,1.256-0.306,1.884-0.463C22.173,1.657,22.358,1.589,22.556,1.591z"/>
	<path class="st4" d="M44.08,1.985c-0.304,0.083-0.539,0.294-0.814,0.431c-0.152,0.076-0.298,0.165-0.446,0.248&#xA;		c-0.416-0.197-0.832-0.395-1.248-0.592c0.835-0.069,1.67-0.127,2.508-0.135c-0.001,0.017-0.003,0.033-0.004,0.05L44.08,1.985z"/>
	<path class="st7" d="M10.59,8.383c-0.199,0.364-0.398,0.728-0.597,1.091C9.879,9.223,9.885,8.947,9.835,8.682&#xA;		C9.779,8.378,9.743,8.069,9.698,7.762C10.021,7.931,10.294,8.173,10.59,8.383z"/>
	<path class="st6" d="M35.5,5.627c0.204-0.306,0.422-0.601,0.656-0.884c0.047,0.524,0.095,1.047,0.141,1.571&#xA;		c0.005,0.058,0.029,0.133-0.077,0.126c-0.007-0.18-0.151-0.26-0.268-0.354C35.783,5.949,35.624,5.806,35.5,5.627z"/>
	<path class="st8" d="M29.322,27.786c-0.004-0.034-0.008-0.068-0.011-0.102C29.315,27.717,29.319,27.752,29.322,27.786z"/>
	<path class="st4" d="M13.652,13.276c-0.021,0.012-0.042,0.024-0.063,0.036C13.593,13.271,13.622,13.272,13.652,13.276z"/>
	<path class="st6" d="M36.925,3.567c0.003-0.014,0.005-0.028,0.007-0.042c0.004,0.011,0.008,0.023,0.011,0.035&#xA;		C36.943,3.561,36.931,3.564,36.925,3.567z"/>
	<path class="st6" d="M44.076,1.987c0.001-0.017,0.003-0.033,0.004-0.05c0.008,0.013,0.017,0.026,0.025,0.039&#xA;		C44.096,1.979,44.086,1.983,44.076,1.987z"/>
	<path class="st3" d="M33.541,28.822c0.015-0.014,0.031-0.027,0.046-0.041C33.584,28.809,33.571,28.824,33.541,28.822z"/>
	<path class="st8" d="M12.315,30.711c0.02-0.016,0.04-0.032,0.059-0.047C12.376,30.707,12.345,30.709,12.315,30.711z"/>
	<path class="st5" d="M27.271,21.377c-0.027,0.008-0.054,0.016-0.081,0.025c-0.049-0.078-0.041-0.165-0.038-0.251&#xA;		c0.03-0.986,0.047-1.972,0.093-2.956c0.063-1.328,0.076-2.659,0.188-3.985c0.406,0.337,0.804,0.684,1.22,1.008&#xA;		c0.237,0.184,0.433,0.423,0.715,0.549c-0.015,0.031-0.03,0.062-0.045,0.093c-0.004,0.021-0.007,0.043-0.011,0.064&#xA;		c-0.001,0.07,0,0.14-0.002,0.21c-0.036,0.93-0.073,1.86-0.11,2.79c-0.619,0.741-1.239,1.482-1.854,2.227&#xA;		C27.299,21.208,27.17,21.261,27.271,21.377z"/>
	<path class="st3" d="M29.368,15.766c-0.281-0.126-0.478-0.364-0.715-0.549c-0.416-0.324-0.815-0.671-1.22-1.008&#xA;		c-0.001-0.014-0.001-0.028,0-0.042c1.256-0.251,2.522-0.399,3.805-0.341c0.709,0.032,1.405,0.134,2.047,0.46&#xA;		c0.657,0.333,0.66,0.365,0.113,0.817c-0.441,0.364-0.885,0.724-1.327,1.086c-0.135-0.423-0.451-0.599-0.868-0.619&#xA;		c-0.194-0.009-0.391,0.001-0.584,0.024C30.202,15.645,29.785,15.708,29.368,15.766z"/>
	<path class="st9" d="M29.368,15.766c0.417-0.058,0.833-0.121,1.251-0.171c0.193-0.023,0.39-0.033,0.584-0.024&#xA;		c0.417,0.02,0.733,0.196,0.868,0.619c0.019,0.374-0.138,0.682-0.365,0.962c-0.369,0.455-0.828,0.805-1.318,1.117&#xA;		c-0.382,0.243-0.77,0.476-1.188,0.655c0.037-0.93,0.073-1.86,0.11-2.79c0.003-0.07,0.002-0.14,0.002-0.21&#xA;		c0.004-0.021,0.007-0.042,0.011-0.064C29.338,15.828,29.353,15.797,29.368,15.766z"/>
	<path class="st3" d="M37.623,20.362c0.163-2.413,1.862-4.649,4.068-5.335c0.812-0.253,1.628-0.291,2.434,0.043&#xA;		c-0.002,0.008-0.003,0.016-0.004,0.025c-0.044,0.082-0.083,0.167-0.131,0.246c-0.348,0.564-0.698,1.126-1.047,1.689&#xA;		c-0.629-0.05-1.094,0.26-1.5,0.69c-0.458,0.484-0.763,1.065-1.031,1.668c-0.303,0.68-0.496,1.397-0.711,2.107&#xA;		c-0.322-0.103-0.581-0.323-0.876-0.476C38.419,20.809,38.056,20.521,37.623,20.362z"/>
	<path class="st1" d="M42.943,17.03c0.349-0.563,0.699-1.126,1.047-1.689c0.049-0.079,0.088-0.164,0.131-0.246&#xA;		c0.216,0.013,0.377,0.147,0.54,0.263c1.437,1.023,2.16,2.433,2.241,4.182c0.041,0.873-0.041,1.732-0.3,2.57&#xA;		c-0.663,0.063-1.325,0.125-1.988,0.188c0.021-0.359,0.056-0.718,0.059-1.077c0.008-0.997-0.044-1.988-0.415-2.931&#xA;		C44.014,17.671,43.624,17.197,42.943,17.03z"/>
	<path class="st0" d="M44.615,22.297c0.663-0.063,1.325-0.125,1.988-0.188c0.003,0.015,0.007,0.029,0.012,0.042&#xA;		c-0.194,0.787-0.464,1.544-0.885,2.242c-1.202,1.992-2.971,2.86-5.279,2.659c-0.062-0.005-0.125-0.008-0.188-0.012&#xA;		c0,0,0.003,0.002,0.003,0.002c0.031-0.111,0.121-0.18,0.192-0.261c0.48-0.554,0.963-1.106,1.445-1.658&#xA;		c1.022,0.036,1.705-0.484,2.188-1.332C44.356,23.325,44.496,22.815,44.615,22.297z"/>
	<path class="st5" d="M41.903,25.123c-0.482,0.553-0.964,1.104-1.445,1.658c-0.071,0.081-0.161,0.15-0.192,0.261&#xA;		c-1.214-0.373-1.988-1.206-2.443-2.36c-0.406-1.03-0.44-2.106-0.355-3.192c0.029-0.374,0.081-0.746,0.122-1.119&#xA;		c0.01-0.004,0.021-0.007,0.032-0.009c0.433,0.159,0.796,0.447,1.202,0.657c0.295,0.152,0.554,0.372,0.876,0.476&#xA;		c-0.013,0.43-0.013,0.859,0.046,1.287C39.942,24.185,40.62,24.925,41.903,25.123z"/>
	<path class="st1" d="M6.613,24.313c0.027,0.006,0.054,0.012,0.082,0.017c-0.039,0.033-0.085,0.041-0.135,0.033&#xA;		C6.578,24.347,6.596,24.33,6.613,24.313z"/>
	<path class="st6" d="M16.651,10.116c-0.965-0.172-1.486-0.832-1.832-1.676c-0.188-0.459-0.288-0.941-0.338-1.434&#xA;		c-0.006-0.061-0.028-0.121-0.043-0.181c-0.021-0.55-0.008-1.095,0.184-1.623c0.246-0.68,0.669-1.217,1.267-1.618&#xA;		c0.459-0.308,0.961-0.451,1.517-0.377c0,0-0.003-0.004-0.003-0.004c-0.145,0.408-0.289,0.815-0.434,1.223&#xA;		c-0.459,0.069-0.698,0.392-0.863,0.778c-0.288,0.672-0.431,1.387-0.333,2.106c0.131,0.958,0.596,1.672,1.544,1.589&#xA;		c-0.223,0.406-0.445,0.813-0.668,1.219L16.651,10.116z"/>
	<path class="st6" d="M12.605,7.761c0-0.018-0.001-0.036-0.001-0.054c0.123-0.067,0.182-0.186,0.246-0.301&#xA;		c0.186-0.332,0.37-0.665,0.611-0.989c0,0.307,0,0.615,0,0.922c0.024,0.19,0.047,0.379,0.07,0.569&#xA;		c-0.208,0.004-0.377-0.122-0.568-0.171c-0.075-0.019-0.155-0.091-0.231,0.002C12.682,7.698,12.645,7.737,12.605,7.761z"/>
	<path class="st9" d="M20.256,4.514c-0.011-0.03-0.021-0.06-0.032-0.09C20.234,4.454,20.245,4.484,20.256,4.514z"/>
	<path class="st0" d="M30.649,5.422c-0.088,0.062-0.09,0.153-0.091,0.25c-0.016,1.443-0.734,2.411-2.029,2.982&#xA;		c-0.635,0.28-1.303,0.431-1.997,0.468c0-0.028-0.001-0.055-0.001-0.083c0.36-0.427,0.719-0.854,1.079-1.281&#xA;		c1.191-0.486,1.822-1.426,1.804-2.686c0.307,0.107,0.614,0.217,0.922,0.32c0.068,0.023,0.136,0.09,0.215,0.022&#xA;		C30.583,5.418,30.616,5.42,30.649,5.422z"/>
	<path class="st8" d="M30.55,5.416c-0.079,0.068-0.147,0.001-0.215-0.022c-0.308-0.104-0.615-0.213-0.922-0.32&#xA;		c-0.2-0.783-0.589-1.133-1.358-1.221c-0.138-0.016-0.279-0.016-0.418-0.023c-0.204-0.156-0.392-0.33-0.587-0.496&#xA;		c-0.235-0.2-0.43-0.448-0.706-0.599c0.006-0.024,0.012-0.049,0.017-0.073c0.664-0.071,1.326-0.083,1.981,0.071&#xA;		c1.259,0.297,2.043,1.187,2.181,2.474C30.531,5.276,30.541,5.346,30.55,5.416z"/>
	<path class="st6" d="M26.344,2.735c0.276,0.151,0.471,0.399,0.706,0.599c0.195,0.166,0.383,0.34,0.587,0.496&#xA;		c-0.007,0.03-0.019,0.06-0.021,0.091c-0.076,1.28-0.102,2.559-0.006,3.839c-0.36,0.427-0.719,0.854-1.079,1.281&#xA;		c-0.099-0.109-0.081-0.247-0.083-0.376c-0.025-1.367-0.04-2.735-0.069-4.102C26.365,3.953,26.329,3.344,26.344,2.735z"/>
	<path class="st0" d="M16.968,4.427c0.145-0.408,0.289-0.815,0.434-1.223c0.916,0.24,1.522,0.831,1.884,1.686&#xA;		c0.256,0.603,0.297,1.242,0.277,1.888c-0.035,0.533-0.117,1.057-0.335,1.55c-0.495,1.122-1.393,1.664-2.579,1.791&#xA;		c0.223-0.406,0.445-0.813,0.668-1.219c0.612-0.119,0.963-0.515,1.078-1.1c0.215-1.091-0.096-2.072-0.708-2.97&#xA;		C17.519,4.586,17.257,4.473,16.968,4.427z"/>
	<path class="st1" d="M32.968,5.737c0.003,0.016,0.005,0.031,0.008,0.047c-0.017,0.007-0.035,0.014-0.052,0.021&#xA;		C32.938,5.783,32.953,5.76,32.968,5.737z"/>
	<path class="st3" d="M29.323,15.86c-0.004,0.021-0.007,0.042-0.011,0.064C29.316,15.902,29.319,15.881,29.323,15.86z"/>
	<path class="st10" d="M16.968,4.427c0.289,0.046,0.551,0.16,0.718,0.403c0.612,0.898,0.923,1.879,0.708,2.97&#xA;		c-0.115,0.585-0.466,0.981-1.078,1.1c-0.949,0.083-1.413-0.631-1.544-1.589c-0.099-0.72,0.044-1.434,0.333-2.106&#xA;		C16.27,4.819,16.509,4.495,16.968,4.427z"/>
	<path class="st10" d="M27.609,7.759c-0.096-1.28-0.071-2.559,0.006-3.839c0.002-0.031,0.014-0.061,0.021-0.091&#xA;		c0.139,0.007,0.28,0.007,0.418,0.023c0.77,0.088,1.158,0.439,1.358,1.221C29.431,6.333,28.8,7.272,27.609,7.759z"/>
	<path class="st10" d="M44.258,18.29c-0.244-0.619-0.634-1.093-1.315-1.26c-0.629-0.05-1.094,0.26-1.5,0.69&#xA;		c-0.458,0.484-0.763,1.065-1.031,1.668c-0.303,0.68-0.496,1.397-0.711,2.107c-0.013,0.43-0.013,0.859,0.046,1.287&#xA;		c0.195,1.403,0.873,2.143,2.156,2.341c1.022,0.036,1.705-0.484,2.188-1.332c0.265-0.466,0.406-0.976,0.524-1.493&#xA;		c0.021-0.359,0.056-0.718,0.059-1.077C44.681,20.224,44.629,19.233,44.258,18.29z M43.131,22.029&#xA;		c-0.113,0.606-0.682,0.991-1.225,0.826c-0.293-0.089-0.506-0.28-0.547-0.584c-0.089-0.659-0.066-1.313,0.227-1.93&#xA;		c0.108-0.228,0.252-0.433,0.458-0.587c0.438-0.327,0.924-0.152,1.04,0.384c0.08,0.368,0.098,0.744,0.103,1.244&#xA;		C43.192,21.517,43.178,21.775,43.131,22.029z"/>
</g>
</svg>