<?xml version="1.0" encoding="utf-8"?>
<svg xmlns="http://www.w3.org/2000/svg" width="48" height="48" fill="none" viewBox="0 0 48 48">
  <rect width="48" height="48" fill="#F5F5F5" rx="12"/>
  <path fill="#4285F4" d="M38.504 24.474c0-1.105-.098-2.163-.282-3.18H24.043v5.83l8.166.001a7.015 7.015 0 0 1-3.03 4.695v3.782h4.86c2.839-2.633 4.465-6.528 4.465-11.127Z"/>
  <path fill="#34A853" d="M29.18 31.82c-1.352.916-3.094 1.45-5.133 1.45-3.937 0-7.278-2.66-8.474-6.246H10.56v3.9c2.484 4.944 7.59 8.336 13.488 8.336 4.077 0 7.502-1.344 9.995-3.658l-4.86-3.78-.001-.002Z"/>
  <path fill="#FABB05" d="M15.1 24.13c0-1.007.168-1.98.472-2.895v-3.9H10.56a15.087 15.087 0 0 0-1.606 6.795c0 2.445.58 4.752 1.606 6.796l5.013-3.9a9.148 9.148 0 0 1-.47-2.896H15.1Z"/>
  <path fill="#E94235" d="M24.047 14.988c2.226 0 4.218.769 5.79 2.27l4.308-4.314C31.53 10.5 28.12 9 24.047 9c-5.896 0-11.004 3.392-13.488 8.334l5.014 3.9c1.196-3.585 4.537-6.246 8.474-6.246Z"/>
</svg>