<?xml version="1.0" encoding="utf-8"?>
<svg xmlns="http://www.w3.org/2000/svg" xmlns:xlink="http://www.w3.org/1999/xlink" version="1.1" id="Layer_1" x="0px" y="0px" viewBox="0 0 165.92 34" style="enable-background:new 0 0 165.92 34;">
<style type="text/css">
	.st0{fill:#FFFFFF;}
	.st1{fill-rule:evenodd;clip-rule:evenodd;fill:url(#SVGID_1_);}
	.st2{fill-rule:evenodd;clip-rule:evenodd;fill:url(#SVGID_2_);}
	.st3{fill-rule:evenodd;clip-rule:evenodd;fill:url(#SVGID_3_);}
	.st4{fill-rule:evenodd;clip-rule:evenodd;fill:url(#SVGID_4_);}
	.st5{fill-rule:evenodd;clip-rule:evenodd;fill:url(#SVGID_5_);}
</style>
<g>
	<g>
		<g>
			<path class="st0" d="M159.091,16.332h-0.944V13.63h-0.89v-0.812h2.783v0.812h-0.949V16.332z"/>
			<path class="st0" d="M164.92,16.332h-0.928l0.068-2.693h-0.026l-0.874,2.693h-0.812l-0.896-2.693h-0.032l0.079,2.693h-0.928&#xA;				v-3.515h1.487l0.669,2.208h0.037l0.632-2.208h1.523v3.515H164.92z"/>
		</g>
		<g>
			<path class="st0" d="M49.238,27.512h-4.012V21.64h-5.199v5.872h-4.012v-14.95h4.012v5.649h5.199v-5.649h4.012V27.512z"/>
			<path class="st0" d="M55.625,24.934l-0.718,2.578h-4.168l4.483-14.949h6.074l4.55,14.949h-4.079l-0.785-2.578H55.625z&#xA;				 M58.315,15.542l-1.838,6.501h3.72L58.315,15.542z"/>
			<path class="st0" d="M67.347,12.562h8.136c1.359,0.015,2.443,0.272,3.25,0.773c0.807,0.501,1.21,1.52,1.21,3.059&#xA;				c0,0.867-0.116,1.618-0.347,2.252c-0.231,0.635-0.893,1.043-1.983,1.221v0.112c1.016,0.105,1.7,0.426,2.05,0.964&#xA;				c0.35,0.538,0.527,1.3,0.527,2.286c0,1.674-0.332,2.805-0.997,3.395c-0.665,0.59-1.879,0.886-3.642,0.886h-8.203V12.562z&#xA;				 M73.914,18.546c0.059,0.015,0.119,0.022,0.179,0.022c0.059,0,0.112,0,0.157,0c0.478-0.014,0.886-0.079,1.221-0.19&#xA;				c0.336-0.112,0.504-0.473,0.504-1.087c0-0.538-0.094-0.908-0.28-1.11c-0.187-0.202-0.549-0.302-1.087-0.302h-3.25v2.667H73.914z&#xA;				 M74.026,24.217c0.627,0.016,1.147-0.041,1.558-0.167c0.41-0.127,0.617-0.557,0.617-1.289c0-0.703-0.161-1.116-0.482-1.245&#xA;				c-0.321-0.126-0.795-0.19-1.423-0.19h-2.936v2.891L74.026,24.217L74.026,24.217z"/>
			<path class="st0" d="M85.524,24.934l-0.718,2.578h-4.168l4.483-14.949h6.074l4.55,14.949h-4.079l-0.785-2.578H85.524z&#xA;				 M88.213,15.542l-1.838,6.501h3.72L88.213,15.542z"/>
			<path class="st0" d="M111.724,27.512h-6.791l-4.214-11.497h-0.18l0.18,11.497h-3.922v-14.95h6.746l4.214,11.363h0.157&#xA;				l-0.157-11.363h3.967V27.512z"/>
			<path class="st0" d="M117.708,18.546h6.365v2.779h-6.365v2.891h6.948v3.295h-10.96V12.562h10.825v3.295h-6.813V18.546z"/>
			<path class="st0" d="M126.538,12.562h7.531c1.913,0.015,3.28,0.34,4.102,0.974c0.822,0.635,1.233,1.955,1.233,3.956&#xA;				c0,1.12-0.123,2.028-0.369,2.724c-0.246,0.694-1.065,1.192-2.454,1.49v0.135c0.927,0.06,1.61,0.34,2.052,0.841&#xA;				c0.441,0.501,0.661,1.207,0.661,2.118v2.712h-4.079v-1.994c0-0.598-0.116-1.073-0.347-1.423&#xA;				c-0.231-0.351-0.676-0.526-1.334-0.526h-2.981v3.944h-4.012v-14.95H126.538z M133.733,20.138&#xA;				c0.732,0.016,1.176-0.148,1.333-0.493c0.157-0.343,0.236-0.836,0.236-1.479c0-0.732-0.082-1.27-0.246-1.614&#xA;				c-0.164-0.344-0.672-0.516-1.524-0.516l-2.981-0.022v4.123h3.183V20.138z"/>
			<path class="st0" d="M140.972,19.252c0-0.306,0.007-0.608,0.022-0.908c0.015-0.299,0.037-0.602,0.067-0.908&#xA;				c0.029-0.306,0.067-0.608,0.112-0.907c0.284-1.674,1.046-2.757,2.286-3.25c1.24-0.492,2.578-0.754,4.012-0.784&#xA;				c0.075,0,0.149,0,0.224,0s0.149,0,0.224,0c2.585,0,4.392,0.437,5.423,1.311c1.031,0.874,1.547,2.664,1.547,5.368&#xA;				c0,2.764-0.303,4.863-0.908,6.298c-0.605,1.435-2.589,2.153-5.951,2.153c-0.239,0-0.486-0.004-0.74-0.012&#xA;				c-0.255-0.007-0.508-0.018-0.762-0.034c-1.135-0.045-2.204-0.277-3.205-0.695c-1.002-0.418-1.681-1.255-2.04-2.51&#xA;				c-0.149-0.508-0.24-1.024-0.269-1.547c-0.031-0.523-0.045-1.046-0.045-1.57v-1.12C140.972,19.854,140.972,19.559,140.972,19.252z&#xA;				 M145.074,20.07v0.896c0,1.06,0.113,1.867,0.337,2.421c0.224,0.552,0.956,0.829,2.197,0.829c1.375,0,2.245-0.22,2.611-0.661&#xA;				c0.366-0.441,0.549-1.296,0.549-2.566c0-0.179,0-0.359,0-0.539c0-0.179,0.007-0.366,0.022-0.56c0-0.18,0-0.359,0-0.538&#xA;				c0-0.179,0-0.359,0-0.538c0-1.001-0.142-1.734-0.426-2.197c-0.284-0.463-0.964-0.694-2.04-0.694&#xA;				c-1.554,0-2.477,0.209-2.768,0.627c-0.291,0.419-0.452,1.569-0.482,3.452c0,0.016,0,0.031,0,0.045c0,0.015,0,0.029,0,0.044&#xA;				L145.074,20.07L145.074,20.07z"/>
		</g>
	</g>
	<g>
		
			<linearGradient id="SVGID_1_" gradientUnits="userSpaceOnUse" x1="1.338" y1="32.6278" x2="23.4912" y2="32.6278" gradientTransform="matrix(1 0 0 -1 0 35.2912)">
			<stop offset="0" style="stop-color:#EE344D"/>
			<stop offset="1" style="stop-color:#F89927"/>
		</linearGradient>
		<path class="st1" d="M13.714,4.492c0.413,0,0.747-0.335,0.747-0.748V1.583c0-0.415-0.334-0.749-0.747-0.749&#xA;			c-0.412,0-0.747,0.335-0.747,0.749v2.161C12.967,4.158,13.302,4.492,13.714,4.492z"/>
		
			<linearGradient id="SVGID_2_" gradientUnits="userSpaceOnUse" x1="2.1424" y1="30.6431" x2="24.1018" y2="30.6431" gradientTransform="matrix(1 0 0 -1 0 35.2912)">
			<stop offset="0" style="stop-color:#EE344D"/>
			<stop offset="1" style="stop-color:#F89927"/>
		</linearGradient>
		<path class="st2" d="M10.725,6.477c0.413,0,0.747-0.335,0.747-0.748v-2.16c0-0.415-0.334-0.749-0.747-0.749&#xA;			c-0.412,0-0.747,0.335-0.747,0.749v2.16C9.978,6.142,10.312,6.477,10.725,6.477z"/>
		
			<linearGradient id="SVGID_3_" gradientUnits="userSpaceOnUse" x1="1.6449" y1="34.5516" x2="23.6948" y2="34.5516" gradientTransform="matrix(1 0 0 -1 0 35.2912)">
			<stop offset="0" style="stop-color:#EE344D"/>
			<stop offset="1" style="stop-color:#F89927"/>
		</linearGradient>
		<path class="st3" d="M10.725,1.479c0.412,0,0.747-0.334,0.747-0.747v0.016C11.472,0.335,11.139,0,10.725,0&#xA;			c-0.413,0-0.748,0.336-0.748,0.748V0.732C9.978,1.146,10.312,1.479,10.725,1.479z"/>
		
			<linearGradient id="SVGID_4_" gradientUnits="userSpaceOnUse" x1="1.5282" y1="28.9813" x2="23.3782" y2="28.9813" gradientTransform="matrix(1 0 0 -1 0 35.2912)">
			<stop offset="0" style="stop-color:#EE344D"/>
			<stop offset="1" style="stop-color:#F89927"/>
		</linearGradient>
		<path class="st4" d="M16.703,7.049c0.412,0,0.747-0.334,0.747-0.747v0.017c0-0.412-0.334-0.748-0.747-0.748&#xA;			c-0.413,0-0.748,0.336-0.748,0.748V6.302C15.955,6.715,16.29,7.049,16.703,7.049z"/>
		
			<linearGradient id="SVGID_5_" gradientUnits="userSpaceOnUse" x1="1" y1="15.3922" x2="23.4282" y2="15.3922" gradientTransform="matrix(1 0 0 -1 0 35.2912)">
			<stop offset="0" style="stop-color:#EE344D"/>
			<stop offset="1" style="stop-color:#F89927"/>
		</linearGradient>
		<path class="st5" d="M22.68,12.589c-0.412,0-0.747,0.334-0.747,0.748v0.327l-0.001,0.049c-0.025,0.39-0.35,0.699-0.746,0.699&#xA;			c-0.412,0-0.748-0.334-0.748-0.748v-0.811V11.8c0-0.415-0.335-0.748-0.747-0.748s-0.748,0.335-0.748,0.748v0.041&#xA;			c0,0.415-0.335,0.748-0.746,0.748c-0.412,0-0.747-0.334-0.747-0.748v-0.712V8.716c0-0.415-0.335-0.748-0.748-0.748&#xA;			c-0.412,0-0.744,0.334-0.744,0.748v1.192c-0.006,0.425-0.375,0.748-0.75,0.748c-0.412,0-0.747-0.334-0.747-0.747V9.403V6.546&#xA;			c0-0.413-0.335-0.748-0.747-0.748c-0.413,0-0.748,0.334-0.748,0.748v1.995V9.47c0,0.413-0.335,0.748-0.747,0.748&#xA;			c-0.412,0-0.747-0.335-0.747-0.748V8.531v-0.11c0-0.415-0.335-0.748-0.747-0.748S9.977,8.006,9.977,8.421v0.974v1.274&#xA;			c0,0.415-0.335,0.748-0.747,0.748c-0.412,0-0.747-0.335-0.747-0.748v-0.412V7.545c0-0.413-0.334-0.748-0.747-0.748&#xA;			c-0.412,0-0.747,0.335-0.747,0.748v3.574v1.206c0,0.413-0.335,0.748-0.747,0.748c-0.413,0-0.747-0.335-0.747-0.748v-0.342v-0.92&#xA;			c0-0.415-0.335-0.748-0.747-0.748c-0.412,0-0.748,0.334-0.748,0.748v1.782v1.736c0,0.413-0.334,0.748-0.746,0.748&#xA;			s-0.748-0.335-0.748-0.748V13.71v-0.283c0-0.413-0.334-0.748-0.747-0.748c-0.412,0-0.747,0.335-0.747,0.748L1,14.58v12.947&#xA;			L12.212,34l11.212-6.473v-8.19c0-0.013,0.004-0.024,0.004-0.038v-5.959C23.427,12.923,23.094,12.589,22.68,12.589z M17.493,25.287&#xA;			h-3.522v-2.681h-3.52v2.681H6.93v-8.395h3.521v2.822h3.521v-2.822h3.522v8.395H17.493z"/>
	</g>
</g>
</svg>