<?xml version="1.0" encoding="utf-8"?>
<svg xmlns="http://www.w3.org/2000/svg" width="48" height="48" fill="none" viewBox="0 0 48 48">
  <rect width="48" height="48" fill="#EEE" rx="12"/>
  <path fill="#098041" d="m25.88 8.853 5.187 10.074L20.162 29 25.88 8.853Z"/>
  <path fill="#E97626" d="m22.236 8.853 5.186 10.074L16.507 29l5.729-20.147Z"/>
  <path fill="#66686C" d="M8.476 32.02H8.11l-.089.003a1.3 1.3 0 0 0-.089.003c-.077 0-.153 0-.227-.007A.405.405 0 0 0 7.58 32c-.234 0-.422.172-.422.39v.016a5.383 5.383 0 0 1-.195.69v.002c-.642 2.164-1.284 4.328-1.936 6.488-.066.221-.017.296.223.286.192-.007.386-.006.579-.004h.23c.569 0 .576 0 .73-.515a4064.7 4064.7 0 0 0 1.688-5.684l.003-.01.362-1.221c.126-.419.122-.419-.366-.419Zm8.784 5.056c.195-.166.392-.328.59-.491l.251-.206a.186.186 0 0 1 .05.133.182.182 0 0 1-.029.094l-.196.671c-.234.8-.468 1.6-.71 2.395-.074.237-.05.338.244.322a9.538 9.538 0 0 1 1.032 0 .325.325 0 0 0 .06.006c.177 0 .327-.13.338-.295a1118.6 1118.6 0 0 1 1.164-3.961c.298-1.012.597-2.023.893-3.035a.74.74 0 0 0 .087-.487l-.521.414-.595.472a1610.457 1610.457 0 0 0-5.405 4.277 5.67 5.67 0 0 1-.018.014l-.004.003c-.155.123-.232.185-.298.175-.066-.01-.12-.093-.228-.261l-.003-.006a2143.58 2143.58 0 0 0-2.986-4.637 1.33 1.33 0 0 0-.338-.428.429.429 0 0 0-.063.075 2663.19 2663.19 0 0 1-2.207 7.453c-.06.195.03.217.195.214l.2-.004c.29-.007.58-.014.867.007.024.003.049.007.073.007.203 0 .367-.15.373-.338.314-1.103.635-2.203.966-3.3a.899.899 0 0 1 .213-.49.555.555 0 0 1 .087.091l.51.815.001.002c.619.99 1.237 1.978 1.847 2.973.136.224.227.198.401.046 1.053-.909 2.103-1.814 3.16-2.72Zm5.465-4.912h9.21c.318 0 .679.254.565.656-.127.446-.688 2.307-.952 3.182-.1.328-.462.82-1.04.82h-7.502a.034.034 0 0 0-.033.024l-.937 3.068a.035.035 0 0 1-.034.024h-1.584c-.023 0-.04-.02-.034-.041l1.39-4.576a.035.035 0 0 1 .034-.024h8.233c.015 0 .03-.01.034-.023l.507-1.559c.007-.02-.01-.042-.034-.042h-8.244c-.023 0-.04-.02-.034-.041l.421-1.444a.035.035 0 0 1 .034-.024Zm19.611 3.116c.317 0 .678.255.564.656-.127.447-.687 2.307-.952 3.182-.099.328-.462.82-1.04.82h-9.155c-.023 0-.04-.02-.034-.042l.456-1.46a.035.035 0 0 1 .034-.023h8.232c.016 0 .03-.01.034-.023l.507-1.526c.007-.02-.01-.042-.033-.042h-7.427c-.308 0-.837-.074-.652-.787.185-.714.229-.755.229-.755.141-.503.472-1.661.67-2.271.197-.61.714-.861 1.093-.861h9.103c.023 0 .04.02.034.041l-.422 1.46a.035.035 0 0 1-.034.024H35.25c-.016 0-.03.01-.034.024l-.465 1.542c-.006.02.01.041.034.041h7.551Z"/>
</svg>