<?xml version="1.0" encoding="utf-8"?>
<svg xmlns="http://www.w3.org/2000/svg" width="48" height="48" fill="none" viewBox="0 0 48 48">
  <rect width="48" height="48" fill="#EEE" rx="12"/>
  <path fill="#21A70F" d="M21.4 16.2h-9.533a.867.867 0 0 0-.867.867v19.066c0 .479.388.867.867.867h19.066a.867.867 0 0 0 .867-.867V31.8h-9.533a.867.867 0 0 1-.867-.867V16.2Z"/>
  <path fill="#FD9C01" d="M21.4 11.867c0-.479.388-.867.867-.867h13.866c.479 0 .867.388.867.867v19.066a.867.867 0 0 1-.867.867H22.267a.867.867 0 0 1-.867-.867V11.867Z"/>
</svg>