<?xml version="1.0" encoding="utf-8"?>
<svg xmlns="http://www.w3.org/2000/svg" xmlns:xlink="http://www.w3.org/1999/xlink" version="1.1" id="Layer_1" x="0px" y="0px" viewBox="0 0 127.903 34" style="enable-background:new 0 0 127.903 34;">
<style type="text/css">
	.st0{fill:#221A2C;}
	.st1{fill:#FBA71C;}
	.st2{fill:#76490B;}
	.st3{fill:#004610;}
	.st4{fill:#FCA91D;}
	.st5{fill:#015615;}
	.st6{fill:#3F4C0C;}
	.st7{fill:#01C238;}
	.st8{fill:#014711;}
	.st9{fill:#774B0A;}
	.st10{fill:#005915;}
	.st11{fill:#FEB111;}
	.st12{fill:#01701C;}
	.st13{fill:#97951F;}
	.st14{fill:#894805;}
	.st15{fill:#194C0F;}
	.st16{fill:#008626;}
	.st17{fill:#4C460A;}
	.st18{fill:#D0B225;}
	.st19{fill:#AE4802;}
	.st20{fill:#2F440B;}
	.st21{fill:#773F04;}
	.st22{fill:#FE9801;}
	.st23{fill:#FD950C;}
	.st24{fill:#FE9A03;}
	.st25{fill:#B64201;}
	.st26{fill:#02BE38;}
	.st27{fill:#015013;}
	.st28{fill:#A87B13;}
	.st29{fill:#015816;}
	.st30{fill:#AC7B12;}
	.st31{fill:#034F13;}
	.st32{fill:#026519;}
	.st33{fill:#A35105;}
	.st34{fill:#FB8408;}
	.st35{fill:#01711C;}
	.st36{fill:#01AB32;}
	.st37{fill:#F7A621;}
	.st38{fill:#028927;}
	.st39{fill:#045614;}
	.st40{fill:#015714;}
	.st41{fill:#565311;}
	.st42{fill:#A63F02;}
	.st43{fill:#025614;}
	.st44{fill:#F88408;}
	.st45{fill:#516715;}
	.st46{fill:#576514;}
	.st47{fill:#D7AF25;}
	.st48{fill:#539D27;}
	.st49{fill:#FD8C03;}
	.st50{fill:#025817;}
	.st51{fill:#7C4E0F;}
	.st52{fill:#038525;}
	.st53{fill:#74B430;}
	.st54{fill:#4B831E;}
	.st55{fill:#94A227;}
	.st56{fill:#008423;}
	.st57{fill:#02B73B;}
	.st58{fill:#3B6918;}
	.st59{fill:#5D560D;}
	.st60{fill:#008523;}
	.st61{fill:#4D6D17;}
	.st62{fill:#915306;}
	.st63{fill:#D7B025;}
	.st64{fill:#74550A;}
	.st65{fill:#55570E;}
	.st66{fill:#92600C;}
	.st67{fill:#FEAD02;}
	.st68{fill:#028624;}
	.st69{fill:#57580E;}
	.st70{fill:#9A4306;}
	.st71{fill:#8A8119;}
	.st72{fill:#345710;}
	.st73{fill:#3F570F;}
	.st74{fill:#CE7D10;}
	.st75{fill:#948119;}
	.st76{fill:#008422;}
	.st77{fill:#FDAB03;}
	.st78{fill:#DCB225;}
	.st79{fill:#305710;}
	.st80{fill:#2C5811;}
	.st81{fill:#B7981F;}
	.st82{fill:#EE7D0A;}
	.st83{fill:#B07811;}
	.st84{fill:#56580E;}
	.st85{fill:#CD7D0F;}
	.st86{fill:#566214;}
	.st87{fill:#60811C;}
	.st88{fill:#6D811D;}
	.st89{fill:#858019;}
	.st90{fill:#5F570D;}
	.st91{fill:#0E5214;}
	.st92{fill:#93851C;}
	.st93{fill:#878019;}
	.st94{fill:#A77E14;}
	.st95{fill:#82821A;}
	.st96{fill:#AC7F14;}
	.st97{fill:#5F811C;}
	.st98{fill:#FA8C07;}
	.st99{fill:#27791D;}
	.st100{fill:#7B7717;}
	.st101{fill:#7C7717;}
	.st102{fill:#2B6015;}
	.st103{fill:#3C8421;}
	.st104{fill:#03972C;}
	.st105{fill:#5F520E;}
	.st106{fill:#92841E;}
	.st107{fill:#034711;}
	.st108{fill:#A88E1D;}
	.st109{fill:#3D831E;}
	.st110{fill:#63821C;}
	.st111{fill:#35831E;}
	.st112{fill:#2E821E;}
	.st113{fill:#CA4B04;}
	.st114{fill:#A48B1C;}
	.st115{fill:#28841F;}
	.st116{fill:#CEAA21;}
	.st117{fill:#B2650B;}
	.st118{fill:#FDAA0D;}
	.st119{fill:#285412;}
	.st120{fill:#04BD37;}
	.st121{fill:#B3B12A;}
	.st122{fill:#528A22;}
	.st123{fill:#E27B0E;}
	.st124{fill:#088825;}
	.st125{fill:#0BAB39;}
	.st126{fill:#317B21;}
	.st127{fill:#8C7F1A;}
	.st128{fill:#277F20;}
	.st129{fill:#BA6B0C;}
	.st130{fill:#96871A;}
	.st131{fill:#3F8620;}
	.st132{fill:#B74B07;}
	.st133{fill:#157B28;}
	.st134{fill:#D6AA26;}
	.st135{fill:#669425;}
	.st136{fill:#CDA921;}
	.st137{fill:#B4B22A;}
	.st138{fill:#385818;}
	.st139{fill:#ACB328;}
	.st140{fill:#9DAE2B;}
	.st141{fill:#9F7E15;}
	.st142{fill:#7B9525;}
	.st143{fill:#744F0A;}
	.st144{fill:#AA5A0D;}
	.st145{fill:#82571A;}
	.st146{fill:#017F22;}
	.st147{fill:#2C6717;}
	.st148{fill:#2C7B1D;}
	.st149{fill:#5A500C;}
	.st150{fill:#3A5710;}
	.st151{fill:#256F1B;}
	.st152{fill:#118E30;}
	.st153{fill:#088729;}
	.st154{fill:#726813;}
	.st155{fill:#59550F;}
	.st156{fill:#435C12;}
</style>
<g>
	<g>
		<path class="st0" d="M4.043,14.359c0.004,0.13,0.046,0.259,0.071,0.388c0.333,0.349,0.763,0.185,1.145,0.185&#xA;			c7.7,0.011,15.4,0.004,23.1,0.01c3.329,0.002,6.657,0.032,9.986,0.021c0.282-0.001,0.798,0.303,0.834-0.357c0,0,0,0,0,0&#xA;			c0.131-1.577,0.131-1.577-1.454-1.577c-10.806,0-21.611,0-32.417,0C4.005,13.03,4.003,13.03,4.043,14.359z"/>
		<path class="st0" d="M125.41,13.029c-5.347,0-10.694,0.005-16.041-0.003c-2.016-0.003-4.033-0.034-6.049-0.052&#xA;			c-0.012-1.003-0.023-2.005-0.035-3.008c-0.601-0.864-1.575-1.243-2.396-1.822l0,0c-0.152-0.096-0.244-0.065-0.3,0.016&#xA;			c-0.018-0.031-0.038-0.064-0.055-0.094c-0.003,0.091-0.006,0.18-0.01,0.269c-0.016,0.08-0.02,0.164-0.021,0.226&#xA;			c-0.002,0.153-0.006,0.306-0.009,0.459c-0.061,1.245-0.133,2.281-0.061,3.663c-0.153,0.302-0.496,0.368-1.047,0.364&#xA;			c-6.177-0.035-12.354-0.022-18.531-0.008c-0.337,0.001-0.739-0.194-1.02,0.181c-0.196,1.722-0.196,1.722,1.469,1.722&#xA;			c2.621,0,5.242,0,7.863,0c2.46,0,2.46,0,2.343,2.489c-0.327-0.055-0.656-0.106-0.982-0.165c-1.344-0.242-2.686-0.557-4.041-0.057&#xA;			l0,0c-0.788,0.105-1.449,0.462-2.014,1.009l0,0c-0.606,0.421-1.129,0.918-1.478,1.577l0,0h0c-0.471,0.534-0.781,1.147-0.914,1.846&#xA;			c-0.146,0.533-0.302,1.065-0.044,1.609c0.191,2.084,1.474,3.568,3.451,4.961c2.807,2.383,6.92,2.253,9.319-0.295&#xA;			c0.826-0.695,1.276-1.589,1.418-2.647c0.316-0.656,0.162-1.346,0.147-2.026c0.037-0.639-0.142-1.229-0.415-1.798&#xA;			c-0.29-0.974-1.211-1.455-1.758-2.228v0c0,0,0,0,0,0c0.003-1.136,0.036-2.273-0.004-3.407c-0.017-0.483,0.073-0.756,0.427-0.838&#xA;			c1.027,0.003,1.985,0.004,2.956-0.004c0.055,0.001,0.111,0.002,0.166,0.004c0.131,0.005,0.269,0,0.408-0.01&#xA;			c0.461-0.006,0.928-0.014,1.41-0.026c0.719-0.018,1.047,0.413,1.055,0.936c0.02,1.301-0.11,2.445-0.102,3.747&#xA;			c-0.005,1.542-0.012,3.087-0.017,4.629c-0.033,0.712-0.005,1.384,0.081,2.132c0.277,2.138,1.853,3.515,3.98,3.538&#xA;			c1.093,0.012,2.062-0.3,2.962-0.883c1.093-0.647,1.898-1.699,2.369-2.855c0,0,0,0,0,0c0.144-0.202-0.063-0.292-0.245-0.389&#xA;			c-0.834-0.445-1.669-0.89-2.504-1.335l0,0c-0.048-0.023-0.094-0.054-0.144-0.066c-0.018-0.004-0.066,0.036-0.069,0.06&#xA;			c-0.183,1.468-0.123,3.007-1.239,4.203c-1.401,0.565-1.737,0.423-2.388-1.013c-0.007-0.928-0.014-1.855-0.021-2.783&#xA;			c0.007-0.608,0.007-1.206,0-1.811c0,0,0,0,0,0s0,0,0,0c-0.023-0.849,0.026-1.567,0-2.412c0.039-0.955,0.039-1.706-0.001-2.614&#xA;			c0.016-0.767,0.062-1.536,0.038-2.302c-0.016-0.511,0.116-0.737,0.631-0.76c0.105-0.001,0.209-0.004,0.303-0.004&#xA;			c0.059,0,0.119,0,0.178,0c5.666,0.024,11.332,0.029,16.998,0.037c0.171,0,0.341,0.001,0.512,0.001c0.218,0,0.499,0.001,0.739,0&#xA;			c0.139,0,0.278,0,0.418,0.001c0,0,0-0.001,0-0.001c0.002,0,0.004,0,0.006,0c0,0,0,0,0,0c0,0,0,0,0,0l-0.006,0.001&#xA;			c0.004,0.111,0.009,0.223,0.013,0.334c0.008,0.367,0.017,0.827,0.026,1.209c-0.001,0.066-0.003,0.132-0.006,0.199&#xA;			c-0.013,0.173-0.038,0.362-0.036,0.535c-0.01,0.099-0.022,0.197-0.038,0.296c0,0,0,0,0,0c0,0,0,0,0,0&#xA;			c-2.139-0.552-4.234-0.776-6.491-0.382c-0.845,0.102-1.644,0.33-2.339,0.844l0,0c0,0,0,0,0,0&#xA;			c-0.565,0.244-0.988,0.637-1.261,1.188l0,0c-0.342,0.493-0.445,1.039-0.36,1.625c-0.044,1.239,0.498,2.217,1.369,3.05&#xA;			c1.188,1.35,2.635,1.858,4.416,1.412c1.593-0.399,3.187-0.815,4.803-1.096c1.305-0.227,1.803,0.147,2.113,1.25c0,0,0,0,0,0&#xA;			c0,0,0,0,0,0c-0.204,0.324-0.408,0.647-0.612,0.971c0,0,0,0,0,0l0,0c-1.072,0.602-2.212,1.023-3.416,1.274&#xA;			c-1.693,0.22-3.263-0.144-4.755-0.946c-0.47-0.253-0.97-0.476-1.483-0.614c-0.64-0.172-1.322-0.324-1.847,0.307c0,0,0,0,0,0&#xA;			c0,0,0,0,0,0c0,0,0,0,0,0h0c-0.534,0.979-0.373,1.785,0.508,2.409c0.608,0.43,1.305,0.813,2.029,0.806&#xA;			c2.258-0.022,3.66,1.017,4.675,3.001c0.674,1.319,2.543,1.653,3.937,1.05c0.177-0.077,0.405-0.129,0.2-0.397c0,0,0,0,0,0&#xA;			c0,0,0,0,0,0c-0.188-0.347-0.375-0.695-0.565-1.041c-0.394-0.715-0.716-1.397-1.813-1.296c-0.666,0.062-1.307-0.427-1.712-1.052&#xA;			c2.073-0.389,3.989-1.033,5.064-3.057c0,0,0,0,0,0c0,0,0,0,0,0c0.533-0.938,0.585-1.874-0.017-2.806v0&#xA;			c-0.12-0.329-0.345-0.715-0.636-0.959c-1.601-1.342-3.451-1.482-5.407-1.041c0,0,0,0,0,0s0,0,0,0&#xA;			c-1.197,0.376-2.382,0.799-3.596,1.11c-0.885,0.226-1.762,0.204-2.076-0.934c-0.011-0.678,0.375-1.153,0.825-1.596l0,0l0,0&#xA;			c0.735-0.317,1.459-0.653,2.25-0.833c2.574-0.585,5.064-0.261,7.507,0.637c0.299,0.11,0.679,0.535,0.721-0.211l0,0l0,0&#xA;			c0.002-0.941,0.003-1.883,0.005-2.824c0.011-0.098,0.032-0.196,0.033-0.294c0.005-0.593-0.112-1.218,0.036-1.772&#xA;			c0.06-0.226,0.171-0.334,0.308-0.383c0.287,0.028,0.587,0.027,0.844,0.008c0.05,0,0.099-0.004,0.146-0.013&#xA;			c0.002,0,0.004,0,0.006-0.001c0,0,0-0.001,0-0.001c0.099-0.018,0.191-0.054,0.268-0.127c0.024-0.022,0.038-0.054,0.057-0.08&#xA;			c0,0,0-0.001,0-0.001c0,0,0,0,0,0C127.029,13.029,127.029,13.029,125.41,13.029z M85.193,22.332&#xA;			c0.465-0.706,0.602-0.912,1.075-1.287c0.004,0.001,0.008,0.002,0.012,0.003c0.464-0.374,0.867-0.672,1.109-0.847&#xA;			c2.106-1.522,4.212-1.906,6.332-0.087c0.541,0.868,0.459,2.044,0.264,3.132c-0.186,0.378-0.371,0.756-0.557,1.134&#xA;			c-0.443,0.56-0.653,0.785-1.213,1.25c-0.58,0.55-1.135,0.913-1.627,1.234c-1.553,1.011-3.138,1.601-4.886,0.608&#xA;			c-1.114-0.793-1.576-1.84-1.33-2.928c-0.001,0-0.003,0-0.004,0C84.714,23.844,84.849,23.104,85.193,22.332z M124.11,16.633&#xA;			c0.002-0.009,0.003-0.018,0.006-0.027c0,0,0,0,0,0c0,0,0,0,0,0c0.006,0.008,0.012,0.017,0.018,0.025&#xA;			C124.126,16.632,124.118,16.633,124.11,16.633z"/>
		<path class="st0" d="M75.174,11.43c-3.348-1.474-6.795-2.498-10.516-2.261l0,0c-2.639,0.059-5.129,0.607-7.304,2.194c0,0,0,0,0,0&#xA;			c0,0,0,0,0,0c-0.38,0.195-0.581,0.4-0.922,0.825c-0.305,0.28-0.407,0.534-0.634,1.013c0,0,0,0,0,0c0,0,0,0,0,0&#xA;			c-0.21,0.606-0.296,1.186-0.21,1.806c-0.028,1.448,0.556,2.675,1.392,3.811l0,0l0,0c1.396,2.688,4.277,3.955,7.14,3.133&#xA;			c0.854-0.245,1.703-0.504,2.555-0.757l0,0l0,0c1.396-0.359,2.782-0.758,4.189-1.067c1.445-0.317,2.556,0.188,3.151,1.323&#xA;			c0.071,0.622,0.017,1.224-0.284,1.787c0,0,0,0,0,0c0,0,0,0,0,0c-0.837,1.045-2.046,1.524-3.204,2.08l0,0&#xA;			c-1.126,0.367-2.27,0.66-3.451,0.787c0,0,0,0,0,0c0,0,0,0,0,0c-1.537,0.093-2.977-0.249-4.336-0.956&#xA;			c-0.915-0.476-1.815-0.987-2.754-1.41c-0.683-0.308-1.37-0.726-2.188-0.485c-0.8-0.079-1.343,0.245-1.607,1.01c0,0,0,0,0,0&#xA;			c0,0,0,0,0,0c-0.603,1.663-0.028,3.168,1.67,4.119c2.625,1.469,5.501,1.571,8.408,1.379c0.758-0.05,1.655-0.221,2.233-0.479&#xA;			c2.586-0.653,4.64-2,5.859-4.438l0,0c0.315-0.407,0.433-0.878,0.452-1.381c0.282-0.659,0.156-1.342,0.122-2.02c0,0,0,0,0,0&#xA;			c0,0,0,0,0,0c0.003-0.736-0.274-1.383-0.638-2.003l0,0c-0.28-0.558-0.632-1.058-1.162-1.413h0&#xA;			c-2.268-2.03-4.901-2.098-7.674-1.414c0,0,0,0,0,0c0,0,0,0,0,0c-1.915,0.583-3.686,1.569-5.653,2.006c0,0,0,0,0,0c0,0,0,0,0,0&#xA;			c-1.119,0.058-2.035-0.227-2.418-1.413c-0.015-0.54-0.036-1.081,0.131-1.606l0,0l0,0c0.205-0.582,0.692-0.951,1.067-1.405&#xA;			c2.556-1.537,5.363-1.957,8.29-1.85c2.3,0.332,4.565,0.782,6.62,1.937c0.19,0.107,0.351,0.211,0.478-0.061&#xA;			c0.557-0.758,0.996-1.583,1.386-2.435v0C75.525,11.548,75.294,11.483,75.174,11.43z M74.368,22.205c0,0.001,0,0.003,0,0.004&#xA;			c0-0.001-0.001-0.002-0.001-0.003C74.367,22.206,74.367,22.205,74.368,22.205z M74.037,21.497&#xA;			c-0.004-0.009-0.008-0.018-0.012-0.026C74.029,21.479,74.034,21.488,74.037,21.497z"/>
		<path class="st0" d="M41.633,7.156c-0.351-1.953-1.313-3.62-2.477-5.188c-0.154-0.208-0.255-0.706-0.624-0.706&#xA;			c-0.863,0-2.346,0-3.092,0c-0.034,0,0.023,0.171,0.037,0.261c1.452,2.241,3.051,4.404,3.755,7.039&#xA;			c0.471,2.387,0.361,4.808,0.415,7.219c-0.004,1.276-0.007,2.553-0.011,3.829h0c0,0,0,0,0,0c-0.001,0.28-0.003,0.559-0.004,0.839&#xA;			c0,0,0,0,0,0c0,0,0,0,0,0c-0.026,0.14-0.051,0.279-0.077,0.419c-0.778-0.773-1.532-1.572-2.34-2.313&#xA;			c-1.458-1.336-3.107-2.033-5.113-1.343v0c-0.616,0.194-1.213,0.458-1.864,0.982l0,0c-0.682,0.476-1.187,1.076-1.65,1.84&#xA;			c0,0,0,0,0.001,0c-0.512,0.648-0.931,1.336-0.956,2.196c-0.101,0.923,0.03,1.632,0.402,2.478v0c0,0,0,0,0,0&#xA;			c0.711,1.824,1.632,3.081,3.225,4.125c2.359,1.546,4.745,1.392,6.816-0.525c0.492-0.455,0.93-0.968,1.526-1.594&#xA;			c0,0.695,0.015,1.131-0.005,1.565c-0.017,0.362,0.034,0.638,0.434,0.789c0.69,0.26,1.366,0.556,2.041,0.852&#xA;			c0.28,0.123,0.368,0.048,0.321-0.237c0.001-1.543,0.002-3.086,0.003-4.629c-0.001-0.402-0.001-0.803-0.002-1.205l0,0l0,0&#xA;			c0-0.871,0-1.742,0-2.614c0-1.073,0-2.146,0-3.219l0,0l0,0l0,0l0,0c0-0.805,0-1.609,0-2.414c0,0,0,0,0,0s0,0,0,0&#xA;			c0.004-0.939,0.009-1.877,0.013-2.816c0,0,0,0,0,0s0,0,0,0C42.471,10.867,42.319,8.975,41.633,7.156L41.633,7.156z M41.076,14.595&#xA;			c0.004-0.004,0.008-0.009,0.012-0.013c0.005,0.032,0.01,0.065,0.011,0.097C41.092,14.652,41.084,14.624,41.076,14.595z&#xA;			 M37.706,24.481c-0.293,0.375-0.639,0.733-0.821,0.93c-0.823,0.892-1.684,1.579-2.812,2.082c-1.782,0.794-3.171,0.227-3.925-1.56&#xA;			c-0.108-0.257-0.283-0.555-0.369-0.931c-0.147-0.912-0.092-1.536,0.272-2.272c0.377-0.718,0.732-1.016,1.209-1.703&#xA;			c0.522-0.65,1.012-0.972,1.427-1.217c1.819-1.076,3.314-0.973,5.073,0.24c0.521,0.536,1.154,1.091,1.051,1.992&#xA;			C38.528,22.951,38.335,23.544,37.706,24.481z M39.179,21.011C39.179,21.011,39.179,21.011,39.179,21.011&#xA;			C39.179,21.011,39.179,21.011,39.179,21.011L39.179,21.011z"/>
		<path class="st0" d="M48.965,13.027c-1.743,0-3.485-0.01-5.227,0.009c-0.305,0.003-0.676-0.177-0.915,0.19&#xA;			c-0.073,0.566-0.213,1.135,0.086,1.682c2.446,0.092,4.891,0.132,7.337-0.021c0.006,0,0.013,0,0.019,0&#xA;			c0.053-0.017,0.086-0.052,0.1-0.104c0,0,0,0,0-0.001c0,0,0,0,0.001,0C50.673,13.053,50.653,13.028,48.965,13.027z"/>
		<path class="st0" d="M6.201,7.939c0.212,0.486,0.469,0.952,0.684,1.437c0.208,0.471,0.527,0.662,1.032,0.481&#xA;			c0.302-0.186,0.218-0.509,0.137-0.711c-0.686-1.71-1.016-3.547-1.86-5.199C5.025,2.285,3.209,1.892,1.382,1.521c0,0,0,0,0,0&#xA;			C1.192,1.48,0.997,1.43,1,1.733c0.227,1.002,0.725,1.896,1.134,2.826l0,0h0l0,0l0,0c0.26,0.638,0.88,0.786,1.43,0.97&#xA;			C4.816,5.947,5.68,6.744,6.201,7.939z"/>
		<path class="st0" d="M48.641,25.045c0-0.54,0-1.079,0-1.619c-0.033-0.023-0.056-0.052-0.076-0.083&#xA;			c0.026,0.027,0.052,0.054,0.076,0.082c0-0.736,0-1.472,0-2.208c0.002-1.336,0.004-2.671,0.006-4.007&#xA;			c0.052-0.33-0.25-0.357-0.53-0.365c-0.817-0.023-1.983-0.155-2.024,0.156c0,0,0,0,0,0c0,0,0,0,0,0s0,0,0,0l0,0&#xA;			c-0.001,1.143-0.003,2.286-0.004,3.43l0,0c0,1.207,0,2.414,0,3.621l0,0c-0.012,1.396-0.016,2.793-0.041,4.189&#xA;			c-0.006,0.355,0.033,0.634,0.405,0.809c0.688,0.323,1.36,0.682,2.039,1.026c0.049-0.002,0.1,0.004,0.145-0.012&#xA;			c0.018-0.006,0.03-0.058,0.03-0.089C48.659,28.332,48.65,26.689,48.641,25.045L48.641,25.045z"/>
		<path class="st0" d="M44.847,7.348c0.144,0.352,0.493,0.48,0.791,0.559c1.33,0.352,2.064,1.272,2.584,2.463&#xA;			c0.175,0.402,0.223,0.933,0.766,1.097l0,0c0,0,0,0,0,0c0.001,0,0.001,0,0.001,0.001c0,0,0.001,0,0.001,0&#xA;			c0.661,0.181,0.575-0.328,0.477-0.622c-0.433-1.306-0.923-2.594-1.393-3.888c-0.576-1.117-2.88-2.334-4.132-2.174&#xA;			c-0.036,0.005-0.06,0.101-0.09,0.155C44.04,5.8,44.4,6.592,44.847,7.348L44.847,7.348z"/>
		<path class="st0" d="M79.186,12.788c0.089-1.774,0.083-3.537-0.557-5.234c-0.413-2.028-1.46-3.717-2.839-5.225&#xA;			c-0.129-0.14-0.32-0.309-0.488-0.315c-0.908-0.032-1.818-0.033-2.727-0.007c-0.225,0.006-0.247,0.179-0.048,0.32l0,0&#xA;			c2.431,2.694,4.06,5.731,4.083,9.455c-0.001,1.542-0.001,3.084-0.002,4.627c0,1.542,0,3.084,0.001,4.626&#xA;			c0,1.14,0,2.279-0.001,3.419l0,0c-0.013,1.332-0.032,2.664-0.036,3.996c-0.001,0.215-0.098,0.481,0.178,0.621&#xA;			c0.745,0.377,1.482,0.77,2.243,1.111c0.273,0.122,0.188-0.154,0.192-0.296c0.001-1.611,0.002-3.222,0.004-4.833l0,0l0,0&#xA;			c0,0,0,0,0,0l0,0c-0.001-0.602-0.002-1.204-0.003-1.806c0,0,0,0,0,0c0,0,0,0,0,0c0-0.871,0-1.743-0.001-2.614&#xA;			c0-0.805,0-1.61,0-2.414s0-1.61,0-2.415c0,0,0,0,0,0c0,0,0,0,0,0C79.185,14.799,79.186,13.794,79.186,12.788z"/>
		<path class="st0" d="M7.004,21.44c0-0.604,0-1.208,0-1.811l0,0c0.001-0.932-0.001-1.98,0-2.912&#xA;			c-0.919-0.313-2.143-0.154-3.04-0.081c0,0,0,0,0,0c0,0,0,0,0,0c-0.153,1.296-0.123,2.664-0.139,3.998c0,0.872,0,1.743,0,2.615&#xA;			c-0.012,2.613-0.02,5.225-0.042,7.837c-0.003,0.341,0.101,0.548,0.417,0.71C4.946,32.178,5.667,32.609,6.408,33&#xA;			c0.194,0.102,0.474,0.391,0.595-0.097c0.001-3.216,0.001-6.432,0.002-9.648c0,0,0,0,0,0c0,0,0,0,0,0&#xA;			C7.005,22.65,7.005,22.045,7.004,21.44z M5.41,20.995c0,0.013,0,0.026,0,0.038c0,0,0,0,0,0c0,0,0,0,0,0&#xA;			C5.401,21.021,5.392,21.011,5.383,21C5.392,20.998,5.401,20.997,5.41,20.995z"/>
		<path class="st0" d="M25.646,23.648c0.027-0.711-0.019-1.354-0.249-2.004l0,0l0,0c-0.12-0.527-0.302-0.949-0.536-1.389&#xA;			c-1.596-2.987-4.898-4.208-7.748-2.87c0,0,0,0,0,0c0,0,0,0,0,0c-1.115,0.33-1.929,1.126-2.824,1.797&#xA;			c-0.05,0.018-0.09,0.022-0.116,0.018l0,0l0,0c-0.024-0.525-0.048-1.128-0.072-1.652c-1.021-0.289-1.843-0.211-2.449-0.099&#xA;			c0,0,0,0,0,0c0,0,0,0,0,0c-0.187,1.256-0.109,2.524-0.134,3.788c0,1.007,0,2.013,0.001,3.02l0,0l0,0&#xA;			c-0.011,1.43-0.018,2.861-0.038,4.291c-0.004,0.319,0.022,0.586,0.37,0.728c0.701,0.288,1.293,0.806,2.057,0.962c0,0,0,0,0,0&#xA;			s0,0,0,0l0,0c0,0,0,0,0,0c0.169-0.302,0.132-0.753,0.148-1.129c0.085-1.887-0.161-3.788,0.25-5.661c0,0,0,0,0,0c0,0,0,0,0,0&#xA;			c0.465-1.005,0.929-2.011,1.394-3.016l0,0c1.099-1.737,2.691-2.53,4.737-2.394c1.763,0.117,2.827,1.155,2.984,2.901&#xA;			c0.056,0.627,0.026,1.261,0.035,1.892c-0.139,0.609-0.279,1.218-0.418,1.827l0,0l0,0c-0.649,1.339-1.694,2.365-2.698,3.43&#xA;			c-0.173,0.183-0.663,0.285-0.356,0.726c0.647,0.418,1.274,0.873,1.951,1.236c0.266,0.143,0.602,0.539,0.907,0.306&#xA;			c1.343-1.357,2.292-2.926,2.631-4.825c0,0,0,0,0,0C25.67,24.743,25.705,24.286,25.646,23.648z M24.417,21.849&#xA;			C24.417,21.849,24.417,21.849,24.417,21.849c-0.016-0.009-0.031-0.018-0.046-0.026c0.016-0.005,0.031-0.009,0.048-0.013&#xA;			C24.418,21.823,24.417,21.836,24.417,21.849C24.417,21.849,24.417,21.849,24.417,21.849z"/>
	</g>
	<polygon class="st0" points="72.391,2.324 72.391,0.859 73.603,1.239 73.885,2.225 73.392,2.479"/>
	<polygon class="st0" points="1,1.887 1,0.47 1.502,0.659 2,2.064 1.382,2.064"/>
	<polygon class="st0" points="43.853,5.092 43.853,3.675 44.374,4.023 44.647,4.995"/>
	<polygon class="st0" points="35.441,1.417 35.441,0 37.182,0.607 36.469,1.997"/>
	<path class="st1" d="M4.114,13.485c-0.025-0.129-0.067-0.258-0.071-0.388c-0.04-1.329-0.038-1.33,1.265-1.33&#xA;		c10.806,0,21.611,0,32.417,0c1.585,0,1.585,0,1.454,1.577c-1.781-0.462-3.598-0.287-5.402-0.289&#xA;		c-8.947-0.013-17.895-0.006-26.842-0.006c-0.471,0-0.955,0.066-1.409-0.039C4.928,12.871,4.494,13.06,4.114,13.485z"/>
	<path class="st2" d="M4.114,13.485c0.043-0.395,0.086-0.79,0.142-1.305c0.637,0.669,1.409,0.541,2.153,0.541&#xA;		c10.318,0.005,20.635,0.015,30.953,0.001c0.708-0.001,1.321,0.096,1.818,0.622c-0.036,0.66-0.553,0.356-0.834,0.357&#xA;		c-3.329,0.011-6.657-0.019-9.986-0.021c-7.7-0.006-15.4,0.001-23.1-0.01C4.877,13.669,4.447,13.834,4.114,13.485z"/>
	<path class="st3" d="M68.502,28.018c-0.579,0.258-1.475,0.429-2.233,0.479c-2.906,0.193-5.783,0.09-8.408-1.379&#xA;		c-1.698-0.95-2.273-2.456-1.67-4.119c0.662-0.178,1.136,0.185,1.591,0.567c0.375,0.315,0.689,0.704,1.154,0.903&#xA;		c1.744,1.029,3.701,1.448,5.629,1.95c0.894,0.204,1.789,0.167,2.686,0.011c0.113-0.028,0.226-0.04,0.342-0.043&#xA;		C68.678,26.684,68.874,27.035,68.502,28.018z"/>
	<path class="st4" d="M79.834,11.957c0.281-0.375,0.683-0.18,1.02-0.181c6.177-0.014,12.354-0.026,18.531,0.008&#xA;		c0.848,0.005,1.206-0.15,1.131-1.082c-0.091-1.128-0.032-2.269-0.014-3.404c0.003-0.202,0.044-0.635,0.387-0.417&#xA;		c-0.018,0.171,0.017,0.338,0.03,0.508c0.097,1.555-0.111,3.12,0.147,4.667c0.1,0.595-0.288,0.741-0.713,0.89&#xA;		c-1.984,0.207-3.973,0.051-5.959,0.098c-0.759-0.069-1.488,0.465-2.262,0.118c-1.333-0.232-2.676-0.099-4.014-0.114&#xA;		c-2.144-0.025-4.289-0.007-6.433-0.007C80.841,13.04,80.171,12.792,79.834,11.957z"/>
	<path class="st4" d="M103.32,11.711c2.017,0.018,4.033,0.049,6.049,0.052c5.347,0.007,10.694,0.002,16.041,0.003&#xA;		c1.618,0,1.618,0,1.376,1.722c-0.439-0.238-0.175-0.729-0.373-1.053c-0.033,0.332-0.293,0.41-0.544,0.5&#xA;		c-0.47,0.073-0.941,0.127-1.413,0.191c-0.467-0.034-0.919-0.153-1.379-0.235c-0.465-0.121-0.939-0.074-1.409-0.074&#xA;		c-5.958-0.004-11.917-0.001-17.875-0.005c-0.503,0-1.011,0.049-1.508-0.084c-0.127-0.049-0.231-0.128-0.314-0.236&#xA;		C101.923,11.484,102.231,11.306,103.32,11.711z"/>
	<path class="st5" d="M42.393,28.422c0.047,0.285-0.041,0.36-0.321,0.237c-0.675-0.296-1.352-0.592-2.041-0.852&#xA;		c-0.4-0.151-0.45-0.427-0.434-0.789c0.02-0.434,0.005-0.87,0.005-1.565c-0.596,0.626-1.034,1.139-1.526,1.594&#xA;		c-2.071,1.917-4.457,2.071-6.816,0.525c-1.593-1.044-2.514-2.3-3.225-4.125c0.169-0.489,0.187-0.494,0.84-0.241&#xA;		c0.175,0.133,0.296,0.308,0.39,0.503c0.617,1.517,1.367,2.859,3.128,3.394c1.225,0.373,2.307,0.237,3.378-0.36&#xA;		c1.009-0.562,1.835-1.336,2.553-2.229c0.251-0.313,0.486-0.638,0.829-0.865c0.38-0.217,0.775-0.339,1.213-0.193&#xA;		c0.15,0.063,0.276,0.159,0.386,0.277c0.222,0.259,0.423,0.579,0.401,0.893C41.05,26.068,41.783,27.221,42.393,28.422z"/>
	<path class="st6" d="M74.015,20.187c-0.596-1.135-1.706-1.64-3.151-1.323c-1.407,0.308-2.794,0.707-4.189,1.067&#xA;		c-0.281-0.155-0.574-0.099-0.877-0.088c-1.068,0.039-2.134,0.098-3.14-0.427c-0.515-0.268-1.12-0.121-1.683-0.17&#xA;		c-0.378-0.033-0.836,0.064-1.003-0.451c0.206-0.274,0.519-0.32,0.814-0.297c1.623,0.124,3.1-0.435,4.585-0.945&#xA;		c0.509-0.175,1.036-0.265,1.549-0.417c1.675-0.369,3.352-0.436,5.032-0.036c0.547,0.237,1.078,0.504,1.518,0.918&#xA;		c0.454,0.505,1.079,0.898,1.131,1.673c0.035,0.47,0.102,0.95-0.303,1.329C73.922,20.776,74.153,20.43,74.015,20.187z"/>
	<path class="st7" d="M64.464,26.635c-1.975-0.45-3.962-0.865-5.685-2.019c-0.382-0.318-0.775-0.633-1.06-1.041&#xA;		c-0.372-0.532-0.51-1.085,0.078-1.586c0.818-0.242,1.505,0.177,2.188,0.485c0.939,0.423,1.839,0.934,2.754,1.41&#xA;		c1.359,0.707,2.799,1.05,4.336,0.956c-0.741,0.426-0.718,1.458-1.492,1.857C65.21,26.685,64.83,26.773,64.464,26.635z"/>
	<path class="st8" d="M124.539,32.051c0.205,0.268-0.023,0.32-0.2,0.397c-1.394,0.602-3.263,0.268-3.937-1.05&#xA;		c-1.015-1.984-2.416-3.023-4.675-3.001c-0.724,0.007-1.42-0.375-2.029-0.806c-0.882-0.624-1.042-1.43-0.508-2.409&#xA;		c0.284-0.088,0.551-0.006,0.743,0.181c1.239,1.199,2.846,1.513,4.442,1.86c0.131,0.029,0.25,0.09,0.366,0.155&#xA;		c0.826,0.242,0.858,1.099,1.291,1.647c0.838,1.258,2.135,1.868,3.463,2.44C123.861,31.622,124.246,31.76,124.539,32.051z"/>
	<path class="st9" d="M79.834,11.957c0.572,0.669,1.302,0.794,2.161,0.781c2.997-0.046,5.994-0.019,8.992-0.015&#xA;		c0.468,0.001,0.949-0.05,1.377,0.216c0.623,0.322,0.714,0.888,0.695,1.504c-0.019,0.618,0.072,1.243-0.13,1.849&#xA;		c-0.313,0.541-0.732,0.819-1.371,0.535c-0.184-0.207-0.207-0.427-0.047-0.659c0.116-2.489,0.116-2.489-2.343-2.489&#xA;		c-2.621,0-5.242,0-7.863,0C79.638,13.679,79.638,13.678,79.834,11.957z"/>
	<path class="st10" d="M7.004,31.64c-0.121,0.487-0.402,0.199-0.595,0.097c-0.742-0.391-1.462-0.822-2.208-1.205&#xA;		c-0.315-0.162-0.42-0.369-0.417-0.71c0.022-2.612,0.03-5.225,0.042-7.837c0.514-0.388,1.044-0.352,1.583-0.06&#xA;		c0.352,0.383,0.297,0.865,0.301,1.324c0.012,1.462,0.034,2.925-0.006,4.386c-0.026,0.964,0.128,1.852,0.713,2.636&#xA;		C6.724,30.683,6.803,31.187,7.004,31.64z"/>
	<path class="st11" d="M64.658,7.907c3.72-0.237,7.168,0.787,10.516,2.261c0.12,0.053,0.351,0.118,0.188,0.353&#xA;		c-0.765,0.585-1.631,0.758-2.573,0.626c-1.591-0.512-3.188-1.006-4.849-1.253c-0.219-0.062-0.431-0.14-0.646-0.216&#xA;		c-0.629-0.159-1.271-0.051-1.905-0.091c-0.399-0.026-0.845,0.012-1.053-0.426C64.107,8.674,64.263,8.251,64.658,7.907z"/>
	<path class="st12" d="M25.474,24.267c-0.34,1.898-1.289,3.468-2.631,4.825c-0.319-0.122-0.446-0.392-0.471-0.694&#xA;		c-0.071-0.856-0.59-1.015-1.311-0.858c-0.362,0.079-0.718,0.045-1.077,0.009c-0.307-0.441,0.183-0.542,0.356-0.726&#xA;		c1.003-1.064,2.049-2.091,2.698-3.43c0.434-0.286,0.857-0.017,1.285,0.022C24.758,23.631,25.586,23.322,25.474,24.267z"/>
	<path class="st13" d="M66.886,17.367c-2.241,0.716-4.418,1.742-6.876,1.396c-0.385,0.135-0.687,0.058-0.862-0.337&#xA;		c0.179-0.382,0.381-0.75,0.661-1.072c1.967-0.438,3.738-1.423,5.653-2.006C66.107,15.901,66.706,16.488,66.886,17.367z"/>
	<path class="st14" d="M67.498,9.518c0.142,0.06,0.284,0.12,0.426,0.18c-0.559,0.414-1.211,0.669-1.78,1.041&#xA;		c0.271,0.03,0.649-0.131,0.734,0.341c-2.926-0.107-5.734,0.313-8.29,1.85c-0.789-0.211-0.632-0.817-0.585-1.379&#xA;		c0.15-0.409,0.5-0.623,0.836-0.852c1.913-0.945,3.891-1.561,6.073-1.292C65.767,9.513,66.643,9.306,67.498,9.518z"/>
	<path class="st15" d="M125.303,24.19c-0.31-1.103-0.807-1.477-2.113-1.25c-1.616,0.281-3.21,0.697-4.803,1.096&#xA;		c-1.781,0.446-3.228-0.062-4.416-1.412c-0.059-0.353,0.196-0.346,0.425-0.368c1.418,0.39,2.832,0.355,4.233-0.075&#xA;		c0.543-0.167,1.1-0.264,1.649-0.4c1.021-0.129,2.031-0.43,3.074-0.172c0.618,0.152,1.234,0.304,1.699,0.783&#xA;		c0.202,0.293,0.431,0.583,0.542,0.915C125.704,23.633,125.935,24.074,125.303,24.19z"/>
	<path class="st16" d="M7.004,31.64c-0.906-1.196-1.734-2.37-1.617-4.03c0.131-1.862,0.028-3.741,0.027-5.612&#xA;		c0.04-0.041,0.08-0.083,0.12-0.125c0.51-0.206,1.008-0.254,1.471,0.119C7.005,25.208,7.004,28.424,7.004,31.64z"/>
	<path class="st17" d="M125.083,18.975c-0.042,0.745-0.422,0.321-0.721,0.211c-2.443-0.898-4.933-1.222-7.506-0.637&#xA;		c-0.791,0.18-1.515,0.516-2.25,0.833c-0.565-0.337-0.594-0.809-0.343-1.352c0.307-0.412,0.819-0.495,1.222-0.756&#xA;		c1.631-0.695,3.354-0.606,5.068-0.59c0.718,0.026,1.37,0.335,2.061,0.475C123.832,17.231,124.662,17.828,125.083,18.975z"/>
	<path class="st18" d="M66.886,17.367c-0.504-0.653-1.083-1.253-1.425-2.02c2.773-0.684,5.406-0.616,7.674,1.414&#xA;		c-0.163,0.51-0.534,0.678-1.039,0.627C70.361,16.927,68.624,17.116,66.886,17.367z"/>
	<path class="st19" d="M76.61,10.52c-0.023-3.723-1.652-6.76-4.083-9.455c1.174-0.073,2.109,0.452,2.848,1.276&#xA;		c0.941,1.05,1.554,2.308,2.035,3.627c0.317,1.11,0.707,2.205,0.678,3.384c-0.042,0.451,0.067,0.924-0.199,1.342&#xA;		C77.409,11.023,77.003,10.816,76.61,10.52z"/>
	<path class="st20" d="M59.197,18.367c0.25,0.169,0.494,0.318,0.813,0.396c0.049,0.045,0.102,0.132,0.145,0.127&#xA;		c1.909-0.23,3.642,0.936,5.555,0.686c0.365-0.048,0.747-0.04,0.965,0.355c-0.851,0.253-1.701,0.512-2.555,0.757&#xA;		c-2.863,0.822-5.744-0.445-7.14-3.133c-0.004-0.459,0.302-0.293,0.506-0.22c0.267,0.095,0.473,0.319,0.751,0.406&#xA;		C58.578,17.917,58.974,18.011,59.197,18.367z"/>
	<path class="st21" d="M66.878,11.08c-0.289-0.307-0.708-0.052-1.171-0.311c0.737-0.483,1.313-1.07,2.217-1.07&#xA;		c1.68,0.122,3.265,0.622,4.827,1.21c0.92,0.305,1.191,0.757,1.225,2.047c-0.127,0.273-0.288,0.168-0.478,0.061&#xA;		C71.442,11.862,69.177,11.412,66.878,11.08z"/>
	<path class="st22" d="M35.478,0.261C35.464,0.171,35.407,0,35.441,0c0.745,0,2.229,0,3.092,0c0.368,0,0.47,0.498,0.624,0.706&#xA;		c1.164,1.568,2.126,3.234,2.477,5.188c-0.549,0.425-1.025,0.167-1.494-0.155c-0.601-0.491-0.744-1.25-1.06-1.894&#xA;		C38.284,2.224,37.059,1.077,35.478,0.261z"/>
	<path class="st23" d="M67.498,9.518c-2.172-0.046-4.346-0.086-6.448,0.599c-0.758,0.247-1.5,0.546-2.249,0.821&#xA;		c-0.511-0.229-1.059-0.396-1.447-0.838c2.175-1.586,4.665-2.135,7.304-2.194c-0.367,1.398-0.366,1.374,1.122,1.413&#xA;		C66.352,9.334,66.968,9.103,67.498,9.518z"/>
	<path class="st24" d="M77.17,5.903c-0.304-0.622-0.606-1.245-0.913-1.865c-0.776-1.57-2.011-2.574-3.731-2.973&#xA;		c-0.199-0.141-0.177-0.314,0.048-0.32c0.908-0.026,1.819-0.025,2.727,0.007c0.168,0.006,0.359,0.174,0.488,0.315&#xA;		c1.379,1.507,2.426,3.196,2.839,5.225C77.979,6.77,77.547,6.437,77.17,5.903z"/>
	<path class="st25" d="M35.478,0.261c2.427,0.479,3.277,2.488,4.256,4.362c0.15,0.288,0.177,0.639,0.434,0.878&#xA;		c0.441,0.61,0.708,1.26,0.476,2.027C40.113,7.826,39.66,7.646,39.233,7.3C38.529,4.665,36.93,2.501,35.478,0.261z"/>
	<path class="st26" d="M118.65,27.592c-0.863-0.224-1.722-0.469-2.591-0.667c-1.158-0.264-1.913-1.162-2.87-1.743&#xA;		c0.525-0.631,1.207-0.48,1.848-0.307c0.513,0.138,1.014,0.362,1.483,0.614c1.492,0.802,3.062,1.166,4.755,0.946&#xA;		c0.282,0.336,0.276,0.681,0.033,1.034C120.442,27.95,119.554,27.948,118.65,27.592z"/>
	<path class="st27" d="M94.806,26.651c-2.399,2.549-6.512,2.679-9.319,0.295c0.184-0.43,0.509-0.238,0.755-0.127&#xA;		c2.327,1.053,4.447,0.516,6.473-0.805c0.468-0.259,0.934-0.568,1.503-0.365C94.674,25.813,94.928,26.132,94.806,26.651z"/>
	<path class="st28" d="M92.757,16.353c-0.133-1.138,0.393-2.351-0.394-3.414c0.657,0.427,1.194-0.289,1.817-0.187&#xA;		c0.258,0.541,0.768,0.468,1.226,0.474c1.31,0.018,2.621-0.007,3.931,0.011c1.386,0.019,1.595,0.218,1.612,1.56&#xA;		c0.015,1.203,0.023,2.406-0.005,3.61c0.034,1.511,0.038,3.022,0,4.533c-0.074,0.733,0.264,1.535-0.364,2.176&#xA;		c-0.184-2.899,0.072-5.805,0.011-8.706c-0.018-0.862,0.278-1.984-0.238-2.512c-0.566-0.58-1.716-0.155-2.61-0.189&#xA;		c-0.905-0.035-1.816,0.036-2.719-0.022c-0.693-0.045-0.853,0.228-0.831,0.86c0.041,1.134,0.007,2.271,0.004,3.407&#xA;		c-0.044,0.154-0.141,0.247-0.305,0.264C93.362,17.688,93.048,17.027,92.757,16.353z"/>
	<path class="st29" d="M68.502,28.018c0.041-0.745-0.025-1.414-1.023-1.416c0.028-0.471,0.443-0.456,0.735-0.529&#xA;		c0.883-0.22,1.723-0.554,2.56-0.897c1.005-0.461,1.806-1.206,2.666-1.872c0.574-0.445,0.8-0.354,0.921,0.276&#xA;		C73.142,26.017,71.088,27.365,68.502,28.018z"/>
	<path class="st30" d="M123.094,13.729c-6.351-0.01-12.701-0.012-19.052-0.04c-0.599-0.003-0.743,0.223-0.726,0.765&#xA;		c0.024,0.766-0.022,1.534-0.038,2.302c-1.108,0.442-1.264,0.329-1.618-1.17c-0.134-0.882-0.116-1.767-0.043-2.654&#xA;		c0.023-0.118,0.069-0.226,0.134-0.327c0.083-0.11,0.185-0.13,0.305-0.062l0.002-0.003c0.399,0.267,0.923-0.105,1.306,0.252&#xA;		c0.339,0.613,0.939,0.424,1.443,0.426c5.544,0.015,11.088,0.005,16.632,0.016c0.557,0.001,1.154-0.124,1.634,0.312&#xA;		C123.08,13.605,123.087,13.667,123.094,13.729z"/>
	<path class="st31" d="M100.58,25.115c-0.085-0.747-0.113-1.42-0.081-2.132c0.371-0.305,0.944-0.291,1.351-0.083&#xA;		c0.182,0.164,0.239,0.382,0.266,0.611c0.035,1.229-0.034,2.485,0.857,3.507c0.671,0.852,1.501,1.175,2.554,0.76&#xA;		c0.434-0.068,0.758-0.409,1.178-0.485c0.378-0.069,0.893-0.268,0.816,0.476c-0.9,0.583-1.869,0.895-2.962,0.883&#xA;		C102.433,28.63,100.857,27.253,100.58,25.115z"/>
	<path class="st32" d="M107.521,27.77c-0.216-0.62-0.613-0.317-0.957-0.17c-0.354,0.152-0.626,0.508-1.076,0.409&#xA;		c-0.13-0.27,0.072-0.434,0.2-0.622c1.116-1.196,1.056-2.734,1.239-4.203c0.003-0.024,0.051-0.064,0.069-0.06&#xA;		c0.05,0.012,0.096,0.043,0.144,0.066c0.164,0.118,0.327,0.249,0.409,0.431c0.386,0.854,0.881,1.477,1.97,1.084&#xA;		c0.142-0.051,0.402-0.011,0.369,0.209C109.419,26.071,108.614,27.123,107.521,27.77z"/>
	<path class="st33" d="M39.233,7.3c0.449,0.069,0.898,0.138,1.346,0.207c0.806,0.875,0.567,1.996,0.719,3.025&#xA;		c-0.064,0.815,0.074,1.635-0.052,2.447c-0.022,0.105-0.063,0.204-0.119,0.296c-0.064,0.073-0.151,0.177-0.236,0.156&#xA;		c-0.687-0.171-0.979,0.081-0.927,0.784c0.012,0.154-0.108,0.308-0.316,0.303C39.595,12.108,39.704,9.688,39.233,7.3z"/>
	<path class="st34" d="M41.01,10.522c-0.046-1.018-0.171-2.026-0.431-3.014c-0.137-0.669-0.274-1.338-0.411-2.007&#xA;		c0.433,0.336,0.921,0.467,1.465,0.393c0.686,1.819,0.838,3.711,0.774,5.632C41.351,11.951,41.238,11.869,41.01,10.522z"/>
	<path class="st35" d="M94.806,26.651c-0.575-1.056-0.575-1.056-2.036-0.437c-0.325-0.441-0.414-1.311-0.554-1.846&#xA;		c0.56-0.465,0.77-0.69,1.213-1.25c0.945,0.163,1.807,0.234,2.734,0.585c0.103,0.084,0.123,0.185,0.06,0.302&#xA;		C96.082,25.062,95.632,25.956,94.806,26.651z"/>
	<path class="st36" d="M70.916,25.388c-1.086,0.572-2.302,0.779-3.437,1.214c0,0-0.095-0.002-0.095-0.002l-0.095,0.009&#xA;		c-0.541,0.154-1.082,0.168-1.621-0.009c0.103-0.205,0.292-0.409,0.293-0.614c0.003-0.764,0.477-1.022,1.115-1.145&#xA;		c1.182-0.127,2.325-0.42,3.451-0.787C70.943,24.416,71.286,24.799,70.916,25.388z"/>
	<path class="st37" d="M42.822,11.964c0.238-0.368,0.61-0.187,0.915-0.19c1.742-0.019,3.485-0.009,5.227-0.009&#xA;		c1.688,0,1.708,0.025,1.4,1.756c-0.605-0.398-1.272-0.517-1.992-0.503c-1.231,0.024-2.464-0.006-3.696,0.01&#xA;		C43.831,13.038,43.182,12.766,42.822,11.964z"/>
	<path class="st38" d="M92.216,24.367c0.279,0.451,0.697,1.214,0.554,1.846c-2.061,1.515-4.26,1.921-6.649,0.82&#xA;		c-0.199-0.092-0.39-0.298-0.634-0.087c-0.133-0.108-0.265-0.216-0.397-0.324c-0.028-0.198-0.187-0.43,0.144-0.534&#xA;		c0.094-0.013,0.185-0.008,0.278,0.011c1.824,1.15,3.467,0.55,5.077-0.498C91.081,25.281,91.637,24.917,92.216,24.367z"/>
	<path class="st39" d="M48.492,28.813c-0.679-0.344-1.35-0.702-2.039-1.026c-0.372-0.175-0.411-0.454-0.405-0.809&#xA;		c0.024-1.396,0.029-2.792,0.041-4.189c0.377-0.316,0.777-0.305,1.19-0.078c0.18,0.18,0.236,0.408,0.256,0.649&#xA;		c0.042,0.566,0.044,1.135,0.012,1.7c-0.051,0.931,0.114,1.781,0.678,2.553C48.474,27.954,48.725,28.344,48.492,28.813z"/>
	<path class="st40" d="M13.908,28.975c-0.764-0.156-1.356-0.675-2.057-0.962c-0.348-0.143-0.375-0.41-0.37-0.728&#xA;		c0.02-1.43,0.026-2.86,0.038-4.291c0.463-0.35,0.863-0.178,1.246,0.147c0.133,0.192,0.181,0.41,0.196,0.639&#xA;		c0.027,0.363,0.061,0.735,0.002,1.088c-0.227,1.373,0.4,2.505,0.981,3.655C14.005,28.679,13.941,28.792,13.908,28.975z"/>
	<path class="st41" d="M23.456,21.567c-0.009-0.631,0.021-1.265-0.035-1.892c-0.156-1.747-1.221-2.785-2.984-2.901&#xA;		c-2.046-0.135-3.637,0.657-4.737,2.394c-0.439,0.273-0.708,0.104-0.876-0.331c0.751-1.368,1.916-2.214,3.395-2.668&#xA;		c0.157-0.045,0.316-0.071,0.479-0.08c0.72-0.007,1.439-0.037,2.158,0.021c2.131,0.519,3.423,1.827,3.793,4&#xA;		c-0.007,0.152-0.046,0.295-0.128,0.424C23.86,20.564,23.975,21.39,23.456,21.567z"/>
	<path class="st42" d="M7.918,8.595c-0.505,0.18-0.824-0.011-1.032-0.481C6.671,7.629,6.413,7.162,6.201,6.676&#xA;		C5.68,5.481,4.816,4.684,3.565,4.266c-0.55-0.184-1.171-0.333-1.43-0.97C2.393,2.786,2.843,2.566,3.38,2.476&#xA;		c1.094,0.116,1.861,0.793,2.427,1.621C6.748,5.474,7.362,7.027,7.918,8.595z"/>
	<path class="st43" d="M79.185,28.624c-0.004,0.141,0.081,0.418-0.192,0.296c-0.761-0.341-1.498-0.734-2.243-1.111&#xA;		c-0.277-0.14-0.179-0.406-0.178-0.621c0.004-1.332,0.022-2.664,0.036-3.996c0.369-0.305,0.762-0.303,1.173-0.095&#xA;		c0.143,0.115,0.21,0.273,0.251,0.445c0.017,0.097,0.043,0.196,0.032,0.294C77.865,25.564,78.231,27.162,79.185,28.624z"/>
	<path class="st44" d="M77.17,5.903c0.431,0.333,0.915,0.471,1.458,0.388c0.64,1.697,0.646,3.46,0.558,5.234&#xA;		c-1.05,0.421-1.391,0.201-1.309-0.827c0.037-0.461,0.101-0.928-0.053-1.384C77.857,8.13,77.342,7.049,77.17,5.903z"/>
	<path class="st45" d="M27.633,20.968c0.026-0.876,0.459-1.574,0.984-2.233c0.532-0.172,1.05-0.043,1.568,0.073&#xA;		c0.41,0.298,0.795,0.498,1.075,0.955c-0.577,0.83-0.974,1.09-1.449,2.212c-0.368,0.088-0.731,0.09-1.083-0.07&#xA;		C28.417,21.533,28.021,21.255,27.633,20.968z"/>
	<path class="st46" d="M82.081,20.377c0.133-0.699,0.443-1.312,0.914-1.846c0.87,0.142,1.699,0.051,2.462-0.425&#xA;		c0.364,0.366,0.81,1.035,1.176,1.401c-0.799,0.588-0.874,0.704-1.447,1.575C84.145,21.243,82.973,20.893,82.081,20.377z"/>
	<path class="st47" d="M122.679,17.371c-0.713,0.065-1.318-0.39-2.013-0.412c-0.747-0.228-1.513-0.104-2.268-0.094&#xA;		c-0.81,0.011-1.423-0.249-1.836-0.947c2.257-0.394,4.353-0.17,6.491,0.382C123.448,17.06,123.379,17.257,122.679,17.371z"/>
	<path class="st48" d="M120.266,21.997c-1.522,0.502-3.047,0.972-4.69,0.802c-0.442-0.046-0.866-0.076-1.199-0.407&#xA;		c-0.515-0.162-0.891-0.449-0.943-1.031c0.03-0.204,0.046-0.423,0.347-0.386c0.314,1.138,1.191,1.161,2.076,0.934&#xA;		c1.214-0.311,2.399-0.735,3.596-1.11C119.89,21.087,120.314,21.383,120.266,21.997z"/>
	<path class="st49" d="M7.918,8.595C7.053,7.504,6.722,6.145,6.073,4.944C5.476,3.841,4.67,3.004,3.423,2.658&#xA;		C2.448,2.113,1.718,1.298,1,0.47C0.997,0.167,1.192,0.218,1.382,0.258c0.67,0.258,1.181,0.725,1.67,1.231&#xA;		c0.856,0.884,1.796,1.576,3.142,1.196c0.845,1.653,1.174,3.489,1.86,5.199C8.136,8.086,8.219,8.409,7.918,8.595z"/>
	<path class="st50" d="M118.65,27.592c0.889,0.18,1.738-0.177,2.613-0.195c1.173-0.738,2.555-1.081,3.673-1.925&#xA;		c0.214-0.049,0.415-0.041,0.576,0.134c-1.075,2.025-2.992,2.668-5.065,3.057c-0.102,0.293-0.379,0.402-0.604,0.565&#xA;		c-0.187-0.097-0.387-0.247-0.36-0.446C119.571,28.113,119.102,27.866,118.65,27.592z"/>
	<path class="st51" d="M42.822,11.964c0.602,0.705,1.387,0.804,2.266,0.769c1.31-0.052,2.625,0.009,3.937-0.023&#xA;		c0.653-0.016,1.114,0.179,1.339,0.811c-0.014,0.053-0.047,0.088-0.1,0.104c-2.452,0.027-4.904-0.013-7.356,0.021&#xA;		C42.609,13.099,42.75,12.53,42.822,11.964z"/>
	<path class="st52" d="M48.492,28.813c-0.014-0.132,0.023-0.313-0.05-0.387c-1.416-1.446-1.205-3.255-1.153-5.03&#xA;		c0.588-0.346,1.103-0.441,1.353,0.386c0.009,1.644,0.018,3.287,0.025,4.931c0,0.031-0.011,0.082-0.03,0.089&#xA;		C48.592,28.817,48.541,28.811,48.492,28.813z"/>
	<path class="st53" d="M120.266,21.997c-0.271-0.399-0.542-0.798-0.814-1.197c1.956-0.441,3.806-0.301,5.407,1.041&#xA;		c0.291,0.244,0.516,0.63,0.636,0.959c-0.252,0.084-0.398-0.116-0.583-0.214c-0.993-0.799-2.152-0.843-3.346-0.724&#xA;		C121.133,21.905,120.699,21.952,120.266,21.997z"/>
	<path class="st54" d="M42.394,19.974c0,0.871,0,1.742,0,2.614c-0.64,0.435-1.275,0.312-1.907-0.016&#xA;		c-0.438-0.518,0.042-1.451-0.813-1.783c-0.24-0.258-0.603-0.432-0.604-0.857c0.042-0.283,0.322-0.218,0.485-0.325&#xA;		c0.026-0.14,0.051-0.279,0.077-0.419c0.204-0.034,0.306,0.107,0.378,0.25c0.281,0.56,0.662,0.549,1.112,0.212&#xA;		C41.581,19.626,42.024,19.66,42.394,19.974z"/>
	<path class="st55" d="M24.441,20.153c-0.383-1.954-1.545-3.211-3.443-3.809c-0.815-0.156-1.63-0.16-2.444,0.002&#xA;		c-0.122,0.007-0.245,0.015-0.367,0.022c-0.407,0.132-0.792,0.166-1.073-0.246c2.85-1.338,6.152-0.117,7.748,2.87&#xA;		c0.235,0.439,0.416,0.862,0.536,1.389C24.99,20.669,24.67,20.6,24.441,20.153z"/>
	<path class="st56" d="M79.185,28.624c-1.678-1.344-1.418-3.211-1.369-5.021c0.49-0.173,0.949-0.124,1.372,0.188&#xA;		C79.188,25.402,79.187,27.013,79.185,28.624z"/>
	<path class="st57" d="M119.843,29.228c0.013-0.388,0.302-0.484,0.604-0.565c0.405,0.624,1.046,1.114,1.712,1.052&#xA;		c1.098-0.102,1.419,0.581,1.813,1.296c0.191,0.346,0.377,0.693,0.565,1.041C122.718,31.53,121.024,30.802,119.843,29.228z"/>
	<path class="st58" d="M82.081,20.377c1.037-0.03,2.173,0.641,3.236,0.428c-0.481,0.942-0.577,1.839-1.049,2.678&#xA;		c-0.251,0.146-0.515,0.159-0.788,0.079c-0.581-0.433-0.567-1.407-1.443-1.576C81.778,21.442,81.934,20.909,82.081,20.377z"/>
	<path class="st59" d="M76.609,19.773c0-1.542,0-3.084-0.001-4.626c0.39-0.313,0.796-0.306,1.216-0.066&#xA;		c0.086,0.092,0.148,0.199,0.188,0.319c0.118,0.915,0.072,1.835,0.091,2.754c-0.078,0.55,0.099,1.137-0.242,1.649&#xA;		C77.436,20.092,77.018,20.098,76.609,19.773z"/>
	<path class="st60" d="M42.393,28.422c-0.799-0.925-1.633-1.82-1.403-3.207c0.083-0.499-0.199-0.961-0.387-1.421&#xA;		c0.597-0.419,1.195-0.4,1.793-0.001C42.396,25.336,42.395,26.879,42.393,28.422z"/>
	<path class="st61" d="M14.922,18.764c0.145,0.353,0.439,0.423,0.779,0.404c-0.465,1.005-0.929,2.011-1.394,3.016&#xA;		c-0.515,0.335-0.994,0.26-1.447-0.124c-0.358-0.593-0.018-1.181,0.01-1.773c0.051-0.257,0.147-0.497,0.306-0.708&#xA;		c0.271-0.289,0.648-0.407,0.98-0.597C14.404,18.886,14.607,18.628,14.922,18.764z"/>
	<path class="st62" d="M77.802,15.147c-0.398,0-0.796,0-1.195,0c0.001-1.542,0.001-3.084,0.002-4.627&#xA;		c0.419-0.069,0.791,0.132,1.184,0.207c0.116,0.608,0.349,1.196,0.306,1.831C77.965,13.416,78.341,14.334,77.802,15.147z"/>
	<path class="st63" d="M39.556,19.606c0.026,0.445-0.224,0.167-0.377,0.142c-0.635-0.182-0.933-0.777-1.419-1.141&#xA;		c-1.332-1.199-2.847-1.806-4.667-1.435c-0.662-0.141-1.035-0.515-0.99-1.222c2.006-0.69,3.655,0.008,5.113,1.343&#xA;		C38.024,18.033,38.778,18.833,39.556,19.606z"/>
	<path class="st64" d="M39.648,14.519c0.046-0.118,0.122-0.233,0.132-0.354c0.103-1.16,0.1-1.16,1.211-0.815&#xA;		c0.547,0.843,0.231,1.786,0.317,2.682c-0.049,0.385,0.014,0.785-0.139,1.156c-0.045,0.087-0.124,0.218-0.195,0.201&#xA;		c-0.658-0.158-0.977,0.11-1.046,0.757c-0.014,0.128-0.135,0.219-0.291,0.202C39.641,17.072,39.645,15.795,39.648,14.519z"/>
	<path class="st65" d="M3.826,19.37c0.015-1.334-0.014-2.702,0.139-3.998c0.704,0.271,1.172,0.794,1.536,1.428&#xA;		c0.227,0.516,0.189,1.064,0.196,1.607c-0.001,0.445,0.057,0.897-0.188,1.307C4.894,19.866,4.352,19.656,3.826,19.37z"/>
	<path class="st66" d="M58.179,11.505c0.019,0.508-0.057,1.043,0.409,1.424c-0.375,0.454-0.862,0.823-1.067,1.405&#xA;		c-0.266,0.218-0.538,0.421-0.916,0.299c-0.34-0.294-0.658-0.615-1.017-0.889c-0.086-0.62-0.001-1.199,0.209-1.806&#xA;		c0.753,0.065,1.527,0.228,2.114-0.462C58.005,11.446,58.094,11.456,58.179,11.505z"/>
	<path class="st67" d="M6.194,2.685C5.193,3.24,4.556,3.161,3.49,2.247C2.758,1.618,2.082,0.924,1.382,0.258&#xA;		C3.209,0.629,5.025,1.022,6.194,2.685z"/>
	<path class="st68" d="M70.916,25.388c0.097-0.51-0.337-0.867-0.389-1.334c1.158-0.556,2.366-1.035,3.204-2.08&#xA;		c0.4-0.114,0.776-0.113,1.082,0.224c-0.019,0.503-0.137,0.974-0.452,1.381c-0.263-0.77-0.59-0.257-0.856-0.021&#xA;		C72.708,24.263,71.891,24.935,70.916,25.388z"/>
	<path class="st69" d="M13.304,19.556c-0.067,0.206-0.135,0.413-0.202,0.619c-0.558,0.165-1.092,0.143-1.584-0.201&#xA;		c0.025-1.263-0.053-2.531,0.134-3.788c0.385,0.122,0.677,0.361,0.892,0.697c0.521,0.502,0.6,1.173,0.709,1.833&#xA;		C13.32,18.993,13.374,19.271,13.304,19.556z"/>
	<path class="st70" d="M48.99,10.204c-0.544-0.163-0.592-0.695-0.767-1.097c-0.52-1.19-1.254-2.111-2.584-2.463&#xA;		c-0.298-0.079-0.647-0.208-0.791-0.559c0.006-0.658,0.517-0.698,0.982-0.795c0.324,0,0.613,0.112,0.887,0.273&#xA;		c1.462,1.069,1.93,2.733,2.577,4.287C49.399,10.106,49.241,10.213,48.99,10.204z"/>
	<path class="st71" d="M40.994,17.359c0.007-0.403,0.015-0.806,0.022-1.209c0.516,0.075,0.952,0.327,1.378,0.604&#xA;		c0,1.073,0,2.146,0,3.219c-0.482,0.057-0.933-0.082-1.385-0.213C40.539,18.963,40.549,18.163,40.994,17.359z"/>
	<path class="st72" d="M11.518,19.974c0.533,0.026,1.087-0.108,1.584,0.201c-0.066,0.602-0.132,1.204-0.198,1.806&#xA;		c0.316,0.466,0.229,0.865-0.205,1.205c-0.396-0.051-0.763-0.271-1.18-0.192C11.519,21.987,11.518,20.98,11.518,19.974z"/>
	<path class="st73" d="M47.273,22.78c-0.395,0.003-0.789,0.006-1.184,0.01c0-1.207,0-2.414,0-3.621&#xA;		c0.402-0.329,0.814-0.315,1.236-0.04c0.309,0.451,0.241,0.965,0.245,1.467C47.46,21.322,47.81,22.112,47.273,22.78z"/>
	<path class="st74" d="M77.823,12.536c-0.009-0.603-0.019-1.206-0.028-1.81c0.01-0.471,0.02-0.941,0.03-1.412&#xA;		c0.291,0.304,0.21,0.693,0.168,1.03c-0.117,0.942,0.237,1.346,1.194,1.18c0,1.005-0.001,2.011-0.001,3.016&#xA;		c-1.019,0.414-1.252,0.273-1.282-0.744C77.89,13.377,77.99,12.948,77.823,12.536z"/>
	<path class="st75" d="M122.679,17.371c0.665-0.17,0.37-0.672,0.375-1.071c0.132-0.855,0.072-1.714,0.04-2.572&#xA;		c0,0,0.006-0.001,0.006-0.001c0.534,0.07,0.391,0.511,0.438,0.827c0.071,0.476-0.074,0.974,0.137,1.457&#xA;		c0.298-0.127,0.166-0.474,0.359-0.636c0.603-0.08,0.67,0.562,1.055,0.775c-0.002,0.941-0.003,1.883-0.005,2.824&#xA;		c-0.149-0.127-0.359-0.225-0.438-0.387C124.243,17.761,123.5,17.511,122.679,17.371z"/>
	<path class="st76" d="M102.863,27.225c-1.079-1.008-1.017-2.323-0.987-3.629c0.467-0.362,0.936-0.349,1.405-0.003&#xA;		c0.007,0.928,0.014,1.855,0.021,2.783C103.383,26.774,103.171,27.024,102.863,27.225z"/>
	<path class="st77" d="M46.637,5.704c-0.247-0.078-0.494-0.155-0.74-0.233c-0.849-0.41-1.475-1.071-2.044-1.796&#xA;		c0.03-0.054,0.054-0.15,0.09-0.155c1.251-0.16,3.556,1.057,4.132,2.174C47.6,6.318,47.119,6.002,46.637,5.704z"/>
	<path class="st78" d="M91.509,16.167c0.005,0.19,0.009,0.38,0.014,0.569c-0.138,0.171-0.338,0.247-0.534,0.205&#xA;		c-1.148-0.243-2.251,0.116-3.372,0.226c-0.758-0.058-1.07-0.525-1.13-1.223c1.354-0.5,2.697-0.185,4.041,0.057&#xA;		C90.854,16.061,91.182,16.113,91.509,16.167z"/>
	<path class="st79" d="M76.609,19.773c0.397,0.001,0.794,0.003,1.191,0.004c0.425,0.477,0.272,1.06,0.302,1.61&#xA;		c-0.098,0.599,0.184,1.262-0.299,1.798c-0.398,0.002-0.796,0.004-1.195,0.006C76.608,22.052,76.608,20.912,76.609,19.773z"/>
	<path class="st80" d="M3.826,19.37c0.551,0.042,1.174-0.195,1.584,0.4c0.155,0.118,0.221,0.284,0.256,0.468&#xA;		c0.04,0.596,0.166,1.205-0.239,1.741c0,0-0.012,0.018-0.012,0.018c-0.53-0.004-1.059-0.008-1.588-0.012&#xA;		C3.826,21.114,3.826,20.242,3.826,19.37z"/>
	<path class="st81" d="M116.563,15.918c1.134,1.257,2.774,0.545,4.103,1.041c-1.779-0.036-3.558-0.067-5.256,0.6&#xA;		c-0.708,0.194-0.843-0.456-1.187-0.798C114.918,16.249,115.717,16.02,116.563,15.918z"/>
	<path class="st82" d="M102.056,12.542c-0.065-0.001-0.13-0.004-0.195-0.009c-0.35-1.111-0.35-2.235-0.119-3.367&#xA;		c0.444-0.383,0.909-0.703,1.543-0.461c0.012,1.003,0.023,2.005,0.035,3.008C102.767,11.789,101.945,11.463,102.056,12.542z"/>
	<path class="st83" d="M125.088,16.151c-0.664,0.135-0.705-0.47-0.972-0.807c-0.266-0.211-0.292-0.521-0.267-0.809&#xA;		c0.058-0.667-0.165-1.217-0.604-1.701c0.012-0.051,0.024-0.101,0.037-0.152c0.416,0.091,1.637,0.004,2.05,0.035&#xA;		c0.282,0.068-0.271,0.465,0.009,0.542c0.495,0.136,0.679-0.041,0.585-0.532c0.215-0.145,0.43-0.29,0.724-0.488&#xA;		c0.049,0.447,0.093,0.849,0.138,1.25c-0.018,0.026-0.033,0.058-0.057,0.08c-0.452,0.421-1.349-0.317-1.572,0.516&#xA;		c-0.148,0.555-0.031,1.179-0.036,1.772C125.12,15.955,125.099,16.053,125.088,16.151z"/>
	<path class="st84" d="M40.994,17.359c0.005,0.801,0.01,1.601,0.015,2.402c-0.114,0.651-0.386,0.698-0.871,0.271&#xA;		c-0.272-0.24-0.29-0.593-0.505-0.845c0.001-0.279,0.003-0.559,0.004-0.839c0.051-0.151,0.133-0.299,0.147-0.453&#xA;		C39.884,16.762,39.987,16.714,40.994,17.359z"/>
	<path class="st85" d="M41.01,10.522c0.177,0.732,0.539,1.21,1.397,1.004c-0.004,0.939-0.009,1.877-0.013,2.816&#xA;		c-0.946,0.34-1.201,0.196-1.284-0.734c-0.014-0.162,0.007-0.329-0.088-0.475C41.018,12.262,41.014,11.392,41.01,10.522z"/>
	<path class="st86" d="M113.78,20.976c-0.159,0.089-0.188,0.242-0.2,0.403c-0.516-0.029-0.471-0.482-0.588-0.796&#xA;		c-0.126-0.338-0.092-0.736-0.39-1.009c-0.084-0.587,0.018-1.132,0.36-1.625c0.517-0.228,0.988-0.125,1.427,0.2&#xA;		c-0.196,0.457,0.054,0.836,0.215,1.231C114.155,19.823,113.769,20.298,113.78,20.976z"/>
	<path class="st87" d="M77.817,21.385c-0.006-0.536-0.012-1.072-0.017-1.609c0.007-0.536,0.013-1.073,0.02-1.609&#xA;		c0.493,0.359,0.691,1.048,1.366,1.203c0,0.871,0,1.743,0.001,2.614C78.241,22.367,78.096,22.303,77.817,21.385z"/>
	<path class="st88" d="M47.288,20.581c-0.006-0.47-0.012-0.941-0.017-1.411c-0.446-0.683-0.363-1.395-0.117-2.115&#xA;		c0.088-0.123,0.295-0.171,0.312-0.062c0.153,1.017,1.433,1.578,1.128,2.772c-0.015,0.058,0.025,0.127,0.048,0.19&#xA;		c0,0.736,0,1.472,0,2.208C48.188,21.637,47.405,21.391,47.288,20.581z"/>
	<path class="st89" d="M101.881,15.543c0.201,0.706,0.296,1.533,1.397,1.212c0.04,0.908,0.04,1.66,0.001,2.614&#xA;		c-1,0.412-1.19,0.321-1.604-0.764c-0.037-0.118-0.06-0.24-0.074-0.363C101.634,17.337,101.294,16.392,101.881,15.543z"/>
	<path class="st90" d="M47.281,16.967c-0.003,0.734-0.007,1.468-0.01,2.202c-0.394,0-0.788,0-1.182-0.001&#xA;		c0.001-1.143,0.002-2.287,0.004-3.43c0.775-0.14,1.034,0.409,1.294,0.957C47.385,16.799,47.348,16.889,47.281,16.967z"/>
	<path class="st91" d="M82.037,21.985c1.246-0.304,1.16,0.727,1.425,1.406c0.557,0.931,0.957,1.948,1.589,2.837&#xA;		c0.028,0.08,0.542,0.521,0.761,0.645c0.114,0.065-0.246,0.015-0.324,0.073C83.511,25.553,82.227,24.07,82.037,21.985z"/>
	<path class="st92" d="M14.922,18.764c-0.205,0.13-0.409,0.261-0.614,0.391c-0.356-0.407-0.281-0.82-0.019-1.235&#xA;		c0.895-0.672,1.709-1.468,2.824-1.798c0.358,0.082,0.715,0.164,1.073,0.246C16.834,16.81,15.919,17.843,14.922,18.764z"/>
	<path class="st93" d="M79.185,19.371c-1.1,0.323-1.15-0.534-1.366-1.203c-0.001-0.936-0.003-1.872-0.004-2.808&#xA;		c0.268-0.047,0.377,0.163,0.375,0.335c-0.01,0.703,0.449,1.01,0.995,1.263C79.185,17.761,79.185,18.566,79.185,19.371z"/>
	<path class="st94" d="M79.185,16.956c-0.816,0.105-1.365-0.074-1.188-1.069c0.034-0.192-0.004-0.393-0.182-0.528&#xA;		c-0.004-0.07-0.008-0.141-0.013-0.212c0.007-0.87,0.013-1.741,0.02-2.611c0.254,0.236,0.21,0.554,0.172,0.831&#xA;		c-0.131,0.942,0.24,1.338,1.191,1.175C79.185,15.347,79.185,16.151,79.185,16.956z"/>
	<path class="st95" d="M5.428,18.358c-0.034-0.544,0.075-1.104-0.195-1.62c0.642-0.313,0.952-1.238,1.771-1.284&#xA;		c-0.001,0.932,0.001,1.98,0,2.912C6.477,18.754,5.952,18.731,5.428,18.358z"/>
	<path class="st96" d="M41.022,13.131c0.189,0.704,0.342,1.448,1.372,1.209c0,0.805,0,1.609,0,2.414&#xA;		c-0.58,0.071-1.028-0.156-1.378-0.604c-0.008-0.933-0.016-1.867-0.024-2.8C41.002,13.277,41.012,13.204,41.022,13.131z"/>
	<path class="st97" d="M101.874,18.57c0.15,0.821,0.739,0.877,1.405,0.799c0.026,0.845-0.022,1.563,0,2.412&#xA;		c-0.958,0.4-1.14,0.328-1.618-0.637C101.588,20.274,101.318,19.388,101.874,18.57z"/>
	<path class="st98" d="M46.637,5.704c0.48,0.138,0.96,0.206,1.438-0.01c0.47,1.294,0.96,2.582,1.393,3.888&#xA;		c0.098,0.295,0.184,0.805-0.48,0.622c0.067-0.07,0.202-0.177,0.187-0.204C48.38,8.538,47.998,6.833,46.637,5.704z"/>
	<path class="st99" d="M12.699,23.186c0.068-0.402,0.137-0.803,0.205-1.205c0.46,0.12,0.916,0.264,1.403,0.203&#xA;		c-0.411,1.873-0.165,3.774-0.25,5.661c-0.017,0.376,0.02,0.827-0.149,1.129c-0.009-0.109-0.018-0.218-0.027-0.327&#xA;		c-0.392-1.027-0.295-2.102-0.256-3.159c0.029-0.781-0.169-1.361-0.908-1.696C12.711,23.591,12.705,23.388,12.699,23.186z"/>
	<path class="st100" d="M85.487,18.17c-0.725,0.845-1.561,0.934-2.493,0.36c0.349-0.659,0.873-1.156,1.478-1.577&#xA;		c0.757-0.238,1.013,0.445,1.457,0.783C85.945,18.045,85.83,18.222,85.487,18.17z"/>
	<path class="st101" d="M30.286,18.959c-0.565-0.008-1.175,0.143-1.697-0.188c0.463-0.764,0.969-1.364,1.65-1.84&#xA;		c0.717-0.227,0.983,0.313,1.306,0.757C31.4,18.381,30.852,18.679,30.286,18.959z"/>
	<path class="st102" d="M23.456,21.567c0.172-0.15,0.172-0.354,0.165-0.553c-0.027-0.687,0.287-0.734,0.796-0.429&#xA;		c0.348,0.336,0.279,0.775,0.302,1.192c-0.117,0.615,0.242,1.359-0.492,1.808c-0.419,0.077-0.794-0.116-1.188-0.191&#xA;		C23.177,22.785,23.317,22.176,23.456,21.567z"/>
	<path class="st103" d="M47.288,20.581c0.225,0.242,0.271,0.641,0.77,0.621c0.681-0.026,0.241,0.722,0.582,0.961&#xA;		c0,0.54,0,1.079,0,1.619c-0.333-0.54-0.871-0.365-1.353-0.386c-0.005-0.205-0.01-0.41-0.016-0.616&#xA;		C47.278,22.047,47.283,21.314,47.288,20.581z"/>
	<path class="st104" d="M124.916,25.601c-1.001,1.036-2.3,1.47-3.654,1.797c0.004-0.321,0.008-0.641,0.012-0.962&#xA;		c1.204-0.251,2.344-0.672,3.416-1.274C124.888,25.246,125.004,25.371,124.916,25.601z"/>
	<path class="st105" d="M55.588,13.744c0.571-0.029,0.898,0.239,0.984,0.8c0.415,0.56,0.349,1.304,0.73,1.876&#xA;		c0.152,0.595,0.952,0.82,0.893,1.536c-0.509,0.178-0.63-0.805-1.215-0.401C56.144,16.42,55.559,15.193,55.588,13.744z"/>
	<path class="st106" d="M47.281,16.967c-0.001-0.072-0.002-0.144-0.004-0.216c0.402-0.36,0.63-1.012,1.37-0.804&#xA;		c-0.002,1.336-0.004,2.671-0.006,4.007c-0.266-0.558,0.034-1.396-1.027-1.573C47.218,18.315,47.706,17.39,47.281,16.967z"/>
	<path class="st107" d="M19.984,27.55c0.252-0.071,0.502-0.152,0.757-0.213c1.468-0.351,1.634-0.24,1.892,1.2&#xA;		c0.034,0.191,0.138,0.37,0.21,0.555c-0.305,0.232-0.641-0.164-0.907-0.306C21.258,28.423,20.631,27.968,19.984,27.55z"/>
	<path class="st108" d="M85.892,17.762c-0.627-0.001-0.792-0.806-1.419-0.808c0.565-0.547,1.225-0.903,2.013-1.009&#xA;		c0.41,0.268,0.356,1,1.022,1.012C87.187,17.657,86.568,17.767,85.892,17.762z"/>
	<path class="st109" d="M5.427,21.979c-0.001-0.601-0.002-1.203-0.003-1.804c0.527-0.37,1.054-0.395,1.581,0.002&#xA;		c0,0.605,0.001,1.21,0.001,1.815C6.479,21.988,5.953,21.984,5.427,21.979z"/>
	<path class="st110" d="M7.004,20.177c-0.527-0.001-1.054-0.001-1.581-0.002c-0.005-0.135-0.009-0.27-0.014-0.405&#xA;		c0.006-0.471,0.012-0.942,0.018-1.413c0.526,0.002,1.051,0.005,1.577,0.007C7.005,18.969,7.004,19.573,7.004,20.177z"/>
	<path class="st111" d="M101.879,21.176c0.229,0.747,0.849,0.599,1.401,0.605c0.008,0.605,0.008,1.203,0,1.811&#xA;		c-0.468,0.001-0.937,0.002-1.405,0.003c-0.005-0.204-0.01-0.408-0.016-0.612C101.468,22.377,101.421,21.774,101.879,21.176z"/>
	<path class="st112" d="M77.817,21.385c0.226,0.719,0.821,0.607,1.369,0.599c0.001,0.602,0.002,1.204,0.003,1.806&#xA;		c-0.464-0.017-0.942,0.072-1.372-0.188c-0.005-0.139-0.009-0.278-0.014-0.418C77.807,22.585,77.812,21.985,77.817,21.385z"/>
	<path class="st113" d="M1,0.47C1.953,1.04,2.711,1.824,3.423,2.658C2.994,2.87,2.564,3.083,2.134,3.295&#xA;		C1.725,2.366,1.227,1.472,1,0.47z"/>
	<path class="st114" d="M31.502,17.76c-0.469-0.204-0.671-0.81-1.263-0.829c0.651-0.524,1.248-0.788,1.864-0.982&#xA;		c0.3,0.38,0.375,0.984,1.024,1.016C32.788,17.64,32.183,17.777,31.502,17.76z"/>
	<path class="st115" d="M42.397,23.792c-0.598,0-1.195,0.001-1.793,0.001c-0.07-0.07-0.139-0.139-0.209-0.209&#xA;		c-0.582-0.404-0.322-0.802,0.008-1.2c0.646,0.244,1.321,0.207,1.992,0.203C42.395,22.989,42.396,23.391,42.397,23.792z"/>
	<path class="st116" d="M7.005,15.454c-0.656,0.293-0.872,1.357-1.772,1.284c-0.423-0.455-0.845-0.91-1.268-1.365&#xA;		C4.862,15.299,6.085,15.141,7.005,15.454z"/>
	<path class="st117" d="M73.976,12.955c-0.395-0.69-0.381-1.622-1.225-2.047c0.922,0.215,1.734-0.303,2.611-0.389&#xA;		C74.972,11.372,74.533,12.197,73.976,12.955z"/>
	<path class="st118" d="M103.286,8.704c-0.505,0.026-0.883,0.501-1.425,0.398c-0.868-0.386-0.91-1.258-1.187-1.992&#xA;		c0.072-0.076,0.144-0.151,0.216-0.227C101.71,7.46,102.684,7.839,103.286,8.704z"/>
	<path class="st119" d="M27.633,20.968c0.578-0.02,1.097,0.035,1.042,0.816c0.313,0.505,0.474,1.029,0.191,1.605&#xA;		c-0.287-0.123-0.583-0.36-0.832,0.058C27.663,22.601,27.532,21.892,27.633,20.968z"/>
	<path class="st120" d="M109.803,25.012c-0.025-0.022-0.059-0.069-0.074-0.063c-1.705,0.638-2.138-0.573-2.588-1.758&#xA;		c0.835,0.445,1.669,0.89,2.504,1.335C109.854,24.637,110.095,24.738,109.803,25.012z"/>
	<path class="st121" d="M58.195,17.957c-0.281-0.51-0.919-0.759-1.035-1.39c-0.071-0.263,0.004-0.472,0.23-0.626&#xA;		c0.384,1.186,1.3,1.472,2.418,1.413c-0.023,0.446-0.045,0.892-0.611,1.013C58.852,18.333,58.542,18.191,58.195,17.957z"/>
	<path class="st122" d="M24.439,21.788c-0.008-0.401-0.015-0.802-0.023-1.202c0.008-0.144,0.016-0.288,0.024-0.433&#xA;		c0.285,0.218,0.616,0.239,0.956,0.228c0.229,0.65,0.276,1.294,0.249,2.004C24.912,22.849,24.572,22.526,24.439,21.788z"/>
	<path class="st123" d="M58.179,11.505c-0.064,0.004-0.128,0.011-0.191,0.02c-0.742,0.374-1.1-0.24-1.556-0.6&#xA;		c0.341-0.425,0.542-0.63,0.922-0.825c0.552,0.161,1.168,0.21,1.447,0.837C58.593,11.127,58.386,11.316,58.179,11.505z"/>
	<path class="st124" d="M57.797,21.989c-0.571,1.208,0.446,1.828,0.982,2.626c-0.939-0.418-1.484-1.461-2.589-1.617&#xA;		C56.454,22.234,56.998,21.91,57.797,21.989z"/>
	<path class="st125" d="M102.863,27.225c-0.007-0.362,0.304-0.561,0.438-0.85c0.651,1.436,0.986,1.578,2.388,1.013&#xA;		c-0.067,0.207-0.133,0.415-0.2,0.622C104.245,28.447,103.852,28.33,102.863,27.225z"/>
	<path class="st126" d="M74.813,22.198c-0.377,0.002-0.748-0.022-1.082-0.224c0.301-0.563,0.355-1.165,0.284-1.787&#xA;		c0.088,0.19,0.176,0.379,0.353,0.759c0-0.58,0-0.975,0-1.37c0.495-0.084,0.377,0.402,0.567,0.602&#xA;		C74.969,20.856,75.094,21.539,74.813,22.198z"/>
	<path class="st127" d="M114.389,18.149c-0.498,0.088-0.959-0.084-1.427-0.2c0.273-0.551,0.696-0.944,1.261-1.188&#xA;		c0.602-0.038,0.645,0.747,1.187,0.798C115.07,17.756,114.73,17.953,114.389,18.149z"/>
	<path class="st128" d="M24.439,21.788c0.199,0.606,0.674,0.659,1.206,0.597c0.06,0.638,0.024,1.095-0.172,1.882&#xA;		c-0.096-0.807-0.959-0.224-1.248-0.682C24.561,23.018,24.37,22.387,24.439,21.788z"/>
	<path class="st129" d="M56.432,10.925c0.645-0.123,0.895,0.766,1.556,0.6c-0.564,1.008-1.33,0.961-2.191,0.413&#xA;		C56.025,11.459,56.127,11.205,56.432,10.925z"/>
	<path class="st130" d="M13.08,18.785c-0.259-0.613-0.205-1.354-0.765-1.843c0.748,0.273,1.12-0.68,1.786-0.656&#xA;		c0.024,0.525,0.048,1.128,0.072,1.652C13.897,18.333,13.496,18.568,13.08,18.785z"/>
	<path class="st131" d="M96.223,24.004c-0.024-0.067-0.048-0.133-0.072-0.2c-0.164-0.242-0.321-0.506-0.61-0.608&#xA;		c-0.628-0.223-0.703-0.691-0.608-1.252c0.021-0.208,0.067-0.406,0.206-0.572c0.592-0.163,1.06-0.077,1.23,0.606&#xA;		C96.386,22.658,96.539,23.348,96.223,24.004z"/>
	<path class="st132" d="M43.853,3.675c0.793,0.473,1.441,1.109,2.044,1.796c-0.419,0.087-0.823,0.201-1.05,0.614&#xA;		C44.4,5.329,44.04,4.537,43.853,3.675z"/>
	<path class="st133" d="M124.916,25.601c-0.075-0.147-0.15-0.293-0.225-0.44c0.204-0.324,0.408-0.647,0.612-0.971&#xA;		c0.616-0.715-0.123-1.102-0.391-1.604c0.194,0.071,0.388,0.143,0.583,0.214c0.602,0.932,0.55,1.867,0.017,2.806&#xA;		C125.313,25.604,125.115,25.602,124.916,25.601z"/>
	<path class="st134" d="M48.647,15.948c-0.598,0.028-0.753,0.806-1.37,0.804c-0.35-0.39-0.641-0.847-1.184-1.012&#xA;		c0.04-0.311,1.207-0.179,2.024-0.156C48.397,15.591,48.699,15.618,48.647,15.948z"/>
	<path class="st135" d="M96.371,21.979c-0.251-0.47-0.81-0.349-1.173-0.606c-0.353-0.4-0.476-0.848-0.284-1.36&#xA;		c0.402-0.278,0.719-0.04,1.042,0.168C96.229,20.749,96.408,21.339,96.371,21.979z"/>
	<path class="st136" d="M14.101,16.285c-0.578,0.246-0.884,1.4-1.786,0.656c-0.221-0.252-0.441-0.504-0.662-0.755&#xA;		C12.257,16.075,13.08,15.997,14.101,16.285z"/>
	<path class="st137" d="M72.096,17.388c0.346-0.209,0.693-0.418,1.039-0.627c0.53,0.355,0.881,0.855,1.162,1.413&#xA;		c-0.317,0.288-0.63,0.177-0.943-0.01C72.935,17.905,72.515,17.647,72.096,17.388z"/>
	<path class="st138" d="M112.602,19.575c0.467,0.032,0.564,0.336,0.592,0.736c0.027,0.385,0.12,0.762,0.386,1.069&#xA;		c0.144,0.432,0.488,0.708,0.796,1.013c-0.178,0.003-0.324,0.062-0.405,0.232C113.1,21.792,112.558,20.814,112.602,19.575z"/>
	<path class="st139" d="M13.08,18.785c0.167-0.534,0.596-0.734,1.093-0.847c0.025,0.004,0.066,0,0.116-0.018&#xA;		c0.006,0.412,0.012,0.824,0.019,1.236c-0.309,0.197-0.629,0.365-1.003,0.401C13.033,19.355,13.149,19.043,13.08,18.785z"/>
	<path class="st51" d="M42.908,13.646c2.453-0.114,4.906-0.07,7.357-0.022C47.812,13.779,45.36,13.738,42.908,13.646z"/>
	<path class="st140" d="M95.956,20.18c-0.338,0.016-0.664-0.02-0.953-0.218c-0.536-0.197-0.603-0.773-0.934-1.137&#xA;		c-0.102-0.209-0.224-0.415-0.107-0.659c0.079-0.071,0.157-0.143,0.236-0.214C94.745,18.726,95.667,19.207,95.956,20.18z"/>
	<path class="st141" d="M57.39,15.94c-0.077,0.209-0.153,0.417-0.23,0.626c-0.489-0.589-0.603-1.287-0.588-2.021&#xA;		c0.317-0.07,0.633-0.14,0.95-0.21C57.353,14.86,57.375,15.4,57.39,15.94z"/>
	<path class="st142" d="M73.354,18.164c0.314,0.003,0.628,0.007,0.942,0.01c0.363,0.62,0.641,1.268,0.638,2.003&#xA;		c-0.189-0.201-0.378-0.402-0.567-0.602C74.296,18.916,73.599,18.7,73.354,18.164z"/>
	<path class="st29" d="M65.668,26.599c0.54,0.003,1.081,0.006,1.621,0.009c-0.938,0.34-1.88,0.3-2.824,0.026&#xA;		C64.865,26.623,65.267,26.611,65.668,26.599z"/>
	<path class="st143" d="M101.881,15.543c-0.007,0.939-0.013,1.878-0.02,2.817c-0.391,0.296-0.958,0.332-1.346-0.006&#xA;		c-0.008-1.302,0.122-2.445,0.102-3.746c-0.008-0.523-0.336-0.954-1.055-0.936c-1.711,0.042-3.23,0.041-4.943,0.036&#xA;		c-0.297-0.001-0.627-0.132-0.754-0.499c-0.087-0.251,0.229-0.289,0.314-0.458c2.084-0.009,4.168-0.019,6.252-0.028&#xA;		c0.476-0.074,0.956-0.381,1.423,0.026C101.864,13.68,101.872,14.612,101.881,15.543z"/>
	<path class="st144" d="M101.855,12.749c-0.474-0.009-0.949-0.017-1.423-0.026c0.082-0.219,0.018-0.962,0-1.302&#xA;		c-0.089-1.719,0.044-2.902,0.102-4.617c0.396,0.664,0.931,1.633,1.327,2.297c-0.005,1.144,0.176,2.287,0.001,3.431&#xA;		C101.859,12.604,101.857,12.677,101.855,12.749z"/>
	<path class="st82" d="M103.291,12.758c-0.403-0.117-0.875,0.145-1.234-0.22c6.751-0.002,13.502-0.005,20.253-0.002&#xA;		c0.326,0,0.677-0.097,0.97,0.145c0,0,0.02,0.082,0.02,0.082c-0.393,0.344-0.88,0.29-1.343,0.291c-5.775,0.008-11.55,0.009-17.325,0&#xA;		C104.169,13.054,103.682,13.106,103.291,12.758z"/>
	<path class="st145" d="M125.925,12.727c0.157,0.213,0.315,0.67,0.537,0.97c-0.459,0.049-1.137,0.043-1.589-0.114&#xA;		c-0.297-0.103-0.416-0.482-0.597-0.824C124.707,12.611,125.448,12.732,125.925,12.727z"/>
	<path class="st146" d="M39.187,23.789c-0.888,1.261-1.913,2.373-3.264,3.175c-1.944,1.154-4.591,0.618-5.874-1.226&#xA;		c-0.42-0.603-0.808-1.22-0.974-1.948c0.172-0.16,0.444-0.502,0.655-0.413c0.023,0.556,0.277,0.959,0.418,1.293&#xA;		c0.754,1.787,2.143,2.354,3.925,1.56c1.128-0.503,1.989-1.19,2.812-2.082c0.246-0.267,0.794-0.827,1.102-1.328&#xA;		C38.456,23.052,38.875,23.107,39.187,23.789z"/>
	<path class="st147" d="M39.187,23.789c-0.427-0.339-1.111-0.038-1.483-0.568c0.631-0.938,0.824-1.532,1.107-2.443&#xA;		c0.326-0.209,0.597-0.412,0.973-0.188c0.867,0.373,0.948,1.014,0.619,1.795c0.066,0.401-0.335,0.798-0.008,1.2&#xA;		C39.992,23.653,39.589,23.721,39.187,23.789z"/>
	<path class="st148" d="M29.782,23.766c-0.2,0.002-0.509,0.022-0.708,0.023c-0.069-0.134-0.138-0.267-0.207-0.401&#xA;		c-0.149-0.525-0.244-1.056-0.191-1.605c0.405,0,0.975-0.325,1.379-0.325C29.683,22.206,29.629,22.835,29.782,23.766z"/>
	<path class="st149" d="M93.963,18.167c0.083,0.197,0.165,0.394,0.248,0.592c-0.115,0.126-0.261,0.162-0.424,0.148&#xA;		c-2.142-1.883-4.269-1.504-6.397,0.032c-0.242,0.175-0.645,0.472-1.109,0.847c-0.606-0.081-0.726-0.978-0.793-1.615&#xA;		c0.135-0.136,0.27-0.272,0.404-0.408c0.539-0.268,1.078-0.537,1.617-0.805c1.322-0.367,2.66-0.455,4.015-0.22&#xA;		c0.488,0.116,0.869-0.108,1.234-0.384C93.443,16.77,93.585,17.546,93.963,18.167z"/>
	<path class="st150" d="M100.516,18.354c0.39,0.002,0.956,0.004,1.346,0.006c0.004,0.07,0.008,0.14,0.012,0.21&#xA;		c0.002,0.869,0.003,1.738,0.005,2.606c-0.006,0.602-0.013,1.205-0.019,1.807c-0.394-0.001-0.966,0.001-1.36,0&#xA;		C100.504,21.441,100.511,19.896,100.516,18.354z"/>
	<path class="st2" d="M103.291,12.758c6.67,0.002,13.339,0.003,20.009,0.005c0.666,0.197,0.897,0.635,0.811,1.314&#xA;		c-0.053,0.415-0.001,0.844,0.004,1.266c-0.117,0.424,0.21,1.163-0.302,1.219c-1.001,0.108-0.665-0.747-0.679-1.274&#xA;		c-0.013-0.515-0.025-1.178-0.034-1.561c-0.202,0.001-0.78,0.001-1.162,0c-5.908-0.011-11.779-0.037-17.688-0.038&#xA;		c-0.268,0-0.609,0.023-0.868-0.028C102.73,13.534,102.825,13.102,103.291,12.758z"/>
	<path class="st151" d="M93.192,23.599c0.265-0.538,0.529-1.077,0.794-1.615c0.399-0.313,0.798-0.312,1.196,0.001&#xA;		c-0.056,0.467-0.154,0.951,0.556,1.003c0.583,0.042,0.452,0.456,0.414,0.817C95.166,23.73,94.16,23.933,93.192,23.599z"/>
	<path class="st152" d="M84.373,23.282c-0.248,1.096,0.222,2.151,1.355,2.947c-0.071,0.006-0.607-0.006-0.678,0&#xA;		c-1.011-0.679-1.371-1.719-1.589-2.837C83.721,23.39,84.113,23.283,84.373,23.282z"/>
	<path class="st153" d="M12.717,23.793c0.961-0.169,1.374,0.084,1.304,1.046c0.049,1.314,0.035,3.007-0.113,4.136&#xA;		C12.55,27.587,12.625,25.525,12.717,23.793z"/>
	<path class="st154" d="M18.553,16.346c0.815-0.305,1.629-0.294,2.444-0.002C20.183,16.345,19.368,16.345,18.553,16.346z"/>
	<path class="st155" d="M37.761,18.787c-1.758-1.213-3.254-1.316-5.073-0.24c-0.415,0.245-0.906,0.567-1.427,1.217&#xA;		c-0.324-0.269-0.903-0.232-0.974-0.804c0.29-0.515,0.802-0.808,1.216-1.199c0.542-0.265,1.083-0.53,1.625-0.795&#xA;		c1.951-0.46,3.531,0.221,4.893,1.575C37.983,18.674,37.899,18.758,37.761,18.787z"/>
	<path class="st84" d="M37.761,18.787c0.086-0.082,0.172-0.164,0.258-0.247c0.455,0.338,0.868,0.716,1.161,1.208&#xA;		c-0.05,0.459,0.418,0.55,0.604,0.842c-0.324,0.063-0.649,0.126-0.973,0.189C38.914,19.878,38.281,19.323,37.761,18.787z"/>
	<path class="st156" d="M95.182,21.985c-0.399,0-0.797-0.001-1.196-0.001c0.195-1.09,0.278-2.267-0.265-3.135&#xA;		c0.153-0.005,0.337-0.085,0.49-0.09c0.423,0.298,0.516,0.811,0.793,1.204c0.065,0.47,0.13,0.94,0.195,1.41&#xA;		C95.193,21.577,95.187,21.781,95.182,21.985z"/>
</g>
</svg>