<?xml version="1.0" encoding="utf-8"?>
<svg xmlns="http://www.w3.org/2000/svg" width="33" height="32" viewBox="0 0 33 32" fill="none">
<path d="M18.6295 18.1295C18.0268 18.7321 17.3036 19.0134 16.5 19.0134C15.6562 19.0134 14.933 18.7321 14.3706 18.1295C13.7679 17.567 13.4866 16.8438 13.4866 16C13.4866 15.1964 13.7679 14.4732 14.3706 13.8705C14.933 13.308 15.6562 12.9866 16.5 12.9866C17.3036 12.9866 18.0268 13.308 18.6295 13.8705C19.192 14.4732 19.5134 15.1964 19.5134 16C19.5134 16.8438 19.192 17.567 18.6295 18.1295Z" fill="white"/>
<path fill-rule="evenodd" clip-rule="evenodd" d="M23.8527 19.1339C23.7723 20.1384 23.692 20.8616 23.5312 21.3036C23.2098 22.1071 22.6071 22.7098 21.8036 23.0312C21.3616 23.192 20.6384 23.3125 19.6339 23.3527C19.0714 23.3929 18.2277 23.3929 17.1429 23.3929H15.8571C14.7723 23.3929 13.9286 23.3929 13.3661 23.3527C12.3616 23.3125 11.6384 23.192 11.1964 23.0312C10.3929 22.7098 9.7902 22.1473 9.46877 21.3036C9.30806 20.8616 9.18752 20.1384 9.14734 19.1339C9.10716 18.5714 9.10716 17.7277 9.10716 16.643V15.3571C9.10716 14.3125 9.10716 13.4687 9.14734 12.8661C9.18752 11.8616 9.30806 11.1384 9.46877 10.6964C9.7902 9.89286 10.3527 9.29018 11.1964 8.96875C11.6384 8.80804 12.3616 8.72768 13.3661 8.64732C13.6016 8.64732 13.8863 8.64028 14.2174 8.63209C14.6773 8.62072 15.2264 8.60714 15.8571 8.60714H17.1429C17.7366 8.60714 18.2654 8.62012 18.7219 8.63132C19.0687 8.63983 19.3737 8.64732 19.6339 8.64732C20.6384 8.72768 21.3616 8.80804 21.8036 8.96875C22.6071 9.29018 23.2098 9.89286 23.5312 10.6964C23.692 11.1384 23.7723 11.8616 23.8527 12.8661C23.8527 13.1016 23.8598 13.3863 23.868 13.7174C23.8793 14.1772 23.8929 14.7264 23.8929 15.3571V16.6429C23.8929 17.2736 23.8793 17.8227 23.868 18.2826C23.8598 18.6137 23.8527 18.8984 23.8527 19.1339ZM18.7902 12.0223C18.067 11.6205 17.3036 11.3795 16.5 11.3795C15.6562 11.3795 14.8929 11.6205 14.1697 12.0223C13.4464 12.4241 12.8839 12.9866 12.4822 13.7098C12.0804 14.433 11.8795 15.1964 11.8795 16C11.8795 16.8438 12.0804 17.6071 12.4822 18.3304C12.8839 19.0536 13.4464 19.6161 14.1697 20.0179C14.8929 20.4196 15.6562 20.6205 16.5 20.6205C17.3036 20.6205 18.067 20.4196 18.7902 20.0179C19.5134 19.6161 20.0759 19.0536 20.4777 18.3304C20.8795 17.6071 21.1205 16.8438 21.1205 16C21.1205 15.1964 20.8795 14.433 20.4777 13.7098C20.0759 12.9866 19.5134 12.4241 18.7902 12.0223ZM22.0848 10.4152C22.2857 10.6562 22.4062 10.8973 22.4062 11.1786C22.3661 11.5 22.2455 11.7411 22.0446 11.942C21.8438 12.183 21.6027 12.2634 21.3214 12.2634C21 12.2634 20.7589 12.183 20.558 11.942C20.317 11.7411 20.2366 11.5 20.2366 11.1786C20.2366 10.8973 20.317 10.6562 20.558 10.4152C20.7589 10.2143 21 10.0938 21.3214 10.0938C21.6027 10.0938 21.8438 10.2143 22.0848 10.4152Z" fill="white"/>
<path fill-rule="evenodd" clip-rule="evenodd" d="M16.5 32C25.3366 32 32.5 24.8366 32.5 16C32.5 7.16344 25.3366 0 16.5 0C7.66346 0 0.500015 7.16344 0.500015 16C0.500015 24.8366 7.66346 32 16.5 32ZM25.4739 13.4085C25.4662 12.9499 25.4598 12.5682 25.4598 12.2634C25.3795 11.5 25.2589 10.817 25.0982 10.2545C24.8571 9.61161 24.4554 9.00893 23.9732 8.52679C23.4911 8.04464 22.8884 7.64286 22.2455 7.40179C21.683 7.24107 21 7.12054 20.2366 7.08036C19.4732 7.04018 18.2277 7 16.5 7C14.7321 7 13.4866 7.04018 12.7232 7.08036C11.9598 7.12054 11.317 7.24107 10.7545 7.40179C10.0714 7.64286 9.46877 8.04464 8.98663 8.52679C8.50448 9.00893 8.14288 9.61161 7.90181 10.2545C7.7009 10.817 7.58038 11.5 7.5402 12.2634C7.50002 13.0268 7.50002 14.2723 7.50002 16C7.50002 17.7679 7.50002 19.0134 7.5402 19.7768C7.58038 20.5402 7.7009 21.183 7.90181 21.7455C8.14288 22.4286 8.50448 23.0312 8.98663 23.5134C9.46877 23.9955 10.0714 24.3571 10.7545 24.558C11.317 24.7991 11.9598 24.9196 12.7232 24.9598C13.4866 25 14.7321 25 16.5 25C18.2277 25 19.4732 25 20.2366 24.9598C21 24.9196 21.683 24.7991 22.2455 24.5982C22.8884 24.3571 23.4911 23.9955 23.9732 23.5134C24.4554 23.0312 24.8571 22.4286 25.0982 21.7455C25.2589 21.183 25.3795 20.5402 25.4196 19.7768C25.4598 19.0134 25.5 17.7679 25.5 16C25.5 14.9622 25.4855 14.0983 25.4739 13.4085Z" fill="white"/>
</svg>