<?xml version="1.0" encoding="utf-8"?>
<svg xmlns="http://www.w3.org/2000/svg" xmlns:xlink="http://www.w3.org/1999/xlink" version="1.1" id="Layer_1" x="0px" y="0px" viewBox="0 0 180.809 34" style="enable-background:new 0 0 180.809 34;">
<style type="text/css">
	.st0{fill:#FFFFFF;}
	.st1{fill:#F5F5F5;}
	.st2{fill:url(#SVGID_1_);}
	.st3{fill:url(#SVGID_2_);}
	.st4{fill:url(#SVGID_3_);}
	.st5{fill:url(#SVGID_4_);}
	.st6{fill:url(#SVGID_5_);}
	.st7{fill:url(#SVGID_6_);}
	.st8{fill:url(#SVGID_7_);}
</style>
<g>
	<g>
		<path class="st0" d="M174.848,30.424c-0.163,0.082-0.345,0.218-0.453,0.354c-0.091,0.118-0.208,0.336-0.208,0.68&#xA;			c0,0.599,0.372,1.016,0.934,1.016c0.236,0,0.372-0.063,0.526-0.227c0.181-0.181,0.281-0.408,0.381-0.635l0.254-0.58&#xA;			c0.154-0.354,0.317-0.68,0.571-0.934c0.308-0.308,0.662-0.435,1.097-0.435c1.115,0,1.859,0.825,1.859,1.913&#xA;			c0,0.399-0.082,0.898-0.49,1.315c-0.29,0.299-0.707,0.481-1.07,0.562l-0.181-0.653c0.317-0.045,0.589-0.191,0.771-0.363&#xA;			c0.263-0.263,0.336-0.562,0.336-0.87c0-0.825-0.59-1.215-1.197-1.215c-0.272,0-0.508,0.082-0.707,0.299&#xA;			c-0.163,0.172-0.272,0.408-0.417,0.725l-0.254,0.544c-0.109,0.236-0.236,0.535-0.499,0.807c-0.254,0.263-0.535,0.417-0.988,0.417&#xA;			c-0.934,0-1.56-0.716-1.56-1.696c0-0.372,0.072-0.671,0.272-0.97c0.163-0.245,0.408-0.453,0.671-0.589L174.848,30.424z"/>
		<path class="st0" d="M174.286,26.643h5.414v0.671h-5.414v1.469h-0.635v-3.609h0.635V26.643z"/>
		<path class="st0" d="M177.36,22.916c0.508,0,1.061,0,1.469-0.481c0.208-0.245,0.345-0.662,0.345-0.998&#xA;			c0-0.336-0.136-0.753-0.345-0.997c-0.408-0.481-0.961-0.481-1.469-0.481h-3.709v-0.671h3.89c0.508,0,0.998,0.054,1.451,0.381&#xA;			c0.499,0.363,0.816,0.998,0.816,1.768s-0.317,1.406-0.816,1.768c-0.453,0.327-0.943,0.381-1.451,0.381h-3.89v-0.671H177.36z"/>
		<path class="st0" d="M173.651,17.049v-1.233c0-0.608,0.063-1.469,0.707-2.231c0.462-0.553,1.233-1.034,2.321-1.034&#xA;			c1.27,0,1.95,0.626,2.321,1.061c0.472,0.553,0.698,1.133,0.698,2.213v1.224H173.651z M179.065,16.378v-0.59&#xA;			c0-0.481-0.054-1.143-0.544-1.732c-0.381-0.454-0.979-0.816-1.841-0.816c-1.451,0-2.394,1.016-2.394,2.548v0.59H179.065z"/>
		<path class="st0" d="M173.651,9.967h6.048v0.671h-6.048V9.967z"/>
		<path class="st0" d="M176.68,8.054c-1.805,0-3.128-1.406-3.128-3.147s1.324-3.147,3.128-3.147c1.796,0,3.129,1.397,3.129,3.147&#xA;			C179.809,6.657,178.476,8.054,176.68,8.054z M176.68,7.365c1.388,0,2.494-1.097,2.494-2.457s-1.106-2.457-2.494-2.457&#xA;			c-1.387,0-2.494,1.097-2.494,2.457S175.293,7.365,176.68,7.365z"/>
	</g>
	<g>
		<path class="st1" d="M18.108,0.906v32.203h-7.431V0.906H18.108z"/>
		<path class="st1" d="M8.431,0.85v32.259H1V0.85H8.431z"/>
		<path class="st1" d="M78.637,0.835v19.463c0,0-12.327-13.855-14.019-15.417C61.308,1.826,57.166,0.2,52.147,0.2&#xA;			c-6.418,0-10.433,2.558-12.604,4.729c-2.895,2.895-4.975,7.576-4.975,12.208c0,4.729,1.927,9.072,5.016,11.967&#xA;			c2.413,2.316,6.513,4.729,12.545,4.729c5.405,0,9.457-1.834,12.449-4.729c2.37-2.304,3.84-5.081,4.536-7.977l10.463,11.98h6.313&#xA;			V0.835H78.637z M59.171,24.23c-1.544,1.544-3.86,2.75-7.142,2.75c-2.509,0-4.825-0.676-6.9-2.654&#xA;			c-1.978-1.93-2.943-4.294-2.943-7.238c0-3.571,1.448-5.935,2.847-7.286c1.737-1.737,4.246-2.75,7.045-2.75&#xA;			c2.944,0,5.501,1.206,7.093,2.75c1.448,1.448,2.799,3.909,2.799,7.238C61.97,20.756,60.426,23.024,59.171,24.23z"/>
		<path class="st1" d="M27.138,19.915c1.785-0.434,3.378-1.389,4.488-2.45c2.075-2.027,2.509-4.53,2.509-6.557&#xA;			c0-3.571-1.448-5.934-2.799-7.237c-1.544-1.447-4.101-2.846-8.203-2.846H10.767v5.709H21.01c0.965,0,2.895,0.019,4.101,0.935&#xA;			c0.627,0.483,1.496,1.577,1.496,3.41c0,1.592-0.676,2.531-1.207,3.062c-1.254,1.255-3.088,1.325-4.439,1.325h-1.631v5.205&#xA;			l8.627,12.595h9.072L27.138,19.915z"/>
		<path class="st1" d="M154.343,15.435v6.213h8.122c-0.634,2.351-2.097,3.615-2.341,3.81c-0.732,0.634-2.439,1.734-5.659,1.734&#xA;			c-2.488,0-4.635-0.644-6.585-2.548c-2.431-2.373-3.289-5.324-3.678-7.639c0.389-2.315,1.247-5.261,3.678-7.634&#xA;			c1.95-1.904,4.098-2.534,6.585-2.534c3.22,0,4.927,1.129,5.659,1.763c0.219,0.175,1.42,1.225,2.121,3.177l6.331-3.073&#xA;			c-0.736-1.562-1.679-3.034-2.862-4.265C162.104,0.683,157.978,0,154.124,0c-3.902,0-8.097,0.634-11.902,4.537&#xA;			c-0.507,0.519-1.082,1.182-1.654,1.995c-0.003-0.004-0.006-0.009-0.009-0.013l-0.002,0.028c-0.011,0.016-0.022,0.032-0.033,0.048&#xA;			c-0.467-0.699-0.975-1.334-1.522-1.863C135.733,1.561,131.489,0,126.416,0c-6.488,0-10.535,2.587-12.732,4.78&#xA;			c-0.533,0.531-1.033,1.232-1.501,2.04c-0.04-0.071-0.066-0.115-0.066-0.115l-0.003-0.001c0.001-0.002,0.002-0.003,0.003-0.005&#xA;			c-0.419-0.525-0.87-0.97-1.352-1.436c-4-3.854-8.537-4.438-12.829-4.438H87.509v32.41H98.18c2.732,0,8.341-0.325,12.829-4.862&#xA;			c0.353-0.353,0.688-0.717,1.007-1.107c0.514,0.696,1.07,1.352,1.668,1.949c2.197,2.193,6.244,4.783,12.732,4.783&#xA;			c5.073,0,9.317-1.559,12.585-4.73c0.547-0.53,1.055-1.164,1.523-1.864c0.011,0.015,0.021,0.032,0.032,0.047l0.002,0.029&#xA;			c0.003-0.004,0.006-0.008,0.009-0.013c0.572,0.813,1.148,1.476,1.654,1.995c3.805,3.902,8,4.537,11.902,4.537&#xA;			c3.854,0,7.937-0.683,11.547-4.439c3.61-3.756,4.961-9.756,4.961-13.707v-0.419H154.343z M107.711,19.189&#xA;			c-0.307,0.853-1.2,3.872-3.141,5.506c-2.437,2.051-5.853,2.159-7.414,2.159h-2.09V7.038h2.09c2.293,0,5.389,0.359,7.828,2.798&#xA;			c1.268,1.268,2.341,3.583,2.845,6.997v-0.001c0.168,0.335,0.172,0.668,0.23,1C107.893,18.395,107.827,18.86,107.711,19.189z&#xA;			 M135.092,22.192c-0.458,0.842-0.998,1.545-1.553,2.1c-1.61,1.561-4.195,2.78-7.171,2.78c-2.829,0-5.366-1.024-7.122-2.78&#xA;			c-0.347-0.335-0.697-0.736-1.027-1.198l0.014-0.002c0,0-1.511-2.167-2.487-6.091c0.976-3.925,2.487-6.093,2.487-6.093&#xA;			l-0.014-0.003c0.331-0.463,0.68-0.863,1.027-1.199c1.756-1.756,4.293-2.78,7.122-2.78c2.975,0,5.561,1.219,7.171,2.78&#xA;			c0.555,0.555,1.096,1.258,1.553,2.1c0.422,0.697,1.23,2.147,1.703,4.141c0.083,0.35,0.16,0.701,0.234,1.051&#xA;			c-0.074,0.35-0.151,0.701-0.234,1.051C136.322,20.045,135.513,21.495,135.092,22.192z"/>
		<linearGradient id="SVGID_1_" gradientUnits="userSpaceOnUse" x1="60.4308" y1="21.6051" x2="69.2549" y2="12.781">
			<stop offset="0" style="stop-color:#000000;stop-opacity:0"/>
			<stop offset="1" style="stop-color:#000000;stop-opacity:0.5"/>
		</linearGradient>
		<path class="st2" d="M69.118,21.232l-9.255-10.684c0,0,4.429,5.88,0.382,12.371l3.589,6.796&#xA;			C63.834,29.715,67.906,26.679,69.118,21.232z"/>
		<linearGradient id="SVGID_2_" gradientUnits="userSpaceOnUse" x1="28.0681" y1="26.9196" x2="20.6011" y2="16.2872">
			<stop offset="0" style="stop-color:#000000;stop-opacity:0"/>
			<stop offset="1" style="stop-color:#000000;stop-opacity:0.5"/>
		</linearGradient>
		<path class="st3" d="M19.388,20.661c0,0,3.396,0.621,7.793-0.622l9.849,13.196h-9.053L19.388,20.661z"/>
		<g>
			<linearGradient id="SVGID_3_" gradientUnits="userSpaceOnUse" x1="154.5722" y1="7.2848" x2="134.4094" y2="24.5672">
				<stop offset="0" style="stop-color:#000000;stop-opacity:0"/>
				<stop offset="1" style="stop-color:#000000;stop-opacity:0.5"/>
			</linearGradient>
			<path class="st4" d="M144.038,15.873c0.045,0.354,0.098,0.732,0.165,1.129c0.389-2.315,1.247-5.259,3.678-7.632&#xA;				c1.95-1.904,4.098-2.533,6.585-2.533c3.22,0,4.927,1.129,5.659,1.763c0.219,0.175,1.42,1.225,2.121,3.177l6.331-3.073&#xA;				c-0.736-1.562-1.679-3.034-2.862-4.265C162.104,0.683,157.978,0,154.124,0c-3.902,0-8.097,0.634-11.902,4.537&#xA;				c-0.507,0.519-1.082,1.182-1.654,1.995c-0.003-0.004-0.006-0.009-0.009-0.013l-0.002,0.028c-0.011,0.016-0.022,0.032-0.033,0.048&#xA;				C142.478,9.52,143.713,13.578,144.038,15.873z"/>
			<linearGradient id="SVGID_4_" gradientUnits="userSpaceOnUse" x1="125.4913" y1="21.9674" x2="137.7332" y2="9.7255">
				<stop offset="0" style="stop-color:#000000;stop-opacity:0"/>
				<stop offset="1" style="stop-color:#000000;stop-opacity:0.5"/>
			</linearGradient>
			<path class="st5" d="M137.702,20.35c-0.239-1.113-0.439-2.231-0.674-3.351c-0.074,0.35-0.151,0.701-0.234,1.051&#xA;				c-0.473,1.995-1.281,3.444-1.703,4.141c-0.458,0.842-0.998,1.545-1.553,2.1c-1.61,1.561-4.195,2.78-7.171,2.78&#xA;				c-2.829,0-5.366-1.024-7.122-2.78c-0.347-0.335-0.697-0.736-1.027-1.198l0.014-0.002c0,0-1.511-2.167-2.487-6.092&#xA;				c-0.313-1.291-0.446-3.465-0.926-5.172l-6.342,7.381c1.118,3.833,2.965,7.772,5.209,10.011c2.197,2.193,6.244,4.781,12.732,4.781&#xA;				c5.073,0,9.317-1.561,12.585-4.731c0.547-0.53,1.055-1.165,1.523-1.864C139.351,25.722,138.341,23.349,137.702,20.35z"/>
		</g>
		<linearGradient id="SVGID_5_" gradientUnits="userSpaceOnUse" x1="126.5682" y1="17" x2="99.9046" y2="17">
			<stop offset="0" style="stop-color:#000000;stop-opacity:0"/>
			<stop offset="1" style="stop-color:#000000;stop-opacity:0.5"/>
		</linearGradient>
		<path class="st6" d="M154.343,15.435v6.213h8.122c-0.634,2.351-2.097,3.615-2.341,3.81c-0.732,0.634-2.439,1.734-5.659,1.734&#xA;			c-2.488,0-4.635-0.644-6.585-2.548c-2.848-2.78-3.537-6.351-3.842-8.768c-0.402-2.843-2.201-8.397-5.036-11.142&#xA;			c-3.268-3.171-7.512-4.733-12.585-4.733c-6.488,0-10.535,2.587-12.732,4.78c-0.549,0.548-1.018,1.281-1.513,2.007&#xA;			c0,0,0.9,1.36,1.7,3.44c0.928,2.413,1.688,6.033,1.873,6.772c0.976-3.925,2.487-6.092,2.487-6.092l-0.014-0.002&#xA;			c0.331-0.463,0.68-0.863,1.027-1.198c1.756-1.756,4.293-2.78,7.122-2.78c2.975,0,5.561,1.219,7.171,2.78&#xA;			c0.555,0.555,1.096,1.258,1.553,2.1c0.422,0.697,1.23,2.147,1.703,4.141c0.349,1.47,0.594,2.941,0.908,4.402&#xA;			c0.505,3.078,1.67,5.415,2.854,7.101l0.002,0.028c0.003-0.004,0.006-0.009,0.009-0.013c0.572,0.813,1.148,1.476,1.654,1.995&#xA;			c3.805,3.902,8,4.537,11.902,4.537c3.854,0,7.937-0.683,11.547-4.439c3.61-3.756,4.961-9.756,4.961-13.707v-0.419H154.343z"/>
		<g>
			<linearGradient id="SVGID_6_" gradientUnits="userSpaceOnUse" x1="101.7599" y1="29.2449" x2="114.5083" y2="19.3769">
				<stop offset="0" style="stop-color:#000000;stop-opacity:0"/>
				<stop offset="1" style="stop-color:#000000;stop-opacity:0.5"/>
			</linearGradient>
			<path class="st7" d="M107.711,19.189c-0.307,0.853-1.2,3.881-3.141,5.514c-2.437,2.051-5.853,2.167-7.414,2.167h-0.192&#xA;				c-0.683,2.112-1.06,4.209-1.149,6.401h2.366c2.732,0,8.341-0.343,12.829-4.88c0.353-0.353,0.688-0.726,1.007-1.116&#xA;				c-1.943-2.633-3.268-5.921-3.884-9.445C107.967,18.394,107.827,18.86,107.711,19.189z"/>
			<path class="st1" d="M154.343,15.435v6.213h8.122c-0.634,2.351-2.097,3.615-2.341,3.81c-0.732,0.634-2.439,1.734-5.659,1.734&#xA;				c-2.488,0-4.635-0.644-6.585-2.548c-2.431-2.373-3.289-5.324-3.678-7.639c-0.067,0.397-0.12,0.773-0.165,1.127&#xA;				c-0.324,2.294-1.559,6.35-3.513,9.273c0.011,0.015,0.021,0.031,0.032,0.047l0.002,0.028c0.003-0.004,0.006-0.009,0.009-0.013&#xA;				c0.572,0.813,1.148,1.476,1.654,1.995c3.805,3.902,8,4.537,11.902,4.537c3.854,0,7.937-0.683,11.547-4.439&#xA;				c3.61-3.756,4.961-9.756,4.961-13.707v-0.419H154.343z"/>
		</g>
		<linearGradient id="SVGID_7_" gradientUnits="userSpaceOnUse" x1="14.3923" y1="12.076" x2="14.3923" y2="4.0155">
			<stop offset="0" style="stop-color:#000000;stop-opacity:0"/>
			<stop offset="1" style="stop-color:#000000;stop-opacity:0.5"/>
		</linearGradient>
		<rect x="10.678" y="6.556" class="st8" width="7.429" height="5.772"/>
	</g>
</g>
</svg>