<?xml version="1.0" encoding="utf-8"?>
<svg xmlns="http://www.w3.org/2000/svg" xmlns:xlink="http://www.w3.org/1999/xlink" version="1.1" id="Layer_1" x="0px" y="0px" viewBox="0 0 84.3 34" style="enable-background:new 0 0 84.3 34;">
<style type="text/css">
	.st0{fill:#FFFFFF;}
</style>
<g>
	<path class="st0" d="M66.398,27.952c-0.037,0.307-0.064,0.578-0.102,0.847c-0.146,1.055-0.295,2.109-0.443,3.163&#xA;		c-0.065,0.461-0.124,0.923-0.198,1.383c-0.066,0.41-0.176,0.498-0.581,0.503c-0.193,0.003-0.385-0.002-0.578,0.001&#xA;		c-0.311,0.005-0.396-0.054-0.439-0.37c-0.062-0.455-0.095-0.913-0.157-1.368c-0.183-1.357-0.376-2.713-0.562-4.069&#xA;		c-0.08-0.58-0.151-1.16-0.23-1.74c-0.13-0.953-0.265-1.906-0.393-2.86c-0.073-0.543-0.143-1.087-0.2-1.632&#xA;		c-0.029-0.279,0.021-0.323,0.308-0.326c0.348-0.003,0.697-0.006,1.044,0.004c0.29,0.008,0.324,0.05,0.355,0.336&#xA;		c0.172,1.575,0.344,3.15,0.518,4.724c0.036,0.324,0.079,0.646,0.122,0.969c0.012,0.092,0.039,0.183,0.114,0.279&#xA;		c0.025-0.078,0.063-0.155,0.073-0.235c0.165-1.307,0.326-2.614,0.488-3.922c0.076-0.608,0.15-1.217,0.229-1.824&#xA;		c0.034-0.261,0.116-0.326,0.381-0.329c0.222-0.003,0.444-0.005,0.667-0.007c0.327-0.003,0.371,0.034,0.409,0.353&#xA;		c0.076,0.639,0.153,1.278,0.226,1.918c0.126,1.094,0.241,2.189,0.378,3.282c0.034,0.273,0.132,0.538,0.201,0.806&#xA;		c0.028-0.001,0.055-0.001,0.083-0.002c0.021-0.078,0.053-0.154,0.06-0.233c0.044-0.479,0.076-0.96,0.123-1.439&#xA;		c0.055-0.559,0.12-1.117,0.181-1.675c0.064-0.587,0.123-1.175,0.194-1.762c0.042-0.352,0.093-0.704,0.163-1.051&#xA;		c0.015-0.072,0.129-0.174,0.201-0.177c0.422-0.017,0.844-0.01,1.266-0.01c0.169,0,0.246,0.083,0.223,0.253&#xA;		c-0.064,0.476-0.129,0.953-0.194,1.429c-0.153,1.129-0.312,2.258-0.458,3.388c-0.084,0.652-0.135,1.309-0.222,1.961&#xA;		c-0.098,0.732-0.228,1.46-0.328,2.192c-0.113,0.828-0.209,1.658-0.312,2.486c-0.009,0.073-0.011,0.149-0.03,0.22&#xA;		c-0.097,0.373-0.168,0.427-0.553,0.427c-0.23,0-0.459,0.001-0.689-0.007c-0.201-0.007-0.333-0.096-0.363-0.314&#xA;		c-0.14-1.01-0.288-2.019-0.426-3.03c-0.084-0.616-0.152-1.234-0.23-1.851C66.689,28.402,66.641,28.163,66.398,27.952z"/>
	<path class="st0" d="M75.848,27.327c-0.013,0.167-0.036,0.335-0.036,0.502c-0.002,1.815,0.001,3.63,0,5.445&#xA;		c0,0.563-0.012,0.573-0.562,0.573c-0.267,0-0.533,0.005-0.8,0.001c-0.298-0.005-0.376-0.086-0.382-0.39&#xA;		c-0.004-0.207-0.001-0.415-0.001-0.622c-0.001-3.223-0.001-6.445-0.002-9.668c0-0.459-0.01-0.918,0-1.377&#xA;		c0.006-0.267,0.053-0.3,0.326-0.3c0.385-0.001,0.77,0.004,1.155,0.006c0.178,0.001,0.242,0.087,0.28,0.267&#xA;		c0.088,0.417,0.219,0.824,0.329,1.236c0.093,0.349,0.182,0.699,0.273,1.049c0.087,0.335,0.171,0.671,0.261,1.005&#xA;		c0.119,0.439,0.243,0.877,0.365,1.316c0.146,0.525,0.293,1.051,0.442,1.576c0.011,0.04,0.042,0.074,0.125,0.113&#xA;		c0.019-0.137,0.055-0.275,0.055-0.412c0.003-1.941,0.002-3.882,0.001-5.823c0-0.335,0.012-0.344,0.355-0.337&#xA;		c0.348,0.007,0.697-0.003,1.044,0.008c0.288,0.009,0.332,0.062,0.332,0.346c0,3.852,0,7.705,0,11.557&#xA;		c0,0.346-0.091,0.441-0.429,0.447c-0.311,0.005-0.622,0-0.933,0.007c-0.225,0.005-0.322-0.104-0.378-0.318&#xA;		c-0.164-0.628-0.353-1.249-0.529-1.874c-0.098-0.348-0.19-0.698-0.286-1.046c-0.12-0.434-0.246-0.866-0.364-1.301&#xA;		c-0.093-0.342-0.171-0.688-0.268-1.028c-0.092-0.323-0.2-0.642-0.301-0.963C75.895,27.322,75.872,27.325,75.848,27.327z"/>
	<path class="st0" d="M54.083,27.639c0,1.874,0,3.748,0,5.622c0,0.111,0.001,0.223-0.009,0.333c-0.014,0.152-0.094,0.25-0.256,0.25&#xA;		c-0.437,0.002-0.874,0.003-1.311-0.002c-0.177-0.002-0.27-0.108-0.283-0.28c-0.009-0.118-0.01-0.237-0.01-0.355&#xA;		c-0.002-1.422-0.001-2.844-0.004-4.267c-0.001-0.391-0.047-0.435-0.434-0.438c-0.193-0.002-0.386,0.01-0.578-0.001&#xA;		c-0.171-0.009-0.249,0.075-0.265,0.228c-0.014,0.132-0.015,0.266-0.015,0.399c0,1.422,0.001,2.844,0.001,4.267&#xA;		c0,0.386-0.069,0.455-0.451,0.455c-0.348,0-0.696,0.005-1.044-0.003c-0.275-0.006-0.354-0.091-0.368-0.364&#xA;		c-0.005-0.096-0.004-0.193-0.004-0.289c0-3.741,0.001-7.481,0.001-11.222c0-0.074,0.005-0.148,0.001-0.222&#xA;		c-0.009-0.166,0.066-0.252,0.232-0.254c0.452-0.004,0.903-0.008,1.355-0.008c0.224,0,0.276,0.133,0.275,0.336&#xA;		c-0.004,1.444-0.001,2.889,0.003,4.333c0.001,0.423,0.035,0.451,0.462,0.445c0.2-0.002,0.4-0.003,0.599-0.011&#xA;		c0.151-0.006,0.228-0.093,0.232-0.243c0.003-0.118,0.003-0.237,0.003-0.355c-0.001-1.37-0.003-2.741-0.003-4.111&#xA;		c0-0.357,0.027-0.388,0.393-0.396c0.378-0.008,0.756-0.006,1.133,0c0.302,0.005,0.346,0.05,0.346,0.352&#xA;		c0.001,1.933,0.001,3.867,0.001,5.8C54.084,27.639,54.084,27.639,54.083,27.639z"/>
	<path class="st0" d="M4.988,26.7c0-1.6-0.001-3.2,0-4.801c0-0.397,0.014-0.408,0.417-0.409c0.348-0.001,0.696-0.004,1.045-0.002&#xA;		c0.33,0.001,0.375,0.044,0.375,0.371c0.001,1.778,0,3.556-0.001,5.334c-0.001,1.334-0.01,2.667,0,4&#xA;		c0.002,0.223,0.05,0.459,0.134,0.666c0.115,0.281,0.568,0.358,0.764,0.138c0.093-0.104,0.161-0.255,0.182-0.394&#xA;		c0.042-0.277,0.059-0.56,0.059-0.841c0.004-2.919,0.003-5.838,0.003-8.757c0-0.089,0.005-0.178,0.002-0.267&#xA;		c-0.004-0.154,0.068-0.244,0.222-0.245c0.466-0.002,0.933-0.001,1.399,0.007c0.2,0.003,0.252,0.133,0.25,0.316&#xA;		c-0.006,0.77-0.007,1.541-0.006,2.311c0.001,2.334,0.014,4.667-0.005,7.001c-0.004,0.445-0.055,0.92-0.22,1.328&#xA;		c-0.378,0.938-0.997,1.477-2.096,1.52C6.919,34,6.359,33.899,5.892,33.504c-0.464-0.393-0.73-0.912-0.842-1.498&#xA;		c-0.061-0.316-0.058-0.648-0.059-0.972C4.985,29.589,4.988,28.144,4.988,26.7z"/>
	<path class="st0" d="M10.722,31.077c0-0.178-0.018-0.358,0.008-0.532c0.012-0.077,0.105-0.191,0.175-0.202&#xA;		c0.408-0.066,0.82-0.114,1.232-0.154c0.31-0.03,0.358,0.053,0.388,0.356c0.044,0.437,0.006,0.889,0.223,1.301&#xA;		c0.131,0.249,0.287,0.416,0.598,0.406c0.308-0.01,0.424-0.236,0.52-0.449c0.218-0.48,0.201-0.97,0.014-1.468&#xA;		c-0.354-0.943-1.011-1.699-1.53-2.54c-0.341-0.552-0.668-1.112-0.99-1.676c-0.076-0.132-0.102-0.292-0.157-0.438&#xA;		c-0.25-0.67-0.373-1.368-0.241-2.067c0.133-0.706,0.376-1.395,1.013-1.828c0.225-0.153,0.498-0.244,0.761-0.331&#xA;		c0.432-0.143,0.869-0.103,1.31-0.006c0.7,0.155,1.173,0.581,1.442,1.221c0.228,0.541,0.363,1.11,0.32,1.71&#xA;		c-0.015,0.21-0.079,0.326-0.312,0.339c-0.361,0.02-0.72,0.078-1.081,0.101c-0.317,0.02-0.34-0.018-0.395-0.337&#xA;		c-0.054-0.312-0.102-0.628-0.195-0.929c-0.065-0.211-0.194-0.404-0.465-0.414c-0.245-0.009-0.409,0.09-0.505,0.382&#xA;		c-0.148,0.446-0.195,0.919,0.017,1.344c0.313,0.626,0.675,1.229,1.038,1.828c0.317,0.525,0.667,1.03,0.996,1.548&#xA;		c0.325,0.512,0.631,1.036,0.781,1.629c0.061,0.241,0.098,0.493,0.112,0.742c0.038,0.66,0.034,1.321-0.23,1.943&#xA;		c-0.214,0.505-0.512,0.94-1.046,1.177c-0.626,0.278-1.261,0.299-1.927,0.182c-0.395-0.07-0.725-0.237-1.028-0.478&#xA;		c-0.096-0.077-0.179-0.176-0.251-0.278C10.879,32.537,10.701,31.834,10.722,31.077z"/>
	<path class="st0" d="M55.317,27.63c0-1.919,0-3.838,0-5.757c0-0.352,0.026-0.382,0.378-0.384c1.126-0.004,2.253-0.006,3.379-0.005&#xA;		c0.361,0,0.411,0.055,0.411,0.407c0,0.385-0.001,0.77-0.001,1.154c0,0.245-0.081,0.342-0.329,0.345&#xA;		c-0.533,0.008-1.067,0.005-1.6,0.008c-0.306,0.002-0.395,0.068-0.4,0.372c-0.014,0.837-0.012,1.674-0.014,2.512&#xA;		c0,0.21,0.12,0.311,0.323,0.313c0.341,0.004,0.682,0,1.022,0.002c0.265,0.002,0.382,0.111,0.386,0.376&#xA;		c0.006,0.422,0.006,0.845,0,1.267c-0.004,0.286-0.111,0.387-0.393,0.389c-0.319,0.003-0.637,0.001-0.956,0.005&#xA;		c-0.261,0.003-0.381,0.098-0.383,0.355c-0.007,0.874-0.004,1.749,0.004,2.623c0.002,0.199,0.145,0.306,0.385,0.307&#xA;		c0.511,0.003,1.023-0.001,1.534-0.001c0.327,0,0.433,0.118,0.427,0.449c-0.007,0.377-0.007,0.755-0.006,1.132&#xA;		c0.001,0.224-0.127,0.349-0.388,0.349c-0.971,0.001-1.941-0.003-2.912-0.005c-0.185,0-0.371-0.006-0.556-0.001&#xA;		c-0.209,0.005-0.295-0.112-0.307-0.3c-0.008-0.118-0.001-0.237-0.001-0.356c0-1.852,0-3.705,0-5.557&#xA;		C55.319,27.63,55.318,27.63,55.317,27.63z"/>
	<path class="st0" d="M24.446,27.657c0-1.926,0-3.853,0-5.779c0-0.354,0.036-0.392,0.394-0.392c1.193,0,2.386,0.001,3.579,0.003&#xA;		c0.406,0.001,0.437,0.035,0.438,0.448c0.001,0.363,0.004,0.726,0,1.089c-0.004,0.338-0.079,0.415-0.424,0.417&#xA;		c-0.578,0.004-1.156,0.001-1.734,0c-0.328-0.001-0.386,0.054-0.387,0.389c-0.001,0.785-0.001,1.571,0.001,2.356&#xA;		c0.001,0.342,0.03,0.37,0.362,0.372c0.296,0.002,0.593-0.005,0.889,0.002c0.371,0.008,0.459,0.099,0.461,0.465&#xA;		c0.002,0.37,0.002,0.741,0,1.111c-0.001,0.269-0.063,0.345-0.336,0.357c-0.333,0.014-0.667,0.008-1,0.008&#xA;		c-0.347,0.001-0.388,0.044-0.386,0.402c0.005,1.385,0.009,2.771,0.011,4.156c0,0.2-0.008,0.4-0.013,0.6&#xA;		c-0.005,0.165-0.087,0.231-0.256,0.227c-0.4-0.01-0.8-0.003-1.2-0.008c-0.351-0.004-0.398-0.049-0.399-0.401&#xA;		C24.445,31.539,24.446,29.598,24.446,27.657z"/>
	<path class="st0" d="M46.743,28.616c0,1.548,0,3.096,0,4.644c0,0.104,0.003,0.208-0.008,0.311&#xA;		c-0.019,0.177-0.108,0.282-0.304,0.279c-0.37-0.004-0.741,0.005-1.111,0.002c-0.335-0.003-0.445-0.121-0.445-0.463&#xA;		c0.001-2.829,0.001-5.659,0.002-8.488c0-0.378,0.005-0.756-0.006-1.133c-0.009-0.306-0.073-0.362-0.372-0.366&#xA;		c-0.326-0.004-0.652,0.004-0.978-0.005c-0.302-0.009-0.348-0.065-0.347-0.357c0.001-0.415,0.01-0.83-0.005-1.244&#xA;		c-0.008-0.227,0.091-0.31,0.298-0.31c0.104,0,0.207,0,0.311,0c1.407-0.001,2.815-0.002,4.222-0.003&#xA;		c0.405,0,0.426,0.019,0.427,0.422c0.001,0.37,0.007,0.741,0.002,1.111c-0.004,0.352-0.04,0.383-0.384,0.383&#xA;		c-0.304,0-0.607-0.006-0.911-0.001c-0.322,0.005-0.394,0.079-0.394,0.396c0,1.607,0,3.215,0,4.822&#xA;		C46.741,28.616,46.742,28.616,46.743,28.616z"/>
	<path class="st0" d="M17.753,28.564c0-1.592,0.001-3.184-0.001-4.776c0-0.355-0.037-0.388-0.4-0.389&#xA;		c-0.311-0.001-0.622,0.005-0.933-0.001c-0.279-0.006-0.361-0.086-0.365-0.36c-0.006-0.422,0.004-0.844-0.005-1.266&#xA;		c-0.004-0.195,0.099-0.267,0.266-0.281c0.118-0.01,0.237-0.004,0.355-0.004c1.407,0,2.814,0,4.221,0.002&#xA;		c0.405,0.001,0.423,0.022,0.422,0.431c-0.001,0.385-0.001,0.77-0.01,1.155c-0.006,0.273-0.054,0.316-0.334,0.321&#xA;		c-0.311,0.006-0.622,0.001-0.933,0.006c-0.339,0.004-0.416,0.085-0.416,0.425c0,3.11,0,6.22,0,9.331c0,0.133,0.003,0.267-0.008,0.4&#xA;		c-0.015,0.179-0.106,0.288-0.299,0.288c-0.422,0-0.844-0.001-1.266,0c-0.161,0-0.249-0.089-0.273-0.237&#xA;		c-0.017-0.109-0.017-0.221-0.017-0.332c-0.001-1.57-0.001-3.14-0.001-4.71C17.755,28.564,17.754,28.564,17.753,28.564z"/>
	<path class="st0" d="M3.802,26.844c0,1.578,0.001,3.156,0,4.734c0,0.455-0.03,0.907-0.265,1.311&#xA;		c-0.301,0.52-0.723,0.893-1.335,0.995c-0.299,0.05-0.603,0.066-0.902,0.111c-0.168,0.025-0.248-0.052-0.251-0.198&#xA;		c-0.008-0.481-0.007-0.962,0-1.443c0.002-0.134,0.088-0.199,0.224-0.232c0.529-0.13,0.686-0.353,0.686-0.9&#xA;		c-0.004-3.141-0.002-6.282-0.009-9.424c0-0.211,0.084-0.306,0.281-0.307c0.415-0.004,0.83-0.01,1.244,0.003&#xA;		c0.29,0.009,0.327,0.06,0.327,0.35C3.803,23.51,3.803,25.177,3.802,26.844C3.802,26.844,3.802,26.844,3.802,26.844z"/>
	<path class="st0" d="M71.328,27.621c0-1.903,0-3.806,0-5.71c0-0.401,0.018-0.42,0.428-0.423c0.363-0.003,0.726-0.005,1.089-0.002&#xA;		c0.284,0.002,0.341,0.06,0.341,0.336c0.001,3.858,0.001,7.716,0,11.575c0,0.358-0.106,0.455-0.467,0.452&#xA;		c-0.326-0.003-0.652,0.005-0.977,0.001c-0.335-0.004-0.414-0.088-0.414-0.429c-0.001-1.933,0-3.866,0-5.798&#xA;		C71.327,27.621,71.327,27.621,71.328,27.621z"/>
	<path class="st0" d="M40.269,33.412c-0.145-0.785-0.304-1.567-0.449-2.352c-0.17-0.924-0.324-1.85-0.502-2.772&#xA;		c-0.052-0.27,0.041-0.451,0.189-0.667c0.218-0.319,0.416-0.669,0.532-1.034c0.221-0.7,0.198-1.436,0.167-2.161&#xA;		c-0.026-0.62-0.21-1.205-0.52-1.745c-0.428-0.744-1.153-1.04-1.93-1.149c-0.67-0.094-1.36-0.039-2.041-0.046&#xA;		c-0.387-0.004-0.404,0.016-0.404,0.398c0,1.912,0,3.823,0,5.735c0.001,0,0.001,0,0.002,0c0,1.519,0,3.038,0,4.557&#xA;		c0,0.437-0.003,0.874,0.002,1.311c0.003,0.279,0.085,0.357,0.358,0.358c0.363,0.002,0.726,0.002,1.089,0&#xA;		c0.294-0.002,0.409-0.121,0.409-0.424c0.001-1.311,0.001-2.622,0.001-3.933c0-0.192-0.024-0.388,0.007-0.574&#xA;		c0.015-0.09,0.123-0.217,0.205-0.232c0.13-0.023,0.218,0.081,0.245,0.23c0.22,1.232,0.446,2.462,0.668,3.694&#xA;		c0.049,0.27,0.086,0.541,0.137,0.811c0.065,0.341,0.169,0.429,0.508,0.431c0.319,0.003,0.637-0.001,0.956-0.003&#xA;		C40.271,33.842,40.336,33.775,40.269,33.412z M38.274,26.172c-0.102,0.332-0.316,0.564-0.637,0.694&#xA;		c-0.309,0.126-0.464,0.025-0.469-0.318c-0.006-0.429-0.019-1.287-0.028-1.287c0-0.517,0.005-1.035-0.002-1.552&#xA;		c-0.004-0.277,0.178-0.428,0.449-0.319c0.343,0.137,0.626,0.385,0.713,0.743C38.465,24.808,38.481,25.495,38.274,26.172z"/>
	<path class="st0" d="M34.142,27.832c0-1.207,0.002-2.414-0.001-3.621c-0.001-0.656-0.063-1.292-0.46-1.859&#xA;		c-0.319-0.455-0.711-0.772-1.26-0.895c-0.41-0.092-0.816-0.098-1.228-0.023c-0.451,0.082-0.845,0.268-1.142,0.621&#xA;		c-0.534,0.636-0.732,1.393-0.735,2.206c-0.006,2.2-0.001,4.4-0.002,6.6c0,0.65,0.055,1.289,0.358,1.879&#xA;		c0.217,0.422,0.511,0.785,0.946,0.995c0.453,0.219,0.934,0.294,1.442,0.246c0.846-0.081,1.412-0.552,1.8-1.262&#xA;		c0.204-0.373,0.27-0.79,0.267-1.219c-0.007-1.222-0.003-2.444-0.003-3.666C34.132,27.832,34.137,27.832,34.142,27.832z&#xA;		 M32.285,31.283c-0.001,0.183-0.02,0.381-0.095,0.542c-0.06,0.13-0.223,0.308-0.33,0.301c-0.178-0.011-0.404-0.112-0.507-0.251&#xA;		c-0.117-0.158-0.165-0.399-0.166-0.605c-0.01-2.347-0.009-4.695-0.001-7.042c0.001-0.275-0.01-0.562,0.178-0.807&#xA;		c0.117-0.153,0.255-0.242,0.436-0.187c0.179,0.055,0.377,0.119,0.419,0.346c0.029,0.16,0.056,0.323,0.057,0.484&#xA;		c0.005,1.2,0.003,2.399,0.003,3.599c0.003,0,0.007,0,0.01,0C32.289,28.87,32.292,30.076,32.285,31.283z"/>
	<path class="st0" d="M35.727,15.583c-0.068-0.468-0.146-0.935-0.203-1.403c-0.102-0.844-0.24-1.688-0.277-2.535&#xA;		c-0.07-1.649-0.095-3.301-0.108-4.952c-0.005-0.611,0.06-1.224,0.116-1.834c0.087-0.95,0.191-1.898,0.294-2.846&#xA;		c0.035-0.316,0.053-0.638,0.14-0.942c0.132-0.47-0.208-1.1-0.839-1.069c-0.909,0.045-1.822,0.012-2.733,0.012v0.005&#xA;		c-0.941,0-1.882-0.002-2.822,0.002c-0.124,0.001-0.567,0.071-0.659,0.134c-0.32,0.22-0.387,0.33-0.565,0.707&#xA;		c-0.072,0.153-0.14,0.309-0.196,0.47c-0.254,0.738-0.517,1.474-0.75,2.22c-0.117,0.38-0.189,0.776-0.257,1.168&#xA;		c-0.116,0.67-0.251,1.339-0.309,2.014c-0.06,0.7-0.047,1.406-0.051,2.109c-0.002,0.348,0.004,0.699,0.052,1.041&#xA;		c0.104,0.723,0.234,1.443,0.364,2.163c0.067,0.371,0.145,0.739,0.237,1.104c0.074,0.292,0.166,0.58,0.27,0.863&#xA;		c0.16,0.436,0.359,0.858,0.501,1.299c0.226,0.702,0.907,1.155,1.569,1.152c1.763-0.011,3.527-0.003,5.29-0.004&#xA;		c0.117,0,0.237-0.013,0.352-0.038C35.473,16.35,35.774,15.916,35.727,15.583z M33.977,6.973h-1.851l0.803-1.201L33.977,6.973z&#xA;		 M32.73,5.742l-0.804,1.136l-0.804-1.136H32.73z M30.842,5.837l0.804,1.136h-1.608L30.842,5.837z M30.593,5.742l-0.804,1.136&#xA;		l-0.804-1.136H30.593z M28.757,5.772l0.803,1.201h-1.851L28.757,5.772z M27.706,7.153h1.934l0.9,3.173L27.706,7.153z M29.939,7.153&#xA;		h1.806l-0.903,3.334L29.939,7.153z M31.146,10.326l0.9-3.173h1.934L31.146,10.326z"/>
	<path class="st0" d="M44.672,5.198c-0.036-0.671-0.116-1.341-0.199-2.009c-0.089-0.703-0.236-1.401-0.298-2.107&#xA;		c-0.044-0.498-0.646-1.08-1.143-1.073c-1.911,0.027-3.822,0.012-5.733,0.013c-0.28,0.001-0.785,0.365-0.862,0.649&#xA;		c-0.105,0.393-0.205,0.79-0.261,1.192c-0.097,0.695-0.176,1.394-0.232,2.093c-0.087,1.077-0.183,2.154-0.211,3.232&#xA;		c-0.029,1.139-0.01,2.282,0.038,3.42c0.039,0.931,0.125,1.861,0.237,2.787c0.092,0.761,0.246,1.516,0.381,2.272&#xA;		c0.019,0.105,0.074,0.211,0.138,0.298c0.274,0.369,0.656,0.498,1.105,0.494c0.874-0.007,1.748-0.002,2.622-0.002&#xA;		c0.896,0,1.793,0.004,2.689-0.002c0.589-0.004,1.064-0.347,1.192-0.88c0.103-0.43,0.188-0.867,0.243-1.305&#xA;		c0.096-0.77,0.18-1.543,0.237-2.316c0.08-1.061,0.176-2.124,0.182-3.187C44.806,7.578,44.737,6.387,44.672,5.198z M43.383,6.973&#xA;		h-1.851l0.803-1.201L43.383,6.973z M42.136,5.742l-0.804,1.136l-0.804-1.136H42.136z M40.248,5.837l0.804,1.136h-1.608&#xA;		L40.248,5.837z M39.999,5.742l-0.804,1.136l-0.804-1.136H39.999z M38.163,5.772l0.803,1.201h-1.851L38.163,5.772z M37.112,7.153&#xA;		h1.934l0.9,3.173L37.112,7.153z M40.248,10.487l-0.903-3.334h1.806L40.248,10.487z M40.552,10.326l0.9-3.173h1.934L40.552,10.326z"/>
	<path class="st0" d="M53.92,8.768c-0.012-1.101,0.004-2.203-0.197-3.297c-0.156-0.844-0.324-1.682-0.567-2.506&#xA;		c-0.06-0.205-0.105-0.417-0.182-0.617c-0.183-0.473-0.387-0.939-0.571-1.412c-0.177-0.454-0.823-0.916-1.309-0.917&#xA;		c-0.926-0.002-1.851-0.001-2.778-0.001c0,0,0,0,0-0.001c-0.911,0-1.823,0.025-2.733-0.009c-0.561-0.021-0.886,0.429-0.824,0.903&#xA;		c0.118,0.902,0.229,1.805,0.308,2.711c0.098,1.135,0.205,2.271,0.228,3.408c0.037,1.894,0.01,3.789-0.214,5.675&#xA;		c-0.076,0.638-0.152,1.278-0.218,1.918c-0.039,0.382-0.064,0.767-0.086,1.152c-0.013,0.221,0.059,0.429,0.267,0.521&#xA;		c0.189,0.084,0.405,0.149,0.609,0.15c1.674,0.016,3.348,0.021,5.022,0.012c0.305-0.002,0.628-0.036,0.911-0.141&#xA;		c0.575-0.21,0.837-0.716,1.027-1.259c0.164-0.465,0.325-0.93,0.483-1.398c0.115-0.341,0.25-0.68,0.325-1.031&#xA;		c0.147-0.678,0.285-1.36,0.376-2.048C53.876,9.982,53.927,9.372,53.92,8.768z M52.7,7.068h-1.851l0.803-1.201L52.7,7.068z&#xA;		 M51.453,5.837l-0.804,1.136l-0.804-1.136H51.453z M50.369,7.068h-1.608l0.804-1.136L50.369,7.068z M49.316,5.837l-0.804,1.136&#xA;		l-0.804-1.136H49.316z M47.48,5.867l0.803,1.201h-1.851L47.48,5.867z M46.429,7.248h1.934l0.9,3.173L46.429,7.248z M48.662,7.248&#xA;		h1.806l-0.903,3.334L48.662,7.248z M49.869,10.421l0.9-3.173h1.934L49.869,10.421z"/>
	<path class="st0" d="M82.083,23.744c-0.019-0.103-0.04-0.206-0.059-0.309c-0.022-0.121-0.043-0.243-0.066-0.365&#xA;		c-0.007-0.035,0.005-0.059,0.025-0.088c0.029-0.042,0.055-0.088,0.07-0.136c0.029-0.092,0.026-0.189,0.022-0.284&#xA;		c-0.003-0.082-0.028-0.158-0.068-0.23c-0.056-0.098-0.152-0.137-0.254-0.151c-0.088-0.012-0.179-0.005-0.269-0.006&#xA;		c-0.051-0.001-0.053,0.002-0.053,0.052c0,0.251,0,0.503,0,0.754c0,0,0,0,0,0c0,0.2,0,0.4,0,0.599c0,0.057,0,0.115,0,0.172&#xA;		c0,0.037,0.011,0.047,0.047,0.047c0.048,0,0.096,0,0.143,0c0.039,0,0.054-0.016,0.054-0.056c0-0.172,0-0.345,0-0.517&#xA;		c0-0.025-0.003-0.051,0.001-0.076c0.002-0.012,0.016-0.029,0.027-0.03c0.017-0.003,0.029,0.011,0.032,0.03&#xA;		c0.029,0.162,0.059,0.324,0.088,0.486c0.006,0.035,0.011,0.071,0.018,0.107c0.009,0.045,0.022,0.056,0.067,0.057&#xA;		c0.042,0,0.084,0,0.126,0C82.083,23.801,82.092,23.792,82.083,23.744z M81.821,22.792c-0.013,0.044-0.042,0.074-0.084,0.091&#xA;		c-0.041,0.017-0.061,0.003-0.062-0.042c-0.001-0.056-0.002-0.169-0.004-0.169c0-0.068,0.001-0.136,0-0.204&#xA;		c0-0.036,0.023-0.056,0.059-0.042c0.045,0.018,0.082,0.051,0.094,0.098C81.846,22.613,81.848,22.703,81.821,22.792z"/>
	<path class="st0" d="M81.758,21.489c-0.828,0-1.499,0.671-1.499,1.499c0,0.828,0.671,1.499,1.499,1.499s1.499-0.671,1.499-1.499&#xA;		C83.257,22.16,82.586,21.489,81.758,21.489z M81.758,24.195c-0.667,0-1.207-0.54-1.207-1.207c0-0.667,0.54-1.207,1.207-1.207&#xA;		c0.667,0,1.207,0.54,1.207,1.207C82.966,23.655,82.425,24.195,81.758,24.195z"/>
</g>
</svg>