<?xml version="1.0" encoding="utf-8"?>
<svg xmlns="http://www.w3.org/2000/svg" width="252" height="48" viewBox="0 0 252 48" fill="none">
<path fill-rule="evenodd" clip-rule="evenodd" d="M130.985 44.9162C133.176 46.9721 136.171 48 139.971 48C144.174 48 147.684 46.7486 150.5 44.2458C153.362 41.743 155.038 38.3687 155.53 34.1229L158.079 13.8771C158.168 12.8939 158.213 12.1788 158.213 11.7318C158.213 8.11173 157.095 5.2514 154.86 3.15084C152.669 1.05028 149.673 0 145.873 0C141.67 0 138.161 1.2514 135.344 3.75419C132.572 6.25698 130.918 9.63128 130.381 13.8771L127.9 34.1229C127.81 35.1061 127.766 35.8436 127.766 36.3352C127.766 39.9553 128.839 42.8156 130.985 44.9162ZM143.526 37.4749C142.9 38.1453 142.117 38.4804 141.179 38.4804C140.329 38.4804 139.681 38.2123 139.234 37.676C138.787 37.095 138.563 36.3128 138.563 35.3296L138.63 34.5922L141.246 13.4078C141.38 12.2458 141.76 11.3073 142.386 10.5922C143.012 9.87709 143.794 9.51955 144.733 9.51955C145.582 9.51955 146.231 9.78771 146.678 10.324C147.125 10.8603 147.348 11.5978 147.348 12.5363C147.348 12.8939 147.326 13.1844 147.281 13.4078L146.986 15.8661L142.521 18.0084L148.808 19.1816L148.808 20.229L146.512 19.8006L144.733 34.5922C144.554 35.7989 144.152 36.7598 143.526 37.4749Z" fill="url(#paint0_linear_5693_51087)"/>
<path fill-rule="evenodd" clip-rule="evenodd" d="M119.927 44.0447C122.788 41.7207 124.442 38.4134 124.889 34.1229C124.979 33.1397 125.023 32.4246 125.023 31.9777C125.023 28.3128 123.772 25.4525 121.268 23.3966C121.134 23.2626 121.178 23.1285 121.402 22.9944C124.353 20.9832 126.096 17.8324 126.633 13.5419C126.722 13.0056 126.767 12.2458 126.767 11.2626C126.767 7.68715 125.605 5.00559 123.28 3.21788C121 1.43017 117.825 0.53631 113.757 0.53631H102.289C102.065 0.53631 101.864 0.625696 101.685 0.804467C101.551 0.938546 101.462 1.11732 101.417 1.34078L100.907 5.49108L96.4148 7.03073L103.75 7.65922L103.75 8.70665L100.546 8.43211L99.4535 17.3267L88.032 19.7052L100.607 21.451L100.607 22.4986L98.8482 22.2545L97.3733 34.2623L88.5555 35.9413L99.5582 38.0362L99.5583 39.0838L96.8446 38.5671L95.8506 46.6592C95.8059 46.8827 95.8506 47.0838 95.9848 47.2626C96.1189 47.3966 96.2977 47.4637 96.5213 47.4637H109.666C113.69 47.4637 117.11 46.324 119.927 44.0447ZM111.074 10.3911C111.164 10.1676 111.298 10.0559 111.477 10.0559H112.684C113.757 10.0559 114.561 10.3687 115.098 10.9944C115.679 11.5754 115.97 12.4469 115.97 13.6089C115.97 15.3966 115.567 16.8045 114.763 17.8324C114.003 18.8156 112.93 19.3073 111.544 19.3073H110.336C110.068 19.3073 109.979 19.1955 110.068 18.9721L111.074 10.3911ZM113.086 36.2011C112.281 37.3184 111.253 37.8771 110.001 37.8771H108.056C107.788 37.8771 107.699 37.7654 107.788 37.5419L108.995 27.6201C108.995 27.3966 109.107 27.2849 109.33 27.2849H111.342C112.281 27.2849 113.019 27.6648 113.556 28.4246C114.092 29.1844 114.36 30.2123 114.36 31.5084C114.36 33.5196 113.936 35.0838 113.086 36.2011Z" fill="url(#paint1_linear_5693_51087)"/>
<path fill-rule="evenodd" clip-rule="evenodd" d="M171.08 48C167.28 48 164.284 46.9721 162.094 44.9162C159.948 42.8156 158.875 39.9553 158.875 36.3352C158.875 35.8436 158.919 35.1061 159.009 34.1229L161.49 13.8771C162.027 9.63128 163.681 6.25698 166.453 3.75419C169.269 1.2514 172.779 0 176.982 0C180.782 0 183.778 1.05028 185.968 3.15084C188.204 5.2514 189.322 8.11173 189.322 11.7318C189.322 12.1788 189.277 12.8939 189.187 13.8771L186.639 34.1229C186.147 38.3687 184.471 41.743 181.609 44.2458C178.793 46.7486 175.283 48 171.08 48ZM172.287 38.4804C173.226 38.4804 174.009 38.1453 174.635 37.4749C175.26 36.7598 175.663 35.7989 175.842 34.5922L176.35 30.368L178.149 30.7038L178.149 29.6564L171.862 28.4832L176.865 26.0825L178.39 13.4078C178.435 13.1844 178.457 12.8939 178.457 12.5363C178.457 11.5978 178.234 10.8603 177.787 10.324C177.339 9.78771 176.691 9.51955 175.842 9.51955C174.903 9.51955 174.12 9.87709 173.494 10.5922C172.869 11.3073 172.488 12.2458 172.354 13.4078L169.739 34.5922L169.672 35.3296C169.672 36.3128 169.895 37.095 170.342 37.676C170.79 38.2123 171.438 38.4804 172.287 38.4804Z" fill="url(#paint2_linear_5693_51087)"/>
<path d="M192.934 45.1173C195.08 47.0391 197.986 48 201.652 48C205.632 48 208.985 46.8156 211.712 44.4469C214.484 42.0782 216.116 38.8827 216.608 34.8603C216.697 33.9665 216.742 33.3408 216.742 32.9832C216.742 31.2402 216.384 29.6983 215.669 28.3575C214.998 26.9721 214.082 25.6983 212.919 24.5363C211.801 23.3296 210.102 21.7654 207.822 19.8436C205.989 18.324 204.715 17.1397 204 16.2905C203.329 15.3966 202.994 14.4804 202.994 13.5419C202.994 12.3799 203.284 11.419 203.866 10.6592C204.491 9.89944 205.229 9.51955 206.079 9.51955C206.883 9.51955 207.487 9.8324 207.889 10.4581C208.336 11.0838 208.515 11.8883 208.426 12.8715L208.158 14.7486C208.158 15.2849 208.404 15.5531 208.895 15.5531H217.882C218.105 15.5531 218.307 15.486 218.485 15.352C218.664 15.1732 218.776 14.9721 218.821 14.7486L219.022 13.1397C219.111 12.2458 219.156 11.5978 219.156 11.1955C219.156 7.79888 218.083 5.09497 215.937 3.0838C213.791 1.02793 210.907 0 207.286 0C204.424 0 201.854 0.625698 199.573 1.87709C197.293 3.12849 195.505 4.89385 194.208 7.17318C192.912 9.45251 192.263 12.0447 192.263 14.9497C192.263 17.0503 192.666 18.9274 193.471 20.581C194.167 21.8999 194.953 23.0537 195.83 24.0422L191.771 25.3406L201.202 26.5138L201.202 27.5615L199.349 27.331C199.838 27.745 200.36 28.1766 200.915 28.6257C202.882 30.2346 204.201 31.4413 204.871 32.2458C205.587 33.0503 205.944 33.8771 205.944 34.7263C205.944 35.8436 205.632 36.7598 205.006 37.4749C204.424 38.1453 203.709 38.4804 202.86 38.4804C202.189 38.4804 201.63 38.2346 201.183 37.743C200.781 37.2067 200.579 36.514 200.579 35.6648L200.646 34.9944L200.848 33.4525C200.848 32.9162 200.602 32.648 200.11 32.648H191.056C190.833 32.648 190.632 32.7374 190.453 32.9162C190.274 33.0503 190.162 33.229 190.117 33.4525L189.916 35.5307C189.827 36.3352 189.782 36.9385 189.782 37.3408C189.782 40.5587 190.833 43.1508 192.934 45.1173Z" fill="url(#paint3_linear_5693_51087)"/>
<path d="M251.312 0.53631C251.535 0.53631 251.714 0.625696 251.848 0.804467C251.982 0.938546 252.027 1.11732 251.982 1.34078L251.043 9.25139C250.999 9.47486 250.887 9.67598 250.708 9.85474C250.574 9.98882 250.395 10.0559 250.172 10.0559H242.057C241.833 10.0559 241.722 10.1676 241.722 10.3911L237.228 46.6592C237.228 46.8827 237.139 47.0838 236.96 47.2626C236.781 47.3966 236.58 47.4637 236.356 47.4637H227.169C226.677 47.4637 226.431 47.1955 226.431 46.6592L227.547 37.647L229.495 38.0363L229.495 36.9887L221.636 35.4174L228.09 33.2667L229.225 24.1036L231.591 24.4189L231.591 23.3715L219.016 21.6955L229.791 19.5415L230.924 10.3911C230.924 10.1676 230.835 10.0559 230.656 10.0559H222.877C222.653 10.0559 222.474 9.98882 222.34 9.85474C222.206 9.67598 222.161 9.47486 222.206 9.25139L223.145 1.34078C223.19 1.11732 223.301 0.938546 223.48 0.804467C223.659 0.625696 223.86 0.53631 224.084 0.53631H251.312Z" fill="url(#paint4_linear_5693_51087)"/>
<path d="M69.1609 48C65.4053 48 62.4321 47.0168 60.2413 45.0503C58.0953 43.0391 57.0223 40.3128 57.0223 36.8715C57.0223 36.4693 57.067 35.7765 57.1564 34.7933L59.6499 14.6654L61.825 14.9916L61.8243 13.9443L57.6328 13.3158L60.0213 11.8832C60.6419 8.44635 62.1907 5.66963 64.6676 3.55307C67.4395 1.18436 70.8822 0 74.9954 0C78.751 0 81.7242 1.00559 83.9149 3.01676C86.1057 5.02793 87.2011 7.75419 87.2011 11.1955C87.2011 11.5978 87.1563 12.2905 87.0669 13.2737L86.7316 15.7542C86.6869 15.9777 86.5751 16.1788 86.3963 16.3575C86.2622 16.4916 86.0833 16.5587 85.8598 16.5587H76.605C76.3814 16.5587 76.2026 16.4916 76.0684 16.3575C75.9343 16.1788 75.8896 15.9777 75.9343 15.7542L76.2696 13.1397L76.3367 12.4693C76.3367 11.5754 76.1132 10.8603 75.6661 10.324C75.219 9.78771 74.6154 9.51955 73.8553 9.51955C73.0059 9.51955 72.2905 9.85475 71.7093 10.5251C71.1281 11.1955 70.7704 12.067 70.6363 13.1397L67.9537 34.8603L67.8866 35.5978C67.8866 36.4916 68.1102 37.2067 68.5573 37.743C69.0044 38.2346 69.5856 38.4804 70.3009 38.4804C71.1504 38.4804 71.8658 38.1453 72.447 37.4749C73.0729 36.8045 73.4529 35.933 73.5871 34.8603L73.6104 34.6735L75.4477 34.8939L75.4471 33.8463L70.2077 33.2179L74.0213 31.388L74.1236 30.5698C74.213 30.3464 74.1236 30.2346 73.8553 30.2346H72.1787C71.9552 30.2346 71.7763 30.1676 71.6422 30.0335C71.5081 29.8547 71.4634 29.6536 71.5081 29.4302L72.3799 22.324C72.3799 22.1006 72.4693 21.9218 72.6482 21.7877C72.827 21.6089 73.0282 21.5196 73.2518 21.5196H85.2562C85.4797 21.5196 85.6586 21.6089 85.7927 21.7877C85.9268 21.9218 85.9715 22.1006 85.9268 22.324L84.3844 34.7933C83.9373 38.8156 82.3054 42.0335 79.4887 44.4469C76.7167 46.8156 73.2741 48 69.1609 48Z" fill="url(#paint5_linear_5693_51087)"/>
<path fill-rule="evenodd" clip-rule="evenodd" d="M33.9905 44.0447C36.8519 41.7207 38.5062 38.4134 38.9533 34.1229C39.0427 33.1397 39.0874 32.4246 39.0874 31.9777C39.0874 28.3128 37.8355 25.4525 35.3318 23.3966C35.1977 23.2626 35.2424 23.1285 35.4659 22.9944C38.4167 20.9832 40.1604 17.8324 40.6969 13.5419C40.7863 13.0056 40.831 12.2458 40.831 11.2626C40.831 7.68715 39.6686 5.00559 37.3437 3.21788C35.0635 1.43017 31.8892 0.53631 27.8206 0.53631H16.3527C16.1292 0.53631 15.928 0.625696 15.7491 0.804467C15.615 0.938546 15.5256 1.11732 15.4809 1.34078L15.1641 3.91959L8.38281 5.82612L16.7658 6.61174L16.7665 7.6593L14.7282 7.46829L14.146 12.2083L1.04753 15.2011L15.7178 16.0391L15.7184 17.0867L13.562 16.9635L12.482 25.7559L0 28.9232L13.6224 29.6565L13.623 30.7039L11.8858 30.6104L10.7367 39.9653L7.33464 41.5977L12.574 42.2262L12.5747 43.2738L10.363 43.0085L9.91455 46.6592C9.86984 46.8827 9.91455 47.0838 10.0487 47.2626C10.1828 47.3966 10.3616 47.4637 10.5852 47.4637H23.7297C27.7536 47.4637 31.1738 46.324 33.9905 44.0447ZM25.1381 10.3911C25.2275 10.1676 25.3616 10.0559 25.5405 10.0559H26.7476C27.8206 10.0559 28.6254 10.3687 29.1619 10.9944C29.7431 11.5754 30.0337 12.4469 30.0337 13.6089C30.0337 15.3966 29.6314 16.8045 28.8266 17.8324C28.0665 18.8156 26.9935 19.3073 25.6075 19.3073H24.4004C24.1321 19.3073 24.0427 19.1955 24.1321 18.9721L25.1381 10.3911ZM27.15 36.2011C26.3452 37.3184 25.3169 37.8771 24.0651 37.8771H22.1202C21.8519 37.8771 21.7625 37.7654 21.8519 37.5419L23.0591 27.6201C23.0591 27.3966 23.1709 27.2849 23.3944 27.2849H25.4063C26.3452 27.2849 27.0829 27.6648 27.6194 28.4246C28.156 29.1844 28.4242 30.2123 28.4242 31.5084C28.4242 33.5196 27.9995 35.0838 27.15 36.2011Z" fill="url(#paint6_linear_5693_51087)"/>
<path d="M41.092 47.2626C41.2261 47.3966 41.4049 47.4637 41.6285 47.4637H50.8833C51.1069 47.4637 51.2857 47.3966 51.4198 47.2626C51.5987 47.0838 51.7104 46.8827 51.7551 46.6592L57.3214 1.34078C57.3662 1.11732 57.3214 0.938546 57.1873 0.804467C57.0532 0.625696 56.8744 0.53631 56.6508 0.53631H47.396C47.1724 0.53631 46.9712 0.625696 46.7924 0.804467C46.6583 0.938546 46.5689 1.11732 46.5241 1.34078L44.085 21.199L40.8672 22.743L46.1066 23.3715L46.1072 24.4191L43.7246 24.1333L40.9578 46.6592C40.9131 46.8827 40.9578 47.0838 41.092 47.2626Z" fill="url(#paint7_linear_5693_51087)"/>
<defs>
<linearGradient id="paint0_linear_5693_51087" x1="0" y1="0" x2="240.892" y2="81.0226" gradientUnits="userSpaceOnUse">
<stop stop-color="#FFDC86"/>
<stop offset="0.550621" stop-color="#FFAD7B"/>
<stop offset="1" stop-color="#FFD492"/>
</linearGradient>
<linearGradient id="paint1_linear_5693_51087" x1="0" y1="0" x2="240.892" y2="81.0226" gradientUnits="userSpaceOnUse">
<stop stop-color="#FFDC86"/>
<stop offset="0.550621" stop-color="#FFAD7B"/>
<stop offset="1" stop-color="#FFD492"/>
</linearGradient>
<linearGradient id="paint2_linear_5693_51087" x1="0" y1="0" x2="240.892" y2="81.0226" gradientUnits="userSpaceOnUse">
<stop stop-color="#FFDC86"/>
<stop offset="0.550621" stop-color="#FFAD7B"/>
<stop offset="1" stop-color="#FFD492"/>
</linearGradient>
<linearGradient id="paint3_linear_5693_51087" x1="0" y1="0" x2="240.892" y2="81.0226" gradientUnits="userSpaceOnUse">
<stop stop-color="#FFDC86"/>
<stop offset="0.550621" stop-color="#FFAD7B"/>
<stop offset="1" stop-color="#FFD492"/>
</linearGradient>
<linearGradient id="paint4_linear_5693_51087" x1="0" y1="0" x2="240.892" y2="81.0226" gradientUnits="userSpaceOnUse">
<stop stop-color="#FFDC86"/>
<stop offset="0.550621" stop-color="#FFAD7B"/>
<stop offset="1" stop-color="#FFD492"/>
</linearGradient>
<linearGradient id="paint5_linear_5693_51087" x1="0" y1="0" x2="240.892" y2="81.0226" gradientUnits="userSpaceOnUse">
<stop stop-color="#FFDC86"/>
<stop offset="0.550621" stop-color="#FFAD7B"/>
<stop offset="1" stop-color="#FFD492"/>
</linearGradient>
<linearGradient id="paint6_linear_5693_51087" x1="0" y1="0" x2="240.892" y2="81.0226" gradientUnits="userSpaceOnUse">
<stop stop-color="#FFDC86"/>
<stop offset="0.550621" stop-color="#FFAD7B"/>
<stop offset="1" stop-color="#FFD492"/>
</linearGradient>
<linearGradient id="paint7_linear_5693_51087" x1="0" y1="0" x2="240.892" y2="81.0226" gradientUnits="userSpaceOnUse">
<stop stop-color="#FFDC86"/>
<stop offset="0.550621" stop-color="#FFAD7B"/>
<stop offset="1" stop-color="#FFD492"/>
</linearGradient>
</defs>
</svg>