<?xml version="1.0" encoding="utf-8"?>
<svg xmlns="http://www.w3.org/2000/svg" xmlns:xlink="http://www.w3.org/1999/xlink" version="1.1" id="Layer_1" x="0px" y="0px" viewBox="0 0 105.1 34" style="enable-background:new 0 0 105.1 34;">
<style type="text/css">
	.st0{fill:#F22778;}
</style>
<path class="st0" d="M37.6,4.4c0,2.4,2.1,4.4,4.6,4.4c2.5,0,4.6-2,4.6-4.4C46.8,2,44.8,0,42.2,0C39.7,0,37.6,2,37.6,4.4z"/>
<path class="st0" d="M42.2,12.3c-2.8,0-5.3-1.3-6.8-3.4L25.3,34h5c3,0,5.7-2,6.6-4.3L44,12.1C43.4,12.3,42.8,12.3,42.2,12.3z"/>
<path class="st0" d="M85.4,21.8L78.4,4.5c-2.5-6-11.2-5.8-13.4-0.1l-7.1,17.5l-7.3-18c0,0.2,0,0.4,0,0.5c0,3.8-2.8,7-6.5,7.7&#xA;	l7.1,17.5c2.2,5.6,10.9,5.9,13.3,0l7.1-17.5l7.1,17.5c2.3,5.8,11.1,5.7,13.3,0L104.1,0h-9.9L85.4,21.8z"/>
<path class="st0" d="M24.9,24.9l-13.7,0L21.4,0h-9.8L1.4,24.8c-1.7,4.5,2,8.8,6.2,9.1l13.6,0L24.9,24.9z"/>
</svg>