<?xml version="1.0" encoding="utf-8"?>
<svg xmlns="http://www.w3.org/2000/svg" width="81" height="80" viewBox="0 0 81 80" fill="none">
<path fill-rule="evenodd" clip-rule="evenodd" d="M24.5903 43.6432H17.7921C14.3334 43.6432 11.5903 40.8959 10.994 37.4319V32.415C10.994 29.7871 12.783 27.3982 15.2875 26.562C15.6453 26.4426 15.8838 26.3231 16.0032 25.9648V24.8897C16.0032 17.1256 18.0306 11.1531 22.0857 7.0919C26.1407 3.03064 32.1041 1 39.9757 1C47.8472 1 53.8105 3.03064 57.8656 7.0919C61.9206 11.0337 63.9482 17.0061 63.9482 24.8897V25.9648C64.0674 26.2037 64.3059 26.4426 64.6638 26.562C67.2875 27.3982 68.9573 29.7871 68.9573 32.415V37.3124C68.9573 39.9403 67.2875 42.3293 64.783 43.1654C64.3059 43.2848 63.9482 43.7626 63.9482 44.3599V44.8377C63.9482 48.1822 61.2051 51.049 57.7463 51.049H45.2233C44.627 51.049 44.0306 50.5712 44.0306 49.8545V44.8377C44.0306 44.2404 44.5077 43.6432 45.2233 43.6432C45.8197 43.6432 46.416 44.121 46.416 44.8377V47.3461C46.416 48.0628 47.0123 48.66 47.7279 48.66H57.7463C59.8931 48.66 61.5628 46.9877 61.5628 44.8377C61.5628 44.121 60.9664 43.5237 60.2509 43.5237H54.4069C54.049 43.4043 53.8105 43.1654 53.6913 42.9265C53.4527 42.5682 53.4527 42.3293 53.5719 41.9709C54.6454 38.6263 55.2417 35.1623 55.2417 31.5789C55.2417 30.1455 55.1225 28.7121 55.0032 27.3982C54.8839 26.8009 55.361 26.2037 56.0765 26.0842H60.2509C60.9664 26.0842 61.5628 25.487 61.5628 24.7703C61.5628 17.4839 59.8931 12.2282 56.3151 8.6447C52.7371 5.06127 47.4895 3.38897 40.2142 3.38897C32.9389 3.38897 27.6913 5.06127 24.1132 8.6447C20.6545 12.2282 18.8656 17.4839 18.8656 24.7703C18.8656 25.487 19.4619 26.0842 20.1775 26.0842H22.0857C22.8013 26.0842 23.2784 25.6064 23.3976 25.0092C24.6621 18.5927 28.0716 19.2009 33.1628 20.1091C35.2746 20.4858 37.6759 20.9142 40.3334 20.9142C43.0191 20.9142 45.4387 19.2978 47.5595 17.881C50.1477 16.1519 52.291 14.7201 53.9298 16.8867C54.1683 17.245 54.1683 17.4839 54.1683 17.8423C54.1683 18.2006 53.9298 18.4395 53.6913 18.6784C53.4527 18.7979 53.2142 18.9173 52.9757 18.9173C52.6178 18.9173 52.26 18.7979 52.0215 18.4395C50.616 18.4395 49.198 19.408 47.6123 20.4911C45.6012 21.8647 43.3203 23.4227 40.4527 23.4227C38.7396 23.4227 36.946 22.9999 35.2169 22.5922C29.964 21.3538 25.3059 20.2556 25.3059 31.5789C25.3059 46.3905 34.4893 56.1853 40.4527 56.1853C41.1683 56.1853 41.8839 56.0659 42.5995 55.827H42.9573C43.5536 55.827 44.0306 56.1853 44.15 56.6631C44.2692 57.2603 43.9114 57.977 43.315 58.2159C42.361 58.5743 41.4069 58.6937 40.4527 58.6937C34.7279 58.6937 28.4069 52.7213 25.1866 44.121C25.127 44.0613 25.0972 44.0016 25.0674 43.9419C25.0376 43.8821 25.0077 43.8224 24.9481 43.7626C24.8288 43.6432 24.7095 43.6432 24.5903 43.6432ZM66.9298 37.4319V32.415C66.9298 30.2649 65.1407 28.5927 63.2325 28.5927H59.416C59.0582 28.5927 58.7004 28.7121 58.4619 28.951C58.2233 29.1899 58.1041 29.5482 58.1041 29.9066V31.6983C58.1041 34.3262 57.7463 37.0735 57.15 39.7014C57.0306 40.0597 57.15 40.4181 57.3885 40.7764C57.627 41.1348 57.9848 41.2542 58.3426 41.2542H63.1132C65.26 41.2542 66.9298 39.5819 66.9298 37.4319ZM17.7921 28.5927C15.6453 28.5927 13.9757 30.2649 13.9757 32.415L14.2142 37.4319C14.2142 39.5819 15.8838 41.2542 18.0306 41.2542H22.682C23.0399 41.2542 23.3976 41.1348 23.6362 40.7764C23.8747 40.5375 23.9939 40.0597 23.8747 39.7014C23.2784 37.0735 22.9206 34.3262 22.9206 31.6983V29.9066C22.9206 29.5482 22.8013 29.1899 22.5628 28.951C22.3243 28.7121 21.9664 28.5927 21.6087 28.5927H17.7921Z" fill="url(#paint0_linear_1189_20120)"/>
<path fill-rule="evenodd" clip-rule="evenodd" d="M30.3141 60.0287C30.6175 59.7793 31.0131 59.691 31.3865 59.7893L40.3334 61.8806L49.2802 59.7893C49.6536 59.691 50.0492 59.7793 50.3526 60.0287C50.656 60.278 50.8334 60.6606 50.8334 61.0658V69.4342C50.8334 69.8394 50.656 70.2219 50.3526 70.4713C50.0492 70.7206 49.6536 70.809 49.2802 70.7107L40.3334 68.6194L31.3865 70.7107C31.0131 70.809 30.6175 70.7206 30.3141 70.4713C30.0107 70.2219 29.8334 69.8394 29.8334 69.4342V61.0658C29.8334 60.6606 30.0107 60.278 30.3141 60.0287ZM32.3334 62.751V67.749L38.8334 66.3016V64.1984L32.3334 62.751ZM48.3334 62.751V67.749L41.8334 66.3016V64.1984L48.3334 62.751Z" fill="url(#paint1_linear_1189_20120)"/>
<path d="M17.3334 46.75C18.0237 46.75 18.5834 47.3096 18.5834 48C18.5834 50.4776 18.4059 53.41 17.6333 55.874C16.8656 58.3218 15.3902 60.6426 12.5872 61.224C11.9113 61.3642 11.2496 60.9298 11.1094 60.2539C10.9692 59.5779 11.4036 58.9163 12.0795 58.776C13.5622 58.4685 14.5868 57.2337 15.2478 55.126C15.9037 53.0344 16.0834 50.4113 16.0834 48C16.0834 47.3096 16.643 46.75 17.3334 46.75Z" fill="url(#paint2_linear_1189_20120)"/>
<path d="M61.0834 54C61.0834 53.3096 61.643 52.75 62.3334 52.75C63.0238 52.75 63.5834 53.3096 63.5834 54C63.5834 55.1332 63.7555 56.2412 64.2852 57.0858C64.7693 57.8577 65.651 58.5688 67.4623 58.7567C68.149 58.8279 68.6479 59.4423 68.5767 60.1289C68.5055 60.8156 67.8911 61.3145 67.2045 61.2433C64.7301 60.9867 63.1118 59.9201 62.1673 58.4142C61.2685 56.981 61.0834 55.3113 61.0834 54Z" fill="url(#paint3_linear_1189_20120)"/>
<path d="M25.9659 58.9218C26.5613 59.2712 26.7609 60.0371 26.4115 60.6325C26.25 60.9079 26.0978 61.2041 25.9267 61.5412L25.8883 61.6171C25.7322 61.9248 25.5598 62.2649 25.3689 62.6046C24.9496 63.3509 24.4103 64.1535 23.5942 64.8744C21.933 66.3417 19.3839 67.25 15.0667 67.25C12.2598 67.25 10.525 67.6838 9.45477 68.1415C8.42246 68.583 7.94482 69.0716 7.65931 69.3637L7.64935 69.3739C5.90309 71.1599 4.58337 73.853 4.58337 77C4.58337 77.6904 4.02373 78.25 3.33337 78.25C2.64302 78.25 2.08337 77.6904 2.08337 77C2.08337 73.147 3.69699 69.8402 5.86184 67.6261C6.24971 67.2294 6.99528 66.4743 8.4717 65.8429C9.92229 65.2225 12.0069 64.75 15.0667 64.75C19.0606 64.75 20.9115 63.9083 21.9392 63.0006C22.4675 62.534 22.845 61.9929 23.1895 61.3798C23.3531 61.0886 23.5024 60.7943 23.663 60.4776L23.6973 60.41C23.8662 60.0771 24.0501 59.7171 24.2552 59.3675C24.6045 58.772 25.3704 58.5725 25.9659 58.9218Z" fill="url(#paint4_linear_1189_20120)"/>
<path d="M54.2552 60.6325C53.9059 60.0371 54.1054 59.2712 54.7009 58.9218C55.2963 58.5725 56.0622 58.772 56.4115 59.3675C56.6167 59.7171 56.8006 60.0771 56.9694 60.41L57.0037 60.4776C57.1643 60.7943 57.3136 61.0886 57.4773 61.3798C57.8218 61.9929 58.1992 62.534 58.7275 63.0006C59.7552 63.9083 61.6061 64.75 65.6 64.75C68.6598 64.75 70.7445 65.2225 72.1951 65.8429C73.6715 66.4743 74.417 67.2294 74.8049 67.6261C76.9698 69.8402 78.5834 73.147 78.5834 77C78.5834 77.6904 78.0237 78.25 77.3334 78.25C76.643 78.25 76.0834 77.6904 76.0834 77C76.0834 73.853 74.7637 71.1599 73.0174 69.3739L73.0074 69.3637C72.7219 69.0716 72.2443 68.583 71.212 68.1415C70.1417 67.6838 68.4069 67.25 65.6 67.25C61.2829 67.25 58.7338 66.3417 57.0725 64.8744C56.2564 64.1535 55.7172 63.3509 55.2978 62.6046C55.107 62.2649 54.9347 61.9251 54.7786 61.6173L54.74 61.5412C54.569 61.2041 54.4168 60.9079 54.2552 60.6325Z" fill="url(#paint5_linear_1189_20120)"/>
<defs>
<linearGradient id="paint0_linear_1189_20120" x1="2.08337" y1="1" x2="83.1581" y2="6.14368" gradientUnits="userSpaceOnUse">
<stop stop-color="#FFDC86"/>
<stop offset="0.550621" stop-color="#FFAD7B"/>
<stop offset="1" stop-color="#FFD492"/>
</linearGradient>
<linearGradient id="paint1_linear_1189_20120" x1="2.08337" y1="1" x2="83.1581" y2="6.14368" gradientUnits="userSpaceOnUse">
<stop stop-color="#FFDC86"/>
<stop offset="0.550621" stop-color="#FFAD7B"/>
<stop offset="1" stop-color="#FFD492"/>
</linearGradient>
<linearGradient id="paint2_linear_1189_20120" x1="2.08337" y1="1" x2="83.1581" y2="6.14368" gradientUnits="userSpaceOnUse">
<stop stop-color="#FFDC86"/>
<stop offset="0.550621" stop-color="#FFAD7B"/>
<stop offset="1" stop-color="#FFD492"/>
</linearGradient>
<linearGradient id="paint3_linear_1189_20120" x1="2.08337" y1="1" x2="83.1581" y2="6.14368" gradientUnits="userSpaceOnUse">
<stop stop-color="#FFDC86"/>
<stop offset="0.550621" stop-color="#FFAD7B"/>
<stop offset="1" stop-color="#FFD492"/>
</linearGradient>
<linearGradient id="paint4_linear_1189_20120" x1="2.08337" y1="1" x2="83.1581" y2="6.14368" gradientUnits="userSpaceOnUse">
<stop stop-color="#FFDC86"/>
<stop offset="0.550621" stop-color="#FFAD7B"/>
<stop offset="1" stop-color="#FFD492"/>
</linearGradient>
<linearGradient id="paint5_linear_1189_20120" x1="2.08337" y1="1" x2="83.1581" y2="6.14368" gradientUnits="userSpaceOnUse">
<stop stop-color="#FFDC86"/>
<stop offset="0.550621" stop-color="#FFAD7B"/>
<stop offset="1" stop-color="#FFD492"/>
</linearGradient>
</defs>
</svg>