<?xml version="1.0" encoding="utf-8"?>
<svg xmlns="http://www.w3.org/2000/svg" width="48" height="48" viewBox="0 0 48 48" fill="none">
<rect y="0.00341797" width="48" height="48" rx="12" fill="black"/>
<path d="M28.4647 16.9863H19.539V31.5646H28.4647V16.9863Z" fill="#FF5F00"/>
<path d="M20.4582 24.2763C20.4571 22.8725 20.7753 21.4869 21.3888 20.2243C22.0022 18.9617 22.8948 17.8552 23.9991 16.9885C22.6314 15.9136 20.989 15.2453 19.2594 15.0597C17.5299 14.8742 15.783 15.179 14.2185 15.9393C12.654 16.6996 11.3349 17.8847 10.4121 19.3592C9.48927 20.8337 8.99989 22.5381 8.99989 24.2776C8.99989 26.017 9.48927 27.7214 10.4121 29.1959C11.3349 30.6704 12.654 31.8555 14.2185 32.6158C15.783 33.3761 17.5299 33.681 19.2594 33.4954C20.989 33.3099 22.6314 32.6415 23.9991 31.5667C22.8945 30.6997 22.0017 29.5928 21.3882 28.3297C20.7747 27.0666 20.4567 25.6805 20.4582 24.2763Z" fill="#EB001B"/>
<path d="M38.1136 30.0217V29.7229H38.2423V29.6611H37.9359V29.7229H38.0569V30.0217H38.1136ZM38.7085 30.0217V29.6611H38.6158L38.5076 29.9187L38.3994 29.6611H38.3067V30.0217H38.3737V29.7487L38.4741 29.983H38.5437L38.6441 29.7487V30.0217H38.7085Z" fill="#F79E1B"/>
<path d="M38.9998 24.2765C38.9998 26.0161 38.5103 27.7206 37.5873 29.1952C36.6643 30.6697 35.345 31.8548 33.7803 32.615C32.2156 33.3752 30.4686 33.6798 28.739 33.494C27.0093 33.3082 25.3668 32.6395 23.9993 31.5643C25.1031 30.6969 25.9955 29.59 26.6091 28.3274C27.2227 27.0647 27.5415 25.6791 27.5415 24.2752C27.5415 22.8713 27.2227 21.4858 26.6091 20.2231C25.9955 18.9604 25.1031 17.8536 23.9993 16.9861C25.3668 15.9109 27.0093 15.2422 28.739 15.0564C30.4686 14.8707 32.2156 15.1753 33.7803 15.9355C35.345 16.6957 36.6643 17.8808 37.5873 19.3553C38.5103 20.8298 38.9998 22.5343 38.9998 24.2739V24.2765Z" fill="#F79E1B"/>
</svg>