<?xml version="1.0" encoding="utf-8"?>
<svg xmlns="http://www.w3.org/2000/svg" width="24" height="24" viewBox="0 0 24 24" fill="none">
<path d="M3.00003 5C2.44775 5 2.00003 5.44772 2.00003 6C2.00003 6.55228 2.44775 7 3.00003 7H21C21.5523 7 22 6.55228 22 6C22 5.44772 21.5523 5 21 5H3.00003Z" fill="url(#paint0_linear_10642_28868)"/>
<path d="M2.00003 12C2.00003 11.4477 2.44775 11 3.00003 11H21C21.5523 11 22 11.4477 22 12C22 12.5523 21.5523 13 21 13H3.00003C2.44775 13 2.00003 12.5523 2.00003 12Z" fill="url(#paint1_linear_10642_28868)"/>
<path d="M2.00003 18C2.00003 17.4477 2.44775 17 3.00003 17H21C21.5523 17 22 17.4477 22 18C22 18.5523 21.5523 19 21 19H3.00003C2.44775 19 2.00003 18.5523 2.00003 18Z" fill="url(#paint2_linear_10642_28868)"/>
<defs>
<linearGradient id="paint0_linear_10642_28868" x1="2.00003" y1="5" x2="23.1046" y2="6.93154" gradientUnits="userSpaceOnUse">
<stop stop-color="#FFDC86"/>
<stop offset="0.550621" stop-color="#FFAD7B"/>
<stop offset="1" stop-color="#FFD492"/>
</linearGradient>
<linearGradient id="paint1_linear_10642_28868" x1="2.00003" y1="5" x2="23.1046" y2="6.93154" gradientUnits="userSpaceOnUse">
<stop stop-color="#FFDC86"/>
<stop offset="0.550621" stop-color="#FFAD7B"/>
<stop offset="1" stop-color="#FFD492"/>
</linearGradient>
<linearGradient id="paint2_linear_10642_28868" x1="2.00003" y1="5" x2="23.1046" y2="6.93154" gradientUnits="userSpaceOnUse">
<stop stop-color="#FFDC86"/>
<stop offset="0.550621" stop-color="#FFAD7B"/>
<stop offset="1" stop-color="#FFD492"/>
</linearGradient>
</defs>
</svg>