<?xml version="1.0" encoding="utf-8"?>
<svg xmlns="http://www.w3.org/2000/svg" xmlns:xlink="http://www.w3.org/1999/xlink" version="1.1" id="Layer_1" x="0px" y="0px" viewBox="0 0 114.238 34" style="enable-background:new 0 0 114.238 34;">
<style type="text/css">
	.st0{fill:#FFFFFF;}
	.st1{fill:#70C82F;}
</style>
<g>
	<path class="st0" d="M1,33.179V0.821l16.206,16.151L33.138,0.767v32.412c0,1.095-1.643,1.095-1.643,0V4.763l-14.29,14.509&#xA;		L2.643,4.709v28.47C2.643,34.274,1,34.274,1,33.179 M37.354,26.882c2.792,3.34,7.063,5.475,11.771,5.475&#xA;		c8.213,0,14.947-6.461,15.33-14.564h-15.33c-1.095,0-1.095-1.643,0-1.643h16.973v0.821c0,9.362-7.61,16.973-16.973,16.973&#xA;		c-4.544,0-8.705-1.807-11.717-4.709L37.354,26.882z M37.354,4.709C40.42,1.807,44.581,0,49.126,0&#xA;		c6.296,0,11.826,3.449,14.728,8.541c0.548,0.931-0.876,1.752-1.424,0.821c-2.628-4.654-7.61-7.72-13.304-7.72&#xA;		c-4.709,0-8.924,2.135-11.771,5.475V4.709z M79.676,0.821l0.055,0.11l15.932,31.865c0.493,0.986-0.986,1.697-1.478,0.712&#xA;		L79.676,4.49L65.167,33.507c-0.493,0.986-1.916,0.219-1.478-0.712L79.622,0.931v-0.11H79.676z"/>
	<path class="st1" d="M95.937,0.821c-1.04,0-1.807,0.602-1.807,1.533s0.767,1.533,1.807,1.533h15.494&#xA;		c1.04,0,1.807-0.602,1.807-1.533s-0.767-1.533-1.807-1.533C111.432,0.821,95.937,0.821,95.937,0.821z"/>
	<path class="st1" d="M95.937,6.953c-1.04,0-1.807,0.602-1.807,1.533s0.767,1.533,1.807,1.533h15.494&#xA;		c1.04,0,1.807-0.602,1.807-1.533s-0.767-1.533-1.807-1.533C111.432,6.953,95.937,6.953,95.937,6.953z"/>
	<path class="st1" d="M95.937,13.085c-1.04,0-1.807,0.602-1.807,1.533s0.767,1.533,1.807,1.533h15.494&#xA;		c1.04,0,1.807-0.602,1.807-1.533s-0.767-1.533-1.807-1.533H95.937z"/>
</g>
</svg>