<?xml version="1.0" encoding="utf-8"?>
<svg xmlns="http://www.w3.org/2000/svg" xmlns:xlink="http://www.w3.org/1999/xlink" version="1.1" id="Layer_1" x="0px" y="0px" viewBox="0 0 139.771 34" style="enable-background:new 0 0 139.771 34;">
<style type="text/css">
	.st0{fill:url(#SVGID_1_);}
	.st1{fill:url(#SVGID_2_);}
	.st2{fill:url(#SVGID_3_);}
	.st3{fill:url(#SVGID_4_);}
	.st4{fill:url(#SVGID_5_);}
	.st5{fill:url(#SVGID_6_);}
	.st6{fill:url(#SVGID_7_);}
	.st7{fill:url(#SVGID_8_);}
	.st8{fill:url(#SVGID_9_);}
	.st9{fill:url(#SVGID_10_);}
	.st10{fill:url(#SVGID_11_);}
	.st11{fill:url(#SVGID_12_);}
</style>
<g>
	<g id="Layer_2_1_">
		<g id="Layer_1-2">
			
				<linearGradient id="SVGID_1_" gradientUnits="userSpaceOnUse" x1="-1.6537" y1="13.5511" x2="135.8047" y2="46.6661" gradientTransform="matrix(1 0 0 -1 0 35.2912)">
				<stop offset="0" style="stop-color:#21E418"/>
				<stop offset="0.3" style="stop-color:#31B6E9"/>
				<stop offset="0.9757" style="stop-color:#21E418"/>
			</linearGradient>
			<path class="st0" d="M18.026,0C8.623,0,1,7.623,1,17.057c0,1.687,0.25,3.343,0.75,4.936c0.312-0.437,0.625-0.875,0.906-1.343&#xA;				c1.187-1.749,2.343-3.499,3.499-5.28l0.843-1.343c0.281-0.437,0.562-0.906,0.812-1.343c0.562-0.906,1.093-1.812,1.593-2.718&#xA;				c0.25-0.469,0.5-0.906,0.781-1.375c0.281-0.469,0.5-0.906,0.75-1.375c0.25-0.469,0.5-0.937,0.719-1.375l0.687-1.406l0.062-0.094&#xA;				c0.375-0.75,1.281-1.062,2.062-0.719c0.562,0.312,0.906,0.906,0.875,1.562l0,0c0,0.812-0.156,1.656-0.219,2.468&#xA;				c-0.062,0.812-0.094,1.656-0.156,2.499c-0.062,1.656-0.094,3.343-0.094,4.998c0,1.656,0.094,3.311,0.25,4.905&#xA;				c0.094,0.781,0.219,1.562,0.375,2.343c0.125,0.687,0.344,1.375,0.656,1.999c0.094,0.187,0.219,0.375,0.375,0.531&#xA;				c0.094,0.062,0.031,0.031,0.094,0.031s0.031,0,0.062,0l0.062-0.031h0.031l0,0l0.094-0.031l0,0&#xA;				c0.031-0.031,0.094-0.062,0.125-0.094c0.25-0.187,0.469-0.406,0.687-0.656c0.5-0.594,0.968-1.187,1.375-1.843&#xA;				c0.437-0.656,0.843-1.375,1.25-2.093c0.812-1.437,1.562-2.905,2.281-4.405c0.344-0.75,0.719-1.5,1.062-2.281&#xA;				c0.344-0.75,0.687-1.531,1-2.281c0.312-0.781,1.218-1.156,1.999-0.843c0.5,0.187,0.843,0.625,0.937,1.156l0,0&#xA;				c0,0.187,0.031,0.437,0.062,0.687l0.094,0.719c0.062,0.469,0.125,0.937,0.219,1.406c0.156,0.937,0.344,1.874,0.594,2.78&#xA;				c0.25,0.906,0.562,1.812,0.937,2.687s0.843,1.687,1.437,2.437l0,0c0.125,0.187,0.094,0.437-0.062,0.562&#xA;				c-0.156,0.125-0.375,0.125-0.5,0c-0.781-0.687-1.468-1.468-2.062-2.312c-0.594-0.843-1.093-1.749-1.562-2.655&#xA;				c-0.312-0.625-0.562-1.25-0.843-1.874c-0.187,0.375-0.344,0.75-0.531,1.093c-0.75,1.531-1.5,3.062-2.374,4.592&#xA;				c-0.437,0.812-0.875,1.562-1.375,2.312c-0.5,0.781-1.062,1.531-1.656,2.218c-0.344,0.406-0.75,0.75-1.156,1.093&#xA;				c-0.125,0.094-0.25,0.187-0.406,0.25L18.12,27.71l-0.156,0.062h-0.031l-0.094,0.031h-0.062l-0.125,0.031&#xA;				c-0.094,0.031-0.156,0.062-0.25,0.062c-0.187,0.031-0.375,0.062-0.562,0.094c-0.406,0.031-0.843-0.031-1.218-0.156&#xA;				c-0.375-0.125-0.719-0.344-1.031-0.594c-0.469-0.406-0.875-0.906-1.156-1.468c-0.437-0.875-0.75-1.812-0.937-2.78&#xA;				c-0.187-0.875-0.312-1.781-0.406-2.655c-0.187-1.749-0.25-3.468-0.281-5.217c0-0.812,0-1.656,0-2.468&#xA;				c-0.312,0.594-0.625,1.187-0.937,1.749c-0.25,0.469-0.5,0.937-0.781,1.406L9.31,17.214c-1.062,1.874-2.156,3.718-3.311,5.561&#xA;				c-0.719,1.187-1.468,2.374-2.218,3.53c5.155,7.873,15.714,10.059,23.587,4.905s10.059-15.714,4.905-23.587&#xA;				C29.116,2.905,23.774,0,18.026,0z"/>
			
				<linearGradient id="SVGID_2_" gradientUnits="userSpaceOnUse" x1="-0.1616" y1="7.3574" x2="137.2968" y2="40.4724" gradientTransform="matrix(1 0 0 -1 0 35.2912)">
				<stop offset="0" style="stop-color:#21E418"/>
				<stop offset="0.3" style="stop-color:#31B6E9"/>
				<stop offset="0.9757" style="stop-color:#21E418"/>
			</linearGradient>
			<path class="st1" d="M49.798,23.18V11.871h-0.281l-3.624,11.34h-0.906l-3.624-11.34h-0.281V23.18h-1.5V10.684h2.655l3.218,9.934&#xA;				l3.155-9.934h2.687v12.527h-1.5V23.18z"/>
			
				<linearGradient id="SVGID_3_" gradientUnits="userSpaceOnUse" x1="0.3207" y1="5.3556" x2="137.7791" y2="38.4705" gradientTransform="matrix(1 0 0 -1 0 35.2912)">
				<stop offset="0" style="stop-color:#21E418"/>
				<stop offset="0.3" style="stop-color:#31B6E9"/>
				<stop offset="0.9757" style="stop-color:#21E418"/>
			</linearGradient>
			<path class="st2" d="M53.484,12.309v-1.625h1.625v1.625H53.484z M53.515,23.18v-9.653h1.593v9.653H53.515z"/>
			
				<linearGradient id="SVGID_4_" gradientUnits="userSpaceOnUse" x1="1.0037" y1="2.5205" x2="138.4621" y2="35.6354" gradientTransform="matrix(1 0 0 -1 0 35.2912)">
				<stop offset="0" style="stop-color:#21E418"/>
				<stop offset="0.3" style="stop-color:#31B6E9"/>
				<stop offset="0.9757" style="stop-color:#21E418"/>
			</linearGradient>
			<path class="st3" d="M64.762,20.025c0,1.874-0.719,3.311-3.843,3.311c-3.936,0-4.155-2.249-4.155-4.998s0.219-4.998,4.155-4.998&#xA;				c3.124,0,3.843,1.437,3.843,3.311h-1.5c0-1.531-0.531-2.281-2.343-2.281c-2.437,0-2.562,1.312-2.562,3.936&#xA;				s0.125,3.936,2.562,3.936c1.812,0,2.343-0.75,2.343-2.281L64.762,20.025z"/>
			
				<linearGradient id="SVGID_5_" gradientUnits="userSpaceOnUse" x1="1.3548" y1="1.0631" x2="138.8132" y2="34.1781" gradientTransform="matrix(1 0 0 -1 0 35.2912)">
				<stop offset="0" style="stop-color:#21E418"/>
				<stop offset="0.3" style="stop-color:#31B6E9"/>
				<stop offset="0.9757" style="stop-color:#21E418"/>
			</linearGradient>
			<path class="st4" d="M67.855,14.558c0.75-0.469,1.718-1.093,2.624-1.125c0.187-0.031,0.375-0.031,0.562-0.031&#xA;				c0.25,0,0.469,0,0.75,0.031l-0.125,1.156c-0.25-0.031-0.469-0.031-0.687-0.031c-0.187,0-0.375,0-0.594,0.031&#xA;				c-0.843,0.031-1.749,0.656-2.406,1.031v7.591h-1.593v-9.685h1.25L67.855,14.558z"/>
			
				<linearGradient id="SVGID_6_" gradientUnits="userSpaceOnUse" x1="1.8663" y1="-1.0602" x2="139.3247" y2="32.0548" gradientTransform="matrix(1 0 0 -1 0 35.2912)">
				<stop offset="0" style="stop-color:#21E418"/>
				<stop offset="0.3" style="stop-color:#31B6E9"/>
				<stop offset="0.9757" style="stop-color:#21E418"/>
			</linearGradient>
			<path class="st5" d="M80.726,18.369c0,2.749-0.219,4.998-4.217,4.998c-3.999,0-4.217-2.249-4.217-4.998s0.219-4.998,4.217-4.998&#xA;				C80.507,13.371,80.726,15.62,80.726,18.369z M73.884,18.369c0,2.624,0.125,3.936,2.624,3.936s2.624-1.281,2.624-3.936&#xA;				s-0.125-3.936-2.624-3.936S73.884,15.714,73.884,18.369L73.884,18.369z"/>
			
				<linearGradient id="SVGID_7_" gradientUnits="userSpaceOnUse" x1="2.7687" y1="-4.806" x2="140.2271" y2="28.309" gradientTransform="matrix(1 0 0 -1 0 35.2912)">
				<stop offset="0" style="stop-color:#21E418"/>
				<stop offset="0.3" style="stop-color:#31B6E9"/>
				<stop offset="0.9757" style="stop-color:#21E418"/>
			</linearGradient>
			<path class="st6" d="M83.631,25.43c0.594,0.062,1.375,0.094,2.249,0.094c2.437,0,2.749-0.656,2.78-3.218&#xA;				c-0.719,0.406-1.718,0.875-2.749,0.906c-3.53,0.062-3.749-1.843-3.749-4.842s0.187-4.998,3.593-4.998&#xA;				c1.156,0,2.218,0.531,3.062,1.062l0.156-0.875h1.25v8.56c0,3.468-0.781,4.53-3.968,4.53c-0.937,0-1.874-0.094-2.78-0.219&#xA;				L83.631,25.43z M88.661,15.308c-0.687-0.437-1.562-0.875-2.406-0.875c-2.343,0-2.499,1.312-2.499,3.936&#xA;				c0,2.562,0.156,3.78,2.499,3.78c0.843,0,1.749-0.469,2.406-0.812V15.308z"/>
			
				<linearGradient id="SVGID_8_" gradientUnits="userSpaceOnUse" x1="2.9959" y1="-5.7493" x2="140.4543" y2="27.3657" gradientTransform="matrix(1 0 0 -1 0 35.2912)">
				<stop offset="0" style="stop-color:#21E418"/>
				<stop offset="0.3" style="stop-color:#31B6E9"/>
				<stop offset="0.9757" style="stop-color:#21E418"/>
			</linearGradient>
			<path class="st7" d="M98.877,23.18l-0.156-0.875c-0.781,0.5-1.812,1.062-2.937,1.062c-3.53,0.062-3.749-1.937-3.749-4.998&#xA;				s0.187-4.998,3.686-4.998c1.156,0,2.187,0.531,2.968,1l0.156-0.843h1.25v9.653H98.877z M98.564,15.245&#xA;				c-0.656-0.375-1.562-0.812-2.406-0.812c-2.343,0-2.499,1.312-2.499,3.936s0.156,3.936,2.499,3.936&#xA;				c0.843,0,1.718-0.469,2.406-0.875V15.245z"/>
			
				<linearGradient id="SVGID_9_" gradientUnits="userSpaceOnUse" x1="3.6313" y1="-8.3864" x2="141.0896" y2="24.7286" gradientTransform="matrix(1 0 0 -1 0 35.2912)">
				<stop offset="0" style="stop-color:#21E418"/>
				<stop offset="0.3" style="stop-color:#31B6E9"/>
				<stop offset="0.9757" style="stop-color:#21E418"/>
			</linearGradient>
			<path class="st8" d="M103.469,14.371c0.719-0.437,1.687-0.968,2.718-1c1.625-0.062,2.468,0.375,2.874,1.062&#xA;				c0.75-0.469,1.749-1.031,2.843-1.062c3.312-0.094,3.53,1.593,3.53,3.936v5.873h-1.593v-5.779c0-1.999-0.125-2.968-2.281-2.968&#xA;				c-0.781,0-1.593,0.469-2.249,0.875c0.156,0.687,0.219,1.406,0.187,2.124v5.78h-1.375v-5.811c0-1.999-0.125-2.968-2.281-2.968&#xA;				c-0.75,0-1.562,0.469-2.187,0.812v7.935h-1.593v-9.653h1.25L103.469,14.371z"/>
			
				<linearGradient id="SVGID_10_" gradientUnits="userSpaceOnUse" x1="3.8268" y1="-9.1982" x2="141.2852" y2="23.9167" gradientTransform="matrix(1 0 0 -1 0 35.2912)">
				<stop offset="0" style="stop-color:#21E418"/>
				<stop offset="0.3" style="stop-color:#31B6E9"/>
				<stop offset="0.9757" style="stop-color:#21E418"/>
			</linearGradient>
			<path class="st9" d="M117.402,12.309v-1.625h1.625v1.625H117.402z M117.434,23.18v-9.653h1.593v9.653H117.434z"/>
			
				<linearGradient id="SVGID_11_" gradientUnits="userSpaceOnUse" x1="4.5249" y1="-12.096" x2="141.9833" y2="21.019" gradientTransform="matrix(1 0 0 -1 0 35.2912)">
				<stop offset="0" style="stop-color:#21E418"/>
				<stop offset="0.3" style="stop-color:#31B6E9"/>
				<stop offset="0.9757" style="stop-color:#21E418"/>
			</linearGradient>
			<path class="st10" d="M122.401,14.371c0.781-0.437,1.812-0.968,2.937-1c3.53-0.094,3.749,1.593,3.749,3.936v5.873h-1.593v-5.779&#xA;				c0-1.999-0.156-2.968-2.499-2.968c-0.843,0-1.749,0.469-2.406,0.843v7.935h-1.593v-9.685h1.25L122.401,14.371z"/>
			
				<linearGradient id="SVGID_12_" gradientUnits="userSpaceOnUse" x1="5.4317" y1="-15.8601" x2="142.8901" y2="17.2549" gradientTransform="matrix(1 0 0 -1 0 35.2912)">
				<stop offset="0" style="stop-color:#21E418"/>
				<stop offset="0.3" style="stop-color:#31B6E9"/>
				<stop offset="0.9757" style="stop-color:#21E418"/>
			</linearGradient>
			<path class="st11" d="M132.179,25.43c0.594,0.062,1.375,0.094,2.249,0.094c2.437,0,2.749-0.656,2.78-3.218&#xA;				c-0.719,0.406-1.718,0.875-2.749,0.906c-3.53,0.062-3.749-1.843-3.749-4.842s0.187-4.998,3.593-4.998&#xA;				c1.156,0,2.218,0.531,3.062,1.062l0.156-0.875h1.25v8.56c0,3.468-0.781,4.53-3.968,4.53c-0.937,0-1.874-0.094-2.78-0.219&#xA;				L132.179,25.43z M137.178,15.308c-0.687-0.437-1.562-0.875-2.406-0.875c-2.343,0-2.499,1.312-2.499,3.936&#xA;				c0,2.562,0.156,3.78,2.499,3.78c0.844,0,1.749-0.469,2.406-0.812V15.308z"/>
		</g>
	</g>
</g>
</svg>