<?xml version="1.0" encoding="utf-8"?>
<svg xmlns="http://www.w3.org/2000/svg" xmlns:xlink="http://www.w3.org/1999/xlink" version="1.1" id="Layer_1" x="0px" y="0px" viewBox="0 0 155.263 34" style="enable-background:new 0 0 155.263 34;">
<style type="text/css">
	.st0{fill:#FFFFFF;}
	.st1{fill:#00589B;}
</style>
<g>
	<path class="st0" d="M137.045,33.954c-0.273-0.117-0.347-0.329-0.346-0.616c0.009-1.708,0.004-3.417,0.005-5.125&#xA;		c0-0.438,0.128-0.565,0.56-0.568c0.484-0.004,0.968-0.012,1.452-0.016c0.604-0.005,1.022-0.283,1.225-0.853&#xA;		c0.207-0.579,0.402-1.162,0.59-1.747c0.025-0.078-0.005-0.185-0.036-0.268c-1.506-4.063-3.014-8.125-4.523-12.187&#xA;		c-0.645-1.736-1.289-3.472-1.933-5.208c-0.169-0.456-0.006-0.695,0.477-0.695c2.04,0,4.081,0,6.121,0&#xA;		c0.371,0,0.469,0.07,0.587,0.429c0.93,2.837,1.86,5.675,2.79,8.512c0.029,0.09,0.064,0.178,0.114,0.317&#xA;		c0.084-0.257,0.157-0.469,0.224-0.682c0.852-2.716,1.704-5.433,2.556-8.149c0.113-0.36,0.206-0.428,0.585-0.428&#xA;		c2.026,0,4.051,0.011,6.077-0.008c0.524-0.005,0.667,0.322,0.513,0.736c-2.007,5.36-4.004,10.724-6.005,16.087&#xA;		c-0.77,2.064-1.532,4.131-2.317,6.19c-0.431,1.13-1.051,2.143-1.998,2.928c-0.898,0.745-1.949,1.117-3.092,1.261&#xA;		c-0.297,0.037-0.596,0.061-0.894,0.091C138.866,33.954,137.956,33.954,137.045,33.954z"/>
	<path class="st1" d="M19.161,14.02c-0.171,0.305-0.343,0.609-0.513,0.914c-1.467,2.629-2.935,5.258-4.4,7.889&#xA;		c-0.099,0.177-0.212,0.315-0.436,0.312c-0.215-0.003-0.321-0.141-0.415-0.309c-1.593-2.861-3.189-5.721-4.784-8.58&#xA;		c-0.042-0.075-0.087-0.149-0.189-0.217c0,0.089,0,0.177,0,0.266c0,6.321,0,12.643,0,18.964c0,0.073,0.001,0.147,0,0.22&#xA;		c-0.006,0.275-0.141,0.44-0.411,0.44c-2.165,0.005-4.331,0.005-6.496-0.001c-0.266-0.001-0.387-0.154-0.393-0.428&#xA;		c-0.001-0.051,0-0.103,0-0.154c0-10.824,0-21.648,0-32.472c0-0.044,0-0.088,0-0.132c0.004-0.303,0.133-0.44,0.442-0.451&#xA;		c0.242-0.008,0.484-0.003,0.727-0.003c1.85,0,3.7,0.005,5.55-0.005C8.143,0.273,8.322,0.38,8.469,0.645&#xA;		c1.734,3.126,3.477,6.248,5.219,9.37c0.035,0.063,0.076,0.122,0.134,0.215c0.055-0.091,0.095-0.155,0.132-0.221&#xA;		c1.754-3.14,3.51-6.28,5.259-9.423c0.123-0.222,0.283-0.31,0.529-0.31c2.092,0.004,4.184,0.001,6.276,0.003&#xA;		c0.387,0,0.508,0.128,0.508,0.519c0,8.661,0,17.321,0,25.982c0,0.394-0.128,0.52-0.53,0.52c-2.077,0-4.155,0-6.232,0&#xA;		c-0.412,0-0.538-0.126-0.538-0.536c0-4.151,0-8.301,0-12.452c0-0.092,0-0.185,0-0.277C19.204,14.03,19.182,14.025,19.161,14.02z"/>
	<path class="st0" d="M57.7,27.562c-2.14-0.007-4.225-0.295-6.242-1.036c-1.387-0.51-2.524-1.383-3.6-2.358&#xA;		c-0.06-0.054-0.121-0.107-0.18-0.162c-0.236-0.217-0.244-0.456-0.024-0.689c0.02-0.021,0.041-0.042,0.062-0.062&#xA;		c1.333-1.323,2.665-2.646,3.998-3.969c0.22-0.219,0.451-0.252,0.66-0.059c1.033,0.949,2.306,1.341,3.645,1.564&#xA;		c1.09,0.182,2.189,0.227,3.287,0.05c0.585-0.094,1.147-0.26,1.581-0.7c0.802-0.813,0.498-2.337-0.574-2.715&#xA;		c-0.498-0.176-1.04-0.237-1.567-0.322c-1.425-0.23-2.872-0.327-4.271-0.707c-1.194-0.325-2.307-0.815-3.268-1.61&#xA;		c-1.181-0.977-1.904-2.235-2.217-3.724c-0.4-1.906-0.337-3.793,0.385-5.619c0.861-2.177,2.471-3.61,4.609-4.485&#xA;		c1.484-0.608,3.04-0.857,4.636-0.904c1.901-0.056,3.757,0.182,5.56,0.809c1.456,0.506,2.683,1.367,3.799,2.405&#xA;		c0.203,0.189,0.21,0.447,0.016,0.64c-1.346,1.341-2.693,2.681-4.042,4.018c-0.193,0.191-0.42,0.216-0.609,0.032&#xA;		c-1.265-1.227-2.839-1.463-4.502-1.422c-0.666,0.017-1.317,0.113-1.923,0.402c-0.529,0.252-0.911,0.634-1.014,1.24&#xA;		c-0.115,0.677,0.139,1.205,0.748,1.542c0.499,0.276,1.052,0.346,1.603,0.431c1.485,0.228,2.973,0.437,4.449,0.712&#xA;		c0.903,0.168,1.749,0.536,2.543,1.009c1.332,0.794,2.273,1.919,2.762,3.385c0.648,1.943,0.741,3.927,0.203,5.91&#xA;		c-0.616,2.271-2.075,3.868-4.133,4.945c-1.368,0.716-2.837,1.103-4.364,1.28C59.046,27.471,58.372,27.507,57.7,27.562z"/>
	<path class="st0" d="M91.926,27.43c-5.833,0-10.564-4.71-10.558-10.511c0.007-5.865,4.873-10.552,10.704-10.475&#xA;		c5.711,0.076,10.451,4.746,10.419,10.589C102.461,22.738,97.716,27.43,91.926,27.43z M87.787,16.944&#xA;		c0.008,2.291,1.868,4.119,4.186,4.114c2.235-0.005,4.099-1.874,4.106-4.116c0.007-2.272-1.877-4.126-4.186-4.119&#xA;		C89.629,12.829,87.779,14.686,87.787,16.944z"/>
	<path class="st0" d="M122.169,12.925c-0.443,0-0.86,0-1.276,0c-0.406,0-0.538-0.134-0.538-0.541c0-1.467,0-2.933,0-4.4&#xA;		c0-0.407,0.144-0.55,0.56-0.551c0.409-0.001,0.818,0,1.255,0c0-0.108,0-0.193,0-0.279c0-1.613,0-3.226,0-4.84&#xA;		c0-0.4,0.139-0.541,0.543-0.541c1.945-0.001,3.89-0.001,5.836,0c0.416,0,0.558,0.142,0.558,0.554c0.001,1.606,0,3.212,0,4.818&#xA;		c0,0.086,0,0.173,0,0.287c0.099,0,0.177,0,0.255,0c0.763,0,1.527,0,2.29,0c0.46,0,0.597,0.134,0.597,0.584c0,1.452,0,2.904,0,4.356&#xA;		c0,0.42-0.133,0.552-0.551,0.552c-0.85,0-1.701,0-2.576,0c-0.005,0.09-0.014,0.167-0.014,0.244c-0.001,2.471-0.001,4.942,0,7.414&#xA;		c0,0.594,0.197,0.793,0.79,0.797c0.609,0.004,1.218,0,1.828,0.001c0.371,0.001,0.523,0.15,0.523,0.52&#xA;		c0.001,1.635,0.001,3.27,0,4.906c0,0.361-0.148,0.507-0.51,0.507c-1.116-0.001-2.232,0.027-3.347-0.013&#xA;		c-1.736-0.061-3.299-0.597-4.546-1.86c-0.999-1.012-1.506-2.255-1.637-3.656c-0.039-0.415-0.037-0.834-0.038-1.252&#xA;		c-0.003-2.435-0.002-4.869-0.002-7.304C122.169,13.135,122.169,13.042,122.169,12.925z"/>
	<path class="st0" d="M107.254,12.925c-0.469,0-0.895,0.001-1.32,0c-0.343-0.002-0.501-0.155-0.502-0.494&#xA;		c-0.002-1.496-0.002-2.992,0-4.487c0-0.345,0.165-0.507,0.518-0.51c0.425-0.004,0.849-0.001,1.303-0.001c0-0.113,0-0.207,0-0.3&#xA;		c0-1.598,0-3.197,0-4.795c0-0.434,0.129-0.564,0.562-0.564c1.93-0.001,3.861-0.001,5.791,0c0.446,0,0.576,0.131,0.576,0.575&#xA;		c0,1.598,0,3.197,0,4.795c0,0.087,0,0.173,0,0.289c0.095,0,0.173,0,0.251,0c0.778,0,1.556-0.001,2.334,0&#xA;		c0.416,0.001,0.561,0.142,0.561,0.55c0.001,1.474,0.001,2.948,0,4.421c0,0.379-0.141,0.52-0.515,0.52c-0.785,0.001-1.571,0-2.356,0&#xA;		c-0.08,0-0.16,0-0.264,0c-0.004,0.09-0.011,0.168-0.011,0.245c-0.001,2.456,0,4.913,0,7.369c0,0.059,0,0.117,0.003,0.176&#xA;		c0.026,0.437,0.222,0.648,0.661,0.658c0.631,0.015,1.262,0.007,1.893,0.008c0.463,0.001,0.589,0.125,0.589,0.585&#xA;		c0,1.598,0,3.197,0,4.795c0,0.418-0.135,0.553-0.551,0.553c-1.101-0.001-2.203,0.025-3.302-0.013&#xA;		c-1.63-0.056-3.115-0.537-4.342-1.661c-1.055-0.968-1.626-2.187-1.812-3.592c-0.052-0.391-0.064-0.789-0.065-1.184&#xA;		c-0.005-2.544-0.003-5.089-0.003-7.633C107.254,13.138,107.254,13.044,107.254,12.925z"/>
	<path class="st1" d="M36.393,8.049c0.111-0.071,0.177-0.111,0.242-0.154c1.474-0.987,3.107-1.323,4.857-1.183&#xA;		c0.999,0.08,1.964,0.291,2.806,0.854c0.467,0.312,0.891,0.69,1.32,1.056c0.222,0.19,0.201,0.424-0.021,0.65&#xA;		c-0.494,0.502-0.988,1.003-1.484,1.503c-0.992,1-1.984,1.999-2.977,2.998c-0.276,0.278-0.462,0.278-0.753,0.016&#xA;		c-0.399-0.359-0.804-0.7-1.36-0.806c-1.261-0.238-2.352,0.577-2.453,1.855c-0.023,0.292-0.036,0.585-0.036,0.878&#xA;		c-0.002,3.673-0.002,7.347-0.002,11.02c0,0.458-0.108,0.564-0.573,0.564c-1.923,0-3.846,0-5.769,0c-0.431,0-0.559-0.13-0.559-0.567&#xA;		c0-6.423,0-12.846,0-19.268c0-0.435,0.129-0.564,0.561-0.564c1.886,0,3.772,0,5.659,0c0.409,0,0.541,0.131,0.542,0.537&#xA;		C36.393,7.625,36.393,7.812,36.393,8.049z"/>
	<path class="st0" d="M78.418,13.691c0,4.356,0,8.711,0,13.067c0,0.42-0.132,0.555-0.548,0.555c-1.945,0.001-3.89,0-5.835,0&#xA;		c-0.407,0-0.545-0.135-0.545-0.536c0-8.726,0-17.452,0-26.178c0-0.411,0.13-0.542,0.536-0.542c1.952-0.001,3.905-0.001,5.857,0&#xA;		c0.404,0,0.535,0.135,0.535,0.545C78.418,4.965,78.418,9.328,78.418,13.691z"/>
</g>
</svg>