<?xml version="1.0" encoding="utf-8"?>
<svg xmlns="http://www.w3.org/2000/svg" xmlns:xlink="http://www.w3.org/1999/xlink" version="1.1" id="Layer_1" x="0px" y="0px" viewBox="0 0 98.305 34" style="enable-background:new 0 0 98.305 34;">
<style type="text/css">
	.st0{fill:#78BE20;}
	.st1{fill:#FFFFFF;}
</style>
<g>
	<polygon class="st0" points="51.384,0 50.406,0 50.406,34 51.384,34 51.384,27.459 63.776,27.459 63.776,23.497 54.241,23.497 &#xA;		54.241,18.936 62.394,18.936 62.394,14.944 54.241,14.944 54.241,10.533 63.776,10.533 63.776,6.541 51.384,6.541"/>
	<polygon class="st1" points="12.819,19.368 9.3,13.671 4.787,6.614 4.74,6.541 1,6.541 1,27.459 5.149,27.459 5.149,14.601 &#xA;		8.246,19.611 13.228,27.459 16.996,27.459 16.996,6.541 12.819,6.541"/>
	<polygon class="st1" points="19.33,27.459 33.042,27.459 33.042,23.497 23.508,23.497 23.508,18.936 31.66,18.936 31.66,14.944 &#xA;		23.508,14.944 23.508,10.534 33.042,10.534 33.042,6.541 19.33,6.541"/>
	<polygon class="st1" points="34.726,10.563 39.518,10.563 39.518,27.459 43.696,27.459 43.696,10.563 48.46,10.563 48.46,6.541 &#xA;		34.726,6.541"/>
	<polygon class="st0" points="77.683,19.403 74.164,13.706 69.651,6.649 69.604,6.576 65.863,6.576 65.863,27.494 70.014,27.494 &#xA;		70.014,14.637 73.109,19.645 78.092,27.494 81.861,27.494 81.861,6.576 77.683,6.576"/>
	<polygon class="st0" points="83.572,6.576 83.572,10.598 88.364,10.598 88.364,27.494 92.542,27.494 92.542,10.598 97.305,10.598 &#xA;		97.305,6.576"/>
</g>
</svg>