<?xml version="1.0" encoding="utf-8"?>
<svg xmlns="http://www.w3.org/2000/svg" xmlns:xlink="http://www.w3.org/1999/xlink" version="1.1" id="Layer_1" x="0px" y="0px" viewBox="0 0 123.8 34" style="enable-background:new 0 0 123.8 34;">
<style type="text/css">
	.st0{fill:#FFFFFF;}
</style>
<g>
	<g>
		<path class="st0" d="M57.2,20c-0.5,0.9-1.2,1.7-2.1,2.2c-0.9,0.5-1.9,0.8-3,0.8s-2.1-0.3-3-0.8c-0.9-0.5-1.6-1.3-2.1-2.2&#xA;			c-0.5-0.9-0.7-2-0.7-3.1s0.2-2.1,0.7-3.1s1.2-1.7,2.1-2.2c0.9-0.5,1.9-0.8,3-0.8s2.1,0.3,3,0.8c0.9,0.5,1.6,1.3,2.1,2.2&#xA;			c0.5,0.9,0.7,2,0.7,3.1S57.7,19.1,57.2,20z M55.2,14.9c-0.3-0.6-0.7-1.1-1.3-1.5c-0.5-0.4-1.2-0.5-1.8-0.5c-0.7,0-1.3,0.2-1.8,0.5&#xA;			s-1,0.8-1.3,1.5c-0.3,0.6-0.5,1.3-0.5,2.1c0,0.8,0.2,1.5,0.5,2.1c0.3,0.6,0.7,1.1,1.3,1.5c0.5,0.4,1.2,0.5,1.8,0.5&#xA;			c0.7,0,1.3-0.2,1.8-0.5c0.5-0.4,1-0.9,1.3-1.5s0.5-1.3,0.5-2.1C55.7,16.2,55.5,15.5,55.2,14.9z"/>
		<path class="st0" d="M66.7,14.7c0.4,0.7,0.7,1.6,0.7,2.8v4.5c0,0.3-0.1,0.5-0.3,0.7s-0.4,0.3-0.7,0.3s-0.5-0.1-0.7-0.3&#xA;			c-0.2-0.2-0.3-0.4-0.3-0.7v-4.5c0-0.6-0.1-1.1-0.4-1.5c-0.3-0.4-0.7-0.5-1.3-0.5c-0.7,0-1.2,0.2-1.5,0.6c-0.4,0.4-0.6,0.9-0.6,1.4&#xA;			v4.5c0,0.3-0.1,0.5-0.3,0.7c-0.2,0.2-0.4,0.3-0.7,0.3s-0.5-0.1-0.7-0.3c-0.2-0.2-0.3-0.4-0.3-0.7v-7.4c0-0.3,0.1-0.5,0.3-0.7&#xA;			s0.4-0.3,0.7-0.3s0.5,0.1,0.7,0.3c0.2,0.2,0.3,0.4,0.3,0.7v0.5c0.3-0.4,0.7-0.8,1.2-1.1s1-0.4,1.6-0.4&#xA;			C65.4,13.6,66.2,14,66.7,14.7z"/>
		<path class="st0" d="M77.2,18.8c-0.2,0.2-0.4,0.3-0.7,0.3h-5.6c0.1,0.7,0.4,1.2,0.9,1.6s1,0.6,1.7,0.6c0.5,0,0.8,0,1.1-0.1&#xA;			c0.3-0.1,0.5-0.2,0.6-0.3c0.2-0.1,0.3-0.2,0.3-0.2c0.2-0.1,0.4-0.2,0.6-0.2c0.2,0,0.4,0.1,0.6,0.3c0.2,0.2,0.3,0.4,0.3,0.6&#xA;			c0,0.3-0.2,0.6-0.5,0.8c-0.3,0.3-0.7,0.5-1.3,0.7s-1.1,0.3-1.6,0.3c-1,0-1.8-0.2-2.5-0.6c-0.7-0.4-1.3-0.9-1.6-1.6&#xA;			s-0.6-1.5-0.6-2.4c0-1,0.2-1.8,0.6-2.6c0.4-0.7,0.9-1.3,1.6-1.7s1.4-0.6,2.1-0.6c0.7,0,1.5,0.2,2.1,0.6c0.7,0.4,1.2,1,1.6,1.6&#xA;			c0.4,0.7,0.6,1.4,0.6,2.2C77.5,18.4,77.4,18.6,77.2,18.8z M70.9,17.4h4.5v-0.1c0-0.5-0.3-0.9-0.7-1.2c-0.4-0.3-0.9-0.5-1.4-0.5&#xA;			C71.9,15.5,71.1,16.1,70.9,17.4z"/>
		<path class="st0" d="M86.7,11c0.2,0.2,0.3,0.4,0.3,0.7s-0.1,0.5-0.3,0.7c-0.2,0.2-0.4,0.3-0.7,0.3h-2.7V22c0,0.3-0.1,0.5-0.3,0.7&#xA;			c-0.2,0.2-0.5,0.3-0.8,0.3s-0.6-0.1-0.8-0.3c-0.2-0.2-0.3-0.4-0.3-0.7v-9.3h-2.7c-0.3,0-0.6-0.1-0.7-0.3c-0.2-0.2-0.3-0.4-0.3-0.7&#xA;			c0-0.3,0.1-0.5,0.3-0.7c0.2-0.2,0.4-0.3,0.7-0.3H86C86.3,10.8,86.5,10.9,86.7,11z"/>
		<path class="st0" d="M94.5,20.8c-0.4,0.7-1,1.3-1.7,1.7c-0.7,0.4-1.5,0.6-2.3,0.6c-0.9,0-1.6-0.2-2.3-0.6c-0.7-0.4-1.3-1-1.7-1.7&#xA;			c-0.4-0.7-0.6-1.5-0.6-2.4s0.2-1.7,0.6-2.4c0.4-0.7,1-1.3,1.7-1.7c0.7-0.4,1.5-0.6,2.3-0.6c0.9,0,1.6,0.2,2.3,0.6&#xA;			c0.7,0.4,1.3,1,1.7,1.7c0.4,0.7,0.6,1.5,0.6,2.4C95.1,19.3,94.9,20.1,94.5,20.8z M92.7,16.9c-0.2-0.4-0.5-0.8-0.9-1&#xA;			c-0.4-0.2-0.8-0.4-1.3-0.4s-0.9,0.1-1.3,0.4c-0.4,0.2-0.7,0.6-0.9,1c-0.2,0.4-0.3,0.9-0.3,1.5s0.1,1,0.3,1.5s0.5,0.8,0.9,1&#xA;			c0.4,0.2,0.8,0.4,1.3,0.4s0.9-0.1,1.3-0.4c0.4-0.2,0.7-0.6,0.9-1c0.2-0.4,0.3-0.9,0.3-1.5C93,17.8,92.9,17.3,92.7,16.9z"/>
		<path class="st0" d="M104,13.9c0.2,0.2,0.3,0.4,0.3,0.7v4.5c0,1.2-0.3,2.2-1,2.9s-1.6,1-2.9,1c-1.2,0-2.2-0.3-2.9-1s-1-1.6-1-2.9&#xA;			v-4.5c0-0.3,0.1-0.5,0.3-0.7s0.4-0.3,0.7-0.3s0.5,0.1,0.7,0.3c0.2,0.2,0.3,0.4,0.3,0.7v4.5c0,0.7,0.2,1.2,0.5,1.5s0.8,0.5,1.4,0.5&#xA;			c0.6,0,1.1-0.2,1.4-0.5c0.3-0.3,0.5-0.8,0.5-1.5v-4.5c0-0.3,0.1-0.5,0.3-0.7s0.4-0.3,0.7-0.3C103.6,13.6,103.9,13.7,104,13.9z"/>
		<path class="st0" d="M112.6,14.1c0.6,0.3,0.9,0.7,0.9,1.2c0,0.2-0.1,0.5-0.2,0.7s-0.3,0.3-0.6,0.3c-0.2,0-0.3,0-0.4-0.1&#xA;			s-0.2-0.1-0.3-0.2s-0.2-0.2-0.3-0.2c-0.1-0.1-0.3-0.1-0.5-0.2s-0.4-0.1-0.5-0.1c-0.9,0-1.5,0.3-2,0.8c-0.5,0.5-0.7,1.2-0.7,2.1&#xA;			c0,0.8,0.2,1.5,0.7,2c0.5,0.5,1.1,0.8,1.9,0.8c0.6,0,1-0.1,1.2-0.2c0.1,0,0.2-0.1,0.3-0.2c0.1-0.1,0.2-0.1,0.3-0.2&#xA;			c0.1,0,0.2-0.1,0.4-0.1c0.3,0,0.5,0.1,0.7,0.3c0.2,0.2,0.2,0.4,0.2,0.7c0,0.3-0.2,0.5-0.5,0.8c-0.3,0.2-0.7,0.4-1.3,0.6&#xA;			s-1.1,0.2-1.7,0.2c-0.9,0-1.6-0.2-2.3-0.6c-0.7-0.4-1.2-1-1.5-1.7c-0.4-0.7-0.5-1.5-0.5-2.4c0-0.9,0.2-1.7,0.6-2.4&#xA;			c0.4-0.7,0.9-1.3,1.6-1.7s1.5-0.6,2.3-0.6C111.3,13.6,112,13.8,112.6,14.1z"/>
		<path class="st0" d="M122.1,14.7c0.4,0.7,0.6,1.6,0.6,2.8V22c0,0.3-0.1,0.5-0.3,0.7s-0.4,0.3-0.7,0.3s-0.5-0.1-0.7-0.3&#xA;			c-0.2-0.2-0.3-0.4-0.3-0.7v-4.5c0-0.6-0.1-1.1-0.4-1.5c-0.2-0.4-0.7-0.5-1.3-0.5c-0.6,0-1.1,0.2-1.5,0.6c-0.4,0.4-0.5,0.9-0.5,1.4&#xA;			V22c0,0.3-0.1,0.5-0.3,0.7s-0.4,0.3-0.7,0.3s-0.5-0.1-0.7-0.3c-0.2-0.2-0.3-0.4-0.3-0.7V11.8c0-0.3,0.1-0.5,0.3-0.7&#xA;			s0.4-0.3,0.7-0.3s0.5,0.1,0.7,0.3c0.2,0.2,0.3,0.4,0.3,0.7v3.3c0.3-0.4,0.7-0.8,1.2-1c0.5-0.3,1-0.4,1.6-0.4&#xA;			C120.9,13.6,121.7,14,122.1,14.7z"/>
	</g>
	<g>
		<path class="st0" d="M21.9,21.7c-0.5,0.4-0.6,1.1-0.1,1.6c0.4,0.5,1.1,0.6,1.6,0.1c1.9-1.6,3.1-4,3.1-6.5c0-4.7-3.8-8.5-8.5-8.5&#xA;			s-8.5,3.8-8.5,8.5c0,2.6,1.2,5,3.2,6.6c0.5,0.4,1.2,0.3,1.6-0.2c0.4-0.5,0.3-1.2-0.2-1.6c-4.5-3.6-2-11,3.9-11&#xA;			C23.7,10.8,26.3,18,21.9,21.7z"/>
		<path class="st0" d="M25.4,27.4c3.2-2.3,5.3-6.1,5.3-10.4c0-0.6-0.5-1.2-1.2-1.2s-1.2,0.5-1.2,1.2c0,3.5-1.7,6.6-4.4,8.5&#xA;			c-0.5,0.4-0.6,1.1-0.3,1.6C24.2,27.6,24.9,27.7,25.4,27.4z"/>
		<path class="st0" d="M13.1,0.7c-0.6,0.2-1,0.8-0.8,1.4s0.8,1,1.4,0.8c9.3-2.8,18.7,4.2,18.7,13.9c0,0.6,0.5,1.2,1.2,1.2&#xA;			c0.6,0,1.2-0.5,1.2-1.2C34.8,5.6,23.9-2.5,13.1,0.7z"/>
		<path class="st0" d="M26,7.1C17.7,0.3,5.1,6.2,5.1,17c0,7.1,5.7,12.8,12.8,12.8c0.6,0,1.2-0.5,1.2-1.2c0-0.6-0.5-1.2-1.2-1.2&#xA;			c-5.8,0-10.5-4.7-10.5-10.5c0-8.8,10.3-13.6,17.1-8.1c0.5,0.4,1.2,0.3,1.6-0.2C26.6,8.2,26.5,7.5,26,7.1z"/>
		<path class="st0" d="M2.2,15.9c-0.6,0-1.2,0.5-1.2,1.2C1,26.4,8.6,34,17.9,34c4,0,7.8-1.4,10.9-3.9c0.5-0.4,0.6-1.1,0.1-1.6&#xA;			s-1.1-0.6-1.6-0.1c-2.6,2.2-5.9,3.4-9.4,3.4c-8.1,0-14.6-6.6-14.6-14.6C3.3,16.4,2.8,15.9,2.2,15.9z"/>
	</g>
	<g>
		<path class="st0" d="M48.7,26.8c0.2,0.2,0.3,0.5,0.3,0.8c0,0.2,0,0.4-0.1,0.6c-0.1,0.2-0.2,0.3-0.4,0.4s-0.4,0.1-0.6,0.1h-1.3v1.7&#xA;			c0,0,0,0.1,0,0.1s-0.1,0-0.1,0c0,0-0.1,0-0.1,0c0,0,0-0.1,0-0.1v-3.9c0,0,0-0.1,0-0.1c0,0,0.1,0,0.1,0h1.4&#xA;			C48.2,26.5,48.5,26.6,48.7,26.8z M48.5,28.3c0.2-0.2,0.2-0.4,0.2-0.7c0-0.3-0.1-0.5-0.2-0.7c-0.2-0.2-0.4-0.2-0.6-0.2h-1.3v1.8&#xA;			h1.3C48.2,28.6,48.4,28.5,48.5,28.3z"/>
		<path class="st0" d="M52.8,30.5C52.8,30.6,52.8,30.6,52.8,30.5c-0.1,0.1-0.1,0.1-0.1,0.1c0,0,0,0-0.1,0c-0.1-0.1-0.2-0.2-0.3-0.3&#xA;			c-0.1-0.1-0.1-0.4-0.1-0.7c0-0.3-0.1-0.5-0.3-0.7c-0.2-0.1-0.4-0.2-0.6-0.2h-1.4v1.7c0,0,0,0.1,0,0.1c0,0-0.1,0-0.1,0&#xA;			c0,0-0.1,0-0.1,0c0,0,0-0.1,0-0.1v-3.9c0,0,0-0.1,0-0.1c0,0,0.1,0,0.1,0h1.6c0.2,0,0.4,0,0.6,0.1c0.2,0.1,0.3,0.2,0.4,0.4&#xA;			c0.1,0.2,0.1,0.3,0.1,0.6c0,0.3-0.1,0.5-0.2,0.7s-0.3,0.3-0.5,0.4c0.2,0.1,0.3,0.2,0.5,0.4s0.2,0.4,0.2,0.6c0,0.3,0,0.5,0.1,0.6&#xA;			s0.1,0.2,0.2,0.2C52.8,30.5,52.8,30.5,52.8,30.5z M51.5,28.6c0.2,0,0.5-0.1,0.6-0.3c0.2-0.2,0.3-0.4,0.3-0.7&#xA;			c0-0.2-0.1-0.4-0.3-0.6c-0.2-0.2-0.4-0.2-0.7-0.2h-1.4v1.8C50.1,28.6,51.5,28.6,51.5,28.6z"/>
		<path class="st0" d="M56.1,30.5C56.2,30.5,56.2,30.5,56.1,30.5c0,0.1,0,0.1,0,0.2c0,0-0.1,0-0.1,0h-2.2c0,0-0.1,0-0.1,0&#xA;			c0,0,0-0.1,0-0.1v-3.9c0,0,0-0.1,0-0.1c0,0,0.1,0,0.1,0h2.2c0,0,0.1,0,0.1,0c0,0,0,0.1,0,0.1c0,0,0,0.1,0,0.1c0,0-0.1,0-0.1,0H54&#xA;			v1.7h1.8c0,0,0.1,0,0.1,0c0,0,0,0.1,0,0.1c0,0,0,0.1,0,0.1c0,0-0.1,0-0.1,0H54v1.8L56.1,30.5C56.1,30.4,56.1,30.4,56.1,30.5z"/>
		<path class="st0" d="M60.7,26.5C60.7,26.6,60.7,26.6,60.7,26.5l0,4c0,0,0,0.1,0,0.1s-0.1,0-0.1,0c0,0-0.1,0-0.1,0c0,0,0-0.1,0-0.1&#xA;			V27L59,29.3c0,0,0,0-0.1,0c0,0-0.1,0-0.1,0L57.2,27v3.6c0,0,0,0.1,0,0.1c0,0-0.1,0-0.1,0c0,0-0.1,0-0.1,0c0,0,0-0.1,0-0.1v-3.9&#xA;			c0,0,0-0.1,0-0.1s0,0,0.1,0c0.1,0,0.1,0,0.1,0.1l1.6,2.4l1.6-2.4C60.5,26.5,60.6,26.5,60.7,26.5C60.7,26.5,60.7,26.5,60.7,26.5z"/>
		<path class="st0" d="M62.1,30.6C62,30.6,62,30.7,62.1,30.6c-0.1,0-0.2,0-0.2,0c0,0,0-0.1,0-0.1v-3.9c0,0,0-0.1,0-0.1&#xA;			c0,0,0.1,0,0.1,0c0,0,0.1,0,0.1,0c0,0,0,0.1,0,0.1L62.1,30.6C62.1,30.6,62.1,30.6,62.1,30.6z"/>
		<path class="st0" d="M66.3,26.5C66.3,26.6,66.3,26.6,66.3,26.5l0,2.6c0,0.3-0.1,0.5-0.2,0.8s-0.3,0.4-0.6,0.6&#xA;			c-0.2,0.1-0.5,0.2-0.8,0.2c-0.3,0-0.5-0.1-0.8-0.2s-0.4-0.3-0.6-0.6c-0.1-0.2-0.2-0.5-0.2-0.8v-2.6c0,0,0-0.1,0-0.1&#xA;			c0,0,0.1,0,0.1,0c0,0,0.1,0,0.1,0c0,0,0,0.1,0,0.1v2.6c0,0.2,0.1,0.4,0.2,0.6c0.1,0.2,0.3,0.4,0.5,0.5c0.2,0.1,0.4,0.2,0.6,0.2&#xA;			s0.4-0.1,0.6-0.2s0.4-0.3,0.5-0.5c0.1-0.2,0.2-0.4,0.2-0.6v-2.6c0,0,0-0.1,0-0.1C66.1,26.5,66.1,26.5,66.3,26.5&#xA;			C66.2,26.5,66.2,26.5,66.3,26.5z"/>
		<path class="st0" d="M71.1,26.5C71.1,26.6,71.2,26.6,71.1,26.5l0,4c0,0,0,0.1,0,0.1s-0.1,0-0.1,0c0,0-0.1,0-0.1,0c0,0,0-0.1,0-0.1&#xA;			V27l-1.5,2.3c0,0,0,0-0.1,0c0,0-0.1,0-0.1,0L67.7,27v3.6c0,0,0,0.1,0,0.1c0,0-0.1,0-0.1,0c0,0-0.1,0-0.1,0c0,0,0-0.1,0-0.1v-3.9&#xA;			c0,0,0-0.1,0-0.1c0,0,0,0,0.1,0c0.1,0,0.1,0,0.1,0.1l1.6,2.4l1.6-2.4C71,26.5,71,26.5,71.1,26.5C71.1,26.5,71.1,26.5,71.1,26.5z"/>
		<path class="st0" d="M77.5,26.5C77.5,26.6,77.6,26.6,77.5,26.5l0,4c0,0,0,0.1,0,0.1c0,0-0.1,0-0.1,0c0,0-0.1,0-0.1,0&#xA;			c0,0,0-0.1,0-0.1V27l-1.5,2.3c0,0,0,0-0.1,0c0,0-0.1,0-0.1,0L74.1,27v3.6c0,0,0,0.1,0,0.1c0,0-0.1,0-0.1,0c0,0-0.1,0-0.1,0&#xA;			c0,0,0-0.1,0-0.1v-3.9c0,0,0-0.1,0-0.1s0,0,0.1,0c0.1,0,0.1,0,0.1,0.1l1.6,2.4l1.6-2.4C77.4,26.5,77.4,26.5,77.5,26.5&#xA;			C77.5,26.5,77.5,26.5,77.5,26.5z"/>
		<path class="st0" d="M82.1,29.7c-0.2,0.3-0.4,0.6-0.7,0.8c-0.3,0.2-0.6,0.3-1,0.3s-0.7-0.1-1-0.3s-0.5-0.4-0.7-0.8&#xA;			c-0.2-0.3-0.3-0.7-0.3-1.1s0.1-0.8,0.3-1.1c0.2-0.3,0.4-0.6,0.7-0.8c0.3-0.2,0.6-0.3,1-0.3s0.7,0.1,1,0.3c0.3,0.2,0.5,0.4,0.7,0.8&#xA;			c0.2,0.3,0.3,0.7,0.3,1.1C82.3,29,82.3,29.4,82.1,29.7z M81.9,27.6c-0.1-0.3-0.4-0.5-0.6-0.7c-0.3-0.2-0.6-0.2-0.9-0.2&#xA;			s-0.6,0.1-0.9,0.2s-0.5,0.4-0.6,0.7c-0.1,0.3-0.2,0.6-0.2,1c0,0.4,0.1,0.7,0.2,1c0.1,0.3,0.4,0.5,0.6,0.7c0.3,0.2,0.6,0.2,0.9,0.2&#xA;			s0.6-0.1,0.9-0.2s0.5-0.4,0.6-0.7c0.1-0.3,0.2-0.6,0.2-1C82.1,28.2,82,27.9,81.9,27.6z"/>
		<path class="st0" d="M85.9,28.8c0.2,0.2,0.2,0.4,0.2,0.7c0,0.4-0.1,0.6-0.3,0.8c-0.2,0.2-0.5,0.3-0.9,0.3h-1.6c0,0-0.1,0-0.1,0&#xA;			c0,0,0-0.1,0-0.1v-3.9c0,0,0-0.1,0-0.1c0,0,0.1,0,0.1,0h1.6c0.3,0,0.6,0.1,0.8,0.3s0.3,0.4,0.3,0.7c0,0.2-0.1,0.4-0.2,0.6&#xA;			c-0.1,0.2-0.3,0.3-0.5,0.4C85.6,28.5,85.8,28.6,85.9,28.8z M85.5,26.9c-0.1-0.1-0.3-0.2-0.6-0.2h-1.4v1.7h1.4&#xA;			c0.2,0,0.4-0.1,0.6-0.2c0.2-0.2,0.2-0.4,0.2-0.7C85.7,27.3,85.6,27.1,85.5,26.9z M85.6,30.2c0.2-0.1,0.3-0.4,0.3-0.7&#xA;			s-0.1-0.5-0.3-0.7c-0.2-0.1-0.4-0.2-0.7-0.2h-1.5v1.8h1.5C85.2,30.4,85.4,30.3,85.6,30.2z"/>
		<path class="st0" d="M87.2,30.6C87.2,30.6,87.1,30.7,87.2,30.6c-0.1,0-0.2,0-0.2,0c0,0,0-0.1,0-0.1v-3.9c0,0,0-0.1,0-0.1&#xA;			c0,0,0.1,0,0.1,0c0,0,0.1,0,0.1,0c0,0,0,0.1,0,0.1L87.2,30.6C87.2,30.6,87.2,30.6,87.2,30.6z"/>
		<path class="st0" d="M90.7,30.5C90.8,30.5,90.8,30.5,90.7,30.5c0,0.1,0,0.1,0,0.2c0,0-0.1,0-0.1,0h-2.2c0,0-0.1,0-0.1,0&#xA;			c0,0,0-0.1,0-0.1v-3.9c0,0,0-0.1,0-0.1c0,0,0.1,0,0.1,0c0,0,0.1,0,0.1,0c0,0,0,0.1,0,0.1v3.8L90.7,30.5&#xA;			C90.7,30.4,90.7,30.4,90.7,30.5z"/>
		<path class="st0" d="M93.8,30.5C93.8,30.5,93.9,30.5,93.8,30.5c0,0.1,0,0.1,0,0.2c0,0-0.1,0-0.1,0h-2.2c0,0-0.1,0-0.1,0&#xA;			c0,0,0-0.1,0-0.1v-3.9c0,0,0-0.1,0-0.1c0,0,0.1,0,0.1,0h2.2c0,0,0.1,0,0.1,0c0,0,0,0.1,0,0.1c0,0,0,0.1,0,0.1c0,0-0.1,0-0.1,0&#xA;			h-2.1v1.7h1.8c0,0,0.1,0,0.1,0c0,0,0,0.1,0,0.1c0,0,0,0.1,0,0.1c0,0-0.1,0-0.1,0h-1.8v1.8L93.8,30.5&#xA;			C93.8,30.4,93.8,30.4,93.8,30.5z"/>
		<path class="st0" d="M99.3,28.6C99.4,28.7,99.4,28.7,99.3,28.6l0,1.6c0,0,0,0.1-0.1,0.1c-0.2,0.1-0.4,0.2-0.6,0.3&#xA;			c-0.2,0.1-0.4,0.1-0.7,0.1c-0.4,0-0.8-0.1-1.1-0.3c-0.3-0.2-0.6-0.4-0.8-0.8c-0.2-0.3-0.3-0.7-0.3-1.1s0.1-0.8,0.3-1.1&#xA;			s0.4-0.6,0.8-0.8c0.3-0.2,0.7-0.3,1.1-0.3c0.2,0,0.4,0,0.6,0.1c0.2,0.1,0.4,0.1,0.5,0.2c0,0,0.1,0.1,0.1,0.1c0,0,0,0.1,0,0.1&#xA;			c0,0-0.1,0-0.1,0c0,0,0,0-0.1,0c-0.3-0.2-0.7-0.3-1-0.3c-0.4,0-0.7,0.1-1,0.2s-0.5,0.4-0.7,0.7c-0.2,0.3-0.2,0.6-0.2,1&#xA;			s0.1,0.7,0.2,1c0.2,0.3,0.4,0.5,0.7,0.7s0.6,0.2,1,0.2c0.2,0,0.4,0,0.6-0.1c0.2-0.1,0.4-0.1,0.5-0.2v-1.3h-1.1c0,0-0.1,0-0.1,0&#xA;			c0,0,0-0.1,0-0.1c0,0,0-0.1,0-0.1c0,0,0.1,0,0.1,0L99.3,28.6C99.3,28.6,99.3,28.6,99.3,28.6z"/>
		<path class="st0" d="M103.3,30.5C103.3,30.6,103.3,30.6,103.3,30.5c-0.1,0.1-0.1,0.1-0.1,0.1c0,0-0.1,0-0.1,0c0,0,0,0,0-0.1&#xA;			l-0.5-1.2l0,0h-2l-0.5,1.2c0,0.1-0.1,0.1-0.1,0.1c0,0-0.1,0-0.1,0c0,0,0,0,0-0.1c0,0,0,0,0-0.1l1.6-3.9c0,0,0-0.1,0-0.1&#xA;			c0,0,0,0,0.1,0c0.1,0,0.1,0,0.1,0.1L103.3,30.5C103.3,30.5,103.3,30.5,103.3,30.5z M100.7,29.1h1.8l-0.9-2.2L100.7,29.1z"/>
		<path class="st0" d="M107.8,26.5C107.8,26.6,107.8,26.6,107.8,26.5l0,4c0,0,0,0.1,0,0.1c0,0-0.1,0-0.1,0c0,0-0.1,0-0.1,0&#xA;			c0,0,0-0.1,0-0.1V27l-1.5,2.3c0,0,0,0-0.1,0c0,0-0.1,0-0.1,0l-1.5-2.3v3.6c0,0,0,0.1,0,0.1s-0.1,0-0.1,0c0,0-0.1,0-0.1,0&#xA;			c0,0,0-0.1,0-0.1v-3.9c0,0,0-0.1,0-0.1s0,0,0.1,0c0.1,0,0.1,0,0.1,0.1l1.6,2.4l1.6-2.4C107.6,26.5,107.7,26.5,107.8,26.5&#xA;			C107.7,26.5,107.8,26.5,107.8,26.5z"/>
		<path class="st0" d="M111.4,30.5C111.4,30.5,111.4,30.5,111.4,30.5c0,0.1,0,0.1,0,0.2c0,0-0.1,0-0.1,0h-2.2c0,0-0.1,0-0.1,0&#xA;			c0,0,0-0.1,0-0.1v-3.9c0,0,0-0.1,0-0.1c0,0,0.1,0,0.1,0h2.2c0,0,0.1,0,0.1,0c0,0,0,0.1,0,0.1c0,0,0,0.1,0,0.1c0,0-0.1,0-0.1,0&#xA;			h-2.1v1.7h1.8c0,0,0.1,0,0.1,0c0,0,0,0.1,0,0.1c0,0,0,0.1,0,0.1c0,0-0.1,0-0.1,0h-1.8v1.8L111.4,30.5&#xA;			C111.3,30.4,111.4,30.4,111.4,30.5z"/>
		<path class="st0" d="M112.5,30.6c-0.2-0.1-0.4-0.3-0.6-0.5c0,0,0-0.1,0-0.1c0,0,0-0.1,0-0.1c0,0,0.1,0,0.1,0c0,0,0.1,0,0.1,0.1&#xA;			c0.2,0.2,0.3,0.3,0.6,0.4s0.4,0.1,0.7,0.1c0.3,0,0.6-0.1,0.8-0.2c0.2-0.1,0.3-0.3,0.3-0.6c0-0.2-0.1-0.3-0.2-0.5&#xA;			c-0.1-0.1-0.2-0.2-0.4-0.3s-0.3-0.2-0.6-0.2c-0.3-0.1-0.5-0.2-0.6-0.3s-0.3-0.2-0.4-0.3c-0.1-0.1-0.2-0.3-0.2-0.6&#xA;			c0-0.2,0.1-0.4,0.2-0.5c0.1-0.2,0.3-0.3,0.5-0.4c0.2-0.1,0.4-0.1,0.7-0.1c0.2,0,0.5,0,0.7,0.1c0.2,0.1,0.4,0.2,0.5,0.4&#xA;			c0,0.1,0.1,0.1,0.1,0.1c0,0,0,0.1,0,0.1c0,0-0.1,0-0.1,0c0,0-0.1,0-0.1,0c-0.1-0.1-0.3-0.3-0.4-0.3c-0.2-0.1-0.4-0.1-0.6-0.1&#xA;			c-0.3,0-0.6,0.1-0.8,0.2c-0.2,0.1-0.3,0.3-0.3,0.6c0,0.2,0,0.3,0.1,0.4c0.1,0.1,0.2,0.2,0.4,0.3c0.1,0.1,0.3,0.1,0.5,0.2&#xA;			c0.3,0.1,0.5,0.2,0.7,0.3s0.3,0.2,0.4,0.4c0.1,0.2,0.2,0.4,0.2,0.6c0,0.2-0.1,0.4-0.2,0.5c-0.1,0.2-0.3,0.3-0.5,0.4&#xA;			c-0.2,0.1-0.4,0.1-0.7,0.1C113,30.7,112.8,30.7,112.5,30.6z"/>
	</g>
</g>
</svg>