<?xml version="1.0" encoding="utf-8"?>
<svg xmlns="http://www.w3.org/2000/svg" xmlns:xlink="http://www.w3.org/1999/xlink" version="1.1" id="Layer_1" x="0px" y="0px" viewBox="0 0 200.869 34" style="enable-background:new 0 0 200.869 34;">
<style type="text/css">
	.st0{fill:#FFFFFF;}
	.st1{fill:#4777BB;}
</style>
<g>
	<path class="st0" d="M188.072,23.546c-1.295-1.487-1.966-3.501-1.966-6.09c0-2.925,0.623-5.179,1.87-6.81&#xA;		c1.247-1.63,3.213-2.446,5.946-2.446c1.822,0,3.453,0.24,4.843,0.719v1.295c-1.487-0.48-3.021-0.719-4.7-0.719&#xA;		c-2.35,0-4.028,0.671-5.035,2.062c-1.007,1.343-1.487,3.357-1.487,5.946c0,4.7,2.158,7.049,6.522,7.049&#xA;		c0.815,0,1.63-0.048,2.446-0.192c0.815-0.144,1.487-0.336,2.062-0.575v-6.042h-4.843v-1.151h6.138v7.961&#xA;		c-0.575,0.384-1.343,0.671-2.302,0.911c-1.007,0.24-2.206,0.384-3.645,0.384C191.333,25.752,189.367,24.984,188.072,23.546"/>
	<path class="st0" d="M137.815,19.326l-3.645-9.687l-3.645,9.687H137.815z M133.26,8.488h1.87l6.426,16.976h-1.487l-1.87-4.939&#xA;		h-7.961l-1.918,4.939h-1.487L133.26,8.488z"/>
	<polygon class="st0" points="144.289,8.488 146.016,8.488 152.154,21.052 158.292,8.488 159.97,8.488 159.97,25.464 &#xA;		158.532,25.464 158.532,10.598 152.729,22.539 151.578,22.539 145.728,10.598 145.728,25.464 144.289,25.464"/>
	<path class="st0" d="M112.063,23.546c-1.295-1.487-1.966-3.501-1.966-6.09c0-2.925,0.623-5.179,1.87-6.81&#xA;		c1.247-1.63,3.213-2.446,5.946-2.446c1.822,0,3.453,0.24,4.843,0.719v1.295c-1.487-0.48-3.021-0.719-4.7-0.719&#xA;		c-2.35,0-4.028,0.671-5.035,2.062c-1.007,1.343-1.487,3.357-1.487,5.946c0,4.7,2.158,7.049,6.522,7.049&#xA;		c0.815,0,1.63-0.048,2.446-0.192c0.815-0.144,1.487-0.336,2.062-0.575v-6.042h-4.795v-1.151h6.138v7.961&#xA;		c-0.575,0.384-1.343,0.671-2.302,0.911c-1.007,0.24-2.206,0.384-3.645,0.384C115.324,25.752,113.406,24.984,112.063,23.546"/>
	<polygon class="st0" points="82.475,19.182 76.385,8.488 80.078,8.488 84.25,16.161 88.422,8.488 92.114,8.488 86.024,19.182 &#xA;		86.024,25.464 82.475,25.464"/>
	<polygon class="st0" points="97.293,16.976 91.299,8.488 95.471,8.488 99.403,14.147 103.336,8.488 107.556,8.488 101.561,16.976 &#xA;		107.7,25.464 103.432,25.464 99.403,19.805 95.375,25.464 91.107,25.464"/>
	<path class="st1" d="M12.701,26.423C3.877,12.996,4.597,7.433,5.364,5.611C2.63,8.632,1,12.66,1,17.024&#xA;		c0,8.728,6.57,15.969,15.106,16.928C16.058,31.938,14.427,29.109,12.701,26.423"/>
	<path class="st1" d="M18.024,27.094C27.855,14.051,29.917,6.474,30.205,5.131C27.135,1.966,22.819,0,18.024,0&#xA;		C13.276,0,8.96,1.966,5.843,5.131C6.179,6.426,8.193,14.051,18.024,27.094"/>
	<path class="st1" d="M30.732,5.611c0.767,1.822,1.487,7.289-7.049,20.381c0,0,0,0.048-0.048,0.048&#xA;		C21.812,28.869,19.99,31.842,19.99,34c8.488-0.959,15.058-8.2,15.058-16.928C35.096,12.66,33.417,8.632,30.732,5.611"/>
	<path class="st0" d="M55.093,21.34c0.767-0.911,1.151-2.35,1.151-4.268c0-2.11-0.384-3.597-1.103-4.46&#xA;		c-0.719-0.911-1.918-1.343-3.549-1.343c-1.63,0-2.781,0.432-3.549,1.343c-0.719,0.911-1.103,2.398-1.103,4.46&#xA;		c0,1.918,0.384,3.357,1.151,4.268c0.767,0.911,1.918,1.391,3.501,1.391C53.127,22.731,54.326,22.251,55.093,21.34 M43.296,17.072&#xA;		c0-3.069,0.671-5.323,2.062-6.714c1.343-1.439,3.453-2.11,6.234-2.11s4.843,0.719,6.234,2.11c1.343,1.439,2.062,3.645,2.062,6.714&#xA;		c0,5.803-2.733,8.68-8.248,8.68C46.078,25.752,43.296,22.874,43.296,17.072"/>
	<path class="st0" d="M69.527,16.928c0.959,0,1.726-0.192,2.206-0.623c0.528-0.432,0.767-1.103,0.767-2.062s-0.24-1.63-0.671-2.062&#xA;		c-0.48-0.432-1.151-0.671-2.062-0.671h-3.884v5.419H69.527z M62.286,8.488h8.152c1.918,0,3.309,0.48,4.268,1.487&#xA;		s1.391,2.398,1.391,4.22c0,1.151-0.288,2.11-0.863,2.973c-0.575,0.815-1.439,1.439-2.494,1.774c0.288,0.24,0.48,0.48,0.623,0.719&#xA;		c0.144,0.24,0.336,0.623,0.528,1.055l2.062,4.748h-3.693l-2.014-4.556c-0.192-0.384-0.384-0.671-0.575-0.815&#xA;		c-0.24-0.144-0.575-0.24-1.055-0.24h-2.781v5.611h-3.549L62.286,8.488L62.286,8.488z"/>
	<rect x="163.951" y="8.488" class="st0" width="1.439" height="16.976"/>
	<polygon class="st0" points="169.37,8.488 170.712,8.488 181.262,23.306 181.262,8.488 182.701,8.488 182.701,25.464 &#xA;		181.31,25.464 170.808,10.694 170.808,25.464 169.37,25.464"/>
</g>
</svg>