<?xml version="1.0" encoding="utf-8"?>
<svg xmlns="http://www.w3.org/2000/svg" width="48" height="48" fill="none" viewBox="0 0 48 48">
  <rect width="48" height="48" fill="#F5F5F5" rx="12"/>
  <path fill="#00BCF1" d="M43.862 21.83a2.738 2.738 0 0 0-2.579-1.85h-.026c-.774 0-1.472.325-1.97.85a2.706 2.706 0 0 0-1.97-.85h-.026c-.68 0-1.303.254-1.783.667v-.208a.403.403 0 0 0-.4-.378H33.28a.407.407 0 0 0-.405.409v10.035c0 .227.182.41.405.41h1.827a.407.407 0 0 0 .4-.357v-7.27a.67.67 0 0 1 .632-.618h.338a.685.685 0 0 1 .387.15c.16.13.249.325.249.543l.008 7.169c0 .227.183.409.405.409h1.827a.402.402 0 0 0 .4-.391v-7.2a.679.679 0 0 1 .632-.694h.338a.669.669 0 0 1 .631.694l.01 7.16c0 .226.182.409.404.409h1.827a.407.407 0 0 0 .405-.41v-7.702c0-.524-.058-.746-.138-.977Zm-12.369-1.741h-1.045v-1.711a.37.37 0 0 0-.37-.378c-.021 0-.048 0-.07.009-1.16.32-.925 1.942-3.042 2.084h-.204c-.031 0-.058 0-.09.01a.406.406 0 0 0-.315.4v1.848c0 .227.182.409.405.409h1.102v7.836c0 .222.178.404.4.404h1.806c.222 0 .4-.182.4-.404v-7.84h1.023a.407.407 0 0 0 .404-.41v-1.848a.407.407 0 0 0-.404-.41Z"/>
  <path fill="#172B75" d="M24.916 20.089h-1.828a.407.407 0 0 0-.404.409v3.822a.427.427 0 0 1-.427.427h-.765a.428.428 0 0 1-.427-.431l-.009-3.818a.407.407 0 0 0-.404-.409h-1.828a.407.407 0 0 0-.404.409v4.187c0 1.59 1.12 2.724 2.694 2.724 0 0 1.183 0 1.219.009a.428.428 0 0 1 .378.427c0 .222-.165.4-.374.426-.009 0-.018 0-.031.005l-2.672.009a.407.407 0 0 0-.405.408v1.845c0 .227.182.409.405.409h2.988c1.49 0 2.694-1.222 2.694-2.725v-7.724a.407.407 0 0 0-.404-.409h.004Zm-17.527 0H3.396a.397.397 0 0 0-.396.4v10.04c0 .222.165.404.37.409h1.858a.407.407 0 0 0 .404-.409l.01-2.809h1.747c1.462 0 2.48-1.026 2.48-2.511v-2.604c0-1.485-1.018-2.516-2.48-2.516Zm-.16 4.524a.43.43 0 0 1-.427.432h-1.16V22.76h1.16a.43.43 0 0 1 .426.431v1.422ZM14.52 20.1h-2.534c-.222 0-.404.173-.404.382v1.733c0 .227.19.405.431.405h2.414a.423.423 0 0 1 .365.39v.24c-.022.21-.169.36-.351.379h-1.196c-1.592 0-2.726 1.066-2.726 2.569v2.15c0 1.494.974 2.552 2.552 2.552h3.313c.596 0 1.076-.453 1.076-1.018v-7.009c0-1.702-.867-2.773-2.94-2.773Zm.29 8c0 .022 0 .044-.01.066 0 .023-.008.04-.017.058a.432.432 0 0 1-.404.28h-.76c-.241 0-.432-.182-.432-.404v-1.578c0-.227.191-.404.431-.404h.76c.236 0 .432.182.432.404V28.1Z"/>
</svg>