<?xml version="1.0" encoding="utf-8"?>
<svg xmlns="http://www.w3.org/2000/svg" width="48" height="48" fill="none" viewBox="0 0 48 48">
  <rect width="48" height="48" fill="#5F259F" rx="12"/>
  <path fill="#fff" d="M34.89 17.738c0-.939-.805-1.743-1.743-1.743H29.93L22.557 7.55c-.67-.804-1.742-1.072-2.815-.804l-2.547.804c-.402.134-.536.67-.268.939l8.043 7.64H12.772c-.402 0-.67.268-.67.67v1.341c0 .938.804 1.743 1.742 1.743h1.877v6.434c0 4.826 2.547 7.64 6.836 7.64 1.34 0 2.413-.133 3.754-.67v4.29c0 1.206.938 2.145 2.144 2.145h1.877c.402 0 .804-.402.804-.805V19.75h3.083c.403 0 .67-.268.67-.67v-1.341Zm-8.58 11.528c-.804.402-1.876.536-2.68.536-2.145 0-3.217-1.072-3.217-3.485v-6.434h5.898v9.383Z"/>
</svg>