<?xml version="1.0" encoding="utf-8"?>
<svg xmlns="http://www.w3.org/2000/svg" xmlns:xlink="http://www.w3.org/1999/xlink" version="1.1" id="Layer_1" x="0px" y="0px" viewBox="0 0 125.715 34" style="enable-background:new 0 0 125.715 34;">
<style type="text/css">
	.st0{fill:#007CBA;}
	.st1{fill:#DD2027;}
	.st2{fill:#FFFFFF;}
</style>
<g>
	<path id="XMLID_35_" class="st0" d="M115.405,26.292H5.887c-2.703,0-4.076-1.373-4.625-2.957c-0.338-0.971-0.338-2.027-0.063-3.02&#xA;		l2.027-7.307c0.57-1.964,2.26-5.237,6.399-5.237c0,0,82.593,0,110.109,0c3.801,0,5.47,2.619,4.857,5.533&#xA;		c-0.422,2.112-2.154,7.708-2.154,7.708C121.761,24.138,119.143,26.292,115.405,26.292z"/>
	<path id="XMLID_36_" d="M99.799,34c-7.286,0-21.857,0-29.143,0c-4.393,0-8.616-4.034-8.025-8.384&#xA;		c0.634-4.646,3.252-11.932,4.709-16.388C69.072,3.907,74.309,0,78.681,0h30.199c6.357,0.148,9.039,6.019,7.75,10.158&#xA;		c-1.394,4.498-3.632,11.594-5.005,15.712C110.336,29.713,104.17,34,99.799,34z"/>
	<path id="XMLID_50_" class="st1" d="M109.365,2.555c0,0-4.815,0.021-6.568,0c-4.773-0.063-8.764,3.21-9.947,6.969l-3.358,10.622&#xA;		c-3.738,9.229,1.035,10.791,4.329,10.77c1.985,0,3.949,0,5.491,0c4.055,0,8.511-2.935,9.693-6.694l4.561-14.529&#xA;		C114.792,6.314,112.786,2.555,109.365,2.555z M101.995,23.99h-6.378l4.435-14.107h6.378L101.995,23.99z"/>
	<path id="XMLID_46_" class="st1" d="M77.519,20.4h3.527l-1.14,3.569h-6.884l0.95-2.999l0,0l0.169-0.528l0,0l2.26-7.011l1.119-3.527&#xA;		h13.178l0.063-0.211l1.922-6.716c0,0-10.939,0.021-12.692,0c-4.773-0.063-8.68,3.569-9.524,6.547l-3.358,10.622&#xA;		c-4.202,9.883,1.33,10.77,4.329,10.77c1.985,0,3.949,0,5.491,0c4.963,0,8.511-3.147,9.693-6.906l3.062-10.601h-9.925L77.519,20.4z"/>
	<path id="XMLID_43_" class="st2" d="M56.866,22.089L58.323,17l-2.682-0.021l-1.478,5.089l-2.978,0.021l1.626-5.301&#xA;		c0.486-1.373,1.922-2.703,3.843-2.682c0.697,0,2.766,0,2.766,0c1.542,0,2.323,1.288,1.964,2.788l-1.605,5.174L56.866,22.089z"/>
	<polygon id="XMLID_45_" class="st2" points="53.297,14.466 49.39,14.466 50.594,11.087 54.437,11.087"/>
	<path id="XMLID_51_" class="st2" d="M44.237,16.451H41.64l1.753-5.639h-2.978l-1.816,5.829c-0.338,1.499,0.422,2.788,1.964,2.788&#xA;		c0,0,0,0,0.021,0l-0.824,2.661h2.914l0.845-2.661c1.837-0.063,3.21-1.33,3.675-2.661l1.88-5.955h-2.914L44.237,16.451z"/>
	<path id="XMLID_57_" class="st2" d="M36.466,10.812c0,0-2.07,0-2.766,0c-1.922-0.021-3.379,1.288-3.843,2.682l-2.809,8.616h2.957&#xA;		l0.908-2.788l2.619,0.021l-0.781,2.766H35.6l2.851-8.511C38.789,12.101,38.028,10.812,36.466,10.812z M34.459,16.451h-2.788&#xA;		l0.95-2.788h2.745L34.459,16.451z"/>
	<polygon id="XMLID_53_" class="st2" points="20.859,10.812 17.269,22.089 25.886,22.089 27.723,16.451 24.83,16.451 23.943,19.239 &#xA;		21.261,19.239 23.879,10.812"/>
	<path id="XMLID_60_" class="st2" d="M16.847,10.812h-5.575L7.64,22.111h2.957l0.908-2.788h2.598c0,0,2.703,0.127,3.78-2.64&#xA;		c0.338-0.866,0.993-3.02,0.993-3.02C19.381,11.953,18.41,10.812,16.847,10.812z M15.052,16.451h-2.766l0.95-2.788h2.745&#xA;		L15.052,16.451z"/>
</g>
</svg>