<?xml version="1.0" encoding="utf-8"?>
<svg xmlns="http://www.w3.org/2000/svg" id="Layer_1" data-name="Layer 1" viewBox="0 0 346.04 105.94">
  <defs>
    <style>
      .cls-1 {
        fill: #fff;
      }

      .cls-2 {
        fill: #fe002a;
      }
    </style>
  </defs>
  <path class="cls-2" d="m48.26,62.62c6.65-3.32,13.13-6.56,19.6-9.79,0-.08,0-.11,0-.14,0-.03-.01-.07-.03-.08-11.47-5.75-22.93-11.49-34.4-17.23-.07-.04-.18-.02-.29-.03-.13.37-.07.75-.07,1.11,0,13.17,0,26.34,0,39.51,0,.68-.06,1.34-.29,2.01-.7,2.03-2.32,3.06-4.46,2.77-1.89-.26-3.31-1.9-3.37-3.89,0-.12,0-.25,0-.37,0-15.85,0-31.7,0-47.55,0-.94.13-1.84.72-2.63,1.25-1.65,3.26-2.17,5.15-1.28.79.37,1.56.77,2.34,1.16,15.04,7.52,30.08,15.03,45.11,22.55.19.1.39.19.59.29,1.54.76,2.29,2.02,2.31,3.73.01,1.71-.84,2.88-2.33,3.63-6.26,3.13-12.53,6.26-18.8,9.39-4.54,2.27-9.08,4.53-13.62,6.81-.88.44-1.77.75-2.77.59-1.73-.27-3.49-1.79-3.47-4.19.05-5.36.01-10.71.02-16.07,0-.37.02-.74.11-1.11.38-1.61,1.41-2.62,2.96-3,2.65-.65,4.98,1.22,5,3.95.02,2.93,0,5.85,0,8.78,0,.31,0,.61,0,1.09Z"/>
  <path class="cls-1" d="m242.82,40.32c2.93,0,5.85,0,8.78,0,1.46,0,2.42.94,2.51,2.37.07,1.18-.71,2.24-1.88,2.5-.45.1-.93.1-1.39.1-5.23,0-10.46,0-15.7,0-.25,0-.5-.02-.75.01-.59.07-.89.37-.9.98-.03.96-.03,1.93,0,2.89.02.61.39.95,1,1.02.25.03.5,0,.75,0,4.55,0,9.09,0,13.64,0,3.54,0,6.12,2.77,6.08,6.11-.02,1.3.13,2.6-.13,3.9-.57,2.9-2.94,4.85-5.69,4.87-5.73.05-11.46.02-17.19.01-.75,0-1.43-.11-1.99-.74-1.17-1.29-.73-3.45.89-4.1.42-.17.85-.14,1.28-.14,5.36,0,10.71,0,16.07,0,.22,0,.44.01.65,0,.73-.05,1.08-.39,1.1-1.11.02-.9.02-1.81,0-2.71-.02-.75-.34-1.06-1.1-1.09-.62-.03-1.25,0-1.87,0-4.08,0-8.16,0-12.24,0-1.27,0-2.47-.17-3.56-.95-1.32-.94-2.2-2.16-2.67-3.68-.04-.11-.03-.24-.03-.37,0-1.65-.08-3.3.03-4.94.07-1,.57-1.91,1.21-2.71,1.37-1.73,3.22-2.33,5.36-2.3,2.58.03,5.17,0,7.76,0v.06Z"/>
  <path class="cls-1" d="m274.69,65.11c-2.33,0-4.67-.06-7,.02-2.67.09-4.47-1.22-5.73-3.4-.45-.77-.54-1.68-.53-2.6.04-3.24.03-6.47,0-9.71-.01-1.32,0-2.64-.02-3.96-.02-.88.5-1.74,1-2.5,1.07-1.65,2.61-2.54,4.57-2.63,3.58-.17,7.16-.05,10.74-.06,1.52,0,3.05-.08,4.57.06,2.54.24,4.33,1.54,5.3,3.89.24.59.36,1.23.35,1.89,0,4.36.05,8.71-.02,13.07-.04,2.36-1.25,4.49-3.88,5.54-.75.3-1.48.38-2.24.39-2.37.02-4.73,0-7.1,0Zm0-4.98c2.27,0,4.55,0,6.82,0,.5,0,.9-.09,1.23-.51.24-.31.2-.64.2-.97,0-3.95,0-7.91,0-11.86,0-1.21-.28-1.49-1.48-1.49-4.52,0-9.03,0-13.55,0-.16,0-.31,0-.47,0-.79.07-1.01.3-1.01,1.12,0,4.05,0,8.09,0,12.14,0,1.25.3,1.55,1.53,1.56,2.24,0,4.49,0,6.73,0Z"/>
  <path class="cls-1" d="m316.29,56.66c0-.28,0-.58,0-.88,0-4.26,0-8.53,0-12.79,0-.91.2-1.69,1.01-2.22.87-.58,1.82-.63,2.67-.15.75.43,1.32,1.13,1.31,2.1,0,.06,0,.12,0,.19,0,6.54,0,13.07,0,19.61,0,1.86-1.56,2.97-3.46,2.48-.38-.1-.73-.41-1.04-.72-1.43-1.41-2.96-2.73-4.42-4.1-1.1-1.04-2.23-2.06-3.34-3.09-1.29-1.2-2.52-2.47-3.91-3.56-.48-.38-.84-.92-1.32-1.31-1.34-1.08-2.45-2.43-3.91-3.48-.17.33-.1.66-.1.98,0,4.23,0,8.47,0,12.7,0,1.2-.5,2.05-1.62,2.54-1.26.54-3.31-.23-3.36-2.07,0-.22-.01-.44-.01-.65,0-6.35,0-12.7,0-19.05,0-.68.02-1.32.49-1.91.87-1.1,2.18-1.22,3.34-.54.37.22.76.52,1.07.86,1.12,1.25,2.44,2.29,3.67,3.42,1.11,1.02,2.18,2.09,3.34,3.07,1.25,1.05,2.37,2.28,3.61,3.35,1.24,1.07,2.35,2.28,3.62,3.31.58.47,1.07,1.04,1.6,1.56.19.19.35.45.76.37Z"/>
  <path class="cls-1" d="m109.27,52.71c0-3.17,0-6.35,0-9.52,0-.5,0-1.01.19-1.47.34-.79.99-1.25,1.84-1.38.4-.06.81-.08,1.21-.08,4.98,0,9.97,0,14.95,0,1.12,0,2.18.19,3.2.65,1.66.76,2.67,2.06,3.21,3.76.17.53.22,1.08.22,1.64-.02,1.46,0,2.93,0,4.39,0,1.14-.23,2.25-.82,3.2-1.12,1.79-2.73,2.9-4.9,2.92-4.33.04-8.66,0-12.99.01-1.26,0-1.1-.15-1.11,1.07,0,1.49,0,2.99,0,4.48-.01,1.87-1.32,2.95-3.16,2.64-.92-.16-1.43-.77-1.71-1.59-.14-.41-.12-.86-.12-1.3,0-3.14,0-6.29,0-9.43Zm12.08-.87c2.15,0,4.3,0,6.45,0,.95,0,1.28-.35,1.29-1.3.01-1.28,0-2.55,0-3.83,0-1.1-.29-1.39-1.37-1.4-1.74,0-3.49,0-5.23,0-2.49,0-4.98,0-7.47,0-.73,0-.74.01-.75.69,0,1.71,0,3.42,0,5.14,0,.69.01.7.74.7,2.12,0,4.24,0,6.35,0Z"/>
  <path class="cls-1" d="m182.52,47.79c-.94,1.57-1.81,3-2.66,4.45-.78,1.32-1.53,2.64-2.3,3.97-1.01,1.74-2,3.49-3.02,5.23-.49.84-1.03,1.66-1.53,2.5-.55.92-1.39,1.22-2.42,1.16-1.2-.07-2.61-1.5-2.05-3.18.3-.88.83-1.64,1.28-2.43,1.46-2.57,2.97-5.1,4.46-7.65,1.98-3.39,3.95-6.78,5.95-10.15,1.03-1.73,2.61-1.73,4.06-.65.34.26.54.73.77,1.13,2.13,3.72,4.29,7.42,6.48,11.1,1.54,2.59,3.03,5.2,4.55,7.8.59,1.01.73,1.99.02,3.02-.84,1.22-3.05,1.53-4.01.03-1-1.56-1.93-3.17-2.87-4.77-1.87-3.17-3.73-6.35-5.58-9.53-.37-.63-.71-1.27-1.13-2.01Z"/>
  <path class="cls-1" d="m209.3,52.1c.85-.71,1.42-1.65,2.19-2.42.74-.74,1.39-1.57,2.07-2.36.67-.77,1.33-1.54,1.98-2.33.47-.57.98-1.11,1.48-1.65.73-.8,1.38-1.67,2.18-2.41,1.23-1.13,3.43-.62,4.01.96.42,1.13.02,2.02-.7,2.85-1.14,1.3-2.26,2.61-3.4,3.9-.65.74-1.34,1.46-1.99,2.2-.63.72-1.23,1.46-1.86,2.18-.58.68-1.14,1.4-1.78,2.01-.52.5-.88,1.12-1.4,1.61-.28.27-.26.61-.26.95,0,1.59-.06,3.18.02,4.76.08,1.72-1.44,3.12-3.32,2.67-.61-.15-1.72-1.3-1.71-2.05.03-1.77-.02-3.55,0-5.32,0-.54-.17-.93-.53-1.32-.71-.76-1.37-1.57-2.07-2.35-.68-.76-1.37-1.5-2.05-2.26-.61-.69-1.2-1.39-1.79-2.11-.53-.65-1.13-1.22-1.66-1.87-.92-1.15-1.93-2.23-2.91-3.34-1.02-1.16-.66-3.18.72-3.87.87-.44,2.16-.33,3.04.56.65.66,1.24,1.38,1.85,2.08.67.76,1.33,1.53,1.99,2.3.68.79,1.36,1.59,2.04,2.39.5.59,1.02,1.16,1.54,1.72.76.81,1.37,1.76,2.31,2.51Z"/>
  <path class="cls-1" d="m140.49,52.59c0-3.08,0-6.17,0-9.25,0-.62.06-1.21.31-1.8.46-1.07,2.01-1.44,2.84-1.15,1.12.38,1.82,1.13,1.82,2.63,0,5.32,0,10.65,0,15.97,0,1.3-.17,1.13,1.14,1.13,4.42,0,8.85,0,13.27,0,.46,0,.9.03,1.35.2,1.02.4,1.7,1.39,1.62,2.49-.06.83-.92,2.07-1.93,2.22-.31.05-.62.07-.93.07-5.55,0-11.09,0-16.64,0-.52,0-1.03,0-1.53-.24-.78-.37-1.13-1.03-1.27-1.82-.07-.36-.07-.74-.07-1.11,0-3.11,0-6.23,0-9.34Z"/>
</svg>