<?xml version="1.0" encoding="utf-8"?>
<svg xmlns="http://www.w3.org/2000/svg" width="46" height="46" viewBox="0 0 46 46" fill="none">
<g id="Group">
<path id="Ellipse" d="M17.9912 26C13.298 24.0388 10 19.4045 10 14C10 6.8203 15.8203 1 23 1C30.1797 1 36 6.8203 36 14C36 19.4045 32.702 24.0388 28.0088 26" stroke="url(#paint0_linear_13166_214)" stroke-width="2" stroke-linecap="round"/>
<circle id="Ellipse_2" cx="23" cy="12" r="6" stroke="url(#paint1_linear_13166_214)" stroke-width="2"/>
<path id="Star" d="M22.0489 26.9271C22.3483 26.0058 23.6517 26.0058 23.9511 26.9271L25.4697 31.6008C25.6035 32.0129 25.9875 32.2918 26.4207 32.2918H31.335C32.3037 32.2918 32.7065 33.5314 31.9228 34.1008L27.947 36.9894C27.5965 37.244 27.4499 37.6954 27.5838 38.1074L29.1024 42.7812C29.4017 43.7025 28.3472 44.4686 27.5635 43.8992L23.5878 41.0107C23.2373 40.756 22.7627 40.756 22.4122 41.0107L18.4365 43.8992C17.6528 44.4686 16.5983 43.7025 16.8976 42.7812L18.4162 38.1074C18.5501 37.6954 18.4034 37.244 18.053 36.9894L14.0772 34.1008C13.2935 33.5314 13.6963 32.2918 14.665 32.2918H19.5793C20.0125 32.2918 20.3965 32.0129 20.5303 31.6008L22.0489 26.9271Z" stroke="url(#paint2_linear_13166_214)" stroke-width="2"/>
<path id="Star_2" d="M12.3879 38.2812L9.58777 36.2467C9.23728 35.9921 8.76269 35.9921 8.4122 36.2467L5.61203 38.2812C4.82832 38.8506 3.77384 38.0844 4.07319 37.1631L5.14276 33.8713C5.27663 33.4593 5.12997 33.0079 4.77949 32.7533L1.97932 30.7189C1.1956 30.1495 1.59838 28.9098 2.5671 28.9098H6.0283C6.46153 28.9098 6.84548 28.6309 6.97936 28.2189L8.04893 24.9271C8.34828 24.0058 9.65169 24.0058 9.95104 24.9271L11.0206 28.2189C11.1545 28.6309 11.5384 28.9098 11.9717 28.9098H15.4329" stroke="url(#paint3_linear_13166_214)" stroke-width="2" stroke-linecap="round"/>
<path id="Star_3" d="M30.5671 28.9098H34.0283C34.4616 28.9098 34.8455 28.6309 34.9794 28.2189L36.049 24.9271C36.3483 24.0058 37.6517 24.0058 37.9511 24.9271L39.0206 28.2189C39.1545 28.6309 39.5385 28.9098 39.9717 28.9098H43.4329C44.4016 28.9098 44.8044 30.1495 44.0207 30.7189L41.2205 32.7533C40.87 33.0079 40.7234 33.4593 40.8572 33.8713L41.9268 37.1631C42.2262 38.0844 41.1717 38.8506 40.388 38.2812L37.5878 36.2467C37.2373 35.9921 36.7627 35.9921 36.4122 36.2467L33.6121 38.2812" stroke="url(#paint4_linear_13166_214)" stroke-width="2" stroke-linecap="round"/>
<path id="Vector" d="M19 17C17.3852 17.6222 14.3493 19.8933 15.1244 24M27 17C28.6148 17.6222 31.6507 19.8933 30.8756 24" stroke="url(#paint5_linear_13166_214)" stroke-width="2" stroke-linecap="round"/>
</g>
<defs>
<linearGradient id="paint0_linear_13166_214" x1="10" y1="1" x2="37.5434" y2="2.83517" gradientUnits="userSpaceOnUse">
<stop stop-color="#FFDC86"/>
<stop offset="0.550621" stop-color="#FFAD7B"/>
<stop offset="1" stop-color="#FFD492"/>
</linearGradient>
<linearGradient id="paint1_linear_13166_214" x1="17" y1="6" x2="29.7166" y2="6.8147" gradientUnits="userSpaceOnUse">
<stop stop-color="#FFDC86"/>
<stop offset="0.550621" stop-color="#FFAD7B"/>
<stop offset="1" stop-color="#FFD492"/>
</linearGradient>
<linearGradient id="paint2_linear_13166_214" x1="13.6631" y1="26.2361" x2="33.4445" y2="27.5612" gradientUnits="userSpaceOnUse">
<stop stop-color="#FFDC86"/>
<stop offset="0.550621" stop-color="#FFAD7B"/>
<stop offset="1" stop-color="#FFD492"/>
</linearGradient>
<linearGradient id="paint3_linear_13166_214" x1="1.56519" y1="24.2361" x2="16.2641" y2="25.1531" gradientUnits="userSpaceOnUse">
<stop stop-color="#FFDC86"/>
<stop offset="0.550621" stop-color="#FFAD7B"/>
<stop offset="1" stop-color="#FFD492"/>
</linearGradient>
<linearGradient id="paint4_linear_13166_214" x1="30.5671" y1="24.2361" x2="45.266" y2="25.1531" gradientUnits="userSpaceOnUse">
<stop stop-color="#FFDC86"/>
<stop offset="0.550621" stop-color="#FFAD7B"/>
<stop offset="1" stop-color="#FFD492"/>
</linearGradient>
<linearGradient id="paint5_linear_13166_214" x1="15" y1="17" x2="31.6676" y2="19.4407" gradientUnits="userSpaceOnUse">
<stop stop-color="#FFDC86"/>
<stop offset="0.550621" stop-color="#FFAD7B"/>
<stop offset="1" stop-color="#FFD492"/>
</linearGradient>
</defs>
</svg>