<?xml version="1.0" encoding="utf-8"?>
<svg xmlns="http://www.w3.org/2000/svg" width="24" height="24" viewBox="0 0 24 24" fill="none">
<path d="M12 4C11.4477 4 11 4.44772 11 5V11H5C4.44772 11 4 11.4477 4 12C4 12.5523 4.44772 13 5 13H11V19C11 19.5523 11.4477 20 12 20C12.5523 20 13 19.5523 13 19V13H19C19.5523 13 20 12.5523 20 12C20 11.4477 19.5523 11 19 11H13V5C13 4.44772 12.5523 4 12 4Z" fill="url(#paint0_linear_13443_1091)"/>
<defs>
<linearGradient id="paint0_linear_13443_1091" x1="4" y1="4" x2="20.9555" y2="5.08626" gradientUnits="userSpaceOnUse">
<stop stop-color="#FFDC86"/>
<stop offset="0.550621" stop-color="#FFAD7B"/>
<stop offset="1" stop-color="#FFD492"/>
</linearGradient>
</defs>
</svg>