<?xml version="1.0" encoding="utf-8"?>
<svg xmlns="http://www.w3.org/2000/svg" xmlns:xlink="http://www.w3.org/1999/xlink" version="1.1" id="Layer_1" x="0px" y="0px" viewBox="0 0 134.754 34" style="enable-background:new 0 0 134.754 34;">
<style type="text/css">
	.st0{fill:#FFFFFF;}
</style>
<g>
	<path class="st0" d="M34.843,0c0,1.141-0.044,2.272-0.133,3.389c-0.089,1.143-0.225,2.273-0.402,3.389&#xA;		c-0.184,1.147-0.411,2.278-0.686,3.391c-0.28,1.148-0.607,2.279-0.98,3.389H10.373c-0.45-1.104-0.846-2.235-1.187-3.389h20.993&#xA;		c0.298-1.112,0.547-2.243,0.748-3.391c0.193-1.114,0.34-2.245,0.439-3.389H4.478c0.099,1.144,0.246,2.275,0.439,3.389&#xA;		c0.201,1.148,0.451,2.28,0.748,3.391c0.307,1.15,0.665,2.281,1.073,3.389c0.317,0.866,0.665,1.717,1.042,2.552&#xA;		c0.125,0.28,0.255,0.558,0.39,0.837c0.555,1.164,1.168,2.295,1.833,3.391c0.373,0.615,0.762,1.216,1.166,1.808&#xA;		c0.368,0.538,0.746,1.063,1.14,1.581c0.284,0.375,0.576,0.746,0.878,1.112c0.441,0.543,0.899,1.075,1.371,1.593&#xA;		c0.211,0.23,0.423,0.458,0.64,0.685c0.081,0.085,0.163,0.17,0.246,0.253c0.791,0.816,1.618,1.599,2.478,2.341&#xA;		c0.01,0.01,0.018,0.018,0.027,0.023v-0.048c0.85-0.735,1.666-1.508,2.449-2.314c0.083-0.085,0.164-0.17,0.245-0.255&#xA;		c0.234-0.246,0.466-0.493,0.694-0.744c0.453-0.499,0.892-1.009,1.317-1.531c0.3-0.366,0.594-0.737,0.878-1.114&#xA;		c0.413-0.543,0.812-1.096,1.195-1.661c0.385-0.566,0.756-1.142,1.112-1.728H14.04c-0.752-1.089-1.442-2.222-2.068-3.391H31.34&#xA;		c-0.503,1.158-1.056,2.289-1.655,3.391c-0.491,0.903-1.013,1.786-1.566,2.647c-0.16,0.249-0.323,0.497-0.487,0.742&#xA;		c-0.727,1.081-1.5,2.127-2.318,3.134c-0.07,0.085-0.139,0.17-0.209,0.255c-0.126,0.151-0.251,0.3-0.377,0.449&#xA;		c-0.539,0.634-1.096,1.253-1.672,1.856c-0.35,0.368-0.71,0.731-1.073,1.087c-0.213,0.206-0.427,0.412-0.644,0.613&#xA;		c-0.251,0.236-0.504,0.468-0.761,0.698c-0.812,0.723-1.653,1.417-2.521,2.079c-0.044,0.035-0.089,0.069-0.133,0.102&#xA;		c-0.047-0.033-0.091-0.068-0.135-0.102c-0.868-0.661-1.709-1.355-2.521-2.081c-0.238-0.211-0.474-0.427-0.708-0.643&#xA;		c-0.236-0.221-0.468-0.441-0.698-0.665c-0.363-0.356-0.723-0.719-1.075-1.087c-0.555-0.582-1.094-1.179-1.616-1.792&#xA;		c-0.145-0.17-0.288-0.34-0.431-0.512c-0.069-0.085-0.139-0.172-0.208-0.257c-0.82-1.007-1.593-2.051-2.318-3.132&#xA;		c-0.145-0.216-0.288-0.435-0.431-0.655c-0.573-0.887-1.116-1.8-1.622-2.734c-0.599-1.102-1.153-2.233-1.655-3.391&#xA;		c-0.039-0.087-0.076-0.176-0.114-0.265c-0.435-1.023-0.831-2.065-1.187-3.124c-0.373-1.11-0.7-2.24-0.98-3.389&#xA;		C1.948,9.056,1.719,7.925,1.535,6.778C1.358,5.663,1.222,4.532,1.133,3.389C1.044,2.272,1,1.141,1,0H34.843z"/>
	<path class="st0" d="M47.157,9.537c0.919,0,1.692,0.309,2.32,0.928c0.627,0.619,0.942,1.378,0.942,2.279&#xA;		c0,0.901-0.314,1.66-0.942,2.279c-0.628,0.618-1.401,0.928-2.32,0.928h-1.678v3.138h-1.883V9.537H47.157z M47.157,14.191&#xA;		c0.4,0,0.732-0.139,0.996-0.416c0.264-0.277,0.396-0.621,0.396-1.03c0-0.418-0.132-0.764-0.396-1.037&#xA;		c-0.264-0.273-0.596-0.409-0.996-0.409h-1.678v2.893H47.157z"/>
	<path class="st0" d="M55.209,19.281c-1.064,0-1.937-0.3-2.62-0.901c-0.682-0.6-1.023-1.405-1.023-2.415V9.537h1.87v6.277&#xA;		c0,0.5,0.143,0.896,0.43,1.187c0.287,0.291,0.735,0.437,1.344,0.437c0.609,0,1.058-0.146,1.344-0.437&#xA;		c0.287-0.291,0.43-0.687,0.43-1.187V9.537h1.883v6.427c0,1.01-0.341,1.815-1.023,2.415C57.16,18.98,56.282,19.281,55.209,19.281"/>
	<path class="st0" d="M63.819,19.281c-0.946,0-1.742-0.212-2.388-0.635c-0.646-0.423-1.101-0.998-1.364-1.726l1.61-0.942&#xA;		c0.373,0.974,1.105,1.46,2.197,1.46c0.528,0,0.914-0.096,1.16-0.287c0.246-0.191,0.368-0.432,0.368-0.723&#xA;		c0-0.336-0.15-0.598-0.45-0.785c-0.3-0.186-0.837-0.389-1.61-0.607c-0.428-0.127-0.789-0.255-1.085-0.382&#xA;		c-0.296-0.127-0.592-0.298-0.887-0.512c-0.296-0.214-0.521-0.485-0.676-0.812c-0.155-0.327-0.232-0.709-0.232-1.146&#xA;		c0-0.864,0.307-1.553,0.921-2.067c0.614-0.514,1.353-0.771,2.218-0.771c0.773,0,1.453,0.189,2.04,0.566&#xA;		c0.587,0.377,1.044,0.903,1.372,1.576l-1.583,0.914c-0.382-0.819-0.992-1.228-1.828-1.228c-0.392,0-0.698,0.089-0.921,0.266&#xA;		c-0.223,0.177-0.334,0.407-0.334,0.689c0,0.3,0.125,0.544,0.375,0.73c0.25,0.187,0.73,0.389,1.44,0.607&#xA;		c0.291,0.091,0.512,0.161,0.662,0.211c0.15,0.05,0.355,0.127,0.614,0.232c0.259,0.105,0.459,0.202,0.6,0.293&#xA;		c0.141,0.091,0.302,0.214,0.484,0.368c0.182,0.155,0.321,0.314,0.416,0.478c0.096,0.164,0.178,0.362,0.246,0.593&#xA;		c0.068,0.232,0.102,0.485,0.102,0.758c0,0.882-0.321,1.583-0.962,2.101C65.682,19.021,64.847,19.281,63.819,19.281"/>
	<polygon class="st0" points="73.876,9.537 75.746,9.537 75.746,19.089 73.876,19.089 73.876,15.132 70.328,15.132 70.328,19.089 &#xA;		68.445,19.089 68.445,9.537 70.328,9.537 70.328,13.331 73.876,13.331"/>
	<path class="st0" d="M90.306,13.959v0.737c0,1.364-0.437,2.47-1.31,3.316c-0.873,0.846-2.001,1.269-3.384,1.269&#xA;		c-1.474,0-2.695-0.48-3.664-1.44c-0.969-0.96-1.453-2.131-1.453-3.514c0-1.392,0.48-2.57,1.439-3.534&#xA;		c0.96-0.964,2.149-1.447,3.569-1.447c0.892,0,1.706,0.203,2.443,0.607c0.737,0.405,1.31,0.944,1.719,1.617l-1.61,0.928&#xA;		c-0.227-0.391-0.571-0.71-1.03-0.955c-0.459-0.246-0.971-0.369-1.535-0.369c-0.91,0-1.658,0.299-2.245,0.894&#xA;		c-0.587,0.596-0.88,1.349-0.88,2.258c0,0.901,0.298,1.644,0.894,2.231c0.596,0.587,1.385,0.88,2.368,0.88&#xA;		c0.728,0,1.33-0.161,1.808-0.485c0.478-0.323,0.803-0.766,0.976-1.331h-2.893v-1.665H90.306z"/>
	<path class="st0" d="M97.58,19.089l-0.607-1.719h-3.924l-0.573,1.719h-2.033l3.343-9.552h2.334l3.37,9.552H97.58z M93.663,15.61&#xA;		h2.688l-1.378-3.903L93.663,15.61z"/>
	<polygon class="st0" points="109.765,9.537 109.765,19.089 107.895,19.089 107.895,12.894 105.202,17.326 104.982,17.333 &#xA;		102.301,12.918 102.301,19.089 100.418,19.089 100.418,9.537 102.355,9.537 105.094,14.048 107.819,9.537"/>
	<rect x="111.539" y="9.537" class="st0" width="1.883" height="9.552"/>
	<polygon class="st0" points="120.722,9.537 122.606,9.537 122.606,19.089 121.173,19.089 117.079,13.249 117.079,19.089 &#xA;		115.196,19.089 115.196,9.537 116.627,9.537 120.722,15.356"/>
	<path class="st0" d="M133.754,13.959v0.737c0,1.364-0.437,2.47-1.31,3.316c-0.873,0.846-2.001,1.269-3.384,1.269&#xA;		c-1.474,0-2.695-0.48-3.664-1.44c-0.969-0.96-1.453-2.131-1.453-3.514c0-1.392,0.48-2.57,1.439-3.534&#xA;		c0.96-0.964,2.149-1.447,3.569-1.447c0.892,0,1.706,0.203,2.442,0.607c0.737,0.405,1.31,0.944,1.72,1.617l-1.61,0.928&#xA;		c-0.227-0.391-0.571-0.71-1.03-0.955c-0.459-0.246-0.971-0.369-1.535-0.369c-0.91,0-1.658,0.299-2.245,0.894&#xA;		c-0.587,0.596-0.88,1.349-0.88,2.258c0,0.901,0.298,1.644,0.894,2.231c0.596,0.587,1.385,0.88,2.368,0.88&#xA;		c0.728,0,1.33-0.161,1.808-0.485c0.478-0.323,0.803-0.766,0.976-1.331h-2.893v-1.665H133.754z"/>
</g>
</svg>