<?xml version="1.0" encoding="utf-8"?>
<svg xmlns="http://www.w3.org/2000/svg" xmlns:xlink="http://www.w3.org/1999/xlink" version="1.1" id="Layer_1" x="0px" y="0px" viewBox="0 0 136.831 34" style="enable-background:new 0 0 136.831 34;">
<style type="text/css">
	.st0{fill-rule:evenodd;clip-rule:evenodd;fill:#E46F2A;}
	.st1{filter:url(#Adobe_OpacityMaskFilter);}
	.st2{fill-rule:evenodd;clip-rule:evenodd;fill:#FFFFFF;}
	.st3{mask:url(#mask-2_6_);fill-rule:evenodd;clip-rule:evenodd;fill:#E46F2A;}
	.st4{filter:url(#Adobe_OpacityMaskFilter_1_);}
	.st5{mask:url(#mask-2_5_);fill-rule:evenodd;clip-rule:evenodd;fill:#E46F2A;}
	.st6{filter:url(#Adobe_OpacityMaskFilter_2_);}
	.st7{mask:url(#mask-2_4_);fill-rule:evenodd;clip-rule:evenodd;fill:#E46F2A;}
	.st8{filter:url(#Adobe_OpacityMaskFilter_3_);}
	.st9{mask:url(#mask-4_4_);fill-rule:evenodd;clip-rule:evenodd;fill:#E46F2A;}
	.st10{filter:url(#Adobe_OpacityMaskFilter_4_);}
	.st11{mask:url(#mask-4_3_);fill-rule:evenodd;clip-rule:evenodd;fill:#E46F2A;}
</style>
<g id="Page-1">
	<g id="QUICKSPIN_x5F_WEB_x5F_RGB_x23_FF7800" transform="translate(-190.000000, -38.000000)">
		<g id="Group" transform="translate(190.000000, 38.000000)">
			<g id="Group-4" transform="translate(67.258883, 0.000000)">
				<path id="Fill-1" class="st0" d="M8.534,0.393C8.176,0.128,7.765,0,7.357,0C6.714,0,6.078,0.319,5.681,0.914L-5.355,17.35&#xA;					c-0.652,0.968-0.428,2.306,0.499,2.986c0.358,0.264,0.768,0.391,1.176,0.391c0.644,0,1.279-0.317,1.677-0.91L9.031,3.379&#xA;					C9.682,2.412,9.46,1.073,8.534,0.393"/>
				<path id="Fill-3" class="st0" d="M68.336,26.987L56.552,1.305c-0.353-0.77-1.085-1.22-1.849-1.22&#xA;					c-0.297,0-0.597,0.068-0.885,0.211c-1.02,0.512-1.45,1.792-0.961,2.86l11.784,25.685c0.352,0.769,1.085,1.218,1.849,1.218&#xA;					c0.297,0,0.597-0.069,0.885-0.212C68.396,29.335,68.827,28.055,68.336,26.987"/>
			</g>
			<path id="Fill-5" class="st0" d="M109.859,10.537c0.016-0.11,0.034-0.223,0.034-0.34V7.777c0-0.079-0.016-0.155-0.022-0.233&#xA;				c0-0.016,0.003-0.029,0.003-0.045c0-4.088-3.175-7.414-7.078-7.414c-0.01,0-0.022,0.004-0.032,0.004&#xA;				c-0.013,0-0.022-0.004-0.034-0.004h-5.094c-1.132,0-2.047,0.961-2.047,2.145c0,1.185,0.915,2.144,2.047,2.144h5.101&#xA;				c0.01,0,0.019-0.002,0.03-0.002c0.01,0,0.02,0.002,0.03,0.002c1.644,0,2.982,1.402,2.982,3.124c0,0.079,0.014,0.154,0.023,0.231&#xA;				c-0.001,0.016-0.005,0.031-0.005,0.046v2.269c-0.007,0.062-0.019,0.122-0.019,0.186c0,1.72-1.337,3.123-2.982,3.123&#xA;				c-0.01,0-0.02,0.002-0.03,0.002c-0.011,0-0.021-0.002-0.03-0.002h-5.101c-1.132,0-2.048,0.959-2.048,2.143&#xA;				c0,1.184,0.916,2.145,2.048,2.145h5.094c0.011,0,0.021-0.005,0.032-0.005c0.012,0,0.022,0.005,0.034,0.005&#xA;				C106.6,17.644,109.704,14.483,109.859,10.537"/>
			<path id="Fill-6" class="st0" d="M85.07,0.085c-3.903,0-7.079,3.326-7.079,7.414c0,1.184,0.919,2.143,2.049,2.143&#xA;				c1.131,0,2.049-0.959,2.049-2.143c0-1.722,1.337-3.124,2.981-3.124c1.644,0,2.982,1.402,2.982,3.124&#xA;				c0,1.184,0.917,2.143,2.049,2.143c1.131,0,2.048-0.959,2.048-2.143C92.149,3.411,88.973,0.085,85.07,0.085"/>
			<g id="Group-11" transform="translate(0.000000, 0.265734)">
				<g id="Clip-8">
				</g>
				<defs>
					<filter id="Adobe_OpacityMaskFilter" filterUnits="userSpaceOnUse" x="77.99" y="20.245" width="14.159" height="9.558">
						<feColorMatrix type="matrix" values="1 0 0 0 0  0 1 0 0 0  0 0 1 0 0  0 0 0 1 0"/>
					</filter>
				</defs>
				<mask maskUnits="userSpaceOnUse" x="77.99" y="20.245" width="14.159" height="9.558" id="mask-2_6_">
					<g class="st1">
						<polygon id="path-1_6_" class="st2" points="1.014,-0.18 92.149,-0.18 92.149,33.72 1.014,33.72"/>
					</g>
				</mask>
				<path id="Fill-7" class="st3" d="M90.101,20.245c-1.132,0-2.049,0.962-2.049,2.146c0,1.722-1.338,3.123-2.982,3.123&#xA;					c-1.644,0-2.981-1.401-2.981-3.123c0-1.184-0.918-2.146-2.049-2.146c-1.13,0-2.049,0.962-2.049,2.146&#xA;					c0,4.085,3.176,7.411,7.079,7.411c3.903,0,7.08-3.326,7.08-7.411C92.149,21.207,91.232,20.245,90.101,20.245"/>
				<defs>
					<filter id="Adobe_OpacityMaskFilter_1_" filterUnits="userSpaceOnUse" x="1" y="-0.18" width="14.158" height="9.558">
						<feColorMatrix type="matrix" values="1 0 0 0 0  0 1 0 0 0  0 0 1 0 0  0 0 0 1 0"/>
					</filter>
				</defs>
				<mask maskUnits="userSpaceOnUse" x="1" y="-0.18" width="14.158" height="9.558" id="mask-2_5_">
					<g class="st4">
						<polygon id="path-1_5_" class="st2" points="1.014,-0.18 92.149,-0.18 92.149,33.72 1.014,33.72"/>
					</g>
				</mask>
				<path id="Fill-9" class="st5" d="M8.08-0.18C4.178-0.18,1,3.146,1,7.234c0,1.184,0.916,2.143,2.049,2.143&#xA;					c1.13,0,2.048-0.959,2.048-2.143c0-1.722,1.338-3.124,2.982-3.124c1.644,0,2.982,1.402,2.982,3.124&#xA;					c0,1.184,0.917,2.143,2.049,2.143c1.132,0,2.048-0.959,2.048-2.143C15.158,3.146,11.983-0.18,8.08-0.18"/>
				<defs>
					<filter id="Adobe_OpacityMaskFilter_2_" filterUnits="userSpaceOnUse" x="1" y="20.245" width="14.158" height="13.489">
						<feColorMatrix type="matrix" values="1 0 0 0 0  0 1 0 0 0  0 0 1 0 0  0 0 0 1 0"/>
					</filter>
				</defs>
				<mask maskUnits="userSpaceOnUse" x="1" y="20.245" width="14.158" height="13.489" id="mask-2_4_">
					<g class="st6">
						<polygon id="path-1_4_" class="st2" points="1.014,-0.18 92.149,-0.18 92.149,33.72 1.014,33.72"/>
					</g>
				</mask>
				<path id="Fill-10" class="st7" d="M13.11,20.245c-1.132,0-2.049,0.962-2.049,2.146c0,1.722-1.338,3.123-2.982,3.123&#xA;					c-1.644,0-2.982-1.401-2.982-3.123c0-1.184-0.918-2.146-2.048-2.146C1.916,20.245,1,21.207,1,22.391&#xA;					c0,4.085,3.178,7.411,7.08,7.411c0.562,0,1.107-0.077,1.635-0.205l1.574,3.019c0.362,0.694,1.039,1.095,1.743,1.116&#xA;					c0.018,0.002,0.039,0.002,0.058,0.002c0.333,0,0.667-0.085,0.979-0.262c0.995-0.57,1.36-1.872,0.817-2.911l-1.631-3.13&#xA;					c1.178-1.325,1.905-3.093,1.905-5.041C15.158,21.207,14.242,20.245,13.11,20.245"/>
			</g>
			<path id="Fill-12" class="st0" d="M56.773,20.511c-1.13,0-2.048,0.962-2.048,2.146c0,1.722-1.339,3.123-2.982,3.123&#xA;				c-1.644,0-2.982-1.401-2.982-3.123c0-1.184-0.916-2.146-2.048-2.146c-1.13,0-2.049,0.962-2.049,2.146&#xA;				c0,4.085,3.176,7.411,7.08,7.411c3.904,0,7.08-3.326,7.08-7.411C58.822,21.473,57.904,20.511,56.773,20.511"/>
			<path id="Fill-13" class="st0" d="M30.911,20.511c-1.13,0-2.047,0.962-2.047,2.146c0,1.722-1.34,3.123-2.984,3.123&#xA;				c-1.644,0-2.982-1.401-2.982-3.123c0-1.184-0.916-2.146-2.047-2.146c-1.132,0-2.05,0.962-2.05,2.146&#xA;				c0,4.085,3.175,7.411,7.079,7.411c3.902,0,7.08-3.326,7.08-7.411C32.96,21.473,32.043,20.511,30.911,20.511"/>
			<path id="Fill-14" class="st0" d="M51.742,0.085c-3.904,0-7.08,3.326-7.08,7.414c0,1.184,0.919,2.143,2.049,2.143&#xA;				c1.132,0,2.048-0.959,2.048-2.143c0-1.722,1.339-3.124,2.982-3.124c1.644,0,2.982,1.402,2.982,3.124&#xA;				c0,1.184,0.919,2.143,2.048,2.143c1.132,0,2.05-0.959,2.05-2.143C58.822,3.411,55.645,0.085,51.742,0.085"/>
			<path id="Fill-15" class="st0" d="M80.04,10.863c-0.119,0-0.236-0.01-0.355-0.022l7.324,10.91c0.381-1.416,1.621-2.46,3.093-2.46&#xA;				c0.091,0,0.183,0.009,0.276,0.015L83.11,8.485C82.708,9.861,81.484,10.863,80.04,10.863"/>
			<path id="Fill-16" class="st0" d="M65.629,9.682V2.231c0-1.184-0.918-2.145-2.049-2.145c-1.131,0-2.049,0.961-2.049,2.145v13.553&#xA;				L65.629,9.682"/>
			<path id="Fill-17" class="st0" d="M46.711,19.291c0.779,0,1.493,0.294,2.051,0.776v-9.981c-0.558,0.484-1.272,0.776-2.051,0.776&#xA;				c-0.776,0-1.49-0.29-2.047-0.772v9.975C45.221,19.583,45.935,19.291,46.711,19.291"/>
			<path id="Fill-18" class="st0" d="M135.831,24.686V2.231c0-1.184-0.915-2.145-2.047-2.145c-1.133,0-2.049,0.961-2.049,2.145&#xA;				v13.526L135.831,24.686"/>
			<path id="Fill-19" class="st0" d="M97.635,12.133h2.053V5.597h-2.053c-0.775,0-1.487-0.29-2.045-0.77v8.076&#xA;				C96.148,12.425,96.86,12.133,97.635,12.133"/>
			<path id="Fill-20" class="st0" d="M114.588,0.085c-1.133,0-2.05,0.961-2.05,2.145v25.688c0,1.185,0.917,2.144,2.05,2.144&#xA;				s2.047-0.959,2.047-2.144V2.231C116.635,1.046,115.721,0.085,114.588,0.085"/>
			<path id="Fill-21" class="st0" d="M63.579,21.947c-0.665,0-1.302-0.212-1.847-0.611c-0.069-0.051-0.134-0.11-0.201-0.166v6.748&#xA;				c0,1.185,0.918,2.144,2.049,2.144c1.131,0,2.049-0.959,2.049-2.144v-6.748C65.058,21.663,64.336,21.947,63.579,21.947"/>
			<path id="Fill-22" class="st0" d="M38.807,0.085c-1.13,0-2.048,0.961-2.048,2.145v25.688c0,1.185,0.919,2.144,2.048,2.144&#xA;				c1.132,0,2.05-0.959,2.05-2.144V2.231C40.857,1.046,39.939,0.085,38.807,0.085"/>
			<path id="Fill-23" class="st0" d="M70.57,14.022l-2.706,4.028l4.896,10.785c0.352,0.774,1.086,1.224,1.853,1.224&#xA;				c0.293,0,0.593-0.067,0.878-0.207c1.022-0.509,1.455-1.789,0.969-2.86L70.57,14.022"/>
			<path id="Fill-24" class="st0" d="M119.915,5.534v22.384c0,1.185,0.917,2.144,2.049,2.144c1.131,0,2.047-0.959,2.047-2.144&#xA;				V14.463L119.915,5.534"/>
			<path id="Fill-25" class="st0" d="M97.635,18.863c-0.775,0-1.487-0.292-2.045-0.768v9.823c0,1.185,0.918,2.144,2.049,2.144&#xA;				c1.13,0,2.049-0.959,2.049-2.144v-9.055H97.635"/>
			<path id="Fill-26" class="st0" d="M20.851,19.291c0.778,0,1.492,0.294,2.05,0.776V2.231c0-1.184-0.919-2.145-2.05-2.145&#xA;				c-1.132,0-2.05,0.961-2.05,2.145v17.835C19.361,19.583,20.073,19.291,20.851,19.291"/>
			<g id="Group-30" transform="translate(0.000000, 0.265734)">
				<g id="Clip-28">
				</g>
				<defs>
					<filter id="Adobe_OpacityMaskFilter_3_" filterUnits="userSpaceOnUse" x="28.864" y="-0.18" width="4.094" height="19.982">
						<feColorMatrix type="matrix" values="1 0 0 0 0  0 1 0 0 0  0 0 1 0 0  0 0 0 1 0"/>
					</filter>
				</defs>
				<mask maskUnits="userSpaceOnUse" x="28.864" y="-0.18" width="4.094" height="19.982" id="mask-4_4_">
					<g class="st8">
						<polygon id="path-3_4_" class="st2" points="1.014,-0.18 32.958,-0.18 32.958,19.802 1.014,19.802"/>
					</g>
				</mask>
				<path id="Fill-27" class="st9" d="M30.911,19.025c0.778,0,1.491,0.292,2.047,0.775V1.965c0-1.184-0.915-2.145-2.047-2.145&#xA;					c-1.132,0-2.047,0.961-2.047,2.145v17.837C29.421,19.318,30.135,19.025,30.911,19.025"/>
				<defs>
					<filter id="Adobe_OpacityMaskFilter_4_" filterUnits="userSpaceOnUse" x="1.002" y="9.821" width="4.097" height="9.981">
						<feColorMatrix type="matrix" values="1 0 0 0 0  0 1 0 0 0  0 0 1 0 0  0 0 0 1 0"/>
					</filter>
				</defs>
				<mask maskUnits="userSpaceOnUse" x="1.002" y="9.821" width="4.097" height="9.981" id="mask-4_3_">
					<g class="st10">
						<polygon id="path-3_3_" class="st2" points="1.014,-0.18 32.958,-0.18 32.958,19.802 1.014,19.802"/>
					</g>
				</mask>
				<path id="Fill-29" class="st11" d="M3.049,19.025c0.777,0,1.495,0.294,2.05,0.776V9.821c-0.555,0.484-1.273,0.776-2.05,0.776&#xA;					c-0.778,0-1.491-0.29-2.047-0.772V19.8C1.558,19.318,2.271,19.025,3.049,19.025"/>
			</g>
			<path id="Fill-31" class="st0" d="M13.11,10.863c-0.779,0-1.493-0.292-2.049-0.776v9.981c0.556-0.484,1.27-0.776,2.049-0.776&#xA;				c0.777,0,1.49,0.292,2.047,0.775v-9.975C14.601,10.57,13.887,10.863,13.11,10.863"/>
		</g>
	</g>
</g>
</svg>