<?xml version="1.0" encoding="utf-8"?>
<svg xmlns="http://www.w3.org/2000/svg" xmlns:xlink="http://www.w3.org/1999/xlink" version="1.1" id="Layer_1" x="0px" y="0px" viewBox="0 0 105.7 34" style="enable-background:new 0 0 105.7 34;">
<style type="text/css">
	.st0{fill:#FCCE00;}
</style>
<g>
	<rect x="2.187" y="0.98" width="101.209" height="31.891"/>
	<g>
		<path class="st0" d="M1,34h103.7V0H1V34z M3.267,2.267h99.167v29.467H3.267V2.267z"/>
		<path class="st0" d="M28.767,10.956c-3.778-1.511-7.933-1.511-11.711,0L11.389,5.1l0,0c0,4.344,0,8.689,0,13.033&#xA;			c0,0.944,0.378,1.7,1.133,2.456c1.133,1.7,2.644,3.211,3.967,4.722c0.756,1.133,1.7,2.078,2.644,2.833&#xA;			c1.133,0.756,2.456,0.944,3.778,0.944s2.833-0.189,3.967-0.944c0.944-0.756,1.889-1.7,2.644-2.833&#xA;			c1.511-1.7,3.022-3.211,4.156-5.1c0.378-0.567,0.756-1.133,0.756-1.889c0-4.344,0-8.689,0-13.033&#xA;			C32.544,6.989,30.656,9.067,28.767,10.956z M17.811,21.344c-0.378,0-0.944-0.189-0.944-0.567&#xA;			c-0.567-1.133-1.322-2.078-1.889-3.211c0,0-0.189,0-0.189-0.189l0,0c0,0,0,0,0,0.189c1.889,1.511,3.967,3.022,5.856,4.533&#xA;			L17.811,21.344z M29.333,20.589c-0.189,0.189-0.378,0.567-0.567,0.567c-1.133,0.378-2.456,0.567-3.589,0.944&#xA;			c1.889-1.511,3.967-3.211,5.856-4.533C30.656,18.511,29.9,19.644,29.333,20.589z"/>
		<path class="st0" d="M73.533,7.367h5.289v3.4h-3.4c-1.889,1.511-2.078,4.344-0.378,6.044c0.189,0.189,0.378,0.378,0.378,0.378&#xA;			h3.589V20.4h-5.667c-1.889-1.322-3.211-3.589-3.022-6.044C70.133,11.522,71.267,8.878,73.533,7.367z M88.456,7.367v3.778H91.1&#xA;			V20.4h3.589v-9.256h2.644V7.367H88.456L88.456,7.367z M48.978,20.4H45.2l-2.267-4.156V20.4h-3.778V7.367h5.856&#xA;			c2.078,0.567,3.4,2.267,3.778,4.344c-0.189,1.511-0.756,2.833-1.889,3.967C47.656,17,48.978,20.4,48.978,20.4z M44.822,12.278&#xA;			c0-1.133-1.889-1.889-1.889-1.889v3.589C42.933,14.167,44.822,13.222,44.822,12.278L44.822,12.278z M90.533,20.4h-3.778&#xA;			l-0.567-2.078h-3.211L82.411,20.4h-3.4l3.967-13.033h3.211L90.533,20.4z M83.922,15.3h1.7l-0.756-2.644&#xA;			C84.678,12.656,83.922,15.3,83.922,15.3z M60.689,20.4h-3.778l-0.567-2.078h-3.211L52.567,20.4h-3.589l3.967-13.033h3.211&#xA;			L60.689,20.4z M53.889,15.3h1.7l-0.756-2.644C54.833,12.656,53.889,15.3,53.889,15.3z M70.133,17c0,1.511-3.022,3.4-3.022,3.4&#xA;			h-5.667V7.367H67.3c1.322,0.944,2.267,2.267,2.644,3.778c0.189,1.133-0.756,2.267-1.322,3.211C69,15.111,70.133,15.867,70.133,17&#xA;			L70.133,17z M66.167,16.433c0-0.567-1.511-1.322-1.511-1.322v2.644C64.656,17.756,66.167,17,66.167,16.433L66.167,16.433z&#xA;			 M66.167,11.711c0-0.567-1.511-1.322-1.511-1.322v2.644C64.656,13.033,66.167,12.089,66.167,11.711L66.167,11.711z"/>
		<path class="st0" d="M45.767,24.744h1.511V25.5c0,0.378-0.189,0.756-0.567,0.944c-0.378,0.189-0.756,0.378-1.133,0.378&#xA;			c-0.378,0-0.567,0-0.944-0.189c-0.189-0.189-0.378-0.189-0.567-0.378v-0.189v-0.189c0-0.567,0-1.133,0-1.7&#xA;			c0-0.189,0-0.189,0.189-0.378c0.189-0.189,0.378-0.378,0.567-0.378c0.378-0.189,0.567-0.189,0.944-0.189&#xA;			c0.378,0,0.756,0.189,1.133,0.378c0.189,0.189,0.378,0.567,0.567,0.756h-0.756c0-0.189-0.189-0.378-0.378-0.378&#xA;			C46.144,23.8,45.956,23.8,45.767,23.8c-0.189,0-0.378,0-0.378,0c-0.189,0-0.189,0.189-0.378,0.189&#xA;			c-0.189,0-0.189,0.189-0.189,0.378c0,0.189,0,0.567,0,0.756s0,0.567,0,0.756c0,0.189,0,0.189,0.189,0.378&#xA;			c0,0,0.189,0.189,0.378,0.189c0.189,0,0.378,0,0.378,0c0.189,0,0.567,0,0.567-0.189c0.189-0.189,0.189-0.378,0.189-0.567V25.5&#xA;			h-0.944L45.767,24.744z"/>
		<path class="st0" d="M53.322,25.878h-1.7l-0.378,0.756h-0.756l1.7-3.589h0.567l1.7,3.778H53.7L53.322,25.878z M53.133,25.311&#xA;			L52.567,23.8l0,0L52,25.311H53.133z"/>
		<path class="st0" d="M57.478,23.044h0.567l1.322,2.456l1.322-2.456h0.567v3.589H60.5v-2.267l0,0l-0.944,1.7h-0.567l-0.944-1.7l0,0&#xA;			v2.267h-0.756v-3.589H57.478z"/>
		<path class="st0" d="M65.222,23.044h1.7c0.378,0,0.756,0,0.944,0.189c0.189,0.189,0.378,0.378,0.378,0.756&#xA;			c0,0.189,0,0.378-0.189,0.378c0,0-0.189,0-0.189,0.189l-0.378,0.189l0,0c0.189,0,0.378,0.189,0.567,0.378&#xA;			c0.189,0.189,0.189,0.378,0.189,0.567c0,0.378-0.189,0.756-0.378,0.944c-0.189,0.189-0.567,0.378-0.944,0.378h-1.889&#xA;			L65.222,23.044z M65.789,23.422v1.133h0.944c0.189,0,0.378,0,0.567-0.189c0.189,0,0.189-0.189,0.189-0.378&#xA;			c0-0.189,0-0.378-0.189-0.378c-0.189-0.189-0.378-0.189-0.567-0.189L65.789,23.422L65.789,23.422z M65.789,25.122v1.133h1.133&#xA;			c0.189,0,0.378,0,0.567-0.189c0.189-0.189,0.189-0.189,0.189-0.378c0-0.189,0-0.378-0.189-0.378&#xA;			c-0.189-0.189-0.378-0.189-0.567-0.189L65.789,25.122z"/>
		<path class="st0" d="M71.644,23.044H72.4v3.211h2.267v0.567h-3.022V23.044z"/>
		<path class="st0" d="M77.878,23.044h0.756v3.589h-0.756V23.044z"/>
		<path class="st0" d="M82.222,23.044h0.756l1.889,2.644l0,0v-2.644h0.756v3.589h-0.756l-1.889-2.644l0,0v2.644h-0.756V23.044z"/>
		<path class="st0" d="M90.911,24.744h1.511V25.5c0,0.378-0.189,0.756-0.567,0.944c-0.378,0.189-0.756,0.378-1.133,0.378&#xA;			c-0.378,0-0.567,0-0.944-0.189c-0.189-0.189-0.378-0.189-0.567-0.378v-0.189v-0.189c0-0.567,0-1.133,0-1.7&#xA;			c0-0.189,0-0.189,0.189-0.378c0.189-0.189,0.378-0.378,0.567-0.378c0.378-0.189,0.567-0.189,0.944-0.189&#xA;			c0.378,0,0.756,0.189,1.133,0.378c0.189,0.189,0.378,0.567,0.567,0.756h-0.944c0-0.189-0.189-0.378-0.378-0.378&#xA;			C91.1,23.8,90.911,23.8,90.722,23.8c-0.189,0-0.378,0-0.378,0s-0.189,0.189-0.378,0.189s-0.189,0.189-0.189,0.378&#xA;			c0,0.189,0,0.567,0,0.756s0,0.567,0,0.756c0,0.189,0,0.189,0.189,0.378c0,0,0.189,0.189,0.378,0.189c0.189,0,0.378,0,0.378,0&#xA;			c0.189,0,0.567,0,0.567-0.189c0.189-0.189,0.189-0.378,0.189-0.567V25.5h-0.944v-0.756H90.911z"/>
	</g>
</g>
</svg>