<?xml version="1.0" encoding="utf-8"?>
<svg xmlns="http://www.w3.org/2000/svg" xmlns:xlink="http://www.w3.org/1999/xlink" version="1.1" id="Layer_1" x="0px" y="0px" viewBox="0 0 56.588 34" style="enable-background:new 0 0 56.588 34;">
<style type="text/css">
	.st0{fill:#FFFFFF;}
	.st1{fill:#DC1F32;}
	.st2{fill:#434344;}
</style>
<g>
	<path class="st0" d="M55.513,2.551c-0.212-0.824-0.867-1.576-1.797-2.063c-1.559-0.822-3.31-0.587-4.08,0.558l-0.553,0.837&#xA;		c-0.045,0.068-0.082,0.14-0.114,0.213c-0.074,0.08-0.145,0.165-0.207,0.257l-3.014,4.505c-0.039,0.058-0.073,0.119-0.102,0.181&#xA;		c-0.095,0.096-0.183,0.199-0.258,0.313l-0.905,1.353c-0.061,0.088-0.114,0.18-0.16,0.276H4.767c-0.562,0-1.04,0.408-1.128,0.963&#xA;		L1.014,26.509c-0.11,0.693,0.426,1.321,1.128,1.321h29.721l11.384,5.95c0.172,0.09,0.357,0.14,0.544,0.155&#xA;		c0.086,0.026,0.174,0.048,0.266,0.058c0.05,0.005,0.1,0.008,0.15,0.008c0.47,0,0.915-0.234,1.179-0.63l1.181-1.767&#xA;		c0.304-0.455,0.319-1.044,0.04-1.514c-0.693-1.163-1.96-1.448-3.096-1.172l-1.424-1.087h8.664c0.562,0,1.04-0.408,1.128-0.963&#xA;		l2.625-16.564c0.11-0.693-0.426-1.321-1.128-1.321h-1.271l2.239-3.352c0.058-0.085,0.108-0.174,0.152-0.265&#xA;		c0.07-0.069,0.134-0.143,0.19-0.227l0.552-0.836C55.574,3.791,55.673,3.169,55.513,2.551z"/>
	<g>
		<path class="st1" d="M52.177,3.059c-0.888-0.469-1.892-0.427-2.236,0.084l-3.014,4.505c0.678-0.195,1.406-0.107,2.018,0.243&#xA;			c0.615,0.259,1.067,0.798,1.214,1.448l3.014-4.513C53.525,4.315,53.073,3.528,52.177,3.059z"/>
		<path class="st1" d="M53.056,1.744c-0.888-0.469-1.892-0.427-2.236,0.084l-0.553,0.837c0.68-0.203,1.414-0.115,2.026,0.243&#xA;			c0.613,0.259,1.062,0.799,1.206,1.448l0.553-0.837C54.396,3,53.952,2.213,53.056,1.744z"/>
		<polygon class="st1" points="36.746,25.54 36.746,25.548 36.746,25.54 29.822,23.447 30.609,25.573 43.905,32.523 43.109,30.396"/>
		<path class="st1" d="M43.369,30.471l0.837,2.11l1.181-1.767C44.759,29.76,43.369,30.471,43.369,30.471z"/>
		<path class="st1" d="M32.032,23.689c-0.569-1.038-1.917-0.368-1.968-0.343l1.834,0.544L32.032,23.689z"/>
		<path class="st1" d="M49.799,9.891V9.824c0.343-0.511-0.109-1.298-0.996-1.767c-0.888-0.469-1.892-0.435-2.236,0.084l-0.913,1.365&#xA;			c-0.08,0.112-0.121,0.247-0.117,0.385L49.799,9.891z"/>
		<path class="st2" d="M3.423,25.548c-0.067,0.394,0.075,0.569,0.469,0.569c0.33,0.042,0.632-0.192,0.674-0.522&#xA;			c0.002-0.016,0.003-0.032,0.004-0.047l0.193-1.097H4.293l-0.05,0.276h0.209L4.31,25.565c-0.017,0.167-0.159,0.294-0.327,0.293&#xA;			c-0.167,0-0.251-0.109-0.218-0.293l0.335-1.909c0.009-0.169,0.149-0.302,0.318-0.301c0.176,0,0.26,0.117,0.226,0.301l-0.059,0.335&#xA;			h0.293l0.067-0.335c0.067-0.402-0.075-0.578-0.477-0.578c-0.331-0.037-0.629,0.201-0.666,0.532&#xA;			c-0.002,0.015-0.003,0.031-0.003,0.046L3.423,25.548z"/>
		<path class="st2" d="M8.086,26.067h0.301l0.042-1.005l0.042-1.951H7.977l-0.653,1.951l-0.301,1.005h0.293l0.209-0.661H8.12&#xA;			L8.086,26.067z M7.609,25.13l0.603-1.968L8.128,25.13H7.609z"/>
		<polygon class="st2" points="11.963,26.067 12.482,23.112 12.172,23.112 11.167,25.498 11,23.112 10.682,23.112 10.163,26.067 &#xA;			10.447,26.067 10.824,23.949 10.975,26.067 11.167,26.067 12.063,23.924 11.687,26.067"/>
		<polygon class="st2" points="15.019,23.112 14.491,26.067 14.793,26.067 15.312,23.112"/>
		<polygon class="st2" points="18.795,26.067 19.314,23.112 19.055,23.12 18.669,25.272 18.494,23.112 18.175,23.112 17.656,26.067 &#xA;			17.933,26.067 18.301,23.966 18.477,26.067"/>
		<path class="st2" d="M21.324,25.548c-0.067,0.394,0.075,0.569,0.469,0.569c0.335,0.038,0.638-0.204,0.676-0.539&#xA;			c0.001-0.01,0.002-0.02,0.003-0.03l0.184-1.097h-0.46l-0.05,0.276h0.167l-0.142,0.837c-0.017,0.167-0.159,0.294-0.327,0.293&#xA;			c-0.167,0-0.251-0.109-0.218-0.293l0.335-1.909c0.009-0.169,0.149-0.302,0.318-0.301c0.176,0,0.26,0.117,0.226,0.301l-0.059,0.335&#xA;			h0.301l0.059-0.335c0.067-0.402-0.075-0.578-0.469-0.578c-0.331-0.037-0.629,0.201-0.666,0.532&#xA;			c-0.002,0.015-0.003,0.031-0.003,0.046L21.324,25.548z"/>
		<path class="st1" d="M8.388,21.462l-0.896-4.387H7.45c0,0.26-0.05,0.519-0.084,0.779c-0.033,0.26-0.059,0.519-0.109,0.779&#xA;			l-0.435,2.805H3.975l1.633-10.541h2.755c0.511,0,1.021,0.045,1.524,0.134c0.422,0.066,0.828,0.211,1.197,0.427&#xA;			c0.339,0.195,0.613,0.487,0.787,0.837c0.201,0.408,0.299,0.86,0.285,1.315c0.008,0.134,0.008,0.268,0,0.402&#xA;			c0,0.134-0.017,0.276-0.05,0.427c-0.086,0.572-0.304,1.117-0.636,1.591c-0.346,0.489-0.839,0.856-1.407,1.047l1.44,4.387H8.388z&#xA;			 M7.885,15.802c0.354,0.003,0.693-0.146,0.929-0.41c0.119-0.128,0.215-0.275,0.285-0.435c0.073-0.158,0.126-0.323,0.159-0.494&#xA;			c0.004-0.053,0.004-0.106,0-0.159c0.004-0.045,0.004-0.089,0-0.134c0.024-0.28-0.085-0.556-0.293-0.745&#xA;			c-0.22-0.169-0.494-0.252-0.77-0.234H8.086l-0.41,2.596L7.885,15.802z"/>
		<path class="st1" d="M17.204,10.896h2.319c0.631-0.014,1.26,0.082,1.859,0.285c0.498,0.163,0.952,0.434,1.331,0.795&#xA;			c0.373,0.354,0.66,0.79,0.837,1.273c0.19,0.538,0.283,1.104,0.276,1.675c0,0.193,0,0.385,0,0.578&#xA;			c-0.017,0.205-0.045,0.409-0.084,0.611c-0.091,0.716-0.277,1.417-0.553,2.085c-0.21,0.522-0.491,1.013-0.837,1.457&#xA;			c-0.328,0.386-0.719,0.714-1.155,0.971c-0.349,0.228-0.726,0.411-1.122,0.544c-0.354,0.116-0.718,0.195-1.088,0.234&#xA;			c-0.352,0-0.678,0.059-0.963,0.059h-2.512L17.204,10.896z M18.812,18.892c0.301,0.007,0.596-0.087,0.837-0.268&#xA;			c0.228-0.185,0.419-0.412,0.561-0.67c0.15-0.264,0.268-0.545,0.352-0.837c0.076-0.276,0.138-0.555,0.184-0.837&#xA;			c0.059-0.343,0.087-0.69,0.084-1.038c0.001-0.216-0.016-0.431-0.05-0.645c-0.027-0.191-0.089-0.376-0.184-0.544&#xA;			c-0.083-0.156-0.208-0.286-0.36-0.377c-0.176-0.1-0.376-0.149-0.578-0.142L18.812,18.892z"/>
		<path class="st2" d="M27.938,21.462l-0.879-4.387h-0.05c0,0.26-0.05,0.519-0.084,0.779c-0.033,0.26-0.059,0.519-0.109,0.779&#xA;			l-0.435,2.805h-2.847l1.624-10.541h2.738c0.511-0.001,1.021,0.044,1.524,0.134c0.425,0.068,0.833,0.213,1.206,0.427&#xA;			c0.335,0.198,0.605,0.489,0.779,0.837c0.201,0.408,0.299,0.86,0.285,1.315c0.008,0.134,0.008,0.268,0,0.402&#xA;			c0,0.134,0,0.276-0.05,0.427c-0.086,0.572-0.304,1.117-0.636,1.591c-0.353,0.493-0.855,0.86-1.432,1.047l1.44,4.387H27.938z&#xA;			 M27.436,15.802c0.179-0.001,0.355-0.038,0.519-0.109c0.156-0.071,0.296-0.174,0.41-0.301c0.121-0.128,0.22-0.275,0.293-0.435&#xA;			c0.07-0.158,0.121-0.324,0.151-0.494c0.004-0.053,0.004-0.106,0-0.159c0.004-0.045,0.004-0.089,0-0.134&#xA;			c0.026-0.279-0.079-0.554-0.285-0.745c-0.224-0.168-0.5-0.251-0.779-0.234h-0.109l-0.402,2.596L27.436,15.802z"/>
		<path class="st2" d="M46.509,10.896l-3.064,5.091l1.675,5.451H42.08l-1.021-4.839l0,0l-0.754,4.839h-2.863l1.633-10.541h2.855&#xA;			l-0.703,4.488l0,0l2.277-4.488H46.509z"/>
		<path class="st2" d="M47.153,10.896h5.3l-0.377,2.512h-2.478l-0.243,1.465h2.202l-0.394,2.512H48.97l-0.251,1.608h2.445&#xA;			l-0.377,2.512h-5.308L47.153,10.896z"/>
		<path class="st1" d="M16.384,13.408l0.377-2.512h-5.292l-0.042,0.226c0.35,0.234,0.638,0.55,0.837,0.921&#xA;			c0.235,0.479,0.349,1.008,0.335,1.541c0.008,0.148,0.008,0.296,0,0.444l-0.05,0.435c-0.102,0.649-0.348,1.267-0.72,1.809&#xA;			c-0.31,0.443-0.728,0.801-1.214,1.038l1.373,4.153h3.157l0.377-2.512H13.06l0.251-1.608h2.194l0.394-2.512h-2.194l0.234-1.423&#xA;			H16.384z"/>
		<path class="st2" d="M37.274,21.462l-0.594-10.566h-3.483l-1.03,2.637v0.075c-0.011,0.294-0.039,0.588-0.084,0.879&#xA;			c-0.095,0.649-0.339,1.268-0.712,1.809c-0.155,0.219-0.338,0.416-0.544,0.586l-0.419,1.139l1.13,3.441h0.444l0.427-1.356h1.917&#xA;			v1.356H37.274z M33.137,17.87l0.77-2.445c0.1-0.327,0.201-0.661,0.293-0.996c0.092-0.335,0.193-0.661,0.285-0.988l0,0&#xA;			c0,0.327,0,0.653-0.059,0.988c-0.059,0.335,0,0.67,0,0.996L34.36,17.87H33.137z"/>
		<polygon class="st1" points="38.27,22.609 36.52,25.23 36.796,25.314 37.692,26 39.961,22.609"/>
	</g>
</g>
</svg>