<?xml version="1.0" encoding="utf-8"?>
<svg xmlns="http://www.w3.org/2000/svg" xmlns:xlink="http://www.w3.org/1999/xlink" version="1.1" id="Layer_1" x="0px" y="0px" viewBox="0 0 184.648 34" style="enable-background:new 0 0 184.648 34;">
<style type="text/css">
	.st0{fill-rule:evenodd;clip-rule:evenodd;fill:#F6F6F6;}
	.st1{fill-rule:evenodd;clip-rule:evenodd;fill:#D71920;}
</style>
<g id="Tiger" transform="translate(-47 -38)">
	<g id="Logo" transform="translate(-27 108)">
		<path id="Logo_Type_White" class="st0" d="M252.56-51.397l5.087,8.24l-5.799,0.005l-4.798-7.737h-0.053v7.737h-5.227v-20.062&#xA;			h7.803c1.814-0.107,3.609,0.419,5.078,1.489c1.334,1.159,2.045,2.878,1.918,4.641c0.033,1.338-0.375,2.65-1.16,3.734&#xA;			C254.792-52.314,253.75-51.599,252.56-51.397z M250.826-58.039c-0.198-0.33-0.485-0.599-0.828-0.774&#xA;			c-0.36-0.182-0.747-0.304-1.146-0.36c-0.446-0.064-0.896-0.095-1.347-0.093h-0.506v5.016h0.506&#xA;			c0.451,0.003,0.901-0.029,1.347-0.093c0.399-0.056,0.786-0.178,1.146-0.36c0.344-0.174,0.631-0.443,0.828-0.774&#xA;			C251.232-56.283,251.232-57.233,250.826-58.039L250.826-58.039z M227.109-63.213h11.436v4.442h-6.189v3.23h6.189v4.577h-6.189&#xA;			v3.23h6.189v4.577h-11.436V-63.213z M151.502-58.771h-6.189v3.23h6.189v4.577h-6.189v3.23h6.189v4.577h-11.436v-20.056h11.436&#xA;			V-58.771z M132.115-43.152l-4.798-7.737h-0.053v7.737h-5.226v-20.062h7.804c1.814-0.106,3.609,0.42,5.078,1.489&#xA;			c1.334,1.159,2.045,2.878,1.918,4.641c0.032,1.338-0.375,2.65-1.16,3.734c-0.778,1.055-1.944,1.756-3.24,1.948l5.476,8.24&#xA;			L132.115-43.152z M131.091-58.037c-0.198-0.33-0.485-0.599-0.828-0.774c-0.36-0.182-0.747-0.304-1.145-0.36&#xA;			c-0.446-0.064-0.897-0.095-1.348-0.093h-0.505v5.016h0.505c0.451,0.003,0.901-0.029,1.348-0.093&#xA;			c0.399-0.056,0.786-0.178,1.145-0.36c0.344-0.174,0.632-0.443,0.828-0.774C131.498-56.281,131.498-57.231,131.091-58.037&#xA;			L131.091-58.037z M165.224-62.453c1.143,0.503,2.173,1.231,3.028,2.141c0.877,0.933,1.567,2.026,2.031,3.219&#xA;			c0.971,2.518,0.967,5.307-0.012,7.822c-0.471,1.189-1.165,2.277-2.046,3.205c-0.858,0.906-1.887,1.634-3.028,2.141&#xA;			c-1.139,0.512-2.373,0.776-3.622,0.772h-6.846v-20.06h6.846c1.256-0.006,2.499,0.252,3.648,0.757V-62.453z M159.558-58.795v11.225&#xA;			h1.083c0.703,0.006,1.402-0.106,2.068-0.331c1.328-0.448,2.379-1.476,2.856-2.793c0.293-0.796,0.436-1.64,0.419-2.487&#xA;			c0.088-1.514-0.435-2.999-1.452-4.123c-1.017-1.012-2.411-1.552-3.845-1.489L159.558-58.795z M192.803-58.795h-4.319v15.642&#xA;			h-5.222v-15.642h-4.32v-4.417h13.86V-58.795z M201.216-43.148h-5.228v-20.121h5.228V-43.148z M207.175-60.442&#xA;			c0.911-0.907,2.005-1.609,3.209-2.058c1.308-0.484,2.694-0.725,4.089-0.711c1.778-0.044,3.532,0.414,5.062,1.322&#xA;			c1.487,0.944,2.65,2.318,3.335,3.94l-4.594,1.945c-0.3-0.865-0.84-1.626-1.558-2.194c-0.708-0.538-1.579-0.82-2.468-0.798&#xA;			c-0.714-0.011-1.42,0.16-2.05,0.498c-0.608,0.33-1.132,0.796-1.532,1.36c-0.416,0.584-0.734,1.233-0.938,1.92&#xA;			c-0.426,1.407-0.426,2.909,0,4.316c0.205,0.686,0.527,1.331,0.951,1.908c0.41,0.558,0.943,1.014,1.557,1.334&#xA;			c0.645,0.331,1.361,0.498,2.086,0.486c0.968,0.038,1.92-0.261,2.692-0.847c0.726-0.601,1.165-1.479,1.21-2.42h-3.95v-3.841h9.605&#xA;			c-0.008,1.39-0.144,2.775-0.406,4.14c-0.264,1.19-0.773,2.312-1.496,3.294c-0.837,1.203-1.977,2.163-3.306,2.781&#xA;			c-1.373,0.619-2.865,0.93-4.371,0.911c-1.366,0.015-2.723-0.227-4.001-0.711c-1.183-0.451-2.259-1.144-3.161-2.033&#xA;			c-0.899-0.894-1.598-1.968-2.051-3.152c-0.489-1.286-0.732-2.652-0.716-4.028c-0.018-1.413,0.229-2.818,0.728-4.141&#xA;			c0.459-1.208,1.166-2.306,2.075-3.225L207.175-60.442z"/>
		<path id="Logo_Symbol_Red_on_Black" class="st1" d="M100.345-58.83c-0.018,0.546,0.025,1.158-0.827,1.437&#xA;			c-0.505,0.165-1.126-0.525-1.16-1.007c0.252-0.337,0.598-0.592,0.994-0.735C100.146-59.434,100.334-59.491,100.345-58.83z&#xA;			 M85.695-57.393c-0.853-0.28-0.809-0.891-0.827-1.437c0.012-0.661,0.199-0.604,0.993-0.304c0.395,0.143,0.741,0.398,0.993,0.735&#xA;			c-0.034,0.484-0.654,1.172-1.16,1.007L85.695-57.393z M105.013-41.412c0.522-0.248,0.996-0.586,1.401-0.998&#xA;			c1.99-2.125,2.377-4.573,2.615-7.407c0.062-0.738,0.049-1.482,0.088-2.24c0.005-0.116,0.024-0.642,0.077-0.641&#xA;			c0.156,0.172,0.28,0.37,0.366,0.586c0.244,0.66,0.399,1.35,0.461,2.051c0.228,1.378,0.267,2.781,0.117,4.17&#xA;			c-0.068,0.483-0.229,0.949-0.473,1.372c-1.244,2.084-2.62,4.017-3.934,6.067c-0.109,0.169-0.188-0.156-0.263-0.211l-0.105-0.106&#xA;			c-0.298-0.161-0.414-0.18-0.558-0.082c-0.047,0.088-0.088,0.175-0.131,0.263c-0.307,0.681-0.862,1.77-1.249,2.473&#xA;			c-0.062,0.109-0.201,0.147-0.31,0.084c-0.071-0.04-0.114-0.115-0.114-0.196c0-0.782,0.005-1.564-0.005-2.346&#xA;			c-0.006-0.488,0.005-1.083-0.671-1.082c-0.659,0-0.679,0.576-0.688,1.076c-0.007,0.456,0,0.913,0,1.439&#xA;			c0.001,0.126-0.1,0.23-0.226,0.231c-0.044,0.001-0.087-0.012-0.124-0.035c-0.555-0.418-1.168-0.753-1.819-0.995&#xA;			c-1.053-0.422-2.247-0.29-3.183,0.35l0.142-0.129c0.797-0.724,1.894-1.017,2.945-0.788c0.287,0.062,0.582,0.086,0.876,0.07&#xA;			c0.124-0.007,0.22-0.113,0.214-0.238c-0.001-0.023-0.006-0.046-0.014-0.067c-0.408-1.085-1.683-5.061,0.938-6.411&#xA;			c0.069-0.034,0.117-0.099,0.128-0.175c0.092-0.73,1.423-3.887-2.194-5.946c-0.567,0.504-1.267,1.682-2.159,2.436&#xA;			c1.576,0.339,2.408-0.613,3.171-1.269c-0.313,1.839-1.744,1.97-2.885,2.638c0.983-0.422,1.96,0.151,3.128-0.466&#xA;			c-0.844,1.616-2.516,0.819-3.543,1.672c0.985,0.637,1.895,0.289,2.797,0.191c0.255-0.035,0.514-0.025,0.766,0.029&#xA;			c-0.212,0.308-0.459,0.591-0.735,0.844c-0.349,0.264-0.745,0.46-1.167,0.578c-0.43,0.136-0.888,0.148-1.325,0.036&#xA;			c-1.291-0.404-2.558-0.884-3.817-1.38c-0.245-0.117-0.427-0.334-0.499-0.595c-0.079-0.41,0.016-0.848-0.024-1.271&#xA;			c-0.1-0.536,0.252-1.053,0.788-1.155c1.186-0.329,2.226-1.046,2.956-2.037c0.244-0.354,0.419-0.751,0.517-1.17&#xA;			c0-0.008,0-0.016,0-0.024c0.003-0.386-0.065-0.77-0.199-1.132c-0.075-0.288-0.068-0.592,0.022-0.876l0.022-0.094&#xA;			c0-0.004,0-0.009,0-0.013h0.005l0.257-1.102c0.085-0.341,0.29-0.641,0.577-0.844l0.078-0.047c0.031-0.025,0.063-0.046,0.098-0.065&#xA;			c0.482-0.252,0.987-0.459,1.507-0.617c1.834-0.723,3.241-2.24,3.824-4.124c0.221-0.626,0.274-1.299,0.157-1.952&#xA;			c-0.175,0.356-0.446,1.071-0.613,1.431c-0.206,0.576-0.78,0.935-1.388,0.87c-1.677,0.012-3.292,0.295-4.21,2.043&#xA;			c-0.389,0.936-1.098,1.704-2,2.167c-0.015-0.507,0.062-1.013,0.229-1.493c-0.779-0.32-0.472-0.774-0.056-1.226&#xA;			c0.567-0.613,1.138-1.219,1.739-1.859c-0.507-0.126-0.971-0.384-1.346-0.748h3.278c0-0.033,0.005-0.066,0.009-0.099&#xA;			c-1.003-0.182-1.968-0.528-2.859-1.024c1.523-0.94,4.688-0.473,5.222-0.644c0.006-0.127-0.438-0.222-0.892-0.37&#xA;			c-1.051-0.271-1.446-0.356-2.494-0.64c-1.041-0.283-2.044-0.689-2.988-1.211h4.305c-1.464-0.832-3.078-1.368-4.749-1.576&#xA;			c-0.945-0.06-1.626-0.059-2.208-0.049l-0.004-0.276v0.276c-0.583-0.01-1.263-0.011-2.208,0.049&#xA;			c-1.672,0.208-3.286,0.744-4.75,1.576h4.305c-0.944,0.522-1.947,0.929-2.989,1.211c-1.051,0.283-1.443,0.368-2.493,0.64&#xA;			c-0.455,0.148-0.898,0.243-0.892,0.37c0.534,0.175,3.7-0.295,5.222,0.644c-0.89,0.495-1.856,0.841-2.858,1.024&#xA;			c0,0.033,0.005,0.066,0.009,0.099h3.278c-0.375,0.364-0.838,0.622-1.345,0.748c0.6,0.64,1.173,1.246,1.739,1.859&#xA;			c0.416,0.45,0.723,0.904-0.056,1.226c0.167,0.479,0.245,0.985,0.23,1.493c-0.902-0.463-1.611-1.231-2.001-2.167&#xA;			c-0.917-1.751-2.533-2.031-4.21-2.043c-0.608,0.066-1.182-0.294-1.388-0.87c-0.166-0.36-0.438-1.074-0.613-1.431&#xA;			c-0.118,0.653-0.063,1.326,0.158,1.952c0.582,1.884,1.989,3.401,3.824,4.124c0.52,0.159,1.024,0.365,1.506,0.617&#xA;			c0.035,0.019,0.067,0.04,0.098,0.065c0.025,0.015,0.052,0.03,0.078,0.047c0.287,0.203,0.492,0.503,0.577,0.844l0.257,1.102h0.004&#xA;			c0,0.004,0,0.009,0,0.013l0.022,0.094c0.089,0.284,0.096,0.588,0.021,0.876c-0.134,0.362-0.201,0.746-0.199,1.132&#xA;			c0.001,0.008,0.001,0.016,0,0.024c0.098,0.419,0.274,0.816,0.518,1.17c0.729,0.991,1.77,1.708,2.955,2.037&#xA;			c0.536,0.102,0.888,0.619,0.788,1.155c-0.038,0.421,0.055,0.861-0.024,1.271c-0.072,0.261-0.254,0.478-0.499,0.595&#xA;			c-1.259,0.496-2.527,0.976-3.817,1.38c-0.436,0.112-0.895,0.1-1.325-0.035c-0.422-0.118-0.817-0.314-1.167-0.578&#xA;			c-0.275-0.253-0.522-0.536-0.734-0.844c0.251-0.054,0.51-0.064,0.765-0.029c0.904,0.098,1.812,0.446,2.802-0.191&#xA;			c-1.028-0.853-2.7-0.055-3.543-1.672c1.167,0.613,2.145,0.044,3.127,0.466c-1.138-0.668-2.573-0.801-2.885-2.638&#xA;			c0.764,0.655,1.598,1.608,3.172,1.269c-0.892-0.754-1.592-1.932-2.16-2.436c-3.617,2.059-2.287,5.217-2.194,5.946&#xA;			c0.011,0.076,0.059,0.142,0.128,0.175c2.621,1.35,1.345,5.326,0.937,6.411c-0.025,0.068-0.016,0.143,0.023,0.203&#xA;			c0.039,0.06,0.104,0.098,0.175,0.102c0.294,0.016,0.588-0.008,0.876-0.07c1.051-0.229,2.149,0.065,2.945,0.788l0.143,0.129&#xA;			c-0.936-0.64-2.129-0.772-3.182-0.35c-0.652,0.242-1.265,0.577-1.82,0.995c-0.107,0.067-0.248,0.035-0.315-0.072&#xA;			c-0.024-0.037-0.035-0.08-0.035-0.124c0-0.525,0-0.982,0-1.439c-0.008-0.501-0.028-1.074-0.688-1.076&#xA;			c-0.676,0-0.664,0.595-0.672,1.082c-0.011,0.782-0.007,1.564-0.005,2.346C82.226-36.101,82.125-36,82-36&#xA;			c-0.081,0-0.156-0.044-0.197-0.114c-0.386-0.7-0.941-1.792-1.249-2.473c-0.039-0.088-0.088-0.175-0.131-0.263&#xA;			c-0.144-0.099-0.263-0.08-0.558,0.082l-0.105,0.106c-0.074,0.055-0.154,0.38-0.263,0.211c-1.313-2.052-2.691-3.983-3.934-6.067&#xA;			c-0.245-0.423-0.405-0.889-0.473-1.372c-0.15-1.389-0.111-2.792,0.117-4.17c0.062-0.701,0.217-1.391,0.461-2.051&#xA;			c0.086-0.216,0.209-0.414,0.365-0.586c0.053,0,0.072,0.525,0.077,0.641c0.038,0.757,0.025,1.502,0.088,2.24&#xA;			c0.238,2.834,0.625,5.282,2.615,7.407c0.405,0.413,0.879,0.751,1.401,0.999c0.117,0.046,0.249-0.011,0.296-0.127&#xA;			c0.024-0.059,0.021-0.126-0.007-0.184c-0.607-1.236-1.262-2.452-1.751-3.733c-0.498-1.306-0.832-2.676-1.215-4.028&#xA;			c-0.035-0.12,0.033-0.245,0.153-0.281c0.044-0.013,0.091-0.012,0.135,0.002c0.284,0.098,0.664,0.253,0.963,0.369&#xA;			c0.117,0.044,0.248-0.014,0.292-0.131c0.018-0.046,0.02-0.096,0.006-0.143c-0.379-1.305-1.611-5.122-1.611-5.122&#xA;			c0.074,0.088,0.795,1.138,0.846,1.232c0.578,0.931,1.086,1.905,1.519,2.912c0.206,0.532,0.374,0.917,0.465,1.118&#xA;			c0.041,0.088,0.057,0.192-0.018,0.256c-1.023,0.867-0.195,2.52,0.238,3.035c0.599,0.72,1.03,1.564,1.263,2.471&#xA;			c0.061,0.186,0.141,0.451,0.229,0.73c0.043,0.117,0.173,0.177,0.29,0.134c0.09-0.033,0.15-0.121,0.148-0.217&#xA;			c-0.077-1.167-0.283-2.751-0.668-3.114c-0.594-0.559-0.469-2.484,0.197-2.827c0.619-0.319,0.758-0.658,0.446-1.201&#xA;			c-0.065-0.11-0.029-0.252,0.081-0.317c0,0,0.001-0.001,0.002-0.001l2.847-1.63c0.109-0.062,0.148-0.201,0.086-0.31&#xA;			c-0.034-0.06-0.094-0.102-0.162-0.113c-0.988-0.09-1.972,0.2-2.754,0.81c-0.595,0.353-1.363,0.156-1.716-0.439&#xA;			c-0.049-0.082-0.088-0.17-0.117-0.262c-0.06-0.144-0.11-0.293-0.15-0.444c-0.033-0.123,0.079-0.228,0.201-0.263&#xA;			c1.401-0.35,1.611-0.422,1.681-0.847c0.019-0.124-0.066-0.241-0.19-0.26c-0.011-0.002-0.022-0.003-0.032-0.003&#xA;			c-0.488,0.071-0.986,0.01-1.442-0.175c-0.271-0.276-0.448-0.631-0.505-1.013c-0.034-0.121,0.036-0.247,0.157-0.281&#xA;			c0.05-0.014,0.102-0.011,0.15,0.009c0.494,0.21,0.629,0.203,0.9-0.005c0.102-0.079,0.121-0.225,0.042-0.327&#xA;			c-0.002-0.002-0.003-0.003-0.004-0.005c-0.061-0.077-0.13-0.147-0.206-0.209c-1.027-0.801-2.605-5.227-2.552-6.533&#xA;			c-0.413,0.353-0.721,0.811-0.891,1.327c-1.085-0.443-1.912-0.582-1.758-2.112l1.201,0.622c0,0,0.063-0.465-0.581-1.003&#xA;			c-1.382-1.155-1.591-2.691-1.635-4.36c-0.07-0.809,0.529-1.521,1.338-1.592c0.312-0.027,0.624,0.046,0.891,0.209&#xA;			c2.682,1.261,6.378,2.531,9.43,2.139l0.1-0.021l0.01-0.005l-0.007,0.004c1.899-0.392,3.831-0.597,5.769-0.613h0.017&#xA;			c1.939,0.016,3.871,0.221,5.769,0.613l-0.007-0.004l0.009,0.005l0.101,0.021c3.051,0.391,6.743-0.876,9.429-2.139&#xA;			c0.693-0.423,1.598-0.204,2.021,0.49c0.163,0.268,0.237,0.581,0.209,0.893c-0.044,1.669-0.253,3.206-1.636,4.36&#xA;			c-0.644,0.539-0.581,1.003-0.581,1.003l1.201-0.622c0.154,1.53-0.674,1.669-1.758,2.112c-0.171-0.515-0.479-0.974-0.891-1.327&#xA;			c0.053,1.306-1.525,5.732-2.552,6.533c-0.076,0.062-0.145,0.132-0.207,0.209c-0.041,0.049-0.059,0.112-0.052,0.175&#xA;			c0.007,0.062,0.038,0.119,0.088,0.158c0.271,0.208,0.405,0.215,0.901,0.005c0.115-0.049,0.248,0.006,0.297,0.121&#xA;			c0.02,0.048,0.023,0.101,0.009,0.151c-0.057,0.382-0.233,0.737-0.504,1.013c-0.457,0.186-0.955,0.246-1.443,0.175&#xA;			c-0.126,0.002-0.227,0.106-0.225,0.232c0,0.01,0.001,0.02,0.003,0.031c0.07,0.425,0.277,0.496,1.68,0.847&#xA;			c0.123,0.031,0.235,0.136,0.201,0.263c-0.04,0.151-0.09,0.3-0.15,0.444c-0.209,0.66-0.913,1.025-1.573,0.817&#xA;			c-0.091-0.029-0.178-0.068-0.26-0.116c-0.782-0.61-1.766-0.9-2.754-0.81c-0.124,0.02-0.208,0.137-0.188,0.261&#xA;			c0.011,0.068,0.053,0.128,0.113,0.162l2.847,1.63c0.111,0.065,0.148,0.207,0.083,0.318c0,0,0,0,0,0&#xA;			c-0.313,0.545-0.175,0.884,0.445,1.201c0.667,0.342,0.788,2.269,0.198,2.827c-0.385,0.363-0.591,1.947-0.669,3.114&#xA;			c-0.003,0.125,0.096,0.228,0.221,0.231c0.096,0.002,0.183-0.057,0.217-0.148c0.088-0.279,0.167-0.544,0.229-0.73&#xA;			c0.233-0.907,0.664-1.751,1.263-2.471c0.438-0.515,1.262-2.168,0.239-3.035c-0.065-0.07-0.073-0.176-0.019-0.256&#xA;			c0.088-0.201,0.263-0.586,0.465-1.118c0.433-1.007,0.941-1.981,1.519-2.912c0.052-0.097,0.772-1.148,0.846-1.232&#xA;			c0,0-1.231,3.817-1.61,5.122c-0.035,0.12,0.035,0.246,0.155,0.281c0.047,0.013,0.097,0.011,0.142-0.006&#xA;			c0.299-0.116,0.679-0.271,0.963-0.369c0.118-0.04,0.245,0.024,0.285,0.141c0.015,0.044,0.016,0.092,0.002,0.137&#xA;			c-0.383,1.35-0.715,2.721-1.215,4.028c-0.49,1.28-1.145,2.497-1.751,3.733c-0.056,0.112-0.01,0.248,0.102,0.304&#xA;			c0.058,0.029,0.127,0.032,0.187,0.007L105.013-41.412z M86.299-51.495l-0.125,0.064C86.219-51.453,86.262-51.473,86.299-51.495&#xA;			L86.299-51.495z M81.159-68.169c0.237,0.058,0.465,0.112,0.684,0.159c-0.223-0.069-0.451-0.123-0.682-0.159L81.159-68.169z&#xA;			 M80.86-67.843c-3.162-0.248-2.576,2.084-1.963,3.469l0.51,0.845c0.03,0.034,0.055,0.072,0.073,0.114&#xA;			c0,0.008,0.007,0.016,0.01,0.024l0,0c0.788,1.859,1.443,5.812,5.236,7.328c-0.145-0.084-0.29-0.177-0.434-0.279&#xA;			c-1.094-0.927-1.989-2.065-2.632-3.346c-1.694-3.407-1.249-5.544-1.455-6.392c0.328,0.114,1.489,0.363,1.716,0.443&#xA;			c0.022-0.053-2.038-0.946-2.627-1.256c0.261-0.163,0.553-0.268,0.858-0.309c1.336-0.138,1.839,0.285,2.704,0.409&#xA;			c0.579,0.052,1.162,0.006,1.726-0.135L80.86-67.843z M98.912-51.494c0.038,0.022,0.08,0.043,0.125,0.064L98.912-51.494z&#xA;			 M103.369-68.009c0.219-0.049,0.446-0.102,0.684-0.159C103.821-68.132,103.593-68.079,103.369-68.009L103.369-68.009z&#xA;			 M105.721-63.39L105.721-63.39c0-0.008,0.007-0.016,0.011-0.024c0.018-0.042,0.042-0.08,0.073-0.114l0.51-0.845&#xA;			c0.613-1.385,1.199-3.717-1.962-3.469l-3.725,0.913c0.564,0.141,1.147,0.187,1.726,0.135c0.865-0.124,1.368-0.547,2.704-0.409&#xA;			c0.305,0.041,0.597,0.146,0.858,0.309c-0.587,0.31-2.647,1.203-2.627,1.256c0.23-0.08,1.39-0.329,1.716-0.443&#xA;			c-0.207,0.853,0.237,2.989-1.456,6.392c-0.643,1.281-1.538,2.419-2.632,3.346c-0.144,0.102-0.288,0.195-0.434,0.279&#xA;			C104.278-57.582,104.933-61.531,105.721-63.39L105.721-63.39z M92.597-51.284c-0.454,0-0.946,0-1.576-0.011&#xA;			c-0.573,0.009-1.142-0.101-1.67-0.322c-0.295-0.206-0.443-0.567-0.377-0.921c0.032-0.477,0.653-0.814,0.653-0.814&#xA;			c-0.023,1.116,0.946,1.416,2.968,1.433h0.018c2.022-0.018,2.99-0.317,2.968-1.433c0,0,0.62,0.337,0.652,0.814&#xA;			c0.066,0.355-0.082,0.715-0.378,0.921c-0.528,0.221-1.097,0.331-1.67,0.322c-0.628,0.011-1.119,0.015-1.576,0.011l-0.009-0.05&#xA;			L92.597-51.284z M92.606-39.324c0.059,1.473-2.471,1.6-4.609,0.32c-0.121-0.455,0.114-1.239-0.134-1.411&#xA;			c-0.369-0.255-0.955,0.081-1.327,0.318s-0.613,0.691-0.977,0.975c0.158-2.277,2.427-4.341,5.916-4.536&#xA;			c0.383-0.021,0.77-0.046,1.13-0.045s0.748,0.024,1.13,0.045c3.488,0.194,5.759,2.261,5.916,4.536&#xA;			c-0.368-0.284-0.604-0.737-0.977-0.975c-0.373-0.237-0.959-0.572-1.327-0.318c-0.248,0.175-0.014,0.955-0.134,1.411&#xA;			C95.077-37.725,92.546-37.851,92.606-39.324z"/>
	</g>
</g>
</svg>