<?xml version="1.0" encoding="utf-8"?>
<svg xmlns="http://www.w3.org/2000/svg" xmlns:xlink="http://www.w3.org/1999/xlink" version="1.1" id="Layer_1" x="0px" y="0px" viewBox="0 0 111.053 34" style="enable-background:new 0 0 111.053 34;">
<style type="text/css">
	.st0{fill:#FFFFFF;}
</style>
<g>
	<g>
		<path class="st0" d="M7.316,30.632c0,1.263-0.316,2.105-1.053,2.737c-0.421,0.421-1.053,0.526-1.895,0.526&#xA;			c-1.053,0-1.789-0.421-2.421-1.158C1.421,32,1.211,31.263,1.211,30.421c0-1.053,0.211-1.895,0.842-2.632&#xA;			C2.368,27.474,2.684,27.158,3,26.947c0.421-0.211,0.842-0.316,1.368-0.316s0.947,0.105,1.474,0.211&#xA;			c0.421,0.105,0.737,0.316,0.947,0.632c0.105,0.105,0.105,0.211,0.105,0.316s0,0.211-0.105,0.316&#xA;			c-0.105,0.105-0.211,0.105-0.316,0.105c-0.105,0-0.211,0-0.316-0.105c-0.316-0.211-0.526-0.421-0.737-0.526&#xA;			c-0.316-0.105-0.526-0.211-0.947-0.211c-0.737,0-1.368,0.316-1.789,0.947c-0.316,0.526-0.526,1.158-0.526,1.895&#xA;			C2.158,31.263,2.474,32,3,32.632c0.316,0.316,0.737,0.526,1.263,0.526c0.316,0,0.737-0.105,1.053-0.211&#xA;			c0.737-0.316,1.158-1.053,1.158-2v-0.316H5.211c-0.211,0-0.421-0.105-0.421-0.421c0-0.316,0.105-0.421,0.421-0.421h1.579&#xA;			c0.316,0,0.526,0.316,0.526,0.737V30.632z"/>
		<path class="st0" d="M109.947,30.632c0,1.263-0.316,2.105-1.053,2.737c-0.421,0.421-1.053,0.526-1.895,0.526&#xA;			c-1.053,0-1.789-0.421-2.421-1.158c-0.526-0.737-0.737-1.474-0.737-2.316c0-1.053,0.211-1.895,0.842-2.632&#xA;			c0.316-0.316,0.632-0.632,0.947-0.842c0.421-0.211,0.842-0.316,1.368-0.316s0.947,0.105,1.474,0.211&#xA;			c0.421,0.105,0.737,0.316,0.947,0.632c0.105,0.105,0.105,0.211,0.105,0.316s0,0.211-0.105,0.316s-0.211,0.105-0.316,0.105&#xA;			c-0.105,0-0.211,0-0.316-0.105c-0.316-0.211-0.526-0.421-0.737-0.526c-0.316-0.105-0.526-0.211-0.947-0.211&#xA;			c-0.737,0-1.368,0.316-1.789,0.947c-0.316,0.526-0.526,1.158-0.526,1.895c0,1.053,0.316,1.789,0.842,2.421&#xA;			c0.316,0.316,0.737,0.526,1.263,0.526c0.316,0,0.737-0.105,1.053-0.211c0.737-0.316,1.158-1.053,1.158-2v-0.316h-1.263&#xA;			c-0.211,0-0.421-0.105-0.421-0.421c0-0.316,0.105-0.421,0.421-0.421h1.579c0.421,0,0.632,0.211,0.632,0.632v0.211H109.947z"/>
		<path class="st0" d="M50.789,33.368c0,0.421-0.105,0.632-0.421,0.632c-0.211,0-0.421-0.105-0.421-0.421l-0.842-5.789l-1.684,5.789&#xA;			c-0.105,0.211-0.211,0.316-0.421,0.316s-0.421-0.105-0.421-0.316l-1.684-5.789l-0.842,5.789c0,0.316-0.211,0.421-0.526,0.421&#xA;			c-0.211,0-0.421-0.211-0.421-0.526c0-0.105,0-0.105,0-0.211l1.053-6c0-0.211,0.105-0.316,0.211-0.421&#xA;			c0.105-0.105,0.316-0.211,0.421-0.211c0.211,0,0.316,0,0.421,0.105c0.105,0.105,0.211,0.211,0.211,0.316l1.474,5.158l0,0&#xA;			l1.474-5.263c0-0.105,0.105-0.211,0.211-0.316s0.211-0.105,0.421-0.105c0.211,0,0.316,0,0.421,0.105&#xA;			c0.105,0.105,0.211,0.211,0.211,0.421L50.789,33.368z"/>
		<path class="st0" d="M67.211,33.474c0,0.316-0.105,0.526-0.421,0.526s-0.421-0.105-0.421-0.421v-6.316&#xA;			c0-0.316,0.105-0.421,0.421-0.421c0.316,0,0.421,0.105,0.421,0.421V33.474z"/>
		<path class="st0" d="M88.368,33.474c0,0.316-0.105,0.421-0.421,0.421c-0.211,0-0.316-0.105-0.526-0.316l-3.789-5.368v5.158&#xA;			c0,0.316-0.105,0.421-0.421,0.421c-0.316,0-0.421-0.105-0.421-0.421v-6.316c0-0.316,0.105-0.421,0.316-0.421&#xA;			s0.316,0.105,0.526,0.316l3.684,5.368l0,0v-5.158c0-0.105,0-0.211,0.105-0.316c0.105-0.105,0.211-0.105,0.316-0.105&#xA;			c0.316,0,0.421,0.105,0.421,0.421v6.316H88.368z"/>
		<path class="st0" d="M28.158,33.579c0,0.211-0.105,0.316-0.421,0.316c-0.105,0-0.211,0-0.316-0.105c-0.105,0-0.105,0-0.105-0.105&#xA;			l-0.421-1.263h-3.263L23,33.684C22.895,33.895,22.789,34,22.579,34c-0.211,0-0.421-0.105-0.421-0.316v-0.105v-0.105l2.316-6.105&#xA;			c0.105-0.211,0.105-0.316,0.211-0.421c0.105-0.105,0.211-0.105,0.316-0.105c0.105,0,0.211,0,0.421,0.105&#xA;			c0.105,0.105,0.211,0.211,0.211,0.421l2.316,6.105C28.158,33.474,28.158,33.579,28.158,33.579 M26.579,31.579l-1.368-3.895l0,0&#xA;			l-1.474,3.895H26.579z"/>
	</g>
	<g>
		<g>
			<circle class="st0" cx="92.368" cy="2.842" r="2.842"/>
			<path class="st0" d="M110.053,2.842c0,1.579-1.263,2.842-2.842,2.842c-1.579,0-2.842-1.263-2.842-2.842S105.632,0,107.21,0&#xA;				C108.789,0,110.053,1.263,110.053,2.842z"/>
			<circle class="st0" cx="92.368" cy="16.737" r="2.842"/>
			<path class="st0" d="M110.053,16.737c0,1.579-1.263,2.842-2.842,2.842c-1.579,0-2.842-1.263-2.842-2.842&#xA;				c0-1.579,1.263-2.842,2.842-2.842C108.789,13.895,110.053,15.158,110.053,16.737z"/>
			<path class="st0" d="M102.684,9.789c0,1.579-1.263,2.842-2.842,2.842S97,11.368,97,9.789s1.263-2.842,2.842-2.842&#xA;				C101.421,6.947,102.684,8.211,102.684,9.789z"/>
		</g>
		<g>
			<path class="st0" d="M84.789,18.947L76.895,0.316l0,0C76.789,0.105,76.684,0,76.474,0l0,0h-1.579h-0.211h-1.579l0,0&#xA;				c-0.211,0-0.316,0.105-0.421,0.316l0,0l-8,18.632v0.105c0,0.211,0.105,0.316,0.316,0.316h3.579c0.211,0,0.316-0.105,0.421-0.316&#xA;				l0,0l1.684-4.316h8.421l1.684,4.316l0,0c0.105,0.211,0.211,0.316,0.421,0.316h3.579c0.211,0,0.316-0.105,0.316-0.316&#xA;				C84.895,19.053,84.895,18.947,84.789,18.947z M71.842,11.368l2.947-7.474l2.947,7.474H71.842z"/>
			<path class="st0" d="M28.684,6c0.211-0.737,0.526-1.053,0.526-1.053s0.421-0.737,1.368-1.158&#xA;				c0.947-0.421,1.789-0.421,1.789-0.421h7.053c0.211,0,0.421-0.211,0.421-0.421V0.421C39.842,0.211,39.632,0,39.421,0h-7.789l0,0&#xA;				c-4.316,0-7.789,3.789-7.789,8.421v1.158v0.105v0.211V10v1.158c0,4.632,3.474,8.421,7.789,8.421l0,0h7.789&#xA;				c0.211,0,0.421-0.211,0.421-0.421v-2.632c0-0.211-0.211-0.421-0.421-0.421h-7.053c0,0-0.947,0-1.789-0.421&#xA;				c-0.947-0.421-1.368-1.158-1.368-1.158s-0.316-0.421-0.526-1.053c-0.211-0.737-0.211-1.684-0.211-1.684v-0.421h10.947&#xA;				c0.211,0,0.421-0.211,0.421-0.421V8.316c0-0.211-0.211-0.421-0.421-0.421H28.474V7.684C28.474,7.684,28.579,6.737,28.684,6z"/>
			<path class="st0" d="M52.895,19.368h6.421c0.211,0,0.316-0.211,0.316-0.421v-2.632c0-0.211-0.105-0.421-0.316-0.421h-5.789&#xA;				c0,0-0.737,0-1.474-0.421s-1.158-1.158-1.158-1.158s-0.421-0.421-0.421-1.158c0-0.632,0-1.474,0-1.474V9.789V0.316l0,0&#xA;				C50.474,0.105,50.368,0,50.158,0h-3.368c-0.211,0-0.421,0.211-0.421,0.421c0,0,0,0,0,0.105v9.368l0,0v1.263l0,0v2v0.105&#xA;				C46.474,16.632,49.316,19.368,52.895,19.368"/>
			<path class="st0" d="M18.368,18.947L18.368,18.947l-4.526-7.579l0,0l0,0c2.316-0.526,3.895-2.105,3.895-5.579&#xA;				C17.842,1.158,14.684,0.105,10.789,0H9.842H1.421C1.211,0,1,0.211,1,0.421l0,0v18.632l0,0c0,0.211,0.211,0.421,0.421,0.421h3.368&#xA;				c0.211,0,0.421-0.211,0.421-0.421v-7.263h4.737l4.211,7.368l0,0c0.105,0.211,0.316,0.316,0.526,0.316h3.579l0,0l0,0&#xA;				c0.211,0,0.316-0.105,0.316-0.316C18.368,19.053,18.368,18.947,18.368,18.947z M10.895,8.316L9.842,8.421H5.105V3.474h4.842&#xA;				h0.947c2.211,0,2.842,1.053,2.842,2.421C13.632,7.263,13,8.316,10.895,8.316z"/>
		</g>
	</g>
</g>
</svg>