<?xml version="1.0" encoding="utf-8"?>
<svg xmlns="http://www.w3.org/2000/svg" width="24" height="24" viewBox="0 0 24 24" fill="none">
<path fill-rule="evenodd" clip-rule="evenodd" d="M11.6465 12.8536C12.8181 14.0252 14.7176 14.0252 15.8891 12.8536C17.0607 11.6821 17.0607 9.78256 15.8891 8.61099C14.7176 7.43941 12.8181 7.43941 11.6465 8.61099C10.4749 9.78256 10.4749 11.6821 11.6465 12.8536ZM13.0607 11.4394C13.4512 11.8299 14.0844 11.8299 14.4749 11.4394C14.8655 11.0489 14.8655 10.4157 14.4749 10.0252C14.0844 9.63468 13.4512 9.63467 13.0607 10.0252C12.6702 10.4157 12.6702 11.0489 13.0607 11.4394Z" fill="#000000"/>
<path fill-rule="evenodd" clip-rule="evenodd" d="M20.8389 3.66123C20.4149 3.23732 19.8196 3.06617 19.2966 2.99485C18.7425 2.91927 18.0987 2.93324 17.4109 3.01614C16.0308 3.18246 14.344 3.64235 12.5839 4.39186C12.3332 4.49861 12.0803 4.6116 11.8257 4.73086L8.78869 2.97259C8.46163 2.78323 8.05575 2.79444 7.73963 3.00155L2.61311 6.36031C2.36134 6.52526 2.19726 6.79484 2.1664 7.09425C2.13554 7.39366 2.24119 7.69104 2.45402 7.90388L4.60252 10.0524C3.88999 10.8611 3.23505 11.7431 2.66274 12.7003L2.26274 13.3694L11.1307 22.2374L11.7998 21.8374C12.757 21.2651 13.639 20.6101 14.4477 19.8976L16.5961 22.046C16.809 22.2588 17.1064 22.3645 17.4058 22.3336C17.7052 22.3028 17.9748 22.1387 18.1397 21.8869L21.4985 16.7604C21.7056 16.4443 21.7168 16.0384 21.5274 15.7113L19.7692 12.6744C19.8885 12.4199 20.0015 12.1669 20.1082 11.9162C20.8578 10.1561 21.3176 8.46929 21.484 7.08923C21.5668 6.40143 21.5808 5.7576 21.5052 5.20345C21.4339 4.68051 21.2628 4.08515 20.8389 3.66123ZM11.4281 19.7063L4.79381 13.072C5.17119 12.5081 5.58236 11.9742 6.02007 11.4699L13.0302 18.48C12.5259 18.9177 11.992 19.3289 11.4281 19.7063ZM14.4633 17.0847L7.41543 10.0368C9.25421 8.3466 11.3709 7.0822 13.3675 6.23196C14.9888 5.54157 16.4917 5.14139 17.6502 5.00177C18.2317 4.93169 18.6943 4.93121 19.0264 4.9765C19.2771 5.0107 19.3884 5.0618 19.4216 5.07847C19.4383 5.11166 19.4894 5.22298 19.5236 5.47372C19.5689 5.8058 19.5684 6.26844 19.4983 6.84992C19.3587 8.00841 18.9585 9.51134 18.2681 11.1326C17.4179 13.1292 16.1535 15.2459 14.4633 17.0847ZM8.32008 5.01228L9.74269 5.8359C8.45679 6.60201 7.17973 7.52816 5.99995 8.62137L4.73784 7.35927L8.32008 5.01228ZM18.6642 14.7574C17.8981 16.0433 16.9719 17.3204 15.8787 18.5002L17.1408 19.7622L19.4877 16.18L18.6642 14.7574Z" fill="#000000"/>
<path d="M5.98958 18.5105C5.59905 18.12 4.96589 18.12 4.57536 18.5105L3.86826 19.2176C3.47773 19.6081 3.47773 20.2413 3.86826 20.6318C4.25878 21.0223 4.89195 21.0223 5.28247 20.6318L5.98958 19.9247C6.3801 19.5342 6.3801 18.901 5.98958 18.5105Z" fill="#000000"/>
<path d="M1.74699 15.682C2.13752 15.2915 2.77068 15.2915 3.16121 15.682C3.55173 16.0726 3.55173 16.7057 3.16121 17.0963C2.77068 17.4868 2.13752 17.4868 1.74699 17.0963C1.35647 16.7057 1.35647 16.0726 1.74699 15.682Z" fill="#000000"/>
<path d="M8.81807 21.3389C8.42754 20.9484 7.79438 20.9484 7.40385 21.3389C7.01333 21.7294 7.01333 22.3626 7.40385 22.7531C7.79438 23.1436 8.42754 23.1436 8.81807 22.7531C9.20859 22.3626 9.20859 21.7294 8.81807 21.3389Z" fill="#000000"/>
<defs>
<linearGradient id="paint0_linear_6330_56210" x1="1.4541" y1="2.83801" x2="22.8688" y2="4.20995" gradientUnits="userSpaceOnUse">
<stop stop-color="#FFDC86"/>
<stop offset="0.550621" stop-color="#FFAD7B"/>
<stop offset="1" stop-color="#FFD492"/>
</linearGradient>
<linearGradient id="paint1_linear_6330_56210" x1="1.4541" y1="2.83801" x2="22.8688" y2="4.20995" gradientUnits="userSpaceOnUse">
<stop stop-color="#FFDC86"/>
<stop offset="0.550621" stop-color="#FFAD7B"/>
<stop offset="1" stop-color="#FFD492"/>
</linearGradient>
<linearGradient id="paint2_linear_6330_56210" x1="1.4541" y1="2.83801" x2="22.8688" y2="4.20995" gradientUnits="userSpaceOnUse">
<stop stop-color="#FFDC86"/>
<stop offset="0.550621" stop-color="#FFAD7B"/>
<stop offset="1" stop-color="#FFD492"/>
</linearGradient>
<linearGradient id="paint3_linear_6330_56210" x1="1.4541" y1="2.83801" x2="22.8688" y2="4.20995" gradientUnits="userSpaceOnUse">
<stop stop-color="#FFDC86"/>
<stop offset="0.550621" stop-color="#FFAD7B"/>
<stop offset="1" stop-color="#FFD492"/>
</linearGradient>
<linearGradient id="paint4_linear_6330_56210" x1="1.4541" y1="2.83801" x2="22.8688" y2="4.20995" gradientUnits="userSpaceOnUse">
<stop stop-color="#FFDC86"/>
<stop offset="0.550621" stop-color="#FFAD7B"/>
<stop offset="1" stop-color="#FFD492"/>
</linearGradient>
</defs>
</svg>