<?xml version="1.0" encoding="utf-8"?>
<svg xmlns="http://www.w3.org/2000/svg" xmlns:xlink="http://www.w3.org/1999/xlink" version="1.1" id="Layer_1" x="0px" y="0px" viewBox="0 0 202.018 34" style="enable-background:new 0 0 202.018 34;">
<style type="text/css">
	.st0{fill:#BD9A61;}
	.st1{fill:#BA1218;}
</style>
<g>
	<g>
		<path class="st0" d="M46.256,16.727c-1.539-1.142-2.531-1.911-2.978-2.283c-0.248-0.248-0.546-0.571-0.869-0.943&#xA;			c-0.323-0.397-0.496-0.918-0.496-1.564c0-0.844,0.248-1.514,0.745-2.01c0.496-0.496,1.166-0.745,2.035-0.745&#xA;			c1.836,0,2.928,1.092,3.251,3.301h0.67V9.182c0-0.149-0.025-0.248-0.099-0.298c-0.347-0.397-1.539-0.596-3.574-0.596&#xA;			c-1.514,0-2.78,0.372-3.822,1.067c-1.191,0.819-1.787,1.961-1.787,3.4c0,0.869,0.223,1.588,0.695,2.209&#xA;			c0.447,0.596,1.291,1.34,2.507,2.209c1.911,1.34,3.177,2.358,3.772,3.102c0.62,0.72,0.918,1.539,0.918,2.457&#xA;			c0,0.968-0.323,1.762-0.968,2.407c-0.645,0.645-1.464,0.943-2.482,0.943c-1.415,0-2.507-0.571-3.301-1.712&#xA;			c-0.323-0.472-0.546-1.241-0.745-2.358h-0.645v3.623c0,0.273,0.099,0.447,0.298,0.546c0.347,0.174,0.968,0.347,1.836,0.496&#xA;			c0.893,0.149,1.688,0.248,2.382,0.248c1.886,0,3.4-0.447,4.566-1.39c1.166-0.918,1.737-2.134,1.737-3.648&#xA;			c0-0.943-0.273-1.787-0.769-2.507C48.614,18.638,47.646,17.794,46.256,16.727z"/>
		<path class="st0" d="M59.658,13.426c-1.812,0-3.301,0.695-4.418,2.109v-2.109c-1.117,0.62-2.581,0.993-4.368,1.067v0.645h0.596&#xA;			c0.546,0,0.918,0.074,1.142,0.223c0.199,0.149,0.323,0.496,0.323,1.018v13.377c0,1.117-0.099,1.787-0.298,2.01&#xA;			c-0.199,0.223-0.769,0.422-1.787,0.546v0.67h7.023v-0.67c-1.291-0.124-2.06-0.298-2.283-0.521&#xA;			c-0.223-0.223-0.347-0.918-0.347-2.06v-3.474c0.993,0.397,1.961,0.596,2.904,0.596c1.961,0,3.574-0.695,4.864-2.085&#xA;			c1.291-1.39,1.936-3.177,1.936-5.311c0-1.861-0.472-3.326-1.439-4.418C62.537,13.972,61.271,13.426,59.658,13.426z M61.271,24.47&#xA;			c-0.745,1.042-1.787,1.564-3.127,1.564c-1.018,0-1.985-0.397-2.904-1.216v-4.517c0-1.365,0.074-2.382,0.199-3.003&#xA;			c0.397-1.762,1.415-2.655,3.053-2.655c1.191,0,2.134,0.472,2.829,1.415s1.042,2.258,1.042,3.921&#xA;			C62.388,21.939,62.016,23.428,61.271,24.47z"/>
		<path class="st0" d="M76.708,25.165c-0.347,0-0.571-0.149-0.72-0.422c-0.124-0.298-0.199-0.794-0.199-1.514v-5.708&#xA;			c0-1.439-0.347-2.482-1.018-3.127c-0.695-0.645-1.787-0.968-3.301-0.968c-1.216,0-2.308,0.223-3.276,0.67&#xA;			c-0.372,0.149-0.596,0.397-0.67,0.745l-0.397,1.439c-0.025,0.124,0.025,0.199,0.199,0.248l0.794,0.199&#xA;			c0.074,0.025,0.149,0.025,0.199,0.025c0.124,0,0.323-0.199,0.546-0.62c0.67-1.241,1.464-1.886,2.407-1.886&#xA;			c1.439,0,2.184,1.241,2.209,3.747l-2.804,1.092c-1.142,0.422-1.961,0.794-2.482,1.092c-1.291,0.769-1.961,1.836-1.961,3.201&#xA;			c0,1.042,0.298,1.861,0.918,2.507c0.62,0.645,1.415,0.968,2.407,0.968c0.546,0,1.166-0.248,1.861-0.72l1.985-1.315&#xA;			c0.05,0.72,0.248,1.39,0.62,2.035l3.648-1.166l-0.174-0.72C77.204,25.115,76.931,25.165,76.708,25.165z M73.506,20.996&#xA;			c0,2.854-0.943,4.269-2.804,4.269c-0.645,0-1.142-0.199-1.539-0.596c-0.372-0.397-0.571-0.943-0.571-1.564&#xA;			c0-1.415,0.869-2.482,2.631-3.226c0.571-0.248,1.34-0.521,2.283-0.869L73.506,20.996L73.506,20.996z"/>
		<path class="st0" d="M91.623,25.165c-0.62,0-0.918-0.645-0.918-1.936V7.619c-1.39,0.521-2.854,0.769-4.368,0.769v0.695h0.695&#xA;			c0.496,0,0.844,0.074,1.042,0.223c0.199,0.149,0.298,0.571,0.298,1.241v3.276c-0.869-0.273-1.812-0.422-2.804-0.422&#xA;			c-2.06,0-3.723,0.62-5.013,1.886s-1.911,2.904-1.911,4.914c0,1.886,0.546,3.45,1.663,4.74c1.117,1.266,2.457,1.911,4.07,1.911&#xA;			c0.62,0,1.365-0.273,2.258-0.794l1.712-1.018v0.174c0.05,0.645,0.223,1.191,0.571,1.638l3.698-1.166l-0.174-0.72&#xA;			C92.094,25.115,91.821,25.165,91.623,25.165z M88.397,22.162c0,1.018-0.149,1.712-0.447,2.035&#xA;			c-0.298,0.323-0.695,0.62-1.166,0.869c-0.521,0.248-1.018,0.397-1.489,0.397c-1.315,0-2.358-0.695-3.102-2.085&#xA;			c-0.62-1.142-0.943-2.432-0.943-3.872c0-1.39,0.323-2.581,0.968-3.574c0.745-1.117,1.787-1.663,3.102-1.663&#xA;			c1.34,0,2.358,0.521,3.077,1.564V22.162z"/>
		<path class="st0" d="M104.056,16.702c-0.67-2.209-2.184-3.276-4.517-3.276c-1.762,0-3.177,0.596-4.244,1.787&#xA;			c-1.142,1.291-1.712,2.854-1.712,4.715c0,1.911,0.571,3.599,1.737,5.013c1.092,1.315,2.755,1.961,5.013,1.961h0.67l3.35-1.588&#xA;			l-0.397-0.769c-1.166,0.596-2.159,0.869-2.978,0.869c-0.918,0-1.712-0.199-2.407-0.596c-1.638-0.918-2.482-2.705-2.507-5.336&#xA;			h8.289C104.354,18.315,104.255,17.397,104.056,16.702z M100.483,18.539h-4.418c0.074-0.769,0.174-1.365,0.273-1.762&#xA;			c0.496-1.663,1.489-2.507,3.003-2.507c0.794,0,1.464,0.273,1.985,0.794c0.521,0.521,0.794,1.191,0.794,1.985&#xA;			C102.121,18.042,101.575,18.539,100.483,18.539z"/>
		<path class="st0" d="M118.401,13.749l-0.298-0.323c-1.092,0.248-2.333,0.372-3.673,0.372c-0.223,0-0.447,0-0.67-0.025&#xA;			c-0.695-0.248-1.464-0.347-2.258-0.347c-1.514,0-2.78,0.397-3.723,1.191c-0.968,0.794-1.439,1.836-1.439,3.152&#xA;			c0,1.861,0.968,3.226,2.928,4.095l-2.457,2.035c0,0.025,0,0.099,0,0.199c-0.025,0.099-0.025,0.174-0.025,0.223&#xA;			c0,0.769,0.546,1.291,1.663,1.539l-2.705,1.464c-0.199,0.124-0.323,0.422-0.323,0.918c0,1.042,0.273,1.936,0.819,2.655&#xA;			c0.472,0.62,1.191,1.142,2.109,1.539c0.943,0.397,1.936,0.571,3.028,0.571c1.663,0,3.028-0.397,4.095-1.166&#xA;			c1.365-0.993,2.035-2.209,2.035-3.648c0-1.439-0.67-2.457-2.035-3.077c-0.62-0.273-1.563-0.496-2.854-0.695&#xA;			c-1.34-0.199-2.258-0.372-2.755-0.571c-0.347-0.124-0.521-0.347-0.521-0.62c0-0.298,0.223-0.645,0.72-1.018&#xA;			c0.472,0,0.819,0,1.018,0c1.439,0,2.631-0.422,3.599-1.266c0.968-0.844,1.439-1.886,1.439-3.127c0-1.166-0.372-2.159-1.117-3.003&#xA;			h2.655L118.401,13.749z M109.616,26.058l2.531,0.447c0.596,0.099,1.117,0.223,1.563,0.347c1.191,0.372,1.812,1.117,1.812,2.283&#xA;			c0,0.869-0.372,1.613-1.092,2.184c-0.745,0.571-1.688,0.844-2.829,0.844c-1.166,0-2.134-0.298-2.904-0.918&#xA;			c-0.769-0.62-1.142-1.39-1.142-2.333c0-0.596,0.149-1.067,0.447-1.464C108.251,27.051,108.797,26.58,109.616,26.058z&#xA;			 M111.576,21.492c-0.794,0-1.439-0.397-1.936-1.166s-0.769-1.762-0.769-2.953c0-1.042,0.223-1.836,0.67-2.407&#xA;			c0.447-0.596,1.067-0.869,1.861-0.869c0.745,0,1.315,0.347,1.737,1.042c0.422,0.695,0.645,1.688,0.645,2.928&#xA;			C113.76,20.35,113.016,21.492,111.576,21.492z"/>
		<path class="st0" d="M128.849,25.165c-0.347,0-0.571-0.149-0.72-0.422c-0.124-0.298-0.199-0.794-0.199-1.514v-5.708&#xA;			c0-1.439-0.347-2.482-1.018-3.127c-0.695-0.645-1.787-0.968-3.301-0.968c-1.216,0-2.308,0.223-3.301,0.67&#xA;			c-0.347,0.149-0.571,0.397-0.67,0.745l-0.372,1.439c-0.025,0.124,0.025,0.199,0.199,0.248l0.794,0.199&#xA;			c0.074,0.025,0.124,0.025,0.199,0.025c0.149,0,0.323-0.199,0.546-0.62c0.67-1.241,1.464-1.886,2.382-1.886&#xA;			c1.464,0,2.184,1.241,2.209,3.747l-2.804,1.092c-1.142,0.422-1.961,0.794-2.482,1.092c-1.291,0.769-1.961,1.836-1.961,3.201&#xA;			c0,1.042,0.298,1.861,0.918,2.507c0.62,0.645,1.415,0.968,2.407,0.968c0.546,0,1.191-0.248,1.886-0.72l1.985-1.315&#xA;			c0.05,0.72,0.248,1.39,0.62,2.035l3.648-1.166l-0.149-0.72C129.346,25.115,129.048,25.165,128.849,25.165z M125.623,20.996&#xA;			c0,2.854-0.943,4.269-2.804,4.269c-0.62,0-1.142-0.199-1.539-0.596c-0.372-0.397-0.571-0.943-0.571-1.564&#xA;			c0-1.415,0.869-2.482,2.631-3.226c0.596-0.248,1.34-0.521,2.283-0.869L125.623,20.996L125.623,20.996z"/>
		<path class="st0" d="M151.309,23.378v-5.385c0-0.918-0.05-1.588-0.149-2.085c-0.372-1.663-1.539-2.482-3.499-2.482&#xA;			c-1.737,0-3.301,0.745-4.641,2.258c-0.372-0.844-0.819-1.415-1.291-1.762c-0.496-0.347-1.166-0.496-2.06-0.496&#xA;			c-1.886,0-3.45,0.745-4.691,2.258v-2.258c-1.142,0.645-2.606,1.018-4.368,1.092v0.645h0.596c0.571,0,0.943,0.074,1.166,0.248&#xA;			c0.199,0.149,0.298,0.496,0.298,1.018v6.949c0,1.142-0.099,1.836-0.273,2.06c-0.174,0.223-0.769,0.397-1.787,0.496v0.67h6.453&#xA;			v-0.67c-1.018-0.099-1.638-0.273-1.812-0.496c-0.174-0.223-0.273-0.893-0.273-2.06v-3.003c0-2.258,0.323-3.772,0.943-4.492&#xA;			c0.571-0.695,1.365-1.042,2.432-1.042c0.943,0,1.588,0.298,1.961,0.844c0.347,0.571,0.521,1.564,0.521,2.978v4.691&#xA;			c0,1.142-0.074,1.836-0.273,2.06c-0.174,0.223-0.769,0.397-1.787,0.496v0.67h6.453v-0.67c-1.018-0.099-1.638-0.273-1.812-0.496&#xA;			c-0.174-0.223-0.273-0.893-0.273-2.06v-2.978c0-1.117,0.025-1.886,0.074-2.308c0.124-0.893,0.397-1.613,0.794-2.134&#xA;			c0.571-0.72,1.39-1.092,2.457-1.092c0.918,0,1.588,0.298,1.961,0.869c0.372,0.571,0.571,1.564,0.571,2.978v4.691&#xA;			c0,1.142-0.099,1.836-0.273,2.06c-0.174,0.223-0.769,0.397-1.787,0.496v0.67h6.428v-0.67c-1.018-0.099-1.638-0.248-1.812-0.472&#xA;			C151.408,25.215,151.309,24.545,151.309,23.378z"/>
		<path class="st0" d="M157.141,11.714c0.422,0,0.794-0.149,1.067-0.422c0.298-0.273,0.447-0.645,0.447-1.067&#xA;			s-0.149-0.769-0.447-1.067c-0.298-0.298-0.645-0.447-1.042-0.447c-0.422,0-0.769,0.149-1.067,0.447&#xA;			c-0.298,0.298-0.447,0.645-0.447,1.018c0,0.422,0.149,0.794,0.447,1.092C156.372,11.59,156.719,11.714,157.141,11.714z"/>
		<path class="st0" d="M158.531,23.229v-9.927c-1.142,0.645-2.606,1.018-4.368,1.092v0.645h0.596c0.571,0,0.943,0.074,1.166,0.223&#xA;			c0.199,0.149,0.298,0.496,0.298,1.018v6.949c0,1.142-0.099,1.836-0.273,2.06c-0.174,0.223-0.769,0.397-1.787,0.496v0.67h6.428&#xA;			v-0.67c-1.018-0.099-1.638-0.273-1.787-0.521C158.605,25.041,158.531,24.346,158.531,23.229z"/>
		<path class="st0" d="M174.811,23.229v-5.41c0-1.117-0.074-1.886-0.223-2.333c-0.521-1.464-1.712-2.184-3.574-2.184&#xA;			c-2.035,0-3.747,0.745-5.137,2.234v-2.234c-1.117,0.62-2.581,0.993-4.368,1.067v0.645h0.596c0.546,0,0.918,0.074,1.142,0.223&#xA;			c0.223,0.149,0.323,0.496,0.323,1.018v6.974c0,1.092-0.099,1.762-0.273,2.01c-0.199,0.223-0.769,0.422-1.762,0.546v0.67h6.453&#xA;			v-0.67c-1.018-0.149-1.638-0.323-1.812-0.546c-0.174-0.223-0.273-0.893-0.273-2.01v-3.152c0-1.142,0.074-2.035,0.199-2.655&#xA;			c0.397-1.836,1.588-2.755,3.524-2.755c1.092,0,1.837,0.298,2.258,0.844c0.422,0.571,0.645,1.564,0.645,2.953v4.765&#xA;			c0,1.092-0.074,1.762-0.199,1.961c-0.199,0.298-0.794,0.496-1.861,0.596v0.67h6.428v-0.67c-1.042-0.099-1.663-0.273-1.837-0.546&#xA;			C174.886,25.066,174.811,24.396,174.811,23.229z"/>
		<path class="st0" d="M190.719,13.625l-0.298-0.323c-1.092,0.248-2.308,0.372-3.673,0.372c-0.223,0-0.472,0-0.67-0.025&#xA;			c-0.72-0.248-1.464-0.347-2.258-0.347c-1.514,0-2.755,0.397-3.723,1.191c-0.968,0.794-1.439,1.836-1.439,3.152&#xA;			c0,1.861,0.968,3.226,2.928,4.095l-2.457,2.035c0,0.025,0,0.099,0,0.199c-0.025,0.099-0.025,0.174-0.025,0.223&#xA;			c0,0.769,0.571,1.291,1.663,1.539l-2.705,1.464c-0.199,0.124-0.298,0.422-0.298,0.918c0,1.042,0.273,1.936,0.819,2.655&#xA;			c0.472,0.62,1.191,1.142,2.109,1.539c0.943,0.397,1.936,0.571,3.028,0.571c1.663,0,3.028-0.397,4.095-1.166&#xA;			c1.34-0.993,2.035-2.209,2.035-3.648c0-1.439-0.67-2.457-2.035-3.077c-0.62-0.273-1.564-0.496-2.854-0.695&#xA;			c-1.34-0.199-2.258-0.372-2.755-0.571c-0.347-0.124-0.521-0.347-0.521-0.62c0-0.298,0.248-0.645,0.72-1.018&#xA;			c0.472,0,0.819,0,0.993,0c1.439,0,2.655-0.422,3.599-1.266c0.968-0.844,1.439-1.886,1.439-3.127c0-1.166-0.372-2.159-1.117-3.003&#xA;			h2.655L190.719,13.625z M181.934,25.934l2.531,0.447c0.596,0.099,1.117,0.223,1.564,0.347c1.191,0.372,1.812,1.117,1.812,2.283&#xA;			c0,0.869-0.372,1.613-1.117,2.184c-0.745,0.571-1.688,0.844-2.829,0.844c-1.166,0-2.134-0.298-2.879-0.918&#xA;			c-0.769-0.62-1.142-1.39-1.142-2.333c0-0.596,0.149-1.067,0.447-1.464C180.569,26.927,181.115,26.455,181.934,25.934z&#xA;			 M183.894,21.368c-0.794,0-1.439-0.397-1.936-1.166c-0.496-0.769-0.769-1.762-0.769-2.953c0-1.042,0.223-1.836,0.67-2.407&#xA;			c0.447-0.596,1.067-0.869,1.837-0.869c0.745,0,1.315,0.347,1.737,1.042c0.422,0.695,0.62,1.688,0.62,2.928&#xA;			C186.054,20.226,185.334,21.368,183.894,21.368z"/>
	</g>
	<g>
		<path class="st1" d="M18.436,24.991l0.05-0.447l0.447,0.124c0.05,0,4.616,1.216,6.899-0.819c2.209-1.961,3.003-6.552,0.174-11.168&#xA;			c-2.68-4.418-9.158-8.984-10.423-9.853c-1.266,0.869-7.743,5.435-10.423,9.853c-2.829,4.616-2.01,9.207,0.174,11.168&#xA;			c2.283,2.035,6.85,0.819,6.899,0.819l0.447-0.124l0.05,0.447c0,0.099,0.223,2.705-1.688,4.815&#xA;			c-1.588,1.737-4.12,2.606-7.495,2.606v1.564c3.847,0,6.775-1.042,8.661-3.127c2.358-2.581,2.134-5.658,2.109-6.006l-0.223-2.283&#xA;			l-2.209,0.596c-0.993,0.248-4.095,0.745-5.46-0.472c-1.737-1.539-2.283-5.311,0.099-9.207c2.134-3.499,6.949-7.197,9.108-8.761&#xA;			c2.159,1.539,6.949,5.236,9.108,8.761c2.382,3.896,1.836,7.669,0.099,9.207c-1.365,1.216-4.467,0.745-5.46,0.472l-2.234-0.596&#xA;			l-0.199,2.308c-0.025,0.347-0.248,3.425,2.109,6.006C20.943,32.933,23.871,34,27.718,34v-1.564c-3.4,0-5.907-0.893-7.495-2.606&#xA;			C18.213,27.696,18.436,25.115,18.436,24.991z"/>
		<path class="st1" d="M27.37,25.587c2.978-2.655,4.145-8.364,0.62-14.121C24.764,6.155,16.997,0.943,16.649,0.72L15.582,0&#xA;			l-1.067,0.72C14.192,0.943,6.4,6.13,3.173,11.441c-3.524,5.758-2.358,11.466,0.62,14.121c1.762,1.588,4.219,1.861,6.13,1.762&#xA;			c-0.149,0.323-0.372,0.62-0.645,0.918c-1.117,1.216-3.053,1.812-5.733,1.812v1.564c3.152,0,5.485-0.794,6.924-2.358&#xA;			c1.241-1.365,1.489-3.003,1.514-3.772c-1.315,0.273-4.988,0.819-7.123-1.117c-2.507-2.234-3.4-7.123-0.323-12.161&#xA;			C7.591,7.197,15.11,2.184,15.408,1.985l0.223-0.149l0.223,0.149c0.323,0.223,7.818,5.212,10.87,10.225&#xA;			c3.077,5.038,2.159,9.927-0.323,12.161c-2.134,1.911-5.807,1.39-7.123,1.117c0.025,0.769,0.273,2.407,1.514,3.772&#xA;			c1.439,1.564,3.747,2.358,6.924,2.358v-1.564c-2.68,0-4.616-0.62-5.733-1.812c-0.273-0.298-0.496-0.62-0.645-0.918&#xA;			C23.151,27.448,25.608,27.175,27.37,25.587z"/>
	</g>
	<g>
		<path class="st0" d="M194.442,14.518h-1.216v-0.472h2.953v0.472h-1.216v3.276h-0.521V14.518z"/>
		<path class="st0" d="M197.048,14.047h0.769l1.216,2.854h0.025l1.191-2.854h0.769v3.747h-0.521v-3.077l0,0l-1.291,3.077h-0.347&#xA;			l-1.291-3.077l0,0v3.077h-0.521V14.047z"/>
	</g>
</g>
</svg>