<?xml version="1.0" encoding="utf-8"?>
<svg xmlns="http://www.w3.org/2000/svg" xmlns:xlink="http://www.w3.org/1999/xlink" version="1.1" id="Layer_1" x="0px" y="0px" viewBox="0 0 204.568 34" style="enable-background:new 0 0 204.568 34;">
<style type="text/css">
	.st0{clip-path:url(#SVGID_2_);fill:url(#SVGID_3_);}
	.st1{fill:#FFFFFF;}
</style>
<g>
	<g>
		<g>
			<g>
				<defs>
					<path id="SVGID_1_" d="M1.76,0.162L1.541,0.377v17.162l0.11,0.648c0.874,2.447,2.514,3.667,4.921,3.667h17.932v2.268H9.742&#xA;						c-2.861,0-5.522-0.827-7.982-2.482H1.541c0.474,1.186,1.057,2.337,1.75,3.454c4.428,5.827,9.677,8.743,15.747,8.743h15.09&#xA;						l0.218-0.217v-17.16l-0.108-0.648c-0.876-2.446-2.516-3.671-4.921-3.671H11.381V9.876h14.763c2.861,0,5.522,0.827,7.983,2.483&#xA;						h0.218c-0.473-1.189-1.056-2.339-1.749-3.454c-4.428-5.828-9.678-8.743-15.746-8.743L1.76,0.162L1.76,0.162z"/>
				</defs>
				<clipPath id="SVGID_2_">
					<use xlink:href="#SVGID_1_" style="overflow:visible;"/>
				</clipPath>
				
					<linearGradient id="SVGID_3_" gradientUnits="userSpaceOnUse" x1="-588.0191" y1="587.5642" x2="-587.1901" y2="587.5642" gradientTransform="matrix(39.5716 0 0 -39.5716 23270.3984 23267.8574)">
					<stop offset="0" style="stop-color:#28BFD6"/>
					<stop offset="0.9754" style="stop-color:#A24E9D"/>
					<stop offset="1" style="stop-color:#A24E9D"/>
				</linearGradient>
				<rect x="1.541" y="0.162" class="st0" width="32.804" height="33.675"/>
			</g>
		</g>
	</g>
	<path class="st1" d="M53.708,26.184c-2.139,0-3.856-0.382-5.15-1.145c-1.559-0.945-2.338-2.421-2.338-4.428v-0.422h0.896v0.323&#xA;		c0,3.235,2.205,4.851,6.618,4.851c1.509,0,2.769-0.231,3.782-0.696c1.359-0.631,2.04-1.609,2.04-2.936&#xA;		c0-0.913-0.248-1.609-0.747-2.091c-0.415-0.413-1.103-0.762-2.065-1.045c-0.498-0.15-1.683-0.422-3.558-0.82&#xA;		c-2.106-0.448-3.532-0.863-4.279-1.244c-1.426-0.763-2.139-1.874-2.139-3.335c0-2.818,2.156-4.229,6.468-4.229&#xA;		c4.511,0,6.8,1.726,6.867,5.176h-0.896c-0.099-1.726-0.729-2.911-1.89-3.558c-0.913-0.531-2.272-0.796-4.081-0.796&#xA;		c-3.714,0-5.572,1.136-5.572,3.408c0,1.129,0.523,1.975,1.568,2.538c0.68,0.365,1.841,0.697,3.483,0.995&#xA;		c3,0.547,5,1.127,5.995,1.741c1.16,0.696,1.742,1.807,1.742,3.334c0,1.543-0.788,2.703-2.364,3.484&#xA;		C56.875,25.886,55.416,26.184,53.708,26.184z"/>
	<path class="st1" d="M72.217,26.359c-2.455,0-4.164-0.972-5.125-2.912v6.741h-0.895V13.869h0.895v2.638&#xA;		c0.464-0.945,1.153-1.672,2.065-2.178c0.912-0.507,1.924-0.758,3.035-0.758c1.924,0,3.408,0.585,4.452,1.753&#xA;		c1.045,1.171,1.568,2.709,1.568,4.616c0,1.939-0.506,3.482-1.518,4.627C75.633,25.76,74.14,26.359,72.217,26.359z M72.328,14.391&#xA;		c-1.605,0-2.879,0.511-3.822,1.53c-0.942,1.021-1.414,2.343-1.414,3.967c0,1.743,0.413,3.101,1.241,4.081&#xA;		c0.91,1.044,2.234,1.568,3.971,1.568c1.621,0,2.879-0.549,3.772-1.642c0.827-1.012,1.241-2.323,1.241-3.931&#xA;		c0-1.624-0.422-2.942-1.266-3.955C75.157,14.93,73.917,14.391,72.328,14.391z"/>
	<path class="st1" d="M84.719,11.28c-0.183,0-0.315-0.114-0.398-0.348V9.241c0.1-0.249,0.232-0.374,0.398-0.374&#xA;		c0.149,0,0.316,0.117,0.498,0.35v1.741C85.051,11.173,84.886,11.28,84.719,11.28z M84.322,25.96V13.719h0.895V25.96H84.322z"/>
	<path class="st1" d="M100.742,26.109v-7.984c0-1.178-0.368-2.077-1.098-2.699c-0.729-0.623-1.708-0.933-2.935-0.933&#xA;		c-1.443,0-2.583,0.444-3.42,1.332c-0.838,0.888-1.256,2.043-1.256,3.469v6.816h-0.895V13.971h0.895v2.188&#xA;		c0.829-1.657,2.38-2.486,4.652-2.486c1.441,0,2.603,0.348,3.482,1.045c0.98,0.744,1.469,1.798,1.469,3.159v8.233L100.742,26.109&#xA;		L100.742,26.109L100.742,26.109z"/>
	<path class="st1" d="M113.481,26.485c-1.924,0-3.45-0.597-4.577-1.789c-1.097-1.145-1.642-2.662-1.642-4.553&#xA;		c0-1.925,0.568-3.466,1.703-4.627c1.135-1.16,2.658-1.741,4.565-1.741s3.424,0.581,4.554,1.741c1.128,1.161,1.69,2.702,1.69,4.627&#xA;		c0,1.907-0.572,3.443-1.716,4.602C116.914,25.906,115.387,26.485,113.481,26.485z M113.505,14.595&#xA;		c-1.661,0-2.964,0.505-3.918,1.518c-0.955,1.011-1.432,2.354-1.432,4.029c0,1.658,0.484,2.995,1.444,4.005&#xA;		c0.962,1.013,2.264,1.518,3.905,1.518c1.645,0,2.95-0.505,3.919-1.518c0.971-1.01,1.455-2.347,1.455-4.005&#xA;		c0-1.692-0.476-3.039-1.429-4.044C116.495,15.096,115.181,14.595,113.505,14.595z"/>
	<path class="st1" d="M142.553,26.213v-7.986c0-2.421-1.145-3.632-3.437-3.632c-1.241,0-2.239,0.36-2.982,1.082&#xA;		c-0.746,0.722-1.121,1.688-1.121,2.898v7.638h-0.894v-7.985c0-2.421-1.17-3.632-3.511-3.632c-1.309,0-2.337,0.497-3.083,1.492&#xA;		c-0.645,0.878-0.968,1.982-0.968,3.308v6.818h-0.899v-12.14h0.899v2.113c0.794-1.608,2.228-2.412,4.301-2.412&#xA;		c1.991,0,3.292,0.821,3.906,2.463c0.728-1.642,2.163-2.463,4.302-2.463c2.92,0,4.378,1.401,4.378,4.204v8.235L142.553,26.213&#xA;		L142.553,26.213z"/>
	<path class="st1" d="M150.202,20.415c0.103,3.5,1.822,5.249,5.165,5.249c1.122,0,2.121-0.255,2.989-0.769&#xA;		c0.869-0.515,1.495-1.269,1.876-2.265h0.917c-0.431,1.375-1.194,2.38-2.286,3.009c-0.996,0.563-2.182,0.844-3.562,0.844&#xA;		c-1.987,0-3.506-0.58-4.552-1.741c-0.958-1.093-1.442-2.62-1.442-4.577c0-1.89,0.554-3.429,1.657-4.615&#xA;		c1.101-1.185,2.59-1.779,4.464-1.779c1.857,0,3.343,0.533,4.452,1.598c1.111,1.065,1.669,2.513,1.669,4.343v0.7h-11.346&#xA;		L150.202,20.415L150.202,20.415z M155.44,14.595c-1.526,0-2.749,0.452-3.674,1.356c-0.927,0.904-1.446,2.117-1.564,3.645h10.302&#xA;		c-0.035-1.527-0.507-2.74-1.416-3.645C158.18,15.047,156.962,14.595,155.44,14.595z"/>
	<path class="st1" d="M177.09,26.213v-7.986c0-1.178-0.368-2.078-1.096-2.7c-0.73-0.622-1.709-0.932-2.936-0.932&#xA;		c-1.442,0-2.582,0.444-3.419,1.331c-0.839,0.888-1.258,2.044-1.258,3.47v6.818h-0.895v-12.14h0.895v2.189&#xA;		c0.83-1.659,2.382-2.487,4.652-2.487c1.443,0,2.607,0.348,3.482,1.045c0.98,0.745,1.469,1.798,1.469,3.159v8.235L177.09,26.213&#xA;		L177.09,26.213z"/>
	<path class="st1" d="M195.115,26.213v-2.738c-1.063,2.008-2.809,3.009-5.246,3.009c-1.878,0-3.344-0.613-4.407-1.84&#xA;		c-1.01-1.146-1.518-2.638-1.518-4.478c0-1.875,0.508-3.393,1.518-4.553c1.095-1.227,2.595-1.841,4.502-1.841&#xA;		c2.44,0,4.154,0.978,5.151,2.935v-2.935h0.897V26.21h-0.897L195.115,26.213L195.115,26.213z M189.852,14.595&#xA;		c-1.588,0-2.838,0.556-3.748,1.666c-0.843,1.03-1.267,2.33-1.267,3.907c0,1.592,0.415,2.885,1.241,3.881&#xA;		c0.91,1.079,2.17,1.616,3.773,1.616c1.59,0,2.87-0.537,3.849-1.616c0.943-1.028,1.413-2.322,1.413-3.881&#xA;		c0-1.708-0.455-3.065-1.366-4.069C192.84,15.096,191.539,14.595,189.852,14.595z"/>
	<path class="st1" d="M202.13,26.213V9.344h0.895v16.869H202.13z"/>
</g>
</svg>