<?xml version="1.0" encoding="utf-8"?>
<svg xmlns="http://www.w3.org/2000/svg" width="96" height="48" viewBox="0 0 96 48" fill="none">
<path d="M59.0762 12.5972C58.966 11.8662 58.3702 10.6258 56.4728 10.6258C55.1709 10.6258 54.3326 11.4452 54.3326 12.309C54.3326 13.0625 54.7958 13.616 55.8772 13.8154L57.9733 14.2142C60.9522 14.768 62.4962 16.6949 62.4962 18.932C62.4962 21.3909 60.4444 23.8935 56.7156 23.8935C52.391 23.8935 50.5375 21.0806 50.3168 18.8657L53.516 18.0903C53.6486 19.5298 54.6193 20.7927 56.7595 20.7927C58.1277 20.7927 58.9657 20.128 58.9657 19.1535C58.9657 18.356 58.326 17.78 57.289 17.5806L55.1488 17.1819C52.5012 16.6725 50.8905 14.9004 50.8905 12.5747C50.8905 9.60637 53.4943 7.52466 56.4949 7.52466C60.4002 7.52466 61.8786 9.87261 62.2095 11.7109L59.0762 12.5972Z" fill="#798291"/>
<path d="M72.5117 12.5972C72.4016 11.8662 71.8058 10.6258 69.9084 10.6258C68.6065 10.6258 67.7682 11.4452 67.7682 12.309C67.7682 13.0625 68.2314 13.616 69.3128 13.8154L71.4088 14.2142C74.3874 14.768 75.9318 16.6949 75.9318 18.932C75.9318 21.3909 73.88 23.8935 70.1509 23.8935C65.8266 23.8935 63.9733 21.0806 63.7524 18.8657L66.9516 18.0903C67.0842 19.5298 68.0548 20.7927 70.195 20.7927C71.5629 20.7927 72.4012 20.128 72.4012 19.1535C72.4012 18.356 71.7615 17.78 70.7246 17.5806L68.5844 17.1819C65.9367 16.6725 64.3263 14.9004 64.3263 12.5747C64.3263 9.60637 66.9297 7.52466 69.9304 7.52466C73.8357 7.52466 75.3141 9.87261 75.6451 11.7109L72.5117 12.5972Z" fill="#798291"/>
<path d="M78.314 7.86216V23.5666H88.5519V20.222H81.8003V7.86216H78.314Z" fill="#798291"/>
<path d="M52.6434 29.6977C52.6092 29.4707 52.4239 29.085 51.8343 29.085C51.4299 29.085 51.1695 29.3397 51.1695 29.6083C51.1695 29.8425 51.3136 30.0144 51.6494 30.0765L52.3006 30.2002C53.2262 30.3723 53.7061 30.9709 53.7061 31.6661C53.7061 32.4303 53.0688 33.2077 51.9098 33.2077C50.5662 33.2077 49.9903 32.3335 49.9219 31.6451L50.9158 31.4044C50.957 31.8519 51.2586 32.2441 51.9237 32.2441C52.3485 32.2441 52.6092 32.0375 52.6092 31.7347C52.6092 31.4871 52.4106 31.308 52.0881 31.2461L51.4232 31.1224C50.6004 30.964 50.1002 30.4135 50.1002 29.6908C50.1002 28.7686 50.9091 28.1215 51.8414 28.1215C53.0551 28.1215 53.5141 28.851 53.617 29.4223L52.6434 29.6977Z" fill="#798291"/>
<path d="M54.4453 28.2247V33.1042H57.5304V32.072H55.5285V31.1359H57.3387V30.1793H55.5285V29.2502H57.5238V28.2247H54.4453Z" fill="#798291"/>
<path d="M58.153 30.6749C58.153 29.1537 59.3048 28.1215 60.662 28.1215C62.1223 28.1215 62.7668 29.0646 62.9246 29.7665L61.903 30.0899C61.8277 29.7528 61.5192 29.1814 60.662 29.1814C60.0111 29.1814 59.2776 29.6494 59.2776 30.6749C59.2776 31.5904 59.9493 32.1202 60.676 32.1202C61.5192 32.1202 61.8553 31.5561 61.9512 31.2047L62.9864 31.5007C62.8286 32.1755 62.1843 33.2077 60.676 33.2077C59.2776 33.2077 58.153 32.1959 58.153 30.6749Z" fill="#798291"/>
<path d="M63.6234 28.2247V31.3423C63.6234 32.5675 64.4805 33.2145 65.5498 33.2145C66.6193 33.2145 67.4763 32.5675 67.4763 31.3425V28.2247H66.3931V31.2532C66.3931 31.8449 66.0639 32.141 65.5498 32.141C65.0358 32.141 64.7067 31.8449 64.7067 31.2532V28.2247H63.6234Z" fill="#798291"/>
<path fill-rule="evenodd" clip-rule="evenodd" d="M69.9565 31.2872H69.5724V33.1045H68.489V28.2247H70.4155C71.3752 28.2247 71.9923 28.8855 71.9923 29.7526C71.9923 30.4133 71.6289 30.9155 71.0325 31.1289L72.0198 33.1042H70.827L69.9565 31.2872ZM70.2102 30.3514C70.6558 30.3514 70.8956 30.1036 70.8956 29.7596C70.8956 29.3949 70.6558 29.1679 70.2102 29.1679H69.5726V30.3517L70.2102 30.3514Z" fill="#798291"/>
<path d="M72.7922 28.2247V33.1042H75.8773V32.072H73.8754V31.1359H75.6856V30.1793H73.8754V29.2502H75.8707V28.2247H72.7922Z" fill="#798291"/>
<path d="M50.2711 41.3589V36.4793H53.3496V37.5049H51.3543V38.434H53.1645V39.3906H51.3543V40.3267H53.3562V41.3589H50.2711Z" fill="#798291"/>
<path d="M55.3437 38.1519L57.3456 41.3591H58.4904V36.4793H57.4071V39.4459L55.5835 36.4793H54.2672V41.3591H55.3437V38.1519Z" fill="#798291"/>
<path d="M59.257 38.9308C59.257 37.4096 60.4087 36.3775 61.766 36.3775C63.2262 36.3775 63.8708 37.3205 64.0285 38.0223L63.007 38.3457C62.9316 38.0086 62.623 37.4373 61.766 37.4373C61.115 37.4373 60.3814 37.9053 60.3814 38.9308C60.3814 39.8463 61.0533 40.3761 61.7799 40.3761C62.623 40.3761 62.9592 39.812 63.0552 39.4606L64.0903 39.7567C63.9325 40.4314 63.2882 41.4635 61.7799 41.4635C60.3814 41.4635 59.257 40.4518 59.257 38.9308Z" fill="#798291"/>
<path fill-rule="evenodd" clip-rule="evenodd" d="M65.9114 39.5422H66.2955L67.166 41.3589H68.3589L67.3716 39.3836C67.968 39.1702 68.3313 38.668 68.3313 38.0073C68.3313 37.1402 67.7143 36.4793 66.7545 36.4793H64.828V41.3591H65.9114V39.5422ZM67.2348 38.0143C67.2348 38.3583 66.9949 38.6061 66.549 38.6061L65.9116 38.6063V37.4225H66.549C66.9949 37.4225 67.2348 37.6496 67.2348 38.0143Z" fill="#798291"/>
<path d="M68.6038 36.4793H69.8721L70.8661 38.2893L71.8737 36.4793H73.0802L71.3732 39.3221V41.3591H70.29V39.3221L68.6038 36.4793Z" fill="#798291"/>
<path fill-rule="evenodd" clip-rule="evenodd" d="M74.759 41.3591V39.6043H75.5065C76.4935 39.6043 77.1723 38.9641 77.1723 38.042C77.1723 37.1331 76.4935 36.4793 75.5065 36.4793H73.6758V41.3591H74.759ZM76.0891 38.0489C76.0891 38.4273 75.808 38.6684 75.3967 38.6684H74.766V37.4225H75.3967C75.808 37.4225 76.0891 37.6565 76.0891 38.0489Z" fill="#798291"/>
<path d="M80.0574 37.5185V41.3591H78.9741V37.5185H77.4796V36.4793H81.5587V37.5185H80.0574Z" fill="#798291"/>
<path d="M82.2164 36.4793V41.3591H83.3133V36.4793H82.2164Z" fill="#798291"/>
<path fill-rule="evenodd" clip-rule="evenodd" d="M86.6092 36.3775C87.9735 36.3775 89.1321 37.3753 89.1321 38.9241C89.1321 40.4657 87.9735 41.4635 86.6092 41.4635C85.238 41.4635 84.0796 40.4657 84.0796 38.9241C84.0794 37.3753 85.238 36.3775 86.6092 36.3775ZM86.6092 40.39C87.281 40.39 88.0077 39.9357 88.0077 38.9169C88.0077 37.8983 87.281 37.4373 86.6092 37.4373C85.9304 37.4373 85.2038 37.8987 85.2038 38.9169C85.2038 39.9357 85.9304 40.39 86.6092 40.39Z" fill="#798291"/>
<path d="M90.9827 38.1519L92.9847 41.3591H94.1294V36.4793H93.0461V39.4459L91.2226 36.4793H89.9062V41.3591H90.9827V38.1519Z" fill="#798291"/>
<path d="M16.5797 12.4883C16.5797 10.663 18.0588 9.17813 19.8766 9.17813C21.6944 9.17813 23.1736 10.6633 23.1736 12.4886V17.1142H16.5797V12.4883Z" fill="#D3D8E1"/>
<path fill-rule="evenodd" clip-rule="evenodd" d="M0 28.0448V0H39.755V28.0448C39.755 39.0658 30.8557 48 19.8775 48C8.89945 48 0 39.0658 0 28.0448ZM8.06908 35.1936H31.686V17.111H27.3764V12.4852C27.3764 8.3339 24.0126 4.9566 19.8775 4.9566C15.7426 4.9566 12.3787 8.3339 12.3787 12.4852V17.111H8.06908V35.1936Z" fill="#D3D8E1"/>
<path d="M17.4538 30.5716C16.7635 29.8191 12.9399 25.5095 12.7299 24.9215C12.5948 24.5431 12.7185 23.5895 13.463 22.9539C14.2073 22.3181 15.0145 22.1601 15.2743 22.3204C15.9661 22.7467 19.1431 25.7317 19.3637 25.9638C19.5842 26.1958 19.7549 26.2075 19.8985 25.8957C20.9635 23.5791 23.2141 19.7196 24.5933 17.5192C25.6799 15.7855 27.9817 12.3222 32.0495 9.28203C33.7639 8.00062 35.7722 7.63849 36.4946 7.65017C37.0631 7.65926 37.2868 7.98634 36.8698 8.28941C35.873 9.01401 34.3906 10.5222 33.1456 12.0922C31.1917 14.556 29.5121 17.2065 27.9391 19.9241C26.4731 22.4563 22.906 28.8144 21.9542 30.4135C21.4091 31.2771 18.527 31.6492 17.4538 30.5716Z" fill="#798291"/>
</svg>