<?xml version="1.0" encoding="utf-8"?>
<svg xmlns="http://www.w3.org/2000/svg" viewBox="0 0 276.1 75.06">
  <defs>
    <style>.cls-1{fill:#00d45c;}.cls-2{fill:#fff;}</style>
  </defs>
  <g id="Layer_2" data-name="Layer 2">
    <g id="Layer_1-2" data-name="Layer 1">
      <path class="cls-1" d="M12.26,17.67l7.28,6.16c4.48,3.79,5.1,6.91,5.1,12.69,0,6.79-4.29,9.9-12.32,9.9S0,43.31,0,36.52V32.1a2.33,2.33,0,0,1,2.55-2.55H6.66A2.33,2.33,0,0,1,9.21,32.1v4.42a2.8,2.8,0,0,0,3.11,2.93,2.8,2.8,0,0,0,3.11-2.93c0-3.23-.49-4.91-3-7L5.1,23.33C.62,19.53,0,16.42,0,10.63,0,3.85,4.29.74,12.32.74s12.32,3.11,12.32,9.89v4.42a2.32,2.32,0,0,1-2.55,2.55H18a2.33,2.33,0,0,1-2.56-2.55V10.63a2.8,2.8,0,0,0-3.11-2.92,2.8,2.8,0,0,0-3.11,2.92C9.21,13.87,9.71,15.55,12.26,17.67Z"/>
      <path class="cls-1" d="M45.43,8V43.56a2.33,2.33,0,0,1-2.55,2.55H38.77a2.33,2.33,0,0,1-2.55-2.55V8H30.31a2.32,2.32,0,0,1-2.55-2.55V3.6a2.32,2.32,0,0,1,2.55-2.55h21A2.32,2.32,0,0,1,53.89,3.6V5.47A2.32,2.32,0,0,1,51.34,8Z"/>
      <path class="cls-1" d="M71.12,43.87l-.75-6.23H62.9l-.75,6.23a2.31,2.31,0,0,1-2.55,2.24H55.87c-1.87,0-2.8-1.31-2.49-3.18l6-39.45C59.6,1.67,60.54,1.05,62,1.05H71.3c1.43,0,2.37.62,2.62,2.43l6,39.45c.31,1.87-.62,3.18-2.49,3.18H73.67A2.31,2.31,0,0,1,71.12,43.87Zm-7.41-13.2H69.5l-.81-7.09L67,7h-.63L64.58,23.58Z"/>
      <path class="cls-1" d="M93.52,20h.62L101.3,2.48a2.36,2.36,0,0,1,2.36-1.43h4.24c2.67,0,2.8,2.55,2.36,3.61l-8,18.92,8,18.92c.44,1.06.31,3.61-2.36,3.61h-4.24a2.36,2.36,0,0,1-2.36-1.43L94.14,27.19h-.62V43.56A2.33,2.33,0,0,1,91,46.11H86.86a2.33,2.33,0,0,1-2.55-2.55V3.6a2.32,2.32,0,0,1,2.55-2.55H91A2.32,2.32,0,0,1,93.52,3.6Z"/>
      <path class="cls-1" d="M133.46,1.05A2.33,2.33,0,0,1,136,3.6V5.47A2.33,2.33,0,0,1,133.46,8h-9V20.09h6.66a2.33,2.33,0,0,1,2.55,2.56v1.86a2.32,2.32,0,0,1-2.55,2.55h-6.66V39.14h9A2.33,2.33,0,0,1,136,41.69v1.87a2.33,2.33,0,0,1-2.55,2.55H117.77a2.33,2.33,0,0,1-2.55-2.55V3.6a2.33,2.33,0,0,1,2.55-2.55Z"/>
      <path class="cls-2" d="M150.24,39.14h9a2.33,2.33,0,0,1,2.55,2.55v1.87a2.33,2.33,0,0,1-2.55,2.55H143.58A2.33,2.33,0,0,1,141,43.56V3.6a2.33,2.33,0,0,1,2.55-2.55h4.11a2.32,2.32,0,0,1,2.55,2.55Z"/>
      <path class="cls-2" d="M189.84,10.63V36.52c0,6.79-4.29,9.9-12.32,9.9s-12.32-3.11-12.32-9.9V10.63c0-6.78,4.29-9.89,12.32-9.89S189.84,3.85,189.84,10.63Zm-15.43,0V36.52a3.12,3.12,0,0,0,6.22,0V10.63a3.12,3.12,0,0,0-6.22,0Z"/>
      <path class="cls-2" d="M217.49,22.15A2.32,2.32,0,0,1,220,24.7V36.52c0,6.79-4.29,9.9-12.32,9.9s-12.32-3.11-12.32-9.9V10.63c0-6.78,4.29-9.89,12.32-9.89S220,3.85,220,10.63v3.8A2.32,2.32,0,0,1,217.49,17h-4.11a2.32,2.32,0,0,1-2.55-2.55v-3.8a3.12,3.12,0,0,0-6.22,0V36.52a3.12,3.12,0,0,0,6.22,0v-7.4h-.56a2.33,2.33,0,0,1-2.55-2.55V24.7a2.32,2.32,0,0,1,2.55-2.55Z"/>
      <path class="cls-2" d="M234.81,43.56a2.33,2.33,0,0,1-2.55,2.55h-4.11a2.33,2.33,0,0,1-2.55-2.55V3.6a2.32,2.32,0,0,1,2.55-2.55h4.11a2.33,2.33,0,0,1,2.55,2.55Z"/>
      <path class="cls-2" d="M265,16.92a2.33,2.33,0,0,1-2.55,2.55h-4.11a2.32,2.32,0,0,1-2.55-2.55V10.63a3.12,3.12,0,0,0-6.23,0V36.52a3.12,3.12,0,0,0,6.23,0V30.24a2.32,2.32,0,0,1,2.55-2.55h4.11A2.33,2.33,0,0,1,265,30.24v6.28c0,6.79-4.3,9.9-12.33,9.9s-12.32-3.11-12.32-9.9V10.63c0-6.78,4.3-9.89,12.32-9.89S265,3.85,265,10.63Z"/>
      <path class="cls-2" d="M270.11,1a3.54,3.54,0,0,1,5,0,3.44,3.44,0,0,1,1,2.5,3.41,3.41,0,0,1-1,2.48,3.49,3.49,0,0,1-5,0,3.39,3.39,0,0,1-1-2.48A3.42,3.42,0,0,1,270.11,1Zm.45,4.62a2.8,2.8,0,0,0,4.06,0,2.94,2.94,0,0,0,.81-2.12,3,3,0,0,0-.81-2.14,2.85,2.85,0,0,0-4.06,0,3,3,0,0,0-.82,2.14A2.91,2.91,0,0,0,270.56,5.64Zm.68-4.19h1.58c.94,0,1.41.39,1.41,1.16a1.13,1.13,0,0,1-.28.81,1,1,0,0,1-.78.33l1.17,1.83h-.71L272.5,3.75h-.59V5.58h-.67Zm.67,1.78h.8a1.23,1.23,0,0,0,.63-.13.55.55,0,0,0,.22-.52.53.53,0,0,0-.25-.48,1.46,1.46,0,0,0-.6-.12h-.8Z"/>
      <path class="cls-2" d="M53.63,57l-.32,1.52a1.33,1.33,0,0,1-.4.83,1.79,1.79,0,0,1-1,.18H48.09l-3,14.08a1.33,1.33,0,0,1-.4.83,1.84,1.84,0,0,1-1,.18H41.56c-.57,0-.86-.23-.86-.69a2.16,2.16,0,0,1,0-.29c0-.13,0-.25.07-.38l2.9-13.73H39.66c-.57,0-.85-.23-.85-.69a1.89,1.89,0,0,1,0-.29,1.72,1.72,0,0,1,.08-.38l.32-1.52a1.28,1.28,0,0,1,.4-.81,1.67,1.67,0,0,1,1-.2H52.89c.57,0,.85.23.85.69a2.13,2.13,0,0,1,0,.3A1.63,1.63,0,0,1,53.63,57Z"/>
      <path class="cls-2" d="M71.9,57,68.38,73.62a1.38,1.38,0,0,1-.4.81,1.63,1.63,0,0,1-1,.2H64.83c-.57,0-.85-.23-.85-.69a1.23,1.23,0,0,1,0-.29,2.5,2.5,0,0,0,.06-.38l1.39-6.58h-5.6l-1.46,6.93a1.39,1.39,0,0,1-.4.83,1.84,1.84,0,0,1-1,.18H54.86c-.57,0-.85-.23-.85-.69a1.23,1.23,0,0,1,0-.29c0-.13.05-.25.06-.38l3.52-16.61a1.33,1.33,0,0,1,.4-.81,1.71,1.71,0,0,1,1-.2h2.19c.57,0,.85.23.85.69a2.13,2.13,0,0,1,0,.3,2.41,2.41,0,0,1-.07.37L60.67,62.9h5.6l1.33-6.24a1.38,1.38,0,0,1,.4-.81,1.71,1.71,0,0,1,1-.2h2.19c.57,0,.85.23.85.69,0,.07,0,.17,0,.3S71.93,56.89,71.9,57Z"/>
      <path class="cls-2" d="M73.63,73.27l3.52-16.61a1.33,1.33,0,0,1,.4-.81,1.67,1.67,0,0,1,1-.2h2.18c.57,0,.86.23.86.69a2.13,2.13,0,0,1,0,.3c0,.12,0,.25-.08.37L77.92,73.62a1.33,1.33,0,0,1-.4.83,1.84,1.84,0,0,1-1,.18H74.38c-.57,0-.86-.23-.86-.69a1.23,1.23,0,0,1,0-.29C73.59,73.52,73.61,73.4,73.63,73.27Z"/>
      <path class="cls-2" d="M100.24,57,96.72,73.62a1.39,1.39,0,0,1-.4.83,1.84,1.84,0,0,1-1,.18H93.62a1.76,1.76,0,0,1-1-.17,1.57,1.57,0,0,1-.42-.81l-2.91-10-2.1,10a1.45,1.45,0,0,1-.39.8,1.5,1.5,0,0,1-.92.21h-2c-.57,0-.85-.23-.85-.69a1.23,1.23,0,0,1,0-.29l.06-.38,3.52-16.61a1.33,1.33,0,0,1,.4-.81,1.71,1.71,0,0,1,1-.2h1.73a1.86,1.86,0,0,1,1,.17,1.56,1.56,0,0,1,.43.82l2.91,10,2.1-10a1.33,1.33,0,0,1,.4-.81,1.71,1.71,0,0,1,1-.2h1.95c.57,0,.85.23.85.69a1.37,1.37,0,0,1,0,.3C100.28,56.76,100.25,56.89,100.24,57Z"/>
      <path class="cls-2" d="M102,73.27l3.52-16.61a1.33,1.33,0,0,1,.4-.81,1.67,1.67,0,0,1,1-.2H109c.57,0,.86.23.86.69a.93.93,0,0,1,0,.14c0,.05,0,.15,0,.29l-1.28,6,5.71-6.11q.45-.48.69-.69a1.18,1.18,0,0,1,.46-.27,2.82,2.82,0,0,1,.58-.05h3.31c.32,0,.48.12.48.37a.78.78,0,0,1-.27.54l-6.77,6.82L115.91,73l.19.6a1.19,1.19,0,0,1,.05.25.66.66,0,0,1-.28.56,1.15,1.15,0,0,1-.71.21h-2.47a1.35,1.35,0,0,1-.83-.18,2.18,2.18,0,0,1-.43-.83l-2.24-7.12-1.89,1.81-1.12,5.31a1.33,1.33,0,0,1-.4.81,1.63,1.63,0,0,1-1,.2h-2.11c-.56,0-.85-.23-.85-.69a1.23,1.23,0,0,1,0-.29C101.93,73.52,102,73.4,102,73.27Z"/>
      <path class="cls-2" d="M130.68,73.27l3.52-16.61a1.28,1.28,0,0,1,.4-.81,1.65,1.65,0,0,1,1-.2h4.86a6.91,6.91,0,0,1,4.2,1.15,3.66,3.66,0,0,1,1.56,3.12,4.38,4.38,0,0,1,0,.5c0,.18-.06.38-.1.59l-.08.37a4.65,4.65,0,0,1-1,2,4.22,4.22,0,0,1-1.8,1.32,3.46,3.46,0,0,1,1.55,1.35,3.68,3.68,0,0,1,.56,2,6.74,6.74,0,0,1-.11.94l-.1.5a6.13,6.13,0,0,1-2.32,3.8,7.57,7.57,0,0,1-4.62,1.32h-6.69c-.57,0-.85-.23-.85-.69a1.23,1.23,0,0,1,0-.29C130.64,73.52,130.66,73.4,130.68,73.27Zm5.62-6.63L135.39,71h2.38c1.74,0,2.73-.66,3-2l.05-.32a2.25,2.25,0,0,0,0-.4c0-1.1-.77-1.65-2.3-1.65Zm1.57-7.34-.85,4h2.11c1.58,0,2.48-.6,2.69-1.79l.05-.29a2.25,2.25,0,0,0,0-.4c0-1-.69-1.47-2.08-1.47Z"/>
      <path class="cls-2" d="M148.59,73.27l3.52-16.61a1.33,1.33,0,0,1,.4-.81,1.71,1.71,0,0,1,1-.2h2.19c.57,0,.85.23.85.69a2.13,2.13,0,0,1,0,.3,1.63,1.63,0,0,1-.08.37l-3.52,16.61a1.28,1.28,0,0,1-.4.83,1.79,1.79,0,0,1-1,.18h-2.18c-.57,0-.85-.23-.85-.69a1.23,1.23,0,0,1,0-.29Z"/>
      <path class="cls-2" d="M173.55,65.67,173,68.31a8.92,8.92,0,0,1-2.64,5,7.2,7.2,0,0,1-5,1.76,7,7,0,0,1-4.89-1.6A5.67,5.67,0,0,1,158.72,69a8.81,8.81,0,0,1,.06-1,7.86,7.86,0,0,1,.16-1l.82-4q1.63-7.78,8.48-7.79a6.48,6.48,0,0,1,4.36,1.38,4.63,4.63,0,0,1,1.61,3.72v.33a1.81,1.81,0,0,1-.05.36c-.07.53-.45.8-1.15.8h-2.1c-.66,0-1-.28-1-.83a1.89,1.89,0,0,0-2.16-2q-2.68,0-3.51,4l-.88,4.16c-.06.26-.1.53-.14.78a6.57,6.57,0,0,0,0,.74c0,1.76.82,2.64,2.45,2.64a2.92,2.92,0,0,0,2.09-.8,4.22,4.22,0,0,0,1.14-2.27H167c-.51,0-.77-.24-.77-.72a.76.76,0,0,1,0-.15s0-.13,0-.28l.35-1.65a1.23,1.23,0,0,1,.39-.8,1.59,1.59,0,0,1,.94-.21h4.83c.58,0,.88.22.88.66A3.62,3.62,0,0,1,173.55,65.67Z"/>
      <path class="cls-2" d="M192,65.67l-.56,2.64a8.8,8.8,0,0,1-2.64,5,7.17,7.17,0,0,1-5,1.76,7,7,0,0,1-4.89-1.6A5.7,5.7,0,0,1,177.2,69c0-.36,0-.7.05-1s.09-.67.16-1l.83-4q1.62-7.78,8.48-7.79a6.49,6.49,0,0,1,4.36,1.38,4.63,4.63,0,0,1,1.61,3.72v.33a1.81,1.81,0,0,1-.05.36c-.08.53-.46.8-1.15.8h-2.11c-.65,0-1-.28-1-.83a1.89,1.89,0,0,0-2.16-2c-1.79,0-3,1.35-3.52,4l-.88,4.16c-.05.26-.1.53-.13.78a4.91,4.91,0,0,0-.06.74q0,2.64,2.46,2.64a2.93,2.93,0,0,0,2.09-.8,4.15,4.15,0,0,0,1.13-2.27h-1.86q-.78,0-.78-.72a.77.77,0,0,1,0-.15s0-.13,0-.28l.34-1.65a1.23,1.23,0,0,1,.39-.8,1.63,1.63,0,0,1,1-.21h4.82c.59,0,.88.22.88.66A2.68,2.68,0,0,1,192,65.67Z"/>
      <path class="cls-2" d="M200,55.65h9.59c.59,0,.89.23.89.69a1.64,1.64,0,0,1,0,.22c0,.07,0,.15,0,.24l-.32,1.52a1.79,1.79,0,0,1-.37.94,1.27,1.27,0,0,1-.86.23h-6.53L201.57,63h5.78c.59,0,.88.23.88.69a1.48,1.48,0,0,1,0,.21c0,.08,0,.16,0,.25l-.3,1.41a1.71,1.71,0,0,1-.37.94,1.19,1.19,0,0,1-.85.23h-5.87l-.88,4.05h6.75c.58,0,.88.24.88.7,0,.07,0,.14,0,.21s0,.15-.05.24l-.31,1.52a1.73,1.73,0,0,1-.39,1,1.26,1.26,0,0,1-.84.22H195.83c-.56,0-.85-.23-.85-.69a1.31,1.31,0,0,1,0-.27,3.65,3.65,0,0,0,.07-.4l3.52-16.61a1.33,1.33,0,0,1,.4-.81A1.67,1.67,0,0,1,200,55.65Z"/>
      <path class="cls-2" d="M214.76,74.63h-2.13c-.57,0-.85-.23-.85-.69a1.23,1.23,0,0,1,0-.29c0-.13.05-.25.06-.38l3.52-16.61a1.38,1.38,0,0,1,.4-.81,1.71,1.71,0,0,1,1-.2h5A6.59,6.59,0,0,1,226.13,57a4.52,4.52,0,0,1,1.56,3.68,4.59,4.59,0,0,1,0,.62c0,.22-.05.47-.09.74l-.08.42a6.15,6.15,0,0,1-3.81,5l2.13,6.19a.72.72,0,0,1,.06.29q0,.72-1,.72h-2.48a1.4,1.4,0,0,1-.82-.18,1.65,1.65,0,0,1-.43-.83l-1.73-5.57H217.3l-1.18,5.57a1.23,1.23,0,0,1-.38.81A1.71,1.71,0,0,1,214.76,74.63Zm4.38-15.27-1.07,5h2.19a2.63,2.63,0,0,0,2.93-2.3l.05-.29c0-.12,0-.23,0-.32a3.44,3.44,0,0,0,0-.35c0-1.19-.71-1.78-2.13-1.78Z"/>
    </g>
  </g>
</svg>