<?xml version="1.0" encoding="utf-8"?>
<svg xmlns="http://www.w3.org/2000/svg" width="327" height="25" viewBox="0 0 327 25" fill="none">
<path d="M99.5 0.871094L102.194 9.16289H110.913L103.859 14.2875L106.553 22.5793L99.5 17.4547L92.4466 22.5793L95.1407 14.2875L88.0873 9.16289H96.8058L99.5 0.871094Z" fill="#FFD346"/>
<path d="M131.5 0.871094L134.194 9.16289H142.913L135.859 14.2875L138.553 22.5793L131.5 17.4547L124.447 22.5793L127.141 14.2875L120.087 9.16289H128.806L131.5 0.871094Z" fill="#FFD346"/>
<path d="M163.5 0.871094L166.194 9.16289H174.913L167.859 14.2875L170.553 22.5793L163.5 17.4547L156.447 22.5793L159.141 14.2875L152.087 9.16289H160.806L163.5 0.871094Z" fill="#FFD346"/>
<path d="M195.5 0.871094L198.194 9.16289H206.913L199.859 14.2875L202.553 22.5793L195.5 17.4547L188.447 22.5793L191.141 14.2875L184.087 9.16289H192.806L195.5 0.871094Z" fill="#FFD346"/>
<path d="M227.5 0.871094L230.194 9.16289H238.913L231.859 14.2875L234.553 22.5793L227.5 17.4547L220.447 22.5793L223.141 14.2875L216.087 9.16289H224.806L227.5 0.871094Z" fill="#FFD346"/>
</svg>