<?xml version="1.0" encoding="utf-8"?>
<svg xmlns="http://www.w3.org/2000/svg" xmlns:xlink="http://www.w3.org/1999/xlink" version="1.1" id="Layer_1" x="0px" y="0px" viewBox="0 0 119.893 34" style="enable-background:new 0 0 119.893 34;">
<style type="text/css">
	.st0{fill:#FFFFFF;}
</style>
<g>
	<g>
		<g>
			<path class="st0" d="M54.052,25.583h0.732v0.176c0,0.212,0.059,0.344,0.176,0.395c0.102,0.051,0.329,0.073,0.688,0.073&#xA;				c0.293,0,0.476-0.022,0.563-0.073c0.132-0.073,0.19-0.234,0.19-0.49c0-0.154-0.029-0.271-0.08-0.351&#xA;				c-0.051-0.073-0.154-0.117-0.3-0.132c-0.102-0.007-0.263-0.015-0.483-0.022c-0.388-0.022-0.637-0.044-0.746-0.066&#xA;				c-0.278-0.051-0.468-0.176-0.578-0.366c-0.095-0.161-0.146-0.395-0.146-0.702c0-0.476,0.146-0.79,0.446-0.937&#xA;				c0.198-0.095,0.578-0.146,1.134-0.146c0.49,0,0.82,0.044,1.003,0.139c0.278,0.146,0.417,0.439,0.417,0.893v0.124h-0.732v-0.124&#xA;				c0-0.19-0.051-0.315-0.146-0.366c-0.08-0.044-0.256-0.059-0.534-0.059c-0.315,0-0.505,0.015-0.578,0.037&#xA;				c-0.176,0.059-0.263,0.212-0.263,0.446c0,0.227,0.051,0.366,0.146,0.424c0.088,0.051,0.315,0.08,0.695,0.11&#xA;				c0.637,0.037,1.032,0.11,1.193,0.212c0.205,0.132,0.307,0.432,0.307,0.893c0,0.498-0.124,0.827-0.381,0.988&#xA;				c-0.19,0.117-0.556,0.176-1.12,0.176c-0.556,0-0.929-0.044-1.12-0.124c-0.322-0.146-0.483-0.461-0.483-0.951V25.583&#xA;				L54.052,25.583z"/>
			<path class="st0" d="M64.443,23.607v3.198h-0.732v-3.198h-1.12v-0.629h2.978v0.629H64.443z"/>
			<path class="st0" d="M73.605,22.978h0.732V25.7c0,0.483-0.146,0.812-0.446,0.966c-0.212,0.11-0.593,0.168-1.149,0.168&#xA;				c-0.541,0-0.915-0.059-1.127-0.168c-0.307-0.161-0.461-0.483-0.461-0.966v-2.722h0.732V25.7c0,0.234,0.088,0.388,0.271,0.454&#xA;				c0.095,0.037,0.293,0.059,0.578,0.059c0.293,0,0.49-0.022,0.585-0.059c0.183-0.066,0.278-0.22,0.278-0.454v-2.722H73.605z"/>
			<path class="st0" d="M80.234,26.805v-3.827h1.829c0.527,0,0.907,0.102,1.134,0.315c0.241,0.22,0.366,0.593,0.366,1.105v0.9&#xA;				c0,0.498-0.102,0.871-0.307,1.105c-0.22,0.263-0.578,0.395-1.076,0.395h-1.946V26.805z M80.974,26.175h1.215&#xA;				c0.234,0,0.402-0.095,0.512-0.278c0.095-0.154,0.139-0.351,0.139-0.6v-0.9c0-0.3-0.051-0.505-0.161-0.622&#xA;				S82.364,23.6,82.071,23.6h-1.09v2.576H80.974z"/>
			<path class="st0" d="M90.091,22.978v3.827h-0.732v-3.827H90.091z"/>
			<path class="st0" d="M97.497,22.948c0.6,0,1.01,0.08,1.229,0.241c0.271,0.19,0.402,0.578,0.402,1.156v1.032&#xA;				c0,0.585-0.124,0.988-0.381,1.185c-0.227,0.183-0.644,0.271-1.251,0.271c-0.622,0-1.039-0.088-1.251-0.263&#xA;				c-0.241-0.198-0.366-0.6-0.366-1.2v-1.032c0-0.578,0.124-0.966,0.381-1.156C96.479,23.029,96.889,22.948,97.497,22.948z&#xA;				 M97.497,23.57c-0.381,0-0.629,0.051-0.739,0.161c-0.095,0.095-0.146,0.293-0.146,0.615v1.032c0,0.366,0.059,0.6,0.168,0.702&#xA;				c0.102,0.088,0.337,0.132,0.717,0.132c0.351,0,0.585-0.044,0.695-0.139c0.132-0.11,0.198-0.337,0.198-0.695v-1.032&#xA;				c0-0.337-0.066-0.556-0.205-0.651C98.082,23.614,97.855,23.57,97.497,23.57z"/>
			<path class="st0" d="M104.756,25.583h0.732v0.176c0,0.212,0.059,0.344,0.176,0.395c0.102,0.051,0.329,0.073,0.688,0.073&#xA;				c0.293,0,0.476-0.022,0.563-0.073c0.132-0.073,0.19-0.234,0.19-0.49c0-0.154-0.029-0.271-0.08-0.351&#xA;				c-0.051-0.073-0.154-0.117-0.3-0.132c-0.102-0.007-0.263-0.015-0.483-0.022c-0.388-0.022-0.637-0.044-0.746-0.066&#xA;				c-0.278-0.051-0.468-0.176-0.578-0.366c-0.095-0.161-0.146-0.395-0.146-0.702c0-0.476,0.146-0.79,0.446-0.937&#xA;				c0.198-0.095,0.578-0.146,1.134-0.146c0.49,0,0.82,0.044,1.003,0.139c0.278,0.146,0.417,0.439,0.417,0.893v0.124h-0.732v-0.124&#xA;				c0-0.19-0.051-0.315-0.146-0.366c-0.08-0.044-0.256-0.059-0.534-0.059c-0.315,0-0.505,0.015-0.578,0.037&#xA;				c-0.176,0.059-0.263,0.212-0.263,0.446c0,0.227,0.044,0.366,0.139,0.424c0.088,0.051,0.315,0.08,0.702,0.11&#xA;				c0.637,0.037,1.032,0.11,1.193,0.212c0.205,0.132,0.307,0.432,0.307,0.893c0,0.498-0.124,0.827-0.381,0.988&#xA;				c-0.19,0.117-0.556,0.176-1.12,0.176c-0.556,0-0.929-0.044-1.12-0.124c-0.322-0.146-0.483-0.461-0.483-0.951L104.756,25.583&#xA;				L104.756,25.583z"/>
		</g>
		<path class="st0" d="M114.473,9.74h-0.571l-1.756,1.346V8.401h6.747v2.686l-1.742-1.346h-0.534v8.576l0.871,1.5h-3.886l0.871-1.5&#xA;			L114.473,9.74L114.473,9.74z M51.96,18.324l-0.871,1.5h3.886l-0.871-1.5V9.748h0.534l1.742,1.346V8.409h-6.747v2.686l1.756-1.346&#xA;			h0.571V18.324z M70.517,14.855l-1.683-1.12l1.683-1.281V9.711c0-0.783-0.739-1.295-1.42-1.295h-5.049l0.71,1.339v10.084h2.064&#xA;			v-5.386l1.639,1.127v4.259h2.049L70.517,14.855z M66.829,13.187V9.748h1.639v2.334L66.829,13.187z M96.37,14.855l-1.683-1.12&#xA;			l1.683-1.281V9.711c0-0.783-0.739-1.295-1.42-1.295h-5.049l0.71,1.339v10.084h2.064v-5.386l1.639,1.127v4.259h2.049L96.37,14.855z&#xA;			 M92.682,13.187V9.748h1.639v2.334L92.682,13.187z M48.769,14.87l-3.615-2.568V9.748h1.507v1.566l2.107,1.507V8.409h-5.752v1.193&#xA;			v3.337l3.615,2.576v2.803h-1.478v-1.829l-2.137-1.537v4.866h4.222c0.842,0,1.537-0.783,1.537-1.39V14.87H48.769z M63.031,9.748&#xA;			c0-0.856-0.424-1.339-1.756-1.339H57.25v1.178v8.84c0,0.607,0.695,1.405,1.537,1.405h4.244V9.748z M59.387,18.316V9.74h1.537&#xA;			v8.576H59.387z M75.778,8.401h-4.295l0.768,1.346v10.076H74.3V9.748h1.478v10.076h2.232V9.748h1.434v10.076h2.049V9.748&#xA;			c0-0.929-0.307-1.346-1.178-1.346h-2.393H75.778z M103.855,9.587c0-0.944-0.71-1.178-1.551-1.178h-4.208v1.295v10.12h2.137v-4.427&#xA;			l1.493-1.134v5.561h2.122V9.587H103.855z M100.241,13.421V9.748h1.493v2.481L100.241,13.421z M105.582,18.324l-0.681,1.5h3.498&#xA;			l-0.681-1.5v-2.803l2.005-1.712l-2.005-1.668V9.748h1.449v1.522l2.107,1.507V8.409h-6.374l0.681,1.178L105.582,18.324z&#xA;			 M88.855,12.748V8.409h-6.359l0.724,1.31l0.015,10.113h5.634l-0.015-2.664l-1.493,1.061h-2.02V9.748h1.507v1.493L88.855,12.748z"/>
	</g>
	<path class="st0" d="M26.867,24.991v-7.766l1.296-1.472h6.919l3.982-6.897l-2.45-4.233h-8.579L20.019,0l-7.987,4.626H3.45L1,8.863&#xA;		l3.978,6.893h6.919l1.296,1.472v7.766l1,0.577v1.075l-0.847-0.483l-1.779,2.959L20.034,34l8.466-4.877l-1.783-2.967l-0.847,0.483&#xA;		v-1.075L26.867,24.991z M28.635,5.361h7.541l1.034,1.791h-8.571V5.361H28.635z M28.635,7.961h9.043l0.517,0.895l-0.517,0.892&#xA;		h-7.181v0.813h6.713L36.146,12.4h-7.511V7.961z M28.635,13.213h7.043l-1.034,1.791h-6.013v-1.791H28.635z M26.938,4.848&#xA;		l0.888,0.513v9.643l-0.888,1.015V4.848z M11.426,15.003H5.413l-1.034-1.791h7.043v1.791H11.426z M11.426,12.403H3.915l-1.064-1.839&#xA;		h6.713V9.751H2.382L1.865,8.856l0.517-0.895h9.039v4.443H11.426z M11.426,7.151H2.851l1.034-1.791h7.541V7.151z M13.123,16.019&#xA;		l-0.888-1.015V5.361l0.888-0.513V16.019z M16.535,2.877l1.791-1.034v4.612l0.813-0.472V1.375l0,0l0,0l0.895-0.517l0,0l0,0&#xA;		l0.895,0.517l0,0l0,0v4.608l0.813,0.472V1.843l1.791,1.034v5.084h-6.998V2.877z M13.935,4.379l1.791-1.034v5.507h8.612V3.345&#xA;		l1.791,1.034v11.658l-1.791-1.03V9.751h-8.616v5.256l-1.791,1.034V4.379H13.935z M20.03,29.014l5.099-2.944v0.929l-5.099,2.944l0,0&#xA;		l0,0l-5.099-2.944v-0.929L20.03,29.014z M16.535,26.058v-2.386l1.791-1.034v4.45L16.535,26.058z M20.926,27.56l-0.532,0.307&#xA;		l-0.36,0.21l0,0l0,0l-0.36-0.21l-0.532-0.307l0,0l0,0V16.816l0,0h1.791l0,0L20.926,27.56L20.926,27.56L20.926,27.56z&#xA;		 M21.735,27.092v-4.45l1.791,1.034v2.383L21.735,27.092z M23.533,15.475v7.256v0.004l-1.791-1.034v-0.004v-5.346l-1.708-0.989&#xA;		l-1.708,0.989v5.346v0.004l-1.791,1.034v-0.004v-7.256v-0.004l0.011-0.004l2.472-1.427l1.015,0.584l1.015-0.584l2.472,1.427&#xA;		L23.533,15.475L23.533,15.475z M16.535,13.464v-2.379l1.791,1.034v1.382l-0.895,0.517L16.535,13.464z M19.135,13.175v-2.087l0,0&#xA;		l0.895-0.524l0,0l0,0l0.895,0.524l0,0v2.087l-0.895,0.521l0,0l0,0l0,0l0,0L19.135,13.175z M21.735,13.505v-1.382l1.791-1.034v2.379&#xA;		l-0.895,0.554L21.735,13.505z M13.935,24.56v-7.578l1.791-1.041v9.65L13.935,24.56z M26.455,27.175l1.008,1.678l-7.432,4.289l0,0&#xA;		l0,0l-7.432-4.286l1.008-1.678l6.428,3.701L26.455,27.175z M24.338,25.59v-9.65l1.791,1.041v7.578L24.338,25.59z"/>
</g>
</svg>