<?xml version="1.0" encoding="utf-8"?>
<svg xmlns="http://www.w3.org/2000/svg" xmlns:xlink="http://www.w3.org/1999/xlink" version="1.1" id="Layer_1" x="0px" y="0px" viewBox="0 0 149.3 34" style="enable-background:new 0 0 149.3 34;">
<style type="text/css">
	.st0{fill:#FD0807;}
	.st1{fill:#FFFFFF;}
	.st2{fill:#242A38;}
	.st3{fill:#222A38;}
</style>
<g>
	<path class="st0" d="M23.282,16.853c1.399-1.32,2.85-2.586,4.079-4.078c0.169-0.205,0.315-0.767,0.725-0.269&#xA;		c1.863,2.262,3.872,4.48,4.032,7.616c0.139,2.732-0.857,5.023-3.209,6.521c-2.48,1.58-5.069,1.502-7.645,0.158&#xA;		c-0.381-0.199-0.743-0.432-1.36-0.794c0.903,3.19,2.418,5.74,4.833,7.993c-4.542,0-8.839,0-13.349,0&#xA;		c2.298-2.292,3.881-4.884,4.75-7.952c-4.713,2.687-8.253,2.216-11.026-1.559c4.29-0.384,8.228-1.69,11.99-3.56&#xA;		c0.478,1.001-0.416,1.558-0.787,2.424c1.1,0.162,2.178,0.01,3.422,0.107c-0.294-0.758-0.846-1.262-0.982-1.946&#xA;		c-0.123-0.617-0.114-1.008,0.757-0.901c3.147,0.387,3.832-0.262,3.685-3.337C23.19,17.133,23.239,16.992,23.282,16.853z"/>
	<path class="st0" d="M13.696,20.96c-3.081,1.38-6.278,2.301-9.679,2.245c-2.718-0.044-3.702-1.557-2.56-4.082&#xA;		c-0.043,1.475,0.33,2.51,1.839,2.677c0.368,0.041,0.672,0.085,0.611-0.469c-0.357-3.276,1.462-5.626,3.361-7.965&#xA;		C10.836,8.972,14.365,4.544,18.015,0c2.698,3.362,5.351,6.667,8.012,9.983c1.638-1.81,1.569-3.245-0.181-5.122&#xA;		c2.467,0.342,3.46,2.088,2.38,4.385c-1.278,2.717-3.407,4.714-5.785,6.468c-1.236-0.435-1.688-1.641-2.434-2.539&#xA;		c-2.045-2.461-2.021-2.487-3.957,0.001c-0.532,0.683-1.032,1.403-1.626,2.023C12.735,16.959,12.104,18.806,13.696,20.96z"/>
	<path class="st0" d="M39.231,20.413c1.233,0.549,2.305,0.881,3.547,0.976c0.669,0.051,1.468,0.03,1.68-0.764&#xA;		c0.213-0.796-0.558-0.993-1.102-1.271c-0.809-0.413-1.637-0.791-2.422-1.245c-1.402-0.811-1.927-2.101-1.762-3.659&#xA;		c0.171-1.627,1.214-2.588,2.706-3.003c1.808-0.502,3.602-0.277,5.361,0.36c0.254,0.092,0.707,0.301,0.707,0.301l-1.157,2.575&#xA;		c0,0-0.826-0.272-1.587-0.479c-0.092-0.025-0.179-0.073-0.273-0.092c-0.847-0.177-1.946-0.508-2.266,0.504&#xA;		c-0.288,0.911,0.902,1.027,1.516,1.395c0.449,0.269,0.944,0.461,1.409,0.706c1.866,0.98,2.641,2.324,2.333,4.028&#xA;		c-0.334,1.848-1.814,3.152-3.816,3.333c-0.525,0.048-1.056,0.044-1.585,0.037c-1.479-0.017-2.785-0.317-3.275-0.688L39.231,20.413z"/>
	<path class="st1" d="M94.601,20.413c1.233,0.549,2.305,0.881,3.547,0.976c0.669,0.051,1.468,0.03,1.68-0.764&#xA;		c0.213-0.796-0.558-0.993-1.102-1.271c-0.809-0.413-1.637-0.791-2.422-1.245c-1.402-0.811-1.927-2.101-1.762-3.659&#xA;		c0.171-1.627,1.214-2.588,2.706-3.003c1.808-0.502,3.602-0.277,5.361,0.36c0.254,0.092,0.707,0.301,0.707,0.301l-1.157,2.575&#xA;		c0,0-0.826-0.272-1.587-0.479c-0.092-0.025-0.179-0.073-0.273-0.092c-0.847-0.177-1.946-0.508-2.266,0.504&#xA;		c-0.288,0.911,0.902,1.027,1.516,1.395c0.449,0.269,0.944,0.461,1.409,0.706c1.866,0.98,2.641,2.324,2.333,4.028&#xA;		c-0.334,1.848-1.814,3.152-3.816,3.333c-0.525,0.048-1.056,0.044-1.585,0.037c-1.479-0.017-2.785-0.317-3.275-0.688L94.601,20.413z"/>
	<path class="st1" d="M144.907,30.496c0.463,0.206,0.984,0.324,1.45,0.359c0.251,0.019,0.551,0.011,0.63-0.287&#xA;		c0.08-0.299-0.209-0.373-0.413-0.477c-0.303-0.155-0.614-0.297-0.909-0.467c-0.526-0.304-0.809-0.771-0.748-1.355&#xA;		c0.064-0.61,0.542-0.989,1.101-1.144c0.678-0.188,1.351-0.104,2.011,0.135c0.095,0.035,0.265,0.113,0.265,0.113l-0.434,0.966&#xA;		c0,0-0.31-0.102-0.595-0.18c-0.035-0.009-0.067-0.027-0.102-0.035c-0.318-0.067-0.73-0.191-0.85,0.189&#xA;		c-0.108,0.342,0.338,0.385,0.569,0.524c0.168,0.101,0.354,0.173,0.529,0.265c0.7,0.368,0.991,0.872,0.875,1.511&#xA;		c-0.125,0.693-0.681,1.183-1.432,1.251c-0.197,0.018-0.396,0.016-0.594,0.014c-0.555-0.007-1.164-0.112-1.348-0.251L144.907,30.496&#xA;		z"/>
	<path class="st0" d="M56.186,22.769c-1.027,1.239-2.108,1.411-3.368,1.357c-1.849-0.08-3.199-1.329-3.184-3.393&#xA;		c0.016-2.144,0.011-3.093,0-5.16c-0.002-0.298-0.001-1.32-0.001-1.32h3.366c0.019,0.418,0.003,1.256-0.003,2.228&#xA;		c-0.007,1.201,0.011,2.012,0.083,3.602c0.031,0.681,0.272,1.396,1.16,1.378c0.768-0.015,1.3-0.325,1.409-1.091&#xA;		c0.146-1.025,0.139-2.179,0.139-3.756c0-1.032,0.019-2.361,0.019-2.361l3.347,0.065c0,0,0.016,0.609,0,1.422&#xA;		c-0.049,2.404,0.077,4.33,0.026,6.734c-0.006,0.294-0.026,1.476-0.026,1.476l-2.504,0.014&#xA;		C56.632,23.595,56.633,22.953,56.186,22.769z"/>
	<path class="st2" d="M13.696,20.96c-1.672-1.546-1.854-2.962-0.493-4.758c1.357-1.789,2.809-3.506,4.188-5.279&#xA;		c0.435-0.559,0.672-0.784,1.218-0.039c1.214,1.656,2.546,3.225,3.83,4.829C19.834,17.977,16.933,19.748,13.696,20.96z"/>
	<path class="st0" d="M86.888,15.689c0.712-0.883,1.93-1.707,2.675-1.707c0.768,0,1.066,0.011,1.066,0.011v3.241&#xA;		c0,0-0.219,0.008-1.15-0.011c-1.559-0.032-2.297,0.453-2.295,2.201c0.001,1.162-0.024,1.292-0.035,2.679&#xA;		c0.015,0.73,0.006,1.832,0.006,1.832h-3.329c0,0-0.019-0.258-0.015-1.336c0.01-2.383-0.009-4.621,0.011-6.976&#xA;		c0.004-0.46-0.004-1.36-0.004-1.36l2.737,0.029c0,0,0.015,0.65,0.073,1.007C86.668,15.493,86.584,15.722,86.888,15.689z"/>
	<path class="st3" d="M23.282,16.853c0.64,1.279,0.632,2.514-0.377,3.594c-1.166,1.25-2.565,0.935-4.013,0.395&#xA;		c0.26,1.133,0.892,1.954,1.654,2.883c-1.709,0-3.296,0-4.981,0c0.522-0.926,1.373-1.687,1.537-2.796&#xA;		C19.251,19.707,21.29,18.316,23.282,16.853z"/>
	<path class="st1" d="M124.727,31.526c-0.433,0.195-1.366,0.321-1.942,0.321c-0.923,0-2.35-0.37-2.769-1.796&#xA;		c-0.542-2.09,0.068-4.254,3.364-4.218c0.287,0.003,1.076,0.014,1.076,0.014l-0.007,1.307c-0.347,0.01-0.969,0.01-1.438,0.005&#xA;		c-1.264-0.013-1.71,0.215-1.699,1.748c0.008,1.223,0.73,1.599,1.294,1.606c0.246,0.003,0.844-0.002,0.844-0.002l-0.011-0.981&#xA;		c0,0-0.448-0.003-0.638,0c-0.207,0.004-0.297,0.004-0.297,0.004l-0.009-1.074l2.225-0.006L124.727,31.526z"/>
	<path class="st1" d="M136.546,22.477c0.038-3.224,0.019-6.448,0.019-9.673c0-1.075,0.011-2.296,0.011-2.296h-3.274&#xA;		c0,0-0.009,0.841,0,1.376c0.018,1.131,0.026,2.151,0.031,3.442c-1.973-2.145-4.897-1.445-5.818,1.135&#xA;		c-0.512,1.434-0.569,2.903-0.244,4.398c0.299,1.373,0.797,2.665,2.227,3.115c1.409,0.443,2.761,0.153,3.739-1.138&#xA;		c0.18-0.211,0.337-0.366,0.6,0.239c0.123,0.283,0.259,0.589,0.364,0.844l2.374,0.008C136.576,23.926,136.54,22.98,136.546,22.477z&#xA;		 M133.344,20.236c-0.122,0.66-0.478,1.146-1.198,1.218c-0.725,0.072-1.139-0.321-1.388-0.973c-0.301-0.788-0.313-1.576-0.11-2.382&#xA;		c0.19-0.751,0.52-1.349,1.428-1.294c0.892,0.054,1.202,0.652,1.288,1.434c0.031,0.284,0.033,0.571,0.053,0.93&#xA;		C133.398,19.476,133.413,19.864,133.344,20.236z"/>
	<path class="st0" d="M70.842,17.713c-0.186-1.476-0.679-2.807-2.182-3.466c-1.546-0.678-2.842,0.034-3.966,1.2&#xA;		c-0.166-0.008-0.216-0.241-0.249-1.164c0,0-2.047-0.012-2.893-0.008c0,0-0.013,0.829-0.017,1.274&#xA;		c-0.032,3.459-0.017,6.918-0.017,10.378c0,1.174,0.013,1.938-0.003,2.306l3.346-0.006c0,0,0.018-0.316,0.009-1.031&#xA;		c-0.016-1.283-0.015-2.568-0.015-3.858c3.463,1.671,5.817,0.373,6.019-3.324C70.915,19.249,70.937,18.47,70.842,17.713z&#xA;		 M66.199,21.388c-1.354,0-1.313-1.338-1.341-2.316c-0.008-0.282-0.011-0.732,0.035-1.014c0.129-0.79,0.283-1.369,1.377-1.363&#xA;		c0.974,0.005,1.139,0.852,1.153,1.68C67.44,19.405,67.678,21.388,66.199,21.388z"/>
	<path class="st1" d="M114.484,17.713c-0.186-1.476-0.679-2.807-2.182-3.466c-1.546-0.678-2.842,0.034-3.966,1.2&#xA;		c-0.166-0.008-0.216-0.241-0.249-1.164c0,0-2.047-0.012-2.893-0.008c0,0-0.013,0.829-0.017,1.274&#xA;		c-0.032,3.459-0.017,6.918-0.017,10.378c0,1.174,0.013,1.938-0.003,2.306l3.346-0.006c0,0,0.018-0.316,0.009-1.031&#xA;		c-0.016-1.283-0.015-2.568-0.015-3.858c3.463,1.671,5.817,0.373,6.019-3.324C114.557,19.249,114.579,18.47,114.484,17.713z&#xA;		 M109.841,21.388c-1.354,0-1.313-1.338-1.341-2.316c-0.008-0.282-0.011-0.732,0.035-1.014c0.129-0.79,0.283-1.369,1.377-1.363&#xA;		c0.974,0.005,1.139,0.852,1.153,1.68C111.082,19.405,111.32,21.388,109.841,21.388z"/>
	<path class="st1" d="M125.239,22.394c0.008-0.765,0.001-1.591,0.001-2.36c0-0.865,0.024-1.606,0.003-2.471&#xA;		c-0.048-1.998-1.034-3.061-2.971-3.467c-1.548-0.324-2.942-0.007-4.418,0.453c-0.425,0.132-0.759,0.369-0.759,0.369l0.975,2.151&#xA;		c0,0,0.612-0.271,0.766-0.334c0.624-0.258,1.271-0.368,2.106-0.22c0.498,0.088,0.779,0.401,0.745,0.893&#xA;		c-0.031,0.459-0.668,0.364-0.95,0.362c-1.253-0.009-2.252,0.088-3.35,0.618c-1.24,0.599-1.73,1.802-1.432,3.445&#xA;		c0.216,1.19,0.9,2.059,2.123,2.238c1.239,0.181,2.523,0.209,3.495-0.824c0.406-0.432,0.899-0.632,1.148-0.058&#xA;		c0.123,0.284,0.195,0.599,0.209,0.759l2.311,0.007C125.239,23.954,125.233,22.917,125.239,22.394z M122.01,20.041&#xA;		c0.014,1.205-0.574,1.702-1.78,1.702c-0.55,0-0.803-0.371-0.769-0.96c0.062-1.064,0.804-1.091,1.565-1.112&#xA;		C121.798,19.649,122.024,19.699,122.01,20.041z"/>
	<path class="st1" d="M130.242,31.164c0.004-0.382,0-0.795,0-1.179c0-0.432,0.012-0.803,0.002-1.235&#xA;		c-0.024-0.998-0.517-1.53-1.485-1.733c-0.773-0.162-1.47-0.003-2.208,0.226c-0.212,0.066-0.379,0.184-0.379,0.184l0.487,1.075&#xA;		c0,0,0.306-0.135,0.383-0.167c0.312-0.129,0.635-0.184,1.052-0.11c0.249,0.044,0.389,0.201,0.372,0.446&#xA;		c-0.016,0.229-0.334,0.182-0.475,0.181c-0.626-0.004-1.125,0.044-1.674,0.309c-0.619,0.299-0.864,0.901-0.715,1.721&#xA;		c0.108,0.595,0.45,1.029,1.061,1.118c0.619,0.09,1.261,0.104,1.746-0.412c0.203-0.216,0.449-0.316,0.574-0.029&#xA;		c0.061,0.142,0.097,0.299,0.104,0.379l1.155,0.003C130.242,31.943,130.239,31.425,130.242,31.164z M128.628,29.988&#xA;		c0.007,0.602-0.287,0.851-0.889,0.85c-0.275,0-0.401-0.185-0.384-0.48c0.031-0.532,0.402-0.545,0.782-0.556&#xA;		C128.523,29.792,128.635,29.817,128.628,29.988z"/>
	<path class="st0" d="M80.645,15.148c-1.385-1.293-4.056-1.568-5.939-0.588c-1.647,0.857-2.581,2.978-2.291,5.202&#xA;		c0.308,2.363,1.558,3.907,3.609,4.26c0.887,0.153,1.818,0.093,2.727,0.062c1.163-0.04,2.025-0.299,2.463-0.565l0.02-2.322&#xA;		c-3.561,1.242-4.882,0.72-5.383-1.162c1.809,0,3.488,0.007,5.166-0.006c0.343-0.003,0.826,0.167,0.841-0.467&#xA;		C81.896,17.969,81.961,16.376,80.645,15.148z M77.335,17.855c-0.51,0-1.249,0.094-1.249-0.522c0-0.724,0.671-1.037,1.334-1.025&#xA;		c0.606,0.011,1.215,0.34,1.215,0.992C78.634,17.975,77.829,17.851,77.335,17.855z"/>
	<path class="st1" d="M146.899,15.148c-1.385-1.293-4.056-1.568-5.939-0.588c-1.647,0.857-2.581,2.978-2.291,5.202&#xA;		c0.308,2.363,1.558,3.907,3.609,4.26c0.887,0.153,1.818,0.093,2.727,0.062c1.163-0.04,2.025-0.299,2.463-0.565l0.02-2.322&#xA;		c-3.561,1.242-4.882,0.72-5.383-1.162c1.809,0,3.488,0.007,5.166-0.006c0.343-0.003,0.826,0.167,0.841-0.467&#xA;		C148.149,17.969,148.214,16.376,146.899,15.148z M143.588,17.855c-0.51,0-1.249,0.094-1.249-0.522c0-0.724,0.671-1.037,1.334-1.025&#xA;		c0.606,0.011,1.215,0.34,1.215,0.992C144.887,17.975,144.082,17.851,143.588,17.855z"/>
	<path class="st1" d="M143.302,27.587c-0.665-0.62-1.946-0.752-2.849-0.282c-0.79,0.411-1.238,1.429-1.099,2.496&#xA;		c0.148,1.134,0.748,1.875,1.732,2.044c0.426,0.073,0.872,0.045,1.308,0.03c0.558-0.019,0.972-0.144,1.182-0.271l0.01-1.114&#xA;		c-1.708,0.596-2.342,0.345-2.583-0.558c0.868,0,1.673,0.004,2.479-0.003c0.165-0.001,0.396,0.08,0.403-0.224&#xA;		C143.902,28.94,143.933,28.176,143.302,27.587z M141.714,28.886c-0.245,0-0.599,0.045-0.599-0.25c0-0.348,0.322-0.498,0.64-0.492&#xA;		c0.291,0.005,0.583,0.163,0.583,0.476C142.337,28.943,141.951,28.884,141.714,28.886z"/>
	<path class="st1" d="M131.468,27.303v4.589h1.405V29.13c0.013-0.23,0.109-0.376,0.286-0.501c0.162-0.114,0.584-0.155,0.801,0.006&#xA;		c0.138,0.103,0.304,0.237,0.297,0.439v2.827l1.411,0.017l0-2.869c0.003-0.205,0.112-0.338,0.224-0.42&#xA;		c0.212-0.155,0.681-0.144,0.876-0.044c0.226,0.116,0.372,0.254,0.372,0.503l0,2.805h1.411v-3.167c0-0.573-0.297-1.105-0.812-1.356&#xA;		c-0.367-0.178-1.125-0.418-1.832,0.357c0,0-0.135,0.218-0.29,0.227c-0.171,0.01-0.277-0.143-0.383-0.268&#xA;		c-0.163-0.194-1.24-1.109-2.176,0.162c0,0-0.062,0.077-0.182,0.068c-0.114-0.008-0.161-0.183-0.2-0.327l-0.034-0.286H131.468z"/>
</g>
</svg>