<?xml version="1.0" encoding="utf-8"?>
<svg xmlns="http://www.w3.org/2000/svg" width="48" height="48" viewBox="0 0 48 48" fill="none">
<g clip-path="url(#clip0_13770_10549)">
<path d="M1.79999 46.2C1.79999 46.2 2.69999 39.9 8.39999 39.9C14.1 39.9 15 36 15 36M46.2 46.2C46.2 46.2 45.3 39.9 39.6 39.9C33.9 39.9 33 36 33 36M31.5 10.5C28.2 6 14.4 4.5 14.4 18.9C14.4 33.3 23.1 34.2 25.8 34.2M27 27V28.7C27 29.2523 27.4475 29.7 27.9998 29.7H34.2C37.5 29.7 37.5 25.2 37.5 25.2H35.162C34.2267 25.2 33.5504 23.7682 33.8505 22.8823C34.0565 22.2744 34.2 21.547 34.2 20.7C34.2 19.7468 34.1091 18.9753 33.9851 18.3663C33.8207 17.5588 34.4759 16.5 35.3 16.5H37.5C37.5 16.5 39.6 1.5 23.85 1.5C8.09997 1.5 10.2 16.5 10.2 16.5M14.1 16.5H11.85C9.44755 16.5 7.49999 18.4476 7.49999 20.85C7.49999 23.2524 9.44755 25.2 11.85 25.2H14.7M36.3 25.2C38.6196 25.2 40.5 23.3196 40.5 21V20.7C40.5 18.3804 38.6196 16.5 36.3 16.5" stroke="url(#paint0_linear_13770_10549)" stroke-width="2" stroke-linecap="round"/>
</g>
<defs>
<linearGradient id="paint0_linear_13770_10549" x1="1.79999" y1="1.5" x2="48.854" y2="4.49431" gradientUnits="userSpaceOnUse">
<stop stop-color="#FFDC86"/>
<stop offset="0.550621" stop-color="#FFAD7B"/>
<stop offset="1" stop-color="#FFD492"/>
</linearGradient>
<clipPath id="clip0_13770_10549">
<rect width="48" height="48" fill="white"/>
</clipPath>
</defs>
</svg>