<?xml version="1.0" encoding="utf-8"?>
<svg xmlns="http://www.w3.org/2000/svg" xmlns:xlink="http://www.w3.org/1999/xlink" version="1.1" id="Layer_1" x="0px" y="0px" viewBox="0 0 128.2 34" style="enable-background:new 0 0 128.2 34;">
<style type="text/css">
	.st0{fill:#FFFFFF;}
</style>
<path class="st0" d="M41.1,11.3l-7.8,0.3c-0.1,0-0.3,0.1-0.4,0.2c-0.1,0.1-0.1,0.2-0.1,0.4l0.2,2.1c0,0.3,0.3,0.5,0.5,0.5l2.1,0&#xA;	l0.5,10c0,0.1,0.1,0.3,0.2,0.4s0.2,0.1,0.4,0.1L39,25l0,0c0.3,0,0.5-0.3,0.5-0.5l-0.3-9.8l2.1,0c0.1,0,0.3-0.1,0.4-0.2&#xA;	c0.1-0.1,0.2-0.2,0.1-0.4l-0.2-2.3C41.6,11.5,41.4,11.3,41.1,11.3z M50.2,12l-2.4-0.1c-0.3,0-0.5,0.2-0.5,0.5l0,5.2l-1,0.2l-0.3-5.9&#xA;	c0-0.3-0.2-0.5-0.5-0.5l-2.3,0.1c-0.1,0-0.3,0.1-0.4,0.2c-0.1,0.1-0.2,0.2-0.2,0.4l0.4,13.1c0,0.3,0.2,0.5,0.5,0.5l2.3-0.1&#xA;	c0.1,0,0.3-0.1,0.4-0.2s0.2-0.2,0.2-0.4l-0.3-4.4l0.9,0.1l0.2,3.9c0,0.1,0.1,0.3,0.1,0.4c0.1,0.1,0.2,0.2,0.4,0.2l2.4,0.2h0&#xA;	c0.3,0,0.5-0.2,0.5-0.5V12.5c0-0.1-0.1-0.3-0.1-0.4C50.5,12,50.3,12,50.2,12z M59,10.9L56.8,11c-0.3,0-0.5,0.2-0.5,0.5&#xA;	c0,0,0,8.2,0,9.3c0,0.6,0.1,1.7-0.6,1.8c-0.5,0-0.7-0.7-0.7-1.7c0-1.1,0.1-8.8,0.1-8.8c0-0.3-0.2-0.5-0.5-0.5l-2.4-0.3&#xA;	c-0.2,0-0.3,0-0.4,0.1s-0.2,0.2-0.2,0.4c0,0,0.1,9.6,0.1,10c0,1.2,1,3.5,3.7,3.4c3-0.1,3.6-1.9,3.8-4c0.1-0.9,0.2-8.9,0.2-9.8&#xA;	c0-0.2-0.1-0.3-0.2-0.4C59.3,10.9,59.1,10.9,59,10.9z M68.4,11.4l-2.2,0.1l0,0c-0.1,0-0.3,0.1-0.4,0.2c-0.1,0.1-0.1,0.2-0.1,0.4&#xA;	l0.4,6.2l-2.3-6.4c-0.1-0.2-0.3-0.4-0.5-0.3L61,11.7c-0.3,0-0.5,0.3-0.5,0.5l0.4,12.2c0,0.3,0.2,0.5,0.5,0.5l2.2,0.2&#xA;	c0.2,0,0.3-0.1,0.4-0.2c0.1-0.1,0.2-0.2,0.2-0.4l-0.4-5.3l1.9,5.5c0.1,0.2,0.3,0.3,0.4,0.3h2.4c0,0,0,0,0.1,0c0.1,0,0.2-0.1,0.3-0.1&#xA;	c0.1-0.1,0.2-0.2,0.2-0.4l-0.2-12.7c0-0.1-0.1-0.3-0.2-0.4C68.7,11.4,68.6,11.4,68.4,11.4z M71.4,11.1c-0.2,0-0.3,0-0.5,0&#xA;	c-0.3,0-0.5,0.2-0.5,0.5L70,24.3c0,0.3,0.2,0.5,0.5,0.5c0,0,0.3,0,0.7,0l0,0c1.6,0,5.3-0.3,6.2-2.9c0.7-2.2,0.6-5.2,0.4-6.6&#xA;	C77.5,12.5,75.4,11.1,71.4,11.1z M74.8,19.5c-0.3,2.1-0.9,2.3-1.7,2.5l0.4-7.9c0.3,0.1,0.6,0.1,1,0.6C75,15.4,75,17.4,74.8,19.5z&#xA;	 M85.2,22.6l-2.9,0.2L82.1,20l1.9-0.1c0.3,0,0.4-0.2,0.5-0.5l0.2-1.7c0-0.2,0-0.3-0.1-0.4s-0.3-0.2-0.4-0.2l-2.1,0.1v-3h3l0,0&#xA;	c0.3,0,0.5-0.2,0.5-0.5c0-0.1,0-0.1,0-0.1L85.5,12c0-0.3-0.3-0.5-0.5-0.5l-5.6,0.1c-0.3,0-0.5,0.2-0.5,0.5l0.2,12.5&#xA;	c0,0.3,0.2,0.5,0.5,0.5h5.6c0.3,0,0.5-0.2,0.5-0.5l0.1-1.6c0-0.2-0.1-0.3-0.2-0.4C85.5,22.6,85.3,22.5,85.2,22.6z M94.3,15.2&#xA;	c-0.1-1.8-0.7-4.1-4.5-4.1c-0.8,0-1.8,0.1-2.8,0.3c-0.2,0.1-0.4,0.3-0.4,0.5l0.2,12.2c0,0.3,0.2,0.5,0.5,0.5l1.8,0.1&#xA;	c0.1,0,0.3,0,0.4-0.1c0.1-0.1,0.2-0.2,0.2-0.4v-3.9l0.9-0.1l1,4.2c0.1,0.2,0.3,0.4,0.5,0.4c0,0,0,0,0.1,0l1.8-0.1&#xA;	c0.2,0,0.3-0.1,0.4-0.2c0.1-0.1,0.1-0.3,0.1-0.4l-1.2-4.7C93.6,18.9,94.5,17.7,94.3,15.2z M91.1,16.9c-0.5,0.5-1.2,0.6-1.7,0.7V14&#xA;	c0.2,0,0.3-0.1,0.5-0.1c0.7,0,1.5,0.3,1.6,1.7C91.5,16.2,91.4,16.6,91.1,16.9z M101,18.8c0.7-1,2.6-3.2,2.4-7c0-0.1-0.1-0.3-0.2-0.4&#xA;	c-0.1-0.1-0.2-0.1-0.4-0.1l-2.1,0.1c-0.3,0-0.5,0.3-0.5,0.5c0.1,1.1-0.7,3.4-1.7,4.9l0.2-4.8c0-0.1-0.1-0.3-0.2-0.4&#xA;	c-0.1-0.1-0.2-0.2-0.4-0.2l-2.7,0.1c-0.1,0-0.3,0.1-0.4,0.2C95,11.9,95,12,95,12.1l0.3,12.7c0,0.2,0.1,0.3,0.2,0.4&#xA;	c0.1,0.1,0.3,0.1,0.4,0.1l2.1-0.3c0.3,0,0.4-0.3,0.4-0.5l0-3.7c0.4,0.3,1.7,2.1,1.9,3.8c0,0.3,0.3,0.5,0.5,0.4h2.2h0&#xA;	c0.1,0,0.2-0.1,0.3-0.2c0.1-0.1,0.2-0.2,0.2-0.4C103.5,24.1,102.7,20.2,101,18.8z M107.2,11l-2.4,0.3c-0.3,0-0.4,0.3-0.4,0.5l0,12.4&#xA;	c0,0.1,0.1,0.3,0.2,0.4c0.1,0.1,0.2,0.1,0.4,0.1c0,0,0,0,0,0l2.6-0.2c0.3,0,0.5-0.2,0.5-0.5l-0.2-12.5c0-0.2-0.1-0.3-0.2-0.4&#xA;	C107.5,11.1,107.4,11,107.2,11z M112.3,11.4c-0.7,0.1-3.1,0.5-3.3,4c0,0.4-0.1,0.9-0.1,1.3c-0.2,2.4-0.3,4.1,0.1,5.6&#xA;	c0.2,0.9,0.9,2.9,3.9,2.9c0.2,0,0.4,0,0.6,0c1.2-0.1,2.1-0.5,2.7-1.2c0.8-1,0.7-2.2,0.6-2.8V21c0-0.3-0.3-0.5-0.5-0.5l-1.9,0.1&#xA;	c-0.2,0-0.3,0.1-0.4,0.2c-0.1,0.1-0.1,0.3-0.1,0.4c0.1,0.3,0.1,1-0.3,1.4c-0.1,0.1-0.2,0.2-0.6,0.2h0c-0.3,0-0.5-0.1-0.6-0.3&#xA;	c-0.3-0.3-0.6-1-0.5-2.7c0-0.4,0.1-0.9,0.1-1.3c0.1-1.3,0.1-2.7,0.2-3.6v0c0.1-0.7,0.2-1,0.8-1c0.4,0,0.7,0.1,0.9,0.3&#xA;	c0.2,0.2,0.2,0.6,0.2,0.8c0,0.2,0,0.3,0.1,0.4c0.1,0.1,0.2,0.2,0.4,0.2l2.2,0c0.3,0,0.5-0.2,0.5-0.5c0-0.1,0.1-1.4-1-2.5&#xA;	C115.4,11.7,114.1,11.3,112.3,11.4z M127.2,24.1c0-0.2-1-3.9-3-5.7c1-0.9,2.9-2.7,2.3-6.8c-0.1-0.3-0.3-0.5-0.6-0.4l-2.6,0.3&#xA;	c-0.1,0-0.3,0.1-0.4,0.2c-0.1,0.1-0.1,0.3-0.1,0.4c0,0.1,0.5,3-1.5,4.8l0.1-5c0-0.2-0.1-0.3-0.2-0.4c-0.1-0.1-0.3-0.2-0.4-0.1&#xA;	l-2.5,0.3c-0.3,0-0.5,0.3-0.5,0.5l0.3,12.6c0,0.2,0.1,0.3,0.2,0.4c0.1,0.1,0.2,0.1,0.4,0.1h0l2.2-0.3c0.3,0,0.4-0.2,0.4-0.5l0.2-3.9&#xA;	c0.7,0.7,1.9,2.5,2,4.1c0,0.3,0.3,0.5,0.6,0.4l2.6-0.3c0.2,0,0.3-0.1,0.4-0.2C127.2,24.3,127.2,24.2,127.2,24.1z"/>
<path class="st0" d="M30.9,23.3l1-7.3l-4.3-9.1l-2.9,1l-3.9-4.1L13.9,0l-1.5,5.5l-1-2.9L6.1,7.7l-2.9,5.1l-0.1,5.3l-2.1-1l1.4,8.5&#xA;	l3.2,5.5l7.5,2.6l6.2,0.2l10.6-3.9l3-7.6L30.9,23.3z M26.3,19.2l-6,0.2L20,26.1l-0.3,4l-5.3-0.1v-3.8L14,19.5l-6.3,0.3l-0.2-6.5&#xA;	l9.3-0.1l9.6-0.3l0.2,0.9L26.3,19.2z"/>
</svg>