<?xml version="1.0" encoding="utf-8"?>
<svg xmlns="http://www.w3.org/2000/svg" xmlns:xlink="http://www.w3.org/1999/xlink" version="1.1" id="Layer_1" x="0px" y="0px" viewBox="0 0 121 34" style="enable-background:new 0 0 121 34;">
<style type="text/css">
	.st0{fill:url(#SVGID_1_);}
	.st1{fill:url(#SVGID_2_);}
	.st2{fill:#FFFFFF;}
</style>
<g>
	<g>
		
			<linearGradient id="SVGID_1_" gradientUnits="userSpaceOnUse" x1="16.777" y1="5650.3364" x2="26.432" y2="5650.3364" gradientTransform="matrix(1 0 0 1 0 -5634.0005)">
			<stop offset="0" style="stop-color:#5CC3DC"/>
			<stop offset="1" style="stop-color:#037FC3"/>
		</linearGradient>
		<path class="st0" d="M16.8,15.5l9.7-2.5v4l-9.7,2.7V15.5z M16.8,27.2l9.7-2.7v-4l-9.7,2.5V27.2z M16.8,8v4.1l9.7-2.7v-4L16.8,8z"/>
		
			<linearGradient id="SVGID_2_" gradientUnits="userSpaceOnUse" x1="1" y1="5651" x2="14.764" y2="5651" gradientTransform="matrix(1 0 0 1 0 -5634.0005)">
			<stop offset="2.950000e-02" style="stop-color:#68C6DE"/>
			<stop offset="1" style="stop-color:#037FC3"/>
		</linearGradient>
		<path class="st1" d="M5.2,9.5v-4L14.8,8c0-4.6,0-8,0-8C11,2.4,1.2,2.4,1.2,2.4C5.5,11.4,1,17.7,1,17.7C5.5,27.9,14.8,34,14.8,34&#xA;			c0-0.1,0-12.2,0-21.9L5.2,9.5z"/>
	</g>
	<g>
		<g>
			<g>
				<path class="st2" d="M34.9,16V7.8h-2.4V5.9h6.8v1.9H37V16H34.9z"/>
				<path class="st2" d="M40.5,16V5.9h4.4c1.8,0,2.9,1.1,2.9,2.3v2.2c0,0.8-0.5,1.6-1.4,2l1.6,3.7h-2.2l-1.5-3.4h-1.7V16H40.5&#xA;					L40.5,16z M42.7,7.8v2.9h2c0.5,0,1-0.3,1-0.8V8.6c0-0.6-0.5-0.8-1-0.8H42.7L42.7,7.8z"/>
				<path class="st2" d="M49.6,16V5.9h2.1V16H49.6z"/>
				<path class="st2" d="M53.4,16V5.9h4.4c1.8,0,2.9,1.1,2.9,2.3v2.2c0,1.2-1,2.3-2.9,2.3h-2.3V16L53.4,16L53.4,16z M55.6,7.8v2.9h2&#xA;					c0.5,0,1-0.3,1-0.9V8.6c0-0.6-0.5-0.8-1-0.8L55.6,7.8C55.6,7.8,55.6,7.8,55.6,7.8z"/>
				<path class="st2" d="M68.3,16h-6.1V5.9h2.1v8.3h3.9L68.3,16L68.3,16z"/>
				<path class="st2" d="M76,16h-6.4V5.9h6.3v1.9h-4.1V10h3.6v1.9h-3.6v2.3H76L76,16L76,16L76,16z"/>
				<path class="st2" d="M88.3,16h-6.4V5.9h6.3v1.9h-4.1V10h3.6v1.9h-3.6v2.3h4.3L88.3,16L88.3,16L88.3,16z"/>
				<path class="st2" d="M90.1,5.9h4.6c1.8,0,2.9,1.1,2.9,2.3v5.5c0,1.2-1,2.3-2.9,2.3h-4.6C90.1,16,90.1,5.9,90.1,5.9z M92.2,7.8&#xA;					v6.3h2.2c0.5,0,1-0.3,1-0.9V8.7c0-0.6-0.5-0.9-1-0.9L92.2,7.8L92.2,7.8z"/>
				<path class="st2" d="M104.3,9.4V8.6c0-0.6-0.5-0.9-1-0.9h-1.2c-0.5,0-1,0.3-1,0.9v4.8c0,0.6,0.5,0.9,1,0.9h1.2&#xA;					c0.5,0,1-0.3,1-0.9v-1h-1.7v-1.9h3.8v3.4c0,1.2-1,2.3-2.9,2.3h-1.6c-1.9,0-3-1.1-3-2.3V8.1c0-1.2,1.1-2.3,3-2.3h1.6&#xA;					c1.8,0,2.9,1.1,2.9,2.3v1.2L104.3,9.4L104.3,9.4z"/>
				<path class="st2" d="M114.4,16H108V5.9h6.3v1.9h-4.1V10h3.6v1.9h-3.6v2.3h4.3L114.4,16L114.4,16L114.4,16z"/>
			</g>
		</g>
		<path id="TRADEMARK_BLACK_2_" class="st2" d="M118.3,6c-0.9,0-1.7,0.8-1.7,1.7c0,0.9,0.8,1.7,1.7,1.7c0.9,0,1.7-0.8,1.7-1.7&#xA;			S119.2,6,118.3,6z M118.3,9.2c-0.9,0-1.6-0.7-1.6-1.6s0.7-1.6,1.6-1.6s1.6,0.7,1.6,1.6C119.8,8.5,119.1,9.2,118.3,9.2z M116.9,7.1&#xA;			h1v0.2h-0.3v1h-0.3v-1h-0.3L116.9,7.1L116.9,7.1z M119.5,7.1v1.2h-0.3V7.6c0-0.1,0-0.2,0-0.3h0c0,0.1,0,0.1,0,0.2l-0.3,0.8h-0.2&#xA;			l-0.3-0.8c0,0,0-0.1,0-0.2h0c0,0.1,0,0.2,0,0.3v0.7h-0.2V7.1h0.4l0.2,0.7c0,0.1,0,0.1,0,0.2h0c0-0.1,0-0.1,0-0.2l0.2-0.7H119.5&#xA;			L119.5,7.1z"/>
		<g>
			<path class="st2" d="M35.2,22.6v0.2c0,0.3,0.3,0.5,0.6,0.5h0.5c0.4,0,0.7-0.2,0.7-0.5v-0.2c0-0.5-2.4-0.7-2.4-1.9v-0.4&#xA;				c0-0.5,0.4-1,1.2-1h0.6c0.8,0,1.2,0.5,1.2,1v0.5h-0.7v-0.3c0-0.3-0.3-0.5-0.6-0.5h-0.4c-0.3,0-0.5,0.2-0.5,0.5v0.2&#xA;				c0,0.7,2.4,0.8,2.4,1.9v0.5c0,0.6-0.5,1-1.3,1h-0.6c-0.8,0-1.3-0.5-1.3-1v-0.4L35.2,22.6L35.2,22.6L35.2,22.6z"/>
			<path class="st2" d="M48.6,23.9V20h-1.2v-0.7h3V20h-1.1v3.9H48.6z"/>
			<path class="st2" d="M62.2,23.9h-0.8c-0.8,0-1.3-0.5-1.3-1v-3.6H61v3.5c0,0.3,0.2,0.5,0.6,0.5h0.7c0.3,0,0.6-0.2,0.6-0.5v-3.5&#xA;				h0.7v3.6C63.5,23.5,63,23.9,62.2,23.9z"/>
			<path class="st2" d="M73.6,19.3h2.1c0.7,0,1.2,0.5,1.2,1v2.5c0,0.5-0.5,1-1.2,1h-2.1V19.3z M74.3,20v3.3h1.2&#xA;				c0.3,0,0.6-0.2,0.6-0.5v-2.2c0-0.3-0.2-0.5-0.6-0.5L74.3,20L74.3,20z"/>
			<path class="st2" d="M87,23.9v-4.6h0.7v4.6H87z"/>
			<path class="st2" d="M99,23.9c-0.8,0-1.3-0.5-1.3-1v-2.6c0-0.5,0.5-1,1.3-1h0.8c0.7,0,1.2,0.5,1.2,1v2.6c0,0.5-0.5,1-1.2,1H99z&#xA;				 M99.7,23.3c0.3,0,0.6-0.2,0.6-0.5v-2.3c0-0.3-0.2-0.5-0.6-0.5h-0.7c-0.3,0-0.6,0.2-0.6,0.5v2.3c0,0.3,0.3,0.5,0.6,0.5&#xA;				C99.1,23.3,99.7,23.3,99.7,23.3z"/>
			<path class="st2" d="M111.7,22.6v0.2c0,0.3,0.3,0.5,0.6,0.5h0.5c0.4,0,0.7-0.2,0.7-0.5v-0.2c0-0.5-2.4-0.7-2.4-1.9v-0.4&#xA;				c0-0.5,0.4-1,1.2-1h0.6c0.8,0,1.2,0.5,1.2,1v0.5h-0.7v-0.3c0-0.3-0.3-0.5-0.6-0.5h-0.4c-0.3,0-0.5,0.2-0.5,0.5v0.2&#xA;				c0,0.7,2.4,0.8,2.4,1.9v0.5c0,0.6-0.5,1-1.3,1h-0.6c-0.8,0-1.3-0.5-1.3-1v-0.4L111.7,22.6L111.7,22.6z"/>
		</g>
	</g>
</g>
</svg>