<?xml version="1.0" encoding="utf-8"?>
<svg xmlns="http://www.w3.org/2000/svg" width="33" height="32" viewBox="0 0 33 32" fill="none">
<path fill-rule="evenodd" clip-rule="evenodd" d="M16.5 32C25.3366 32 32.5 24.8366 32.5 16C32.5 7.16344 25.3366 0 16.5 0C7.66346 0 0.500015 7.16344 0.500015 16C0.500015 24.8366 7.66346 32 16.5 32ZM22.8721 12.7797C22.8721 17.2581 19.5694 22.4219 13.5318 22.4219V22.4189C11.7481 22.4214 10.0013 21.8938 8.50002 20.8993C9.35946 21.0062 10.2309 20.9372 11.0645 20.6961C11.898 20.4551 12.6774 20.0468 13.358 19.4946C12.673 19.4815 12.009 19.2476 11.4591 18.8256C10.9092 18.4037 10.5008 17.8148 10.2911 17.1415C10.783 17.2392 11.2901 17.2193 11.7734 17.0833C11.0305 16.9285 10.3623 16.5131 9.88229 15.9076C9.40227 15.3021 9.13992 14.5438 9.13975 13.7614V13.7185C9.59628 13.9812 10.1073 14.1267 10.6298 14.1426C9.9348 13.6635 9.44283 12.929 9.25402 12.0886C9.0652 11.2482 9.19373 10.3651 9.61344 9.61907C10.4377 10.6658 11.4659 11.522 12.6315 12.1319C13.797 12.7419 15.0737 13.092 16.3788 13.1596C16.2153 12.433 16.2883 11.671 16.5866 10.9916C16.8849 10.3122 17.3918 9.75326 18.0289 9.4013C18.666 9.04935 19.3977 8.92401 20.1107 9.04469C20.8238 9.16538 21.4784 9.52536 21.9733 10.0689C22.7084 9.91931 23.4134 9.64111 24.0577 9.24632C23.8128 10.0311 23.3 10.6972 22.6147 11.1206C23.2654 11.0412 23.9009 10.8614 24.5 10.5874C24.0594 11.2679 23.5049 11.862 22.8623 12.3416C22.8721 12.4869 22.8721 12.6331 22.8721 12.7797Z" fill="white"/>
</svg>