<?xml version="1.0" encoding="utf-8"?>
<svg xmlns="http://www.w3.org/2000/svg" width="80" height="80" viewBox="0 0 80 80" fill="none">
<path fill-rule="evenodd" clip-rule="evenodd" d="M28.9428 7.17927C28.5824 6.76527 27.994 6.63486 27.4924 6.85778C26.9908 7.08071 26.6933 7.6048 26.759 8.14976L28.6891 24.1498C28.7649 24.7777 29.2977 25.2501 29.9301 25.2501H50.07C50.7024 25.2501 51.2352 24.7777 51.311 24.1498L53.2411 8.14976C53.3068 7.6048 53.0093 7.08071 52.5077 6.85778C52.0061 6.63486 51.4177 6.76527 51.0573 7.17927L45.1969 13.9105L41.058 7.33424C40.8291 6.97066 40.4296 6.75006 40 6.75006C39.5705 6.75006 39.171 6.97066 38.9421 7.33424L34.8032 13.9105L28.9428 7.17927ZM31.0384 22.7501L29.7282 11.8886L34.0223 16.8209C34.282 17.1191 34.6674 17.2769 35.0616 17.2463C35.4558 17.2158 35.8124 17.0005 36.023 16.6659L40 10.3468L43.9771 16.6659C44.1877 17.0005 44.5443 17.2158 44.9385 17.2463C45.3327 17.2769 45.7181 17.1191 45.9778 16.8209L50.2719 11.8886L48.9617 22.7501H31.0384Z" fill="url(#paint0_linear_1189_20116)"/>
<path d="M12.4912 18.7646C12.9134 18.2185 12.813 17.4334 12.2668 17.0111C11.7206 16.5889 10.9356 16.6893 10.5133 17.2355C5.64653 23.5305 2.75006 31.4288 2.75006 40.0001C2.75006 60.5727 19.4275 77.2501 40.0001 77.2501C60.5727 77.2501 77.2501 60.5727 77.2501 40.0001C77.2501 31.4288 74.3536 23.5305 69.4868 17.2355C69.0645 16.6893 68.2795 16.5889 67.7333 17.0111C67.1872 17.4334 67.0867 18.2185 67.509 18.7646C72.0492 24.6372 74.7501 32.0014 74.7501 40.0001C74.7501 59.192 59.192 74.7501 40.0001 74.7501C20.8082 74.7501 5.25006 59.192 5.25006 40.0001C5.25006 32.0014 7.95094 24.6372 12.4912 18.7646Z" fill="url(#paint1_linear_1189_20116)"/>
<path d="M24.2426 54.5682C24.4728 53.8107 25.5273 53.8107 25.7575 54.5682L26.1374 55.8185C26.2401 56.1563 26.5472 56.3867 26.8949 56.3867H28.2058C28.9641 56.3867 29.2896 57.3653 28.687 57.8335L27.5591 58.7096C27.2951 58.9147 27.1849 59.2655 27.283 59.5883L27.6975 60.9522C27.9253 61.7021 27.0721 62.3073 26.4588 61.8308L25.4813 61.0715C25.1972 60.8508 24.8029 60.8508 24.5188 61.0715L23.5413 61.8308C22.928 62.3073 22.0748 61.7021 22.3027 60.9522L22.7171 59.5883C22.8152 59.2655 22.705 58.9147 22.441 58.7096L21.3131 57.8335C20.7105 57.3653 21.0361 56.3867 21.7944 56.3867H23.1053C23.4529 56.3867 23.76 56.1563 23.8627 55.8185L24.2426 54.5682Z" fill="url(#paint2_linear_1189_20116)"/>
<path d="M55.7575 54.5682C55.5273 53.8107 54.4728 53.8107 54.2426 54.5682L53.8627 55.8185C53.76 56.1563 53.4529 56.3867 53.1053 56.3867H51.7944C51.0361 56.3867 50.7105 57.3653 51.3131 57.8335L52.441 58.7096C52.705 58.9147 52.8152 59.2655 52.7171 59.5883L52.3027 60.9522C52.0748 61.7021 52.928 62.3073 53.5413 61.8308L54.5188 61.0715C54.8029 60.8508 55.1972 60.8508 55.4813 61.0715L56.4588 61.8308C57.0721 62.3073 57.9253 61.7021 57.6975 60.9522L57.283 59.5883C57.1849 59.2655 57.2951 58.9147 57.5591 58.7096L58.687 57.8335C59.2896 57.3653 58.9641 56.3867 58.2058 56.3867H56.8949C56.5472 56.3867 56.2401 56.1563 56.1374 55.8185L55.7575 54.5682Z" fill="url(#paint3_linear_1189_20116)"/>
<path d="M41.3818 60.5326L40.7902 58.5911C40.5501 57.803 39.45 57.803 39.2099 58.5911L38.6183 60.5326C38.5112 60.884 38.1908 61.1236 37.8281 61.1236H35.8287C35.0376 61.1236 34.698 62.1418 35.3266 62.6288L37.0144 63.9362C37.2898 64.1496 37.4049 64.5145 37.3025 64.8503L36.6749 66.91C36.4372 67.6901 37.3273 68.3197 37.9671 67.824L39.498 66.6381C39.7944 66.4085 40.2057 66.4085 40.5021 66.6381L42.033 67.824C42.6729 68.3197 43.563 67.6901 43.3252 66.91L42.6976 64.8503C42.5953 64.5145 42.7103 64.1496 42.9857 63.9362L44.6735 62.6288C45.3021 62.1418 44.9625 61.1236 44.1714 61.1236H42.172C41.8093 61.1236 41.4889 60.884 41.3818 60.5326Z" fill="url(#paint4_linear_1189_20116)"/>
<path d="M37.4372 33.0001H34.8215L31.6046 42.5453C31.4851 42.8828 31.3304 43.4031 31.1405 44.1063C30.9507 44.8094 30.81 45.4282 30.7186 45.9626C30.6624 45.611 30.5393 45.0766 30.3495 44.3594C30.1596 43.6352 29.9803 43.0445 29.8116 42.5875L26.5947 33.0001H24.0001L29.3791 48.4201H32.037L37.4372 33.0001Z" fill="url(#paint5_linear_1189_20116)"/>
<path d="M39.4728 33.0001V48.4201H41.9936V33.0001H39.4728Z" fill="url(#paint6_linear_1189_20116)"/>
<path fill-rule="evenodd" clip-rule="evenodd" d="M56.285 37.6619C56.285 39.2721 55.7577 40.5061 54.7029 41.364C53.6482 42.2218 52.147 42.6507 50.1993 42.6507H48.5961V48.4201H46.0753V33.0001H50.5157C52.4423 33.0001 53.8838 33.3938 54.8401 34.1813C55.8034 34.9689 56.285 36.1291 56.285 37.6619ZM48.5961 40.5308H49.9356C51.2294 40.5308 52.1786 40.3058 52.7834 39.8557C53.3881 39.4057 53.6904 38.7026 53.6904 37.7463C53.6904 36.8603 53.4197 36.1994 52.8783 35.7634C52.3369 35.3275 51.4931 35.1095 50.347 35.1095H48.5961V40.5308Z" fill="url(#paint7_linear_1189_20116)"/>
<path d="M66.0001 40.0001C66.0001 40.6904 65.4404 41.2501 64.7501 41.2501C64.0597 41.2501 63.5001 40.6904 63.5001 40.0001C63.5001 39.3097 64.0597 38.7501 64.7501 38.7501C65.4404 38.7501 66.0001 39.3097 66.0001 40.0001Z" fill="url(#paint8_linear_1189_20116)"/>
<path d="M15.2501 41.2501C15.9404 41.2501 16.5001 40.6904 16.5001 40.0001C16.5001 39.3097 15.9404 38.7501 15.2501 38.7501C14.5597 38.7501 14.0001 39.3097 14.0001 40.0001C14.0001 40.6904 14.5597 41.2501 15.2501 41.2501Z" fill="url(#paint9_linear_1189_20116)"/>
<defs>
<linearGradient id="paint0_linear_1189_20116" x1="2.75006" y1="6.75" x2="81.6613" y2="12.0923" gradientUnits="userSpaceOnUse">
<stop stop-color="#FFDC86"/>
<stop offset="0.550621" stop-color="#FFAD7B"/>
<stop offset="1" stop-color="#FFD492"/>
</linearGradient>
<linearGradient id="paint1_linear_1189_20116" x1="2.75006" y1="6.75" x2="81.6613" y2="12.0923" gradientUnits="userSpaceOnUse">
<stop stop-color="#FFDC86"/>
<stop offset="0.550621" stop-color="#FFAD7B"/>
<stop offset="1" stop-color="#FFD492"/>
</linearGradient>
<linearGradient id="paint2_linear_1189_20116" x1="2.75006" y1="6.75" x2="81.6613" y2="12.0923" gradientUnits="userSpaceOnUse">
<stop stop-color="#FFDC86"/>
<stop offset="0.550621" stop-color="#FFAD7B"/>
<stop offset="1" stop-color="#FFD492"/>
</linearGradient>
<linearGradient id="paint3_linear_1189_20116" x1="2.75006" y1="6.75" x2="81.6613" y2="12.0923" gradientUnits="userSpaceOnUse">
<stop stop-color="#FFDC86"/>
<stop offset="0.550621" stop-color="#FFAD7B"/>
<stop offset="1" stop-color="#FFD492"/>
</linearGradient>
<linearGradient id="paint4_linear_1189_20116" x1="2.75006" y1="6.75" x2="81.6613" y2="12.0923" gradientUnits="userSpaceOnUse">
<stop stop-color="#FFDC86"/>
<stop offset="0.550621" stop-color="#FFAD7B"/>
<stop offset="1" stop-color="#FFD492"/>
</linearGradient>
<linearGradient id="paint5_linear_1189_20116" x1="2.75006" y1="6.75" x2="81.6613" y2="12.0923" gradientUnits="userSpaceOnUse">
<stop stop-color="#FFDC86"/>
<stop offset="0.550621" stop-color="#FFAD7B"/>
<stop offset="1" stop-color="#FFD492"/>
</linearGradient>
<linearGradient id="paint6_linear_1189_20116" x1="2.75006" y1="6.75" x2="81.6613" y2="12.0923" gradientUnits="userSpaceOnUse">
<stop stop-color="#FFDC86"/>
<stop offset="0.550621" stop-color="#FFAD7B"/>
<stop offset="1" stop-color="#FFD492"/>
</linearGradient>
<linearGradient id="paint7_linear_1189_20116" x1="2.75006" y1="6.75" x2="81.6613" y2="12.0923" gradientUnits="userSpaceOnUse">
<stop stop-color="#FFDC86"/>
<stop offset="0.550621" stop-color="#FFAD7B"/>
<stop offset="1" stop-color="#FFD492"/>
</linearGradient>
<linearGradient id="paint8_linear_1189_20116" x1="2.75006" y1="6.75" x2="81.6613" y2="12.0923" gradientUnits="userSpaceOnUse">
<stop stop-color="#FFDC86"/>
<stop offset="0.550621" stop-color="#FFAD7B"/>
<stop offset="1" stop-color="#FFD492"/>
</linearGradient>
<linearGradient id="paint9_linear_1189_20116" x1="2.75006" y1="6.75" x2="81.6613" y2="12.0923" gradientUnits="userSpaceOnUse">
<stop stop-color="#FFDC86"/>
<stop offset="0.550621" stop-color="#FFAD7B"/>
<stop offset="1" stop-color="#FFD492"/>
</linearGradient>
</defs>
</svg>