<?xml version="1.0" encoding="utf-8"?>
<svg xmlns="http://www.w3.org/2000/svg" width="48" height="48" viewBox="0 0 48 48" fill="none">
<g id="visa">
<rect y="0.00341797" width="48" height="48" rx="12" fill="#1A1F71"/>
<path id="Vector" d="M28.5689 18.0034C25.6946 18.0034 23.7545 19.5784 23.6826 21.8284C23.6826 23.4784 25.1198 24.4534 26.1976 24.9784C27.2754 25.5034 27.7066 25.8784 27.7066 26.4034C27.7066 27.1534 26.8443 27.5284 25.982 27.5284C24.976 27.5284 23.9701 27.3034 23.0359 26.7784L22.5329 29.3284C23.1796 29.6284 24.4731 29.9284 25.7665 29.9284C28.7844 29.9284 30.7964 28.3534 30.7964 25.9534C30.7964 22.8784 26.7006 22.7284 26.7725 21.3784C26.7725 20.9284 27.1317 20.5534 27.994 20.4034C29 20.3284 29.9341 20.4784 30.7964 20.9284L31.3713 18.4534C30.5808 18.1534 29.6467 18.0034 28.5689 18.0034ZM10.1018 18.2284H5.07186L5 18.5284C6.00599 18.7534 7.15569 19.1284 7.87425 19.5034C8.30539 19.7284 8.4491 19.9534 8.59281 20.5534L10.9641 30.0034H13.982L18.6527 18.2284H15.6347L12.6168 26.2534L11.3952 19.4284C11.3952 18.6784 10.8204 18.2284 10.1018 18.2284ZM35.0359 19.0534L30.7245 29.9284H33.7425L34.3174 28.2034H37.982L38.3413 29.9284H41L38.7725 18.2284H36.3293C35.7545 18.2284 35.2515 18.5284 35.0359 19.0534ZM36.6886 21.3034L37.5509 25.6534H35.1796L36.6886 21.3034ZM20.0898 18.2284L17.7186 30.0034H20.5928L22.9641 18.2284H20.0898Z" fill="white"/>
</g>
</svg>