<?xml version="1.0" encoding="utf-8"?>
<svg xmlns="http://www.w3.org/2000/svg" xmlns:xlink="http://www.w3.org/1999/xlink" version="1.1" id="Layer_1" x="0px" y="0px" viewBox="0 0 306.2 34" style="enable-background:new 0 0 306.2 34;">
<style type="text/css">
	.st0{fill-rule:evenodd;clip-rule:evenodd;fill:#FFFFFF;}
	.st1{fill:#FFFFFF;}
</style>
<g id="Wazdan">
	<g id="wwwroot_logos_providers_white_wazdan">
		<g id="Group">
			<path id="Path" class="st0" d="M31.8,33.4L1.6,3.2C0.4,2,1.2,0.1,2.8,0.1h30.3c1,0,1.8,0.8,1.8,1.8v30.2&#xA;				C35,33.7,33,34.5,31.8,33.4"/>
			<path id="Path_1_" class="st0" d="M38.7,32.1V1.9c0-1,0.8-1.8,1.8-1.8h30.3c1.6,0,2.5,1.9,1.3,3.1L41.8,33.4&#xA;				C40.6,34.5,38.7,33.7,38.7,32.1"/>
			<path id="Path_2_" class="st0" d="M75.8,32.1V1.9c0-1,0.8-1.8,1.8-1.8h30.3c1.6,0,2.5,1.9,1.3,3.1L78.9,33.4&#xA;				C77.7,34.5,75.8,33.7,75.8,32.1"/>
		</g>
		<polygon id="Path_3_" class="st0" points="151.3,0 151.3,20.9 144,6.1 139.8,6.1 132.4,21.1 132.4,0 125.8,0 125.8,33.9 &#xA;			132.4,33.9 141.8,15.5 151.4,33.9 157.8,33.9 157.8,0"/>
		<path id="Shape" class="st1" d="M176.1,9.8l3.8,11.9h-7.7L176.1,9.8z M172.8,0L161,33.9h7.4l2.1-6.4h11.4l2.1,6.4h7.4L179.4,0&#xA;			H172.8z"/>
		<polygon id="Path_4_" class="st0" points="192.6,0 192.6,5.9 206.4,5.9 192.6,29.4 192.6,33.9 215.5,33.9 215.5,28.1 201.3,28.1 &#xA;			215,4.5 215,0"/>
		<path id="Shape_1_" class="st1" d="M238.2,19.2v-4.4c0-5.8-1.6-8.9-6.2-8.9h-5.2v22.2h5.2C236.6,28.1,238.2,25.1,238.2,19.2z&#xA;			 M220,33.9V0.1H232c7.7,0,13.1,3.9,13.1,14.8v4.4C245.1,30,239.7,34,232,34L220,33.9L220,33.9z"/>
		<path id="Shape_2_" class="st1" d="M261.3,9.8l3.8,11.9h-7.7L261.3,9.8z M258,0l-11.8,33.9h7.4l2.1-6.4H267l2.1,6.4h7.4L264.6,0&#xA;			H258z"/>
		<polygon id="Path_5_" class="st0" points="298.7,0 298.7,21.3 285.4,0 279.7,0 279.7,33.9 286.2,33.9 286.2,12.9 299.4,33.9 &#xA;			305.2,33.9 305.2,0"/>
	</g>
</g>
</svg>