<?xml version="1.0" encoding="utf-8"?>
<svg xmlns="http://www.w3.org/2000/svg" xmlns:xlink="http://www.w3.org/1999/xlink" version="1.1" id="Layer_1" x="0px" y="0px" viewBox="0 0 139.9 34" style="enable-background:new 0 0 139.9 34;">
<style type="text/css">
	.st0{fill:#F96432;}
	.st1{fill:#FFFFFF;}
</style>
<g>
	<path class="st0" d="M11.5,1c1.2-0.5,2.5-0.8,3.8-1c0.3,2.6,1,5.1,2.2,7.3c1.2-2.3,1.9-4.8,2.2-7.3c1.3,0.2,2.6,0.5,3.8,1&#xA;		c-0.3,2.1-0.8,4.1-1.6,6.1c2.1-0.8,4-2.1,5.5-3.8c1.1,0.8,2,1.8,2.8,2.8c-2.6,2.9-6,4.9-9.8,5.6C21.7,13,23,14,24.3,15&#xA;		c2.3-2.3,5.2-4.1,8.3-5.1c0.6,1.2,0.9,2.5,1.2,3.8c-2.1,0.7-4,1.8-5.7,3.2c1.9,0.7,3.9,1.1,6,1.1c-0.1,1.4-0.3,2.7-0.7,4&#xA;		c-6-0.4-11.7-3.2-15.8-7.7c-4.1,4.6-9.8,7.4-15.8,7.7c-0.4-1.3-0.6-2.6-0.7-4c2-0.1,4.1-0.5,6-1.2c-1.7-1.4-3.6-2.5-5.7-3.2&#xA;		C1.6,12.3,2,11,2.5,9.8c3.1,1,5.9,2.8,8.3,5.1c1.4-0.9,2.7-2,3.8-3.3C10.8,11,7.3,9,4.8,6C5.6,5,6.6,4,7.6,3.2&#xA;		c1.5,1.7,3.4,3,5.5,3.8C12.4,5.1,11.8,3.1,11.5,1z"/>
	<path class="st0" d="M10,20.6c1.2-0.6,2.4-1.2,3.5-2c1.4,1.8,2.8,3.7,4.1,5.5c1.4-1.8,2.8-3.7,4.1-5.5c1.1,0.7,2.3,1.4,3.5,2&#xA;		c-1.8,2.6-3.8,5-5.6,7.6c0,1.9,0,3.8,0,5.7c-1.3,0.2-2.6,0.2-3.9,0v-5.7L10,20.6z"/>
	<path class="st1" d="M116.5,10.5c1.1-0.7,2.5-1,3.8-0.7c1.2,0.2,2.4,0.7,3.4,1.5l-1.4,2c-1-0.8-2.3-1.2-3.5-1.2&#xA;		c-0.6,0.1-1.2,0.5-1.1,1.1c0.1,0.6,0.5,0.9,0.9,1c1.4,0.6,3,0.7,4.3,1.7c1.3,1.2,1.5,3.2,0.6,4.6c-0.6,0.9-1.6,1.5-2.7,1.6&#xA;		c-2.2,0.3-4.4-0.4-6.1-1.9l1.5-1.9c0.9,0.8,2,1.3,3.2,1.5c0.6,0.1,1.3,0,1.8-0.5c0.2-0.2,0.3-0.6,0.3-0.9c-0.1-0.3-0.3-0.6-0.6-0.7&#xA;		c-1.5-0.8-3.3-0.8-4.7-1.9c-0.7-0.6-1.1-1.6-1.1-2.6C115.1,12.2,115.6,11.1,116.5,10.5z"/>
	<path class="st1" d="M55.7,10.5c1.5-0.8,3.3-1,4.9-0.5c1,0.3,2,0.7,2.8,1.4l-1.7,2c-0.8-0.7-1.7-1.2-2.8-1.2&#xA;		c-1.1-0.1-2.2,0.4-2.9,1.2c-1.4,1.7-1.2,4.2,0.4,5.7c1.4,1.1,3.3,1.2,4.8,0.1c0-0.4,0-0.9,0-1.3H60c0-0.7,0-1.4,0-2.1h3.7v4.6&#xA;		c-1.6,1.4-3.8,2.1-5.9,1.9c-1.6-0.2-3-1-4-2.2c-1.1-1.5-1.6-3.5-1.2-5.4C52.9,12.9,54.1,11.3,55.7,10.5z"/>
	<path class="st1" d="M68.3,10.7c1.6-1,3.5-1.2,5.3-0.8c1,0.3,1.9,0.7,2.7,1.4c-0.6,0.7-1.1,1.4-1.6,2c-0.8-0.8-1.8-1.2-2.9-1.2&#xA;		c-1.1-0.1-2.3,0.5-2.9,1.4c-1.2,1.7-0.9,4.1,0.6,5.5c1.4,1,3.3,1,4.7,0v-1.3H73v-2.1h3.7c0,1.5,0,3.1,0,4.6&#xA;		c-1.4,1.2-3.1,1.9-4.9,1.9c-1.7,0.1-3.4-0.5-4.7-1.7c-1.2-1.3-1.8-3-1.7-4.8C65.5,13.7,66.6,11.8,68.3,10.7z"/>
	<path class="st1" d="M41,9.9c1,0,2,0,3,0c0.9,1.8,1.9,3.6,2.8,5.4l2.9-5.4h2.9c-1.5,2.8-3.1,5.5-4.6,8.3c0,1.3,0,2.6,0,3.9h-2.6&#xA;		c0-1.3,0-2.6,0-3.9C44.1,15.5,42.5,12.7,41,9.9z"/>
	<path class="st1" d="M88.3,12.9c-1.2-1.9-3.3-3.1-5.5-2.9h-4c0,4.1,0,8.1,0,12.2c1.5,0,3.1,0,4.6,0c2.3-0.1,4.3-1.4,5.3-3.5&#xA;		C89.5,16.8,89.3,14.6,88.3,12.9z M84.9,19.1c-1,0.7-2.3,0.6-3.5,0.6c0-2.5,0-4.9,0-7.4c1.2,0,2.4-0.1,3.4,0.5&#xA;		c1,0.7,1.6,1.9,1.6,3.1S85.9,18.4,84.9,19.1z"/>
	<path class="st1" d="M90.9,9.9c1.8,0,3.6,0,5.4,0c1.5,0,2.9,0.7,3.7,2c0.8,1.6,0.5,3.6-0.7,4.9c-0.4,0.4-0.9,0.7-1.4,0.9l2.9,4.4&#xA;		h-3c-0.8-1.3-1.7-2.6-2.5-3.9h-0.7v-2.4c0.9,0,1.8,0.2,2.6-0.3c0.5-0.4,0.7-1,0.7-1.6c-0.1-0.6-0.4-1.1-1-1.4&#xA;		c-1.1-0.2-2.2-0.3-3.3-0.2v9.8h-2.6C90.9,18.1,90.9,14,90.9,9.9z"/>
	<path class="st1" d="M101.6,22.2l5.1-12.3h2.4l5.1,12.3h-2.8c-0.4-0.9-0.7-1.8-1.1-2.8h-4l0.9-2.3h2.1l-1.6-4&#xA;		c-1.2,3-2.4,6.1-3.6,9.1L101.6,22.2L101.6,22.2z"/>
	<rect x="126" y="9.9" class="st1" width="2.6" height="12.2"/>
	<path class="st1" d="M130.8,9.9h2.6c0,3.3,0,6.5,0,9.8h5.5v2.4h-8.1C130.8,18.1,130.7,14,130.8,9.9z"/>
</g>
</svg>