<?xml version="1.0" encoding="utf-8"?>
<svg xmlns="http://www.w3.org/2000/svg" width="43" height="24" fill="none" viewBox="0 0 43 24">
  <g clip-path="url(#a)">
    <path fill="#00FF79" d="M41.082 6.966c.3-1.644.666-3.276.971-4.92.054-.276.21-.6-.048-.888-.102-.114-.185-.252-.3-.42-.101.018-.251.072-.395.054-.461-.048-.719.216-.857.588-.324.882-.671 1.758-.91 2.664-.205.744-.27 1.524-.414 2.388-.282-.114-.54-.228-.797-.324-.108-.036-.228-.036-.348-.054-.024.36-.336.198-.474.204-.33.024-.64.012-.916.252-.144.132-.33.21-.498.318-.018.012-.018.042-.036.084.066.03.132.054.204.084l.078.096c-.09.054-.21.084-.276.156-.288.33-.57.672-.845 1.02a3.718 3.718 0 0 0-.282.402c-.215.348-.45.684-.623 1.056-.084.18-.012.426-.072.624-.09.294-.192.588-.3.876l.9.282-1.607.9c-.042.12-.09.246-.132.366l-.077-.012v-.354h-.108c-.084.24-.162.48-.258.714-.048.126-.108.312-.204.342-.33.114-.377.438-.57.654-.047.048-.089.102-.143.144-.425.36-.857.714-1.277 1.074-.653.57-1.288 1.152-1.941 1.716a5.937 5.937 0 0 1-.743.528c-.126.078-.354.15-.354-.078 0-.282-.186-.612.114-.87.114-.096.174-.246.287-.342.192-.168.432-.288.6-.48.198-.222.305-.54.521-.738.3-.276.366-.786.87-.846.035 0 .09-.066.09-.09-.049-.342.209-.432.419-.516.012-.12-.006-.276.036-.294.293-.126.395-.42.593-.624a1.65 1.65 0 0 1 .354-.288l1.606-.9-.9-.282a.943.943 0 0 1 .21-.096c.246-.066.33-.192.426-.396.186-.39.222-.852.563-1.182.066-.384.06-.786.018-1.17-.03-.288-.078-.636-.203-.924-.168.024-.282-.09-.462-.324-.264-.342-.593-.708-.977-.864-.6-.246-1.252-.24-1.834.168-.24.168-.521.27-.755.45-.335.258-.677.522-.94.84-.294.354-.516.762-.744 1.164-.198.354-.377.72-.545 1.086-.072.156-.138.312-.252.414a6.945 6.945 0 0 0-.114.324c.012.012.03.018.042.03l-.066.048c-.042.138-.078.282-.114.426l.9.282-1.607.9c-.03.12-.054.24-.072.366.006.012.018.018.024.03-.012 0-.018-.012-.03-.012-.156.888-.168 1.818-.221 2.694a5.727 5.727 0 0 0 0 .786.19.19 0 0 1 .047.114c0 .024-.018.048-.035.072a8.51 8.51 0 0 0 .33 1.776c.071.12.143.24.203.366.275.564.653 1.002 1.294 1.14l.018-.012c.324-.12.684-.186.965-.372.642-.426 1.295-.852 1.846-1.38.665-.636 1.235-1.374 1.834-2.07.114-.132.198-.3.3-.45l.132.018c.035.33.078.666.113.972-.012.102-.018.186-.03.276v.03a.45.45 0 0 1 .048.108c.054.21.102.438.156.66.012.024.024.042.03.066l.072.33c.12.426.276.846.521 1.188.049.066.096.132.15.192.246.198.492.402.743.6l.072-.06c-.018-.102-.036-.204-.06-.33.276.012.534.024.768.036l.839-.648a.72.72 0 0 1 .066.072c0-.09.006-.18.012-.27.353.138.347-.192.473-.348.126-.15.24-.318.36-.474.012-.03.018-.054.03-.084l1.312-2.688.096.018-.168.816c.03.084.12.222.126.366.06.81.096 1.62.144 2.43.018.246.12.498.078.732-.066.372.072.654.252.966.137-.12.197-.366.371-.384.06-.126.114-.258.156-.39a.338.338 0 0 1-.072-.024c.048-.06.09-.126.126-.18v-.024c.036-.282.066-.564.096-.846-.03-.072-.06-.156-.096-.246.048.012.084.018.12.024.012-.096.018-.192.03-.288.012-.27.018-.534.042-.786.03-.39.09-.78.167-1.158-.072-.162-.048-.306.108-.498l.054-.21a.332.332 0 0 1-.036-.162c.012-.114.024-.228.042-.342 0-.084-.012-.162-.024-.246a.377.377 0 0 1 .09-.306c.06-.522.126-1.05.192-1.572a9.99 9.99 0 0 1 .06-.414l1.606-.9-.899-.282c.072-.486.144-.972.21-1.458.126-.942.198-1.89.371-2.82l-.036.048Zm-13.808 7.926c.144-.636.264-1.284.438-1.914.054-.186.12-.378.186-.558l1.606-.9-.9-.282c.097-.24.198-.48.318-.708a20 20 0 0 1 .893-1.512c.12-.186.282-.348.456-.492.162-.132.311-.39.581-.114.336.342.414.594.192.888-.222.3-.474.576-.683.882-.246.348-.486.702-.726 1.056l.9.282-1.607.9c-.251.366-.497.732-.743 1.104-.305.456-.587.93-.875 1.398l-.042-.024.006-.006ZM37.96 12.42c-.072.432-.378.738-.6 1.092-.281.45-.569.894-.868 1.326-.192.276-.426.528-.636.786-.3.366-.599.726-.905 1.086-.03.036-.09.054-.233.138.042-.324.072-.564.108-.804.041-.312.084-.624.143-.93.084-.438.18-.882.288-1.314.114-.462.216-.93.342-1.386l1.606-.9-.9-.282c.049-.18.103-.36.163-.54.305-.912.815-1.704 1.588-2.298.234-.18.401-.078.461.138.12.438.24.888.27 1.338.024.414-.084.828-.108 1.248a.66.66 0 0 1-.012.108l.9.282-1.607.9v.012Z"/>
    <path fill="#00FF79" d="M24.254 17.604c-.198-.888-.24-1.8-.048-2.694-.012-.366.012-.732.012-1.098 0-.366-.012-.762-.012-1.14v-.246l1.606-.9-.9-.282c0-.18.007-.366 0-.546 0-.582.109-1.164-.065-1.74-.018-.066.018-.162.048-.234.072-.198.198-.396.222-.6.054-.504.383-.69.803-.822.12-.036.311-.162.305-.234-.024-.282.174-.324.348-.396.288-.126.605-.216.869-.378.33-.204.827-.156.983-.642-.923-.45-1.918-.3-2.985-.276.396-.426.168-.96.486-1.344.114-.132.108-.366.144-.558.047-.228.035-.486.137-.684.174-.342.198-.672.108-1.026-.03-.108-.036-.228-.042-.342-.024-.24-.395-.6-.623-.588-.228.012-.467.084-.677.036-.408-.096-.54.198-.707.438-.186.27-.336.57-.498.858-.018.036-.018.084-.03.132-.036.174-.03.372-.114.528-.197.36-.353.714-.383 1.14-.018.288-.066.618-.222.852-.258.384-.252.786-.234 1.212.042-.06.078-.12.12-.186 0 .378 0 .372-.341.576a28.303 28.303 0 0 0-1.373.888c-.09.174-.168.33-.246.492l-.185-.108c.125-.222.251-.438.347-.618-.024-.12-.054-.222-.06-.324-.006-.12 0-.246.012-.366.024-.234.03-.468.09-.69.06-.222.216-.414.258-.636.096-.456.12-.93.216-1.386.072-.342.251-.666.305-1.008a2.966 2.966 0 0 0-.03-1.002c-.024-.114-.3-.156-.431-.264-.318-.252-.557-.12-.743.156-.24.36-.474.726-.654 1.122-.33.726-.7 1.446-.91 2.208-.33 1.188-.582 2.4-.786 3.612a30.45 30.45 0 0 0-.353 2.748l.899.282-1.606.9c-.018.24-.036.474-.048.714-.06 1.302-.072 2.616.06 3.912.113 1.146.173 2.37 1.084 3.27.06.06.138.096.21.138.024-.084.072-.162.066-.246l.06-.666c.096-.252.186-.492.312-.816l.053-.474c.043-.162.108-.312.114-.468.012-.186-.036-.366-.048-.552-.017-.288.084-.534.186-.804.162-.42.102-.924.54-1.248-.39-.12-.378-.114-.324-.486.03-.186-.012-.384.024-.564.048-.21.144-.408.216-.612.03-.078.09-.216.072-.228-.348-.234-.258-.57-.228-.876l1.606-.9-.899-.282c0-.042.006-.084.006-.126 0-.264.102-.522.168-.78.048-.192.108-.378.18-.624-.15-.168-.09-.618.215-1.038l-.125-.108a.946.946 0 0 1 .509.126c.431.246.965.222 1.264-.048.024.27.084.564.073.858.101.084.167.21.137.36a7.614 7.614 0 0 0-.09.978h.006s0 .006-.006.012c0 .12-.006.24-.012.354 0 .012.006.024.012.036h.024l.875.282-1.606.9c0 .03 0 .066-.012.102 0 .324-.012.648-.03.966.024.21.054.414.102.612.156.6-.162 1.248.18 1.83.03.054 0 .138.012.21.024.21.054.42.072.63.042.444.293.864.252 1.314.047.138.095.276.137.414.048.024.066.066.048.144.012.03.018.06.03.09.108.264.216.522.306.792 0 .012.012.03.018.042a4.92 4.92 0 0 1 .108.354c.144.234.294.468.455.684.114.15.138.474.474.312.018-.006.066.06.102.078.06.03.125.054.185.078 0-.072.024-.168-.012-.222-.233-.33-.143-.618.048-.852l-.078-.582c.03.036.054.066.078.102-.078-.642-.215-1.272-.233-1.92l.012.006ZM6.975 11.238c-.215-.276-.09-.576.066-.876.054-.102.144-.192.168-.3.138-.582.234-1.17.39-1.74.263-.996.551-1.98.845-2.964.048-.162.197-.288.245-.45.096-.33.126-.678.222-1.008.192-.642.414-1.266.617-1.902.12-.39.246-.78.324-1.176.03-.168 0-.462-.102-.528-.24-.144-.54-.21-.82-.258-.384-.072-.582.24-.774.48-.743.924-1.169 2.016-1.504 3.126a12.065 12.065 0 0 1-1.463 3.15c-.054.084-.185.12-.347.21.06.354-.078.714-.528.966-.054-.348-.09-.648-.15-.948-.071-.348-.173-.69-.251-1.038-.084-.384-.132-.774-.24-1.146l-.066-.642c-.114-.282-.144-.6-.198-.906-.024-.138.012-.33-.06-.402-.185-.18-.21-.318-.023-.504.024-.024-.03-.144-.066-.204-.054-.102-.15-.186-.18-.288-.084-.282-.192-.576-.204-.864-.024-.51-.407-.618-.755-.804C1.94.126 1.767.018 1.588.18c-.294.222-.51.504-.528.876-.048.81-.078 1.62-.108 2.43-.036 1.302.108 2.586.348 3.864.228 1.212.617 2.346 1.39 3.24.612.138 1.151.264 1.738.396 0 0 .012.078 0 .15-.006.036-.012.072-.024.102l.9.282-1.607.9c-.174.804-.341 1.614-.521 2.418-.336 1.5-.725 2.988-.995 4.5-.252 1.404.312 2.826.401 4.26.012.138.078.276.114.396.57-.246-.186-.978.324-1.026.06-.228.066-.414.15-.546.21-.318.275-.744.683-.912.024-.012.048-.054.048-.084.006-.288-.012-.582.024-.864.024-.204.12-.402.204-.654-.012-.012-.048-.048-.042-.078.114-.408.24-.804.36-1.212.011-.03 0-.072 0-.102.017 0 .041.006.053 0 .06-.042.168-.102.162-.132-.096-.426.15-.798.162-1.206 0-.078.06-.15.084-.228.108-.354.317-.72.287-1.062-.03-.336.09-.438.252-.504.018-.174.018-.264.042-.36.012-.06.06-.108.072-.168.072-.384.078-.798.228-1.152.144-.336.132-.69.24-1.02.03-.096.143-.168.24-.27l1.605-.9-.893-.282-.006.006Z"/>
    <path fill="#00FF79" d="M16.864 11.244c.066-.174.132-.348.156-.528.066-.576.054-1.146-.198-1.692-.06-.132-.036-.312-.042-.468 0-.078.048-.162.03-.234-.21-.708-.719-1.206-1.24-1.686-.042-.042-.132-.042-.198-.042-.384 0-.707-.354-1.12-.186-.03.012-.09-.06-.139-.09-.491-.306-.953-.564-1.6-.462-1.013.15-1.702.798-2.397 1.41-.737.642-1.193 1.5-1.582 2.418a7.755 7.755 0 0 0-.48 1.572l.9.282-1.607.9c-.174.894-.186 1.8-.084 2.724.096.828.288 1.644.444 2.502.06.012.197 0 .245.066.246.318.426.696.707.972.258.264.612.432.93.636.18.114.389.186.545.318.311.276.455.3.809.078.048-.03.108-.024.162-.042.557-.168 1.12-.342 1.678-.504.138-.042.281-.072.503-.126-.024.054.024 0 .012-.024-.144-.318.054-.558.234-.732.593-.564.845-1.35 1.312-1.992.132-.186.228-.402.306-.624a37.47 37.47 0 0 0 .557-1.668c.132-.438.24-.882.36-1.32.024-.09.06-.18.09-.27l1.606-.9-.899-.282v-.006Zm-3.254 1.224c-.066 1.05-.48 2.022-.887 2.964-.282.654-.785 1.224-1.24 1.788-.264.324-.708.33-.918.024-.251-.366-.557-.714-.611-1.206-.024-.264-.186-.516-.222-.78-.036-.258.018-.528.018-.786 0-.162.024-.366-.06-.474-.203-.24-.257-.45-.084-.732.06-.102.054-.246.072-.372.018-.156-.012-.324.03-.468l1.606-.9-.899-.282v-.006c.144-.426.312-.846.474-1.266.018-.042.054-.072.036-.042.186.15.353.312.545.426.066.042.294-.024.3-.072.138-.612.671-.804 1.12-1.074.24-.15.522-.24.798-.306.096-.024.275.084.341.186.42.672.336 1.428.288 2.166l.899.282-1.606.9v.042-.012Z"/>
    <path fill="#FF00D3" d="M41.885 6.966c.3-1.644.666-3.276.971-4.92.054-.276.21-.6-.048-.888-.102-.114-.186-.252-.3-.42-.101.018-.251.072-.395.054-.462-.048-.72.216-.857.588-.324.882-.671 1.758-.911 2.664-.204.744-.27 1.524-.414 2.388-.281-.114-.539-.228-.797-.324-.108-.036-.227-.036-.347-.054-.024.36-.336.198-.474.204-.33.024-.641.012-.917.252-.144.132-.33.21-.497.318-.018.012-.018.042-.036.084.066.03.132.054.204.084l.078.096c-.09.054-.21.084-.276.156-.288.33-.57.672-.845 1.02a3.718 3.718 0 0 0-.282.402c-.215.348-.45.684-.623 1.056-.084.18-.012.426-.072.624-.09.294-.192.588-.3.876l.9.282-1.607.9c-.042.12-.09.246-.132.366l-.078-.012v-.354h-.108c-.083.24-.161.48-.257.714-.048.126-.108.312-.204.342-.33.114-.378.438-.57.654-.047.048-.09.102-.143.144-.426.36-.857.714-1.277 1.074-.653.57-1.288 1.152-1.941 1.716a5.946 5.946 0 0 1-.744.528c-.125.078-.353.15-.353-.078 0-.282-.186-.612.114-.87.114-.096.173-.246.287-.342.192-.168.432-.288.6-.48.197-.222.305-.54.521-.738.3-.276.366-.786.87-.846.035 0 .089-.066.089-.09-.048-.342.21-.432.42-.516.011-.12-.006-.276.035-.294.294-.126.396-.42.594-.624a1.65 1.65 0 0 1 .353-.288l1.606-.9-.898-.282a.943.943 0 0 1 .21-.096c.245-.066.329-.192.425-.396.186-.39.222-.852.563-1.182.066-.384.06-.786.018-1.17-.03-.288-.078-.636-.204-.924-.167.024-.281-.09-.461-.324-.264-.342-.593-.708-.977-.864-.6-.246-1.253-.24-1.834.168-.24.168-.521.27-.755.45-.336.258-.677.522-.94.84-.295.354-.516.762-.744 1.164-.198.354-.378.72-.545 1.086-.072.156-.138.312-.252.414a6.833 6.833 0 0 0-.114.324c.012.012.03.018.042.03a1.6 1.6 0 0 1-.066.048c-.042.138-.078.282-.114.426l.9.282-1.607.9c-.03.12-.054.24-.072.366.006.012.018.018.024.03-.012 0-.018-.012-.03-.012-.156.888-.168 1.818-.222 2.694a5.727 5.727 0 0 0 0 .786c.03.036.048.078.048.114 0 .024-.018.048-.036.072a8.51 8.51 0 0 0 .33 1.776c.072.12.144.24.204.366.275.564.653 1.002 1.294 1.14l.018-.012c.324-.12.683-.186.965-.372.641-.426 1.295-.852 1.846-1.38.665-.636 1.235-1.374 1.834-2.07.114-.132.198-.3.3-.45l.131.018c.036.33.078.666.114.972-.012.102-.018.186-.03.276v.03a.45.45 0 0 1 .048.108c.054.21.102.438.156.66.012.024.024.042.03.066l.072.33c.12.426.276.846.521 1.188.048.066.096.132.15.192.246.198.492.402.743.6l.072-.06c-.018-.102-.036-.204-.06-.33.276.012.534.024.767.036l.84-.648c.023.024.047.048.065.072 0-.09.006-.18.012-.27.354.138.348-.192.474-.348.126-.15.24-.318.36-.474.011-.03.017-.054.03-.084l1.312-2.688.096.018-.168.816c.03.084.12.222.126.366.06.81.096 1.62.144 2.43.018.246.12.498.078.732-.066.372.072.654.251.966.138-.12.198-.366.372-.384.06-.126.114-.258.156-.39-.024-.006-.048-.012-.072-.024.048-.06.09-.126.126-.18v-.024c.036-.282.066-.564.096-.846-.03-.072-.06-.156-.096-.246.048.012.084.018.12.024.011-.096.017-.192.03-.288.011-.27.017-.534.041-.786.03-.39.09-.78.168-1.158-.072-.162-.048-.306.108-.498l.054-.21a.332.332 0 0 1-.036-.162c.012-.114.024-.228.042-.342 0-.084-.012-.162-.024-.246a.378.378 0 0 1 .09-.306c.06-.522.126-1.05.192-1.572a9.99 9.99 0 0 1 .06-.414l1.606-.9-.9-.282c.073-.486.145-.972.21-1.458.127-.942.198-1.89.372-2.82l-.036.048Zm-13.808 7.926c.144-.636.264-1.284.438-1.914.053-.186.12-.378.185-.558l1.606-.9-.899-.282c.096-.24.198-.48.318-.708a20 20 0 0 1 .893-1.512c.12-.186.282-.348.456-.492.161-.132.311-.39.58-.114.337.342.414.594.193.888-.222.3-.474.576-.684.882a65.57 65.57 0 0 0-.725 1.056l.9.282-1.607.9c-.252.366-.497.732-.743 1.104-.306.456-.587.93-.875 1.398l-.042-.024.006-.006Zm10.686-2.472c-.072.432-.378.738-.6 1.092-.281.45-.569.894-.868 1.326-.192.276-.426.528-.636.786-.3.366-.6.726-.905 1.086-.03.036-.09.054-.233.138.041-.324.071-.564.107-.804.042-.312.084-.624.144-.93.084-.438.18-.882.288-1.314.114-.462.216-.93.341-1.386l1.607-.9-.9-.282c.049-.18.103-.36.163-.54.305-.912.815-1.704 1.588-2.298.233-.18.401-.078.461.138.12.438.24.888.27 1.338.024.414-.084.828-.108 1.248 0 .036-.006.072-.012.108l.899.282-1.606.9v.012Z"/>
    <path fill="#FF00D3" d="M25.05 17.604c-.197-.888-.24-1.8-.047-2.694-.012-.366.012-.732.012-1.098 0-.366-.012-.762-.012-1.14v-.246l1.606-.9-.9-.282c0-.18.007-.366 0-.546 0-.582.109-1.164-.065-1.74-.018-.066.018-.162.048-.234.072-.198.198-.396.221-.6.054-.504.384-.69.804-.822.12-.036.311-.162.305-.234-.024-.282.174-.324.348-.396.287-.126.605-.216.869-.378.33-.204.827-.156.983-.642-.923-.45-1.918-.3-2.985-.276.396-.426.168-.96.486-1.344.113-.132.107-.366.143-.558.048-.228.036-.486.138-.684.174-.342.198-.672.108-1.026-.03-.108-.036-.228-.042-.342-.024-.24-.395-.6-.623-.588-.228.012-.468.084-.677.036-.408-.096-.54.198-.708.438-.185.27-.335.57-.497.858-.018.036-.018.084-.03.132-.036.174-.03.372-.114.528-.198.36-.353.714-.383 1.14-.018.288-.066.618-.222.852-.258.384-.252.786-.234 1.212.042-.06.078-.12.12-.186 0 .378 0 .372-.342.576-.341.204-.67.42-1 .636-.138.09-.27.18-.372.252-.09.174-.168.33-.246.492-.06-.036-.126-.072-.186-.108.126-.222.252-.438.348-.618-.024-.12-.054-.222-.06-.324-.006-.12 0-.246.012-.366.024-.234.03-.468.09-.69.06-.222.216-.414.258-.636.096-.456.12-.93.215-1.386.072-.342.252-.666.306-1.008a2.961 2.961 0 0 0-.03-1.002c-.024-.114-.3-.156-.431-.264-.318-.252-.558-.12-.744.156-.24.36-.473.726-.653 1.122-.33.726-.701 1.446-.91 2.208a35.57 35.57 0 0 0-.786 3.612c-.156.912-.281 1.83-.353 2.748l.899.282-1.607.9c-.018.24-.036.474-.048.714-.06 1.302-.072 2.616.06 3.912.114 1.146.174 2.37 1.085 3.27.06.06.138.096.21.138.024-.084.072-.162.066-.246l.06-.666c.096-.252.186-.492.311-.816l.054-.474c.042-.162.108-.312.114-.468.012-.186-.036-.366-.048-.552-.018-.288.084-.534.186-.804.162-.42.102-.924.54-1.248-.39-.12-.378-.114-.324-.486.03-.186-.012-.384.024-.564.048-.21.144-.408.216-.612.03-.078.09-.216.071-.228-.347-.234-.257-.57-.227-.876l1.606-.9-.9-.282c0-.042.007-.084.007-.126 0-.264.102-.522.168-.78.048-.192.108-.378.18-.624-.15-.168-.09-.618.215-1.038l-.126-.108a.946.946 0 0 1 .51.126c.431.246.965.222 1.264-.048.024.27.084.564.072.858.102.084.168.21.138.36a7.614 7.614 0 0 0-.09.978h.006s0 .006-.006.012c0 .12-.006.24-.012.354 0 .012.006.024.012.036h.024l.875.282-1.606.9c0 .03 0 .066-.012.102 0 .324-.012.648-.03.966.024.21.054.414.102.612.156.6-.162 1.248.18 1.83.03.054 0 .138.012.21.024.21.054.42.072.63.042.444.293.864.251 1.314.048.138.096.276.138.414.048.024.066.066.048.144.012.03.018.06.03.09.108.264.216.522.306.792 0 .012.012.03.018.042a4.857 4.857 0 0 1 .108.354c.143.234.293.468.455.684.114.15.138.474.474.312.018-.006.066.06.101.078.06.03.126.054.186.078 0-.072.024-.168-.012-.222-.233-.33-.144-.618.048-.852l-.078-.582c.03.036.054.066.078.102-.078-.642-.216-1.272-.233-1.92l.011.006ZM7.772 11.238c-.216-.276-.09-.576.066-.876.054-.102.144-.192.168-.3.138-.582.234-1.17.39-1.74.263-.996.55-1.98.845-2.964.047-.162.197-.288.245-.45.096-.33.126-.678.222-1.008.192-.642.413-1.266.617-1.902.12-.39.246-.78.324-1.176.03-.168 0-.462-.102-.528-.24-.144-.54-.21-.821-.258-.384-.072-.581.24-.773.48-.743.924-1.169 2.016-1.504 3.126a12.065 12.065 0 0 1-1.463 3.15c-.054.084-.186.12-.347.21.06.354-.078.714-.528.966-.054-.348-.09-.648-.15-.948-.072-.348-.173-.69-.251-1.038-.084-.384-.132-.774-.24-1.146l-.066-.642c-.114-.282-.144-.6-.198-.906-.024-.138.012-.33-.06-.402-.185-.18-.21-.318-.024-.504.024-.024-.03-.144-.066-.204-.053-.102-.15-.186-.18-.288-.083-.282-.191-.576-.203-.864-.024-.51-.408-.618-.755-.804-.18-.096-.354-.204-.534-.042-.27.234-.485.522-.51.888-.047.81-.077 1.62-.1 2.43-.037 1.302.107 2.586.347 3.864.227 1.212.617 2.346 1.39 3.24.611.138 1.15.264 1.738.396 0 0 .012.078 0 .15-.006.036-.012.072-.024.102l.9.282-1.607.9c-.174.804-.342 1.614-.521 2.418-.336 1.5-.726 2.988-.995 4.5-.252 1.404.311 2.826.401 4.26.012.138.078.276.114.396.57-.246-.186-.978.324-1.026.06-.228.066-.414.15-.546.21-.318.275-.744.683-.912.024-.012.048-.054.048-.084.006-.288-.012-.582.024-.864.024-.204.12-.402.203-.654-.012-.012-.048-.048-.042-.078.114-.408.24-.804.36-1.212.012-.03 0-.072 0-.102.018 0 .042.006.054 0 .06-.042.168-.102.162-.132-.096-.426.15-.798.162-1.206 0-.078.06-.15.084-.228.107-.354.317-.72.287-1.062-.03-.336.09-.438.252-.504.018-.174.018-.264.042-.36.012-.06.06-.108.072-.168.072-.384.078-.798.228-1.152.143-.336.131-.69.24-1.02.03-.096.143-.168.239-.27l1.606-.9-.893-.282-.03-.006Z"/>
    <path fill="#FF00D3" d="M17.667 11.244a2.42 2.42 0 0 0 .156-.528c.066-.576.054-1.146-.198-1.692-.06-.132-.036-.312-.042-.468 0-.078.048-.162.03-.234-.21-.708-.72-1.206-1.24-1.686-.043-.042-.133-.042-.198-.042-.384 0-.708-.354-1.121-.186-.03.012-.09-.06-.138-.09-.491-.306-.953-.564-1.6-.462-1.013.15-1.702.798-2.397 1.41-.738.642-1.193 1.5-1.583 2.418a7.757 7.757 0 0 0-.479 1.572l.899.282-1.606.9c-.174.894-.186 1.8-.084 2.724.096.828.288 1.644.443 2.502.06.012.198 0 .246.066.246.318.426.696.707.972.258.264.612.432.93.636.179.114.389.186.545.318.311.276.455.3.809.078.048-.03.107-.024.162-.042.557-.168 1.12-.342 1.678-.504.137-.042.281-.072.503-.126-.024.054.024 0 .012-.024-.144-.318.054-.558.234-.732.593-.564.845-1.35 1.312-1.992.132-.186.228-.402.306-.624a38.95 38.95 0 0 0 .557-1.668c.132-.438.24-.882.36-1.32.024-.09.06-.18.09-.27l1.606-.9-.9-.282v-.006Zm-3.254 1.224c-.066 1.05-.48 2.022-.887 2.964-.282.654-.785 1.224-1.241 1.788-.264.324-.707.33-.917.024-.252-.366-.557-.714-.611-1.206-.024-.264-.186-.516-.222-.78-.036-.258.018-.528.018-.786 0-.162.024-.366-.06-.474-.204-.24-.258-.45-.084-.732.06-.102.054-.246.072-.372.018-.156-.012-.324.03-.468l1.606-.9-.899-.282v-.006c.144-.426.312-.846.474-1.266.018-.042.054-.072.036-.042.186.15.353.312.545.426.066.042.294-.024.3-.072.138-.612.67-.804 1.12-1.074.24-.15.522-.24.798-.306.095-.024.275.084.341.186.42.672.336 1.428.288 2.166l.899.282-1.606.9v.042-.012Z"/>
    <path fill="#fff" d="M41.49 6.954c.3-1.644.665-3.276.971-4.92.054-.276.21-.6-.048-.888-.102-.114-.186-.252-.3-.42-.102.018-.251.072-.395.054-.462-.048-.72.216-.857.588-.324.882-.671 1.758-.911 2.664-.204.744-.27 1.524-.414 2.388-.281-.114-.54-.228-.797-.324-.108-.036-.227-.036-.347-.054-.024.36-.336.198-.474.204-.33.024-.641.012-.917.252-.144.132-.33.21-.497.318-.018.012-.018.042-.036.084.066.03.132.054.204.084l.078.096c-.09.054-.21.084-.276.156-.288.33-.57.672-.845 1.02a3.718 3.718 0 0 0-.282.402c-.216.348-.45.684-.623 1.056-.084.18-.012.426-.072.624-.09.294-.192.588-.3.876l.9.282-1.607.9c-.042.12-.09.246-.132.366l-.078-.012v-.354h-.108c-.084.24-.161.48-.257.714-.048.126-.108.312-.204.342-.33.114-.378.438-.57.654-.047.048-.09.102-.143.144-.426.36-.857.714-1.277 1.074-.653.57-1.288 1.152-1.942 1.716a5.937 5.937 0 0 1-.743.528c-.126.078-.353.15-.353-.078 0-.282-.186-.612.113-.87.114-.096.174-.246.288-.342.192-.168.432-.288.6-.48.197-.222.305-.54.52-.738.3-.276.366-.786.87-.846.036 0 .09-.066.09-.09-.048-.342.21-.432.42-.516.011-.12-.007-.276.035-.294.294-.126.396-.42.594-.624.102-.108.221-.21.353-.288l1.606-.9-.899-.282a.944.944 0 0 1 .21-.096c.246-.066.33-.192.426-.396.185-.39.221-.852.563-1.182a4.25 4.25 0 0 0 .018-1.17c-.03-.288-.078-.636-.204-.924-.168.024-.281-.09-.461-.324-.264-.342-.593-.708-.977-.864-.6-.246-1.253-.24-1.834.168-.24.168-.521.27-.755.45-.336.258-.677.522-.941.84-.294.354-.515.762-.743 1.164-.198.354-.378.72-.546 1.086-.072.156-.137.312-.251.414-.042.108-.078.216-.114.324.012.012.03.018.042.03l-.066.048a8.71 8.71 0 0 0-.114.426l.899.282-1.606.9c-.03.12-.054.24-.072.366.006.012.018.018.024.03-.012 0-.018-.012-.03-.012-.156.888-.168 1.818-.222 2.694a5.759 5.759 0 0 0 0 .786c.03.036.048.078.048.114 0 .024-.018.048-.036.072.042.606.162 1.194.33 1.776.072.12.144.24.204.366.275.564.653 1.002 1.294 1.14l.018-.012c.324-.12.683-.186.965-.372.641-.426 1.294-.852 1.846-1.38.665-.636 1.234-1.374 1.834-2.07.114-.132.197-.3.3-.45l.131.018c.036.33.078.666.114.972-.012.102-.018.186-.03.276v.03a.45.45 0 0 1 .048.108c.054.21.102.438.156.66.012.024.024.042.03.066l.072.33c.12.426.276.846.521 1.188.048.066.096.132.15.192.246.198.491.402.743.6l.072-.06c-.018-.102-.036-.204-.06-.33.276.012.534.024.767.036l.84-.648a.718.718 0 0 1 .065.072c0-.09.006-.18.012-.27.354.138.348-.192.474-.348.126-.15.24-.318.36-.474.011-.03.017-.054.03-.084l1.312-2.688.096.018-.168.816c.03.084.12.222.126.366.06.81.096 1.62.143 2.43.018.246.12.498.078.732-.066.372.072.654.252.966.138-.12.198-.366.372-.384.06-.126.114-.258.156-.39-.024-.006-.048-.012-.072-.024.048-.06.09-.126.125-.18v-.024c.036-.282.066-.564.096-.846-.03-.072-.06-.156-.096-.246.048.012.084.018.12.024.012-.096.018-.192.03-.288.012-.27.018-.534.042-.786.03-.39.09-.78.168-1.158-.072-.162-.048-.306.108-.498l.054-.21a.332.332 0 0 1-.036-.162c.012-.114.024-.228.042-.342 0-.084-.012-.162-.024-.246a.377.377 0 0 1 .09-.306c.06-.522.126-1.05.192-1.572.018-.138.036-.276.06-.414l1.606-.9-.9-.282c.073-.486.145-.972.21-1.458.126-.942.198-1.89.372-2.82l-.036.048ZM27.682 14.88c.144-.636.264-1.284.437-1.914.054-.186.12-.378.186-.558l1.606-.9-.899-.282c.096-.24.198-.48.318-.708a20 20 0 0 1 .893-1.512c.12-.186.282-.348.455-.492.162-.132.312-.39.582-.114.335.342.413.594.191.888-.221.3-.473.576-.683.882-.245.348-.485.702-.725 1.056l.9.282-1.607.9c-.252.366-.497.732-.743 1.104-.306.456-.587.93-.875 1.398l-.042-.024.006-.006Zm10.686-2.472c-.072.432-.378.738-.6 1.092-.281.45-.569.894-.869 1.326-.191.276-.425.528-.635.786-.3.366-.6.726-.905 1.086-.03.036-.09.054-.234.138.042-.324.072-.564.108-.804.042-.312.084-.624.144-.93.084-.438.18-.882.288-1.314.114-.462.215-.93.341-1.386l1.606-.9-.898-.282c.047-.18.101-.36.161-.54.306-.912.815-1.704 1.589-2.298.233-.18.401-.078.461.138.12.438.24.888.27 1.338.024.414-.084.828-.108 1.248a.661.661 0 0 1-.012.108l.899.282-1.606.9v.012Z"/>
    <path fill="#fff" d="M24.661 17.592c-.198-.888-.24-1.8-.048-2.694-.012-.366.012-.732.012-1.098 0-.366-.012-.762-.012-1.14v-.246l1.607-.9-.9-.282c0-.18.006-.366 0-.546 0-.582.108-1.164-.065-1.74-.018-.066.018-.162.048-.234.072-.198.197-.396.221-.6.054-.504.384-.69.803-.822.12-.036.312-.162.306-.234-.024-.282.174-.324.348-.396.287-.126.605-.216.869-.378.33-.204.827-.156.982-.642-.922-.45-1.917-.3-2.984-.276.396-.426.168-.96.485-1.344.114-.132.108-.366.144-.558.048-.228.036-.486.138-.684.174-.342.198-.672.108-1.026-.03-.108-.036-.228-.042-.342-.024-.24-.396-.6-.623-.588-.228.012-.468.084-.677.036-.408-.096-.54.198-.708.438-.185.27-.335.57-.497.858-.018.036-.018.084-.03.132-.036.174-.03.372-.114.528-.198.36-.354.714-.384 1.14-.017.288-.066.618-.221.852-.258.384-.252.786-.234 1.212.042-.06.078-.12.12-.186 0 .378 0 .372-.342.576a28.299 28.299 0 0 0-1.372.888c-.09.174-.168.33-.246.492-.06-.036-.126-.072-.186-.108.126-.222.252-.438.348-.618-.024-.12-.054-.222-.06-.324-.006-.12 0-.246.012-.366.024-.234.03-.468.09-.69.06-.222.216-.414.258-.636.095-.456.12-.93.215-1.386.072-.342.252-.666.306-1.008a2.966 2.966 0 0 0-.03-1.002c-.024-.114-.3-.156-.431-.264-.318-.252-.558-.12-.744.156-.24.36-.473.726-.653 1.122-.33.726-.701 1.446-.91 2.208-.33 1.188-.582 2.4-.786 3.612-.156.912-.282 1.83-.354 2.748l.9.282-1.607.9c-.018.24-.036.474-.048.714-.06 1.302-.072 2.616.06 3.912.114 1.146.174 2.37 1.085 3.27.06.06.138.096.21.138.024-.084.072-.162.066-.246l.06-.666c.096-.252.185-.492.311-.816l.054-.474c.042-.162.108-.312.114-.468.012-.186-.036-.366-.048-.552-.018-.288.084-.534.186-.804.162-.42.102-.924.54-1.248-.39-.12-.378-.114-.324-.486.03-.186-.012-.384.024-.564.048-.21.143-.408.215-.612.03-.078.09-.216.072-.228-.347-.234-.257-.57-.227-.876l1.606-.9-.9-.282c0-.042.007-.084.007-.126 0-.264.102-.522.168-.78.047-.192.107-.378.18-.624-.15-.168-.09-.618.215-1.038l-.126-.108a.946.946 0 0 1 .51.126c.431.246.964.222 1.264-.048.024.27.084.564.072.858.102.084.168.21.138.36a7.578 7.578 0 0 0-.09.978h.006s0 .006-.006.012c0 .12-.006.24-.012.354 0 .012.006.024.012.036h.024l.875.282-1.606.9c0 .03 0 .066-.012.102 0 .324-.012.648-.03.966.024.21.054.414.102.612.156.6-.162 1.248.18 1.83.03.054 0 .138.012.21.024.21.053.42.072.63.041.444.293.864.251 1.314.048.138.096.276.138.414.048.024.066.066.048.144.012.03.018.06.03.09.108.264.216.522.306.792 0 .012.012.03.018.042a5.641 5.641 0 0 1 .108.354c.143.234.293.468.455.684.114.15.138.474.473.312.018-.006.066.06.102.078.06.03.126.054.186.078 0-.072.024-.168-.012-.222-.234-.33-.144-.618.048-.852l-.078-.582c.03.036.054.066.078.102-.078-.642-.216-1.272-.234-1.92l.012.006ZM7.383 11.226c-.216-.276-.09-.576.066-.876.054-.102.144-.192.168-.3.138-.582.234-1.17.39-1.74.263-.996.55-1.98.844-2.964.048-.162.198-.288.246-.45.096-.33.126-.678.222-1.008.192-.642.413-1.266.617-1.902.12-.39.246-.78.324-1.176.03-.168 0-.462-.102-.528-.24-.144-.54-.21-.821-.258-.384-.072-.582.24-.773.48-.743.924-1.169 2.016-1.505 3.126a12.065 12.065 0 0 1-1.462 3.15c-.054.084-.186.12-.348.21.06.354-.077.714-.527.966-.054-.348-.09-.648-.15-.948-.072-.348-.174-.69-.251-1.038-.084-.384-.132-.774-.24-1.146l-.066-.642c-.114-.282-.144-.6-.198-.906-.024-.138.012-.33-.06-.402-.186-.18-.21-.318-.024-.504.024-.024-.03-.144-.066-.204-.054-.102-.15-.186-.18-.288-.083-.282-.191-.576-.203-.864C3.26.504 2.876.396 2.529.21c-.18-.096-.354-.204-.534-.042-.27.234-.485.522-.51.888-.047.81-.077 1.62-.101 2.43-.036 1.302.108 2.586.348 3.864.227 1.212.617 2.346 1.39 3.24.611.138 1.15.264 1.738.396 0 0 .012.078 0 .15-.006.036-.012.072-.024.102l.899.282-1.606.9c-.174.804-.342 1.614-.522 2.418-.335 1.5-.725 2.988-.995 4.5-.251 1.404.312 2.826.402 4.26.012.138.078.276.114.396.57-.246-.186-.978.324-1.026.06-.228.065-.414.15-.546.21-.318.275-.744.683-.912.024-.012.048-.054.048-.084.006-.288-.012-.582.023-.864.024-.204.12-.402.204-.654-.012-.012-.048-.048-.042-.078.114-.408.24-.804.36-1.212.012-.03 0-.072 0-.102.018 0 .042.006.054 0 .06-.042.168-.102.162-.132-.096-.426.15-.798.161-1.206 0-.078.06-.15.084-.228.108-.354.318-.72.288-1.062-.03-.336.09-.438.252-.504.018-.174.018-.264.042-.36.012-.06.06-.108.072-.168.072-.384.078-.798.227-1.152.144-.336.132-.69.24-1.02.03-.096.144-.168.24-.27l1.606-.9-.893-.282-.03-.006Z"/>
    <path fill="#fff" d="M17.272 11.232c.066-.174.132-.348.156-.528.066-.576.053-1.146-.198-1.692-.06-.132-.036-.312-.042-.468 0-.078.048-.162.03-.234-.21-.708-.72-1.206-1.24-1.686-.043-.042-.133-.042-.199-.042-.383 0-.707-.354-1.12-.186-.03.012-.09-.06-.138-.09-.492-.306-.953-.564-1.6-.462-1.013.15-1.702.798-2.397 1.41-.738.642-1.193 1.5-1.583 2.418a7.756 7.756 0 0 0-.48 1.572l.9.282-1.606.9c-.174.894-.186 1.8-.084 2.724.096.828.287 1.644.443 2.502.06.012.198 0 .246.066.246.318.425.696.707.972.258.264.611.432.93.636.179.114.389.186.544.318.312.276.456.3.81.078.047-.03.107-.024.161-.042.558-.168 1.121-.342 1.678-.504.138-.042.282-.072.504-.126-.024.054.024 0 .012-.024-.144-.318.054-.558.234-.732.593-.564.845-1.35 1.312-1.992.132-.186.228-.402.306-.624.197-.552.383-1.104.557-1.668.132-.438.24-.882.36-1.32.024-.09.06-.18.09-.27l1.606-.9-.9-.282v-.006Zm-3.254 1.224c-.067 1.05-.48 2.022-.888 2.964-.281.654-.785 1.224-1.24 1.788-.264.324-.707.33-.917.024-.252-.366-.557-.714-.611-1.206-.024-.264-.186-.516-.222-.78-.036-.258.018-.528.018-.786 0-.162.024-.366-.06-.474-.204-.24-.258-.45-.084-.732.06-.102.054-.246.072-.372.018-.156-.012-.324.03-.468l1.606-.9-.899-.282v-.006c.144-.426.312-.846.474-1.266.018-.042.053-.072.035-.042.186.15.354.312.546.426.066.042.294-.024.3-.072.137-.612.67-.804 1.12-1.074.24-.15.522-.24.797-.306.096-.024.276.084.342.186.42.672.336 1.428.288 2.166l.899.282-1.607.9v.042-.012Z"/>
  </g>
  <defs>
    <clipPath id="a">
      <path fill="#fff" d="M.952 0h42v24h-42z"/>
    </clipPath>
  </defs>
</svg>